<?xml version="1.0" encoding="UTF-8" standalone="no" ?>
<!DOCTYPE svg PUBLIC "-//W3C//DTD SVG 1.1//EN" "http://www.w3.org/Graphics/SVG/1.1/DTD/svg11.dtd">
<svg xmlns="http://www.w3.org/2000/svg" xmlns:xlink="http://www.w3.org/1999/xlink" version="1.1" width="1034" height="731.1111111111111" viewBox="0 0 1034 731.1111111111111" xml:space="preserve">
<desc>Created with Fabric.js 5.3.0</desc>
<defs>
</defs>
<g transform="matrix(1 0 0 1 257.15006657272903 180.63798436614886)"  >
<polygon style="stroke: rgb(0,0,0); stroke-width: 2.473684210526316; stroke-dasharray: none; stroke-linecap: butt; stroke-dashoffset: 0; stroke-linejoin: miter; stroke-miterlimit: 4; fill: rgb(255,255,255); fill-opacity: 0.25; fill-rule: nonzero; opacity: 1;"  points="255.91322446746585,-179.4011422608857 -255.91322446746585,-179.4011422608857 -255.91322446746585,179.4011422608857 255.91322446746585,179.4011422608857 " />
</g>
<g transform="matrix(1 0 0 1 257.6498986988678 549.7163970645615)"  >
<polygon style="stroke: rgb(0,0,0); stroke-width: 2.473684210526316; stroke-dasharray: none; stroke-linecap: butt; stroke-dashoffset: 0; stroke-linejoin: miter; stroke-miterlimit: 4; fill: rgb(255,255,255); fill-opacity: 0.25; fill-rule: nonzero; opacity: 1;"  points="-256.4130565936046,-179.67727043752694 -256.4130565936046,179.67727043752694 256.4130565936046,179.67727043752694 256.4130565936046,-179.67727043752694 " />
</g>
<g transform="matrix(1 0 0 1 634.0243443044145 180.63798436614886)"  >
<polygon style="stroke: rgb(0,0,0); stroke-width: 2.473684210526316; stroke-dasharray: none; stroke-linecap: butt; stroke-dashoffset: 0; stroke-linejoin: miter; stroke-miterlimit: 4; fill: rgb(255,255,255); fill-opacity: 0.25; fill-rule: nonzero; opacity: 1;"  points="110.96105326421969,-179.4011422608857 -110.96105326421969,-179.4011422608857 -110.96105326421969,179.4011422608857 110.96105326421969,179.4011422608857 " />
</g>
<g transform="matrix(1 0 0 1 893.6339769798058 180.63798436614886)"  >
<polygon style="stroke: rgb(0,0,0); stroke-width: 2.473684210526316; stroke-dasharray: none; stroke-linecap: butt; stroke-dashoffset: 0; stroke-linejoin: miter; stroke-miterlimit: 4; fill: rgb(255,255,255); fill-opacity: 0.25; fill-rule: nonzero; opacity: 1;"  points="138.64857941117157,179.4011422608857 138.64857941117157,-179.4011422608857 -138.64857941117157,-179.4011422608857 -138.64857941117157,179.4011422608857 " />
</g>
<g transform="matrix(1 0 0 1 635.0240085566921 549.7163970645615)"  >
<polygon style="stroke: rgb(0,0,0); stroke-width: 2.473684210526316; stroke-dasharray: none; stroke-linecap: butt; stroke-dashoffset: 0; stroke-linejoin: miter; stroke-miterlimit: 4; fill: rgb(255,255,255); fill-opacity: 0.25; fill-rule: nonzero; opacity: 1;"  points="-110.96105326421974,179.67727043752694 110.96105326421974,179.67727043752694 110.96105326421974,-179.67727043752694 -110.96105326421974,-179.67727043752694 " />
</g>
<g transform="matrix(1 0 0 1 894.1338091059446 549.7163970645615)"  >
<polygon style="stroke: rgb(0,0,0); stroke-width: 2.473684210526316; stroke-dasharray: none; stroke-linecap: butt; stroke-dashoffset: 0; stroke-linejoin: miter; stroke-miterlimit: 4; fill: rgb(255,255,255); fill-opacity: 0.25; fill-rule: nonzero; opacity: 1;"  points="-138.14874728503275,179.67727043752694 138.14874728503275,179.67727043752694 138.14874728503275,-179.67727043752694 -138.14874728503275,-179.67727043752694 " />
</g>
</svg>