<?xml version="1.0" encoding="UTF-8" standalone="no" ?>
<!DOCTYPE svg PUBLIC "-//W3C//DTD SVG 1.1//EN" "http://www.w3.org/Graphics/SVG/1.1/DTD/svg11.dtd">
<svg xmlns="http://www.w3.org/2000/svg" xmlns:xlink="http://www.w3.org/1999/xlink" version="1.1" width="1034" height="731.1111111111111" viewBox="0 0 1034 731.1111111111111" xml:space="preserve">
<desc>Created with Fabric.js 5.3.0</desc>
<defs>
</defs>
<g transform="matrix(1 0 0 1 618.7263076034229 248.60845812595687)"  >
<polygon style="stroke: rgb(0,0,0); stroke-width: 2.473684210526316; stroke-dasharray: none; stroke-linecap: butt; stroke-dashoffset: 0; stroke-linejoin: miter; stroke-miterlimit: 4; fill: rgb(255,255,255); fill-opacity: 0.25; fill-rule: nonzero; opacity: 1;"  points="413.5562487875544,247.37161602069372 413.5562487875544,-247.37161602069372 -413.5562487875544,-247.37161602069372 -413.5562487875544,247.37161602069372 " />
</g>
<g transform="matrix(1 0 0 1 412.09888029875265 617.6868708243695)"  >
<polygon style="stroke: rgb(0,0,0); stroke-width: 2.473684210526316; stroke-dasharray: none; stroke-linecap: butt; stroke-dashoffset: 0; stroke-linejoin: miter; stroke-miterlimit: 4; fill: rgb(255,255,255); fill-opacity: 0.25; fill-rule: nonzero; opacity: 1;"  points="-206.92882148288413,111.70679667771893 206.92882148288413,111.70679667771893 206.92882148288413,-111.70679667771893 -206.92882148288413,-111.70679667771893 " />
</g>
<g transform="matrix(1 0 0 1 830.655129086307 617.6868708243695)"  >
<polygon style="stroke: rgb(0,0,0); stroke-width: 2.473684210526316; stroke-dasharray: none; stroke-linecap: butt; stroke-dashoffset: 0; stroke-linejoin: miter; stroke-miterlimit: 4; fill: rgb(255,255,255); fill-opacity: 0.25; fill-rule: nonzero; opacity: 1;"  points="-201.62742730467028,111.70679667771893 201.62742730467028,111.70679667771893 201.62742730467028,-111.70679667771893 -201.62742730467028,-111.70679667771893 " />
</g>
<g transform="matrix(1 0 0 1 98.20345046056585 628.6820945208091)"  >
<polygon style="stroke: rgb(0,0,0); stroke-width: 2.473684210526316; stroke-dasharray: none; stroke-linecap: butt; stroke-dashoffset: 0; stroke-linejoin: miter; stroke-miterlimit: 4; fill: rgb(255,255,255); fill-opacity: 0.25; fill-rule: nonzero; opacity: 1;"  points="-96.96660835530268,-100.7115729812794 -96.96660835530268,100.7115729812794 96.96660835530268,100.7115729812794 96.96660835530268,-100.7115729812794 " />
</g>
<g transform="matrix(1 0 0 1 98.20345046056585 421.01481089981763)"  >
<polygon style="stroke: rgb(0,0,0); stroke-width: 2.473684210526316; stroke-dasharray: none; stroke-linecap: butt; stroke-dashoffset: 0; stroke-linejoin: miter; stroke-miterlimit: 4; fill: rgb(255,255,255); fill-opacity: 0.25; fill-rule: nonzero; opacity: 1;"  points="-96.96660835530268,-96.95571063971201 -96.96660835530268,96.95571063971201 96.96660835530268,96.95571063971201 96.96660835530268,-96.95571063971201 " />
</g>
<g transform="matrix(1 0 0 1 98.20345046056585 65.18813555353377)"  >
<polygon style="stroke: rgb(0,0,0); stroke-width: 2.473684210526316; stroke-dasharray: none; stroke-linecap: butt; stroke-dashoffset: 0; stroke-linejoin: miter; stroke-miterlimit: 4; fill: rgb(255,255,255); fill-opacity: 0.25; fill-rule: nonzero; opacity: 1;"  points="96.96660835530268,-63.951293448270604 -96.96660835530268,-63.951293448270604 -96.96660835530268,63.951293448270604 96.96660835530268,63.951293448270604 " />
</g>
<g transform="matrix(1 0 0 1 98.20345046056585 226.59926463095502)"  >
<polygon style="stroke: rgb(0,0,0); stroke-width: 2.473684210526316; stroke-dasharray: none; stroke-linecap: butt; stroke-dashoffset: 0; stroke-linejoin: miter; stroke-miterlimit: 4; fill: rgb(255,255,255); fill-opacity: 0.25; fill-rule: nonzero; opacity: 1;"  points="-96.96660835530268,-87.45983562915063 -96.96660835530268,87.45983562915063 96.96660835530268,87.45983562915063 96.96660835530268,-87.45983562915063 " />
</g>
</svg>