<?xml version="1.0" encoding="UTF-8" standalone="no" ?>
<!DOCTYPE svg PUBLIC "-//W3C//DTD SVG 1.1//EN" "http://www.w3.org/Graphics/SVG/1.1/DTD/svg11.dtd">
<svg xmlns="http://www.w3.org/2000/svg" xmlns:xlink="http://www.w3.org/1999/xlink" version="1.1" width="1034" height="731.1111111111111" viewBox="0 0 1034 731.1111111111111" xml:space="preserve">
<desc>Created with Fabric.js 5.3.0</desc>
<defs>
</defs>
<g transform="matrix(1 0 0 1 413.09768992805886 249.1082410212496)"  >
<polygon style="stroke: rgb(0,0,0); stroke-width: 2.473684210526316; stroke-dasharray: none; stroke-linecap: butt; stroke-dashoffset: 0; stroke-linejoin: miter; stroke-miterlimit: 4; fill: rgb(255,255,255); fill-opacity: 0.25; fill-rule: nonzero; opacity: 1;"  points="411.8608478227957,-247.87139891598645 -411.8608478227957,-247.87139891598645 -411.8608478227957,247.87139891598645 411.8608478227957,247.87139891598645 " />
</g>
<g transform="matrix(1 0 0 1 933.6205470709159 309.5024487790717)"  >
<polygon style="stroke: rgb(0,0,0); stroke-width: 2.473684210526316; stroke-dasharray: none; stroke-linecap: butt; stroke-dashoffset: 0; stroke-linejoin: miter; stroke-miterlimit: 4; fill: rgb(255,255,255); fill-opacity: 0.25; fill-rule: nonzero; opacity: 1;"  points="98.66200932006143,81.4016644151656 98.66200932006143,-81.4016644151656 -98.66200932006143,-81.4016644151656 -98.66200932006143,41.94074776358126 " />
</g>
<g transform="matrix(1 0 0 1 933.6205470709159 457.69904327162885)"  >
<polygon style="stroke: rgb(0,0,0); stroke-width: 2.473684210526316; stroke-dasharray: none; stroke-linecap: butt; stroke-dashoffset: 0; stroke-linejoin: miter; stroke-miterlimit: 4; fill: rgb(255,255,255); fill-opacity: 0.25; fill-rule: nonzero; opacity: 1;"  points="98.66200932006143,96.25584672897588 98.66200932006143,-56.79493007739154 -98.66200932006143,-96.25584672897588 -98.66200932006143,96.25584672897588 " />
</g>
<g transform="matrix(1 0 0 1 933.6205470709159 646.6742787513466)"  >
<polygon style="stroke: rgb(0,0,0); stroke-width: 2.473684210526316; stroke-dasharray: none; stroke-linecap: butt; stroke-dashoffset: 0; stroke-linejoin: miter; stroke-miterlimit: 4; fill: rgb(255,255,255); fill-opacity: 0.25; fill-rule: nonzero; opacity: 1;"  points="-98.66200932006143,82.71938875074187 98.66200932006143,82.71938875074187 98.66200932006143,-82.71938875074187 -98.66200932006143,-82.71938875074187 " />
</g>
<g transform="matrix(1 0 0 1 933.6205470709159 64.79324489131788)"  >
<polygon style="stroke: rgb(0,0,0); stroke-width: 2.473684210526316; stroke-dasharray: none; stroke-linecap: butt; stroke-dashoffset: 0; stroke-linejoin: miter; stroke-miterlimit: 4; fill: rgb(255,255,255); fill-opacity: 0.25; fill-rule: nonzero; opacity: 1;"  points="98.66200932006143,63.55640278605472 98.66200932006143,-63.55640278605472 -98.66200932006143,-63.55640278605472 -98.66200932006143,17.131794960661253 " />
</g>
<g transform="matrix(1 0 0 1 933.6205470709159 155.0129121079426)"  >
<polygon style="stroke: rgb(0,0,0); stroke-width: 2.473684210526316; stroke-dasharray: none; stroke-linecap: butt; stroke-dashoffset: 0; stroke-linejoin: miter; stroke-miterlimit: 4; fill: rgb(255,255,255); fill-opacity: 0.25; fill-rule: nonzero; opacity: 1;"  points="98.66200932006143,63.08787225596348 98.66200932006143,-16.663264430570017 -98.66200932006143,-63.08787225596348 -98.66200932006143,63.08787225596348 " />
</g>
<g transform="matrix(1 0 0 1 687.0065496751355 618.1866537196622)"  >
<polygon style="stroke: rgb(0,0,0); stroke-width: 2.473684210526316; stroke-dasharray: none; stroke-linecap: butt; stroke-dashoffset: 0; stroke-linejoin: miter; stroke-miterlimit: 4; fill: rgb(255,255,255); fill-opacity: 0.25; fill-rule: nonzero; opacity: 1;"  points="-137.951988075719,111.2070137824262 137.951988075719,111.2070137824262 137.951988075719,-111.2070137824262 -137.951988075719,-111.2070137824262 " />
</g>
<g transform="matrix(1 0 0 1 95.1384141495608 618.1866537196622)"  >
<polygon style="stroke: rgb(0,0,0); stroke-width: 2.473684210526316; stroke-dasharray: none; stroke-linecap: butt; stroke-dashoffset: 0; stroke-linejoin: miter; stroke-miterlimit: 4; fill: rgb(255,255,255); fill-opacity: 0.25; fill-rule: nonzero; opacity: 1;"  points="-93.90157204429764,-111.2070137824262 -93.90157204429764,111.2070137824262 37.31699174743184,111.2070137824262 93.90157204429764,-111.2070137824262 " />
</g>
<g transform="matrix(1 0 0 1 245.14226212330243 618.1866537196622)"  >
<polygon style="stroke: rgb(0,0,0); stroke-width: 2.473684210526316; stroke-dasharray: none; stroke-linecap: butt; stroke-dashoffset: 0; stroke-linejoin: miter; stroke-miterlimit: 4; fill: rgb(255,255,255); fill-opacity: 0.25; fill-rule: nonzero; opacity: 1;"  points="-102.68685622630977,111.2070137824262 102.68685622630977,111.2070137824262 60.84247216246149,-111.2070137824262 -46.10227592944398,-111.2070137824262 " />
</g>
<g transform="matrix(1 0 0 1 427.5196479425902 618.1866537196622)"  >
<polygon style="stroke: rgb(0,0,0); stroke-width: 2.473684210526316; stroke-dasharray: none; stroke-linecap: butt; stroke-dashoffset: 0; stroke-linejoin: miter; stroke-miterlimit: 4; fill: rgb(255,255,255); fill-opacity: 0.25; fill-rule: nonzero; opacity: 1;"  points="-69.69052959297804,111.2070137824262 111.53491365682632,111.2070137824262 111.53491365682632,-111.2070137824262 -111.53491365682632,-111.2070137824262 " />
</g>
</svg>