<?xml version="1.0" encoding="UTF-8" standalone="no" ?>
<!DOCTYPE svg PUBLIC "-//W3C//DTD SVG 1.1//EN" "http://www.w3.org/Graphics/SVG/1.1/DTD/svg11.dtd">
<svg xmlns="http://www.w3.org/2000/svg" xmlns:xlink="http://www.w3.org/1999/xlink" version="1.1" width="1391.6571428571428" height="984" viewBox="0 0 1391.6571428571428 984" xml:space="preserve">
<desc>Created with Fabric.js 5.3.0</desc>
<g transform="matrix(1 0 0 1 694.8404897959184 223.25444891810096)"  >
<polygon style="stroke: rgb(0,0,0); stroke-width: 2; stroke-dasharray: none; stroke-linecap: butt; stroke-dashoffset: 0; stroke-linejoin: miter; stroke-miterlimit: 4; fill: rgb(255,255,255); fill-opacity: 0.25; fill-rule: nonzero; opacity: 1;"  points="682.1262040816327,210.54016320381524 682.1262040816327,-210.54016320381524 -682.1262040816327,-210.54016320381524 -682.1262040816327,210.54016320381524 " />
</g>
<g transform="matrix(1 0 0 1 871.4755698428141 706.5520815711621)"  >
<polygon style="stroke: rgb(0,0,0); stroke-width: 2; stroke-dasharray: none; stroke-linecap: butt; stroke-dashoffset: 0; stroke-linejoin: miter; stroke-miterlimit: 4; fill: rgb(255,255,255); fill-opacity: 0.25; fill-rule: nonzero; opacity: 1;"  points="-176.47087917273757,262.75746944924595 176.47087917273757,262.75746944924595 176.47087917273757,-262.75746944924595 -176.47087917273757,-262.75746944924595 " />
</g>
<g transform="matrix(1 0 0 1 1217.4565714465516 706.5520815711621)"  >
<polygon style="stroke: rgb(0,0,0); stroke-width: 2; stroke-dasharray: none; stroke-linecap: butt; stroke-dashoffset: 0; stroke-linejoin: miter; stroke-miterlimit: 4; fill: rgb(255,255,255); fill-opacity: 0.25; fill-rule: nonzero; opacity: 1;"  points="-159.5101224309998,262.75746944924595 159.5101224309998,262.75746944924595 159.5101224309998,-262.75746944924595 -159.5101224309998,-262.75746944924595 " />
</g>
<g transform="matrix(1 0 0 1 163.38925080076055 706.5520815711621)"  >
<polygon style="stroke: rgb(0,0,0); stroke-width: 2; stroke-dasharray: none; stroke-linecap: butt; stroke-dashoffset: 0; stroke-linejoin: miter; stroke-miterlimit: 4; fill: rgb(255,255,255); fill-opacity: 0.25; fill-rule: nonzero; opacity: 1;"  points="-150.67496508647483,-262.75746944924595 -150.67496508647483,262.75746944924595 150.67496508647483,262.75746944924595 150.67496508647483,-262.75746944924595 " />
</g>
<g transform="matrix(1 0 0 1 504.53445327865603 706.5520815711621)"  >
<polygon style="stroke: rgb(0,0,0); stroke-width: 2; stroke-dasharray: none; stroke-linecap: butt; stroke-dashoffset: 0; stroke-linejoin: miter; stroke-miterlimit: 4; fill: rgb(255,255,255); fill-opacity: 0.25; fill-rule: nonzero; opacity: 1;"  points="-180.4702373914206,262.75746944924595 180.4702373914206,262.75746944924595 180.4702373914206,-262.75746944924595 -180.4702373914206,-262.75746944924595 " />
</g>
</svg>