<svg version="1.1" id="Layer_1" xmlns="http://www.w3.org/2000/svg" xmlns:xlink="http://www.w3.org/1999/xlink" x="0px" y="0px"
	 width="100%" viewBox="0 0 3540 2520" enable-background="new 0 0 3540 2520" xml:space="preserve">
<path fill="none" opacity="1.000000" stroke="#000000" stroke-linecap="round" stroke-linejoin="round" stroke-width="5.000000"
	d="
M1554.000000,8.500001 
	C1540.333374,8.333334 1526.666626,8.021644 1513.000000,8.020956 
	C1016.666687,7.996006 520.333313,7.998534 24.000002,8.028021 
	C20.323568,8.028239 16.545147,7.329942 12.500000,9.188521 
	C12.500000,843.666687 12.500000,1678.333374 12.500000,2512.796387 
	C16.204748,2514.619141 19.653683,2513.974365 23.000004,2513.974854 
	C263.666656,2514.002686 504.333374,2513.970459 744.999878,2514.144043 
	C752.202209,2514.149170 755.847290,2512.520752 758.193237,2505.060791 
	C775.838745,2448.949219 794.049500,2393.015869 811.984497,2336.995117 
	C826.062927,2293.020020 839.987122,2248.995850 854.002869,2205.000977 
	C879.185913,2125.952881 904.248657,2046.867432 929.753601,1967.920410 
	C944.367554,1922.685181 958.518127,1877.286621 972.970947,1831.990723 
	C987.871399,1785.291748 1002.855103,1738.617920 1017.748413,1691.919800 
	C1032.194092,1646.625122 1046.570312,1601.303101 1060.984985,1555.995239 
	C1085.817749,1477.941406 1110.585327,1399.868652 1135.759155,1321.922241 
	C1150.368896,1276.685303 1164.570312,1231.303101 1178.984985,1185.995239 
	C1203.817627,1107.941406 1228.571411,1029.864258 1253.764648,951.923950 
	C1268.385742,906.690735 1282.531494,861.290894 1296.972412,815.991211 
	C1321.850586,737.951965 1346.571411,659.864319 1371.764771,581.923950 
	C1386.385864,536.690735 1400.531494,491.290924 1414.972534,445.991241 
	C1439.850586,367.951965 1464.596069,289.871979 1489.755005,211.920944 
	C1504.356323,166.681198 1518.588623,121.308601 1532.915039,75.973137 
	C1538.729614,57.573318 1544.399048,39.140591 1550.876709,20.956095 
	C1552.073242,17.596949 1551.666626,13.666662 1552.000000,9.999995 
"/>
<path fill="none" opacity="1.000000" stroke="#000000" stroke-linecap="round" stroke-linejoin="round" stroke-width="5.000000"
	d="
M2142.000000,10.000000 
	C2141.744141,20.168350 2146.924561,28.958406 2150.300293,37.886444 
	C2176.712158,107.737083 2202.235596,177.911789 2228.119629,247.955826 
	C2250.784668,309.289703 2273.497314,370.606873 2296.215820,431.919983 
	C2320.181885,496.598755 2344.191162,561.261902 2368.119385,625.955811 
	C2390.802490,687.283203 2413.535400,748.592102 2436.205322,809.924133 
	C2460.118896,874.621460 2484.239502,939.243713 2508.165283,1003.938843 
	C2532.822021,1070.609131 2557.504395,1137.270508 2582.208008,1203.922974 
	C2606.178955,1268.599854 2630.190918,1333.261963 2654.119141,1397.955933 
	C2676.802490,1459.283325 2699.535645,1520.591919 2722.205322,1581.924194 
	C2746.118896,1646.621460 2770.239502,1711.243652 2794.165527,1775.938721 
	C2818.822021,1842.609131 2843.504639,1909.270386 2868.208008,1975.922974 
	C2892.178955,2040.599854 2916.190918,2105.261963 2940.119385,2169.955811 
	C2962.802734,2231.283203 2985.585205,2292.573242 3008.216797,2353.919922 
	C3027.052490,2404.977295 3046.468018,2455.825928 3064.977783,2507.008057 
	C3066.890625,2512.296875 3070.006348,2514.176025 3076.000244,2514.167480 
	C3226.000000,2513.954346 3376.000000,2514.002197 3526.000000,2513.984131 
	C3529.022949,2513.983643 3532.131348,2514.514648 3535.500000,2512.787598 
	C3535.500000,1678.333374 3535.500000,843.666687 3535.500000,9.203587 
	C3531.795166,7.380819 3528.346191,8.025445 3525.000000,8.025251 
	C3067.666748,7.998695 2610.333252,8.012026 2153.000000,7.822343 
	C2148.604736,7.820520 2144.404785,10.193274 2140.000000,8.500000 
"/>
<path fill="none" opacity="1.000000" stroke="#000000" stroke-linecap="round" stroke-linejoin="round" stroke-width="4.000000"
	d="
M1598.000000,8.000000 
	C1592.016724,14.127278 1592.540527,22.617130 1589.945190,29.980701 
	C1575.608398,70.657463 1563.396118,112.021126 1550.112671,153.036484 
	C1524.551514,231.962173 1499.758057,311.134613 1474.246948,390.079803 
	C1459.629517,435.313812 1445.481689,480.713287 1431.028809,526.009216 
	C1416.128418,572.708191 1401.144775,619.382141 1386.251587,666.080261 
	C1371.805908,711.374817 1357.429565,756.696960 1343.014893,802.004761 
	C1318.182129,880.058472 1293.428711,958.135742 1268.235474,1036.076050 
	C1253.614258,1081.309326 1239.468506,1126.709106 1225.027466,1172.008789 
	C1200.149414,1250.048096 1175.403931,1328.128052 1150.244995,1406.079102 
	C1135.643555,1451.318848 1121.465942,1496.708374 1107.026733,1542.008545 
	C1082.151611,1620.048828 1057.403931,1698.128052 1032.244995,1776.079102 
	C1017.643677,1821.318848 1003.466125,1866.708374 989.026733,1912.008545 
	C964.151733,1990.048828 939.403870,2068.127930 914.244934,2146.079102 
	C899.643677,2191.318848 885.481689,2236.713135 871.028931,2282.009277 
	C856.128540,2328.708008 841.298706,2375.428955 826.263611,2422.084961 
	C816.727478,2451.677246 807.238708,2481.303467 798.165466,2511.165527 
	C798.333252,2511.333496 798.755249,2511.615479 798.983032,2512.009766 
	C799.650085,2513.162842 797.718262,2512.633789 798.997742,2513.007812 
	C800.008789,2513.303223 801.000000,2513.958984 802.000000,2513.958984 
	C1540.666626,2514.000488 2279.333252,2514.000244 3018.000000,2513.974854 
	C3019.366211,2513.974854 3020.861084,2514.528320 3022.107178,2513.093018 
	C3022.372314,2512.788086 3023.333252,2513.000000 3024.142090,2511.616455 
	C3018.427979,2495.744385 3012.805176,2479.838867 3006.980713,2464.007080 
	C2994.709961,2430.650879 2982.413818,2397.303223 2969.981201,2364.007080 
	C2951.052979,2313.313477 2931.846680,2262.723633 2913.048828,2211.981934 
	C2898.140381,2171.738281 2883.871094,2131.257568 2868.947998,2091.019287 
	C2850.498535,2041.272095 2831.442383,1991.749390 2813.080078,1941.970459 
	C2801.143799,1909.612427 2789.008789,1877.327271 2777.141602,1844.948120 
	C2757.942139,1792.563843 2738.509521,1740.268555 2719.046631,1687.982666 
	C2704.810059,1649.737305 2691.153076,1611.276611 2676.962402,1573.013916 
	C2657.780029,1521.291260 2638.220215,1469.708618 2619.037598,1417.986084 
	C2604.846924,1379.723511 2591.153076,1341.276611 2576.962402,1303.013916 
	C2557.779785,1251.291382 2538.219971,1199.708740 2519.037598,1147.986084 
	C2504.846924,1109.723389 2491.153320,1071.276367 2476.962646,1033.013916 
	C2457.779785,981.291321 2438.219971,929.708679 2419.037354,877.986145 
	C2404.846924,839.723450 2391.175781,801.268005 2376.956055,763.016296 
	C2358.468750,713.283081 2339.501465,663.727966 2321.052002,613.980713 
	C2306.128906,573.742432 2291.871338,533.257385 2276.948242,493.019196 
	C2258.498779,443.271973 2239.442383,393.749359 2221.080078,343.970520 
	C2209.143799,311.612549 2197.008545,279.327271 2185.141357,246.948151 
	C2165.942139,194.563812 2146.606689,142.232620 2127.018799,89.992989 
	C2117.909912,65.700432 2108.602783,41.468636 2100.242188,16.917496 
	C2097.733887,9.551741 2094.182373,7.850295 2086.999756,7.858427 
	C1924.333374,8.042572 1761.666626,8.000000 1599.000000,8.000000 
"/>
</svg>