<svg version="1.1" id="Layer_1" xmlns="http://www.w3.org/2000/svg" xmlns:xlink="http://www.w3.org/1999/xlink" x="0px" y="0px"
	 width="100%" viewBox="0 0 3540 2520" enable-background="new 0 0 3540 2520" xml:space="preserve">
<path fill="none" opacity="1.000000" stroke="#000000" stroke-linecap="round" stroke-linejoin="round" stroke-width="5.000000"
	d="
M931.000000,38.000000 
	C934.966370,67.509521 941.040039,96.659798 946.030029,125.994896 
	C957.774597,195.038956 970.783752,263.861237 982.096558,332.984192 
	C988.221069,370.406281 995.403381,407.654327 1001.984009,445.002808 
	C1012.377625,503.992188 1022.554749,563.019897 1033.037720,621.993286 
	C1040.509766,664.027893 1048.951782,705.898438 1055.870117,748.021362 
	C1069.903931,833.466736 1085.994019,918.549255 1100.224976,1003.962524 
	C1112.473389,1077.476685 1127.544067,1150.520630 1139.775391,1224.037354 
	C1154.652222,1313.454102 1170.677734,1402.670288 1186.384644,1491.932373 
	C1200.003052,1569.325317 1213.981567,1646.677002 1227.619385,1724.067017 
	C1243.348633,1813.324951 1259.310181,1902.552734 1274.219238,1991.963379 
	C1286.477539,2065.476074 1301.444458,2138.536133 1313.797607,2212.033936 
	C1328.322754,2298.454834 1344.348755,2384.607178 1358.781860,2471.036377 
	C1360.237915,2479.754883 1363.137329,2482.212646 1372.000122,2482.209717 
	C2079.333252,2481.981445 2786.666748,2482.001221 3494.000000,2481.972168 
	C3497.676514,2481.971924 3501.454834,2482.670166 3505.500000,2480.811523 
	C3505.500000,1666.333374 3505.500000,851.666687 3505.500000,37.203587 
	C3501.795166,35.380817 3498.346191,36.025291 3495.000000,36.025188 
	C2643.666748,35.999302 1792.333374,35.999382 941.000000,36.022160 
	C937.651245,36.022247 934.206421,35.397461 931.000000,37.000000 
"/>
<path fill="none" opacity="1.000000" stroke="#000000" stroke-linecap="round" stroke-linejoin="round" stroke-width="5.000000"
	d="
M54.000000,36.000000 
	C51.689865,36.356533 50.198837,37.679195 50.041595,40.002815 
	C49.861961,42.657326 50.000000,45.333332 50.000000,48.000000 
	C50.000000,855.333313 49.999119,1662.666626 50.027958,2470.000000 
	C50.028088,2473.676514 49.329941,2477.454834 51.188522,2481.500000 
	C473.666656,2481.500000 896.333313,2481.500000 1319.320068,2481.500000 
	C1318.766479,2464.366699 1314.645874,2448.235596 1311.753418,2432.043945 
	C1295.861572,2343.082275 1280.140991,2254.094482 1264.862183,2165.023682 
	C1251.862915,2089.242432 1237.290161,2013.732178 1224.103394,1937.981934 
	C1210.287109,1858.615112 1196.294189,1779.282227 1182.221436,1699.960693 
	C1167.440552,1616.648926 1152.858643,1533.299438 1138.208252,1449.963379 
	C1124.553955,1372.294312 1110.722046,1294.655762 1097.185547,1216.967651 
	C1083.648682,1139.276611 1069.873413,1061.630737 1056.142944,983.974731 
	C1042.116699,904.646240 1028.318359,825.278137 1014.225952,745.959839 
	C999.424500,662.651917 984.883545,579.295288 970.198853,495.964966 
	C956.217896,416.628021 942.039978,337.323486 928.273315,257.952606 
	C915.957886,186.949158 903.353333,115.996513 890.976257,45.004143 
	C890.505249,42.302727 889.684143,39.662357 888.781311,36.000000 
	C611.000793,36.000000 333.000397,36.000000 55.000000,36.000000 
"/>
</svg>