<svg version="1.1" id="Layer_1" xmlns="http://www.w3.org/2000/svg" xmlns:xlink="http://www.w3.org/1999/xlink" x="0px" y="0px"
	 width="100%" viewBox="0 0 3540 2520" enable-background="new 0 0 3540 2520" xml:space="preserve">
<path fill="none" opacity="1.000000" stroke="#000000" stroke-linecap="round" stroke-linejoin="round" stroke-width="7.000000"
	d="
M13.000000,8.000000 
	C9.575543,8.535175 7.852850,10.448714 7.983775,14.000598 
	C8.069667,16.330767 8.000000,18.666666 8.000000,21.000000 
	C8.000000,849.666687 7.999889,1678.333374 8.002915,2507.000000 
	C8.002933,2511.758545 7.327643,2516.619873 10.727409,2521.000000 
	C582.000000,2521.000000 1154.000000,2521.000000 1725.246948,2521.000000 
	C1728.435059,2516.938721 1728.007568,2512.445068 1728.007568,2508.000000 
	C1727.999756,1678.666626 1728.000366,849.333313 1727.998047,20.000000 
	C1727.998047,7.999990 1727.983765,7.999998 1715.000000,7.999998 
	C1148.000000,8.000000 581.000000,8.000000 14.000000,8.000000 
"/>
<path fill="none" opacity="1.000000" stroke="#000000" stroke-linecap="round" stroke-linejoin="round" stroke-width="8.000000"
	d="
M1797.000000,8.000000 
	C1792.656372,8.908939 1790.359863,11.298827 1790.966309,16.004347 
	C1791.177612,17.643780 1791.000000,19.333334 1791.000000,21.000000 
	C1791.000000,849.666687 1790.999756,1678.333374 1791.008789,2507.000000 
	C1791.008911,2511.751953 1790.373901,2516.613281 1793.214355,2521.000000 
	C2375.666748,2521.000000 2958.333252,2521.000000 3541.000000,2521.000000 
	C3541.000000,1684.333374 3541.000000,847.666687 3541.000000,11.758092 
	C3535.446777,7.319369 3529.172363,7.995631 3523.000000,7.995681 
	C2948.000000,8.000326 2373.000000,8.000000 1798.000000,8.000000 
"/>
</svg>