<svg version="1.1" id="Layer_1" xmlns="http://www.w3.org/2000/svg" xmlns:xlink="http://www.w3.org/1999/xlink" x="0px" y="0px"
	 width="100%" viewBox="0 0 3540 2520" enable-background="new 0 0 3540 2520" xml:space="preserve">
<path fill="none" opacity="1.000000" stroke="#000000" stroke-linecap="round" stroke-linejoin="round" stroke-width="5.000000"
	d="
M3505.000000,1345.000000 
	C3506.602539,1341.793579 3505.977539,1338.348755 3505.977783,1335.000000 
	C3506.001221,905.666687 3506.003418,476.333344 3505.940674,47.000008 
	C3505.940186,43.681255 3507.308594,40.135807 3504.003662,36.500000 
	C3302.000732,36.500000 3099.000488,36.500000 2895.467773,36.500000 
	C2890.987793,64.276047 2886.541748,92.145851 2881.987549,119.997986 
	C2876.372314,154.339706 2870.529541,188.644760 2865.029297,223.004684 
	C2853.932373,292.322479 2843.108154,361.684021 2831.968018,430.994843 
	C2821.784912,494.352325 2811.214844,557.647644 2801.031738,621.005127 
	C2789.891846,690.315918 2779.028320,759.671143 2767.991943,828.998718 
	C2757.696777,893.671509 2747.379883,958.340820 2736.969238,1022.995056 
	C2734.173096,1040.361206 2731.016113,1057.669434 2727.993164,1074.998779 
	C2726.560791,1083.210083 2729.818848,1087.451294 2737.949707,1090.151245 
	C2847.691406,1126.592285 2957.361572,1163.248779 3066.989746,1200.030151 
	C3138.043701,1223.869629 3208.973389,1248.078857 3280.007568,1271.977783 
	C3351.640381,1296.078369 3423.324951,1320.024658 3495.031006,1343.907104 
	C3497.803467,1344.830566 3500.652588,1347.792969 3504.000000,1345.000000 
"/>
<path fill="none" opacity="1.000000" stroke="#000000" stroke-linecap="round" stroke-linejoin="round" stroke-width="5.000000"
	d="
M2721.000000,1125.000000 
	C2714.243164,1158.818359 2709.517090,1192.975708 2704.027588,1227.004517 
	C2693.598877,1291.655640 2683.384277,1356.341553 2672.985840,1420.997681 
	C2662.048096,1489.007690 2651.041992,1557.006836 2639.985352,1624.997681 
	C2632.394531,1671.676636 2624.527832,1718.311035 2617.032471,1765.005249 
	C2605.906738,1834.318359 2595.108154,1903.683960 2583.968018,1972.994873 
	C2573.784912,2036.352417 2562.910400,2099.601318 2553.114258,2163.017578 
	C2542.446777,2232.073242 2531.145752,2301.023438 2519.998535,2369.999756 
	C2514.341553,2405.001221 2508.651611,2439.997559 2503.040527,2475.006592 
	C2502.727783,2476.956299 2503.000000,2479.000000 2503.000000,2481.500000 
	C2837.000000,2481.500000 3171.000000,2481.500000 3505.500000,2481.500000 
	C3505.500000,2117.667236 3505.500000,1754.333618 3505.500000,1390.143433 
	C3458.473633,1374.255737 3410.812988,1357.898315 3362.984375,1342.046753 
	C3258.223633,1307.326904 3153.760986,1271.716064 3049.109619,1236.672363 
	C2978.046387,1212.876099 2906.963623,1189.107178 2836.000488,1164.998779 
	C2802.664551,1153.673462 2769.342041,1142.307373 2735.989746,1131.030273 
	C2731.397217,1129.477417 2726.666748,1128.333374 2722.000000,1127.000122 
"/>
<path fill="none" opacity="1.000000" stroke="#000000" stroke-linecap="round" stroke-linejoin="round" stroke-width="5.000000"
	d="
M54.000000,36.000000 
	C51.689865,36.356533 50.198837,37.679195 50.041595,40.002815 
	C49.861961,42.657326 50.000000,45.333332 50.000000,48.000000 
	C50.000000,855.333313 49.999119,1662.666626 50.027958,2470.000000 
	C50.028088,2473.676514 49.329941,2477.454834 51.188522,2481.500000 
	C854.333313,2481.500000 1657.666626,2481.500000 2461.704590,2481.500000 
	C2592.778320,1666.511597 2723.791504,851.900513 2855.011963,36.000000 
	C1920.333618,36.000000 987.666809,36.000000 55.000000,36.000000 
"/>
</svg>