<svg version="1.1" id="Layer_1" xmlns="http://www.w3.org/2000/svg" xmlns:xlink="http://www.w3.org/1999/xlink" x="0px" y="0px"
	 width="100%" viewBox="0 0 3540 2520" enable-background="new 0 0 3540 2520" xml:space="preserve">
<path fill="none" opacity="1.000000" stroke="#000000" stroke-linecap="round" stroke-linejoin="round" stroke-width="5.000000"
	d="
M782.000000,1335.000000 
	C782.000000,1717.000244 782.000000,2099.000488 782.000000,2481.500000 
	C1041.999512,2481.500000 1300.999512,2481.500000 1561.000000,2481.500000 
	C1561.000000,2470.019287 1561.367432,2458.495850 1560.937866,2447.002441 
	C1558.845215,2391.008301 1561.238159,2334.982422 1559.846191,2279.003906 
	C1557.832031,2198.005127 1559.164673,2116.984619 1557.683472,2036.005737 
	C1556.262695,1958.331421 1557.216553,1880.651123 1555.716675,1803.005493 
	C1554.197144,1724.332153 1555.157471,1645.652710 1553.709839,1567.005371 
	C1552.353760,1493.332153 1552.118896,1419.671631 1551.987793,1346.000000 
	C1551.983643,1343.633301 1552.434204,1341.176025 1551.007690,1339.036621 
	C1549.169067,1337.652100 1547.047974,1338.026367 1545.000000,1338.003052 
	C1515.333374,1337.665405 1485.664673,1337.454224 1456.000366,1336.977905 
	C1361.670410,1335.463135 1267.317017,1337.212402 1173.004395,1335.719849 
	C1063.665894,1333.989746 954.335083,1334.404663 845.000793,1333.842896 
	C824.661865,1333.738403 804.333313,1332.011597 784.000000,1334.000000 
"/>
<path fill="none" opacity="1.000000" stroke="#000000" stroke-linecap="round" stroke-linejoin="round" stroke-width="5.000000"
	d="
M54.000000,36.000000 
	C51.689865,36.356533 50.198837,37.679195 50.041595,40.002815 
	C49.861961,42.657326 50.000000,45.333332 50.000000,48.000000 
	C50.000000,457.333344 49.998207,866.666687 50.028053,1276.000000 
	C50.028320,1279.676392 49.329941,1283.454834 50.915375,1286.905518 
	C52.830910,1288.347900 54.951984,1287.973633 57.000034,1287.996948 
	C86.666649,1288.334717 116.336456,1288.494629 145.999420,1289.032349 
	C236.995880,1290.681519 328.016632,1288.737671 418.995636,1290.260620 
	C528.333618,1292.090942 637.679260,1290.715698 746.995728,1292.296753 
	C856.334778,1293.877808 965.679260,1292.715820 1074.995728,1294.296631 
	C1184.334717,1295.877930 1293.679077,1294.718262 1402.995728,1296.296875 
	C1511.668091,1297.866211 1620.345947,1296.719360 1728.995728,1298.296143 
	C1838.334717,1299.882812 1947.679199,1298.715698 2056.995605,1300.296509 
	C2166.334717,1301.877808 2275.679199,1300.715698 2384.995605,1302.296631 
	C2494.334717,1303.877808 2603.679199,1302.715820 2712.995605,1304.296753 
	C2822.334717,1305.877808 2931.679199,1304.718018 3040.995605,1306.296631 
	C3149.668213,1307.866089 3258.336426,1307.200073 3366.997070,1308.287109 
	C3409.657715,1308.713867 3452.353516,1307.944458 3495.004150,1309.908569 
	C3498.284424,1310.059570 3501.871582,1311.383179 3505.500000,1307.879761 
	C3505.500000,885.000000 3505.500000,461.000000 3505.500000,36.000000 
	C2355.000244,36.000000 1205.000122,36.000000 55.000000,36.000000 
"/>
<path fill="none" opacity="1.000000" stroke="#000000" stroke-linecap="round" stroke-linejoin="round" stroke-width="5.000000"
	d="
M54.000000,1328.000000 
	C51.689865,1328.356567 50.198837,1329.679199 50.041584,1332.002808 
	C49.861950,1334.657227 50.000000,1337.333374 50.000000,1340.000000 
	C50.000000,1716.666626 49.998085,2093.333252 50.028065,2470.000000 
	C50.028358,2473.676514 49.329941,2477.454834 51.188522,2481.500000 
	C281.000000,2481.500000 511.000000,2481.500000 741.500000,2481.500000 
	C741.500000,2098.333252 741.500000,1715.666626 741.500000,1333.188477 
	C737.454834,1331.329956 733.676575,1332.032715 730.000000,1332.029297 
	C682.333313,1331.985107 634.666260,1332.129761 587.000122,1331.964722 
	C535.666260,1331.787109 484.315216,1332.067139 433.004974,1330.798828 
	C378.994476,1329.463745 324.999298,1330.487427 270.999756,1330.030029 
	C215.667557,1329.561401 160.326828,1329.714111 105.003952,1328.768677 
	C88.340668,1328.484009 71.667770,1328.277954 55.000000,1328.000000 
"/>
<path fill="none" opacity="1.000000" stroke="#000000" stroke-linecap="round" stroke-linejoin="round" stroke-width="5.000000"
	d="
M1596.000000,1338.000000 
	C1590.997314,1338.832031 1592.014648,1342.718506 1592.013306,1346.000000 
	C1591.994141,1395.666626 1591.160767,1445.351440 1592.231567,1494.994995 
	C1593.346069,1546.664795 1593.909058,1598.324341 1594.044800,1649.999878 
	C1594.164673,1695.667114 1593.930176,1741.354126 1595.216187,1786.993896 
	C1596.399902,1829.007812 1595.519165,1871.000854 1595.981689,1913.000244 
	C1597.027832,2007.997314 1597.435913,2103.004150 1598.426758,2197.995605 
	C1599.243774,2276.331543 1599.482178,2354.665771 1600.250366,2432.997559 
	C1600.408569,2449.130859 1600.338013,2465.374268 1601.389038,2481.500000 
	C1923.666992,2481.500000 2245.333740,2481.500000 2568.000000,2481.500000 
	C2568.000000,2460.677490 2568.721436,2440.301025 2567.660156,2420.017822 
	C2567.208496,2411.384766 2566.341553,2402.528809 2566.364258,2394.000977 
	C2566.449951,2361.963867 2564.325928,2330.005615 2564.024658,2297.999756 
	C2563.435303,2235.316162 2560.509766,2172.689453 2559.660889,2110.004639 
	C2559.313477,2084.354980 2558.722900,2058.659424 2557.849854,2033.005127 
	C2556.023926,1979.346191 2555.392334,1925.655029 2553.576172,1872.014404 
	C2552.481201,1839.677246 2552.364990,1807.326294 2551.177002,1774.993530 
	C2549.512207,1729.685181 2549.028320,1684.321289 2547.602051,1639.012573 
	C2546.521240,1604.676758 2546.301270,1570.327148 2545.125977,1535.995728 
	C2543.597900,1491.346924 2542.165771,1446.691528 2541.792480,1402.001709 
	C2541.633545,1383.012573 2539.645752,1364.018677 2540.051514,1345.822510 
	C2537.169189,1343.652100 2535.047363,1343.991455 2533.000000,1344.008423 
	C2503.326660,1344.252930 2473.665771,1343.560425 2443.999268,1343.046021 
	C2347.672119,1341.375732 2251.315918,1343.248047 2155.004639,1341.704468 
	C2044.665283,1339.936279 1934.326050,1341.077637 1824.003296,1339.726196 
	C1748.334106,1338.799194 1672.672485,1338.004761 1597.000000,1338.000000 
"/>
<path fill="none" opacity="1.000000" stroke="#000000" stroke-linecap="round" stroke-linejoin="round" stroke-width="5.000000"
	d="
M2584.000000,1344.000000 
	C2578.474121,1345.136597 2579.964600,1349.560181 2580.055420,1352.998535 
	C2580.964355,1387.334351 2582.033936,1421.665649 2582.984863,1456.000366 
	C2583.409180,1471.331299 2583.734375,1486.665527 2583.988281,1502.000244 
	C2584.992920,1562.674316 2587.338623,1623.314575 2588.345947,1683.994263 
	C2588.771973,1709.647705 2589.278076,1735.340088 2590.142090,1760.995239 
	C2591.949219,1814.654175 2592.691162,1868.341431 2594.432373,1921.985962 
	C2595.481689,1954.321411 2595.675049,1986.673462 2596.814697,2019.006470 
	C2598.435059,2064.983154 2599.098389,2111.006104 2600.406738,2156.988525 
	C2601.374023,2190.987549 2601.770264,2225.005127 2602.886719,2259.003662 
	C2604.320801,2302.656006 2605.337891,2346.325195 2606.310791,2389.993164 
	C2606.934570,2417.991699 2608.235107,2445.983643 2607.889404,2473.998535 
	C2607.812988,2480.173828 2609.830322,2482.802002 2616.002930,2482.023926 
	C2617.315430,2481.858643 2618.666748,2482.000000 2620.000000,2482.000000 
	C2911.333252,2482.000000 3202.666748,2482.002686 3494.000000,2481.972168 
	C3497.676514,2481.971680 3501.454834,2482.670166 3505.500000,2480.811523 
	C3505.500000,2104.333252 3505.500000,1727.666626 3505.500000,1351.407227 
	C3503.169189,1349.652100 3501.048096,1350.026245 3499.000000,1350.002930 
	C3469.333252,1349.665161 3439.662842,1349.539795 3410.000732,1348.961548 
	C3319.004395,1347.187988 3227.982178,1349.353394 3137.004639,1347.741577 
	C3026.666260,1345.786865 2916.325928,1347.077148 2806.003418,1345.721802 
	C2732.333984,1344.816895 2658.672607,1344.011475 2585.000000,1344.000000 
"/>
</svg>