<?xml version="1.0" encoding="UTF-8" standalone="no" ?>
<!DOCTYPE svg PUBLIC "-//W3C//DTD SVG 1.1//EN" "http://www.w3.org/Graphics/SVG/1.1/DTD/svg11.dtd">
<svg xmlns="http://www.w3.org/2000/svg" xmlns:xlink="http://www.w3.org/1999/xlink" version="1.1" width="1258" height="889.4949494949494" viewBox="0 0 1258 889.4949494949494" xml:space="preserve">
<desc>Created with Fabric.js 5.3.0</desc>
<defs>
</defs>
<g transform="matrix(1 0 0 1 628.202857142857 212.57945510956267)"  >
<polygon style="stroke: rgb(0,0,0); stroke-width: 2; stroke-dasharray: none; stroke-linecap: butt; stroke-dashoffset: 0; stroke-linejoin: miter; stroke-miterlimit: 4; fill: rgb(255,255,255); fill-opacity: 0.25; fill-rule: nonzero; opacity: 1;"  points="627.202857142857,211.57945510956267 627.202857142857,-211.57945510956267 -627.202857142857,-211.57945510956267 -627.202857142857,211.57945510956267 " />
</g>
<g transform="matrix(1 0 0 1 903.8996104855541 660.5297869998946)"  >
<polygon style="stroke: rgb(0,0,0); stroke-width: 2; stroke-dasharray: none; stroke-linecap: butt; stroke-dashoffset: 0; stroke-linejoin: miter; stroke-miterlimit: 4; fill: rgb(255,255,255); fill-opacity: 0.25; fill-rule: nonzero; opacity: 1;"  points="-168.02621737923664,226.3708767807692 168.02621737923664,226.3708767807692 112.07092834443631,-226.3708767807692 -168.02621737923664,-226.3708767807692 " />
</g>
<g transform="matrix(1 0 0 1 1140.6881265578522 660.5297869998946)"  >
<polygon style="stroke: rgb(0,0,0); stroke-width: 2; stroke-dasharray: none; stroke-linecap: butt; stroke-dashoffset: 0; stroke-linejoin: miter; stroke-miterlimit: 4; fill: rgb(255,255,255); fill-opacity: 0.25; fill-rule: nonzero; opacity: 1;"  points="-58.76229869306144,226.3708767807692 114.71758772786188,226.3708767807692 114.71758772786188,-226.3708767807692 -114.71758772786188,-226.3708767807692 " />
</g>
<g transform="matrix(1 0 0 1 103.95733593846774 660.5297869998946)"  >
<polygon style="stroke: rgb(0,0,0); stroke-width: 2; stroke-dasharray: none; stroke-linecap: butt; stroke-dashoffset: 0; stroke-linejoin: miter; stroke-miterlimit: 4; fill: rgb(255,255,255); fill-opacity: 0.25; fill-rule: nonzero; opacity: 1;"  points="-102.95733593846774,-226.3708767807692 -102.95733593846774,226.3708767807692 102.95733593846774,226.3708767807692 58.06827952702355,-226.3708767807692 " />
</g>
<g transform="matrix(1 0 0 1 325.47092855937956 660.5297869998946)"  >
<polygon style="stroke: rgb(0,0,0); stroke-width: 2; stroke-dasharray: none; stroke-linecap: butt; stroke-dashoffset: 0; stroke-linejoin: miter; stroke-miterlimit: 4; fill: rgb(255,255,255); fill-opacity: 0.25; fill-rule: nonzero; opacity: 1;"  points="-108.55625668244409,226.3708767807692 153.44531309388827,226.3708767807692 153.44531309388827,-226.3708767807692 -153.44531309388827,-226.3708767807692 " />
</g>
</svg>