<?xml version="1.0" encoding="UTF-8" standalone="no" ?>
<!DOCTYPE svg PUBLIC "-//W3C//DTD SVG 1.1//EN" "http://www.w3.org/Graphics/SVG/1.1/DTD/svg11.dtd">
<svg xmlns="http://www.w3.org/2000/svg" xmlns:xlink="http://www.w3.org/1999/xlink" version="1.1" width="1391.6571428571428" height="984" viewBox="0 0 1391.6571428571428 984" xml:space="preserve">
<desc>Created with Fabric.js 5.3.0</desc>
<g transform="matrix(1 0 0 1 351.35908707885795 249.75444727436974)"  >
<polygon style="stroke: rgb(0,0,0); stroke-width: 2; stroke-dasharray: none; stroke-linecap: butt; stroke-dashoffset: 0; stroke-linejoin: miter; stroke-miterlimit: 4; fill: rgb(255,255,255); fill-opacity: 0.25; fill-rule: nonzero; opacity: 1;"  points="338.64480136457223,-237.04016156008402 -338.64480136457223,-237.04016156008402 -338.64480136457223,237.04016156008402 338.64480136457223,237.04016156008402 " />
</g>
<g transform="matrix(1 0 0 1 351.85900685619333 733.052079927431)"  >
<polygon style="stroke: rgb(0,0,0); stroke-width: 2; stroke-dasharray: none; stroke-linecap: butt; stroke-dashoffset: 0; stroke-linejoin: miter; stroke-miterlimit: 4; fill: rgb(255,255,255); fill-opacity: 0.25; fill-rule: nonzero; opacity: 1;"  points="-339.1447211419076,-236.25747109297723 -339.1447211419076,236.25747109297723 339.1447211419076,236.25747109297723 339.1447211419076,-236.25747109297723 " />
</g>
<g transform="matrix(1 0 0 1 863.9767731827836 733.052079927431)"  >
<polygon style="stroke: rgb(0,0,0); stroke-width: 2; stroke-dasharray: none; stroke-linecap: butt; stroke-dashoffset: 0; stroke-linejoin: miter; stroke-miterlimit: 4; fill: rgb(255,255,255); fill-opacity: 0.25; fill-rule: nonzero; opacity: 1;"  points="-162.97304518468275,236.25747109297723 162.97304518468275,236.25747109297723 162.97304518468275,-236.25747109297723 -162.97304518468275,-236.25747109297723 " />
</g>
<g transform="matrix(1 0 0 1 1206.9582561225088 733.052079927431)"  >
<polygon style="stroke: rgb(0,0,0); stroke-width: 2; stroke-dasharray: none; stroke-linecap: butt; stroke-dashoffset: 0; stroke-linejoin: miter; stroke-miterlimit: 4; fill: rgb(255,255,255); fill-opacity: 0.25; fill-rule: nonzero; opacity: 1;"  points="-170.00843775504245,236.25747109297723 170.00843775504245,236.25747109297723 170.00843775504245,-236.25747109297723 -170.00843775504245,-236.25747109297723 " />
</g>
<g transform="matrix(1 0 0 1 862.9769336281129 249.75444727436974)"  >
<polygon style="stroke: rgb(0,0,0); stroke-width: 2; stroke-dasharray: none; stroke-linecap: butt; stroke-dashoffset: 0; stroke-linejoin: miter; stroke-miterlimit: 4; fill: rgb(255,255,255); fill-opacity: 0.25; fill-rule: nonzero; opacity: 1;"  points="162.9730451846828,-237.04016156008402 -162.9730451846828,-237.04016156008402 -162.9730451846828,237.04016156008402 162.9730451846828,237.04016156008402 " />
</g>
<g transform="matrix(1 0 0 1 1206.4583363451734 249.75444727436974)"  >
<polygon style="stroke: rgb(0,0,0); stroke-width: 2; stroke-dasharray: none; stroke-linecap: butt; stroke-dashoffset: 0; stroke-linejoin: miter; stroke-miterlimit: 4; fill: rgb(255,255,255); fill-opacity: 0.25; fill-rule: nonzero; opacity: 1;"  points="170.50835753237777,237.04016156008402 170.50835753237777,-237.04016156008402 -170.50835753237777,-237.04016156008402 -170.50835753237777,237.04016156008402 " />
</g>
</svg>