<?xml version="1.0" encoding="UTF-8" standalone="no" ?>
<!DOCTYPE svg PUBLIC "-//W3C//DTD SVG 1.1//EN" "http://www.w3.org/Graphics/SVG/1.1/DTD/svg11.dtd">
<svg xmlns="http://www.w3.org/2000/svg" xmlns:xlink="http://www.w3.org/1999/xlink" version="1.1" width="1085" height="767.1717171717171" viewBox="0 0 1085 767.1717171717171" xml:space="preserve">
<desc>Created with Fabric.js 5.3.0</desc>
<defs>
</defs>
<g transform="matrix(1 0 0 1 685.3452068235939 260.0764267497576)"  >
<polygon style="stroke: rgb(0,0,0); stroke-width: 2; stroke-dasharray: none; stroke-linecap: butt; stroke-dashoffset: 0; stroke-linejoin: miter; stroke-miterlimit: 4; fill: rgb(255,255,255); fill-opacity: 0.25; fill-rule: nonzero; opacity: 1;"  points="397.5547931764062,259.0764267497576 397.5547931764062,-259.0764267497576 -397.5547931764062,-259.0764267497576 -397.5547931764062,259.0764267497576 " />
</g>
<g transform="matrix(1 0 0 1 494.7066743450152 647.1122853356162)"  >
<polygon style="stroke: rgb(0,0,0); stroke-width: 2; stroke-dasharray: none; stroke-linecap: butt; stroke-dashoffset: 0; stroke-linejoin: miter; stroke-miterlimit: 4; fill: rgb(255,255,255); fill-opacity: 0.25; fill-rule: nonzero; opacity: 1;"  points="-206.91626069782745,117.95943183610092 206.91626069782745,117.95943183610092 206.91626069782745,-117.95943183610092 -206.91626069782745,-117.95943183610092 " />
</g>
<g transform="matrix(1 0 0 1 897.2614675214213 647.1122853356162)"  >
<polygon style="stroke: rgb(0,0,0); stroke-width: 2; stroke-dasharray: none; stroke-linecap: butt; stroke-dashoffset: 0; stroke-linejoin: miter; stroke-miterlimit: 4; fill: rgb(255,255,255); fill-opacity: 0.25; fill-rule: nonzero; opacity: 1;"  points="-185.63853247857872,117.95943183610092 185.63853247857872,117.95943183610092 185.63853247857872,-117.95943183610092 -185.63853247857872,-117.95943183610092 " />
</g>
<g transform="matrix(1 0 0 1 139.39520682359387 660.6067856124585)"  >
<polygon style="stroke: rgb(0,0,0); stroke-width: 2; stroke-dasharray: none; stroke-linecap: butt; stroke-dashoffset: 0; stroke-linejoin: miter; stroke-miterlimit: 4; fill: rgb(255,255,255); fill-opacity: 0.25; fill-rule: nonzero; opacity: 1;"  points="-138.39520682359387,-104.46493155925867 -138.39520682359387,104.46493155925867 138.39520682359387,104.46493155925867 138.39520682359387,-104.46493155925867 " />
</g>
<g transform="matrix(1 0 0 1 139.39520682359387 445.1850370646613)"  >
<polygon style="stroke: rgb(0,0,0); stroke-width: 2; stroke-dasharray: none; stroke-linecap: butt; stroke-dashoffset: 0; stroke-linejoin: miter; stroke-miterlimit: 4; fill: rgb(255,255,255); fill-opacity: 0.25; fill-rule: nonzero; opacity: 1;"  points="-138.39520682359387,-100.95681698853843 -138.39520682359387,100.95681698853843 138.39520682359387,100.95681698853843 138.39520682359387,-100.95681698853843 " />
</g>
<g transform="matrix(1 0 0 1 139.39520682359387 77.65077485911372)"  >
<polygon style="stroke: rgb(0,0,0); stroke-width: 2; stroke-dasharray: none; stroke-linecap: butt; stroke-dashoffset: 0; stroke-linejoin: miter; stroke-miterlimit: 4; fill: rgb(255,255,255); fill-opacity: 0.25; fill-rule: nonzero; opacity: 1;"  points="138.39520682359387,-76.65077485911372 -138.39520682359387,-76.65077485911372 -138.39520682359387,76.65077485911372 138.39520682359387,76.65077485911372 " />
</g>
<g transform="matrix(1 0 0 1 139.39520682359387 249.26488489717514)"  >
<polygon style="stroke: rgb(0,0,0); stroke-width: 2; stroke-dasharray: none; stroke-linecap: butt; stroke-dashoffset: 0; stroke-linejoin: miter; stroke-miterlimit: 4; fill: rgb(255,255,255); fill-opacity: 0.25; fill-rule: nonzero; opacity: 1;"  points="-138.39520682359387,-84.9633351789477 -138.39520682359387,84.9633351789477 138.39520682359387,84.9633351789477 138.39520682359387,-84.9633351789477 " />
</g>
</svg>