<?xml version="1.0" encoding="UTF-8" standalone="no" ?>
<!DOCTYPE svg PUBLIC "-//W3C//DTD SVG 1.1//EN" "http://www.w3.org/Graphics/SVG/1.1/DTD/svg11.dtd">
<svg xmlns="http://www.w3.org/2000/svg" xmlns:xlink="http://www.w3.org/1999/xlink" version="1.1" width="1198" height="847.070707070707" viewBox="0 0 1198 847.070707070707" xml:space="preserve">
<desc>Created with Fabric.js 5.3.0</desc>
<defs>
</defs>
<g transform="matrix(1 0 0 1 1057.6795726252274 108.0672053992323)"  >
<polygon style="stroke: rgb(0,0,0); stroke-width: 2; stroke-dasharray: none; stroke-linecap: butt; stroke-dashoffset: 0; stroke-linejoin: miter; stroke-miterlimit: 4; fill: rgb(255,255,255); fill-opacity: 0.25; fill-rule: nonzero; opacity: 1;"  points="137.8975702319156,107.0672053992323 137.8975702319156,-107.0672053992323 -137.8975702319156,-107.0672053992323 -137.8975702319156,39.01413226701307 " />
</g>
<g transform="matrix(1 0 0 1 1057.6795726252274 242.22815518576283)"  >
<polygon style="stroke: rgb(0,0,0); stroke-width: 2; stroke-dasharray: none; stroke-linecap: butt; stroke-dashoffset: 0; stroke-linejoin: miter; stroke-miterlimit: 4; fill: rgb(255,255,255); fill-opacity: 0.25; fill-rule: nonzero; opacity: 1;"  points="137.8975702319156,85.14681751951747 137.8975702319156,-17.093744387298244 -137.8975702319156,-85.14681751951747 -137.8975702319156,85.14681751951747 " />
</g>
<g transform="matrix(1 0 0 1 1057.6795726252274 429.2538430906452)"  >
<polygon style="stroke: rgb(0,0,0); stroke-width: 2; stroke-dasharray: none; stroke-linecap: butt; stroke-dashoffset: 0; stroke-linejoin: miter; stroke-miterlimit: 4; fill: rgb(255,255,255); fill-opacity: 0.25; fill-rule: nonzero; opacity: 1;"  points="137.8975702319156,91.87887038536488 137.8975702319156,-91.87887038536488 -137.8975702319156,-91.87887038536488 -137.8975702319156,50.18907466605546 " />
</g>
<g transform="matrix(1 0 0 1 1057.6795726252274 580.3672341127761)"  >
<polygon style="stroke: rgb(0,0,0); stroke-width: 2; stroke-dasharray: none; stroke-linecap: butt; stroke-dashoffset: 0; stroke-linejoin: miter; stroke-miterlimit: 4; fill: rgb(255,255,255); fill-opacity: 0.25; fill-rule: nonzero; opacity: 1;"  points="137.8975702319156,90.92431635607531 137.8975702319156,-49.23452063676612 -137.8975702319156,-90.92431635607554 -137.8975702319156,90.92431635607554 " />
</g>
<g transform="matrix(1 0 0 1 1057.6795726252274 762.9697001983507)"  >
<polygon style="stroke: rgb(0,0,0); stroke-width: 2; stroke-dasharray: none; stroke-linecap: butt; stroke-dashoffset: 0; stroke-linejoin: miter; stroke-miterlimit: 4; fill: rgb(255,255,255); fill-opacity: 0.25; fill-rule: nonzero; opacity: 1;"  points="-137.8975702319156,81.67814972949918 137.8975702319156,81.67814972949918 137.8975702319156,-81.67814972949918 -137.8975702319156,-81.67814972949895 " />
</g>
<g transform="matrix(1 0 0 1 455.39100119665585 261.1639632220193)"  >
<polygon style="stroke: rgb(0,0,0); stroke-width: 2; stroke-dasharray: none; stroke-linecap: butt; stroke-dashoffset: 0; stroke-linejoin: miter; stroke-miterlimit: 4; fill: rgb(255,255,255); fill-opacity: 0.25; fill-rule: nonzero; opacity: 1;"  points="454.39100119665585,-260.1639632220193 -454.39100119665585,-260.1639632220193 -454.39100119665585,260.1639632220193 454.39100119665585,260.1639632220193 " />
</g>
<g transform="matrix(1 0 0 1 744.822546156727 687.9878881859443)"  >
<polygon style="stroke: rgb(0,0,0); stroke-width: 2; stroke-dasharray: none; stroke-linecap: butt; stroke-dashoffset: 0; stroke-linejoin: miter; stroke-miterlimit: 4; fill: rgb(255,255,255); fill-opacity: 0.25; fill-rule: nonzero; opacity: 1;"  points="-164.95945623658474,156.65996174190565 164.95945623658474,156.65996174190565 164.95945623658474,-156.65996174190565 -164.95945623658474,-156.65996174190565 " />
</g>
<g transform="matrix(1 0 0 1 86.52000805137443 687.9878881859443)"  >
<polygon style="stroke: rgb(0,0,0); stroke-width: 2; stroke-dasharray: none; stroke-linecap: butt; stroke-dashoffset: 0; stroke-linejoin: miter; stroke-miterlimit: 4; fill: rgb(255,255,255); fill-opacity: 0.25; fill-rule: nonzero; opacity: 1;"  points="-85.52000805137443,-156.65996174190565 -85.52000805137443,156.65996174190565 42.599298272659084,156.65996174190565 85.52000805137443,-156.65996174190565 " />
</g>
<g transform="matrix(1 0 0 1 274.06081483671596 687.9878881859443)"  >
<polygon style="stroke: rgb(0,0,0); stroke-width: 2; stroke-dasharray: none; stroke-linecap: butt; stroke-dashoffset: 0; stroke-linejoin: miter; stroke-miterlimit: 4; fill: rgb(255,255,255); fill-opacity: 0.25; fill-rule: nonzero; opacity: 1;"  points="-134.94150851268245,156.65996174190565 134.94150851268245,156.65996174190565 55.36787514515936,-156.65996174190565 -92.0207987339671,-156.65996174190565 " />
</g>
<g transform="matrix(1 0 0 1 454.64588995100877 687.9878881859443)"  >
<polygon style="stroke: rgb(0,0,0); stroke-width: 2; stroke-dasharray: none; stroke-linecap: butt; stroke-dashoffset: 0; stroke-linejoin: miter; stroke-miterlimit: 4; fill: rgb(255,255,255); fill-opacity: 0.25; fill-rule: nonzero; opacity: 1;"  points="-35.64356660161036,156.65996174190565 115.21719996913345,156.65996174190565 115.21719996913345,-156.65996174190565 -115.21719996913345,-156.65996174190565 " />
</g>
</svg>