<!--?xml version="1.0" encoding="utf-8"?-->
<!-- Generator: Adobe Illustrator 22.1.0, SVG Export Plug-In . SVG Version: 6.00 Build 0)  -->
<svg version="1.1" id="_x34_" xmlns="http://www.w3.org/2000/svg" xmlns:xlink="http://www.w3.org/1999/xlink" x="0px" y="0px" viewBox="0 0 800 603.1" style="enable-background:new 0 0 800 603.1;" xml:space="preserve">
<style type="text/css">
	.stblack{fill:#000000;}
	.st0{fill:#FFFFFF;}
</style>
<g>
	<path id="fillArea" class="st0" d="M372.1,24.4c-11.3,1.3-22.8,3.5-34.8,5.7c-11.3,2.1-22.9,3.9-34.6,6.8c-11.3,2.8-23.4,3.3-34.8,6.8
		c-11.2,3.5-21.9,8.7-33,12.9c-11,4.2-22.6,7.3-33.3,12.1c-10.8,4.9-20.9,11.3-31.2,16.8c-10.4,5.6-19.3,13.7-29.1,20.1
		c-10,6.5-21.4,10.8-30.5,18c-9.4,7.4-18.3,15.3-26.6,23.5c-8.5,8.4-13.9,19.3-21,28.5c-7.3,9.4-14.9,18.3-20.5,28.5
		c-5.6,10.4-9.4,21.4-12.9,32.7c-3.5,11.1-5.9,22.4-7.1,34.3c-1.2,11.4-0.4,22.8,0.8,34.9c1.2,12.4,2.9,23.8,5.8,34.8
		c3.2,11.9,6.9,22.8,11.9,33.2c5.3,10.9,11.3,20.8,18.3,30.2c7.2,9.5,15.1,18.1,23.7,26.2c8.7,8,17.8,15.3,27.7,22
		c9.8,6.6,18.8,14.7,29.5,20c10.5,5.3,21.6,10,32.8,14.2c11.1,4.2,22.6,7.5,34,10.8c11.5,3.2,23.5,4.1,35,6.5
		c11.8,2.4,23.1,6.5,34.7,8.2c12,1.7,24.1,0.7,35.6,1.7c12.3,1,24.1,1.5,35.5,1.9c13,0.4,24.8,1.7,35.5,2.7
		c13.3,1.2,24.5,5.7,34.7,7.7c13.7,2.6,24.4,6,33.8,9.6c13.4,5.1,23.3,9.7,31.3,15.7c10.5,7.8,18.5,15.3,27.8,21.9
		c9,6.5,17.7,8.3,24.4,9.7c13.9,2.9,19.5-0.9,14.1-9c-3.6-5.4-10.1-22.2-10.1-38.8c0-12.3,4.2-25.5,17.4-34.5
		c8.4-5.8,20.8-10.9,37.9-12.6c10.6-1.1,21.3-3.9,32.7-7.6c10.4-3.3,22.4-4.2,32.8-9.5c9.9-5,18.4-13.1,27.8-19.8
		c9.1-6.5,18.9-12.5,27.2-20.4c8.2-7.7,15.9-16.3,22.9-25.3c6.9-8.9,12.1-19.1,17.5-29.1c5.4-9.9,11.8-19.6,15.4-30.4
		c3.5-10.6,3.5-22.2,4.9-33.7c1.4-10.9,1.2-22,0.4-33.7c-0.8-12.3-2.7-23.8-5.7-35.1c-3.1-11.7-5.3-23.6-10.4-34.3
		c-5.1-10.9-12.1-20.7-18.9-30.5c-6.8-9.9-15.1-18.4-23.2-27.2c-8.1-8.9-15.3-18.5-24.3-26.4c-9.1-7.9-18.3-15.7-28-22.6
		c-9.9-7.1-21.4-11.4-31.5-17.4c-10.6-6.3-20.6-13-30.9-18.1c-11.4-5.6-21.6-12.4-32-16.5c-11.2-4.5-22-7.9-32-11.4
		c-11.4-3.9-22.1-7.5-32.5-10.1c-11.4-2.9-22.7-3.9-33.6-5.5c-11.3-1.7-22.5-1.3-33.8-1.7c-11.1-0.4-22.3-3-34-2.4
		C394.9,19.7,383.9,23,372.1,24.4z"></path>
	<path class="stblack" d="M374,19.8c-1.4,0.2-2.8,1.2-4.2,1.3c-1.4,0.2-2.9,0.1-4.3,0.3c-1.4,0.2-2.9,0.4-4.3,0.6c-1.4,0.2-2.8,0.9-4.2,1.1
		c-1.4,0.2-3-0.1-4.4,0.1c-1.4,0.2-2.8,0.9-4.2,1.1c-1.4,0.2-2.9,0.5-4.3,0.7c-1.4,0.3-2.9,0.3-4.3,0.6c-1.4,0.3-2.9,0.4-4.3,0.7
		c-1.4,0.3-2.8,0.7-4.2,0.9c-1.4,0.3-3,0-4.4,0.3c-1.4,0.3-2.6,1.8-4,2.1c-1.4,0.3-3-0.2-4.4,0.1c-1.4,0.3-2.7,1.2-4.1,1.5
		c-1.4,0.3-3.1-0.4-4.5-0.1c-1.4,0.3-2.8,0.8-4.3,1.1c-1.4,0.3-2.9,0.6-4.3,0.8c-1.4,0.3-2.9,0.5-4.3,0.7c-1.4,0.3-2.8,1-4.2,1.3
		c-1.4,0.3-3,0-4.4,0.3c-1.4,0.3-2.9,0.3-4.4,0.6c-1.4,0.3-2.7,1.3-4.2,1.6c-1.4,0.3-2.8,0.8-4.2,1.1c-1.4,0.3-3,0-4.4,0.4
		c-1.4,0.4-2.8,0.9-4.1,1.4c-1.4,0.5-2.4,1.8-3.8,2.3c-1.4,0.5-3.2-0.2-4.5,0.3c-1.3,0.5-2.3,2-3.6,2.6c-1.3,0.5-2.8,0.7-4.2,1.3
		c-1.3,0.6-2.6,1.3-3.9,1.8c-1.3,0.5-2.5,1.4-3.8,2c-1.3,0.5-2.8,0.6-4.2,1.1c-1.3,0.5-2.7,0.9-4,1.4c-1.3,0.5-2.6,1.3-3.9,1.8
		c-1.3,0.5-3,0.2-4.3,0.7c-1.3,0.5-2.7,1-4,1.5c-1.3,0.5-2.3,2.1-3.6,2.6c-1.3,0.5-2.9,0.4-4.2,0.9c-1.3,0.5-2.7,0.8-4.1,1.4
		c-1.3,0.5-2.8,0.6-4.1,1.2c-1.3,0.5-2.5,1.5-3.8,2c-1.3,0.6-2.4,1.7-3.6,2.3c-1.3,0.6-2.5,1.3-3.8,1.9c-1.3,0.6-2.6,1.1-3.9,1.7
		c-1.3,0.7-2.5,1.4-3.7,2.1c-1.3,0.7-3,0.6-4.3,1.3c-1.3,0.7-2,2.4-3.2,3.1c-1.3,0.7-2.8,1-4,1.7c-1.3,0.7-2.4,1.7-3.6,2.4
		c-1.2,0.7-2.7,1.1-4,1.8c-1.2,0.8-2.3,1.7-3.6,2.5c-1.2,0.8-2.3,1.8-3.5,2.6c-1.3,0.9-2.9,1.3-4.1,2.1c-1.2,0.9-2.2,2.2-3.4,3.1
		c-1.2,0.9-2.7,1.6-3.9,2.5c-1.2,0.9-2.5,1.8-3.7,2.7c-1.3,0.9-2.2,2.2-3.5,3c-1.3,0.8-2.6,1.6-3.9,2.4c-1.3,0.8-3.2,0.6-4.5,1.4
		c-1.2,0.7-1.8,2.3-3,3c-1.2,0.7-2.6,1-3.8,1.6c-1.2,0.7-2.4,1.2-3.6,1.9c-1.2,0.7-2.3,1.4-3.5,2.1c-1.2,0.7-2.7,0.8-3.9,1.5
		c-1.1,0.7-1.6,2.5-2.7,3.3c-1.1,0.8-2.1,1.6-3.2,2.5c-1.1,0.9-2.9,0.8-4,1.6c-1.1,0.9-2,2-3,2.9c-1.1,0.9-2.3,1.6-3.4,2.5
		c-1,0.9-1.6,2.3-2.7,3.3c-1,0.9-2.3,1.6-3.3,2.5c-1,0.9-1.7,2.2-2.7,3.2c-1,0.9-1.9,2-2.9,2.9c-1,1-1.8,2.1-2.8,3.1
		c-1,1-2.3,1.6-3.3,2.7s-1.5,2.4-2.4,3.5c-0.9,1.1-2.4,1.7-3.2,2.8c-0.8,1.1-1.4,2.4-2.2,3.6s-1.8,2.2-2.6,3.3
		c-0.8,1.2-1.1,2.7-1.8,3.8c-0.8,1.2-1.9,2.1-2.7,3.2c-0.8,1.1-1.2,2.6-2,3.7c-0.8,1.1-1.4,2.5-2.2,3.6c-0.8,1.1-2.5,1.6-3.3,2.7
		c-0.9,1.1-1.3,2.6-2.1,3.7c-0.9,1.1-1.9,2-2.8,3.2c-0.9,1.1-1.6,2.3-2.4,3.4c-0.8,1.1-1.3,2.5-2.1,3.6c-0.9,1.2-2.1,2.2-2.9,3.4
		c-0.8,1.2-1.5,2.6-2.2,3.9c-0.8,1.3-1.2,2.8-1.9,4.1c-0.7,1.3-1.7,2.5-2.3,3.8c-0.7,1.3-1.9,2.4-2.6,3.7c-0.6,1.3-0.8,2.9-1.4,4.3
		c-0.6,1.4-0.7,2.9-1.3,4.3c-0.6,1.4-1.9,2.5-2.4,3.9c-0.5,1.4-1.2,2.7-1.7,4.2c-0.5,1.4-0.2,3.1-0.7,4.5c-0.5,1.4-0.8,2.9-1.3,4.3
		c-0.5,1.4-2,2.5-2.4,3.9c-0.4,1.3-0.9,2.7-1.3,4c-0.4,1.3,0.4,3,0.1,4.4c-0.4,1.4-1.6,2.5-1.9,3.8c-0.3,1.4-0.5,2.8-0.8,4.1
		c-0.3,1.4,0.1,2.9-0.1,4.2c-0.3,1.4-1.3,2.6-1.6,4c-0.2,1.4,0.4,2.9,0.3,4.3c-0.2,1.4-0.2,2.8-0.4,4.2c-0.1,1.4-1.6,2.7-1.7,4.1
		c-0.1,1.4-0.1,2.8-0.2,4.2c-0.1,1.4,1,2.8,0.9,4.2c0,1.4-0.6,2.8-0.6,4.2c0,1.4,0.4,2.8,0.5,4.2c0,1.4-0.1,2.8-0.1,4.2
		c0.1,1.4-0.7,2.8-0.6,4.2c0.1,1.4,1,2.8,1.1,4.2c0.1,1.4,0.5,2.8,0.6,4.3c0.1,1.4-0.7,3-0.5,4.4c0.2,1.4,1.1,2.7,1.3,4.2
		c0.2,1.4-0.2,2.9,0,4.3c0.2,1.4,0.9,2.8,1.1,4.2c0.2,1.4,0,2.9,0.3,4.3c0.3,1.4,0.7,2.8,1,4.2c0.3,1.4,1.4,2.6,1.7,4
		c0.3,1.4,0.5,2.8,0.9,4.2c0.4,1.4,0.6,2.8,1,4.2c0.4,1.4,0.1,3,0.5,4.3c0.4,1.4,1.8,2.4,2.2,3.8c0.4,1.4,1,2.7,1.5,4
		c0.5,1.4,1.2,2.6,1.7,3.9c0.5,1.3,0.6,2.8,1.1,4.2c0.5,1.3,0.3,3,0.9,4.3c0.6,1.3,1.5,2.5,2.1,3.8c0.6,1.3,1.8,2.3,2.4,3.6
		c0.6,1.3,1.1,2.7,1.7,3.9c0.7,1.3,1.5,2.5,2.1,3.7c0.7,1.3,1.4,2.5,2.1,3.7c0.7,1.2,1.6,2.4,2.3,3.6c0.7,1.2,1.1,2.7,1.9,3.9
		c0.8,1.2,1.5,2.5,2.3,3.6c0.8,1.2,1.8,2.2,2.6,3.4c0.8,1.2,1.6,2.4,2.5,3.5c0.9,1.1,1.5,2.5,2.4,3.6c0.9,1.1,2.3,1.9,3.2,3
		c0.9,1.1,2,2,2.9,3.1c0.9,1.1,1.7,2.3,2.6,3.3c0.9,1,1.5,2.5,2.4,3.5c1,1,1.9,2,2.9,3c1,1,1.8,2.1,2.9,3.1c1,1,2,2,3,2.9
		c1,1,2.1,1.9,3.1,2.8c1.1,0.9,2.9,0.9,4,1.8c1.1,0.9,2.2,1.7,3.3,2.6c1.1,0.9,2.2,1.8,3.3,2.6c1.1,0.9,1.4,2.7,2.5,3.6
		c1.1,0.9,2.8,0.9,3.9,1.8c1.1,0.8,2.2,1.7,3.4,2.5c1.1,0.8,2.3,1.6,3.5,2.4c1.1,0.8,1.6,2.5,2.8,3.3c1.2,0.8,2.6,1.3,3.8,2.2
		c1.2,0.9,2.1,2,3.3,2.9c1.2,0.9,3.1,0.7,4.3,1.5c1.2,0.9,2,2.2,3.2,3.1c1.2,0.8,2.3,1.8,3.5,2.6c1.2,0.8,2.4,1.6,3.6,2.4
		c1.2,0.8,2.4,1.6,3.7,2.3c1.3,0.7,2.4,1.7,3.7,2.4c1.3,0.7,2.9,0.8,4.2,1.5c1.3,0.6,2.5,1.6,3.9,2.2c1.3,0.6,2.8,1,4.2,1.6
		c1.4,0.6,2.7,1.3,4,1.9c1.4,0.6,3,0.5,4.4,1c1.4,0.5,2.7,1.2,4.1,1.7c1.4,0.5,2.6,1.5,4,2.1c1.3,0.5,2.8,0.8,4.1,1.3
		c1.3,0.5,2.6,1.2,3.9,1.7c1.4,0.5,2.6,1.2,4,1.7c1.4,0.5,2.7,1.1,4,1.5c1.4,0.4,2.8,0.6,4.2,1c1.4,0.4,2.7,1.1,4,1.5
		c1.4,0.4,2.8,0.8,4.1,1.2c1.4,0.4,3.1-0.4,4.5-0.1c1.4,0.4,2.6,1.2,4,1.6c1.4,0.3,2.8,0.4,4.2,0.8c1.4,0.3,2.8,0.6,4.2,0.9
		c1.4,0.3,2.6,1.4,4,1.7c1.4,0.3,2.8,0.4,4.2,0.7c1.4,0.3,3-0.6,4.4-0.3c1.4,0.3,2.7,1.4,4.1,1.6c1.4,0.2,2.8,0.4,4.2,0.7
		c1.4,0.2,2.8-0.2,4.2,0c1.3,0.3,2.4,1.7,3.8,2c1.3,0.3,2.9-0.2,4.2,0.1c1.3,0.3,2.6,0.9,3.9,1.2c1.3,0.3,2.6,0.9,3.9,1.2
		c1.3,0.4,2.6,1,3.9,1.4c1.3,0.3,2.9-0.4,4.3,0c1.3,0.3,2.6,1,3.9,1.3c1.5,0.3,2.9,0.6,4.4,0.9c1.5,0.3,2.9,0.6,4.4,0.8
		c1.5,0.2,2.9,0.5,4.4,0.6c1.5,0.1,3-0.2,4.5-0.1c1.5,0.1,2.9,0.6,4.4,0.7c1.5,0,3-0.3,4.5-0.3c1.5,0,3-0.2,4.5-0.2
		c1.5,0,3,0.2,4.5,0.2c1.4,0,2.8,0.5,4.2,0.5c1.4,0,2.8,0.6,4.2,0.6c1.4,0,2.8-0.1,4.2-0.1c1.4,0.1,2.8-0.5,4.2-0.4
		c1.4,0.1,2.8,0,4.2,0.1c1.4,0.1,2.8,0.2,4.2,0.3c1.4,0.1,2.8,1,4.2,1.1c1.4,0.1,2.8,0.3,4.2,0.4c1.4,0.1,2.8,0.1,4.2,0.2
		c1.4,0.1,2.8-0.2,4.2-0.1c1.4,0.1,2.8,0.5,4.2,0.6c1.4,0.1,2.8,0,4.2,0.1c1.4,0.1,2.8-0.1,4.2,0c1.4,0.1,2.8-0.3,4.2-0.2
		c1.4,0.1,2.8,0.2,4.2,0.3c1.4,0.1,2.8,0.3,4.2,0.4c1.4,0.1,2.8,0.6,4.3,0.7c1.4,0.2,2.9,0.1,4.3,0.3c1.4,0.2,2.8,0.7,4.2,0.9
		c1.4,0.2,2.8,0.6,4.2,0.9c1.4,0.2,2.9,0.4,4.3,0.6c1.4,0.3,2.8,0.7,4.2,0.9c1.4,0.3,3-0.3,4.4,0c1.4,0.3,2.6,1.6,4,1.9
		c1.4,0.3,2.7,0.9,4.2,1.2c1.4,0.3,2.9,0.2,4.3,0.5c1.4,0.3,2.9,0.4,4.3,0.8c1.4,0.3,2.8,0.6,4.2,0.9c1.4,0.3,2.8,0.9,4.2,1.2
		c1.4,0.4,2.7,1.1,4.1,1.5c1.4,0.3,2.7,0.7,4.1,1.1c1.4,0.4,2.9,0.3,4.2,0.7c1.4,0.4,2.5,1.5,3.9,1.9c1.4,0.4,3-0.1,4.3,0.4
		c1.3,0.5,2.4,1.6,3.8,2.1c1.3,0.5,2.5,1.2,3.9,1.8c1.3,0.5,2.8,0.6,4.1,1.1c1.3,0.5,2.8,0.8,4,1.4c1.3,0.6,2.8,0.8,4.1,1.4
		c1.3,0.6,2.6,1.3,3.8,1.9c1.3,0.7,1.9,2.4,3.1,3.1c1.2,0.7,2.4,1.5,3.6,2.2c1.2,0.8,2.5,1.4,3.6,2.2c1.2,0.8,2.5,1.4,3.6,2.3
		c1.2,0.9,2.2,1.9,3.3,2.8c1.1,0.9,2.8,1,4,1.9c1.1,0.9,2.4,1.6,3.5,2.5c1.1,0.9,2.2,1.8,3.3,2.7c1.1,0.9,2.1,1.9,3.2,2.8
		c1.1,0.9,2.1,1.9,3.3,2.8c1.1,0.9,2.1,2,3.2,2.8c1.2,0.8,2.1,2,3.3,2.8c1.2,0.8,2.5,1.5,3.7,2.2c1.2,0.7,2.6,1.3,3.9,1.9
		c1.3,0.6,2.6,1.2,3.9,1.8c1.3,0.5,2.6,1.3,4,1.7c1.3,0.4,3.1-0.3,4.5,0c1.3,0.3,2.6,1.5,4,1.7c1.4,0.2,2.9-0.6,4.4-0.5
		c1.5,0.1,2.9,1.5,4.3,1.3c1.5-0.1,2.7-1.4,4-1.9c1.4-0.5,2.6-1.1,3.6-2.1c1-0.9,1.8-2,2.3-3.5c0.4-1.2,0.2-2.6,0.2-4.2
		c0.1-1.4-0.2-2.6-0.7-4.1c-0.5-1.3-0.5-2.9-1.2-4.2c-0.7-1.3-2.1-2.2-2.8-3.4c-0.8-1.4-0.5-3.2-0.9-4.4c-0.5-1.4-1.7-2.6-2.2-4
		c-0.5-1.4-0.2-3.1-0.5-4.5c-0.4-1.4-1.1-2.8-1.4-4.2c-0.3-1.5-0.2-3-0.4-4.5c-0.2-1.5-0.9-2.9-1-4.4c-0.1-1.5,0.1-3,0-4.5
		c-0.1-1.5-0.6-3-0.6-4.5c0-1.5,1-2.8,1.2-4.2c0.2-1.5,0.6-2.8,0.9-4.1c0.4-1.4,1-2.6,1.6-3.9c0.6-1.3,0.6-2.9,1.4-4.1
		c0.8-1.2,1.8-2.2,2.8-3.3c0.9-1.1,2-2.1,3.1-3c1.1-0.9,2.2-1.8,3.4-2.6c1.2-0.8,2.1-2,3.3-2.8c1.2-0.7,2.5-1.4,3.8-2.1
		c1.3-0.6,2.7-1.1,4-1.7c1.3-0.5,2.7-1.1,4-1.5c1.4-0.5,2.9-0.4,4.3-0.8c1.4-0.4,2.6-1.4,4-1.7c1.4-0.3,2.8-0.8,4.2-1.1
		c1.4-0.3,3,0.1,4.4-0.1c1.3-0.2,2.7-0.2,4-0.4c1.3-0.2,2.6-1.2,3.9-1.4c1.3-0.2,2.7,0,4.1-0.2c1.3-0.2,2.6-0.7,3.9-1
		c1.3-0.2,2.7-0.2,4-0.5c1.3-0.3,2.5-1,3.9-1.3c1.3-0.3,2.6-0.7,3.9-1c1.3-0.4,2.8-0.2,4.1-0.6c1.3-0.4,2.5-1.1,3.8-1.5
		c1.3-0.3,2.7-0.4,4-0.8c1.3-0.3,2.8-0.1,4.1-0.4c1.3-0.3,2.5-1,3.9-1.3c1.3-0.3,2.5-1.2,3.8-1.5c1.3-0.3,2.7-0.3,4-0.7
		c1.3-0.3,2.5-1.1,3.8-1.4c1.4-0.4,2.6-0.9,3.9-1.4c1.3-0.5,3.1,0.1,4.3-0.4c1.3-0.6,2.1-2.1,3.4-2.7c1.2-0.6,2.6-1.1,3.8-1.8
		c1.2-0.7,2.2-1.7,3.4-2.4c1.2-0.8,2.1-1.8,3.3-2.6c1.1-0.8,2.7-1.1,3.8-1.9c1.2-0.9,2.8-1.4,4-2.3c1.2-0.9,1.8-2.7,3-3.6
		c1.2-0.9,2.6-1.6,3.8-2.5c1.2-0.9,2.2-2.2,3.4-3c1.2-0.9,3-1.1,4.2-1.9c1.2-0.9,2.3-2,3.5-2.9c1.2-0.9,2.8-1.3,4-2.2
		c1.2-0.8,2.2-1.9,3.4-2.7c1.1-0.8,2.3-1.8,3.4-2.6c1.1-0.9,2-2.1,3.1-3c1.1-0.9,2.6-1.3,3.7-2.3c1.1-0.9,1.4-2.7,2.4-3.7
		c1.1-1,2.3-1.7,3.3-2.7c1-1,2.6-1.5,3.6-2.5c1-1,1.1-2.9,2.1-4c1-1,2.5-1.6,3.4-2.7c1-1.1,2-2.1,2.9-3.2c0.9-1.1,1.4-2.6,2.3-3.7
		c0.9-1.1,1.6-2.4,2.5-3.5c0.9-1.1,2.4-1.8,3.2-2.9c0.9-1.1,2.1-2,2.9-3.2c0.9-1.2,1.8-2.4,2.6-3.6c0.8-1.2,0.7-3.1,1.5-4.3
		c0.8-1.3,2.2-2.1,3-3.4c0.7-1.3,1.3-2.7,2.1-3.9c0.7-1.3,0.9-2.9,1.6-4.2c0.7-1.3,2-2.3,2.7-3.6c0.7-1.3,0.5-3,1.3-4.3
		c0.7-1.3,1.5-2.5,2.2-3.8c0.7-1.3,2.2-2.1,2.9-3.4c0.7-1.3,0.7-3,1.4-4.3c0.7-1.3,2.1-2.2,2.8-3.5c0.7-1.3,1.8-2.4,2.5-3.7
		c0.7-1.3,0.5-3,1.1-4.3c0.6-1.3,1.4-2.6,2-3.9c0.5-1.4,1-2.7,1.5-4.1c0.5-1.4,0.4-2.9,0.8-4.3c0.4-1.4,0.7-2.8,1.1-4.2
		c0.3-1.4,1.2-2.7,1.5-4.2c0.3-1.4,0.7-2.8,1-4.3c0.2-1.4,0-3,0.2-4.4c0.2-1.5,0.8-2.9,0.9-4.3c0.2-1.5,0.5-2.9,0.6-4.4
		c0.1-1.5,0.4-2.9,0.6-4.4c0.1-1.5-0.2-3-0.1-4.4c0.1-1.5,0.8-2.9,0.9-4.4c0.1-1.5-0.9-3-0.8-4.5c0.1-1.4,0.2-2.8,0.3-4.3
		c0-1.4,1.1-2.9,1.1-4.3c0-1.4-0.2-2.9-0.3-4.3c0-1.4-0.1-2.9-0.1-4.3c-0.1-1.4-0.2-2.9-0.3-4.3c-0.1-1.4-1.1-2.8-1.2-4.2
		c-0.1-1.4-0.3-2.8-0.4-4.3c-0.2-1.4-0.7-2.8-0.9-4.2c-0.2-1.4,0.9-3,0.7-4.4c-0.2-1.4-0.8-2.8-1-4.2c-0.2-1.4-0.4-2.8-0.6-4.3
		c-0.3-1.4-1.7-2.6-2-4c-0.3-1.4-0.5-2.8-0.8-4.2c-0.3-1.4,0-2.9-0.3-4.3c-0.3-1.4-1.2-2.6-1.6-4c-0.4-1.4,0-3-0.4-4.4
		c-0.4-1.4-1.2-2.7-1.6-4.1c-0.4-1.4-0.1-3-0.4-4.4c-0.4-1.4-1.7-2.5-2.2-3.9c-0.4-1.4,0.2-3.1-0.3-4.5c-0.5-1.4-1.4-2.6-2-4
		c-0.5-1.4-1.4-2.6-2-3.9c-0.6-1.3-1-2.8-1.7-4.1c-0.7-1.3-1.9-2.3-2.6-3.6c-0.7-1.3-0.6-3.1-1.4-4.3c-0.8-1.3-1.8-2.4-2.6-3.6
		c-0.8-1.2-1.8-2.4-2.6-3.6c-0.8-1.2-2.3-2-3.1-3.3c-0.8-1.2-1.5-2.6-2.3-3.8c-0.8-1.2-1.5-2.4-2.4-3.5c-0.8-1.2-0.9-2.8-1.8-4
		c-0.9-1.1-2.2-1.9-3.1-3c-0.9-1.1-1.3-2.6-2.2-3.7c-0.9-1.1-1.8-2.2-2.7-3.3c-0.9-1.1-1.7-2.3-2.6-3.4c-0.9-1.1-2.8-1.4-3.7-2.4
		c-0.9-1.1-0.9-3-1.9-4c-0.9-1.1-2.3-1.8-3.2-2.9c-1-1.1-2.5-1.5-3.5-2.6c-1-1.1-1.9-2.2-2.8-3.2c-1-1.1-1.8-2.2-2.8-3.2
		s-1.3-2.6-2.3-3.7c-1-1.1-2.5-1.6-3.5-2.6c-1-1.1-1.7-2.3-2.6-3.4c-0.9-1-1.7-2.3-2.7-3.3c-1-1-1.7-2.3-2.7-3.3
		c-1-1-1.9-2.1-2.9-3.1c-1-1-2.1-1.8-3.2-2.8c-1-1-2.6-1.4-3.6-2.3c-1.1-0.9-1.9-2.1-3-3c-1.1-0.9-2.2-1.8-3.3-2.7
		c-1.1-0.9-2.6-1.2-3.7-2.1c-1.1-0.9-1.7-2.4-2.9-3.2c-1.1-0.8-2-2-3.2-2.8c-1.2-0.8-2.9-0.7-4.1-1.5c-1.2-0.8-1.8-2.3-3-3.1
		c-1.2-0.8-2.4-1.4-3.7-2.2c-1.2-0.7-2.5-1.3-3.8-2c-1.2-0.7-2.8-0.7-4.1-1.3c-1.2-0.7-2-2.1-3.2-2.8c-1.2-0.7-2.8-0.7-4-1.4
		c-1.2-0.7-2.3-1.7-3.5-2.4c-1.2-0.7-2.7-0.8-3.9-1.5c-1.2-0.7-2-2.2-3.2-2.9c-1.2-0.7-2.7-1-3.9-1.7c-1.2-0.7-2.1-2-3.3-2.6
		c-1.2-0.7-2.9-0.6-4.1-1.3c-1.2-0.7-2-2.1-3.2-2.8c-1.2-0.7-2.8-0.8-4-1.5c-1.2-0.7-2.6-1-3.8-1.7c-1.2-0.7-2.3-1.5-3.6-2.2
		c-1.2-0.7-1.9-2.2-3.2-2.9c-1.2-0.7-2.5-1.3-3.7-2c-1.2-0.7-2.5-1.3-3.7-1.9c-1.3-0.7-2.8-0.9-4.1-1.5c-1.3-0.7-2.2-2-3.5-2.7
		c-1.3-0.7-3-0.6-4.3-1.3c-1.3-0.7-2.2-2-3.5-2.7c-1.3-0.7-2.8-0.9-4.1-1.6c-1.3-0.7-2.6-1.3-3.9-2c-1.3-0.6-2.8-0.9-4.1-1.4
		c-1.3-0.5-2.4-1.7-3.7-2.3c-1.3-0.5-3-0.2-4.3-0.7c-1.3-0.5-2.3-2-3.6-2.5c-1.3-0.5-2.8-0.5-4.2-0.9c-1.3-0.5-2.6-1.1-4-1.6
		c-1.3-0.5-2.6-1.1-4-1.5c-1.3-0.4-2.7-0.8-4.1-1.3c-1.3-0.4-3,0-4.3-0.4c-1.3-0.5-2.7-0.9-4-1.3c-1.3-0.4-2.6-1.2-3.9-1.6
		c-1.4-0.4-2.6-1.3-3.9-1.7c-1.4-0.4-2.5-1.4-3.9-1.8c-1.4-0.4-2.8-0.6-4.2-1c-1.4-0.4-2.8-0.4-4.2-0.8c-1.4-0.4-2.8-0.5-4.2-0.9
		s-2.7-0.9-4.1-1.2c-1.4-0.3-2.6-1.2-4-1.5c-1.4-0.3-2.8-0.3-4.2-0.6c-1.4-0.3-2.9,0.1-4.3-0.2c-1.4-0.3-2.6-1.3-4-1.6
		c-1.4-0.3-2.9-0.1-4.3-0.4c-1.4-0.2-2.7-0.8-4.1-1s-2.8-0.2-4.2-0.4c-1.4-0.2-2.9,0-4.3-0.2c-1.4-0.2-2.7-1-4.2-1.1
		c-1.4-0.1-2.9,0.1-4.3,0c-1.4-0.1-2.8-0.7-4.2-0.7c-1.4-0.1-2.9,0.8-4.3,0.7c-1.4-0.1-2.9-0.3-4.3-0.4c-1.4-0.1-2.9,0.4-4.3,0.3
		c-1.4-0.1-2.9-0.1-4.3-0.2c-1.4-0.1-2.8-0.6-4.3-0.7c-1.4-0.1-2.9,0-4.3-0.1c-1.4-0.1-2.8-1.3-4.2-1.4c-1.4-0.1-2.9,0.8-4.4,0.7
		c-1.4-0.1-2.8-0.3-4.3-0.4c-1.4-0.1-2.9,0-4.3-0.1c-1.4-0.1-2.9-0.1-4.3-0.2c-1.4-0.1-2.8-0.7-4.2-0.7c-1.4,0-2.8,0.8-4.2,0.9
		c-1.4,0.1-2.9-1-4.3-0.9c-1.4,0.2-2.7,1.3-4,1.5c-1.4,0.2-2.9-0.5-4.3-0.3c-1.4,0.2-2.6,1.5-3.9,1.8c-1.4,0.3-2.7,0.6-4.1,0.8
		c-1.4,0.3-3-0.6-4.3-0.3c-1.4,0.2-2.7,0.5-4.1,0.7c-1.4,0.2-2.6,1.5-4,1.7c-1.1,0.1-2.4,1-3,2.7c-0.7,2-0.8,4.1-1,4.1
		c1.5-0.2,3.1,0.5,4.6,0.2c1.5-0.2,2.9-1,4.4-1.3c1.5-0.3,2.9-1.1,4.3-1.4c1.5-0.3,2.9-0.8,4.4-1.1c1.5-0.3,3.1,0,4.5-0.3
		c1.5-0.3,3.1,0.2,4.6,0c1.5-0.2,3-0.3,4.5-0.4c1.4-0.2,2.7-1.4,4.2-1.5c1.4,0,2.9-0.1,4.3,0c1.4,0,2.8,0.4,4.3,0.5
		c1.4,0.1,2.9-0.2,4.3,0c1.4,0.1,2.7,1.5,4.1,1.7c1.4,0.2,2.9-0.5,4.3-0.3c1.4,0.2,2.8,0.4,4.2,0.5c1.4,0.1,2.8,1,4.2,1.1
		c1.4,0.1,2.8-0.5,4.2-0.5c1.4,0.1,2.8-0.3,4.2-0.2c1.4,0,2.8,0.1,4.2,0.1c1.4,0,2.8,0.8,4.2,0.8c1.4,0,2.8-0.1,4.2,0
		c1.4,0,2.8-0.3,4.2-0.2c1.4,0.1,2.8,0.4,4.2,0.5c1.4,0.1,2.8,0.1,4.2,0.2c1.4,0.2,2.8,0.5,4.2,0.7c1.4,0.2,2.9,0,4.3,0.2
		c1.4,0.2,2.7,1.2,4.1,1.4c1.4,0.2,2.9-0.4,4.3-0.1c1.4,0.2,2.7,1,4.1,1.2c1.4,0.2,2.9-0.1,4.3,0.1c1.4,0.3,2.7,1.1,4.1,1.4
		c1.4,0.3,2.8,0.4,4.2,0.7c1.4,0.3,2.8,0.7,4.2,1.1c1.4,0.3,2.7,1,4.1,1.3c1.4,0.4,3,0.1,4.4,0.5c1.4,0.4,2.9,0.5,4.3,0.9
		c1.4,0.4,2.7,1.2,4.1,1.6c1.4,0.4,2.5,1.6,3.9,2c1.4,0.4,2.9,0.4,4.3,0.8c1.4,0.5,2.5,1.6,3.9,2.1c1.4,0.5,3.1,0,4.5,0.4
		c1.4,0.5,2.7,1.2,4,1.7c1.4,0.5,2.8,0.9,4.1,1.4c1.4,0.5,2.6,1.4,3.9,1.9c1.4,0.5,2.7,1.1,4,1.6c1.4,0.5,2.9,0.6,4.2,1.1
		c1.4,0.5,2.6,1.2,4,1.7c1.4,0.5,2.6,1.4,3.9,2c1.4,0.6,2.7,1.1,4,1.7c1.3,0.6,2.5,1.5,3.8,2.1c1.3,0.6,2.7,1.1,4,1.8
		c1.3,0.7,2.6,1.3,3.9,2c1.3,0.7,3,0.6,4.3,1.3c1.3,0.7,2.5,1.5,3.8,2.2c1.2,0.7,2.3,1.7,3.5,2.4c1.2,0.7,2.4,1.4,3.7,2
		c1.2,0.7,2.3,1.5,3.6,2.2c1.2,0.7,2.4,1.5,3.6,2.1c1.2,0.7,2.4,1.4,3.7,2c1.2,0.7,2.6,1.1,3.8,1.8c1.2,0.7,2.1,1.9,3.3,2.6
		c1.2,0.7,2.6,1.1,3.8,1.8c1.3,0.8,2.9,0.9,4.2,1.6c1.3,0.7,2.5,1.6,3.7,2.3c1.3,0.7,2.7,1.3,3.9,2c1.3,0.7,2.4,1.7,3.7,2.4
		c1.3,0.7,2.4,1.7,3.7,2.4c1.3,0.7,2.4,1.8,3.6,2.5c1.3,0.7,2.7,1.2,4,1.9c1.3,0.7,3,0.8,4.2,1.5c1.3,0.7,2.2,2,3.5,2.8
		c1.3,0.7,2.5,1.5,3.8,2.3c1.3,0.8,2.8,1.1,4,1.9c1.2,0.8,2.3,1.9,3.5,2.7c1.2,0.8,2.6,1.4,3.8,2.2c1.2,0.9,1.8,2.5,3,3.4
		c1.2,0.9,2.1,2.1,3.3,3c1.1,0.9,2.6,1.5,3.7,2.4c1.1,0.9,2.5,1.6,3.6,2.6c1.1,0.9,2.6,1.5,3.7,2.4c1.1,1,1.5,2.8,2.6,3.7
		c1.1,1,2.7,1.4,3.8,2.4c1.1,1,2,2.1,3.1,3.2c1,1,1.4,2.5,2.3,3.5c1,1,2.2,1.8,3.1,2.8c0.9,1,1.6,2.3,2.5,3.4c0.9,1,2.1,1.9,3,2.9
		c0.9,1.1,2,2,2.9,3c0.9,1.1,1.8,2.1,2.7,3.2c0.9,1.1,2,2,2.9,3c0.9,1,1.5,2.4,2.5,3.4c1,1.1,2,2.1,3,3.2c1,1.1,2,2.1,3,3.2
		c1,1.1,1.7,2.4,2.6,3.6c1,1.1,1.8,2.3,2.8,3.4c0.9,1.1,1.8,2.3,2.7,3.5c0.9,1.1,2.3,1.9,3.2,3.1c0.9,1.2,1.5,2.6,2.4,3.8
		c0.9,1.2,2.1,2.1,3,3.3c0.9,1.2,1.7,2.4,2.6,3.6c0.8,1.2,1.5,2.5,2.3,3.8c0.8,1.2,1.9,2.3,2.6,3.6c0.8,1.3,2,2.3,2.7,3.5
		c0.8,1.3,0.9,2.9,1.6,4.2c0.7,1.3,1.6,2.5,2.3,3.8c0.7,1.3,1.2,2.7,1.9,4c0.6,1.3,1.2,2.6,1.8,4c0.6,1.4,1,2.8,1.5,4.1
		c0.5,1.4,0.5,2.9,0.9,4.3c0.4,1.4,0.7,2.8,1.1,4.2c0.4,1.4,1.7,2.6,2,4c0.4,1.4-0.1,3,0.3,4.5c0.3,1.4,1.3,2.7,1.6,4.1
		c0.3,1.3,0.8,2.6,1.2,4c0.3,1.3,0.2,2.8,0.5,4.1c0.3,1.3,1.5,2.5,1.8,3.8c0.3,1.3-0.3,2.9,0,4.2c0.3,1.3,0.8,2.6,1.1,4
		c0.2,1.4,0.7,2.7,1,4c0.2,1.4-0.5,2.9-0.3,4.2c0.2,1.4,1.3,2.6,1.5,4c0.2,1.4,0.5,2.8,0.6,4.2c0.1,1.4-0.3,2.9-0.2,4.3
		c0.1,1.4,0.6,2.8,0.7,4.2c0.1,1.4,0.1,2.8,0.2,4.2c0,1.4-0.6,2.8-0.6,4.2c0,1.4-0.2,2.8-0.2,4.2c0,1.4,1.1,2.8,1,4.2
		c0,1.4,0,2.8-0.1,4.2c-0.1,1.4-1,2.8-1.1,4.2c-0.1,1.4-0.4,2.8-0.5,4.2c-0.1,1.4-0.4,2.8-0.5,4.2c-0.1,1.4,0,2.8-0.2,4.2
		c-0.2,1.4-0.1,2.8-0.3,4.2c-0.2,1.4-0.2,2.8-0.4,4.2c-0.2,1.4-1.2,2.7-1.4,4.1c-0.2,1.4-0.2,2.8-0.4,4.2c-0.2,1.4,0.1,2.9-0.2,4.2
		c-0.4,1.3-1,2.6-1.4,3.9c-0.5,1.3-1.8,2.2-2.4,3.5c-0.5,1.3-0.6,2.7-1.3,3.9c-0.6,1.2-1.1,2.5-1.8,3.7c-0.6,1.2-1.6,2.2-2.3,3.4
		c-0.7,1.2-1.2,2.5-1.9,3.6c-0.7,1.2-1.6,2.2-2.3,3.4c-0.7,1.2-0.7,2.7-1.4,3.9c-0.7,1.2-1.8,2.2-2.4,3.4c-0.7,1.2-1.3,2.4-2,3.6
		c-0.7,1.2-1,2.6-1.7,3.8c-0.7,1.2-1.1,2.6-1.8,3.8c-0.7,1.2-2.2,1.9-2.9,3.1c-0.7,1.2-0.6,2.9-1.3,4.1c-0.8,1.2-1.6,2.3-2.4,3.4
		c-0.8,1.1-2.2,1.8-3,3c-0.8,1.1-2,1.9-2.8,3c-0.9,1.1-1.1,2.9-2,4c-0.9,1.1-1.7,2.4-2.7,3.5c-1,1.1-2.4,1.8-3.4,2.9
		c-1,1.1-1.8,2.3-2.8,3.4c-1,1.1-2.6,1.5-3.6,2.6c-1,1-1.9,2.2-3,3.2c-1.1,1-2.1,2-3.2,3c-1.1,1-2.1,2.1-3.2,3c-1.2,1-2,2.3-3.2,3.2
		c-1.2,0.9-2.9,1.1-4.1,2c-1.2,0.9-2,2.4-3.2,3.2c-1.2,0.9-2.4,1.8-3.6,2.7c-1.2,0.8-2.7,1.3-4,2.2c-1.2,0.9-2.7,1.4-4,2.2
		c-1.2,0.9-2.2,2.2-3.4,3.1c-1.1,0.8-2,2-3.1,2.8c-1.1,0.9-2.2,1.7-3.3,2.6c-1.1,0.9-2.6,1.2-3.7,2.1c-1.1,0.8-2.3,1.5-3.4,2.4
		c-1.1,0.8-2.3,1.5-3.5,2.3c-1.2,0.8-2.2,1.7-3.4,2.4c-1.2,0.7-2.1,1.9-3.4,2.5c-1.3,0.7-2.7,1.4-4.1,2c-1.4,0.6-2.8,1.2-4.3,1.7
		c-1.4,0.5-2.9,1.2-4.3,1.6c-1.5,0.4-3.3-0.6-4.8-0.3c-1.5,0.3-2.9,0.7-4.4,1c-1.5,0.3-2.9,1.2-4.3,1.5c-1.5,0.3-3,0.5-4.5,0.9
		c-1.3,0.4-2.7,0.5-4.1,0.9c-1.3,0.4-2.6,1-3.9,1.4c-1.3,0.4-2.7,0.7-4,1.1c-1.3,0.4-2.5,1.2-3.9,1.5c-1.3,0.4-2.6,0.9-4,1.2
		c-1.3,0.3-2.6,1-4,1.3c-1.4,0.3-2.8,0.4-4.1,0.7c-1.4,0.2-2.9-0.5-4.3-0.3c-1.4,0.2-2.6,1.3-3.9,1.5c-1.4,0.2-2.7,0.6-4,0.8
		c-1.3,0.2-2.8,0-4.1,0.3c-1.3,0.3-2.7,0.3-4,0.6c-1.3,0.3-2.8,0-4.1,0.4c-1.3,0.4-2.3,1.8-3.6,2.2c-1.3,0.4-2.9-0.1-4.2,0.4
		c-1.4,0.5-2.5,1.6-3.7,2.2c-1.3,0.6-2.9,0.7-4.2,1.4c-1.3,0.7-2,2.3-3.2,3.1c-1.2,0.8-2.8,1-3.9,1.9c-1.1,0.9-1.6,2.6-2.6,3.6
		c-1,1-2.1,1.9-3,3c-0.9,1.1-1.9,2.1-2.8,3.2c-0.8,1.1-1.2,2.6-2,3.8c-0.7,1.2-2.1,2.1-2.7,3.4c-0.6,1.3-1.2,2.6-1.8,3.9
		c-0.6,1.4-0.5,3-1,4.4c-0.4,1.4-0.9,2.8-1.3,4.3c-0.3,1.5-1.4,2.8-1.6,4.3c-0.2,1.5-0.6,3-0.6,4.5c-0.1,1.5,0.5,3,0.5,4.5
		c0,1.5-0.2,3-0.1,4.5c0.1,1.5,1.2,2.9,1.4,4.4c0.2,1.5-0.5,3.2-0.2,4.6c0.3,1.5,1.3,2.8,1.7,4.2c0.4,1.5,0.7,2.9,1.2,4.3
		c0.4,1.4,0.3,3.1,0.8,4.5c0.5,1.4,1.6,2.6,2.2,4c0.6,1.4,1.7,2.5,2.4,3.8c0.8,1.5,1.3,3.2,2.1,4.7c1.8,3.8-1.7,1.3,2.2-1.2
		c-1.1,0.7-2.4,1.9-3.9,2.1c-1.3,0.2-2.9-0.4-4.4-0.5c-1.4-0.1-2.8-0.4-4.3-0.7c-1.4-0.3-2.9-0.5-4.2-0.9c-1.4-0.4-2.7-1.3-4-1.7
		c-1.5-0.5-2.8-1.4-3.9-1.8c-1.4-0.5-3-0.1-4.3-0.6c-1.3-0.6-2.8-0.9-4-1.6c-1.3-0.7-2.2-1.9-3.4-2.7c-1.2-0.7-2.3-1.7-3.5-2.5
		c-1.2-0.8-2-2-3.2-2.9c-1.1-0.9-2.7-1.2-3.8-2.1c-1.1-0.9-2-2.1-3.1-3c-1.1-0.9-2.2-1.8-3.3-2.7c-1.1-0.9-2.4-1.6-3.5-2.5
		c-1.1-0.9-1.9-2.2-3-3.1c-1.1-0.9-2.8-1-4-1.9c-1.1-0.9-2.1-2-3.2-2.8c-1.2-0.8-2.3-1.6-3.5-2.4c-1.2-0.8-2.4-1.5-3.6-2.2
		c-1.3-0.7-2.2-2.1-3.5-2.8c-1.3-0.7-2.8-1.1-4.1-1.8c-1.3-0.7-2.5-1.6-3.9-2.2c-1.3-0.6-2.8-1-4.2-1.5c-1.4-0.6-2.8-1.1-4.2-1.6
		c-1.4-0.5-2.8-1-4.2-1.5c-1.4-0.5-3-0.5-4.4-0.9c-1.4-0.5-2.5-1.9-3.9-2.4c-1.4-0.4-3-0.3-4.4-0.7c-1.4-0.4-2.8-0.9-4.3-1.3
		c-1.4-0.4-2.9-0.7-4.3-1.1c-1.4-0.4-2.9-0.9-4.3-1.2c-1.5-0.3-3-0.1-4.5-0.4c-1.5-0.3-3-1-4.5-1.3c-1.5-0.4-2.8-1.6-4.3-2
		c-1.5-0.4-3.1-0.3-4.6-0.7c-1.5-0.4-3.2,0-4.7-0.4c-1.5-0.4-2.8-1.4-4.4-1.8c-1.5-0.4-3-0.7-4.5-1.1c-1.3-0.3-2.7-0.5-4-0.8
		c-1.3-0.2-2.8,0.2-4.1,0c-1.3-0.2-2.6-0.5-4-0.7c-1.3-0.2-2.7-0.4-4-0.5c-1.3-0.1-2.7-0.4-4-0.5c-1.3-0.1-2.6-1-4-1
		c-1.4-0.1-2.8,0.8-4.1,0.7c-1.4-0.1-2.7-0.7-4-0.8c-1.4-0.1-2.8-0.9-4.2-1c-1.4-0.1-2.9,1.2-4.3,1.1c-1.4-0.1-2.8-0.7-4.2-0.8
		c-1.4-0.1-2.8,0.2-4.3,0.1c-1.4-0.1-2.8-0.3-4.2-0.4c-1.4-0.1-2.8-0.5-4.2-0.5c-1.4-0.1-2.8-0.2-4.2-0.3c-1.4-0.1-2.8-0.4-4.2-0.5
		c-1.4-0.1-2.9,0.3-4.3,0.2c-1.4-0.1-2.8-0.4-4.2-0.5c-1.4-0.1-2.8,0-4.3-0.1c-1.4-0.1-2.8-0.5-4.2-0.6c-1.4,0-2.9,0.8-4.3,0.8
		c-1.4,0-2.8-1-4.2-1c-1.4,0-2.9,0.7-4.3,0.7c-1.4,0-2.8-0.8-4.2-0.8c-1.4,0-2.9,0.2-4.3,0.2c-1.4-0.1-2.8-0.3-4.3-0.4
		c-1.4-0.1-2.9,0.1-4.3-0.1c-1.4-0.2-2.9-0.3-4.3-0.5c-1.4-0.2-2.8-0.5-4.2-0.7c-1.4-0.3-2.8-0.6-4.2-0.8c-1.4-0.3-2.8-0.8-4.2-1.1
		c-1.4-0.3-2.8-0.6-4.2-0.9c-1.4-0.3-2.9-0.4-4.2-0.7c-1.4-0.3-2.8-0.8-4.1-1.1c-1.4-0.3-2.8-0.7-4.2-1c-1.4-0.3-2.8-0.4-4.2-0.7
		c-1.4-0.3-2.7-0.9-4.1-1.2c-1.4-0.3-2.9-0.2-4.3-0.5c-1.4-0.3-2.7-1.3-4.1-1.5c-1.4-0.2-2.9,0.3-4.4,0c-1.4-0.2-2.9-0.3-4.3-0.6
		c-1.4-0.2-2.7-1.3-4.1-1.6s-2.7-0.8-4.1-1.1c-1.4-0.3-2.8-0.4-4.2-0.7c-1.4-0.3-2.9-0.2-4.3-0.6c-1.4-0.4-2.6-1.5-3.9-1.9
		c-1.4-0.4-2.9-0.3-4.3-0.7c-1.4-0.4-2.7-0.9-4.1-1.3c-1.4-0.4-2.7-0.9-4.1-1.4c-1.4-0.4-2.7-0.9-4.1-1.3c-1.4-0.5-2.7-1.1-4-1.6
		c-1.3-0.5-2.8-0.6-4.2-1.1c-1.3-0.5-2.8-0.7-4.1-1.2c-1.3-0.5-2.4-1.7-3.7-2.3c-1.3-0.5-2.7-1.1-4-1.6c-1.3-0.5-2.9-0.6-4.2-1.1
		c-1.4-0.6-2.8-1.3-4.2-1.9c-1.4-0.6-2.6-1.7-4-2.3c-1.4-0.6-2.9-1-4.3-1.7c-1.4-0.7-2.8-1.2-4.2-1.9c-1.4-0.7-2.8-1.3-4.1-2.1
		c-1.3-0.7-3-0.9-4.4-1.6c-1.3-0.8-2.4-2-3.7-2.8c-1.2-0.7-2.5-1.2-3.6-2c-1.1-0.8-1.8-2.2-2.9-3c-1.1-0.8-2.5-1.3-3.6-2.1
		c-1.1-0.8-2-1.9-3.1-2.7c-1.1-0.8-2.4-1.4-3.5-2.3c-1.1-0.8-2.7-1-3.8-1.9c-1.1-0.8-1.5-2.6-2.6-3.4c-1.1-0.8-2.6-1.1-3.7-1.9
		c-1.1-0.8-1.9-2.2-3-3c-1.1-0.8-2.2-1.7-3.3-2.6c-1.1-0.9-2.6-1.2-3.7-2.1s-1.7-2.3-2.8-3.2c-1.1-0.9-2.4-1.5-3.5-2.4
		c-1.1-0.9-2-2-3-3c-1-0.9-2-1.9-3-2.9c-1-1-2.7-1.3-3.7-2.3c-1-1-2.1-1.9-3.1-2.9c-1-1-1.5-2.5-2.4-3.5c-1-1-2-2-3-3
		c-0.9-1-1.2-2.7-2.1-3.7c-0.9-1.1-2.2-1.8-3.1-2.9c-0.9-1.1-1.7-2.2-2.6-3.3c-0.9-1.1-2.5-1.6-3.3-2.8c-0.9-1.2-1.3-2.7-2.1-3.8
		c-0.8-1.2-1.6-2.4-2.4-3.6c-0.8-1.2-1.9-2.2-2.7-3.4c-0.8-1.2-1.4-2.5-2.2-3.8c-0.7-1.2-1.3-2.6-2-3.8c-0.7-1.3-2-2.2-2.7-3.5
		c-0.7-1.3-1.1-2.7-1.7-4c-0.7-1.3-0.8-2.8-1.4-4.1c-0.6-1.3-1.6-2.5-2.2-3.8c-0.6-1.3-1.3-2.6-1.9-3.9c-0.6-1.3-0.8-2.8-1.4-4.1
		c-0.5-1.3-0.9-2.8-1.4-4.1c-0.5-1.4-1.3-2.6-1.8-4c-0.5-1.4-0.3-2.9-0.8-4.3c-0.4-1.4-1.7-2.5-2.1-3.9c-0.4-1.4-0.9-2.8-1.3-4.2
		c-0.4-1.4,0.6-3.1,0.2-4.5s-1.3-2.7-1.6-4.1c-0.3-1.4-0.8-2.8-1.1-4.2c-0.3-1.4,0.2-3,0-4.4c-0.3-1.4-1.1-2.7-1.3-4.2
		c-0.2-1.4-0.5-2.8-0.7-4.3c-0.2-1.4-1-2.8-1.2-4.2c-0.2-1.4,0-2.9-0.2-4.4c-0.2-1.4-0.7-2.9-0.8-4.3c-0.1-1.4,0.8-3,0.7-4.4
		c-0.1-1.4,0.1-2.9,0-4.3c-0.1-1.4-0.6-2.9-0.7-4.3c0-1.4,0.3-2.9,0.2-4.3c0-1.4-0.1-2.9-0.1-4.3c0-1.4-0.2-2.9-0.1-4.4
		c0.1-1.4,0.4-2.9,0.5-4.3c0.1-1.4,0.3-2.9,0.5-4.3c0.1-1.4-0.1-2.9,0.1-4.4c0.2-1.4,0.7-2.8,0.9-4.3c0.2-1.4,0.7-2.8,0.9-4.2
		c0.3-1.4,0.4-2.9,0.7-4.3c0.3-1.4,0.7-2.8,1.1-4.2c0.4-1.4,1-2.7,1.4-4.1c0.4-1.4-0.1-3.1,0.3-4.5c0.4-1.4,1.7-2.5,2.1-3.9
		c0.5-1.4,1-2.7,1.4-4.1c0.5-1.4-0.1-3.1,0.5-4.5c0.5-1.4,1-2.7,1.6-4.1c0.6-1.3,1.3-2.6,1.9-3.9c0.6-1.3,1.2-2.7,1.8-4
		c0.6-1.3,1.1-2.7,1.8-4c0.6-1.3,1.4-2.5,2.1-3.8c0.7-1.2,1.3-2.6,2.1-3.8c0.8-1.2,2-2.1,2.8-3.3c0.8-1.2,1.9-2.2,2.7-3.4
		c0.9-1.2,1.2-2.7,2.1-3.9c0.9-1.1,2.5-1.7,3.4-2.8c0.9-1.1,2.2-2,3.1-3.1c0.9-1.1,1.3-2.7,2.2-3.8c0.9-1.2,1.7-2.6,2.6-3.8
		c0.9-1.3,1.6-2.6,2.4-3.9c0.9-1.3,1.5-2.7,2.4-4c0.9-1.3,1.8-2.5,2.6-3.8c0.9-1.3,1.9-2.5,2.8-3.7c0.9-1.3,2.3-2.1,3.3-3.3
		c1-1.2,1.6-2.7,2.6-3.8c1-1.1,2.5-1.6,3.5-2.7c1-1,1.2-2.8,2.3-3.8c1-1,2.1-2,3.2-3c1.1-1,2.8-1.2,3.9-2.1c1.1-1,1.6-2.6,2.7-3.5
		c1.1-0.9,2.4-1.6,3.5-2.5c1.1-0.9,2.1-2.1,3.2-3c1.1-0.9,2-2.1,3.1-3c1.2-0.9,3-1,4.2-1.8c1.2-0.9,2.5-1.6,3.7-2.4
		c1.2-0.8,2.4-1.7,3.7-2.5c1.3-0.8,2.5-1.5,3.8-2.2c1.3-0.7,2.5-1.7,3.8-2.4c1.3-0.7,2.8-1.1,4.1-1.8c1.3-0.7,2.4-1.8,3.7-2.5
		c1.2-0.7,2.6-1.2,3.8-1.9c1.2-0.7,2.1-1.9,3.3-2.7c1.2-0.8,2.9-0.8,4-1.7c1.2-0.8,1.6-2.6,2.8-3.4c1.1-0.8,2.5-1.3,3.7-2.2
		c1.1-0.8,2.5-1.5,3.6-2.3c1.1-0.8,2.5-1.3,3.7-2.2c1.1-0.8,1.5-2.6,2.7-3.4c1.1-0.8,2.8-0.7,4-1.4c1.2-0.7,1.9-2.2,3.1-2.9
		c1.2-0.7,2.9-0.4,4.1-1.1c1.2-0.7,2-2.1,3.2-2.7c1.2-0.7,2.9-0.5,4.1-1.2c1.2-0.7,2.1-1.9,3.3-2.5c1.2-0.7,2.6-1,3.8-1.7
		c1.3-0.7,2.7-1,3.9-1.7c1.3-0.7,2.5-1.3,3.8-1.9c1.3-0.6,2.5-1.3,3.8-1.9c1.3-0.6,2.6-1.3,3.9-1.8c1.3-0.6,2.5-1.3,3.9-1.9
		c1.3-0.5,2.7-0.9,4-1.4c1.3-0.5,2.7-1,4-1.5c1.3-0.5,2.4-1.7,3.8-2.2c1.3-0.5,2.9-0.4,4.3-0.8c1.3-0.5,2.7-0.9,4-1.4
		c1.3-0.5,2.5-1.5,3.8-2c1.3-0.5,3-0.2,4.3-0.7c1.3-0.5,2.2-2.2,3.5-2.7c1.3-0.5,3.1,0,4.4-0.5c1.3-0.5,2.5-1.4,3.8-1.9
		c1.4-0.6,2.8-1.2,4.2-1.8c1.4-0.6,2.9-0.9,4.3-1.4c1.4-0.6,2.7-1.5,4.1-2.1c1.4-0.5,2.8-1.2,4.3-1.7c1.4-0.5,2.9-0.9,4.4-1.3
		c1.5-0.4,3-0.4,4.5-0.7c1.5-0.4,3-0.4,4.5-0.7c1.4-0.3,2.7-0.6,4.1-0.8c1.4-0.3,2.8-0.5,4.1-0.7c1.4-0.3,2.6-1.3,4-1.6
		s2.7-0.5,4.1-0.8c1.4-0.2,2.7-0.5,4.1-0.8c1.4-0.3,2.7-0.7,4.1-0.9c1.4-0.3,3,0.6,4.3,0.3c1.4-0.3,2.6-1.1,4-1.4
		c1.4-0.3,2.8-0.9,4.3-1.2c1.4-0.3,2.9-0.4,4.4-0.7c1.4-0.3,3-0.1,4.4-0.4c1.4-0.3,2.9-0.4,4.4-0.7c1.4-0.3,2.8-1,4.3-1.3
		c1.4-0.3,2.8-0.9,4.3-1.2c1.5-0.3,2.9-0.8,4.3-1.1c1.5-0.3,3-0.2,4.4-0.4c1.5-0.2,3,0,4.4-0.2c1.5-0.2,2.9-0.5,4.4-0.7
		c1.5-0.2,2.9-0.6,4.4-0.8c1.5-0.2,2.8-1.3,4.3-1.5c1.5-0.2,3.1,0.8,4.5,0.6c1.5-0.2,2.9-0.6,4.4-0.7c1.1-0.1,1.3-2.3,2-4
		C372.9,22.5,373.7,19.8,374,19.8z"></path>
</g>
</svg>
