<!--?xml version="1.0" encoding="utf-8"?-->
<!-- Generator: Adobe Illustrator 25.2.3, SVG Export Plug-In . SVG Version: 6.00 Build 0)  -->
<svg version="1.1" id="_x35_" xmlns="http://www.w3.org/2000/svg" xmlns:xlink="http://www.w3.org/1999/xlink" x="0px" y="0px" viewBox="0 0 800 410.672" style="enable-background:new 0 0 800 410.672;" xml:space="preserve">
<style type="text/css">
	.st0{fill:#FFFFFF;}
	.st1{fill:#000001;}
</style>
<g>
	<path id="fillArea" class="st0" d="M411.395,331.05c0,0,233.321,21.317,314.567-30.268c91.62-58.171,91.62-199.237,1.454-254.229
		C641.198-6.032,541.268,4.28,455.464,18.65c-31.327,5.248-112.445,4.158-143.35-3.18c-24.87-5.905-114.265-9.778-156.232-4.371
		C30.446,27.264-22.787,157.733,20.529,242.085c35.242,68.63,145.746,136.022,331.961,84.248
		c11.629,20.908,39.283,48.103,55.867,52.528c0,0-4.491-31.257,1.937-54.377"></path>
	<path class="st1" d="M494.208,330.116c-10.574-0.193-20.721-1.042-29.953-1.297c-11.389-0.309-21.091,0.035-29.195,0.023
		c-12.756,0.004-23.471,0.093-23.664,2.214c-0.198,2.141,9.758,4.556,22.493,6.13c8.087,1.01,18.365,2.094,29.824,2.718
		c9.306,0.515,19.62,0.762,30.289,0.956c6.538,0.135,9.812-0.012,13.084-0.156c3.27-0.135,6.54-0.271,13.079-0.288
		c6.539,0.018,9.809,0.029,13.081,0.093c3.271,0.066,6.545,0.102,13.086-0.057c6.543-0.12,9.81-0.43,13.075-0.662
		c3.266-0.232,6.53-0.5,13.067-0.834c6.539-0.289,9.819-0.356,13.102-0.343c1.642-0.001,3.284-0.003,5.334-0.057
		c2.049-0.08,4.505-0.232,7.775-0.494c6.543-0.494,9.789-1.106,13.032-1.643c1.622-0.276,3.243-0.549,5.274-0.837
		c2.03-0.307,4.467-0.676,7.728-1.064c6.531-0.755,9.796-1.134,13.062-1.512c1.635-0.186,3.271-0.372,5.315-0.606
		c2.038-0.293,4.479-0.692,7.729-1.248c6.507-1.059,9.734-1.833,12.984-2.422c3.253-0.581,6.482-1.329,12.927-2.889
		c12.843-3.409,12.871-3.336,25.52-7.718c6.257-2.482,9.376-3.73,12.379-5.338c1.517-0.754,3.033-1.508,4.928-2.45
		c1.884-0.967,4.069-2.341,7.039-4.019c11.368-7.341,11.869-6.674,22.223-15.485c5.117-4.475,7.209-7.189,9.441-9.736
		c0.553-0.641,1.106-1.282,1.693-1.962c0.554-0.71,1.14-1.461,1.79-2.295c1.326-1.644,2.915-3.617,5.036-6.248
		c2.003-2.714,3.542-4.724,4.853-6.384c1.299-1.666,2.221-3.084,3.236-4.44c0.987-1.375,1.999-2.74,3.178-4.501
		c1.091-1.812,2.369-4.01,4.014-6.974c0.859-1.462,1.429-2.833,2.005-4.023c0.553-1.202,1.04-2.259,1.482-3.219
		c0.433-0.964,0.823-1.833,1.19-2.653c0.348-0.828,0.618-1.631,0.919-2.422c1.141-3.185,2.478-6.291,4.522-12.724
		c3.904-12.908,3.386-13.069,5.688-26.29c0.496-3.323,0.906-5.81,1.055-7.905c0.209-2.09,0.378-3.763,0.545-5.434
		c0.214-1.67,0.225-3.352,0.325-5.45c0.039-1.049,0.082-2.206,0.132-3.517c0.022-0.657,0.046-1.353,0.072-2.094
		c-0.016-0.742-0.034-1.529-0.053-2.37c-0.101-3.362-0.115-5.886-0.263-7.983c-0.19-2.094-0.341-3.769-0.494-5.443
		c-0.235-3.355-0.804-6.677-1.793-13.326c-0.665-3.299-1.109-5.783-1.444-7.865c-0.347-2.08-0.742-3.72-1.04-5.387
		c-0.332-1.658-0.617-3.334-1.131-5.387c-0.58-2.034-1.322-4.467-2.388-7.683c-1.14-3.192-2.19-5.518-2.981-7.483
		c-0.417-0.974-0.759-1.865-1.152-2.675c-0.405-0.807-0.785-1.565-1.166-2.323c-0.76-1.517-1.518-3.033-2.465-4.928
		c-0.931-1.902-2.27-4.073-3.892-7.049c-0.416-0.74-0.806-1.433-1.173-2.086c-0.383-0.644-0.792-1.217-1.155-1.773
		c-0.749-1.094-1.408-2.057-2.007-2.933c-1.248-1.716-2.164-3.142-3.308-4.409c-1.099-1.295-2.198-2.589-3.525-4.233
		c-0.679-0.809-1.348-1.76-2.226-2.747c-0.866-0.995-1.835-2.112-2.942-3.389c-1.093-1.286-2.049-2.412-2.903-3.417
		c-0.913-0.952-1.717-1.79-2.447-2.551c-1.449-1.539-2.607-2.769-3.767-4.001c-1.167-1.224-2.452-2.326-4-3.768
		c-1.588-1.395-3.376-3.216-6.114-5.21c-2.699-2.037-4.673-3.64-6.443-4.793c-1.786-1.129-3.215-2.033-4.643-2.936
		c-2.841-1.873-5.767-3.415-11.505-6.771c-5.857-3.138-8.696-4.877-11.638-6.434c-1.458-0.803-2.918-1.606-4.763-2.574
		c-1.871-0.908-4.139-1.955-7.181-3.309c-3.046-1.343-5.407-2.167-7.35-2.907c-0.978-0.354-1.858-0.67-2.69-0.97
		c-0.845-0.262-1.639-0.509-2.434-0.755c-3.167-1.001-6.334-2.002-12.666-4.005c-3.144-1.067-5.561-1.663-7.541-2.276
		c-1.991-0.582-3.577-1.071-5.186-1.468c-3.211-0.825-6.401-1.748-12.883-3.132c-6.486-1.376-9.73-2.064-12.973-2.752
		c-3.255-0.618-6.5-1.352-13.077-2.183c-3.284-0.471-5.759-0.695-7.818-0.923c-2.061-0.206-3.706-0.424-5.357-0.541
		c-3.303-0.247-6.6-0.607-13.209-0.951c-13.218-0.61-13.232-0.288-26.432-0.291c-13.184,0.205-13.206-0.29-26.372,0.419
		c-13.14,0.884-13.175,0.505-26.272,1.793c-13.076,1.428-12.997,2.1-26.002,3.834c-12.99,1.841-12.974,1.959-25.913,4.011
		c-6.435,1.05-9.704,1.515-12.769,1.812c-1.553,0.181-3.109,0.347-5.101,0.49c-1.984,0.15-4.332,0.436-7.534,0.643
		c-6.371,0.522-9.596,0.651-12.798,0.87c-3.208,0.194-6.428,0.333-12.869,0.522c-6.454,0.171-9.681,0.258-12.908,0.343
		c-3.229,0.107-6.46,0.204-12.923,0.117c-12.936-0.23-12.926-0.792-25.823-1.369c-3.226-0.18-5.645-0.314-7.66-0.428
		c-2.01-0.144-3.619-0.26-5.227-0.375c-1.608-0.123-3.215-0.244-5.222-0.397c-1.999-0.194-4.398-0.428-7.597-0.738
		c-6.366-0.755-9.543-1.133-12.657-1.649c-1.558-0.25-3.162-0.43-5.038-0.863c-1.914-0.406-4.103-0.831-7.4-1.627
		c-3.223-0.757-5.64-1.324-7.655-1.797c-2.028-0.416-3.649-0.749-5.271-1.081c-1.621-0.33-3.245-0.662-5.272-1.075
		c-2.038-0.354-4.485-0.778-7.749-1.344c-13.069-2.034-13.04-2.307-26.21-3.665c-3.297-0.271-5.774-0.42-7.84-0.505
		c-2.067-0.067-3.726-0.019-5.381-0.006c-1.656,0.022-3.309,0.045-5.373,0.016c-2.066,0.02-4.541,0.016-7.84-0.073
		c-13.196-0.107-13.203-0.097-26.384,0.468c-6.597,0.299-9.899,0.389-13.224,0.333c-1.662-0.032-3.318,0.032-5.385,0.127
		c-2.066,0.126-4.552,0.242-7.833,0.688c-6.584,0.796-9.856,1.321-13.136,1.805c-1.642,0.228-3.277,0.499-5.318,0.858
		c-1.02,0.177-2.144,0.371-3.42,0.591c-1.273,0.209-2.703,0.468-4.348,0.841c-6.568,1.417-9.871,2.043-13.097,3.012
		c-1.621,0.444-3.243,0.888-5.271,1.442c-2.041,0.503-4.433,1.313-7.622,2.392c-6.407,2.04-9.483,3.42-12.615,4.641
		c-1.55,0.651-3.155,1.172-5.05,2.089c-1.906,0.888-4.194,1.953-7.246,3.375c-11.947,6.201-11.509,7.006-22.71,14.326
		c-2.741,1.929-4.854,3.299-6.527,4.561c-1.666,1.272-2.999,2.289-4.332,3.306c-1.314,1.042-2.718,1.975-4.285,3.372
		c-1.583,1.377-3.482,3.03-6.014,5.234c-2.474,2.276-4.247,4.073-5.798,5.493c-0.773,0.715-1.468,1.359-2.125,1.967
		c-0.646,0.618-1.223,1.232-1.82,1.825c-2.33,2.43-4.864,4.695-9.05,9.995c-8.282,10.64-8.277,10.682-15.35,22.167
		c-1.65,2.941-2.993,5.088-3.956,6.964c-0.979,1.87-1.762,3.365-2.544,4.86c-0.794,1.492-1.595,2.98-2.426,4.923
		c-0.849,1.933-1.928,4.231-3.192,7.364c-1.174,3.174-1.985,5.581-2.614,7.597c-0.599,2.028-0.905,3.706-1.283,5.354
		c-0.368,1.647-0.735,3.296-1.194,5.355c-0.403,2.072-0.94,4.538-1.743,7.806c-1.298,6.609-2.215,9.873-2.828,13.207
		c-0.341,1.661-0.683,3.325-1.046,5.418c-0.283,2.102-0.496,4.641-0.738,8.03c-0.155,1.691-0.112,3.179-0.138,4.505
		c-0.013,1.326-0.024,2.493-0.035,3.555c-0.007,1.06-0.013,2.016-0.018,2.918c0.046,0.901,0.088,1.75,0.131,2.598
		c0.086,1.697,0.174,3.395,0.282,5.516c0.121,2.12,0.488,4.65,0.846,8.033c0.158,1.696,0.417,3.165,0.664,4.475
		c0.236,1.31,0.444,2.463,0.633,3.512c0.193,1.047,0.366,1.99,0.529,2.88c0.189,0.885,0.42,1.708,0.62,2.536
		c0.414,1.654,0.83,3.308,1.349,5.377c0.491,2.073,1.376,4.484,2.368,7.747c0.26,0.812,0.503,1.573,0.733,2.29
		c0.279,0.7,0.54,1.357,0.786,1.976c0.503,1.234,0.947,2.32,1.351,3.307c0.811,1.972,1.478,3.54,2.301,5.039
		c1.58,3.026,3.012,6.118,6.374,12.017c1.678,2.952,3.118,5.053,4.243,6.848c1.152,1.778,2.218,3.097,3.204,4.472
		c1.978,2.746,4.09,5.384,8.34,10.615c2.207,2.532,3.772,4.515,5.213,6.04c1.418,1.546,2.554,2.783,3.688,4.02
		c1.109,1.265,2.313,2.432,3.812,3.9c1.522,1.441,3.245,3.292,5.816,5.446c5.01,4.466,7.724,6.436,10.363,8.498
		c0.664,0.51,1.317,1.036,2.032,1.564c0.726,0.513,1.495,1.056,2.349,1.659c1.723,1.183,3.713,2.722,6.512,4.549
		c2.819,1.817,4.934,3.179,6.695,4.314c1.813,1.048,3.263,1.887,4.714,2.727c1.458,0.824,2.892,1.692,4.731,2.69
		c1.855,0.967,4.081,2.127,7.049,3.675c12.031,5.791,12.043,5.801,24.475,10.622c3.137,1.141,5.488,1.998,7.448,2.711
		c1.982,0.648,3.568,1.166,5.153,1.684c1.587,0.518,3.173,1.036,5.156,1.682c2.01,0.548,4.424,1.205,7.641,2.08
		c1.615,0.423,3.022,0.822,4.292,1.112c1.275,0.27,2.397,0.507,3.417,0.722c2.045,0.408,3.681,0.737,5.315,1.063
		c0.818,0.161,1.635,0.323,2.504,0.493c0.874,0.142,1.798,0.293,2.826,0.458c2.052,0.352,4.513,0.776,7.795,1.34
		c6.562,1.048,9.836,1.619,13.102,2.33c3.271,0.65,6.569,1.122,13.197,1.778c6.653,0.468,9.994,0.446,13.325,0.514
		c3.332,0.034,6.663-0.13,13.314,0.008c6.66,0.027,9.987-0.104,13.319-0.079c3.335,0.047,6.656-0.158,13.305-0.53
		c3.324-0.18,5.815-0.347,7.88-0.591c2.067-0.217,3.721-0.39,5.375-0.564c3.307-0.367,6.624-0.632,13.206-1.552
		c2.66-0.347,5.307-0.646,7.927-0.921c2.625-0.246,5.189-0.669,7.73-0.98c5.068-0.701,10.003-1.248,14.575-2.303
		c2.828-0.604,5.561-1.233,8.193-1.869c1.314-0.325,2.605-0.643,3.872-0.956c1.258-0.34,2.485-0.712,3.689-1.063
		c4.793-1.446,9.187-2.773,13.11-3.957c12.247-4.057,17.344-6.858,16.757-8.911c-0.588-2.061-6.3-2.06-18.725,0.439
		c-7.917,1.38-17.875,3.115-29.036,5.059c-4.5,0.912-9.272,1.661-14.187,2.598c-2.462,0.429-4.951,0.98-7.501,1.321
		c-2.547,0.353-5.126,0.712-7.726,1.072c-6.375,0.893-9.581,1.138-12.78,1.481c-1.599,0.164-3.199,0.328-5.198,0.533
		c-1.001,0.094-2.101,0.222-3.353,0.317c-1.253,0.074-2.656,0.158-4.26,0.252c-6.416,0.348-9.628,0.507-12.842,0.389
		c-3.211-0.086-6.422-0.05-12.83-0.043c-6.405-0.125-9.613-0.036-12.817-0.07c-3.2-0.097-6.408-0.155-12.803-0.553
		c-6.376-0.606-9.562-0.91-12.75-1.212c-3.167-0.437-6.351-0.799-12.677-1.743c-12.595-2.238-12.493-2.776-24.877-5.767
		c-3.079-0.823-5.399-1.392-7.346-1.835c-1.933-0.483-3.48-0.869-5.028-1.256c-3.097-0.773-6.238-1.453-12.213-3.701
		c-1.498-0.55-2.808-1.032-3.979-1.462c-1.156-0.465-2.156-0.917-3.071-1.313c-1.818-0.813-3.274-1.465-4.728-2.118
		c-1.462-0.633-2.887-1.348-4.665-2.24c-1.79-0.862-3.939-1.898-6.805-3.28c-5.627-2.958-8.529-4.28-11.293-5.85
		c-1.397-0.762-2.794-1.524-4.541-2.477c-1.735-0.971-3.717-2.3-6.398-4.01c-2.705-1.681-4.574-3.171-6.192-4.321
		c-1.591-1.19-2.908-2.084-4.124-3.106c-1.23-1.002-2.461-2.006-3.999-3.259c-0.762-0.632-1.643-1.281-2.571-2.1
		c-0.932-0.814-1.976-1.727-3.169-2.768c-1.188-1.047-2.253-1.938-3.146-2.794c-0.877-0.871-1.649-1.639-2.35-2.335
		c-1.384-1.414-2.509-2.525-3.562-3.704c-2.032-2.422-4.262-4.664-8.285-9.5c-2.095-2.349-3.498-4.237-4.782-5.728
		c-1.275-1.497-2.319-2.681-3.275-3.927c-0.982-1.23-1.967-2.461-3.158-4.033c-1.132-1.608-2.397-3.599-4.064-6.268
		c-1.519-2.746-2.642-4.816-3.547-6.555c-0.8-1.785-1.441-3.214-2.082-4.642c-1.348-2.825-2.383-5.786-4.58-11.638
		c-0.957-2.98-1.674-5.215-2.271-7.077c-0.502-1.893-0.902-3.407-1.303-4.92c-0.883-3.011-1.469-6.099-2.512-12.292
		c-0.357-3.122-0.626-5.462-0.849-7.415c-0.182-1.955-0.216-3.531-0.323-5.099c-0.06-1.57-0.247-3.138-0.224-5.107
		c0.015-1.968,0.034-4.33,0.059-7.479c0.215-3.145,0.375-5.503,0.509-7.469c0.098-1.968,0.405-3.523,0.568-5.091
		c0.204-1.565,0.376-3.133,0.654-5.085c0.362-1.94,0.796-4.267,1.375-7.371c0.643-3.091,1.312-5.37,1.786-7.285
		c0.463-1.92,0.967-3.419,1.479-4.914c0.493-1.5,0.986-3,1.603-4.874c0.604-1.878,1.52-4.066,2.588-7.035
		c0.531-1.488,1.02-2.781,1.531-3.906c0.479-1.137,0.901-2.137,1.286-3.047c0.786-1.811,1.295-3.316,2.01-4.727
		c0.681-1.428,1.362-2.856,2.214-4.641c0.443-0.885,0.881-1.882,1.477-2.965c0.611-1.077,1.295-2.282,2.076-3.657
		c0.788-1.374,1.477-2.577,2.093-3.65c0.653-1.051,1.271-1.95,1.812-2.779c1.1-1.647,1.979-2.964,2.859-4.28
		c0.857-1.332,1.884-2.547,3.044-4.15c0.588-0.796,1.234-1.67,1.969-2.666c0.366-0.498,0.753-1.027,1.166-1.589
		c0.443-0.541,0.912-1.116,1.414-1.728c1.997-2.461,3.493-4.306,4.741-5.844c1.311-1.485,2.361-2.674,3.41-3.861
		c1.067-1.172,2.044-2.431,3.459-3.822c1.409-1.396,3.1-3.072,5.354-5.304c2.315-2.168,4.153-3.685,5.622-5.016
		c1.477-1.324,2.662-2.38,3.929-3.338c1.244-0.986,2.487-1.972,4.043-3.204c0.789-0.602,1.613-1.321,2.633-2.028
		c1.018-0.708,2.16-1.501,3.463-2.407c2.606-1.813,4.574-3.153,6.339-4.074c1.733-0.969,3.141-1.707,4.545-2.443
		c0.7-0.37,1.402-0.74,2.145-1.133c0.761-0.363,1.565-0.747,2.459-1.175c1.781-0.866,3.895-1.941,6.678-3.44
		c2.858-1.353,4.999-2.374,6.766-3.264c1.766-0.895,3.172-1.628,4.631-2.246c1.451-0.644,2.901-1.286,4.714-2.088
		c0.913-0.386,1.919-0.811,3.061-1.293c1.164-0.427,2.485-0.861,3.989-1.369c3.017-0.99,5.255-1.812,7.157-2.381
		c1.91-0.542,3.44-0.976,4.969-1.41c1.53-0.436,3.06-0.87,4.971-1.415c1.943-0.424,4.276-0.933,7.385-1.612
		c1.557-0.335,2.919-0.628,4.136-0.89c1.237-0.227,2.324-0.427,3.315-0.607c1.976-0.379,3.558-0.681,5.139-0.984
		c1.588-0.268,3.176-0.537,5.16-0.873c1.984-0.344,4.374-0.692,7.571-1.079c12.801-1.514,12.898-0.521,25.712-1.38
		c6.418-0.382,9.624-0.609,12.837-0.889c3.21-0.317,6.431-0.452,12.871-0.456c6.439,0.175,9.661,0.182,12.877,0.36
		c3.219,0.135,6.441,0.225,12.858,0.799c12.82,1.223,12.751,1.83,25.464,3.703c6.334,1.081,9.502,1.621,12.638,2.319
		c3.142,0.669,6.303,1.247,12.547,2.766c1.566,0.358,2.937,0.669,4.159,0.948c1.221,0.272,2.445,0.498,3.477,0.698
		c2.103,0.386,3.802,0.733,5.462,0.893c1.666,0.21,3.331,0.421,5.413,0.684c2.064,0.243,4.541,0.535,7.843,0.923
		c6.585,0.695,9.878,1.01,13.166,1.214c3.289,0.221,6.58,0.488,13.148,0.827c13.086,0.643,13.079,0.758,26.165,1.047
		c6.546,0.067,9.816,0.367,13.093,0.585c3.276,0.24,6.555,0.506,13.117,0.355c13.137-0.362,13.125-0.333,26.309-1.202
		c3.301-0.234,5.778-0.499,7.849-0.823c2.07-0.314,3.704-0.552,5.364-0.902c1.661-0.35,3.316-0.699,5.391-1.08
		c2.018-0.404,4.39-0.863,7.599-1.39c12.838-2.045,12.819-2.165,25.672-4.014c6.44-0.881,9.662-1.302,12.886-1.692
		c3.221-0.414,6.447-0.782,12.9-1.495c6.443-0.674,9.675-0.884,12.907-1.073c3.227-0.202,6.455-0.405,12.909-0.811
		c6.443-0.399,9.666-0.538,12.888-0.661c3.223-0.152,6.444-0.223,12.888-0.338c3.219-0.013,5.634-0.069,7.646-0.111
		c2.011-0.039,3.621-0.069,5.23-0.1c3.222-0.102,6.442-0.102,12.872,0.174c3.212,0.192,5.619,0.35,7.622,0.524
		c1.997,0.222,3.594,0.401,5.193,0.58c3.187,0.386,6.373,0.772,12.746,1.543c3.18,0.429,5.562,0.772,7.543,1.084
		c1.97,0.378,3.544,0.68,5.118,0.982c3.151,0.587,6.273,1.31,12.549,2.552c3.129,0.683,5.476,1.195,7.432,1.622
		c1.944,0.469,3.501,0.844,5.056,1.22c3.125,0.707,6.209,1.565,12.351,3.367c3.038,1.012,5.316,1.77,7.215,2.403
		c1.887,0.667,3.363,1.289,4.857,1.865c1.483,0.601,2.987,1.145,4.831,1.913c1.841,0.778,4.055,1.694,7.019,2.887
		c5.836,2.574,8.835,3.684,11.759,4.978c1.472,0.623,2.945,1.249,4.769,2.068c1.802,0.862,3.927,1.975,6.749,3.478
		c2.828,1.489,4.826,2.825,6.533,3.857c1.688,1.065,3.057,1.912,4.29,2.872c1.263,0.934,2.525,1.864,4.123,2.991
		c0.788,0.579,1.708,1.139,2.667,1.896c0.963,0.75,2.041,1.59,3.274,2.551c1.249,0.941,2.342,1.764,3.318,2.497
		c0.959,0.756,1.759,1.474,2.521,2.085c1.511,1.241,2.749,2.206,3.991,3.172c1.276,0.931,2.36,2.067,3.812,3.39
		c0.707,0.683,1.485,1.433,2.369,2.286c0.434,0.434,0.908,0.882,1.384,1.387c0.452,0.527,0.932,1.086,1.445,1.682
		c2.023,2.414,3.588,4.186,4.72,5.798c1.116,1.626,1.976,2.946,2.836,4.265c0.86,1.317,1.748,2.609,2.71,4.326
		c0.985,1.701,2.273,3.668,3.897,6.349c1.534,2.737,2.685,4.789,3.643,6.5c0.94,1.721,1.569,3.165,2.28,4.565
		c0.676,1.417,1.422,2.804,2.209,4.603c0.737,1.823,1.62,4.01,2.799,6.926c1.077,2.952,1.752,5.215,2.397,7.073
		c0.663,1.851,1.047,3.379,1.452,4.9c0.409,1.52,0.818,3.039,1.329,4.94c0.493,1.905,0.89,4.238,1.539,7.319
		c0.155,0.773,0.301,1.498,0.437,2.179c0.095,0.691,0.182,1.337,0.266,1.948c0.156,1.221,0.295,2.296,0.421,3.274
		c0.225,1.958,0.472,3.514,0.511,5.094c0.107,3.154,0.516,6.283,0.562,12.582c0.003,12.587,0.712,12.665-0.811,25.236
		c-0.825,6.276-1.832,9.304-2.585,12.366c-0.36,1.536-0.879,3.032-1.453,4.916c-0.278,0.945-0.583,1.983-0.931,3.162
		c-0.331,1.185-0.688,2.515-1.223,3.996c-1.013,2.981-1.698,5.245-2.311,7.118c-0.688,1.843-1.21,3.331-1.734,4.822
		c-0.962,3.016-2.255,5.9-4.97,11.606c-3.073,5.511-4.44,8.367-6.129,11.039c-0.812,1.357-1.624,2.716-2.639,4.413
		c-1.092,1.646-2.51,3.549-4.375,6.105c-0.471,0.635-0.905,1.237-1.337,1.786c-0.46,0.526-0.891,1.02-1.298,1.487
		c-0.83,0.916-1.559,1.723-2.223,2.457c-1.371,1.428-2.404,2.623-3.633,3.635c-1.189,1.047-2.375,2.092-3.806,3.441
		c-0.724,0.667-1.475,1.444-2.381,2.271c-0.931,0.804-1.96,1.715-3.124,2.769c-1.151,1.063-2.157,1.994-3.057,2.825
		c-0.885,0.849-1.754,1.488-2.485,2.144c-1.488,1.276-2.652,2.335-3.819,3.397c-1.14,1.098-2.39,2.055-3.973,3.23
		c-0.796,0.58-1.673,1.218-2.668,1.944c-0.503,0.356-1.037,0.733-1.607,1.133c-0.565,0.41-1.178,0.823-1.863,1.19
		c-2.705,1.549-4.754,2.673-6.473,3.582c-1.769,0.839-3.261,1.383-4.71,1.985c-1.451,0.595-2.904,1.19-4.719,1.933
		c-1.863,0.661-4.081,1.489-7.014,2.656c-0.737,0.293-1.426,0.565-2.076,0.823c-0.668,0.22-1.295,0.428-1.886,0.622
		c-1.183,0.386-2.226,0.726-3.173,1.034c-1.897,0.603-3.414,1.086-4.934,1.569c-3.094,0.828-6.187,1.657-12.374,3.315
		c-6.243,1.473-9.288,2.515-12.418,3.308c-1.557,0.425-3.114,0.848-5.073,1.329c-1.956,0.491-4.317,1.024-7.509,1.542
		c-3.192,0.53-5.585,0.928-7.58,1.26c-2,0.305-3.615,0.471-5.221,0.677c-3.224,0.359-6.416,0.874-12.865,1.604
		c-3.224,0.39-5.645,0.654-7.664,0.857c-2.024,0.175-3.648,0.271-5.269,0.38c-3.249,0.186-6.479,0.492-12.965,0.978
		c-6.471,0.538-9.71,0.769-12.956,0.945c-3.247,0.17-6.481,0.452-12.98,0.737c-6.509,0.325-9.759,0.628-13.015,0.877
		c-3.255,0.243-6.508,0.584-13.036,0.703c-6.536,0.155-9.807,0.168-13.078,0.151c-3.271,0.019-6.54,0.037-13.078,0.073
		c-6.551,0.058-9.824,0.088-13.094,0.116C504.021,330.231,500.752,330.251,494.208,330.116z"></path>
	<path class="st1" d="M353.073,318.417c-0.434-1.053-0.487-2.164-0.865-3.029c-0.215-0.535-0.481-1.035-0.722-1.483
		c-0.22-0.443-0.473-0.846-0.761-1.209c-0.815-1.1-1.85-1.672-3.643-1.597c-1.767,0.069-2.87,0.881-3.258,2.754
		c-0.096,0.571-0.209,1.225-0.268,1.944c-0.049,0.708,0.006,1.433,0.155,2.197c0.266,1.229,1.224,2.307,1.738,3.556
		c0.668,1.543,0.731,1.529,1.461,3.011c0.718,1.496,0.422,1.646,1.204,3.096c0.773,1.457,0.886,1.385,1.704,2.798
		c0.816,1.414,1.077,1.244,1.927,2.619c0.853,1.372,0.487,1.604,1.376,2.953c0.891,1.347,0.936,1.309,1.859,2.627
		c0.924,1.315,1.035,1.23,1.988,2.517c0.95,1.28,0.941,1.287,1.92,2.54c0.98,1.253,0.787,1.409,1.798,2.636
		c1.013,1.229,1.566,0.77,2.597,1.969c1.044,1.193,1.044,1.193,2.09,2.384c1.056,1.182,0.345,1.82,1.418,3.002
		c1.075,1.182,1.075,1.182,2.151,2.364c1.11,1.145,1.11,1.145,2.219,2.291c1.121,1.134,1.121,1.134,2.242,2.268
		c1.131,1.125,1.705,0.532,2.848,1.631c1.147,1.098,1.058,1.194,2.231,2.27c1.174,1.075,0.879,1.404,2.089,2.455
		c1.209,1.054,1.202,1.058,2.443,2.082c1.241,1.025,1.074,1.226,2.35,2.224c1.276,0.996,1.832,0.27,3.127,1.225
		c1.296,0.954,0.777,1.66,2.124,2.589c1.345,0.931,1.329,0.943,2.718,1.832c1.384,0.898,1.423,0.831,2.863,1.677
		c1.3,0.796,1.921,0.595,4.182,1.758c1.153,0.626,1.84,0.758,2.462,0.924c0.629,0.162,1.237,0.317,2.474,0.808
		c2.434,0.797,2.459,1.03,5.044,1.84c1.639,0.505,2.261,0.707,3.036,0.799c-0.07-0.417-0.177-1.11-0.324-2.192
		c-0.404-2.972-0.486-3.038-0.862-5.941c-0.336-2.882-0.307-2.856-0.599-5.702c-0.022-0.296-0.042-0.555-0.058-0.785
		c-0.006-0.149-0.009-0.279-0.013-0.398c0.001-0.239,0.003-0.43,0.004-0.62c0.009-0.382,0.018-0.765-0.039-1.523
		c-0.093-1.519-0.37-1.503-0.46-3.026c-0.08-1.521,0.702-1.554,0.637-3.066c-0.065-1.512-0.514-1.499-0.544-3.015
		c-0.022-1.522,0.15-1.526,0.157-3.042c0.007-1.513-0.13-1.515-0.123-3.03c0.022-1.518,0.679-1.5,0.721-3.007
		c0.05-1.507-0.417-1.53-0.317-3.034c0.093-1.503-0.351-1.533-0.258-3.04c0.127-1.506,0.681-1.456,0.82-2.951
		c0.148-1.496,0.406-1.47,0.619-2.944c0.202-1.476-0.193-1.533,0.009-3.015c0.195-1.168,0.289-2.292,0.368-3.332
		c0.077-1.295,0.552-2.384,0.358-3.358c-0.297-1.526-1.475-2.746-3.192-3.231c-1.716-0.482-3,0.164-4.005,1.534
		c-0.633,0.865-1.655,1.913-2.013,3.277c-0.31,1.109,0.06,2.466-0.152,3.743c-0.221,1.597-0.579,1.546-0.8,3.149
		c-0.228,1.605,0.147,1.645-0.011,3.242c-0.151,1.597-0.359,1.58-0.498,3.18c-0.098,1.596-0.546,1.566-0.645,3.169
		c-0.104,1.602,0.616,1.632,0.564,3.221c-0.044,1.591-0.281,1.586-0.307,3.179c-0.008,1.59,0.199,1.592,0.193,3.18
		c-0.011,1.583,0.086,1.58,0.106,3.16c0.034,1.578,0.046,1.58,0.113,3.156c0.066,1.577-0.194,1.588-0.116,3.167
		c0.092,1.578,0.327,1.565,0.418,3.142c0.058,0.789,0.041,1.187,0.023,1.585c-0.005,0.2-0.011,0.398-0.018,0.646
		c0.003,0.124,0.007,0.26,0.009,0.415l0.013,0.247l0.009,0.135l-0.001-0.007c0.018,0.188,0.224,0.242,0.249,0.512
		c0.027,0.255,0.115,0.329,0.15,0.618c0.014,0.117-0.109,0.032-0.264-0.131c-0.215-0.215-0.549-0.654-0.573-0.66
		c-0.041-0.009,0.264,0.646,0.046,0.561c-0.217-0.104-0.105,0.102-0.479-0.092c-0.215-0.115-0.341-0.117-0.48-0.127
		c-0.096-0.022-0.082,0.026-0.284-0.07c-0.207-0.097-0.449-0.224-0.762-0.41c-1.259-0.745-0.83-1.431-2.051-2.229
		c-1.226-0.785-1.58-0.264-2.798-1.114c-1.22-0.84-1.286-0.753-2.485-1.642c-1.202-0.885-0.899-1.283-2.071-2.204
		c-1.175-0.92-1.129-0.978-2.282-1.936c-1.155-0.955-1.464-0.592-2.601-1.588c-1.136-0.993-1.194-0.927-2.31-1.951
		c-1.112-1.024-1.048-1.09-2.139-2.138c-1.094-1.051-0.521-1.644-1.592-2.702c-1.074-1.061-1.074-1.061-2.147-2.122
		c-1.047-1.085-1.591-0.56-2.646-1.65c-1.035-1.11-1.099-1.051-2.133-2.162c-1.012-1.129-1.012-1.129-2.025-2.26
		c-1.013-1.131-0.784-1.329-1.774-2.476c-0.985-1.145-0.978-1.149-1.936-2.316c-0.958-1.164-1.295-0.895-2.223-2.087
		c-0.933-1.195-0.655-1.41-1.552-2.621c-0.895-1.211-0.625-1.414-1.483-2.637c-0.857-1.228-1.012-1.126-1.836-2.372
		c-0.822-1.248-0.613-1.395-1.394-2.654c-0.774-1.256-1.299-0.944-2.037-2.226c-0.739-1.284-0.298-1.545-0.977-2.83
		c-0.692-1.284-1.147-1.042-1.906-2.287C353.6,319.752,353.645,319.735,353.073,318.417z"></path>
</g>
</svg>
