<!--?xml version="1.0" encoding="utf-8"?-->
<!-- Generator: Adobe Illustrator 22.1.0, SVG Export Plug-In . SVG Version: 6.00 Build 0)  -->
<svg version="1.1" id="_x34_" xmlns="http://www.w3.org/2000/svg" xmlns:xlink="http://www.w3.org/1999/xlink" x="0px" y="0px" viewBox="0 0 549.3 800" style="enable-background:new 0 0 549.3 800;" xml:space="preserve">
<style type="text/css">
	.st0{fill:#FFFFFF;}
</style>
<g>
	<polygon class="st0" stroke="black" stroke-width="5" points="276.1,723.2 271.9,721.7 267.8,719.6 263.8,718.3 259.7,717.3 255.1,720.8 251.6,716.4 247.2,717.6 242.7,718.6 
		239.5,714.3 234.6,716.1 230.8,714.2 227.4,711.6 223.8,709.4 220.9,706.2 217.3,704.2 212.2,704.4 208,702.8 206.2,698.4 
		204.8,694 201.1,691.8 198.5,688.5 198,689.3 193.8,689 189.6,689.6 185.7,687 181.9,684.9 177.1,688 173,687.1 169.3,684.6 
		166.3,680.7 162.4,679.6 158.3,678.9 153.5,679.4 151.3,674.6 146.6,674.5 142.1,673.9 140.1,669.3 138,665.1 131.8,666.6 
		129.2,663.2 127.9,658.1 124.7,655.6 120,654.7 118.1,650.7 113.1,650 111.1,646 107.5,643.8 105.4,640 101.8,637.7 101.2,632.8 
		97.9,630.1 95.4,626.8 92.8,623.6 90.4,620.3 88.4,616.6 87.5,612.1 82,610.7 81.1,606.3 79.4,602.4 76.4,599.3 74.8,595.4 
		71.2,592.5 69.7,588.6 69.1,584.1 64.8,581.6 67.4,575.6 62.7,573.2 63,568.4 58,566.1 56.4,562.2 54.2,558.5 56.4,553.1 
		52.3,550.2 49.8,546.6 50.5,541.8 47.7,538.4 46.5,534.3 45.9,530.1 44.2,526.2 43.9,521.9 42.7,517.9 40,514.3 39.6,510 
		40.7,505.3 35,502.6 36.4,497.8 34.9,493.9 32.6,490.1 31.4,486 31.2,481.8 29.8,477.7 31.9,473 28.6,469.4 27.9,465.2 28.5,460.8 
		27.2,456.8 28.8,452.2 28,448.1 22.8,444.7 22.9,440.4 25.9,435.7 22.7,431.9 21.7,427.8 24.1,423.2 20.4,419.5 18.3,415.5 
		19.3,411.1 22,406.6 17.4,402.8 21,398.2 19.1,394.2 17.1,390.1 18.4,385.8 17.8,381.6 16.9,377.5 14.3,373.4 14.2,369.2 
		17.6,364.7 14.1,360.7 14.9,356.4 15.4,352.2 15,348 15.9,343.7 17.1,339.5 13.7,335.4 17.5,331.1 16.5,326.9 15,322.7 14.5,318.5 
		14.9,314.3 16.3,310.1 17.4,305.9 17,301.7 15.7,297.4 16.2,293.3 14.3,288.9 17.4,284.9 18.1,280.7 16.8,276.4 15.6,272.1 
		18.5,268.1 16.3,263.6 20.1,259.8 17.9,255.3 22.3,251.7 22,247.4 20.5,242.9 23.9,239.2 22.2,234.6 21.6,230.2 24.8,226.5 
		27.7,222.8 26.3,218.3 29.5,214.7 28.4,210.1 31.3,206.5 30.8,202 29.2,197.3 31.6,193.5 34.5,190 32.4,185 34.1,181.1 37.6,177.8 
		36.7,173 39,169.4 40.5,165.4 43.8,162.2 47,159 45,153.6 46.9,149.9 49.9,146.6 53.5,143.7 52.6,138.7 56.1,135.8 59.2,132.7 
		56.8,126.7 60.7,124 61,119.3 63.2,115.7 66.1,112.6 70.5,110.5 74,107.8 73.4,102.3 74.9,98.2 78.2,95.5 81.1,92.4 83.1,88.5 
		86.5,85.9 92,85.3 93.3,80.8 97.1,78.7 100.5,76.3 101.7,71.5 103.3,67 108.3,66.4 110.9,63 114.4,60.6 118.7,59.5 122.2,57.2 
		125.9,55.2 129.4,53.1 131,47.9 134.3,45.1 139.9,46.6 143.1,43.7 146.8,41.8 151.2,41.5 154,37.5 158.8,38.3 161,32.5 165,31 
		170.4,34.1 174.2,32.4 177.6,29.1 181.8,28.7 186.2,29.3 190.2,28.5 194.1,26.6 198,24.9 202.5,26.8 206.4,24.6 210.5,24.5 
		214.4,21.7 218.5,21.1 222.7,21.6 226.8,20 231,22 235.1,23.2 239.3,23.5 243.5,20.2 247.6,22.3 251.9,20.3 255.9,23 260,24.2 
		264.5,21.7 268.4,24.3 272.9,22.2 276.5,26.4 280.9,25.1 285.5,23.8 289.1,27.1 293.3,27.4 296.7,31.1 301,30.9 305.1,31.9 
		309.7,31.5 313.1,34.5 317.7,34.2 321.1,36.9 324.4,39.9 329.3,39.4 331.2,44.9 334.8,46.9 339.7,46.6 343.1,49.1 345.7,52.9 
		351.2,52 353.7,55.8 356.7,58.8 361,60 364.5,62.4 366.6,66.4 370.4,68.3 372.5,72.3 378.2,72.3 379,77.5 381.6,80.8 386,82.5 
		387.2,87 392.4,88.2 394.5,91.9 394.6,97.2 398,99.9 400.8,103.1 404.4,105.8 404.8,110.5 407.5,113.8 409.7,117.4 409.9,122 
		411.8,125.8 413.1,129.7 415.9,133.1 416.9,137.2 417.8,141.3 422.4,144.1 423.1,148 424.3,147 428.4,149.6 432.6,149.7 
		436.9,149.4 441.2,149.4 444.3,153.9 449,152.9 452.6,155.1 456.7,156.4 459.5,159.9 462.1,163.3 468.2,162.2 471.7,164.7 
		473.9,168.7 477.9,170.7 478.6,175.8 481.4,178.8 485.9,180.7 488.1,184.4 490.2,188.1 493.6,191 494.8,195.2 496.5,199.1 
		499.4,202.4 501.7,206 502,210.5 503.8,214.3 504.5,218.6 506.9,222.2 507.3,226.5 507.5,230.9 510.6,234.3 511.6,238.3 
		512.1,242.6 511.7,247 516.9,249.9 513.9,255 518.6,258.1 515.9,263.1 521,266.2 520.4,270.6 519.9,275 523.5,278.5 524.1,282.7 
		522.9,287.1 524.2,291.2 526.6,295 525.2,299.5 524.2,303.8 524.7,308 524.8,312.2 527.4,316.1 527.8,320.2 528,324.4 528.1,328.6 
		529,332.7 531.3,336.7 531.5,340.9 529.3,345.3 529.7,349.5 529.5,353.7 532.9,357.6 530.3,362 532.3,366.1 533,370.2 534.5,374.3 
		531.1,378.7 530.5,382.9 533.3,386.9 532.2,391.2 534.1,395.3 530.6,399.5 531.6,403.7 534.1,407.8 534.5,412 534.1,416.2 
		535,420.4 531.6,424.5 533.8,428.7 535.6,432.9 532.8,437 531.3,441.1 532.8,445.3 535,449.5 534.8,453.7 532.1,457.7 534.6,462 
		530.5,465.9 533,470.2 531.1,474.2 529.6,478.3 532.5,482.6 530.3,486.6 531.7,490.9 530.3,494.9 528.6,498.9 529,503.1 526.8,507 
		528.8,511.4 528.3,515.6 525.5,519.3 525.2,523.6 527.1,528.3 524.4,532.2 526.5,537 525.4,541.2 519.8,544.3 520.1,548.8 
		519.5,553.1 516.7,556.5 515.2,560.5 514.4,564.8 513.5,569 512.2,573.1 511.6,577.3 512.8,582.2 510,585.9 510,590.5 507.8,594.3 
		504.2,597.4 500.6,600.3 498.8,604.2 496.7,607.9 494.1,611.2 494.6,616.8 489.8,618.6 486.3,621.2 487.1,627.5 482.8,629.5 
		478,630.6 477.3,635.7 472.1,636.1 471.6,641.8 467.3,643 465.2,647.2 460,647 456.2,648.5 454.4,653.5 449.1,652.3 447.6,658.5 
		443.4,659.4 439.1,659.9 434.6,659.2 431,661.8 426.6,660.2 422.7,660.9 418.8,662 414.8,663.7 414.7,665.8 410.5,663.1 
		406.2,663.7 401.4,660.7 400.4,666.5 396.8,669.1 395.3,673.4 390.6,674.8 388.8,679 384.8,680.9 382.4,684.6 380.4,689 
		376.6,691.1 371.2,690.7 367.7,693.1 365.3,697.1 362.2,700.3 358.2,701.8 353.4,701.8 351,706.6 346.7,707.5 341.4,705.9 
		337.9,708.3 334.3,710.8 330.9,714.3 326.2,713.4 322.6,716.2 318.2,716.4 313.5,714.7 309.3,715.2 305.4,717.1 301.2,717.8 
		297.2,719.4 292.8,718.4 288.8,720.8 284.5,719.4 280.3,719.6 274,719.6 	"></polygon>
	<polygon class="st0" stroke="black" stroke-width="5" points="431.9,734.3 427.6,736 423.2,736.6 419.8,732.2 414.6,734.3 411.8,730.2 407.3,729.3 405.5,724.8 401.7,722.5 
		398.5,719.4 399.5,714.2 395.7,711.2 394.1,707 395,702.6 397.9,698.6 399.3,694.8 398.2,690.2 402,687.4 401,681.8 405.1,679.6 
		408.1,676.7 411.5,674.2 414.6,671.2 417.7,667.7 421.9,666.3 426.1,664.7 430.7,665.7 435,667.5 439,667.4 443.5,664.7 
		446.8,668.7 451.7,666.9 454.4,670.9 458.7,671.7 459.9,676.8 464.7,677.5 466,681.6 470,683.8 472.4,687.3 472,691.8 471,696 
		472.2,699.6 471.7,703.5 471.8,707.4 473,712 472.4,716.5 468.4,719.1 464.4,721 464.1,726.6 458.5,726.2 455,727.9 452.9,733.1 
		448.9,734.7 444,732.1 440.3,734.4 436.2,735.2 431.7,735.3 	"></polygon>
	<polygon class="st0" stroke="black" stroke-width="5" points="490,780 485.5,777.2 481.7,775.6 477.1,777.9 474.1,773.9 470.9,771.8 465,773.3 464.4,767.6 459.5,766.5 
		460.1,761.4 455.7,758.9 457.9,754.2 457.1,750.5 453.5,746.2 455.5,742.3 456.8,738.3 459,734.7 460.4,730.5 464.8,728.9 
		468.2,726.7 471.2,723.9 474.3,720.8 479.5,723.1 482.9,720.8 486.7,719.7 490.9,717 494.9,720.8 498.7,722.3 504.2,719.2 
		508.1,721.5 511.5,724.5 513.9,728.3 517.6,730.9 520,734.7 520.5,739.2 519.3,743.8 523.7,747.4 521.3,751.3 521.8,755.2 
		519.2,758.4 520,762.9 515.4,764.5 516.5,770.4 513.2,773.1 509.4,774.8 505.3,775.6 501.3,775.8 498,778.8 493.8,777.6 
		489.4,777.9 	"></polygon>
</g>
</svg>
