<!--?xml version="1.0" encoding="utf-8"?-->
<!-- Generator: Adobe Illustrator 22.1.0, SVG Export Plug-In . SVG Version: 6.00 Build 0)  -->
<svg version="1.1" id="_x34_" xmlns="http://www.w3.org/2000/svg" xmlns:xlink="http://www.w3.org/1999/xlink" x="0px" y="0px" viewBox="0 0 800 430.7" style="enable-background:new 0 0 800 430.7;" xml:space="preserve">
<style type="text/css">
	.stblack{fill:#000000;}
	.st0{fill:#FFFFFF;}
</style>
<g>
	<path id="fillArea" class="st0" d="M148.9,353c1.8,0.1,3.7,0.1,5.5,0.1c22.4,24,53.8,39.6,89.2,41.2c19.6,0.9,38.4-2.7,55.4-9.7
		c21.7,16.8,48.7,27.4,78.2,28.7c33.6,1.5,65-9.2,89.8-28.1c15,7,31.6,11.3,49.1,12c34.4,1.5,66.2-10.5,90.4-31.3
		c7.5,1.6,15.2,2.7,23.1,3c76.2,3.4,140.7-55.6,144-131.8c2.7-60.5-33.9-113.5-87.2-134.5C665.4,70,629.7,47.9,588.2,46
		c-24.3-1.1-47.2,5-66.8,16.3c-28.1-26-65.1-42.5-106.3-44.3c-38.3-1.7-74.1,9.6-103.3,30c-15.3-7.4-32.4-11.9-50.5-12.7
		c-49.1-2.2-93.1,23.3-116.9,62.6c-63.5,5-114.7,56.5-117.6,121.8C23.7,290.1,78.3,349.8,148.9,353z"></path>
	<path class="stblack" d="M612.8,364.5c27.9,2,56.1-1.6,81.1-14.9c22.3-12,41.4-29.6,54.3-51.5c30.4-51.6,22.1-116.9-18-160.8
		c-9-9.8-19.4-18.2-30.7-25.3c-2.8-1.7-11.1-4.8-12.1-7.9c-1.5-4.3,7.2-0.8,9-0.1c24.8,9.7,45.1,28,60.1,49.7
		c32.6,47.2,30.7,112.5-2,159.1c-18.4,26.2-45.3,46-76.1,54.8c-14.3,4.1-29.3,5.8-44.2,4.9c-7.2-0.4-14.7-1.3-21.6-3.3
		c-1-0.3-6.5-1.7-6.1-3.5C606.8,363.6,611.6,364.4,612.8,364.5z"></path>
	<path class="stblack" d="M538.3,84.2c-14.1-14.3-28.7-27.4-46.1-37.5c-19.1-11-40.1-18.1-61.9-21.2C388.4,19.6,343.8,31.4,309,55
		c-7.8,5.3-14.4,12-22.1,17.4c-2.4,1.7-5.1,2.3-4.1-1.5c1.1-4.3,6.1-8.7,9.1-11.9c13.8-15,31.5-26.3,50.1-34.3
		c34.7-14.8,73.1-18.1,109.6-8.5c20.4,5.4,39.6,15.1,56.3,27.8c9.1,6.9,17.5,15,24.7,23.9c3.3,4.1,6.7,8.4,9.1,13.1
		C544.1,85.4,542.6,88.6,538.3,84.2z"></path>
	<path class="stblack" d="M447.9,371.1c26.3,13.5,53.4,21.3,83.3,18.6c29.6-2.7,57.7-14.8,80-34.4c5.2-4.5,9.5-9.9,14.6-14.5c1.1-1,3-2.9,4.5-1.4
		c1.9,2-1.7,7-2.7,8.7c-6.5,11-15.3,20.4-25.3,28.3c-23.1,18.1-52.6,27.4-81.9,27.1c-16.4-0.2-32.9-3.6-47.8-10.3
		c-7-3.1-13.7-7-19.8-11.6c-2.6-2-6.9-4.7-8.3-7.7C442.9,370.8,445,369.6,447.9,371.1z"></path>
	<path class="stblack" d="M157.1,353.7c16.8,12.3,33.9,22.9,53.9,29c22,6.7,45.2,7.8,67.9,4.1c4.3-0.7,8.5-1.7,12.8-2.4c3.7-0.6,7.8,0.9,3.5,4.5
		c-7.2,5.9-18.7,8.7-27.6,10.5c-22.4,4.6-46.1,2-67.3-6.4c-11.4-4.5-22.1-10.8-31.4-18.7c-4.1-3.5-7.9-7.3-11.2-11.6
		c-1.3-1.6-3.1-3.7-3.8-5.7C152.8,354.5,154,351.5,157.1,353.7z"></path>
	<path class="stblack" d="M170.2,100.6c-29.5-1.3-58.3,4.9-82.9,21.9C61.4,140.5,42.7,168.2,36,199c-13.6,63.1,25.7,126.5,86.8,145.4
		c14.4,4.5,29.6,6.3,44.7,5.6c2.3-0.1,15.7-2.1,15.5,0.8c-0.2,3.7-13.7,5-16.2,5.4c-30.2,4.4-61.5-3.5-86.9-20.1
		C26.7,301,5.2,231.1,30.7,172.5c11.6-26.7,32-49.5,57.5-63.5c13.9-7.6,29.2-12.5,45-14.5c12.4-1.6,28.2-2.3,40.2,2.4
		C180.5,99.6,174.8,101,170.2,100.6z"></path>
	<path class="stblack" d="M694.2,122.5c-14.7-23.4-32.2-43.5-57.1-56.2c-26.7-13.6-57.8-17.2-87-10.8c-5.6,1.2-11.2,2.8-16.6,4.6
		c-2,0.7-17,6.3-11.3-0.8c3.5-4.3,11-7.3,15.9-9.5c6.8-3.1,14-5.4,21.3-7c30.3-6.6,62.7-1.1,89.3,14.9c14,8.4,26.3,19.7,35.6,33.1
		c4.6,6.6,8.6,13.8,11.5,21.3c1,2.7,3.1,6.8,2.8,9.8C698.4,125.3,695.9,125.2,694.2,122.5z"></path>
	<path class="stblack" d="M306.9,48.2c-25.2-6.4-49.9-9-75.6-3.1c-26.1,5.9-50.1,19.1-69.6,37.4c-4.1,3.8-7.9,7.9-11.6,12c-1,1.1-3.2,4.5-5.1,3.9
		c-2.7-0.7-1.3-4-0.5-5.8c4.9-11.3,13.7-21.4,22.7-29.7c20-18.3,46-29.7,72.8-32.9c14.5-1.7,29.5-0.9,43.7,2.8
		c6.3,1.7,12.4,3.9,18.2,6.9c2.3,1.2,6.2,2.7,7.7,4.9C311.4,47.2,309.8,49,306.9,48.2z"></path>
	<path class="stblack" d="M283.6,367.7c21.2,16.4,42.5,30,69.1,35.8c28,6,57.8,3,84.6-6.9c5.9-2.2,11.7-4.7,17.4-7.3c2.2-1,6.1-4,8.7-3.7
		c3.5,0.5,1.6,3.3,0,5.1c-8.7,9.3-22.2,15.8-34,20.2c-28.1,10.7-59.5,12.2-88.3,3.3c-14.6-4.5-28.5-11.6-40.4-21.2
		c-5.6-4.5-10.8-9.5-15.4-15c-1.8-2.2-4.9-5.2-5.6-8C278.8,366.6,281.2,365.8,283.6,367.7z"></path>
</g>
</svg>
