<!--?xml version="1.0" encoding="utf-8"?-->
<!-- Generator: Adobe Illustrator 25.2.3, SVG Export Plug-In . SVG Version: 6.00 Build 0)  -->
<svg version="1.1" id="_x34_" xmlns="http://www.w3.org/2000/svg" xmlns:xlink="http://www.w3.org/1999/xlink" x="0px" y="0px" viewBox="0 0 800 489.877" style="enable-background:new 0 0 800 489.877;" xml:space="preserve">
<style type="text/css">
	.stblack{fill:#000000;}
	.st0{fill:#FFFFFF;}
</style>
<g>
	<path class="st0" d="M755.785,91.029c-34.984-70.361-138.97-75.56-355.756-75.56c-216.784,0-320.77,5.199-355.754,75.56
		C23.041,133.732,24.89,204.424,24.89,204.424s-1.849,70.693,19.384,113.397c34.985,70.361,138.971,75.56,355.755,75.56
		c38.035,0,72.584-0.161,103.91-0.806c-0.375,1.676-0.365,2.761-0.266,2.782c-0.25,0.063,0.041,7.039,6.074,13.324
		c3.848,4.189,9.382,7.167,15.661,9.184c6.342,2.011,13.681,2.986,22.657,2.992c8.975-0.009,16.312-0.977,22.657-2.992
		c6.284-2.024,11.805-4.989,15.66-9.184c6.031-6.286,6.323-13.261,6.074-13.324c0.158-0.035,0.086-2.941-1.583-6.68
		c91.313-7.291,142.402-25.583,164.912-70.857c21.232-42.703,19.385-113.397,19.385-113.397S777.017,133.732,755.785,91.029z"></path>
	<path class="st0" d="M539.692,450.034c-2.288-2.488-5.562-4.248-9.289-5.447c-3.763-1.19-8.115-1.776-13.439-1.775
		c-5.327-0.001-9.674,0.586-13.44,1.775c-3.724,1.195-7.002,2.962-9.289,5.447c-3.582,3.73-3.752,7.87-3.603,7.904
		c-0.149,0.037,0.025,4.175,3.603,7.903c2.282,2.484,5.565,4.25,9.289,5.447c3.763,1.192,8.115,1.772,13.44,1.775
		c5.324-0.006,9.676-0.579,13.439-1.775c3.729-1.2,7.002-2.96,9.289-5.447c3.578-3.73,3.751-7.866,3.603-7.903
		C543.44,457.906,543.271,453.764,539.692,450.034z"></path>
	<path class="stblack" d="M756.616,326.33c16.337-27.27,20.576-61.412,22.527-92.585c0.847-13.538,1.024-27.168,0.714-40.733
		c-0.781-34.195-4.414-70.912-19.616-102.009c-14.553-29.002-41.883-46.426-71.9-56.523
		c-45.259-15.223-94.733-17.793-142.052-19.808c-72.979-3.11-146.227-2.617-219.251-1.842
		c-57.586,0.611-116.11,1.108-173.049,10.714c-33.886,5.716-70.641,15.322-95.856,40.186c-13.305,13.12-21.645,29.835-26.941,47.615
		c-7.534,25.298-10.222,52.097-10.946,78.407c-1.028,37.37,0.772,76.393,12.95,111.965c5.689,16.616,14.324,31.812,27.227,43.866
		c11.634,10.868,25.626,18.844,40.347,24.743c42.171,16.899,89.333,20.398,134.229,22.929c71.944,4.056,144.235,3.381,216.262,2.943
		c15.948-0.097,31.894-0.27,47.839-0.559c0.732,7.274,5.987,14.25,12.41,18.612c11.371,7.722,25.817,9.664,39.258,9.542
		c12.768-0.118,26.778-2.119,37.046-10.355c7.668-6.151,10.563-13.9,8.382-22.118c34.568-2.883,69.921-7.165,102.472-19.638
		C722.185,362.671,743.485,348.244,756.616,326.33z M702.23,361.967c-34.886,16.359-75.096,20.692-113.04,23.764
		c-1.834,0.148-3.624,0.825-2.776,2.973c7.79,19.702-20.733,28.432-35.04,29.091c-10.41,0.48-21.804,0-31.21-4.986
		c-6.982-3.7-12.835-11.347-11.528-18.769c0.522-2.961-4.186-4.454-6.379-4.41c-73.206,1.482-146.597,1.585-219.798-0.273
		c-50.211-1.273-102.097-2.578-151.079-14.849c-29.786-7.462-59.822-20.36-77.138-47.039c-13.595-20.945-18.677-46.759-21.73-71.167
		c-2.125-16.985-2.883-34.023-2.88-51.125c0.003-16.393,0.693-32.715,2.66-49.007c2.968-24.56,7.912-50.919,21.413-72.107
		c17.169-26.944,46.761-40.831,76.725-48.69c48.19-12.639,99.253-14.298,148.783-15.704c71.994-2.042,144.18-1.867,216.188-0.643
		c53.366,0.907,107.818,1.847,160.327,12.415c31.082,6.255,63.868,17.053,84.636,42.432c4.314,5.271,7.912,11.101,10.963,17.181
		c13.686,27.999,17.357,60.869,18.746,91.654c0.566,12.549,0.605,25.245,0.167,37.803c-1.06,30.4-4.514,62.565-16.76,90.698
		C743.37,334.439,724.972,351.302,702.23,361.967z"></path>
	<path class="stblack" d="M488.534,460.25c0.894,3.258,2.669,6.281,4.988,8.721c9.731,10.234,30.193,10.779,42.277,4.859
		c5.677-2.781,9.123-7.287,10.189-13.427c0.013-0.151,0-0.299,0.003-0.45c0.01-0.121,0.013-0.408,0.007-0.899
		c-0.083-0.8-0.163-1.604-0.334-2.392c-0.77-3.552-2.61-6.664-4.929-9.413c-0.259-0.308-0.501-0.55-0.731-0.747
		c-10.062-9.816-30.582-10.544-42.591-4.11c-5.603,3.003-8.973,7.777-9.486,14.039c-0.016,0.194-0.032,0.337-0.047,0.458
		c0.025,0.134,0.05,0.28,0.08,0.464C488.118,458.335,488.271,459.289,488.534,460.25z M493.509,458.446
		c0.696-0.921,0.959-2.329,1.661-3.315c2.937-4.122,8.116-6.236,12.904-7.264c9.666-2.075,23.246-1.81,30.893,5.339
		c1.296,1.568,1.62,2.21,1.715,3.487c-0.045,0.051-0.095,0.118-0.156,0.223c-0.693,1.191-0.919,2.644-1.772,3.832
		c-2.822,3.936-7.585,5.977-12.151,7.084c-9.034,2.19-25.462,2.644-31.883-5.567c-1.442-1.844-1.443-1.84-1.492-3.241
		c0.018,0.137,0.038,0.286,0.06,0.456C493.361,459.135,493.436,458.791,493.509,458.446z"></path>
	<path class="stblack" d="M487.88,456.891C487.482,454.722,487.68,458.375,487.88,456.891L487.88,456.891z"></path>
</g>
</svg>
