<!--?xml version="1.0" encoding="utf-8"?-->
<!-- Generator: Adobe Illustrator 25.2.3, SVG Export Plug-In . SVG Version: 6.00 Build 0)  -->
<svg version="1.1" id="_x34_" xmlns="http://www.w3.org/2000/svg" xmlns:xlink="http://www.w3.org/1999/xlink" x="0px" y="0px" viewBox="0 0 660.5 800" style="enable-background:new 0 0 660.5 800;" xml:space="preserve">
<style type="text/css">
	.stblack{fill:#000000;}
	.st0{fill:#FFFFFF;}
</style>
<g>
	<path id="fillArea" class="st0" d="M479.8,460.4c2.3-19,3.6-35.6,4.1-48.4c4.6-108.3-9.2-380.2-228.1-380.2c-168.2,0-228.1,159-228.1,364.1
		c0,205.1,69.1,373.3,242,373.3c76.6,0,126.7-52.9,159-119.5"></path>
	<path class="stblack" d="M406.1,676.7c-7.1,11.4-17.4,23.9-30.4,36.4c-10.2,9.9-21.7,20.6-36.6,28.5c-12.7,6.9-27.3,12-43.2,14.5
		c-6.6,0.8-13.3,1.7-20.3,1.6c-1.9,0.2-3.7,0.4-5.6,0.6c-1.9,0.1-3.8,0-5.7,0c-4.3-0.1-9.5-0.1-14.8-0.9c-2.7-0.3-5.4-0.7-8-1
		c-2.7-0.3-5.2-1-7.7-1.5c-2.4-0.5-4.8-1-6.8-1.5c-2.1-0.4-3.9-1.1-5.4-1.5c-3.1-0.9-4.9-1.5-4.9-1.5c-4-0.8-7.8-2.2-11.7-3.4
		c-1.9-0.7-4-1.2-5.9-2c-1.9-0.8-3.8-1.5-5.8-2.3c-9.5-3.6-19-7.7-28.4-12.5c-0.9-0.6-1.9-1.2-2.8-1.8c-1.8-1.1-3.5-2.1-5.2-3.1
		c-1.5-1-3.1-1.9-4.6-3c-12.2-9-22-21.2-32-33.2c-9.7-11.5-20.3-23.2-28.2-37.2c-7.7-13.5-13.2-28.3-19-43.2
		c-5.7-14.5-10.8-29.6-14.8-45.2c-4.1-15.2-6-31.2-8.7-47c-2.8-16.4-6.4-32.8-8-49.2c-1.5-16.8-2.5-33.4-3-49.9
		c-0.4-16.9-0.2-33.6,0.4-50.1c0.4-17,1.8-33.6,3.2-49.9c1.3-17,4.7-33.3,7.1-49.3c2.6-16.8,6.4-32.9,10.3-48.4
		c1.3-4.7,2.5-9.3,4-13.8l0.1,0c1.3-4,2.6-8,3.9-12c1.4-4,2.9-8,4.4-12c5.5-14.2,10.1-29.5,18.2-43.4c7.7-13.3,18.3-24.9,28.7-36.4
		c10-11,20.2-22.8,33.4-31.2c12.7-8.2,27.1-13.8,41.8-18.3c14.4-4.4,29.6-7.8,45.3-8.7c3.8-0.3,7.7-0.2,11.6-0.3
		c1.9,0,3.9-0.1,5.8,0.1l5.8,0.5c3.9,0.3,7.7,0.6,11.6,0.9c3.8,0.5,7.7,1,11.5,1.6l6,0.6c2,0.2,3.9,0.7,5.9,1
		c4,0.6,7.9,1.3,11.8,1.9c7.6,2,15.5,3.5,22.7,6.8c7.6,2.8,14.5,6.7,21.6,10.4c3.3,2.1,6.7,4.3,10,6.4c0.8,0.5,1.7,1,2.5,1.6
		l2.3,1.8l4.7,3.6c1.6,1.3,3.2,2.4,4.7,3.7l4.4,4.1c2.9,2.8,6,5.3,8.6,8.4c2.7,3,5.4,5.9,8,8.9c2.5,3.1,4.9,6.2,7.4,9.3
		c9.8,13.1,17.7,27.3,24.8,41.6c7.2,15,12,30.7,17,45.9c5.2,16,8.8,32.1,12.2,47.8c2.1,9.9,3.6,19.7,4.9,29.5c0,0,0.9,6.3,2,13.8
		c0.9,7.5,2,16.3,2.5,21c2.4,21,2.8,35.2,3.8,52.9c1.1,22.4,2.5,41.6,1.3,58c-1.6,21.5,2.6,34.5,5.1,34.8
		c2.3,0.3,9.7-10.1,11.6-35.5c1.1-17,1.7-30.8,2.4-53.9c0.5-18.3,0-42.3-1.6-64.1c-1.3-17.2-4.8-35.3-8.1-54.2
		c-0.7-3.9-1.4-7.9-2.3-11.9c-0.6-2.7-2-8.2-3.7-14.7c-1.4-5-2.8-10-4.2-15c-1.5-5-3.1-10.1-4.6-15.2c-5.1-16.1-11.1-32.5-18.8-48.6
		c-7.5-15.4-15.7-31.1-26.5-45.6c-2.7-3.4-5.5-6.8-8.3-10.2c-3-3.2-6.2-6.4-9.3-9.5c-3-3.3-6.6-6-9.9-9l-5-4.5l-5.4-4.1l-5.2-4.1
		l-2.6-2.1c-0.9-0.7-1.8-1.3-2.7-1.9c-3.7-2.5-7.3-5-11-7.6c-7.8-4.4-15.5-9.2-24.1-12.3c-8.1-3.7-16.6-6.3-25.1-9.4
		c-4.3-1.2-8.7-2.3-13.1-3.4c-2.2-0.5-4.4-1.1-6.6-1.5l-6.7-0.9c-4.4-0.5-8.7-1-13.1-1.1c-4.4,0.1-8.7,0.2-13,0.4l-6.5,0.2
		c-2.1,0.1-4.3,0.4-6.4,0.6c-4.3,0.4-8.5,0.5-12.7,1c-17.3,1.1-34.6,3.5-51.1,8.6c-16.8,5.3-33.4,11.8-47.9,21.4
		c-15,9.9-27.4,22.5-38.7,35.3c-11.7,13.3-21.5,27.6-29.5,42.3c-8.5,15.4-15.3,31-21,46.5c-1.4,3.9-2.7,7.7-4.1,11.5
		c-1.2,3.8-2.5,7.6-3.7,11.4c-3.2,9.8-1.2,4.3-4.1,14.6c-4.4,16.3-7,33.4-9.8,50.7c-2.7,16.6-5.2,33.6-6.7,51
		c-1.5,16.7-3.5,33.8-4,51.2c-0.6,16.8,0.7,33.9,1.1,51.2c0.4,16.9,0.2,34,1.7,51.3c1.6,16.9,1.8,34.2,4.8,51.4
		c2.8,16.8,8.7,32.7,13,48.8c4.3,16.4,8.4,32.9,14.5,48.5c6.3,16,12.2,32,20.7,46.7c8.7,15.1,19.5,28.7,30.6,41.5
		c11.5,13.3,24.4,25.1,38.2,35c14.5,10.3,30.1,18.5,46,24.3c1.8,0.7,3.6,1.5,5.4,2.1c5,1.7,10,3.5,15,5c17.3,5.2,36.5,6.5,56.2,7.2
		c2.1,0.1,4.1,0.2,6.2,0.2c2.1-0.1,4.3-0.2,6.4-0.3c1.2-0.1,2.9-0.2,5-0.3c1.1-0.1,2.2-0.1,3.4-0.3c1.2-0.2,2.5-0.4,3.9-0.6
		c2.7-0.5,5.7-1,8.8-1.5c3.1-0.6,6.3-1.6,9.4-2.4c1.6-0.4,3.2-0.8,4.7-1.3c1.6-0.5,3-1.1,4.5-1.6c2.9-1.1,5.8-2.1,8.3-3
		c5-2.2,8.9-4.2,11-5.1c1.5-0.6,2.7-1.4,3.9-2.1c1.2-0.7,2.3-1.4,3.5-2.1c1.2-0.7,2.3-1.4,3.6-2.1c1.3-0.7,2.6-1.5,4-2.5
		c4.6-3.1,9.3-5.5,13.9-9c2.3-1.7,4.8-3.4,7.3-5.5c2.4-2.1,5-4.5,7.7-7.1c1.8-1.6,3.4-3.6,5.3-5.6c1.8-2,3.8-4,5.7-6.3
		c3.6-4.5,7.7-9.1,11.1-13.9c1.7-2.4,3.5-4.7,5.1-7c1.6-2.3,3-4.6,4.5-6.7c2.9-4.2,5.2-8.1,7-11c1.2-1.9,2.3-3.9,3.3-5.8
		c0.9-2,1.8-3.9,2.5-5.8c1.5-3.8,2.7-7.4,3.4-10.6c1.4-6.4,1.5-10.8,0.6-11.3C426.1,648.5,417.2,658.6,406.1,676.7z"></path>
	<path class="st0" d="M428.6,598.6c11.5,48.4,76,27.7,83-46.1c6.9-73.7-34.6-80.7-59.9-57.6"></path>
	<path class="stblack" d="M458.5,495.6c1.5-1.1,3.8-1.5,6.2-2.1c1.9-0.4,3.6-1.7,5.8-2c1.9-0.3,3.9-0.3,5.8-0.2c0.8,0.1,1.6,0.1,2.4,0.3
		c0.4-0.2,0.9-0.3,1.3-0.3c1,0,2.3,0.4,3.3,1c1,0.5,1.6,1.2,1.6,1.2c0.8,0.2,1.5,0.7,2.3,1.1c0.4,0.3,1,0.4,1.6,0.5
		c0.6,0.1,1.2,0.2,1.8,0.4l0.3,0.2l0.7,0.3l0.5,0.3c1.3,1.2,1.3,3.6,2.3,5c0.5,0.7,1.3,1.3,2.1,1.9c0.8,0.6,1.6,1.3,2.1,2.2
		c0.4,0.9,0.6,1.9,0.8,2.9c0.2,1,0.3,2.1,0.7,3c0.6,1.9,1.5,3.9,1.9,6c0.5,2.1-0.1,4.4,0.2,6.5c0.2,2.3,1.8,4.4,1.9,6.7
		c0.2,2.3,0.3,4.7,0.3,7c0.1,2.4-0.3,4.7-0.3,7.1c-0.1,2.4-0.6,4.8-0.7,7.1c-0.2,2.4-1.3,4.6-1.5,6.8c-0.4,2.3-0.9,4.6-1.3,6.8
		c-0.1,0.7-0.3,1.3-0.5,1.9l-0.1,0c-0.3,1.1-0.5,2.3-1,3.4c-0.7,2,0.2,4.6-0.6,6.7c-0.4,1-1.1,1.9-1.9,2.8c-0.8,0.9-1.6,1.7-2.1,2.7
		c-0.8,2-0.4,4.5-1.4,6.5c-1.1,1.8-2.7,3.4-4,5.1c-1.1,1.8-2.1,3.7-3.5,5.4c-0.6,0.9-1.5,1.4-2.4,2.1c-0.8,0.7-1.7,1.3-2.5,2
		c-1.5,1.5-2.2,3.9-3.9,5.2c-0.9,0.6-1.7,1.3-2.5,1.9c-0.9,0.6-1.8,1.1-2.6,1.7c-0.9,0.5-1.9,0.9-2.8,1.4c-0.9,0.4-1.9,0.7-2.8,1.1
		c-0.9,0.4-1.9,0.5-2.9,0.8c-1,0.1-1.9,0.2-2.8,0.4c-0.9,0.1-1.9,0-2.8-0.2c-0.9-0.3-1.7-0.3-2.5-0.5c-0.9-0.1-1.7-0.2-2.5-0.5
		c-0.4-0.1-0.8-0.2-1.2-0.3c-0.4-0.1-0.7-0.3-1.1-0.4c-1-0.2-1.7-0.9-2.5-1.4c0,0-0.5-0.4-1.1-0.8c-0.7-0.4-1.3-0.9-1.8-1.2
		c-1-0.5-1.6-1.3-2.2-1.9c-0.7-0.6-1.2-1.4-1.9-2.1c-1-0.9-1.9-1.9-2.8-2.7c-0.9-0.9-1.5-1.9-1.9-2.9c-0.8-2.6-5.5-3.2-7.3-2.8
		c-1.7,0.4-5.5,3.1-4.2,7.1c0.5,1.3,0.9,2.5,1.3,3.9c0.6,1.3,1,2.8,1.8,4.7c1.3,2.9,3.3,6.8,6.2,9.8c1,1.3,2.6,2.1,4,3
		c1.5,0.8,3.1,1.6,4.8,2.4c0.7,0.3,1.4,0.6,2.1,0.9c0.5,0.2,1.5,0.5,2.8,0.6c1,0.2,1.9,0.4,2.9,0.5c1,0.1,1.9,0.2,2.9,0.3
		c1.5,0.3,3.1,0.2,4.6,0.3c1.6,0,3.1-0.1,4.7-0.2c1.5-0.3,3-0.3,4.5-0.5c1.5-0.3,3-0.5,4.5-1c1.4-0.5,2.7-1.3,3.9-2.1
		c1.2-0.9,2.4-1.7,3.7-2.4c1.2-0.7,2.5-1.3,3.9-1.9c1.3-0.7,2.6-1.3,3.7-2.2c2.2-1.8,5.2-2.7,7.2-4.8c1-1,1.6-2.3,2.1-3.7
		c0.5-1.4,1.1-2.7,1.9-3.7c0.8-1.1,1.8-2,2.7-3c0.9-1,1.8-2,2.5-3.1c1.5-2.2,3.6-4.2,4.9-6.5c1.2-2.5,1.7-5.2,2.6-7.6
		c0.5-1.2,1-2.5,1.5-3.7c0.4-1.2,0.8-2.5,1.2-3.7c0.9-2.5,1.5-5.1,2.2-7.5c0.3-1.2,0.6-2.4,1-3.6c0.5-1.5,0.1-0.7,0.5-2.3
		c0.7-2.5,0.3-5.3,0.8-7.9c0.4-2.5,0.9-5.1,1.2-7.8c0.2-2.5,1.2-5.1,1.3-7.7c0.1-2.6-0.6-5.2-0.7-7.9c0-2.6,0.8-5.2,0.6-7.9
		c-0.1-2.6,0.8-5.4,0.5-8.2c-0.4-2.7-2.7-5-3.3-7.6c-0.5-2.6-0.6-5.4-1.4-8c-0.9-2.6-1.1-5.6-2.3-8.2c-1.3-2.7-3.6-4.8-5.3-7.1
		c-1.9-2.4-3.9-4.7-6.3-6.6c-2.4-2.1-5.1-3.7-7.9-5.1c-0.3-0.2-0.6-0.3-1-0.4c-0.9-0.5-1.7-1-2.6-1.4c-3-1.5-6.7-1.3-10.2-1.7
		c-0.7-0.1-1.5-0.1-2.2-0.1c-0.8,0-3.1,0.4-5.2,1.1c-2.2,0.6-4.1,1.5-4.8,1.8c-1,0.4-1.5,0.8-2.6,1.2c-0.9,0.3-1.7,0.5-2.6,0.7
		c-0.9,0.2-1.9,0.5-2.9,1.3c-2.6,1.8-6.5,4.8-8.2,6.2c-2.4,1.7-1.6,6.5-0.5,7.6C452.9,496.4,456.2,497.3,458.5,495.6z"></path>
	<path class="st0" d="M543.5,618c-23.6-7-15.1-64.1,11.3-66C589.2,549.6,578.4,628.4,543.5,618z"></path>
	<path class="stblack" d="M546.4,623.6c0.9,0.1,1.8,0.4,2.9,0.8c1.1,0.4,2.3,0.6,3.6,0.8c2.1,0.1,4.3-0.8,6.7-1.4c1.1-0.2,2.2-0.6,3.2-1
		c1.1-0.4,2.2-0.9,3.2-1.5c0.8-0.5,1.8-1,2.6-1.6c0.3-0.5,0.6-1,0.9-1.4c0.8-0.9,2.1-2,3.3-2.8c0.6-0.4,1.1-0.8,1.5-1.1
		c0.4-0.3,0.6-0.5,0.6-0.5c0.6-0.9,1.4-1.8,2-2.8c0.7-1.2,0.9-2.7,1-4.2l0.2-0.4c0.1-0.3,0.1-0.5,0.1-0.8l0.2-0.7c0.8-1.7,3-3,3.7-5
		c0.7-1.9-0.4-4.2,0.1-6.1c0.4-1.8,1.5-3.6,1.8-5.6c0.3-1.9,0.1-3.9,0.2-5.8c0.1-1.9,1-3.9,0.9-5.9c-0.1-2.1-1.6-4.1-1.9-6.1
		c-0.4-2.1-0.9-4.1-1.6-6.2c-0.3-1-0.6-2.1-1.1-3.1c-0.4-1-0.8-2.1-1.4-3.1c-1.1-2.1-2.2-4.3-3.9-6.1c-1.7-1.9-3.3-4.2-5.7-5.5
		c-2.4-1.4-5-2.5-7.6-2.9c-0.8-0.1-1.5-0.3-2.3-0.4l0-0.1c-1.4-0.3-2.6-0.2-4-0.3c-1.2-0.1-2.4,0.4-3.6,1c-1.2,0.5-2.3,1.2-3.5,1.5
		c-2.2,0.6-5.1,0.2-7.3,1.5c-2.1,1.3-3,4-4.6,5.4c-1.6,1.5-3.5,2.6-4.8,4.3c-1.3,1.7-2.1,3.6-3.1,5.4c-1,1.7-2.7,3.2-3.4,5.1
		c-0.8,2-0.3,4.3-0.9,6.2c-0.6,1.9-1,3.9-1.4,5.8c-0.4,2-0.9,3.9-1.1,5.9c-0.2,2-0.6,4-0.6,6c0,2.1-0.8,4.1-0.5,6.2
		c0.2,2.1,0.3,4.3,0.9,6.3c0.3,1.3,0.6,2.6,0.8,3.9c0,0,0.2,0.8,0.7,1.8c0.4,1,0.9,2.1,1.3,2.7c0.8,1.3,1.5,2.3,2.2,3.4
		c0.7,1,1.5,1.9,2.5,2.8c2.7,2.3,5.7,3,7.8,4.2c1.4,0.8,3,0.3,4.2-0.7c1.2-1,1.9-2.4,2.2-3.2c0.3-0.9,0.4-2.4,0.4-3.8
		c0-1.4-0.1-2.5-0.8-2.9c-0.9-0.5-1.5-1.3-2-2.8c-0.4-1.2-0.8-2.8-1.1-4.4c-0.1-0.7-0.4-1.2-0.8-1.8c-0.3-0.6-0.7-1.3-0.7-2.1
		c0-0.3-0.1-0.6-0.2-1c0-0.2-0.3-0.6-0.5-1.2c-0.3-0.8-0.6-1.7-0.6-2.6c-0.1-1.4,0.1-2.9,0.1-4.5c0.1-1.5,0.9-2.9,1.1-4.4
		c0.2-1.4-0.5-3.1-0.2-4.6c0.3-1.5,1.5-2.7,1.9-4.2c0.4-1.4,2.1-2.4,2.6-3.7c0.5-1.3-0.7-3.4,0-4.6c0.7-1.3,2-2,2.8-3
		c0.8-1.1,2.3-1.4,3.1-2.1c0.8-0.8,1.1-2.1,2-2.7c0.9-0.6,1.8-1.1,2.7-1.3c0.5-0.2,0.9-0.3,1.4-0.4l0.7-0.1l0.8,0
		c0.5,0,1.1-0.1,1.4,0.1c0.5,0.3,0.2,0,0.8,0.1c0.8,0.3,1.9-0.2,2.8,0.4c0.8,0.5,1.4,1.2,2.1,2c0.7,0.8,0.7,2.1,1.2,3.1
		c0.3,0.5,0.7,0.9,1.2,1.4c0.5,0.5,0.9,1,1.1,1.7c0.4,1.3-0.1,2.8,0.1,4.2c0.2,1.4-0.8,2.9-0.8,4.3c0.1,1.4,2.1,2.8,2,4.3
		c-0.1,1.5-0.9,2.9-1.1,4.3c-0.2,1.5-1.3,2.7-1.6,4.1c-0.3,1.4,0.1,3-0.3,4.4c-0.4,1.4-0.9,2.8-1.4,4c-0.5,1.4-1.2,2.6-1.8,3.7
		l-0.2,0.4c-0.3,0.3-0.6,0.6-0.9,0.8c-0.5,0.5-0.8,1.1-1.2,1.7c-0.3,0.6-0.7,1.3-1.3,1.7c-0.2,0.2-0.4,0.4-0.6,0.6
		c-0.2,0.3-0.7,1-1.2,1.8c-0.5,0.8-1.1,1.4-1.3,1.7c-0.3,0.3-0.5,0.6-0.9,0.8c-0.7,0.4-1.5-0.2-2.3,0.4c-0.5,0.5-1.4,0.7-2.2,1
		c-0.8,0.1-1.7,0.2-2.2,0.2c-1.2-0.2-3.7,3.3-4.2,4.8C543,619.8,543.6,623.1,546.4,623.6z"></path>
	<path class="st0" d="M615.2,634c-26.4-1.9-15.3-50.4,5.7-48.1C646.3,588.8,634,635.4,615.2,634z"></path>
	<path class="stblack" d="M618.6,638.7c0.7-0.1,1.6,0,2.5,0c1,0.1,2,0,3.1-0.2c1.7-0.3,2.9-1.7,4.6-2.5c1.4-0.7,2.9-1.6,4.3-2.8
		c0.6-0.5,1.1-0.9,1.7-1.5c0.1-0.4,0.2-0.8,0.4-1.2c0.4-0.8,1.3-1.6,2.2-2.3c0.8-0.7,1.5-1.2,1.5-1.2c0.5-0.7,0.8-1.4,1.2-2.2
		c0.5-0.9,0.3-2.1,0.2-3.3l0.1-0.3l0-0.6l0.1-0.5c0.5-1.3,2.5-2.3,2.9-3.8c0.4-1.5-0.8-3.3-0.6-4.8c0.3-1.4,1.1-2.9,1.2-4.5
		c0.1-1.5-0.3-3.1-0.3-4.7c-0.1-1.6,0.6-3.3,0.2-5c-0.4-1.8-2.1-3.2-2.8-4.8c-0.7-1.7-1.7-3.3-2.8-4.9c-1.1-1.6-2.4-3.2-4-4.5
		c-1.6-1.3-3.2-2.6-5-3.4c-0.9-0.4-1.8-0.9-2.7-1.4c-0.9-0.5-1.8-0.9-2.7-1c-1.8-0.3-4.1-0.7-6.2-0.4c-0.6,0.1-1.3,0.1-1.9,0.1
		l0-0.1c-1.1,0.1-2.2,0.4-3.3,0.7c-1,0.3-1.8,1-2.5,1.8c-0.7,0.8-1.3,1.6-2.2,2c-1.5,0.9-3.9,0.8-5.3,2.1c-1.3,1.2-1.3,3.6-2.2,4.8
		c-1,1.2-2.5,2.2-3.3,3.6c-0.8,1.4-1.2,2.9-1.8,4.3c-0.6,1.4-2,2.5-2.4,4c-0.5,1.6,0.3,3.4,0,4.9c-0.3,1.5-0.4,3.1-0.6,4.6
		c-0.1,1.6-0.4,3.1-0.4,4.7c0,1.6-0.2,3.3,0.1,4.9c0.2,1.7-0.2,3.5,0.3,5.2c0.6,1.7,1.1,3.6,2,5.2c0.6,1,1,2.1,1.7,3.1
		c0,0,0.5,0.6,1.1,1.3c0.6,0.7,1.5,1.4,1.9,1.8c2.2,1.5,3.6,2.6,5.7,3.3c1.3,0.4,2.7,0.3,3.8,0.4c1.1-0.1,2.1-0.2,3,0
		c2.3,0.4,3.8-3.9,3.9-5.7c0.1-1.8-0.3-6.1-1.4-6.3c-0.4-0.1-0.7-0.3-1.1-0.5c-0.3-0.3-0.6-0.6-0.9-1.1c-0.4-0.8-0.8-1.6-1-2.5
		c-0.1-0.3-0.4-0.4-0.7-0.6c-0.3-0.2-0.6-0.4-0.7-0.8l-0.2-0.4c-0.1-0.1-0.2-0.3-0.5-0.5c-0.3-0.3-0.6-0.8-0.8-1.3
		c-0.2-0.8-0.2-1.7-0.3-2.7c-0.1-0.9,0.6-1.9,0.6-2.9c0-0.9-0.8-2-0.7-3c0.2-1,1.1-1.9,1.3-2.9c0.2-1,1.6-1.6,2-2.5
		c0.3-0.9-1.2-2.5-0.8-3.4c0.4-0.9,1.5-1.5,1.9-2.2c0.5-0.8,1.7-1.1,2.2-1.7c0.5-0.7,0.4-1.8,0.9-2.4c0.5-0.6,1-1,1.5-1.4
		c0.5-0.4,1-0.6,1.5-0.9l0.7-0.1c0.3,0.2,0.1-0.1,0.4,0c0.4,0.1,0.9-0.7,1.8-0.5c0.4,0.1,0.7,0.2,1,0.4c0.3,0.2,0.7,0.3,0.9,0.5
		c0.6,0.3,0.7,1.2,1,1.5c0.3,0.3,1.4,0.1,1.8,0.6c0.4,0.5,0,1.5,0.2,2.2c0.3,0.7-0.7,1.8-0.5,2.5c0.2,0.7,2.2,1.3,2.3,2.2
		c0,1-0.6,1.9-0.7,2.8c-0.1,1-1,1.8-1.2,2.7c-0.1,0.9,0.5,2.1,0.3,3c-0.2,1-0.4,2-0.7,2.9c-0.3,1-0.6,1.9-1,2.8l-0.2,0.3l-0.7,0.7
		c-0.8,0.7-0.6,2-1.4,2.8l-0.4,0.5c-0.2,0.5-0.7,2.8-1,3.3c-0.1,0.3-0.1,0.6-0.4,0.9c-0.4,0.5-1.2,0-1.5,0.7c-0.4,0.9-1.5,1.8-2,1.8
		c-0.3,0.1-0.6,1.1-0.9,2.3c-0.3,1.2-0.7,2.6-0.8,3.4c-0.1,0.8,0.1,2,0.7,2.9C616.4,638.2,617.4,638.9,618.6,638.7z"></path>
</g>
</svg>
