<?xml version="1.0" encoding="utf-8"?>
<svg version="1.1" xmlns="http://www.w3.org/2000/svg" xmlns:xlink="http://www.w3.org/1999/xlink" viewBox="0 0 800 532.2">
<path fill="white" stroke="black" stroke-width="5" d="M81.6,132.2c-14.6,24.7-24.7,49.5-29.1,78.6c-7.3,48,7.3,96.1,39.3,131c32,32,77.2,36.4,120.8,42.2
    c68.4,10.2,135.4,11.6,203.4,7.2l11.9-1.8c7.1-1.1,13.8,3.2,16.2,10c2.1,5.9,6.1,11.1,11.1,15c8.3,6.4,18.8,9.1,29.2,10.1
    c15.7,1.5,33.1-1.3,43.9-12.9c4.8-5.1,7.8-11.8,8-18.9c5.4,0.2,11.3,0.9,16.7,1c35.6,0.8,70-3.1,104.4-12.2
    c36.7-9.7,71.7-29.5,93.4-61.3c19.4-28.5,29.5-64,29.1-98.3c-0.5-35.1-14.4-66.5-38.9-91.5c-24.7-25.2-57.2-40.7-89.9-52.7
    c0,0-2.7,0.2-17.6-6.1C601,57.8,565,56.5,530,52.1c-67-4.4-133.9-10.2-200.9-7.3c-26.2,1.5-52.4,2.9-78.6,5.8
    c-4.4,0-8.7,2.9-13.1,2.9c-34.9,1.5-67,13.1-99,29.1l-4.4,4.4C113.7,98.7,94.8,111.8,81.6,132.2z
    M507.7,456.5c-0.4-2.4-2-4.4-3.5-6.4c-3.3-4.2-7.6-8.8-12.9-8.2l3.8-0.7c-7,0.6-14.1,1.2-21.1,1.8
    c-4.8,0.4-9.8,0.9-13.5,3.9c-4.7,3.8-5.8,11.2-2.4,16.2c1.8,2.6,4.5,4.4,7.3,5.8c10.7,5.2,23.9,5,34.4-0.6
    C504.1,465.9,508.5,461.5,507.7,456.5z M459.7,494.5c-3.9,0.2-8,0.4-11.1,2.7c-3.9,2.9-5.1,8.9-2.5,13.1c1.3,2.2,3.5,3.7,5.7,5
    c8.5,4.6,19.2,4.9,28,0.8c3.7-1.8,7.5-5.2,7-9.3c-0.2-2-1.5-3.7-2.6-5.3c-2.6-3.5-5.9-7.4-10.2-7.1l3.1-0.4
    C471.2,494,465.4,494.2,459.7,494.5z"/>
</svg>