<?xml version="1.0" encoding="utf-8"?>
<svg version="1.1" xmlns="http://www.w3.org/2000/svg" xmlns:xlink="http://www.w3.org/1999/xlink" viewBox="0 0 800 593.8">
<path fill="white" stroke="black" stroke-width="5" d="M37.7,296.1c13-26.1,75.6-184.7,81.3-192.3c0,0,452.9-62.8,485.9-69.3c26.4,16.4,143.6,140.9,149.5,147.1
    c5.9,6.2-42.6,177.7-43.9,182.6c-6.8,3.7-104,37.6-144.8,51.8c-2.6,0.9-7.3-0.6-9.4,0.1c-6.8,2.4-9,3.3-9,3.3l23.1,107.6
    c0,0-95-83.5-101-87.3c-0.6-0.4-1-3.6-6.4-3.5c-2.2,0-7.7,3.2-10.6,3.3c-62.9,1.9-275,22.9-281.2,19.6
    c-6.8-3.6-120.9-141.6-134-157.5l0.3-2.2C37.6,299.3,37.1,297.3,37.7,296.1z"/>
</svg>