<!--?xml version="1.0" encoding="utf-8"?-->
<!-- Generator: Adobe Illustrator 25.2.3, SVG Export Plug-In . SVG Version: 6.00 Build 0)  -->
<svg version="1.1" id="_x34_" xmlns="http://www.w3.org/2000/svg" xmlns:xlink="http://www.w3.org/1999/xlink" x="0px" y="0px" viewBox="0 0 800 191.2" style="enable-background:new 0 0 800 191.2;" xml:space="preserve">
<style type="text/css">
	.stblack{fill:#000000;}
	.st0{fill:#FFFFFF;}
</style>
<g>
	<path class="stblack" d="M608.3,120.1c-14.1,26.2,6.2,66,6.2,66s-45.6,7-58.3-47L608.3,120.1z"></path>
	<path class="stblack" d="M766.1,168.3H40c-8.3,0-20-11.3-20-19.6V19.8c0-8.3,6.7-15,15-15h726.2c8.3,0,18.8,6.7,18.8,15v128.9
		C780,157,774.4,168.3,766.1,168.3z"></path>
	<path class="st0" d="M29.2,147.6V18.7c0-3,2.4-5.4,5.4-5.4h726.2c3,0,5.4,2.4,5.4,5.4v128.9c0,3-2.4,5.4-5.4,5.4H34.6
		C31.6,153,29.2,150.5,29.2,147.6z"></path>
	<path class="st0" d="M593.1,139.2c-4.4,12.7,6.9,37.5,9.4,39.5c-16.1-0.7-29.4-13.2-36.1-33.2L593.1,139.2z"></path>
</g>
</svg>
