<svg version="1.1" xmlns="http://www.w3.org/2000/svg" xmlns:xlink="http://www.w3.org/1999/xlink" viewBox="0 0 800 575.3">
<style type="text/css">
.outline-stroke{fill:#FFFFFF;stroke:#000000;stroke-width:5;stroke-linejoin:round;stroke-linecap:round}
</style>
<path class="outline-stroke" d="M778.3,313.1c-5-14.2-14.7-22.3-19-35.1c-3.3-16.5-11.2-44.4-3.7-62.3c-28.5-8.3-45.7-47.6-64-69.8c-9.2-17.5-11.7-46.1-16.6-65.4c-19,4.8-55,29-72.4,11c-8.5-6.4-23.3-16.5-25.7-27.3c-29.9,30.3-55.5-3.3-56.7-34c-26.2,30.8-52.1,53-67.3-1.5c-7,11.4-22.6,41.8-34.5,14.9c-5.1,21.4-28.6,9.3-41.9,2.7c-5.5-1.1-23.9-28.6-25.7-31.8c-12.6,44-61.7,65.3-99.3,36.7c-12,26.1-52.3,34.4-76.4,21.9c-1.2,2.9-8.7,19-12.7,21.2c-17.3,8.2-48.1,9.5-66.8,5.9c2.4,24.8-6,68.8-34.6,77c12.8,30.9-24.7,65.8-40.9,89.6c3.8,10,19.7,24.8,24.5,34.8c5.3,17.8,13,38.6,4.5,56.4c27.7,5.4,41,44.6,53.7,66.8c4.9,8.9,3.2,54.2,3.4,65c24.4-3.7,59.2-18.1,79.1,5.5c11.3,10.2,30.1,15.1,36.5,30.2c28.3-31.9,55.7-2,59.2,29.3c23.7-32.9,47.1-56.7,65.2-2.8c5.7-11.6,20.8-42.9,33.2-16.6c3.4-21.2,27.2-11.3,41.7-4.7c5.5,0.8,25.1,27.5,27.2,30.5c10.1-43.6,57.8-68.6,96.5-40.7c10.6-26.4,50.3-35.7,74.1-23.2c3.1-6.4,8.5-23.5,18.8-23.6c19-4.9,38.4-6,58.1-1.3c-2.2-25.6,6.8-67.2,35.5-72.6c-11.5-32,31.1-60.8,48.7-82.3C780,317.2,779.3,315.6,778.3,313.1z"/>
</svg>