<svg version="1.1" xmlns="http://www.w3.org/2000/svg" xmlns:xlink="http://www.w3.org/1999/xlink" viewBox="0 0 800 520.9">
<style type="text/css">
.outline-stroke{fill:#FFFFFF;stroke:#000000;stroke-width:5;stroke-linejoin:round;stroke-linecap:round}
</style>
<path class="outline-stroke" d="M780,91.8c-56.3,44.6-123.4-22.5-78.8-78.8c-44.6,56.3-557.8,56.3-602.4,0C143.4,69.3,76.3,136.4,20,91.8c56.3,44.6,56.3,292.7,0,337.3c56.3-44.6,123.4,22.5,78.8,78.8c19.7-24.9,131.2-38.8,253.1-41.7C392.5,468.1,400,497,400,497s7.5-28.9,48.1-30.8c122,2.9,233.4,16.8,253.1,41.7c-44.6-56.3,22.5-123.4,78.8-78.8C723.7,384.5,723.7,136.4,780,91.8z"/>
</svg>