<!--?xml version="1.0" encoding="utf-8"?-->
<!-- Generator: Adobe Illustrator 25.2.3, SVG Export Plug-In . SVG Version: 6.00 Build 0)  -->
<svg version="1.1" id="_x33_" xmlns="http://www.w3.org/2000/svg" xmlns:xlink="http://www.w3.org/1999/xlink" x="0px" y="0px" viewBox="0 0 800 569.203" style="enable-background:new 0 0 800 569.203;" xml:space="preserve">
<style type="text/css">
	.st0{fill:#000001;}
	.st1{fill:#FFFFFF;}
</style>
<g>
	<path class="st0" d="M61.185,109.694C189.675,145.315,284.512,98.342,278.394,9.63C442.065,109.694,588.91,0,588.91,0
		c-13.767,91.778,99.533,138.356,208.725,99.413c-48.023,88.218-80.236,204.984,2.365,284.524
		c-73.423-18.355-257.052,47.598-283.056,185.265c-91.778-108.604-295.338-52.747-342.757-16.037
		C201.721,412.441,70.363,350.287,0,342.638C163.671,258.508,61.185,109.694,61.185,109.694z"></path>
	<path class="st1" d="M87.997,131.109c117.512,32.578,206.219-22.737,200.623-103.87c153.404,107.952,288.235-7.574,288.235-7.574
		c-12.59,83.937,122.59,140.503,203.729,92.769c-42.067,56.504-83.341,179.327-5.968,259.512
		c-67.15-16.788-236.624,35.9-262.682,167.172c-83.937-99.325-267.62-49.323-323.715-9.002
		C213.4,401.413,98.527,346.064,34.175,339.07C183.862,262.127,87.997,131.109,87.997,131.109z"></path>
</g>
</svg>
