<!--?xml version="1.0" encoding="utf-8"?-->
<!-- Generator: Adobe Illustrator 25.2.3, SVG Export Plug-In . SVG Version: 6.00 Build 0)  -->
<svg version="1.1" id="_x31__1_" xmlns="http://www.w3.org/2000/svg" xmlns:xlink="http://www.w3.org/1999/xlink" x="0px" y="0px" viewBox="0 0 800 767.874" style="enable-background:new 0 0 800 767.874;" xml:space="preserve">
<style type="text/css">
	.stblack{fill:#000000;}
	.st0{fill:#FFFFFF;}
</style>
<g>
	<path class="st0" d="M652.377,631.932c-24.734-14.428-86.569-12.064-83.151,37.504c-11.964-5.127-172.635-22.221-235.878,68.371
		c0,0-116.229-126.486-213.657-135.032c0,0,29.665-115.537-94.01-227.331c64.952-3.418,84.64-133.048,84.64-133.048
		s80.382-39.16,57.711-154.579c140.349,27.614,220.982-57.709,220.982-57.709c30.916,37.099,203.591,0,203.591,0
		s111.296,204.044,181.372,245.264c-51.526,57.71-76.258,255.569-61.831,290.607C668.863,551.55,652.377,631.932,652.377,631.932z"></path>
	<path class="stblack" d="M655,621.135c-17.058-9.507-40.929-10.416-59.031-3.372c-23.122,8.998-33.442,32.26-32.317,56.088
		c2.734-5.071,5.466-10.142,8.198-15.212c-6.874-2.743-15.386-2.904-22.647-3.521c-15.667-1.33-31.434-1.455-47.133-0.727
		c-39.92,1.852-80.757,9.35-116.291,28.349c-21.322,11.399-39.983,26.832-54.056,46.585c1.822-0.537,3.644-1.075,5.464-1.612
		c-21.743-23.614-46.122-45.234-71.285-65.096c-41.083-32.428-90.135-65.444-143.587-70.639c0.767,3.997,1.532,7.995,2.299,11.992
		c6.373-25.173,4.589-53.47-0.021-78.684c-11.511-62.975-48.414-117.319-95.074-159.936c-1.686,6.941-3.373,13.881-5.058,20.822
		c37.238-2.656,58.738-41.999,71.201-72.652c9.441-23.222,16.299-48.039,20.105-72.841c-2.22,4.149-4.443,8.296-6.664,12.444
		c17.126-8.432,31.684-23.576,42.219-39.171c26.415-39.108,30.637-87.455,22.047-132.923c-2.653,5.861-5.307,11.723-7.96,17.585
		c55.802,10.641,113.939,5.69,165.474-19.018c21.53-10.324,43.176-23.559,59.759-41.007c-1.82,0.537-3.642,1.075-5.464,1.612
		c7.97,9.091,20.885,12.632,32.348,14.63c16.49,2.875,33.472,2.906,50.151,2.261c33.81-1.308,67.493-5.887,100.775-11.835
		c7.663-1.369,15.324-2.788,22.934-4.418c-1.175-0.67-2.352-1.34-3.527-2.01c37.833,69.303,80.087,138.839,131.212,199.153
		c14.888,17.566,31.141,35.53,51.069,47.485c0.738-6.191,1.477-12.382,2.213-18.573c-28.377,32.411-40.818,79.614-50.558,120.515
		c-10.88,45.684-18.151,92.957-19.201,139.962c-0.344,15.372-0.915,32.747,4.802,47.329c2.46-6.506,4.916-13.01,7.374-19.515
		c-40.245-12.225-61.1,45.675-67.317,75.553c-0.602,2.899-2.012,10.944,2.3,11.993c4.155,1.01,6.995-6.95,7.548-9.601
		c4.959-23.846,20.052-66.125,52.224-56.353c7.261,2.206,8.84-15.773,7.374-19.515c-3.622-9.233-3.305-22.72-3.236-33.308
		c0.127-19.364,1.915-38.716,4.297-57.921c5.45-43.931,14.178-88.274,29.519-129.898c6.826-18.52,15-37.289,28.125-52.281
		c2.609-2.98,7.111-15.635,2.213-18.572c-17.168-10.298-31.456-25.156-44.63-40.04c-16.764-18.942-31.986-39.238-46.542-59.904
		c-26.904-38.191-51.535-78.005-74.884-118.454c-4.877-8.451-9.728-16.925-14.403-25.491c-0.799-1.463-1.776-2.385-3.529-2.01
		c-28.993,6.21-58.514,10.688-88,13.691c-22.329,2.274-44.972,3.747-67.398,2.046c-15.062-1.142-34.913-2.937-45.576-15.101
		c-1.824-2.082-4.23,0.316-5.462,1.613c2.676-2.817-2,1.863-2.917,2.699c-3.438,3.136-7.038,6.098-10.716,8.946
		c-13.095,10.134-27.351,18.738-42.335,25.766c-50.371,23.622-106.408,28.348-160.768,17.982c-6.765-1.29-8.743,13.441-7.96,17.585
		c9.597,50.784-1.023,104.858-46.743,134.429c-3.808,2.462-6.257,2.22-9.116,8.108c-1.322,2.726-1.711,5.656-2.223,8.592
		c-0.466,2.688,0.469-2.432-0.076,0.46c-0.313,1.658-0.629,3.314-0.965,4.967c-4.267,21.096-10.245,42.107-19.172,61.73
		c-11.02,24.225-28.585,49.762-57.497,51.824c-6.219,0.444-9.037,17.187-5.06,20.821c44.274,40.437,80.188,91.505,91.686,151.236
		c2.997,15.57,4.406,32.08,3.44,47.612c-0.301,4.861-0.87,9.694-1.62,14.505c-0.04,0.265,0.324-1.69-0.255,1.257
		c-0.095,0.48-0.206,0.959-0.326,1.433c-0.582,2.3-1.94,11.581,2.299,11.993c53.547,5.205,102.143,38.17,143.137,70.801
		c24.437,19.452,48.123,40.522,69.305,63.526c1.747,1.897,4.374-0.082,5.464-1.613c44.377-62.294,134.335-75.027,205.46-69.853
		c8.338,0.608,18.276,0.649,26.17,3.798c5.643,2.252,8.334-12.316,8.197-15.212c-1.67-35.387,53.264-34.38,74.952-22.292
		C654.858,645.574,661.868,624.963,655,621.135z"></path>
</g>
</svg>
