<!--?xml version="1.0" encoding="utf-8"?-->
<!-- Generator: Adobe Illustrator 25.2.3, SVG Export Plug-In . SVG Version: 6.00 Build 0)  -->
<svg version="1.1" id="_x34_" xmlns="http://www.w3.org/2000/svg" xmlns:xlink="http://www.w3.org/1999/xlink" x="0px" y="0px" viewBox="0 0 800 398.082" style="enable-background:new 0 0 800 398.082;" xml:space="preserve">
<style type="text/css">
	.stblack{fill:#000000;}
	.st0{fill:#FFFFFF;}
</style>
<g>
	<path id="fillArea" class="st0" d="M607.157,15.016H192.843c-92.279,0-167.779,75.5-167.779,167.779v0.001
		c0,92.279,75.501,167.779,167.779,167.779h389.773l41.619-0.87c84.337-8.626,150.702-80.394,150.702-166.91v-0.001
		C774.937,90.516,699.435,15.016,607.157,15.016z"></path>
	<path class="stblack" d="M607.157,9.952H192.843c-47.535-0.001-90.77,19.456-122.075,50.768C39.456,92.024,19.999,135.259,20,182.794v0.001
		c-0.001,47.535,19.456,90.77,50.768,122.074c31.304,31.312,74.539,50.769,122.075,50.768h389.773c2.796,0,5.062-2.267,5.062-5.063
		c0-2.797-2.267-5.063-5.062-5.063l0,0H192.843c-44.744-0.001-85.399-18.294-114.914-47.803
		c-29.509-29.516-47.801-70.171-47.802-114.914v-0.001c0.002-44.743,18.294-85.398,47.802-114.914
		c29.515-29.508,70.17-47.801,114.914-47.803h414.314c44.743,0.002,85.398,18.294,114.914,47.803
		c29.508,29.516,47.801,70.171,47.803,114.914v0.001c-0.002,41.95-16.08,80.301-42.408,109.257
		c-26.331,28.95-62.868,48.436-103.747,52.617c-2.782,0.284-4.806,2.77-4.522,5.552s2.77,4.806,5.553,4.522
		c43.459-4.447,82.272-25.158,110.208-55.877c27.94-30.714,45.044-71.506,45.042-116.07l0.001-0.001
		c0.001-47.536-19.457-90.771-50.769-122.074C697.927,29.408,654.692,9.951,607.157,9.952z"></path>
	<path class="stblack" d="M594.539,385.382l24.043-46.764c1.279-2.487,0.299-5.539-2.188-6.818c-2.487-1.279-5.539-0.299-6.818,2.188l-24.043,46.764
		c-1.279,2.487-0.299,5.539,2.188,6.818C590.208,388.847,593.26,387.868,594.539,385.382z"></path>
</g>
</svg>
