<!--?xml version="1.0" encoding="utf-8"?-->
<!-- Generator: Adobe Illustrator 22.1.0, SVG Export Plug-In . SVG Version: 6.00 Build 0)  -->
<svg version="1.1" id="_x30_" xmlns="http://www.w3.org/2000/svg" xmlns:xlink="http://www.w3.org/1999/xlink" x="0px" y="0px" viewBox="0 0 800 648.2" style="enable-background:new 0 0 800 648.2;" xml:space="preserve">
<style type="text/css">
	.stblack{fill:#000000;}
</style>
<g>
	<path class="stblack" d="M371.7,632c2.8-24.8,3.9-40.6,4.3-47.7c0.4-7.2,0.9-23,1.3-47.9c-2.6,24.8-3.9,40.5-4.3,47.7
		C372.5,591.3,371.8,607.1,371.7,632z"></path>
	<path class="stblack" d="M386.3,618.2c2-24.9,2.7-40.7,2.9-47.8c0.2-7.2,0.3-23-0.1-47.9c-1.8,24.9-2.7,40.7-2.9,47.8
		C385.9,577.5,385.7,593.3,386.3,618.2z"></path>
	<path class="stblack" d="M358.8,616.6c0.9-24.9,2.1-40.7,2.7-47.8c0.6-7.2,2.5-22.9,5.7-47.6c-1.1,24.9-2.1,40.7-2.7,47.8
		C363.9,576.2,362.3,591.9,358.8,616.6z"></path>
	<path class="stblack" d="M400,595.6v-95.8c-1,24.9-1.4,40.7-1.4,47.9C398.6,554.9,398.8,570.7,400,595.6z"></path>
	<path class="stblack" d="M347.8,592.5c4.2-24.6,6.2-40.3,7.1-47.4c0.8-7.1,2.3-22.9,4.3-47.7L347.8,592.5z"></path>
	<path class="stblack" d="M315.2,625.3c5.8-24.3,8.8-39.8,10.1-46.8c1.3-7.1,3.7-22.7,7-47.4c-5.5,24.3-8.8,39.8-10.1,46.8
		C320.9,584.9,318.3,600.5,315.2,625.3z"></path>
	<path class="stblack" d="M331.4,613.3c5-24.4,7.5-40,8.6-47.1c1.1-7.1,3-22.8,5.6-47.6c-4.7,24.5-7.5,40-8.6,47.2
		C335.9,572.9,333.8,588.5,331.4,613.3z"></path>
	<path class="stblack" d="M304.1,608.4c3.9-24.6,7-40.1,8.6-47.1c1.5-7,5.2-22.4,11.5-46.5c-4.2,24.6-7.1,40.1-8.6,47.1
		C314.1,568.9,310.7,584.3,304.1,608.4z"></path>
	<path class="stblack" d="M347.8,592.5l11.3-95.1c-3.9,24.6-6.2,40.3-7.1,47.4C351.2,551.9,349.5,567.6,347.8,592.5z"></path>
	<path class="stblack" d="M296.1,583.1c7.2-23.9,11.1-39.2,12.9-46.2c1.7-7,5.1-22.4,10.1-46.8L296.1,583.1z"></path>
	<path class="stblack" d="M259.5,611.5c8.8-23.3,13.8-38.3,15.9-45.2c2.2-6.9,6.5-22,13-46.1c-8.6,23.4-13.8,38.3-15.9,45.2
		C270.3,572.2,265.7,587.3,259.5,611.5z"></path>
	<path class="stblack" d="M277.2,601.8c8-23.6,12.5-38.8,14.4-45.7c1.9-6.9,5.8-22.2,11.5-46.5c-7.8,23.7-12.4,38.8-14.4,45.7
		C286.8,562.1,282.7,577.4,277.2,601.8z"></path>
	<path class="stblack" d="M250.6,593.3c7.1-23.9,12.2-38.9,14.6-45.7c2.4-6.8,8.1-21.5,17.4-44.6c-7.3,23.8-12.2,38.9-14.6,45.7
		C265.6,555.4,260.2,570.3,250.6,593.3z"></path>
	<path class="stblack" d="M296.1,583.1l23-93c-6.9,23.9-11.1,39.2-12.9,46.2C304.5,543.2,300.9,558.6,296.1,583.1z"></path>
	<path class="stblack" d="M245.9,567.2c10.3-22.7,16.2-37.4,18.8-44.1c2.6-6.7,8-21.6,16.2-45.1L245.9,567.2z"></path>
	<path class="stblack" d="M205.6,590.3c11.9-21.9,18.9-36.1,22-42.6c3.1-6.5,9.4-21,19.2-43.9c-11.7,22-18.9,36.1-22,42.6
		C221.6,552.9,215,567.2,205.6,590.3z"></path>
	<path class="stblack" d="M224.6,583.1c11.1-22.3,17.5-36.8,20.4-43.4c2.8-6.6,8.7-21.3,17.6-44.6c-10.9,22.4-17.5,36.8-20.4,43.4
		C239.4,545.1,233.2,559.7,224.6,583.1z"></path>
	<path class="stblack" d="M199.1,571c10.3-22.7,17.5-36.8,20.8-43.2c3.3-6.4,11-20.2,23.4-41.8c-10.6,22.6-17.5,36.8-20.8,43.2
		C219.3,535.6,211.8,549.5,199.1,571z"></path>
	<path class="stblack" d="M245.9,567.2l35-89.2c-10,22.8-16.1,37.4-18.8,44.1C259.4,528.8,253.8,543.5,245.9,567.2z"></path>
	<path class="stblack" d="M198,544.4c13.4-21,21.3-34.7,24.9-41c3.5-6.3,11-20.2,22.4-42.3L198,544.4z"></path>
	<path class="stblack" d="M154.5,561.2c15.1-19.9,24.1-32.9,28.1-38.8c4-6,12.5-19.3,25.5-40.6c-14.8,20-24.1,32.9-28.1,38.8
		C175.9,526.6,167.2,539.8,154.5,561.2z"></path>
	<path class="stblack" d="M174.5,557c14.3-20.5,22.7-33.8,26.5-39.9c3.8-6.1,11.7-19.8,23.9-41.5c-14,20.6-22.7,33.8-26.5,39.9
		C194.7,521.6,186.5,535.1,174.5,557z"></path>
	<path class="stblack" d="M150.8,541c13.7-20.9,22.9-33.7,27.2-39.5c4.3-5.8,14-18.2,29.6-37.7c-13.9,20.7-22.9,33.7-27.2,39.5
		C176.2,509.1,166.7,521.8,150.8,541z"></path>
	<path class="stblack" d="M198,544.4l47.3-83.3c-13.1,21.2-21.3,34.7-24.9,41C216.9,508.3,209.2,522.1,198,544.4z"></path>
	<path class="stblack" d="M153.7,514.4c16.6-18.6,26.6-30.9,31-36.5c4.5-5.6,14-18.2,28.9-38.2L153.7,514.4z"></path>
	<path class="stblack" d="M107.6,523.5c18.3-17,29.3-28.3,34.3-33.5c5-5.2,15.5-16.9,32-35.7c-18,17.2-29.3,28.3-34.3,33.5
		C134.6,493,123.8,504.5,107.6,523.5z"></path>
	<path class="stblack" d="M128.3,522.9c17.4-17.8,28-29.6,32.7-35.1c4.7-5.4,14.8-17.6,30.4-37c-17.2,18.1-27.9,29.7-32.7,35.1
		C154,491.3,143.7,503.3,128.3,522.9z"></path>
	<path class="stblack" d="M107.2,502.7c17.1-18.2,28.4-29.2,33.7-34.1c5.2-4.9,17-15.5,35.7-31.9c-17.4,17.9-28.5,29.1-33.7,34.1
		C137.8,475.8,126.2,486.6,107.2,502.7z"></path>
	<path class="stblack" d="M153.7,514.4l59.9-74.7c-16.3,18.9-26.5,30.9-31,36.5C178.1,481.8,168.3,494.2,153.7,514.4z"></path>
	<path class="stblack" d="M114.6,476.9c19.7-15.3,31.7-25.6,37.1-30.3c5.4-4.7,17.1-15.4,35.4-32.3L114.6,476.9z"></path>
	<path class="stblack" d="M67.2,476.6c21.3-13,34.3-22,40.2-26.1c5.9-4.1,18.5-13.6,38.3-28.8c-21,13.4-34.3,22-40.2,26.1
		C99.7,452,86.8,461.1,67.2,476.6z"></path>
	<path class="stblack" d="M87.9,480.4c20.5-14.2,33-23.8,38.7-28.3c5.6-4.4,17.8-14.5,36.9-30.6c-20.2,14.5-33,23.9-38.7,28.3
		C119.1,454.1,106.7,463.9,87.9,480.4z"></path>
	<path class="stblack" d="M70.8,455.8c20.4-14.4,33.8-22.8,39.9-26.6c6.1-3.8,19.8-11.7,41.5-24c-20.7,14-33.8,22.7-39.9,26.6
		C106.1,435.6,92.6,443.9,70.8,455.8z"></path>
	<path class="stblack" d="M114.6,476.9l72.5-62.6c-19.4,15.6-31.7,25.6-37.1,30.3C144.5,449.2,132.6,459.6,114.6,476.9z"></path>
	<path class="stblack" d="M83.2,431.8c22.5-10.8,36.4-18.3,42.7-21.8c6.3-3.5,19.9-11.5,41.4-24.1L83.2,431.8z"></path>
	<path class="stblack" d="M36.7,420.5c23.7-7.9,38.4-13.7,45-16.4c6.7-2.7,21.1-9.1,43.8-19.4c-23.5,8.3-38.3,13.7-45,16.4
		C73.8,403.8,59.2,409.8,36.7,420.5z"></path>
	<path class="stblack" d="M56.2,429.2c23.1-9.3,37.5-16,43.9-19.1c6.5-3.1,20.5-10.3,42.6-21.9c-22.9,9.8-37.4,16.1-43.9,19.1
		C92.4,410.3,78.1,417.2,56.2,429.2z"></path>
	<path class="stblack" d="M44.7,400.6c23.2-9.3,38.2-14.3,45-16.5c6.8-2.2,22-6.7,45.9-13.7c-23.3,8.8-38.2,14.2-45,16.5
		C83.9,389.2,68.8,394.2,44.7,400.6z"></path>
	<path class="stblack" d="M83.2,431.8l84.1-45.9c-22.2,11.2-36.3,18.4-42.7,21.8C118.2,411,104.4,418.7,83.2,431.8z"></path>
	<path class="stblack" d="M62.4,379.9c24.4-5.1,39.7-9.1,46.7-10.9c6.9-1.9,22.1-6.4,46-13.5L62.4,379.9z"></path>
	<path class="stblack" d="M20,357.1c24.9-1.7,40.6-3.6,47.7-4.6c7.1-1,22.7-3.6,47.3-7.8c-24.8,2.2-40.6,3.7-47.7,4.6
		C60.2,350.2,44.5,352.3,20,357.1z"></path>
	<path class="stblack" d="M36.8,370.6c24.7-3.4,40.3-6.4,47.3-7.8c7-1.4,22.4-5,46.7-10.7c-24.6,3.9-40.2,6.4-47.3,7.8
		C76.5,361.3,61,364.4,36.8,370.6z"></path>
	<path class="stblack" d="M32.8,339.7c24.8-3.1,40.5-4.2,47.7-4.6c7.2-0.4,23-0.9,47.9-1.6c-24.8,2.5-40.5,4.1-47.7,4.6
		C73.5,338.6,57.7,339.6,32.8,339.7z"></path>
	<path class="stblack" d="M62.4,379.9l92.6-24.4c-24.3,5.6-39.7,9.1-46.6,10.9C101.4,368.2,86.2,372.3,62.4,379.9z"></path>
	<path class="stblack" d="M55.1,324.1c24.9,1.3,40.7,1.4,47.9,1.3c7.2,0,23-0.5,47.9-1.3H55.1z"></path>
	<path class="stblack" d="M20,291.2c24.5,4.8,40.2,6.9,47.3,7.8c7.1,0.9,22.9,2.4,47.7,4.6c-24.6-4.2-40.1-6.8-47.3-7.8
		C60.6,294.8,44.9,292.8,20,291.2z"></path>
	<path class="stblack" d="M32.8,308.5c24.8,3.1,40.5,4.2,47.7,4.6c7.2,0.4,23,0.9,47.9,1.6c-24.8-2.5-40.5-4.1-47.7-4.6
		C73.5,309.6,57.7,308.7,32.8,308.5z"></path>
	<path class="stblack" d="M36.8,277.6c24.7,3.4,40.3,6.4,47.3,7.8c7,1.4,22.4,5,46.7,10.7c-24.6-3.9-40.2-6.4-47.3-7.8C76.5,287,61,283.9,36.8,277.6
		z"></path>
	<path class="stblack" d="M55.1,324.1h95.8c-24.9-0.8-40.7-1.3-47.9-1.3C95.9,322.8,80.1,322.8,55.1,324.1z"></path>
	<path class="stblack" d="M62.4,268.3c23.8,7.6,39,11.7,46,13.5c7,1.8,22.4,5.4,46.6,10.9L62.4,268.3z"></path>
	<path class="stblack" d="M36.7,227.8c22.5,10.7,37.2,16.7,43.9,19.4c6.7,2.7,21.5,8,45,16.4c-22.7-10.3-37.2-16.7-43.8-19.4
		C75.1,241.4,60.3,235.6,36.7,227.8z"></path>
	<path class="stblack" d="M44.7,247.6c23.2,9.2,38.2,14.3,45,16.5c6.8,2.2,22,6.7,45.9,13.7c-23.3-8.8-38.1-14.2-45-16.5
		C83.9,259,68.8,254.1,44.7,247.6z"></path>
	<path class="stblack" d="M56.2,219.1c23.1,9.3,37.5,16,43.9,19.1c6.5,3.1,20.5,10.3,42.6,21.9c-22.9-9.8-37.4-16.1-43.9-19.1
		C92.4,237.9,78.1,231.1,56.2,219.1z"></path>
	<path class="stblack" d="M62.4,268.3l92.6,24.5c-23.9-7.1-39-11.6-46-13.5C102.1,277.4,86.8,273.4,62.4,268.3z"></path>
	<path class="stblack" d="M83.2,216.5c21.2,13.1,35.1,20.7,41.4,24.2c6.3,3.4,20.4,10.6,42.7,21.8L83.2,216.5z"></path>
	<path class="stblack" d="M67.2,171.6c19.6,15.5,32.4,24.7,38.3,28.8c5.9,4.1,19.1,12.7,40.2,26.1c-19.8-15.1-32.5-24.6-38.3-28.8
		C101.5,193.6,88.5,184.7,67.2,171.6z"></path>
	<path class="stblack" d="M70.8,192.4c20.4,14.4,33.8,22.8,39.9,26.6c6.1,3.8,19.8,11.7,41.5,24c-20.7-14-33.8-22.7-39.9-26.6
		C106.1,212.6,92.6,204.4,70.8,192.4z"></path>
	<path class="stblack" d="M87.9,167.9c20.5,14.2,33,23.8,38.7,28.3c5.6,4.4,17.8,14.5,36.9,30.6c-20.2-14.5-33-23.9-38.7-28.3
		C119.1,194.1,106.7,184.3,87.9,167.9z"></path>
	<path class="stblack" d="M83.2,216.5l84.1,45.9c-21.5-12.7-35.1-20.7-41.4-24.1C119.6,234.8,105.6,227.3,83.2,216.5z"></path>
	<path class="stblack" d="M114.6,171.4c18,17.3,29.9,27.7,35.4,32.3c5.5,4.7,17.7,14.7,37.1,30.3L114.6,171.4z"></path>
	<path class="stblack" d="M107.6,124.7c16.2,19,27,30.5,32,35.7c5,5.2,16.3,16.3,34.3,33.5c-16.4-18.7-27-30.5-32-35.7
		C136.9,153,125.9,141.7,107.6,124.7z"></path>
	<path class="stblack" d="M107.2,145.5c17.1,18.2,28.4,29.2,33.7,34.1c5.2,4.9,17,15.5,35.7,31.9c-17.4-17.9-28.5-29.1-33.7-34.1
		C137.8,172.5,126.2,161.7,107.2,145.5z"></path>
	<path class="stblack" d="M128.3,125.3c17.4,17.8,28,29.6,32.7,35.1c4.7,5.4,14.8,17.6,30.4,37c-17.2-18.1-27.9-29.7-32.7-35.1
		C154,156.9,143.7,144.9,128.3,125.3z"></path>
	<path class="stblack" d="M114.6,171.4l72.5,62.6c-18.3-17-29.9-27.6-35.4-32.3C146.3,196.9,134.3,186.6,114.6,171.4z"></path>
	<path class="stblack" d="M153.7,133.8c14.6,20.2,24.4,32.6,28.9,38.2c4.5,5.6,14.7,17.6,31,36.5L153.7,133.8z"></path>
	<path class="stblack" d="M154.5,87c12.8,21.4,21.5,34.6,25.5,40.6c4,5.9,13.3,18.8,28.1,38.8c-13-21.3-21.5-34.6-25.5-40.6
		C178.5,119.9,169.6,106.9,154.5,87z"></path>
	<path class="stblack" d="M150.8,107.2c13.7,20.9,22.9,33.7,27.2,39.5c4.3,5.8,14,18.2,29.6,37.7c-13.9-20.7-22.9-33.7-27.2-39.5
		C176.2,139.1,166.7,126.5,150.8,107.2z"></path>
	<path class="stblack" d="M174.5,91.2c14.3,20.5,22.7,33.8,26.5,39.9c3.8,6.1,11.7,19.8,23.9,41.5c-14-20.6-22.7-33.8-26.5-39.9
		C194.7,126.7,186.5,113.1,174.5,91.2z"></path>
	<path class="stblack" d="M153.7,133.8l59.9,74.7c-14.8-20-24.4-32.6-28.9-38.2C180.2,164.7,170.3,152.5,153.7,133.8z"></path>
	<path class="stblack" d="M198,103.9c11.2,22.3,18.9,36.1,22.4,42.3c3.6,6.2,11.7,19.8,24.9,41L198,103.9z"></path>
	<path class="stblack" d="M205.6,57.9c9.4,23.1,16.1,37.4,19.2,43.9c3.1,6.5,10.3,20.6,22,42.6c-9.7-23-16.1-37.4-19.2-43.9
		C224.5,94,217.5,79.8,205.6,57.9z"></path>
	<path class="stblack" d="M199.1,77.2c10.3,22.7,17.5,36.8,20.8,43.2c3.3,6.4,11,20.2,23.4,41.8c-10.6-22.6-17.5-36.8-20.8-43.2
		C219.3,112.7,211.8,98.7,199.1,77.2z"></path>
	<path class="stblack" d="M224.6,65.2c11.1,22.3,17.5,36.8,20.4,43.4c2.8,6.6,8.7,21.3,17.6,44.5c-10.9-22.4-17.5-36.8-20.4-43.4
		C239.4,103.1,233.2,88.5,224.6,65.2z"></path>
	<path class="stblack" d="M198,103.9l47.3,83.3c-11.5-22.1-18.9-36.1-22.4-42.3C219.3,138.6,211.4,124.9,198,103.9z"></path>
	<path class="stblack" d="M245.9,81.1c7.9,23.6,13.6,38.4,16.2,45.1c2.6,6.7,8.8,21.2,18.8,44.1L245.9,81.1z"></path>
	<path class="stblack" d="M259.5,36.7c6.2,24.2,10.8,39.3,13,46.1c2.2,6.8,7.4,21.8,15.9,45.2c-6.5-24.1-10.8-39.3-13-46.1
		C273.3,75.1,268.3,60.1,259.5,36.7z"></path>
	<path class="stblack" d="M250.6,54.9c7.1,23.9,12.2,38.9,14.6,45.7c2.4,6.8,8.1,21.5,17.4,44.7c-7.3-23.8-12.2-38.9-14.6-45.7
		C265.6,92.8,260.2,78,250.6,54.9z"></path>
	<path class="stblack" d="M277.2,46.5c8,23.6,12.5,38.8,14.4,45.7c1.9,6.9,5.8,22.2,11.5,46.5c-7.8-23.7-12.4-38.8-14.4-45.7
		C286.8,86.1,282.7,70.8,277.2,46.5z"></path>
	<path class="stblack" d="M245.9,81.1l35,89.2c-8.2-23.5-13.6-38.4-16.2-45.1C262.1,118.5,256.2,103.8,245.9,81.1z"></path>
	<path class="stblack" d="M296.1,65.1c4.8,24.5,8.4,39.9,10.1,46.8c1.7,7,5.9,22.2,12.9,46.2L296.1,65.1z"></path>
	<path class="stblack" d="M315.2,23c3.1,24.8,5.7,40.3,7,47.4c1.3,7.1,4.5,22.5,10.1,46.8c-3.4-24.7-5.8-40.3-7-47.4C324,62.7,320.9,47.2,315.2,23z"></path>
	<path class="stblack" d="M304.1,39.8c3.9,24.6,7,40.1,8.6,47.1c1.5,7,5.2,22.4,11.5,46.5c-4.2-24.6-7.1-40.1-8.6-47.1
		C314.1,79.3,310.7,63.9,304.1,39.8z"></path>
	<path class="stblack" d="M331.4,34.9c5,24.4,7.5,40,8.6,47.1c1.1,7.1,3,22.8,5.6,47.6c-4.7-24.5-7.5-40-8.6-47.1C335.9,75.4,333.8,59.7,331.4,34.9z
		"></path>
	<path class="stblack" d="M296.1,65.1l23,93c-5-24.4-8.4-39.9-10.1-46.8C307.3,104.3,303.3,89,296.1,65.1z"></path>
	<path class="stblack" d="M347.8,55.7c1.7,24.9,3.4,40.6,4.3,47.7c0.9,7.1,3.1,22.8,7.1,47.4L347.8,55.7z"></path>
	<path class="stblack" d="M371.7,16.2c0.1,25,0.8,40.7,1.3,47.9c0.4,7.2,1.8,22.9,4.3,47.7c-0.4-24.9-0.9-40.7-1.3-47.9
		C375.6,56.8,374.5,41,371.7,16.2z"></path>
	<path class="stblack" d="M358.8,31.6c0.9,24.9,2.1,40.7,2.7,47.8c0.6,7.2,2.5,22.9,5.7,47.6c-1.1-24.9-2.1-40.7-2.7-47.8
		C363.9,72.1,362.3,56.3,358.8,31.6z"></path>
	<path class="stblack" d="M386.3,30c2,24.9,2.7,40.6,2.9,47.8s0.3,23-0.1,47.9c-1.8-24.9-2.7-40.7-2.9-47.8C385.9,70.8,385.7,55,386.3,30z"></path>
	<path class="stblack" d="M347.8,55.7l11.3,95.1c-2-24.9-3.4-40.6-4.3-47.7C354,96,351.9,80.3,347.8,55.7z"></path>
	<path class="stblack" d="M400,52.6c-1.2,24.9-1.4,40.7-1.4,47.9c0,7.2,0.4,23,1.4,47.9V52.6z"></path>
	<path class="stblack" d="M428.3,16.2c-2.8,24.8-3.9,40.6-4.3,47.7c-0.4,7.2-0.9,23-1.3,47.9c2.6-24.8,3.9-40.5,4.3-47.7
		C427.5,57,428.2,41.2,428.3,16.2z"></path>
	<path class="stblack" d="M413.7,30c-2,24.9-2.7,40.6-2.9,47.8c-0.2,7.2-0.3,23,0.1,47.9c1.8-24.9,2.7-40.7,2.9-47.8C414.1,70.8,414.3,55,413.7,30z"></path>
	<path class="stblack" d="M441.2,31.6c-0.9,24.9-2.1,40.7-2.7,47.8c-0.6,7.2-2.5,22.9-5.7,47.6c1.1-24.9,2.1-40.7,2.7-47.8
		C436.1,72.1,437.7,56.3,441.2,31.6z"></path>
	<path class="stblack" d="M400,52.6v95.8c1-24.9,1.4-40.7,1.4-47.9C401.4,93.4,401.2,77.6,400,52.6z"></path>
	<path class="stblack" d="M452.2,55.7c-4.2,24.6-6.2,40.3-7.1,47.4c-0.8,7.1-2.3,22.9-4.3,47.7L452.2,55.7z"></path>
	<path class="stblack" d="M484.8,23c-5.8,24.3-8.8,39.8-10.1,46.8c-1.3,7.1-3.7,22.7-7,47.4c5.5-24.3,8.8-39.8,10.1-46.8
		C479.1,63.3,481.7,47.7,484.8,23z"></path>
	<path class="stblack" d="M468.6,34.9c-5,24.4-7.5,40-8.6,47.1c-1.1,7.1-3,22.8-5.6,47.6c4.7-24.5,7.5-40,8.6-47.1C464.1,75.4,466.2,59.7,468.6,34.9
		z"></path>
	<path class="stblack" d="M495.8,39.8c-3.9,24.6-7,40.1-8.6,47.1c-1.5,7-5.2,22.4-11.5,46.5c4.2-24.6,7.1-40.1,8.6-47.1
		C485.9,79.3,489.3,63.9,495.8,39.8z"></path>
	<path class="stblack" d="M452.2,55.7l-11.3,95.1c3.9-24.6,6.2-40.2,7.1-47.4C448.8,96.3,450.5,80.6,452.2,55.7z"></path>
	<path class="stblack" d="M503.9,65.1c-7.2,23.9-11.1,39.2-12.9,46.2c-1.7,7-5.1,22.4-10.1,46.8L503.9,65.1z"></path>
	<path class="stblack" d="M540.5,36.7c-8.8,23.3-13.8,38.3-15.9,45.2c-2.2,6.9-6.5,22-13,46.1c8.6-23.4,13.8-38.3,15.9-45.2
		C529.7,76,534.3,60.9,540.5,36.7z"></path>
	<path class="stblack" d="M522.8,46.5c-8,23.6-12.5,38.8-14.4,45.7c-1.9,6.9-5.8,22.2-11.5,46.5c7.8-23.7,12.4-38.8,14.4-45.7
		C513.2,86.1,517.3,70.8,522.8,46.5z"></path>
	<path class="stblack" d="M549.4,54.9c-7.1,23.9-12.2,38.9-14.6,45.7c-2.4,6.8-8.1,21.5-17.4,44.7c7.3-23.8,12.2-38.9,14.6-45.7
		C534.4,92.8,539.8,78,549.4,54.9z"></path>
	<path class="stblack" d="M503.9,65.1l-23,93c6.9-23.9,11.1-39.2,12.9-46.2C495.5,105,499.1,89.6,503.9,65.1z"></path>
	<path class="stblack" d="M554.1,81.1c-10.3,22.7-16.2,37.4-18.8,44.1c-2.6,6.7-8,21.6-16.2,45.1L554.1,81.1z"></path>
	<path class="stblack" d="M594.4,57.9c-11.9,21.9-18.9,36.1-22,42.6s-9.5,21-19.2,43.9c11.7-22,18.9-36.1,22-42.6C578.4,95.4,585,81,594.4,57.9z"></path>
	<path class="stblack" d="M575.4,65.2c-11.1,22.3-17.5,36.8-20.4,43.4c-2.8,6.6-8.7,21.3-17.6,44.5c10.9-22.4,17.5-36.8,20.4-43.4
		C560.6,103.1,566.8,88.5,575.4,65.2z"></path>
	<path class="stblack" d="M600.8,77.2c-10.3,22.7-17.4,36.8-20.8,43.2c-3.3,6.4-11,20.2-23.4,41.8c10.6-22.6,17.5-36.8,20.8-43.2
		C580.7,112.7,588.2,98.7,600.8,77.2z"></path>
	<path class="stblack" d="M554.1,81.1l-35,89.2c10-22.8,16.1-37.4,18.8-44.1C540.6,119.5,546.2,104.7,554.1,81.1z"></path>
	<path class="stblack" d="M602,103.9c-13.4,21-21.3,34.7-24.9,41c-3.5,6.3-11,20.2-22.4,42.3L602,103.9z"></path>
	<path class="stblack" d="M645.5,87c-15.1,19.8-24.1,32.9-28.1,38.8c-4,6-12.5,19.3-25.5,40.6c14.8-20,24.1-32.9,28.1-38.8
		C624.1,121.7,632.8,108.5,645.5,87z"></path>
	<path class="stblack" d="M625.5,91.2c-14.3,20.5-22.7,33.8-26.5,39.9c-3.8,6.1-11.7,19.8-23.9,41.5c14-20.6,22.7-33.8,26.5-39.9
		C605.3,126.7,613.5,113.1,625.5,91.2z"></path>
	<path class="stblack" d="M649.2,107.2c-13.7,20.9-22.9,33.7-27.2,39.5c-4.3,5.8-14,18.2-29.6,37.7c13.9-20.7,22.9-33.7,27.2-39.5
		C623.8,139.1,633.3,126.5,649.2,107.2z"></path>
	<path class="stblack" d="M602,103.9l-47.3,83.3c13.1-21.2,21.3-34.7,24.9-41C583.1,140,590.8,126.1,602,103.9z"></path>
	<path class="stblack" d="M646.3,133.8c-16.6,18.6-26.6,30.9-31,36.5c-4.5,5.6-14,18.2-28.9,38.2L646.3,133.8z"></path>
	<path class="stblack" d="M692.4,124.7c-18.3,17-29.3,28.3-34.3,33.5c-5,5.2-15.5,17-32,35.7c18-17.2,29.3-28.3,34.3-33.5
		C665.4,155.2,676.2,143.7,692.4,124.7z"></path>
	<path class="stblack" d="M671.7,125.3c-17.4,17.8-28,29.6-32.7,35.1c-4.7,5.4-14.8,17.6-30.4,37c17.2-18.1,27.9-29.7,32.7-35.1
		C646,156.9,656.3,144.9,671.7,125.3z"></path>
	<path class="stblack" d="M692.8,145.5c-17.1,18.2-28.4,29.2-33.7,34.1c-5.2,4.9-17,15.5-35.7,31.9c17.4-17.9,28.5-29.1,33.7-34.1
		C662.2,172.5,673.8,161.7,692.8,145.5z"></path>
	<path class="stblack" d="M646.3,133.8l-59.9,74.7c16.3-18.9,26.5-30.9,31-36.5C621.9,166.5,631.7,154.1,646.3,133.8z"></path>
	<path class="stblack" d="M685.4,171.3c-19.7,15.3-31.7,25.6-37.1,30.3c-5.4,4.7-17.1,15.4-35.4,32.3L685.4,171.3z"></path>
	<path class="stblack" d="M732.8,171.6c-21.3,13-34.3,22-40.2,26.1c-5.9,4.1-18.5,13.6-38.3,28.8c21-13.4,34.3-22,40.2-26.1
		C700.3,196.3,713.2,187.1,732.8,171.6z"></path>
	<path class="stblack" d="M712.1,167.9c-20.5,14.2-33,23.8-38.7,28.3c-5.7,4.4-17.8,14.5-36.9,30.6c20.2-14.5,33-23.9,38.7-28.3
		C680.9,194.1,693.3,184.3,712.1,167.9z"></path>
	<path class="stblack" d="M729.2,192.4c-20.4,14.4-33.8,22.8-39.9,26.6c-6.1,3.8-19.8,11.7-41.5,24c20.7-14,33.8-22.7,39.9-26.6
		C693.9,212.6,707.4,204.4,729.2,192.4z"></path>
	<path class="stblack" d="M685.4,171.3L612.9,234c19.4-15.6,31.7-25.6,37.1-30.3C655.5,199,667.4,188.6,685.4,171.3z"></path>
	<path class="stblack" d="M716.8,216.5c-22.5,10.8-36.4,18.3-42.7,21.8c-6.3,3.5-19.9,11.5-41.4,24.1L716.8,216.5z"></path>
	<path class="stblack" d="M763.3,227.8c-23.7,7.9-38.4,13.7-45,16.4c-6.7,2.7-21.1,9.1-43.8,19.4c23.5-8.3,38.3-13.7,45-16.4
		C726.2,244.5,740.8,238.5,763.3,227.8z"></path>
	<path class="stblack" d="M743.8,219.1c-23.1,9.3-37.5,16-43.9,19.1c-6.5,3.1-20.5,10.3-42.6,21.9c22.9-9.8,37.4-16.1,43.9-19.1
		C707.6,237.9,721.9,231.1,743.8,219.1z"></path>
	<path class="stblack" d="M755.3,247.6c-23.2,9.2-38.2,14.3-45,16.5c-6.8,2.2-22,6.7-45.9,13.7c23.3-8.8,38.1-14.2,45-16.5
		C716.1,259,731.2,254.1,755.3,247.6z"></path>
	<path class="stblack" d="M716.8,216.5l-84.1,45.9c22.2-11.2,36.3-18.4,42.7-21.8C681.7,237.2,695.6,229.6,716.8,216.5z"></path>
	<path class="stblack" d="M737.6,268.3c-24.4,5.1-39.7,9.1-46.7,10.9c-6.9,1.9-22.1,6.4-46,13.5L737.6,268.3z"></path>
	<path class="stblack" d="M780,291.2c-24.9,1.7-40.6,3.6-47.7,4.6c-7.1,1-22.7,3.6-47.3,7.8c24.8-2.2,40.6-3.7,47.7-4.6
		C739.8,298,755.5,295.9,780,291.2z"></path>
	<path class="stblack" d="M763.2,277.6c-24.7,3.4-40.3,6.4-47.3,7.8c-7.1,1.4-22.4,5-46.7,10.7c24.6-3.9,40.2-6.4,47.3-7.8
		C723.5,287,739,283.9,763.2,277.6z"></path>
	<path class="stblack" d="M767.2,308.5c-24.8,3.1-40.5,4.2-47.7,4.6c-7.2,0.4-23,0.9-47.9,1.6c24.8-2.5,40.5-4.1,47.7-4.6
		C726.5,309.6,742.3,308.7,767.2,308.5z"></path>
	<path class="stblack" d="M737.6,268.3L645,292.8c24.3-5.6,39.7-9.1,46.6-10.9C698.6,280,713.8,275.9,737.6,268.3z"></path>
	<path class="stblack" d="M744.9,324.1c-24.9-1.3-40.7-1.4-47.9-1.3c-7.2,0-23,0.5-47.9,1.3H744.9z"></path>
	<path class="stblack" d="M780,357.1c-24.5-4.8-40.2-6.9-47.3-7.8c-7.1-0.9-22.9-2.4-47.7-4.6c24.6,4.2,40.1,6.8,47.3,7.8
		C739.4,353.5,755.1,355.4,780,357.1z"></path>
	<path class="stblack" d="M767.2,339.7c-24.8-3.1-40.5-4.2-47.7-4.6c-7.2-0.4-23-0.9-47.9-1.6c24.8,2.5,40.5,4.1,47.7,4.6
		C726.5,338.6,742.3,339.6,767.2,339.7z"></path>
	<path class="stblack" d="M763.2,370.6c-24.7-3.4-40.3-6.4-47.3-7.8c-7.1-1.4-22.4-5-46.7-10.7c24.6,3.9,40.2,6.4,47.3,7.8
		C723.5,361.3,739,364.4,763.2,370.6z"></path>
	<path class="stblack" d="M744.9,324.1h-95.8c24.9,0.8,40.7,1.3,47.9,1.3C704.1,325.5,719.9,325.5,744.9,324.1z"></path>
	<path class="stblack" d="M737.6,379.9c-23.8-7.6-39-11.7-46-13.5c-7-1.8-22.4-5.4-46.6-10.9L737.6,379.9z"></path>
	<path class="stblack" d="M763.3,420.5c-22.5-10.7-37.2-16.7-43.9-19.4c-6.7-2.7-21.5-8-45-16.4c22.7,10.3,37.2,16.7,43.8,19.4
		C724.9,406.8,739.7,412.6,763.3,420.5z"></path>
	<path class="stblack" d="M755.3,400.6c-23.2-9.3-38.2-14.3-45-16.5c-6.8-2.2-22-6.7-45.9-13.7c23.3,8.8,38.1,14.2,45,16.5
		C716.1,389.2,731.2,394.2,755.3,400.6z"></path>
	<path class="stblack" d="M743.8,429.2c-23.1-9.3-37.5-16-43.9-19.1c-6.5-3.1-20.5-10.3-42.6-21.9c22.9,9.8,37.4,16.1,43.9,19.1
		C707.6,410.3,721.9,417.2,743.8,429.2z"></path>
	<path class="stblack" d="M737.6,379.9L645,355.5c23.9,7.1,39,11.6,46,13.5C697.9,370.9,713.2,374.9,737.6,379.9z"></path>
	<path class="stblack" d="M716.8,431.8c-21.2-13.1-35.1-20.7-41.4-24.2c-6.3-3.4-20.4-10.6-42.7-21.8L716.8,431.8z"></path>
	<path class="stblack" d="M732.8,476.6c-19.6-15.5-32.4-24.7-38.3-28.8c-5.9-4.1-19.1-12.7-40.2-26.1c19.8,15.1,32.5,24.6,38.3,28.8
		C698.5,454.6,711.5,463.6,732.8,476.6z"></path>
	<path class="stblack" d="M729.2,455.8c-20.4-14.4-33.8-22.8-39.9-26.6c-6.1-3.8-19.8-11.7-41.5-24c20.7,14,33.8,22.7,39.9,26.6
		C693.9,435.6,707.4,443.9,729.2,455.8z"></path>
	<path class="stblack" d="M712.1,480.4c-20.5-14.2-33-23.8-38.7-28.3c-5.7-4.4-17.8-14.5-36.9-30.6c20.2,14.5,33,23.9,38.7,28.3
		C680.9,454.1,693.3,463.9,712.1,480.4z"></path>
	<path class="stblack" d="M716.8,431.8l-84.1-45.9c21.5,12.7,35.1,20.7,41.4,24.1C680.4,413.5,694.4,421,716.8,431.8z"></path>
	<path class="stblack" d="M685.4,476.9c-18-17.3-29.9-27.7-35.4-32.3c-5.5-4.7-17.7-14.7-37.1-30.3L685.4,476.9z"></path>
	<path class="stblack" d="M692.4,523.5c-16.2-19-27-30.5-32-35.7c-5-5.2-16.3-16.3-34.3-33.5c16.4,18.7,27,30.5,32,35.7
		C663.1,495.2,674.1,506.5,692.4,523.5z"></path>
	<path class="stblack" d="M692.8,502.7c-17.1-18.2-28.4-29.2-33.7-34.1c-5.2-4.9-17-15.5-35.7-31.9c17.4,17.9,28.5,29.1,33.7,34.1
		C662.2,475.8,673.8,486.6,692.8,502.7z"></path>
	<path class="stblack" d="M671.7,522.9c-17.4-17.8-28-29.6-32.7-35.1c-4.7-5.4-14.8-17.6-30.4-37c17.2,18.1,27.9,29.7,32.7,35.1
		C646,491.3,656.3,503.3,671.7,522.9z"></path>
	<path class="stblack" d="M685.4,476.9l-72.5-62.6c18.3,17,29.9,27.6,35.4,32.3C653.7,451.3,665.7,461.6,685.4,476.9z"></path>
	<path class="stblack" d="M646.3,514.4c-14.6-20.2-24.4-32.6-28.9-38.2c-4.5-5.6-14.7-17.6-31-36.5L646.3,514.4z"></path>
	<path class="stblack" d="M645.5,561.2c-12.8-21.4-21.5-34.6-25.5-40.6c-4-5.9-13.3-18.8-28.1-38.8c13,21.3,21.5,34.6,25.5,40.6
		C621.5,528.4,630.4,541.4,645.5,561.2z"></path>
	<path class="stblack" d="M649.2,541c-13.7-20.9-22.9-33.7-27.2-39.5c-4.3-5.8-14-18.2-29.6-37.7c13.9,20.7,22.9,33.7,27.2,39.5
		C623.8,509.1,633.3,521.8,649.2,541z"></path>
	<path class="stblack" d="M625.5,557c-14.3-20.5-22.7-33.8-26.5-39.9c-3.8-6.1-11.7-19.8-23.9-41.5c14,20.6,22.7,33.8,26.5,39.9
		C605.3,521.6,613.5,535.1,625.5,557z"></path>
	<path class="stblack" d="M646.3,514.4l-59.9-74.7c14.8,20,24.4,32.6,28.9,38.2C619.7,483.5,629.7,495.8,646.3,514.4z"></path>
	<path class="stblack" d="M602,544.4c-11.2-22.3-18.9-36.1-22.4-42.3c-3.6-6.2-11.7-19.8-24.9-41L602,544.4z"></path>
	<path class="stblack" d="M594.4,590.3c-9.4-23.1-16.1-37.5-19.2-43.9c-3.1-6.5-10.3-20.6-22-42.6c9.7,23,16.1,37.4,19.2,43.9
		C575.5,554.2,582.5,568.4,594.4,590.3z"></path>
	<path class="stblack" d="M600.8,571c-10.3-22.7-17.4-36.8-20.8-43.2c-3.3-6.4-11-20.2-23.4-41.8c10.6,22.6,17.5,36.8,20.8,43.2
		C580.7,535.6,588.2,549.5,600.8,571z"></path>
	<path class="stblack" d="M575.4,583.1c-11.1-22.3-17.5-36.8-20.4-43.4c-2.8-6.6-8.7-21.3-17.6-44.6c10.9,22.4,17.5,36.8,20.4,43.4
		C560.6,545.1,566.8,559.7,575.4,583.1z"></path>
	<path class="stblack" d="M602,544.4l-47.3-83.3c11.5,22.1,18.9,36.1,22.4,42.3C580.7,509.7,588.6,523.3,602,544.4z"></path>
	<path class="stblack" d="M554.1,567.2c-7.9-23.6-13.6-38.4-16.2-45.1c-2.6-6.7-8.8-21.2-18.8-44.1L554.1,567.2z"></path>
	<path class="stblack" d="M540.5,611.5c-6.2-24.2-10.8-39.3-13-46.1c-2.2-6.8-7.4-21.8-15.9-45.2c6.5,24.1,10.8,39.3,13,46.1
		C526.7,573.2,531.7,588.2,540.5,611.5z"></path>
	<path class="stblack" d="M549.4,593.3c-7.1-23.9-12.2-38.9-14.6-45.7c-2.4-6.8-8.1-21.5-17.4-44.6c7.3,23.8,12.2,38.9,14.6,45.7
		C534.4,555.4,539.8,570.3,549.4,593.3z"></path>
	<path class="stblack" d="M522.8,601.8c-8-23.6-12.5-38.8-14.4-45.7c-1.9-6.9-5.8-22.2-11.5-46.5c7.8,23.7,12.4,38.8,14.4,45.7
		C513.2,562.1,517.3,577.4,522.8,601.8z"></path>
	<path class="stblack" d="M554.1,567.2l-35-89.2c8.2,23.5,13.6,38.4,16.2,45.1C537.9,529.8,543.8,544.4,554.1,567.2z"></path>
	<path class="stblack" d="M503.9,583.1c-4.8-24.5-8.4-39.9-10.1-46.8c-1.7-7-5.9-22.2-12.9-46.2L503.9,583.1z"></path>
	<path class="stblack" d="M484.8,625.3c-3.1-24.8-5.7-40.3-7-47.4c-1.3-7.1-4.5-22.5-10.1-46.8c3.4,24.7,5.8,40.3,7,47.4
		C476,585.5,479.1,601,484.8,625.3z"></path>
	<path class="stblack" d="M495.8,608.4c-3.9-24.6-7-40.1-8.6-47.1c-1.5-7-5.2-22.4-11.5-46.5c4.2,24.6,7.1,40.1,8.6,47.1
		C485.9,568.9,489.3,584.3,495.8,608.4z"></path>
	<path class="stblack" d="M468.6,613.3c-5-24.4-7.5-40-8.6-47.1c-1.1-7.1-3-22.8-5.6-47.6c4.7,24.5,7.5,40,8.6,47.2
		C464.1,572.9,466.2,588.5,468.6,613.3z"></path>
	<path class="stblack" d="M503.9,583.1l-23-93c5,24.4,8.4,39.9,10.1,46.8C492.7,543.9,496.7,559.2,503.9,583.1z"></path>
	<path class="stblack" d="M452.2,592.5c-1.7-24.9-3.4-40.6-4.3-47.7c-0.9-7.1-3.1-22.8-7.1-47.4L452.2,592.5z"></path>
	<path class="stblack" d="M428.3,632c-0.1-25-0.8-40.7-1.3-47.9c-0.4-7.2-1.8-22.9-4.3-47.7c0.4,24.9,0.9,40.7,1.3,47.9
		C424.4,591.5,425.5,607.3,428.3,632z"></path>
	<path class="stblack" d="M441.2,616.6c-0.9-24.9-2.1-40.7-2.7-47.8c-0.6-7.2-2.5-22.9-5.7-47.6c1.1,24.9,2.1,40.7,2.7,47.8
		C436.1,576.2,437.7,591.9,441.2,616.6z"></path>
	<path class="stblack" d="M413.7,618.2c-2-24.9-2.7-40.7-2.9-47.8c-0.2-7.2-0.3-23,0.1-47.9c1.8,24.9,2.7,40.7,2.9,47.8
		C414.1,577.5,414.3,593.3,413.7,618.2z"></path>
	<path class="stblack" d="M452.2,592.5l-11.3-95.1c2,24.9,3.4,40.6,4.3,47.7C446,552.2,448.1,567.9,452.2,592.5z"></path>
	<path class="stblack" d="M400,595.6c1.2-24.9,1.4-40.7,1.4-47.9c0-7.2-0.4-23-1.4-47.9V595.6z"></path>
</g>
</svg>
