<!--?xml version="1.0" encoding="utf-8"?-->
<!-- Generator: Adobe Illustrator 22.1.0, SVG Export Plug-In . SVG Version: 6.00 Build 0)  -->
<svg version="1.1" id="_x33_" xmlns="http://www.w3.org/2000/svg" xmlns:xlink="http://www.w3.org/1999/xlink" x="0px" y="0px" viewBox="0 0 800 531.8" style="enable-background:new 0 0 800 531.8;" xml:space="preserve">
<style type="text/css">
	.stblack{fill:#000000;}
	.st0{fill:#FFFFFF;}
</style>
<g>
	<polygon class="st0" points="713.8,422.1 667.2,374.2 694.8,383.1 673.7,357.9 682.2,359.6 726.3,222.4 719,222.1 778.7,183.6 
		716.1,192.4 724.7,185.9 746.6,167.9 705.3,176.1 709.5,169.1 638,101.9 627,104.2 650.1,69 621.8,82 663.3,27 585.3,83.2 
		593.1,70 607.2,43.5 560.2,74.8 563,65.9 439.8,48.9 249.6,62 248.3,71.2 204.2,30.4 217.6,66.9 224.3,80.3 152.4,15.8 199.4,89.1 
		186.9,83.7 116.4,138.2 121.1,148.8 81.3,132.7 115.1,164.6 85.2,153.8 102.4,176.8 95.4,175.4 91.8,255.1 102.4,258 21.3,293 
		98.8,282.1 82.8,289.7 63.5,300.9 96.6,299.7 93.7,305.4 179.8,399 188.6,394.6 171.6,419.6 190.9,411.1 205.9,405.8 165.8,461.5 
		223.3,423.3 210.9,446.3 254,424.7 251.9,433.4 410.7,429.1 409.2,418.3 536.5,516 482.5,412.5 499.8,420.6 637.6,398.1 
		630.6,390.2 	"></polygon>
	<path class="stblack" d="M713.3,419.8c-15.5-16-31-31.9-46.6-47.9c0.4,1.6,0.9,3.2,1.3,4.8c9.2,3,18.4,5.9,27.5,8.9c1.1,0.3-0.7-4.1-1-4.4
		c-7-8.4-14.1-16.8-21.1-25.2c0.3,1.5,0.7,3,1,4.4c2.8,0.6,5.7,1.1,8.5,1.6c0.2,0.1,0.3,0,0.4-0.1c12.9-40,25.7-79.9,38.6-119.9
		c1.9-5.8,3.7-11.5,5.6-17.3c0.3-1.1-0.8-4.8-2.2-4.8c-2.5-0.1-4.9-0.2-7.4-0.3c0.7,1.7,1.3,3.3,2,5c19.9-12.8,39.8-25.7,59.8-38.5
		c0.9-0.6-0.9-5.2-2-5c-20.9,2.9-41.7,5.9-62.6,8.8c0.7,1.7,1.3,3.3,2,5c10.4-7.8,20.4-16.2,30.5-24.4c0.9-0.7-0.9-5.2-2-5
		c-13.8,2.7-27.5,5.4-41.3,8.2c0.7,1.6,1.4,3.2,2.2,4.8c1.4-2.3,2.8-4.7,4.1-7c0.6-1.1-0.9-3.9-1.7-4.6
		c-14.3-13.5-28.6-26.9-43-40.4c-8-7.6-16.1-15.1-24.1-22.7c-1.1-1-2.9-3.6-4.4-4.1c-2.8-1-8.6,1.5-11.5,2.2
		c0.7,1.6,1.4,3.2,2.2,4.8c7.7-11.8,15.4-23.5,23.1-35.3c0.5-0.7-1.2-5.3-2.2-4.8c-9.4,4.3-18.9,8.7-28.3,13
		c0.7,1.6,1.4,3.2,2.2,4.8c13.8-18.3,27.6-36.6,41.5-54.9c0.6-0.8-1.5-5.3-2.2-4.8c-26,18.7-52,37.4-77.9,56.1
		c0.7,1.6,1.4,3.2,2.2,4.8c7.7-13,14.8-26.3,21.9-39.7c0.4-0.8-1.4-5.4-2.2-4.8c-15.7,10.4-31.4,20.9-47.1,31.3
		c0.7,1.6,1.4,3.2,2.2,4.8c0.9-3,1.9-5.9,2.8-8.9c0.3-1-0.7-4.7-1.9-4.8c-20.3-2.8-40.6-5.6-60.9-8.4c-14-1.9-28-3.8-42-5.8
		c-6.7-0.9-13.6-2.5-20.3-2.8c-14.5-0.6-29.7,2-44.1,3c-29.7,2-59.3,4.1-89,6.1c-19.1,1.3-38.2,2.6-57.3,3.9
		c-0.2,0.1-0.2,0.3-0.2,0.5c-0.3,1.7-0.2,7.9-1.3,9c0.6-0.6-0.7-1.3-1.8-2.3c-5-4.6-9.9-9.2-14.9-13.8c-8.9-8.2-17.8-16.5-26.7-24.7
		c-1.2-1.1-0.2,2.3-0.1,2.6c6.3,17.2,12.2,34.1,20.4,50.5c0-1.1-0.1-2.1-0.1-3.2c-24-21.5-47.9-43-71.9-64.5
		c-1.2-1.1,0.2,3.4,0.5,3.8c15.7,24.5,31.3,48.9,47,73.4c-0.2-1.3-0.5-2.7-0.7-4c-4.2-1.8-8.3-3.6-12.5-5.4l-0.2,0
		c-23.5,18.2-47,36.3-70.5,54.5c-0.6,0.5,0.1,2.3,0.3,2.8c1.6,3.5,3.1,7.1,4.7,10.6c0-0.9-0.1-1.8-0.1-2.8
		c-13.2-5.3-26.5-10.7-39.7-16c-0.9-0.4,0.8,4.3,1.3,4.8c11.3,10.6,22.5,21.2,33.8,31.9c-0.4-1.6-0.9-3.2-1.3-4.8
		c-10-3.6-19.9-7.2-29.9-10.8c-1.1-0.4,0.8,4.1,1,4.4c5.7,7.7,11.5,15.3,17.2,23c-0.3-1.5-0.7-3-1-4.4c-2.3-0.5-4.6-1-7-1.5
		c-0.3-0.1-0.4,0.2-0.4,0.5c-1.2,26.6-2.4,53.2-3.6,79.8c0,1.1,0.8,4.2,2,4.5c3.5,1,7,1.9,10.5,2.9c-0.6-1.7-1.2-3.3-1.8-5
		c-27,11.7-54.1,23.3-81.1,35c-1,0.4,0.9,5.2,2,5c25.8-3.6,51.7-7.3,77.5-10.9c-0.7-1.7-1.3-3.3-2-5c-12.1,5.8-23.6,12-35.2,18.7
		c-1,0.6,0.9,5,2,5c11-0.4,22.1-0.8,33.1-1.2c-0.7-1.6-1.4-3.2-2.2-4.8c-1,1.9-1.9,3.8-2.9,5.7c-0.6,1.2,0.9,3.8,1.7,4.6
		c25.1,27.3,50.1,54.6,75.2,81.8c3.6,3.9,7.2,7.9,10.8,11.8c0.1,0.2,0.3,0.2,0.5,0.2c2.9-1.5,5.9-3,8.9-4.5
		c-0.7-1.6-1.4-3.2-2.2-4.8c-5.7,8.3-11.4,16.7-17.1,25c-0.5,0.7,1.2,5.3,2.2,4.8c11.4-5,22.6-9.6,34.3-13.8
		c-0.7-1.6-1.4-3.2-2.2-4.8c-13.4,18.6-26.7,37.1-40.1,55.7c-0.6,0.8,1.4,5.3,2.2,4.8c19.2-12.7,38.4-25.5,57.5-38.2
		c-0.7-1.6-1.4-3.2-2.2-4.8c-4.2,7.7-8.3,15.3-12.5,23c-0.4,0.8,1.2,5.3,2.2,4.8c14.4-7.2,28.7-14.4,43.1-21.5
		c-0.7-1.6-1.4-3.2-2.2-4.8c-0.7,2.9-1.4,5.7-2.2,8.6c-0.3,1,0.8,4.9,2.2,4.8c46.4-1.2,92.8-2.5,139.2-3.7
		c6.6-0.2,13.1-0.4,19.7-0.5c0.3,0,0.2-0.9,0.2-0.9c-0.4-2.7-0.3-6-1.1-8.6c-0.7-2.1-1.3-1.7-0.4-1.1c2.3,1.5,4.4,3.3,6.5,5
		c9.7,7.4,19.3,14.9,29,22.3c24.5,18.8,48.9,37.6,73.4,56.4c5.9,4.6,11.9,9.1,17.8,13.7c1.3,1,0-2.9-0.1-3.2
		c-18-34.5-35.9-69-53.9-103.5c0.1,1.1,0.3,2.3,0.4,3.4c6,2.8,13.2,8.5,19.9,7.7c9.2-1.1,18.4-3,27.6-4.5c28.6-4.7,57.2-9.3,85.7-14
		c7.4-1.2,14.7-2.4,22.1-3.6c1.1-0.2-1.2-4.4-1.5-4.8c-2.4-2.6-4.7-5.2-7.1-7.8c0.4,1.6,0.9,3.2,1.3,4.8
		c27.7,10.6,55.5,21.2,83.2,31.9c0.6,0.2-0.2-4.4-1.6-5c-27.7-10.6-55.5-21.2-83.2-31.9c-1.1-0.4,0.9,4.4,1.3,4.8
		c2.4,2.6,4.7,5.2,7.1,7.8c-0.5-1.6-1-3.2-1.5-4.8c-44.1,7.2-88.2,14.4-132.4,21.6c-1.6,0.3-4.2,1-5.6,0.8c-5.5-0.9-11.9-5.5-17-7.9
		c-0.9-0.4,0.3,3.2,0.4,3.4c18,34.5,35.9,69,53.9,103.5c0-1.1-0.1-2.1-0.1-3.2c-37.1-28.5-74.3-57.1-111.4-85.6
		c-5.3-4-10.5-8.1-15.8-12.1c-0.6-0.5-0.7,0.2-0.7,0.7c0.4,2.9,0.7,5.7,1.1,8.6c0.5,2.7,0.9,1-0.2,1.3c-2.3,0.6-5.5,0.1-7.9,0.2
		c-12,0.3-24,0.6-36,1c-30.7,0.8-61.3,1.6-92,2.5c-7.4,0.2-14.8,0.4-22.2,0.6c0.7,1.6,1.4,3.2,2.2,4.8c0.7-2.9,1.4-5.7,2.2-8.6
		c0.2-0.7-1.1-5.4-2.2-4.8c-14.4,7.2-28.7,14.4-43.1,21.5c0.7,1.6,1.4,3.2,2.2,4.8c4.2-7.7,8.3-15.3,12.5-23
		c0.4-0.8-1.4-5.4-2.2-4.8c-19.2,12.7-38.4,25.5-57.5,38.2c0.7,1.6,1.4,3.2,2.2,4.8c13.4-18.6,26.7-37.1,40.1-55.7
		c0.5-0.7-1.1-5.2-2.2-4.8c-11.7,4.1-22.9,8.8-34.3,13.8c0.7,1.6,1.4,3.2,2.2,4.8c5.7-8.3,11.4-16.7,17.1-25
		c0.5-0.7-1.3-5.3-2.2-4.8c-1.9,1-7.9,4.6-8.6,4.4c-1.3-0.4-3.2-3.5-4.1-4.4c-6.3-6.9-12.7-13.8-19-20.7
		c-16.8-18.3-33.7-36.7-50.5-55c-4.1-4.4-8.1-8.8-12.2-13.3c0.6,1.5,1.1,3.1,1.7,4.6c1-1.9,1.9-3.8,2.9-5.7c0.5-0.9-0.9-4.9-2.2-4.8
		c-11,0.4-22.1,0.8-33.1,1.2c0.7,1.7,1.3,3.3,2,5c11.6-6.7,23.1-13,35.2-18.7c1-0.5-0.9-5.2-2-5c-25.8,3.6-51.7,7.3-77.5,10.9
		c0.7,1.7,1.3,3.3,2,5c27-11.7,54.1-23.3,81.1-35c1-0.4-0.9-4.7-1.8-5c-3.5-1-7-1.9-10.5-2.9c0.7,1.5,1.3,3,2,4.5
		c0.7-15,1.3-29.9,2-44.9c0.4-9.1,0.8-18.2,1.2-27.3c0.1-1.5-0.5-5.4,0.3-6.8c0.8-1.4-1.2,0.3,0.7-0.1c1.5-0.3,4.3,0.9,5.9,1.2
		c1.2,0.3-0.8-4.1-1-4.4c-5.7-7.7-11.5-15.3-17.2-23c0.3,1.5,0.7,3,1,4.4c10,3.6,20,7.2,29.9,10.8c1,0.4-0.8-4.3-1.3-4.8
		c-11.3-10.6-22.5-21.2-33.8-31.8c0.4,1.6,0.9,3.2,1.3,4.8c13.2,5.3,26.5,10.7,39.7,16c0.9,0.4-0.1-2.6-0.1-2.8
		c-1.6-3.5-3.1-7.1-4.7-10.6c0.1,0.9,0.2,1.8,0.3,2.8c14.4-11.1,28.7-22.2,43.1-33.3c7.9-6.1,15.8-12.2,23.8-18.4
		c0.8-0.6,2.8-2.7,3.6-2.8c1.5-0.2,5.4,2.3,6.7,2.9c1.9,0.8,3.8,1.6,5.6,2.4c1,0.4-0.5-3.7-0.7-4c-15.7-24.5-31.3-48.9-47-73.4
		c0.2,1.3,0.3,2.5,0.5,3.8c24,21.5,47.9,43,71.9,64.5c1.2,1.1,0-2.9-0.1-3.2c-4.1-8.1-6.6-13.3-9.6-21.4
		c-3.4-9.3-6.8-18.5-10.2-27.8c0,0.9-0.1,1.7-0.1,2.6c14.7,13.6,29.4,27.2,44.1,40.7c0.4,0.4,0.6,0.2,0.7-0.3c0.4-2.9,0.3-8,1.9-8.8
		c1.6-0.8,5.1-0.3,6.8-0.5c10.1-0.7,20.2-1.4,30.2-2.1c29.9-2,59.7-4.1,89.6-6.1c20.3-1.4,40.7-3.6,61-4.2c3.5-0.1,7.7,0.7,11.7,1.3
		c12.9,1.8,25.8,3.5,38.7,5.3c24.8,3.4,49.5,6.8,74.3,10.2c-0.6-1.6-1.3-3.2-1.9-4.8c-0.9,3-1.9,5.9-2.8,8.9
		c-0.2,0.7,1.2,5.4,2.2,4.8c15.7-10.4,31.4-20.9,47.1-31.3c-0.7-1.6-1.4-3.2-2.2-4.8c-7.1,13.4-14.2,26.7-21.9,39.7
		c-0.5,0.8,1.4,5.4,2.2,4.8c26-18.7,52-37.4,77.9-56.1c-0.7-1.6-1.4-3.2-2.2-4.8c-13.8,18.3-27.6,36.6-41.5,54.9
		c-0.6,0.7,1.2,5.3,2.2,4.8c9.4-4.3,18.9-8.7,28.3-13c-0.7-1.6-1.4-3.2-2.2-4.8c-7.7,11.8-15.4,23.5-23.1,35.3
		c-0.5,0.8,1,5.1,2.2,4.8c2.5-0.5,9.4-2.9,10.8-2.3c1.8,0.6,4.2,4,5.5,5.2c8.1,7.6,16.2,15.2,24.2,22.8c13.8,13,27.6,26,41.4,39
		c-0.6-1.5-1.1-3.1-1.7-4.6c-1.4,2.3-2.8,4.7-4.1,7c-0.5,0.8,1,5.1,2.2,4.8c13.8-2.7,27.5-5.4,41.3-8.2c-0.7-1.7-1.3-3.3-2-5
		c-10.1,8.3-20.1,16.6-30.5,24.4c-0.9,0.7,0.9,5.2,2,5c20.9-2.9,41.7-5.9,62.6-8.8c-0.7-1.7-1.3-3.3-2-5
		c-19.9,12.8-39.8,25.7-59.8,38.5c-1,0.7,0.9,4.9,2,5c2.5,0.1,4.9,0.2,7.4,0.3c-0.7-1.6-1.4-3.2-2.2-4.8c-13.5,42-27,84-40.5,125.9
		c-0.9,2.8-1.5,7.3-3.2,9.8c-0.2,0.3-0.6,1.4-0.3,1.2c-1.3,0.7-6.6-1.3-8.3-1.6c-1.2-0.2,0.7,4.1,1,4.4c7,8.4,14.1,16.8,21.1,25.2
		c-0.3-1.5-0.7-3-1-4.4c-9.2-3-18.4-5.9-27.5-8.9c-1.1-0.4,0.9,4.3,1.3,4.8c15.5,16,31,31.9,46.6,47.9
		C715.2,425.3,714.1,420.7,713.3,419.8z"></path>
</g>
</svg>
