<!--?xml version="1.0" encoding="utf-8"?-->
<!-- Generator: Adobe Illustrator 22.1.0, SVG Export Plug-In . SVG Version: 6.00 Build 0)  -->
<svg version="1.1" id="_x34_" xmlns="http://www.w3.org/2000/svg" xmlns:xlink="http://www.w3.org/1999/xlink" x="0px" y="0px" viewBox="0 0 549.3 800" style="enable-background:new 0 0 549.3 800;" xml:space="preserve">
<style type="text/css">
	.st0{fill:#FFFFFF;}
</style>
<g>
	<polygon points="276.1,723.2 271.9,721.7 267.8,719.6 263.8,718.3 259.7,717.3 255.1,720.8 251.6,716.4 247.2,717.6 242.7,718.6 
		239.5,714.3 234.6,716.1 230.8,714.2 227.4,711.6 223.8,709.4 220.9,706.2 217.3,704.2 212.2,704.4 208,702.8 206.2,698.4 
		204.8,694 201.1,691.8 198.5,688.5 198,689.3 193.8,689 189.6,689.6 185.7,687 181.9,684.9 177.1,688 173,687.1 169.3,684.6 
		166.3,680.7 162.4,679.6 158.3,678.9 153.5,679.4 151.3,674.6 146.6,674.5 142.1,673.9 140.1,669.3 138,665.1 131.8,666.6 
		129.2,663.2 127.9,658.1 124.7,655.6 120,654.7 118.1,650.7 113.1,650 111.1,646 107.5,643.8 105.4,640 101.8,637.7 101.2,632.8 
		97.9,630.1 95.4,626.8 92.8,623.6 90.4,620.3 88.4,616.6 87.5,612.1 82,610.7 81.1,606.3 79.4,602.4 76.4,599.3 74.8,595.4 
		71.2,592.5 69.7,588.6 69.1,584.1 64.8,581.6 67.4,575.6 62.7,573.2 63,568.4 58,566.1 56.4,562.2 54.2,558.5 56.4,553.1 
		52.3,550.2 49.8,546.6 50.5,541.8 47.7,538.4 46.5,534.3 45.9,530.1 44.2,526.2 43.9,521.9 42.7,517.9 40,514.3 39.6,510 
		40.7,505.3 35,502.6 36.4,497.8 34.9,493.9 32.6,490.1 31.4,486 31.2,481.8 29.8,477.7 31.9,473 28.6,469.4 27.9,465.2 28.5,460.8 
		27.2,456.8 28.8,452.2 28,448.1 22.8,444.7 22.9,440.4 25.9,435.7 22.7,431.9 21.7,427.8 24.1,423.2 20.4,419.5 18.3,415.5 
		19.3,411.1 22,406.6 17.4,402.8 21,398.2 19.1,394.2 17.1,390.1 18.4,385.8 17.8,381.6 16.9,377.5 14.3,373.4 14.2,369.2 
		17.6,364.7 14.1,360.7 14.9,356.4 15.4,352.2 15,348 15.9,343.7 17.1,339.5 13.7,335.4 17.5,331.1 16.5,326.9 15,322.7 14.5,318.5 
		14.9,314.3 16.3,310.1 17.4,305.9 17,301.7 15.7,297.4 16.2,293.3 14.3,288.9 17.4,284.9 18.1,280.7 16.8,276.4 15.6,272.1 
		18.5,268.1 16.3,263.6 20.1,259.8 17.9,255.3 22.3,251.7 22,247.4 20.5,242.9 23.9,239.2 22.2,234.6 21.6,230.2 24.8,226.5 
		27.7,222.8 26.3,218.3 29.5,214.7 28.4,210.1 31.3,206.5 30.8,202 29.2,197.3 31.6,193.5 34.5,190 32.4,185 34.1,181.1 37.6,177.8 
		36.7,173 39,169.4 40.5,165.4 43.8,162.2 47,159 45,153.6 46.9,149.9 49.9,146.6 53.5,143.7 52.6,138.7 56.1,135.8 59.2,132.7 
		56.8,126.7 60.7,124 61,119.3 63.2,115.7 66.1,112.6 70.5,110.5 74,107.8 73.4,102.3 74.9,98.2 78.2,95.5 81.1,92.4 83.1,88.5 
		86.5,85.9 92,85.3 93.3,80.8 97.1,78.7 100.5,76.3 101.7,71.5 103.3,67 108.3,66.4 110.9,63 114.4,60.6 118.7,59.5 122.2,57.2 
		125.9,55.2 129.4,53.1 131,47.9 134.3,45.1 139.9,46.6 143.1,43.7 146.8,41.8 151.2,41.5 154,37.5 158.8,38.3 161,32.5 165,31 
		170.4,34.1 174.2,32.4 177.6,29.1 181.8,28.7 186.2,29.3 190.2,28.5 194.1,26.6 198,24.9 202.5,26.8 206.4,24.6 210.5,24.5 
		214.4,21.7 218.5,21.1 222.7,21.6 226.8,20 231,22 235.1,23.2 239.3,23.5 243.5,20.2 247.6,22.3 251.9,20.3 255.9,23 260,24.2 
		264.5,21.7 268.4,24.3 272.9,22.2 276.5,26.4 280.9,25.1 285.5,23.8 289.1,27.1 293.3,27.4 296.7,31.1 301,30.9 305.1,31.9 
		309.7,31.5 313.1,34.5 317.7,34.2 321.1,36.9 324.4,39.9 329.3,39.4 331.2,44.9 334.8,46.9 339.7,46.6 343.1,49.1 345.7,52.9 
		351.2,52 353.7,55.8 356.7,58.8 361,60 364.5,62.4 366.6,66.4 370.4,68.3 372.5,72.3 378.2,72.3 379,77.5 381.6,80.8 386,82.5 
		387.2,87 392.4,88.2 394.5,91.9 394.6,97.2 398,99.9 400.8,103.1 404.4,105.8 404.8,110.5 407.5,113.8 409.7,117.4 409.9,122 
		411.8,125.8 413.1,129.7 415.9,133.1 416.9,137.2 417.8,141.3 422.4,144.1 423.1,148 424.3,147 428.4,149.6 432.6,149.7 
		436.9,149.4 441.2,149.4 444.3,153.9 449,152.9 452.6,155.1 456.7,156.4 459.5,159.9 462.1,163.3 468.2,162.2 471.7,164.7 
		473.9,168.7 477.9,170.7 478.6,175.8 481.4,178.8 485.9,180.7 488.1,184.4 490.2,188.1 493.6,191 494.8,195.2 496.5,199.1 
		499.4,202.4 501.7,206 502,210.5 503.8,214.3 504.5,218.6 506.9,222.2 507.3,226.5 507.5,230.9 510.6,234.3 511.6,238.3 
		512.1,242.6 511.7,247 516.9,249.9 513.9,255 518.6,258.1 515.9,263.1 521,266.2 520.4,270.6 519.9,275 523.5,278.5 524.1,282.7 
		522.9,287.1 524.2,291.2 526.6,295 525.2,299.5 524.2,303.8 524.7,308 524.8,312.2 527.4,316.1 527.8,320.2 528,324.4 528.1,328.6 
		529,332.7 531.3,336.7 531.5,340.9 529.3,345.3 529.7,349.5 529.5,353.7 532.9,357.6 530.3,362 532.3,366.1 533,370.2 534.5,374.3 
		531.1,378.7 530.5,382.9 533.3,386.9 532.2,391.2 534.1,395.3 530.6,399.5 531.6,403.7 534.1,407.8 534.5,412 534.1,416.2 
		535,420.4 531.6,424.5 533.8,428.7 535.6,432.9 532.8,437 531.3,441.1 532.8,445.3 535,449.5 534.8,453.7 532.1,457.7 534.6,462 
		530.5,465.9 533,470.2 531.1,474.2 529.6,478.3 532.5,482.6 530.3,486.6 531.7,490.9 530.3,494.9 528.6,498.9 529,503.1 526.8,507 
		528.8,511.4 528.3,515.6 525.5,519.3 525.2,523.6 527.1,528.3 524.4,532.2 526.5,537 525.4,541.2 519.8,544.3 520.1,548.8 
		519.5,553.1 516.7,556.5 515.2,560.5 514.4,564.8 513.5,569 512.2,573.1 511.6,577.3 512.8,582.2 510,585.9 510,590.5 507.8,594.3 
		504.2,597.4 500.6,600.3 498.8,604.2 496.7,607.9 494.1,611.2 494.6,616.8 489.8,618.6 486.3,621.2 487.1,627.5 482.8,629.5 
		478,630.6 477.3,635.7 472.1,636.1 471.6,641.8 467.3,643 465.2,647.2 460,647 456.2,648.5 454.4,653.5 449.1,652.3 447.6,658.5 
		443.4,659.4 439.1,659.9 434.6,659.2 431,661.8 426.6,660.2 422.7,660.9 418.8,662 414.8,663.7 414.7,665.8 410.5,663.1 
		406.2,663.7 401.4,660.7 400.4,666.5 396.8,669.1 395.3,673.4 390.6,674.8 388.8,679 384.8,680.9 382.4,684.6 380.4,689 
		376.6,691.1 371.2,690.7 367.7,693.1 365.3,697.1 362.2,700.3 358.2,701.8 353.4,701.8 351,706.6 346.7,707.5 341.4,705.9 
		337.9,708.3 334.3,710.8 330.9,714.3 326.2,713.4 322.6,716.2 318.2,716.4 313.5,714.7 309.3,715.2 305.4,717.1 301.2,717.8 
		297.2,719.4 292.8,718.4 288.8,720.8 284.5,719.4 280.3,719.6 274,719.6 	"></polygon>
	<polygon class="st0" points="407.2,170 406.7,164 408.1,159.6 408.7,155.1 407.5,151 405.4,147.2 401.1,144.3 402.8,139.2 
		399.5,136 397.8,132.2 396.5,128.2 393.6,125.1 390.3,122.2 390.3,117.3 389.3,113 384.5,111.2 383.6,106.7 378.8,105.1 
		375.8,102.2 374.6,97.8 370.5,96 369.7,91 366.4,88.4 363.1,85.8 361.2,81.6 357.1,80 353.9,77.3 351.3,73.8 348.1,71.2 
		342.8,71.4 341.6,65.7 337.4,64.5 334.1,61.9 329.5,61.4 325.9,59.4 321.4,59.2 319.1,54.4 315.8,51.3 311.1,51.7 307.5,49.4 
		302.9,49.9 298.4,50.2 295.9,44.2 291.5,44.4 287.1,44.7 282.9,44.5 279.2,41.9 274.5,44.5 270.5,43.3 266.5,42.1 262.3,42.7 
		258.3,40.6 254.1,40.9 250.1,38.4 246,36.7 241.8,36.4 237.5,37.4 233.3,36.8 229.2,38.8 225.2,41.9 221,41.7 216.8,40.3 
		212.5,39.6 208.2,39.1 204.4,42.5 200.2,42.5 195.9,42.2 192.5,46 187.7,43.8 184.3,47.2 179.9,47.1 175.7,47.5 171.2,47.3 
		168,50.9 164.3,52.9 159.6,52.5 155.7,54 152.8,57.7 148.4,58.3 145.8,62.2 140.8,62.1 138.7,66.5 133.9,66.8 132.4,72 128.9,74.2 
		123.4,73.9 121.1,77.7 119.6,82.3 116.2,84.7 112.2,86.5 109.1,89.4 104.7,90.9 103.1,95.1 99.2,97.2 97.4,101.2 93.2,103.3 
		93.1,108.5 90.3,111.6 89.3,115.9 86,118.7 84.5,122.7 81.4,125.6 77.5,128.1 75.2,131.6 72.6,135 71.8,139.3 72.1,144.2 
		69.4,147.5 68.9,151.8 65.2,154.7 61,157.4 60.7,161.9 61.1,166.5 58.6,170 55.7,173.4 56.4,178.1 52.9,181.3 51.6,185.3 
		50.5,189.3 48.5,193.1 47.8,197.2 50.3,202.3 46.9,205.7 45.6,209.6 44,213.5 43.3,217.7 44,222.1 40.9,225.7 43.8,230.6 42,234.4 
		37.7,237.9 38.6,242.3 38.9,246.6 37.7,250.7 39.1,255.1 37.4,259 36.8,263.2 34.2,267.1 33.7,271.2 36,275.7 33.1,279.6 
		32.1,283.7 36.6,288.2 33.6,292.2 33.3,296.4 33.4,300.6 30.8,304.6 34.6,308.9 35.3,313.1 34,317.3 31.4,321.4 31.3,325.6 
		33.5,329.8 31.5,334 31.6,338.1 34.9,342.3 32.3,346.5 31.4,350.7 32.7,354.8 34.5,358.9 34.3,363.1 33.2,367.4 32.6,371.6 
		34.6,375.7 36.1,379.7 35.6,384 35,388.2 33.9,392.5 35.9,396.5 37.3,400.6 36.6,404.9 37.6,409 39.9,412.9 37,417.4 39.7,421.3 
		41,425.3 41.3,429.4 39.2,433.9 41.6,437.7 43.5,441.6 45.4,445.5 44.2,449.9 43.4,454.3 43.1,458.6 43.7,462.7 44.7,466.8 
		49.5,470 47.4,474.7 51.1,478.1 51.9,482.2 50.3,486.9 53.3,490.4 52.7,494.8 53.1,499 56,502.6 56.6,506.7 55.5,511.4 59.7,514.4 
		61.2,518.3 62.8,522.2 62.6,526.6 66.7,529.6 65.3,534.5 66,538.7 66.6,542.9 72.4,545.1 72.4,549.5 75.5,552.7 74.3,557.8 
		76.1,561.5 76.9,565.8 80.5,568.6 80.8,573.1 85,575.7 86.3,579.7 88.1,583.4 90.9,586.6 90.6,591.6 95.3,593.6 97.9,596.8 
		99.2,600.9 98.8,606.2 101.2,609.6 105.2,611.9 106.4,616.2 109.3,619.2 114.8,620.1 117.4,623.4 118.8,627.6 121.6,630.7 
		122.9,635.1 125.8,638.2 129.5,640.4 133.2,642.5 135.9,645.7 138.7,648.9 143.2,649.9 147.6,650.9 150.4,654 153.5,656.8 
		156.5,659.8 159.4,663.3 165.1,661 168,664.6 171.4,667.3 175.6,668.1 179.3,670.4 183.5,670.6 187.6,672.1 191.9,670.8 196,673.6 
		200.2,672.3 204.2,670.3 208.2,670.8 210.3,674.2 214.3,676.5 213.2,682.3 217.4,684.3 220.8,686.6 225.1,687.7 227.4,691.5 
		230.4,694.7 234.9,694.8 237.8,698.6 242.4,698.3 246.8,697.6 250.1,701.4 254.5,701 258.4,702.7 262.7,701.3 266.6,705.3 
		270.9,702.6 275,702.7 279.1,701.6 283.2,701.4 287.3,700.8 291.9,705 296,703.7 299.8,700.9 304.1,701.3 307.9,699.5 312.1,699.2 
		316,697.7 319.6,695.1 324,695.5 328.3,695.1 331.4,691.5 335.4,690.5 339.9,690.5 343,687.3 346.3,684.7 350.6,684.1 355.1,683.6 
		357.4,679.4 362.1,679 363.6,674 366.9,671.5 372.4,671.7 376.3,669.7 376.2,663.7 381.9,663.3 382.5,658.4 385,655.1 387.1,651.6 
		388.2,647.5 393.5,645.6 394.5,642.8 396.9,644.7 402.2,642.3 405,647.7 409.5,646.7 413.7,645.5 417.8,646.6 421.7,644.9 
		425.4,643.1 429.8,643.9 434.3,644.3 438.3,642.9 441.9,640.7 446.2,639.7 449.7,637.3 451.4,632.4 455.2,630.7 459.6,629.6 
		460.8,624.7 465.4,623.5 468.9,621.1 471.5,617.8 472.3,613.1 474.7,609.7 477.3,606.5 482,604.8 482.8,600.4 483.9,596.2 
		485.2,592.3 487.9,589.1 489.2,585.2 493.7,582.6 495.7,578.8 495.6,574.4 495.8,570.2 494.4,565.7 498.6,562.2 499.7,558.9 
		499.8,554.5 499.6,550 505.6,547.7 504.5,543 507.9,539.5 505.9,534.7 509.9,531.3 510.3,527.1 507.9,522.4 510.2,518.6 
		508.6,514.1 511.4,510.3 510.1,505.9 513.7,502.1 512.7,497.8 510.5,493.4 514.3,489.6 511.6,485.1 514.9,481.2 516.5,477.1 
		512.1,472.6 513.3,468.5 517.1,464.6 515.8,460.3 513.2,456 513.4,451.8 517,447.8 517.8,443.6 517.9,439.5 516.1,435.2 513.5,431 
		515.9,426.9 517.2,422.7 515.8,418.5 514.2,414.3 514.9,410.2 515.4,406 515.8,401.8 514.7,397.6 516.8,393.4 516.7,389.2 
		517.1,385 513.3,381 514.3,376.8 516.6,372.5 515.5,368.3 514.3,364.2 516.5,359.9 513.1,355.9 514.2,351.6 514.1,347.4 
		512.4,343.4 510.5,339.4 513,334.9 509.8,331 510.7,326.7 510.8,322.5 508.2,318.6 511.9,313.9 508.7,310.1 511,305.6 510.2,301.4 
		506.8,297.7 508.9,293.1 507.3,289.1 503.6,285.6 503.1,281.4 503.2,277.1 503.7,272.7 502.3,268.7 503.2,264.2 497.2,261.4 
		499.8,256.4 496.3,253 496.6,248.6 493,245.3 492.4,241.1 491.2,237.2 493,232.1 489.1,229.1 489.2,224.6 486.9,220.9 486.4,216.6 
		482.9,213.6 480.2,210.3 477.5,207 479.5,201.1 476.1,198.2 474,194.5 468.5,193.3 467.1,189.2 465.2,185.3 462.3,182.3 
		457.6,181.4 456.5,176.2 452,175.3 449,172.3 445.4,170.2 440.9,170.2 436.9,169.7 433.5,165.9 429.3,165.8 425,167.1 420.9,166.6 
		416.7,166.2 412.1,164.6 	"></polygon>
	<polygon points="431.9,734.3 427.6,736 423.2,736.6 419.8,732.2 414.6,734.3 411.8,730.2 407.3,729.3 405.5,724.8 401.7,722.5 
		398.5,719.4 399.5,714.2 395.7,711.2 394.1,707 395,702.6 397.9,698.6 399.3,694.8 398.2,690.2 402,687.4 401,681.8 405.1,679.6 
		408.1,676.7 411.5,674.2 414.6,671.2 417.7,667.7 421.9,666.3 426.1,664.7 430.7,665.7 435,667.5 439,667.4 443.5,664.7 
		446.8,668.7 451.7,666.9 454.4,670.9 458.7,671.7 459.9,676.8 464.7,677.5 466,681.6 470,683.8 472.4,687.3 472,691.8 471,696 
		472.2,699.6 471.7,703.5 471.8,707.4 473,712 472.4,716.5 468.4,719.1 464.4,721 464.1,726.6 458.5,726.2 455,727.9 452.9,733.1 
		448.9,734.7 444,732.1 440.3,734.4 436.2,735.2 431.7,735.3 	"></polygon>
	<polygon class="st0" points="435,680.9 438.9,681.9 443.4,679.4 446.8,682.3 450.6,683.8 454,686.1 458,688.1 460.1,692 458.2,697 
		462.9,700.4 460.1,704.4 459,708.2 455.3,710.4 455.6,716.5 449.6,715 447.7,720.6 442.8,718.6 439.1,721 435.2,723.9 430.8,722.6 
		426.6,721.4 422,722 419.3,717.4 415.3,716.2 411.9,713.6 412,709.1 407.9,706 411.2,701.8 411.7,698.1 410.7,693.4 411.8,689 
		416.6,687.6 417.7,682 421.9,680.2 426.5,679.8 430.5,677.5 	"></polygon>
	<polygon points="490,780 485.5,777.2 481.7,775.6 477.1,777.9 474.1,773.9 470.9,771.8 465,773.3 464.4,767.6 459.5,766.5 
		460.1,761.4 455.7,758.9 457.9,754.2 457.1,750.5 453.5,746.2 455.5,742.3 456.8,738.3 459,734.7 460.4,730.5 464.8,728.9 
		468.2,726.7 471.2,723.9 474.3,720.8 479.5,723.1 482.9,720.8 486.7,719.7 490.9,717 494.9,720.8 498.7,722.3 504.2,719.2 
		508.1,721.5 511.5,724.5 513.9,728.3 517.6,730.9 520,734.7 520.5,739.2 519.3,743.8 523.7,747.4 521.3,751.3 521.8,755.2 
		519.2,758.4 520,762.9 515.4,764.5 516.5,770.4 513.2,773.1 509.4,774.8 505.3,775.6 501.3,775.8 498,778.8 493.8,777.6 
		489.4,777.9 	"></polygon>
	<polygon class="st0" points="486.8,762.9 482.9,762 479.3,760.7 476,759 470,759.6 470.8,754.1 467.5,750.5 471.7,747.2 
		470.3,742.1 475,740.8 477.9,738.3 481.3,736.6 485.2,736.1 488.3,731.1 492.9,731.6 496.2,736.1 502.2,733.5 504.6,737.8 508,741 
		510,745.3 507.1,750 508.8,754.5 505,757.3 503.8,762.1 498.9,762.1 495,763.2 490.8,762.7 	"></polygon>
</g>
</svg>
