<!--?xml version="1.0" encoding="utf-8"?-->
<!-- Generator: Adobe Illustrator 22.1.0, SVG Export Plug-In . SVG Version: 6.00 Build 0)  -->
<svg version="1.1" id="_x34_" xmlns="http://www.w3.org/2000/svg" xmlns:xlink="http://www.w3.org/1999/xlink" x="0px" y="0px" viewBox="0 0 800 622.2" style="enable-background:new 0 0 800 622.2;" xml:space="preserve">
<style type="text/css">
	.stblack{fill:#000000;}
	.st0{fill:#FFFFFF;}
</style>
<g>
	<polygon class="st0" points="737.8,100 737.8,57.8 653.3,57.8 653.3,15.6 146.7,15.6 146.7,57.8 62.2,57.8 62.2,100 20,100 
		20,437.8 62.2,437.8 62.2,480 146.7,480 146.7,522.2 357.8,522.2 357.8,564.4 400,564.4 400,606.7 484.4,606.7 484.4,522.2 
		653.3,522.2 653.3,480 737.8,480 737.8,437.8 780,437.8 780,100 	"></polygon>
	<path class="stblack" d="M653.3,15.6H146.7v42.2h506.7V15.6z M146.7,57.8H62.2V100h84.4L146.7,57.8L146.7,57.8z M737.8,100V57.8h-84.4V100H737.8z
		 M737.8,100v337.8H780V100H737.8z M20,100v337.8h42.2V100H20z M62.2,437.8V480h84.4v-42.2H62.2z M653.3,480h84.4v-42.2h-84.4V480z
		 M146.7,480v42.2h211.1V480L146.7,480L146.7,480z M442.2,564.4H400v42.2h84.4v-84.4h168.9V480H442.2V564.4z M357.8,522.2v42.2H400
		v-42.2L357.8,522.2L357.8,522.2z"></path>
</g>
</svg>
