<!--?xml version="1.0" encoding="utf-8"?-->
<!-- Generator: Adobe Illustrator 22.1.0, SVG Export Plug-In . SVG Version: 6.00 Build 0)  -->
<svg version="1.1" id="_x34_" xmlns="http://www.w3.org/2000/svg" xmlns:xlink="http://www.w3.org/1999/xlink" x="0px" y="0px" viewBox="0 0 800 302.2" style="enable-background:new 0 0 800 302.2;" xml:space="preserve">
<style type="text/css">
	.stblack{fill:#000000;}
	.st0{fill:#FFFFFF;}
</style>
<g>
	<polygon class="st0" points="763.1,58.2 763.1,41.3 746.2,41.3 746.2,24.4 729.3,24.4 729.3,7.6 70.7,7.6 70.7,24.4 53.8,24.4 
		53.8,41.3 36.9,41.3 36.9,58.2 20,58.2 20,193.3 36.9,193.3 36.9,210.2 53.8,210.2 53.8,227.1 70.7,227.1 70.7,244 357.8,244 
		357.8,260.9 374.7,260.9 374.7,277.8 391.6,277.8 391.6,294.7 408.4,294.7 408.4,277.8 425.3,277.8 425.3,260.9 442.2,260.9 
		442.2,244 729.3,244 729.3,227.1 746.2,227.1 746.2,210.2 763.1,210.2 763.1,193.3 780,193.3 780,58.2 	"></polygon>
	<path class="stblack" d="M53.8,41.3H36.9v16.9h16.9V41.3z M70.7,24.4H53.8v16.9h16.9V24.4z M20,58.2v135.1h16.9V58.2H20z M36.9,193.3v16.9h16.9
		v-16.9H36.9z M53.8,210.2v16.9h16.9v-16.9H53.8z M70.7,227.1V244h287.1v-16.9H70.7z M442.2,244h287.1v-16.9H442.2V244z M357.8,244
		v16.9h16.9V244L357.8,244L357.8,244z M374.7,260.9v16.9h16.9v-16.9H374.7z M425.3,260.9h16.9V244h-16.9V260.9z M408.4,277.8h16.9
		v-16.9h-16.9L408.4,277.8L408.4,277.8z M391.6,294.7h16.9v-16.9h-16.9V294.7z M729.3,7.6H70.7v16.9h658.7V7.6z M763.1,58.2V41.3
		h-16.9v16.9H763.1z M746.2,41.3V24.4h-16.9v16.9H746.2z M746.2,210.2h16.9v-16.9h-16.9V210.2z M729.3,227.1h16.9v-16.9h-16.9V227.1
		z M763.1,58.2v135.1H780V58.2H763.1z"></path>
</g>
</svg>
