<!--?xml version="1.0" encoding="utf-8"?-->
<!-- Generator: Adobe Illustrator 22.1.0, SVG Export Plug-In . SVG Version: 6.00 Build 0)  -->
<svg version="1.1" id="_x34_" xmlns="http://www.w3.org/2000/svg" xmlns:xlink="http://www.w3.org/1999/xlink" x="0px" y="0px" viewBox="0 0 800 520.9" style="enable-background:new 0 0 800 520.9;" xml:space="preserve">
<style type="text/css">
	.stblack{fill:#000000;}
	.st0{fill:#FFFFFF;}
</style>
<g>
	<path class="stblack" d="M780,91.8c-56.3,44.6-123.4-22.5-78.8-78.8c-44.6,56.3-557.8,56.3-602.4,0C143.4,69.3,76.3,136.4,20,91.8
		c56.3,44.6,56.3,292.7,0,337.3c56.3-44.6,123.4,22.5,78.8,78.8c19.7-24.9,131.2-38.8,253.1-41.7C392.5,468.1,400,497,400,497
		s7.5-28.9,48.1-30.8c122,2.9,233.4,16.8,253.1,41.7c-44.6-56.3,22.5-123.4,78.8-78.8C723.7,384.5,723.7,136.4,780,91.8z"></path>
	<path class="st0" d="M674,478.3c-13.9-4.4-32.9-8.8-59-12.7c-44.7-6.8-102.3-11.2-166.6-12.7c-0.1,0-0.2,0-0.3,0
		c-0.2,0-0.4,0-0.6,0c-23.7,1.1-38.5,10.1-47.5,19.3c-9-9.2-23.7-18.2-47.5-19.3c-0.2,0-0.4,0-0.6,0c-0.1,0-0.2,0-0.3,0
		c-64.3,1.5-122,5.9-166.6,12.7c-26.1,4-45,8.3-58.9,12.7c1.8-13.1-0.1-26.2-6-38.4c-11.4-23.5-35.4-38.7-61.2-38.7
		c-1.6,0-3.2,0.1-4.7,0.2c15.5-38.2,21.6-93.1,21.6-140.9S69.6,157.8,54,119.6c1.6,0.1,3.2,0.2,4.7,0.2c25.8,0,49.9-15.2,61.2-38.7
		c5.9-12.2,7.8-25.3,6-38.4c17.1,5.4,41.7,10.7,77.7,15.3c53.8,6.9,123.5,10.7,196.2,10.7c72.7,0,142.4-3.8,196.2-10.7
		c36-4.6,60.6-9.9,77.7-15.3c-1.8,13.1,0.2,26.2,6,38.4c11.4,23.5,35.4,38.7,61.2,38.7c0,0,0,0,0,0c1.6,0,3.2-0.1,4.7-0.2
		c-15.5,38.2-21.6,93.1-21.6,140.9s6.1,102.7,21.6,140.9c-1.6-0.1-3.2-0.2-4.7-0.2c-25.8,0-49.9,15.2-61.2,38.7
		C674.1,452.1,672.1,465.3,674,478.3z"></path>
</g>
</svg>
