<!--?xml version="1.0" encoding="utf-8"?-->
<!-- Generator: Adobe Illustrator 22.1.0, SVG Export Plug-In . SVG Version: 6.00 Build 0)  -->
<svg version="1.1" id="_x34_" xmlns="http://www.w3.org/2000/svg" xmlns:xlink="http://www.w3.org/1999/xlink" x="0px" y="0px" viewBox="0 0 800 770.6" style="enable-background:new 0 0 800 770.6;" xml:space="preserve">
<style type="text/css">
	.stblack{fill:#000000;}
	.st0{fill:#FFFFFF;}
</style>
<g>
	<path class="st0" d="M719.9,494.5c22.9-25.9,39.6-54.9,50.3-88.4c12.2-38.1,12.2-74.7,4.6-114.3c-6.1-27.4-13.7-53.3-29-77.7
		c-9.1-13.7-16.8-25.9-27.4-36.6c-1.5-1.5-1.5-4.6-3-6.1c-10.7-10.7-18.3-21.3-30.5-32c-1.5-1.5-4.6-1.5-6.1-3
		c-29-28.9-65.5-44.2-102.1-57.9c-114.3-42.7-237.7-25.9-345.9,29c-3,1.5-4.6,6.1-7.6,7.6c-77.7,39.6-141.7,103.6-161.5,192
		c-9.1,41.1-7.6,80.8,4.6,120.4c9.1,30.5,24.4,56.4,44.2,80.8c10.7,12.2,21.3,21.3,33.5,32c3,3,7.6,4.6,10.7,7.6
		c6.1,4.6,12.2,6.1,16.8,9.1c59.4,36.6,126.5,44.2,192.1,33l-2.6,7.7c-3.4,24,19.5,37.6,39.9,42c20.5,4.4,48,2,61.8-15.9
		c8.4-10.9,7.9-21-0.7-32.3v-2.1C556.9,602.7,654.4,566.1,719.9,494.5z"></path>
	<path class="st0" d="M436.6,678.6c-0.5-2.8-2.3-5.2-4.1-7.4c-3.9-4.9-8.9-10.2-15.1-9.5l4.4-0.8c-8.2,0.7-16.4,1.4-24.7,2.1
		c-5.5,0.5-11.5,1.1-15.8,4.6c-5.4,4.4-6.7,13.1-2.8,18.9c2.1,3,5.2,5.1,8.5,6.7c12.5,6.1,27.9,5.9,40.1-0.7
		C432.5,689.6,437.6,684.5,436.6,678.6z"></path>
	<path class="st0" d="M380.6,722.9c-4.5,0.2-9.3,0.5-13,3.1c-4.6,3.4-5.9,10.4-3,15.2c1.6,2.5,4.1,4.4,6.7,5.8
		c9.9,5.4,22.4,5.8,32.6,0.9c4.4-2.1,8.7-6,8.1-10.8c-0.3-2.3-1.7-4.3-3.1-6.2c-3-4.1-6.8-8.6-11.9-8.3l3.6-0.5
		C394,722.4,387.3,722.6,380.6,722.9z"></path>
	<path class="stblack" d="M455.1,568.7c4.7,0.5,9.8,0.6,15.5,0.9c11.3,0.2,24.6-0.3,39.5-2.5c14.9-2.2,31.5-6.1,49-12.2c4.4-1.5,8.8-3.2,13.3-5
		c2.2-0.9,4.5-1.9,6.8-2.8c2.3-0.9,4.6-1.9,6.9-2.9c4.6-2,9.3-4.1,14-6.4c2.4-1.1,4.8-2.2,7.2-3.5c2.4-1.2,4.8-2.5,7.3-3.8
		c19.5-10.2,39.2-23.8,58.1-40.8c2.3-2.1,4.6-4.4,7-6.6c1.2-1.1,2.3-2.2,3.5-3.4c1.1-1.2,2.2-2.4,3.4-3.6c2.2-2.4,4.6-4.7,6.8-7.2
		c2.2-2.5,4.4-5.1,6.6-7.6c8.5-10.5,16.7-21.8,24-34.2c7.8-13.5,14.6-28.1,19.8-43.5c0.6-1.9,1.3-3.9,1.9-5.8
		c0.6-1.9,1.1-3.9,1.7-5.9l0.8-3l0.7-3c0.5-2,1-4,1.4-6c1.7-8.1,3-16.3,3.9-24.7c3.4-33.3-0.6-68-10.8-100.7
		c-10.2-32.8-26.7-63.7-47.8-90.5c-5.3-6.7-10.8-13.1-16.7-19.2c-2.9-3.1-6-5.9-9-8.9l-4.5-4.4l-4.7-4.1
		c-12.4-11.2-25.9-21-39.5-29.8c-3.5-2.1-6.9-4.3-10.3-6.4c-3.5-2-7-3.9-10.5-5.9c-1.8-1-3.5-2-5.3-2.9c-1.8-0.9-3.6-1.8-5.3-2.6
		c-3.6-1.7-7.1-3.6-10.6-5.2c-7.2-3.1-14.2-6.4-21.5-8.9c-3.6-1.3-7.1-2.8-10.7-4c-3.6-1.2-7.2-2.4-10.7-3.5
		c-3.5-1.2-7.1-2.2-10.7-3.2c-3.5-1-7-2-10.6-2.9c-3.5-0.8-7-1.7-10.5-2.5c-1.7-0.4-3.5-0.8-5.2-1.2c-1.7-0.3-3.5-0.7-5.2-1
		c-3.4-0.7-6.9-1.3-10.3-2c-3.4-0.6-6.8-1-10.1-1.6c-3.4-0.5-6.7-1.1-10-1.4c-3.3-0.4-6.6-0.7-9.8-1.1c-25.9-2.6-49.8-2.5-70.7-1.1
		c-2.6,0.2-5.2,0.3-7.7,0.5c-2.5,0.1-5,0.5-7.4,0.7c-4.9,0.5-9.5,1-14,1.5c-4.5,0.7-8.7,1.3-12.8,1.9c-2,0.3-4,0.6-6,0.9
		c-1.9,0.4-3.8,0.7-5.6,1.1c-12.1,2.2-23.7,5-34.7,7.8c-5.5,1.6-10.9,3.1-16.2,4.6c-5.2,1.7-10.4,3.4-15.5,5.1
		c-20.2,7.1-38.7,15.1-56.1,23.7c-17.4,8.9-33.6,18.5-49.3,29c-7.7,5.5-15.5,10.8-23,16.8c-7.5,5.9-15,12.1-22.3,18.7
		c-7.3,6.7-14.5,13.7-21.6,21.2c-7,7.6-13.9,15.7-20.5,24.5c-6.7,8.7-12.9,18.3-18.8,28.5c-0.7,1.3-1.5,2.6-2.2,3.9
		c-0.7,1.3-1.4,2.6-2.1,4c-0.7,1.3-1.4,2.7-2.1,4c-0.7,1.4-1.3,2.8-2,4.1c-2.8,5.5-4.9,11.4-7.4,17.3l-0.9,2.2
		c-0.3,0.8-0.5,1.5-0.8,2.3c-0.5,1.5-1,3.1-1.5,4.6c-1,3.1-2.1,6.2-3,9.4c-0.8,3.2-1.7,6.5-2.5,9.8c-0.4,1.7-0.9,3.3-1.2,5
		c-0.3,1.7-0.6,3.4-1,5.1c-0.6,3.4-1.3,6.9-1.9,10.4c-0.4,3.5-0.9,7.1-1.3,10.7c-0.2,1.8-0.5,3.6-0.6,5.5c-0.1,1.8-0.2,3.7-0.3,5.5
		c-0.1,1.9-0.2,3.7-0.3,5.6c-0.1,1.9-0.2,3.8-0.2,5.7c0,3.8,0.1,7.7,0.1,11.6c0,2,0.2,3.9,0.3,5.9c0.1,2,0.3,3.9,0.4,5.9
		c0.1,2,0.3,4,0.4,6c0.3,2,0.5,4,0.8,6c0.3,2,0.6,4.1,0.8,6.1c0.1,1,0.3,2.1,0.4,3.1c0.2,1,0.4,2,0.6,3.1c0.8,4.1,1.7,8.2,2.5,12.4
		c1.1,4.1,2.2,8.3,3.3,12.6c0.3,1.1,0.6,2.1,0.9,3.2c0.4,1,0.7,2.1,1.1,3.1c0.7,2.1,1.4,4.2,2.1,6.3c0.8,2.1,1.4,4.3,2.2,6.4
		c0.9,2.1,1.7,4.2,2.6,6.3c0.8,1.9,1.7,4,2.6,6.4c1,2.3,2.3,4.8,3.5,7.5c1.3,2.7,2.6,5.6,4.2,8.5c1.6,2.9,3.4,6,5.2,9.3
		c1.7,3.3,3.9,6.5,6.2,9.9c2.2,3.4,4.4,6.9,7.1,10.4c5.2,7,11.1,14.1,17.9,21c13.5,13.8,29.7,27,47.7,38.1
		c18,11.2,37.7,20.5,57.5,27.2c9.9,3.4,19.8,6.2,29.6,8.3c9.8,2.1,19.3,3.8,28.5,4.7c18.3,2.1,35,1.8,48.5,0.4
		c6.8-0.6,12.7-1.7,17.8-2.7c5-1.2,9.2-2.1,12.2-3.3c6.1-2.2,8-4,4.9-5.2c-2.1-0.8-5.2-1.3-9.1-1.5c-1.9-0.2-4.1-0.3-6.5-0.4
		c-1.2,0-2.4,0-3.7-0.1c-1.3,0-2.6-0.1-4-0.1c-10.9-0.2-24.7-0.5-40.3-2c-15.7-1.4-33.2-4.3-51.4-8.9c-18.1-4.8-36.9-11.3-54.9-20
		c-36-16.9-68.5-42.4-88-68.7c-2.4-3.3-4.7-6.6-7-9.7c-2.1-3.2-4-6.4-5.9-9.5c-0.9-1.5-1.9-3-2.7-4.5c-0.8-1.5-1.6-3-2.4-4.5
		c-1.5-2.9-3-5.7-4.4-8.3c-2.4-5.4-4.5-10.1-6.2-14.1c-1.5-4.1-2.7-7.4-3.5-9.8c-0.4-1.3-0.9-2.7-1.4-4.2c-0.4-1.5-0.8-3.1-1.3-4.7
		c-0.9-3.3-1.9-6.9-2.8-10.8c-0.8-3.9-1.6-8.2-2.5-12.6c-0.8-4.5-1.3-9.3-2-14.3c-0.1-0.6-0.2-1.3-0.3-1.9c0-0.6-0.1-1.3-0.1-1.9
		c-0.1-1.3-0.2-2.6-0.3-3.9c-0.2-2.7-0.4-5.4-0.6-8.1c-0.2-2.8-0.1-5.6-0.1-8.5c0-2.9-0.1-5.8,0-8.8c0.2-3,0.3-6,0.5-9.1
		c0.1-1.5,0.2-3.1,0.3-4.6c0.2-1.6,0.4-3.1,0.5-4.7c0.4-3.1,0.8-6.3,1.1-9.5c0.5-3.2,1.2-6.4,1.7-9.7c1-6.6,3-13.1,4.6-19.8
		c0.9-3.3,2.1-6.6,3.2-9.9c0.5-1.7,1.1-3.3,1.7-5c0.6-1.7,1.3-3.3,2-4.9c1.4-3.3,2.7-6.6,4.1-9.9c1.6-3.2,3-6.6,4.8-9.8
		c1.7-3.2,3.4-6.5,5.3-9.7c0.9-1.6,1.8-3.2,2.8-4.8c1-1.6,2-3.1,3-4.7c15.8-25.3,36.8-48.2,59.5-67.9c5.7-4.9,11.5-9.6,17.4-14.1
		c1.5-1.1,2.9-2.2,4.4-3.4c1.5-1.1,3-2.1,4.5-3.2c3-2.1,6-4.2,8.9-6.3c2.9-2.2,6-4,9-6c3-1.9,6-3.9,9-5.8c6.1-3.6,12-7.1,18-10.5
		c23.8-13.2,46.9-23,66.9-30.1c10.1-3.3,19.2-6.5,27.5-8.6c2.1-0.6,4-1.1,6-1.7c1-0.3,1.9-0.5,2.8-0.8c0.9-0.2,1.8-0.4,2.7-0.7
		c3.6-0.9,6.9-1.6,9.8-2.3c5.9-1.5,10.6-2.3,13.7-2.9c3.2-0.6,4.8-0.9,4.8-0.9s1.9-0.4,5.6-1.1c3.7-0.6,9.1-1.4,16-2.4
		c13.9-1.7,33.9-4.1,58.5-4c24.6-0.1,53.6,2.4,84.8,8.8c15.5,3.4,31.5,7.7,47.6,13.3c16,5.7,32.1,12.7,47.9,20.9
		c15.7,8.3,30.9,18.1,45.2,29l5.3,4.2l2.7,2.1c0.9,0.7,1.7,1.5,2.6,2.2l10.2,8.9c3.2,3.2,6.4,6.3,9.7,9.4l2.4,2.4l2.3,2.5
		c1.5,1.6,3.1,3.2,4.5,4.9c23.9,26.7,41.6,57.8,52.7,88.7c11.1,30.9,15.5,61.6,15,88c-0.2,13.2-1.6,25.4-3.6,36.2
		c-2,10.8-4.5,20.3-7.3,28.2c-1.9,6.3-4.6,12.3-7,18.4c-2.8,5.9-5.4,11.8-8.7,17.3c-3,5.7-6.5,11-9.8,16.3c-1.8,2.6-3.6,5.1-5.4,7.7
		c-0.9,1.3-1.8,2.6-2.7,3.8c-1,1.2-1.9,2.4-2.9,3.6c-15.2,19.6-33,35.7-51.2,49.1c-9.2,6.5-18.4,12.6-27.8,17.7
		c-2.3,1.3-4.6,2.6-7,3.8c-2.4,1.2-4.7,2.3-7,3.5c-1.2,0.6-2.3,1.1-3.5,1.7c-1.2,0.5-2.4,1.1-3.5,1.6c-2.3,1.1-4.7,2.1-7,3.1
		c-18.5,8.2-36.2,14.5-52.6,18.9c-32.9,8.9-60.7,9.3-80.5,9.6c-5.8,0.1-10.9,0.1-15.3,0.3c-0.2-0.4-0.3-0.8-0.5-1.2
		c-0.4-1-1-1.9-1.5-2.8c-0.3-0.4-0.5-0.9-0.8-1.3c-0.3-0.4-0.6-0.7-0.9-1.1c-0.6-0.7-1.2-1.3-1.9-1.9c-1.4-1-2.7-1.7-4-1.9
		c-2.7-0.3-4.7,0.9-6.5,3.8c-1.1,1.8-1.2,3.2-0.8,4.3c0.2,0.6,0.6,1,1.1,1.6c0.5,0.6,1.1,1.1,1.8,1.8c0,0,0,0,0,0
		c-2.6,0.6-4.2,1.5-5,2.7c-0.7,1.1,0.6,2.3,3.9,3.5c1.6,0.6,3.6,1.2,6,1.7c0.9,2.7,1.5,6.1,1.1,9.8c-0.4,4.9-2.3,10.1-5.4,14.4
		c-0.4,0.5-0.8,1-1.2,1.5l-0.6,0.8c-0.2,0.2-0.5,0.5-0.7,0.7l-1.5,1.5l-1.6,1.3c-0.5,0.5-1.1,0.9-1.6,1.2c-0.6,0.4-1.1,0.8-1.7,1.2
		c-1.2,0.7-2.3,1.4-3.5,2c-4.8,2.5-9.8,3.9-14.2,4.7c-4.4,0.8-8.2,1.1-10.8,1.2c-8.6,0.2-14.6-0.5-21.3-1.9
		c-3.4-0.7-6.9-1.7-10.9-3.3c-3.9-1.6-8.4-4-12.7-7.9c-1-0.9-2.5-3-3.8-5.7c-1.3-2.7-2.4-5.9-3.1-8.8c-0.7-2.9-1.2-5.4-2.1-7.3
		c-0.5-1-1.1-1.8-2-2.4c-0.9-0.6-2-1-3.5-0.9c-2,0.1-3.7,0.7-5,1.8c-1.2,1.1-2.2,2.7-2.6,4.7c-0.5,1.9-0.4,4.1,0,6.4
		c0.5,2.2,1.3,4.5,2.5,6.5c2.3,4.2,5.7,7.5,8.6,9.7c3,2.2,5.5,3.5,6.3,4.2c1.8,1.5,5.4,4.3,10.4,6.7c4.9,2.5,11,4.4,16.9,5.6
		c5.9,1.2,11.6,1.7,15.8,1.9c4.2,0.2,7,0,7,0s0.8,0,2.2-0.1c1.4-0.1,3.4-0.2,5.9-0.6c2.5-0.3,5.3-0.8,8.5-1.6
		c3.1-0.9,6.5-1.9,9.8-3.4c3.3-1.5,6.7-3.4,9.7-5.6c0.8-0.5,1.5-1.2,2.2-1.8c0.7-0.6,1.4-1.2,2.1-1.8c0.6-0.6,1.3-1.3,1.9-1.9
		c0.6-0.7,1.2-1.4,1.7-2.1c4.4-5.6,6.2-11.5,7-14.9c1.1-4.7,1.6-9.3,1.5-13.7c1.5,0.2,3.1,0.5,4.9,0.7
		C450.5,568.2,452.7,568.4,455.1,568.7z"></path>
	<path class="stblack" d="M400.2,664.9c2.1-1.3,4.2-2.8,6.2-5.1c1-1.2,2-2.5,2.8-4.2c0.8-1.7,1.4-3.7,1.4-5.9c0-1,0-2.5-0.4-4.2
		c-0.4-1.7-1.2-3.5-2.1-5.2c-0.9-1.7-1.8-3.1-2.8-4.6c-1.1-1.5-2.3-3.1-3.7-4.5c-1.4-1.4-3.1-2.7-5-3.7c-1.8-0.9-3.9-1.4-5.6-1.3
		c-0.3,0-0.5,0-0.8,0.1c-1.1-1.1-3.3-1.2-6.5-0.8c-2.4,0.3-5.4,0.8-8.9,1.4c-1.8,0.3-3.7,0.6-5.7,0.8c-2,0.3-4.2,0.5-6.6,0.8
		c-2.7,0.3-5.6,0.8-8.7,1.9c-1.5,0.6-3.1,1.3-4.5,2.3c-1.4,1-2.9,2.3-4,3.8c-4.4,5.9-5.1,13.9-1.8,20.2c1.7,3.2,4.1,5.4,6.5,7
		c2.4,1.7,4.7,2.8,6.8,3.7c4.3,1.9,8.1,2.7,10.7,3.2c4.4,0.7,8.1,0.8,11.5,0.6c3.5-0.2,6.7-0.8,10.1-1.7
		C392.6,668.5,396.1,667.2,400.2,664.9z M374.2,663.9c-0.8-0.1-1.6-0.1-2.2-0.2c-0.7-0.1-1.2-0.2-1.7-0.2c-0.9-0.1-1.5-0.2-1.5-0.2
		s-0.6-0.1-1.7-0.3c-1.1-0.3-2.6-0.6-4.4-1.2c-3.5-1.2-8.8-3.4-11.7-7.1c-1.4-1.8-2.2-4.1-2.2-6.6c0-2.4,0.8-4.8,1.9-6.6
		c0.6-0.9,1.3-1.6,2-2.2c0.8-0.6,1.6-1.1,2.4-1.5c1.7-0.8,3.3-1.2,4.6-1.5c3.9-0.8,8.3-0.6,12.1-0.5c3.8,0.1,7.3,0.3,10.2,0.1
		c2.8-0.1,5-0.6,6.6-1.6c0.5,1,0.9,1.8,1.5,2.5c1,1.4,2.8,2.9,5,4.9c1.2,1,2.4,2.1,3.5,3.1c1.1,1,2.1,1.8,2.8,2.5
		c0.7,0.7,1.1,1.3,1.4,1.9c0.1,0.3,0.2,0.6,0.3,0.8c0,0.2,0,0.4,0,0.6c-0.1,0.6-0.4,1.5-1.1,2.7c-0.7,1.1-1.8,2.4-3.3,3.6
		c-3,2.4-7.7,4.4-12.2,5.6C382.1,663.8,377.5,664,374.2,663.9z"></path>
	<path class="stblack" d="M382.2,695.8c-0.8-1.3-1.7-2.7-2.9-4c-1.1-1.3-2.5-2.5-4.1-3.3c-1.6-0.9-3.3-1.3-4.8-1.3c-0.3,0-0.7,0-1,0.1
		c-0.9-1-2.6-1.2-5.2-1c-2,0.2-4.4,0.6-7.3,0.9c-1.4,0.2-3,0.4-4.7,0.5c-1.7,0.2-3.4,0.3-5.5,0.4c-2.2,0.2-4.7,0.4-7.3,1.3
		c-1.3,0.4-2.7,1-3.9,1.8c-1.3,0.8-2.6,1.9-3.6,3.1c-4,4.9-4.9,11.6-2.3,17.2c1.4,2.8,3.3,4.8,5.2,6.2c1.9,1.5,3.8,2.5,5.5,3.3
		c3.5,1.7,6.6,2.6,8.8,3c3.6,0.8,6.7,1,9.5,0.9c2.9-0.1,5.6-0.4,8.4-1c2.9-0.7,5.8-1.6,9.3-3.4c1.8-1,3.6-2.2,5.4-4.1
		c0.9-0.9,1.8-2.1,2.5-3.5c0.7-1.4,1.3-3.2,1.4-5.1c0-0.9,0.1-2.2-0.2-3.7c-0.3-1.5-0.8-3.1-1.5-4.5
		C383.6,698.3,383,697.1,382.2,695.8z M377.7,710.4c-0.5,0.8-1.5,1.8-2.7,2.7c-2.4,1.8-6.2,3.2-9.9,4c-3.7,0.8-7.3,0.9-9.9,0.6
		c-1.3-0.1-2.4-0.3-3.1-0.4c-0.7-0.1-1.2-0.2-1.2-0.2s-0.5-0.1-1.3-0.3c-0.8-0.2-2-0.6-3.5-1.1c-2.8-1.1-6.9-3-9-6
		c-1-1.4-1.5-3.2-1.4-5c0.1-1.8,0.7-3.6,1.7-5c1.8-2.6,5.2-3.4,7.2-3.7c3.2-0.5,6.7-0.1,9.8,0.2c3.1,0.3,5.9,0.6,8.3,0.6
		c2.2,0,4-0.3,5.3-1.2c0.3,0.9,0.5,1.6,0.7,2.2c0.5,1.3,1.7,2.4,3.5,4c0.9,0.8,1.8,1.7,2.8,2.5c0.8,0.6,1.5,1.3,2.2,1.8
		c0.6,0.5,0.9,0.9,1.2,1.3c0.2,0.4,0.3,0.8,0.3,1C378.5,708.9,378.2,709.5,377.7,710.4z"></path>
</g>
</svg>
