<!--?xml version="1.0" encoding="utf-8"?-->
<!-- Generator: Adobe Illustrator 25.2.3, SVG Export Plug-In . SVG Version: 6.00 Build 0)  -->
<svg version="1.1" id="_x34_" xmlns="http://www.w3.org/2000/svg" xmlns:xlink="http://www.w3.org/1999/xlink" x="0px" y="0px" viewBox="0 0 800 534.176" style="enable-background:new 0 0 800 534.176;" xml:space="preserve">
<style type="text/css">
	.stblack{fill:#000000;}
	.st0{fill:#FFFFFF;}
</style>
<g>
	<path class="st0" d="M593.237,483.944l82.119,5.586c33.108,2.605,66.603,5.655,100.638,9.142
		c-25.254-159.445-25.254-321.878,0-481.326c-255.059,39.249-496.927,39.249-751.987,0c25.254,159.45,25.254,321.878,0,481.326
		C225.212,477.567,404.944,473.206,593.237,483.944z"></path>
	<path class="stblack" d="M593.426,480.615c-65.768-3.752-130.494-5.663-195.455-5.662c-121.203-0.001-243.218,6.65-374.312,20.402l0.349,3.316
		l3.293,0.522c12.653-79.897,18.98-160.541,18.98-241.184c0-80.645-6.328-161.289-18.98-241.184l-3.293,0.522L23.5,20.642
		c127.686,19.649,252.092,29.476,376.499,29.476c124.406,0,248.813-9.828,376.501-29.476l-0.506-3.296l-3.294-0.522
		c-12.655,79.896-18.985,160.54-18.983,241.184c-0.001,80.644,6.326,161.288,18.983,241.184l3.294-0.522l0.338-3.317
		c-34.06-3.488-67.58-6.541-100.716-9.148c-1.836-0.144-3.442,1.227-3.585,3.064c-0.144,1.835,1.227,3.441,3.064,3.584
		c33.08,2.602,66.547,5.651,100.559,9.135l4.308,0.442l-0.675-4.281c-12.602-79.552-18.902-159.848-18.902-240.142
		c0.001-80.295,6.301-160.591,18.902-240.141L780,13.354l-4.514,0.695C648.11,33.65,524.054,43.448,399.999,43.448
		c-124.056,0-248.112-9.797-375.485-29.398L20,13.355l0.713,4.512c12.597,79.55,18.897,159.846,18.899,240.141
		c-0.002,80.294-6.3,160.59-18.899,240.142l-0.682,4.289l4.323-0.452c130.889-13.731,252.657-20.366,373.617-20.366
		c64.829,0.001,129.429,1.908,195.074,5.652c1.838,0.104,3.414-1.3,3.52-3.138C596.669,482.296,595.265,480.72,593.426,480.615
		L593.426,480.615z"></path>
	<path class="stblack" d="M641.585,465.374l-33.822,50.251c-1.028,1.528-0.624,3.6,0.904,4.627s3.6,0.624,4.628-0.904l33.823-50.251
		c1.027-1.528,0.623-3.6-0.905-4.627C644.685,463.442,642.615,463.845,641.585,465.374"></path>
</g>
</svg>
