<!--?xml version="1.0" encoding="utf-8"?-->
<!-- Generator: Adobe Illustrator 25.2.3, SVG Export Plug-In . SVG Version: 6.00 Build 0)  -->
<svg version="1.1" id="_x34_" xmlns="http://www.w3.org/2000/svg" xmlns:xlink="http://www.w3.org/1999/xlink" x="0px" y="0px" viewBox="0 0 800 207.421" style="enable-background:new 0 0 800 207.421;" xml:space="preserve">
<style type="text/css">
	.stblack{fill:#000000;}
	.st0{fill:#FFFFFF;}
</style>
<g>
	<path class="st0" d="M674.496,200.263h-555.97c-53.104,0-96.553-43.449-96.553-96.553c0-53.103,43.449-96.552,96.553-96.552h555.97
		c53.104,0,96.553,43.449,96.553,96.552c0,12.746-2.503,24.937-7.042,36.103c-2.702,6.647-6.125,12.932-10.171,18.755
		c-5.987,8.616-13.336,16.221-21.73,22.498C715.996,193.112,696.041,200.263,674.496,200.263z"></path>
	<path class="stblack" d="M730.924,179.485c-15.786,11.803-35.323,18.804-56.428,18.805h-555.97c-26.009-0.001-49.644-10.636-66.795-27.786
		c-17.149-17.151-27.785-40.787-27.786-66.794c0.001-26.008,10.636-49.643,27.786-66.795C68.881,19.766,92.516,9.131,118.525,9.13
		h555.97c26.008,0.001,49.644,10.636,66.795,27.785c17.149,17.152,27.785,40.788,27.786,66.796
		c-0.001,12.487-2.452,24.423-6.898,35.36c-0.411,1.01,0.074,2.16,1.085,2.572c1.01,0.41,2.16-0.075,2.571-1.085
		c4.632-11.397,7.188-23.841,7.187-36.846c-0.007-54.204-44.323-98.52-98.525-98.526h-555.97C64.322,5.192,20.007,49.508,20,103.71
		c0.007,54.201,44.322,98.518,98.525,98.524h555.97c21.984,0.001,42.358-7.301,58.79-19.589c0.871-0.653,1.051-1.889,0.399-2.761
		C733.032,179.013,731.796,178.834,730.924,179.485L730.924,179.485z"></path>
	<path class="stblack" d="M738.862,153.138l37.988,28.288c0.874,0.651,2.11,0.47,2.761-0.403c0.651-0.874,0.47-2.11-0.403-2.76l-37.988-28.288
		c-0.874-0.651-2.11-0.47-2.76,0.403C737.808,151.251,737.988,152.487,738.862,153.138"></path>
</g>
</svg>
