<!--?xml version="1.0" encoding="utf-8"?-->
<!-- Generator: Adobe Illustrator 25.2.3, SVG Export Plug-In . SVG Version: 6.00 Build 0)  -->
<svg version="1.1" id="_x34_" xmlns="http://www.w3.org/2000/svg" xmlns:xlink="http://www.w3.org/1999/xlink" x="0px" y="0px" viewBox="0 0 800 167.3" style="enable-background:new 0 0 800 167.3;" xml:space="preserve">
<style type="text/css">
	.st0{fill:#FFFFFF;}
	.st1{fill:#A2FFD9;}
</style>
<g>
	<path d="M676.6,13.7l21.5,42.5h-43.1L676.6,13.7 M676.6,4.2c-3.6,0-6.9,2-8.5,5.2L646.6,52c-1.5,3-1.4,6.5,0.4,9.3
		c1.7,2.8,4.8,4.5,8.1,4.5h43.1c3.3,0,6.4-1.7,8.1-4.5c1.7-2.8,1.9-6.4,0.4-9.3L685.2,9.4C683.5,6.2,680.2,4.2,676.6,4.2z"></path>
	<polygon class="st0" points="758.7,44.7 24.8,44.7 24.8,139.3 41.3,158.3 775.2,158.3 775.2,79.2 	"></polygon>
	<polygon class="st1" points="24.8,139.3 41.3,158.3 775.2,158.3 775.2,136 	" style="fill: rgb(176, 176, 176);"></polygon>
	<polygon class="st1" points="758.7,51.1 775.2,79.2 775.2,158.3 758.7,136 	" style="fill: rgb(176, 176, 176);"></polygon>
	<rect x="63.4" y="136.8" transform="matrix(0.7941 -0.6078 0.6078 0.7941 -76.6834 71.2329)" width="6.8" height="24"></rect>
	<rect x="94" y="136.8" transform="matrix(0.7941 -0.6078 0.6078 0.7941 -70.3771 89.8465)" width="6.8" height="24"></rect>
	<rect x="124.6" y="136.8" transform="matrix(0.7941 -0.6078 0.6078 0.7941 -64.068 108.4595)" width="6.8" height="24"></rect>
	<rect x="155.3" y="136.8" transform="matrix(0.7941 -0.6078 0.6078 0.7941 -57.7614 127.0726)" width="6.8" height="24"></rect>
	<rect x="185.9" y="136.8" transform="matrix(0.7941 -0.6078 0.6078 0.7941 -51.4585 145.6868)" width="6.8" height="24"></rect>
	<rect x="216.5" y="136.8" transform="matrix(0.7941 -0.6078 0.6078 0.7941 -45.1489 164.2986)" width="6.8" height="24"></rect>
	<rect x="247.1" y="136.8" transform="matrix(0.7941 -0.6078 0.6078 0.7941 -38.8448 182.9123)" width="6.8" height="24"></rect>
	<rect x="277.8" y="136.8" transform="matrix(0.7941 -0.6078 0.6078 0.7941 -32.541 201.527)" width="6.8" height="24"></rect>
	<rect x="308.4" y="136.8" transform="matrix(0.7941 -0.6078 0.6078 0.7941 -26.2346 220.14)" width="6.8" height="24"></rect>
	<rect x="339" y="136.8" transform="matrix(0.7941 -0.6078 0.6078 0.7941 -19.9284 238.7536)" width="6.8" height="24"></rect>
	<rect x="369.6" y="136.8" transform="matrix(0.7941 -0.6078 0.6078 0.7941 -13.6192 257.3646)" width="6.8" height="24"></rect>
	<rect x="400.3" y="136.8" transform="matrix(0.7941 -0.6078 0.6078 0.7941 -7.3161 275.9803)" width="6.8" height="24"></rect>
	<rect x="430.9" y="136.8" transform="matrix(0.7941 -0.6078 0.6078 0.7941 -1.0098 294.5938)" width="6.8" height="24"></rect>
	<rect x="461.5" y="136.8" transform="matrix(0.7941 -0.6078 0.6078 0.7941 5.2998 313.2042)" width="6.8" height="24"></rect>
	<rect x="492.1" y="136.8" transform="matrix(0.7941 -0.6078 0.6078 0.7941 11.6093 331.815)" width="6.8" height="24"></rect>
	<rect x="522.7" y="136.8" transform="matrix(0.7941 -0.6078 0.6078 0.7941 17.9114 350.4312)" width="6.8" height="24"></rect>
	<rect x="553.4" y="136.8" transform="matrix(0.7941 -0.6078 0.6078 0.7941 24.2222 369.0408)" width="6.8" height="24"></rect>
	<rect x="584" y="136.8" transform="matrix(0.7941 -0.6078 0.6078 0.7941 30.5199 387.6619)" width="6.8" height="24"></rect>
	<rect x="614.6" y="136.8" transform="matrix(0.7941 -0.6078 0.6078 0.7941 36.8269 406.274)" width="6.8" height="24"></rect>
	<rect x="645.2" y="136.8" transform="matrix(0.7941 -0.6078 0.6078 0.7941 43.1316 424.8883)" width="6.8" height="24"></rect>
	<rect x="675.9" y="136.8" transform="matrix(0.7941 -0.6078 0.6078 0.7941 49.4438 443.4963)" width="6.8" height="24"></rect>
	<rect x="706.5" y="136.8" transform="matrix(0.7941 -0.6078 0.6078 0.7941 55.7459 462.1131)" width="6.8" height="24"></rect>
	<rect x="737.1" y="136.7" transform="matrix(0.7941 -0.6078 0.6078 0.7941 62.0605 480.7184)" width="6.8" height="24"></rect>
	<rect x="763.6" y="106.4" transform="matrix(0.7941 -0.6078 0.6078 0.7941 85.9431 490.5517)" width="6.8" height="24"></rect>
	<rect x="763.6" y="79.4" transform="matrix(0.7941 -0.6078 0.6078 0.7941 102.3773 484.9861)" width="6.8" height="24"></rect>
	<polyline points="778.3,155.7 761.8,136.6 755.7,141.9 772.1,161 	"></polyline>
	<path d="M758.7,44.7v-4.8h-734c-1.3,0-2.5,0.5-3.4,1.4c-0.9,0.9-1.4,2.1-1.4,3.4v94.6c0,1.1,0.4,2.3,1.2,3.1l16.5,19.1
		c0.9,1,2.2,1.7,3.6,1.7h734c1.3,0,2.5-0.5,3.4-1.4c0.9-0.9,1.4-2.1,1.4-3.4V79.2c0-0.7-0.2-1.4-0.5-2.1l-16.5-34.6
		c-0.8-1.7-2.5-2.7-4.3-2.7L758.7,44.7l-4.3,2.1l16,33.6v73.2h-727l-13.9-16.1v-88l729.2,0V44.7l-4.3,2.1L758.7,44.7z"></path>
	<polyline points="754.7,44.7 754.7,139.3 762.8,139.3 762.8,44.7 	"></polyline>
	<polyline points="24.8,143.3 758.7,143.3 758.7,135.2 24.8,135.2 	"></polyline>
	<polygon class="st0" points="676.6,13.7 655.1,56.3 698.2,56.3 	"></polygon>
</g>
</svg>
