<!--?xml version="1.0" encoding="utf-8"?-->
<!-- Generator: Adobe Illustrator 25.2.3, SVG Export Plug-In . SVG Version: 6.00 Build 0)  -->
<svg version="1.1" id="_x34_" xmlns="http://www.w3.org/2000/svg" xmlns:xlink="http://www.w3.org/1999/xlink" x="0px" y="0px" viewBox="0 0 741.8 800" style="enable-background:new 0 0 741.8 800;" xml:space="preserve">
<style type="text/css">
	.stblack{fill:#000000;}
	.st0{fill:#FFFFFF;}
</style>
<g>
	<path class="stblack" d="M623.5,601.6c37.7-70,36.5-75.5,99.7-121.4c-15.1-18.4-45.9-51-46.4-75.2c6.7-31.1,12.5-77.8,36.1-103.2
		c-24.8-14.8-54-31.1-66.6-57.8c-2-10,3.9-37.6,5-44.2c-33.3-8.9-69.5-47.9-67.5-81.8c-3.9-0.7-25.6-5.4-29.4-10
		c-14.4-20.2-19.6-35.8-27.3-62.5c-25.3,14.2-62.9,45.4-78.2,6.3C421.7,77,386.3,41.8,370.4,20c-9.2,17.2-55.6,66-76.5,33.5
		C282.7,91.6,228.2,85,196,88.8c-1.4,49-56.5,77.3-100.4,66c12.9,60,28,98.9-44.9,114c13.1,15.8,42.1,47.6,7.1,61
		c27.3,13.3,5.9,49.3-0.4,69.8c-7,14.7-27.7,30.4-38.8,41.3c59.4,23.2,83.9,101.7,70,160.8c42.1,18.9,74.8,66.8,88.6,109
		c12.3,0.7,38.1-1.7,48.9,9.4c23.4,17,48.8,36.3,62.6,59.8c23.8-21.7,73.3-50,101.4-23.7c12.1-16.9,22.8-22.6,47-19.3
		c22.2,0.9,52.7,5.2,72.5,11.7c13-14.8,18.5-34.2,31.1-47.5c18.2-16.9,52.5-43.3,70.8-43.7C608.3,645,615,617.5,623.5,601.6z"></path>
	<path class="st0" d="M611.8,595.3c37.4-69.2,35.9-71.9,99.7-116.6c-15.3-17.8-47.2-50-47.7-73.7c6.7-30.5,13.5-76.4,37.4-100.8
		c-23.5-13.6-53.7-28.1-67-55.3c-1.8-9.8,4.9-36.8,6.1-43.2c-33.7-8.1-68-44.2-65-78.4c-3.8-0.6-25-4.5-28.5-9
		c-13.7-20.1-18-35.5-24.8-62.2c-24.5,14.3-61.4,48-75.8,7.9c-27.2,26.7-60.2-10.3-75.6-32c-8.5,17-53.2,67.7-73.6,33.8
		c-9.6,38.3-62.8,30.8-94,33.4c0.7,49.5-54.7,74.8-97.6,62.5c14.6,59.7,31,97-43.1,110.6c13.1,15.4,44,46.5,7.9,59.5
		c27.8,12.6,6.7,47.8-0.1,68c-7.3,14.5-28.5,29.8-39.8,40.5c59,21.3,85.8,97.7,69.5,156c41.4,16.5,73.3,63.2,84.8,104.4
		c11.7,0.3,37-3.1,47.3,7.9c22.6,16.7,46.6,36.3,59.3,59.5c22.6-21.9,71.1-51.9,98.3-24.7c2.6-3.7,12.7-16.2,18.9-18.5
		c26.2-5.3,70.7,3.9,96.4,12.3c12.2-14.6,16.9-34,28.7-47c17.4-16.6,49.7-40.9,68-40.7C598,637.5,603.6,610.5,611.8,595.3z"></path>
</g>
</svg>
