<!--?xml version="1.0" encoding="utf-8"?-->
<!-- Generator: Adobe Illustrator 25.2.3, SVG Export Plug-In . SVG Version: 6.00 Build 0)  -->
<svg version="1.1" id="_x34_" xmlns="http://www.w3.org/2000/svg" xmlns:xlink="http://www.w3.org/1999/xlink" x="0px" y="0px" viewBox="0 0 474.5 800" style="enable-background:new 0 0 474.5 800;" xml:space="preserve">
<style type="text/css">
	.stblack{fill:#000000;}
	.st0{fill:#FFFFFF;}
</style>
<g>
	<path class="st0" d="M37.9,181.3C166.5,225.9,331.7,39.7,331.7,39.7s-5.2,157.4,21,167.9c26.2,10.5,89.2-7.9,89.2-7.9
		s-17.3,39.5-21,78.7c-10.5,110.2,0,254.4,28.9,322.6c-49.8,5.2-139,78.7-123.3,152.1c-70.8-89.2-207.2-139-296.4-94.4
		c86.6-133.8,78.7-215.1,34.1-249.2C142.9,354.4,37.9,181.3,37.9,181.3z"></path>
	<path class="stblack" d="M462.7,608.7L462.7,608.7C462.7,608.7,462.7,608.7,462.7,608.7L462.7,608.7z"></path>
	<path class="stblack" d="M461.9,606.4c-0.3-0.7-0.5-1.2-0.7-1.7c-0.4-0.9-0.6-1.5-0.8-2.1c-0.5-1.2-1-2.5-2.8-7c-1.9-4.9-2.9-7.3-4-9.7l-0.4-0.9
		l-0.2-0.5l-0.1-0.2l-0.1-0.4l0-0.1c-0.1-0.4-0.3-0.8-0.5-1.2c-0.3-0.9-0.7-2-1.2-3.4c-0.9-2.9-1.5-5.6-1.9-8.4
		c-0.4-2.8-0.5-5.6-0.9-8.6c-0.4-3.8-0.8-6.8-1.2-9.2c-0.3-2.5-0.5-4.4-0.8-6.1c-0.5-3.3-1.1-5.4-1.8-8.4c-0.7-2.9-1.8-7.7-2.9-12.5
		c-1.1-4.8-2.2-9.6-2.7-12.6l-2.4-15.2c-0.8-5.1-1.4-10.2-2-15.2c-0.8-6.1,0.3-2.8-0.4-8.9c-0.6-6.1-1.1-3.5-1.7-9.6
		c-0.3-3.1-1.7-8.9-2.9-14.9c-1.2-5.9-2.4-11.9-2.6-14.9c-0.4-6.1-0.2-6.2-0.6-12.3c-0.4-6.1-0.4-6.2-0.7-12.3
		c-0.2-6.2,2.8-11.8,2.6-17.9c-0.3-6.1-3.4-12.9-3.6-19c-0.1-6.2-0.4-6.2-0.4-12.3c0.1-6.2-0.1-18.5,0.2-24.7
		c0.2-6.2,0.4-6.2,0.6-12.3c0.2-6.2,0.6-6.1,0.9-12.3c0.2-3.1,0.4-7.7,0.6-12.3c0.3-4.6,0.7-9.2,0.9-12.3c0.3-3.1,0.7-5.9,1.3-8.7
		c0.6-2.7,1.1-5.4,1.6-8.3c0.9-5.9,0,0,0.9-5.9c0.3-1.5,0.8-3.7,1.5-6.3c0.8-2.6,1.6-5.6,2.5-8.5c1.8-5.9,4-11.7,4.9-14.6
		c0.4-1.4,0.7-2.9,0.8-4.5c0.1-0.8,0.2-1.5,0.2-2.3c0-0.6,0.3-2.1,0.5-3.2c0.4-2.4,0.7-4.5,1.2-6.8c0.6-2.3,1.1-4.5,2-6.8
		c3.7-9.2,3.9-9.3,7.7-18.6c0.5-1.2,1.1-2.5,1.8-4.2c-4.5,1.1-10.2,2.4-15.8,3.7c-5.7,1.4-11.4,2.6-15.7,3.6
		c-1.2,0.3-2.7,0.6-4.3,0.9c-1.6,0.3-3.8,0.7-4.6,0.8c-2.3,0.3-4.9,0.6-7.6,0.8c-5.2,0.5-10.4,0.8-13.3,1.1
		c-9.4,1.2-18.9,1.8-27.4,0.9c-2.6-0.3-3.9-0.5-5.1-0.7c-0.6-0.1-1.2-0.2-1.9-0.4c-0.3-0.1-0.8-0.2-1.2-0.3
		c-0.2-0.1-0.5-0.2-0.8-0.3c-0.8-0.4-1-0.8-1.2-1.2c-0.1-0.2-0.3-0.6-0.6-1.1c-0.3-0.5-0.7-1.2-1.2-2.3c-1-2.1-2.6-5.7-3.8-9.8
		c-1.3-4-2.3-8.3-2.9-11.2c-0.5-2.9-1.2-8-1.7-13.1c-0.5-5.1-0.9-10.3-1.1-13.3c-0.3-3-1.6-8.3-2.9-13.7c-1.3-5.3-2.4-10.7-2.6-13.8
		c-0.3-6.1,0.3-6.2,0.1-12.3c-0.2-6.2-0.3-6.2-0.4-12.3c-0.1-3.1-0.1-7.7-0.1-12.3c0-5.5,0.1-11,0.1-14.6c0.1-9.6,0-9.6,0.3-19.3
		c0.3-9.9,0.1-9.6,0.4-19.4c0-1.2,0.1-2.5,0.1-4c0-0.8,0.1-1.6,0.1-2.5c0-0.4,0-0.9,0-1.4c0-0.2,0-0.5,0-0.7l-0.1-0.3
		c-6.3,7-15.7,17.3-20.8,22.7c-3.4,3.5-5.1,5.3-6.7,7c-1.7,1.7-3.4,3.4-6.8,6.8c-0.9,0.8-1.6,1.5-2.3,2.2c-0.5,0.4-0.9,0.8-1.2,1.1
		c-0.7,0.6-1.3,1.1-1.9,1.6c-1.2,1-2.3,2-4.6,4.1c-14.9,14-30,27.8-46.2,40.4c-4.8,3.7-5.2,3.2-10.1,6.9c-4.9,3.6-4.7,3.9-9.7,7.5
		c-2.5,1.8-7.2,6-11.9,10.1c-4.8,4.1-9.7,8.1-12.3,9.7c-5.2,3.3-16,9.2-21.4,12c-5.4,2.9-5.2,3.2-10.7,5.9
		c-5.5,2.7-11.9,2.1-17.5,4.4c-2.8,1.2-4.2,1.6-5.7,2c-1.4,0.4-2.9,0.8-5.7,1.9c-11.2,4.2-22.7,7.7-34.3,9.8c-1.5,0.3-3,0.8-4.6,1.4
		c-1.6,0.6-3.3,1.3-5,2c-3.4,1.3-7,2.7-9.9,2.8c-6,0.4-9.6-3.5-15.3-3.7c-2.9-0.2-4.3-0.1-5.8-0.1c-1.4,0-2.9,0-5.8-0.4
		c-2.8-0.5-4.2-0.9-5.6-1.4c-1.4-0.5-2.7-1-5.5-1.6c-2.8-0.8-4.2-1-5.6-1.2c-1.4-0.3-2.8-0.6-5.5-1.5L19.2,168l10.7,18.2
		c1.5,2.4,2.2,3.9,2.8,5.3c0.6,1.4,1.3,2.8,2.8,5.4c3,5.3,2.8,5.4,5.7,10.8c2.8,5.4,3.2,5.2,6,10.7c2.7,5.5,2.9,5.4,5.5,10.9
		c1.3,2.8,4.6,9.7,7.6,16.7c3.1,7,5.9,14.1,6.9,16.9c2.1,5.7,1.7,5.8,3.7,11.6c2,5.7,1.8,5.8,3.6,11.5c1.7,5.8,1.6,5.8,3.2,11.6
		c0.8,2.9,1.1,4.4,1.5,5.8c0.4,1.5,0.7,2.9,1.3,5.8c1.2,5.8,1.9,5.7,2.9,11.6c0.5,2.9,1,7.4,1.3,11.8c0.3,4.4,0.4,8.8,0.4,11.7
		c0,2.9,0.6,3.6,1.2,4.2c0.6,0.7,1.3,1.4,1.1,4.3c-0.5,5.9,0,5.9-1,11.7c-1.2,5.7-1.6,5.6-3.4,11.1c-0.9,2.7-2.4,4.5-3.9,6.3
		c-1.5,1.7-3,3.3-4.4,5.6c-0.8,1.1-1.3,2-1.9,2.6c-0.6,0.6-1,1.1-1.5,1.6c-0.5,0.5-0.9,1-1.5,1.6c-0.3,0.3-0.6,0.6-1,1
		c-0.2,0.2-0.4,0.4-0.6,0.6c-0.2,0.2-0.5,0.6-0.8,0.8c-0.2,0.2-0.5,0.4-0.7,0.6l-3.8,3.4c-1.2,1.1-2.7,2.2-4,3.3
		c-2.7,2.2-5.4,4.2-8,6.2c1.2,1.1,2.7,2.2,4,3.2c1.3,1.1,2.7,2.1,4,3.3c2.6,2.2,5.5,4.4,7.8,6.7l2.7,2.8c0.6,0.7,1.2,1.4,1.8,2.1
		c0.6,0.7,1.2,1.4,1.8,2.2l1.6,2.3c3.1,4.7,2.6,4.9,5.2,9.9c1.2,2.5,1.8,3.8,2.5,5.1c0.6,1.3,1.2,2.6,2.1,5.3
		c0.8,2.8,1.1,4.1,1.4,5.5c0.2,1.4,0.4,2.8,1,5.6c0.2,1.4,0.5,3.2,0.8,5.2c0.3,2,0.4,4.1,0.7,6.3c0.2,2.2,0.2,4.4,0.3,6.4
		c0.1,2,0,3.8,0,5.3c0,2.9-0.1,4.4-0.2,5.9c-0.1,1.5-0.1,2.9-0.4,5.9c-0.3,2.9-0.4,4.4-0.5,5.9c-0.2,1.5-0.4,3-0.8,5.9
		c-0.4,2.9-0.8,4.4-1.1,5.9c-0.3,1.5-0.5,2.9-1.2,5.9c-1.3,5.9-1.2,5.9-2.8,11.7c-0.8,2.9-1.1,4.4-1.4,5.9c-0.3,1.5-0.7,3-1.6,5.8
		c-1.9,5.7-2.1,5.7-4.1,11.4c-2.1,5.7-6.5,17-9.1,22.6c-1.3,2.8-3.1,7-5.1,11.1c-1,2.1-2,4.1-2.9,6c-1,1.9-1.8,3.6-2.5,4.9
		c-2.8,5.4-2.4,5.6-5.4,11c-1.5,2.7-2.9,5.4-4.5,8l-2.8,4.8c-1.2,2-2.4,4.1-3.7,6.1c-2.4,4.1-5.2,8.3-7.8,12.5
		c-2.6,4.2-5.3,8.4-7.9,12.5c-5.1,8.1-5.1,8.2-10.3,16.3c-0.1,0.2-0.2,0.3-0.3,0.5l-0.2,0.4l-0.1,0.4c0,0.2-0.1,0.5-0.1,0.7
		c-0.1,0.4-0.1,0.7-0.1,0.8c2.4-1.1,4.2-1.9,6.2-2.9c1-0.5,2-0.9,3.3-1.5c1.3-0.6,2.9-1.3,4.7-2.1c2.7-1.2,6.2-2.6,10.3-4.3
		c4-1.6,8.4-3.1,13-4.8c1.2-0.4,2.3-0.9,3.5-1.3c1.1-0.3,2-0.5,3.1-0.7c2-0.5,4-1,5.9-1.4c1.9-0.5,3.7-0.9,5.3-1.3
		c0.5-0.1,0.6-0.1,0.9-0.2c0.2,0,0.5-0.1,0.7-0.1c0.4-0.1,0.8-0.1,1.2-0.2l6.1-1.2c2.1-0.3,4.1-0.6,6.2-0.9c1.5-0.2,2.5-0.4,3.2-0.7
		c0.8-0.3,1.3-0.5,1.8-0.8c1-0.6,2.1-1.1,5.1-1.4c3-0.3,3.9,0,4.8,0.2c0.9,0.2,1.8,0.4,4.8,0.3c3-0.1,4.5,0,6,0c1.5,0,3,0,6,0.1
		c3,0.2,4.5,0.3,6,0.4c1.5,0.1,3,0.1,6,0.5c6,0.7,6,0.4,11.9,1.4c3,0.5,4.5,0.7,5.9,0.9c1.5,0.3,3,0.6,5.9,1.2
		c1.5,0.3,2.6,0.5,3.5,0.6c0.9,0.2,1.7,0.3,2.4,0.5c1.5,0.3,3,0.6,5.9,1.3c2.9,0.7,7.3,2,11.6,3.3c4.3,1.5,8.6,2.8,11.5,3.8
		c2.8,1,6.4,2,9.8,3.1c3.5,1.2,7,2.2,9.7,3.4c2.8,1.3,7.8,3.4,12.6,6c4.9,2.4,9.6,5.2,12.3,6.6c5.3,2.8,5.1,3.2,10.4,6.2
		c2.6,1.5,6.5,3.8,10.4,6.1c3.8,2.4,7.7,4.8,10.2,6.6c2.5,1.8,3.7,2.6,5,3.4c1.3,0.8,2.5,1.7,4.9,3.5c4.8,3.7,4.5,4.1,9.1,8
		c2.3,1.9,3.5,2.9,4.7,3.8c1.1,1,2.3,2,4.5,4c4.5,4,4.5,4.1,8.8,8.2c0.8,0.8,1.5,1.4,2.1,2c0.7,0.7,1.3,1.3,1.9,1.9
		c1.1,1.1,2,2,2.9,2.9c1.8,1.8,3.5,3.5,6.9,7.3c1.7,1.8,3,3.5,4.1,4.8c1.1,1.4,2,2.5,2.9,3.7c1.8,2.4,3.6,4.8,7.2,9.1
		c1.7,2.1,4.3,5.2,7.4,8.7c0.8,0.9,1.5,1.8,2.4,2.7c0.4,0.5,0.8,0.9,1.2,1.4c0.2,0.2,0.4,0.5,0.6,0.7l0.4,0.2
		c0.9,0.6,1.9,1.1,2.8,1.6l-0.5-2.7c-0.2-1-0.4-2.1-0.5-3.1c-0.4-2.1-0.7-4.2-1.1-6.2c-0.7-4-1.4-8-1.9-11.4c-0.5-3.4-1-6.6-1.4-9.4
		c-0.2-1.4-0.4-2.6-0.5-3.8c-0.1-0.9-0.1-1.8-0.2-2.5c-0.1-2.9-0.3-5.9-0.4-9.1c0-0.4,0-0.8,0-1.2l0.1-0.9c0.1-0.6,0.2-1.3,0.3-1.9
		c0.2-1.3,0.4-2.6,0.6-3.9l0.3-1.9l0.1-1c0-0.3,0.1-0.7,0.1-0.8c0.2-0.8,0.4-1.5,0.6-2.2c0.4-1.5,0.7-2.9,1.1-4.3
		c0.8-2.7,1.1-4.1,1.4-5.6c0.4-1.4,0.7-2.8,1.7-5.5c2.3-5.3,2.8-5.1,5.4-10.2c2.7-5.2,7.5-12.5,11.1-17.1c3.5-4.7-1.5,0.8,2.1-3.8
		c1.8-2.3,5.7-7.3,10.1-11.8c2.1-2.4,4.4-4.5,6.3-6.5c2-1.9,3.7-3.5,4.8-4.5c4.5-4,12.8-5.1,17.4-8.4c1.2-0.9,2.4-2.1,3.7-3.5
		c1.2-1.3,2.6-2.9,4.1-4.6c2.8-3.2,5.8-6.1,8.3-7.6c5.1-2.8,0.2,0.3,5.3-2.5c0.8-0.4,1.6-0.9,2.4-1.2c1.9-0.8,4-1.4,6-2
		c2-0.7,4-1.2,5.9-2c1.3-0.6,2.7-1.1,4.2-1.8c0.4-0.2,0.7-0.3,1.1-0.5c0.2-0.1,0.3-0.2,0.6-0.3l1.1-0.3c1.5-0.5,3-0.9,4.5-1.4
		c2.8-1,6.2-1.6,9.2-2.3c3.1-0.7,5.8-1.1,8.5-1.5c0.4-0.1,0.8-0.1,1-0.2l0.1,0v0C462.6,608,462.2,607,461.9,606.4z M434.8,592.9
		l-0.9,0.1c-0.3,0.1-0.5,0.1-0.7,0.1c-0.2,0-0.4,0-0.6,0.1c-0.2,0-0.4,0.1-0.7,0.1c-0.1,0-0.3,0.1-0.4,0.1c-0.6,0.2-1.3,0.4-2.1,0.7
		c-3.3,1.1-4.2,1-5.1,1.1c-0.9,0-1.9,0-5.1,1.3c-0.7,0.3-1.8,1.1-3.3,2.1c-0.7,0.5-1.5,1-2.4,1.6c-0.8,0.6-1.8,1.2-2.7,1.7
		c-1.6,1-2.7,1.4-2.9,1.5c-6.8,3.5-13.8,6.9-19.8,11.1c-2.7,2-4.6,3.8-6.5,5.7c-1.9,1.9-3.7,3.8-6.2,5.9c-1.3,1-3.1,2.5-5.2,4.2
		c-2.1,1.7-4.4,3.6-6.7,5.6c-2.3,1.9-4.6,4-6.5,5.9c-2,1.8-3.6,3.5-4.7,4.8c-6.4,7.2-12.3,15-17.6,23.2c-1.7,2.8-2.4,5-2.8,7.3
		c-0.2,1.1-0.5,2.2-0.9,3.4c-0.4,1.2-0.9,2.5-1.6,4l-2,4.1c-0.7,1.4-1.2,2.8-1.8,4.2c-0.6,1.4-1.2,2.8-1.7,4.2l-1.5,4.3
		c-0.9,2.4-1.5,4.7-2.2,6.8c-0.7,2.1-1.1,4.2-1.6,6.1c-0.2,1-0.5,1.9-0.7,2.8l-0.1,0.6l-0.1,0.3l-0.1,0.6c-0.2,0.8-0.3,1.5-0.5,2.2
		c-0.4,2.3-0.7,4.2-0.3,7.1c0.1,0.4,0.2,0.9,0.3,1.4c0,0.1,0.1,0.3,0.1,0.4l0,0l-0.1-0.1l-0.1-0.2c-0.2-0.2-0.4-0.5-0.6-0.8
		c-0.5-0.5-1-1.1-1.5-1.7c-1.1-1.2-2.1-2.4-2.9-3.1c-0.4-0.4-0.9-0.9-1.4-1.4c-0.3-0.3-0.5-0.6-0.8-0.8c-0.4-0.4-0.9-0.8-1.3-1.3
		c-1.7-1.7-3.5-3.3-5-4.8c-1.6-1.5-3.1-2.8-4.3-3.9c-4.8-4.2-5.2-3.7-10.2-7.7c-4.9-4.1-15.1-11.8-20.3-15.4
		c-1.3-0.9-3.2-2.1-5.4-3.4c-2.2-1.3-4.6-2.9-7.1-4.3c-2.5-1.4-5-2.8-7.2-4.1c-2.3-1.2-4.2-2.3-5.6-3c-5.5-3.1-5.8-2.7-11.4-5.6
		c-5.6-2.9-5.6-3-11.3-5.7c-2.8-1.4-7.3-3.2-11.6-5.1c-4.4-1.8-8.9-3.5-11.8-4.6c-6-2.1-6-2-12.1-4c-6.1-1.8-5.9-2.6-12-4.2
		c-6.2-1.6-2.3-0.8-8.5-2.3c-3.1-0.7-4.7-1.1-6.2-1.5c-1.5-0.4-3.1-0.7-6.3-1.3c-3.1-0.6-4.7-1-6.2-1.4c-1.6-0.4-3.1-0.7-6.3-1.2
		c-6.3-1-6.4-0.7-12.7-1.4c-3.2-0.4-6.2-0.4-9-0.7c-2.8-0.2-5.5-0.3-8-0.4c-2.6-0.1-5-0.3-7.4-0.2c-2.4,0-4.7,0-7.1,0
		c-9.4,0.3-18.8,0.8-31.6,3.6c-0.7,0.2-1.4,0.4-2.4,0.8c-0.5,0.2-1,0.4-1.5,0.6c-0.5,0.2-1,0.4-1.5,0.7c-2,0.9-4.4,2.1-5.7,2.5
		c-0.9,0.3-1.9,0.8-3.2,1.4c-0.2,0.1-0.5,0.2-0.8,0.3l-0.4,0.2l0.3-0.4c0.4-0.6,0.7-1.1,1.1-1.7c0.7-1,1.3-2,1.8-2.8
		c1.3-2.2,0.8-2,2.2-4.3c0.7-1.2,1.8-2.9,2.9-4.7c2.5-4,4.7-8.2,6.2-10.9c3-5.5,3-5.5,5.9-11.1c2.9-5.6,2.6-5.8,5.3-11.4
		c2.8-5.7,2.9-5.6,5.5-11.4c3.5-7.7,6.3-15.6,9.3-23.6c2.1-6,2.3-5.9,4.4-12c0.9-3,1.4-4.6,1.8-6.1c0.5-1.5,0.9-3.1,1.7-6.2
		c1.9-6.1,4.3-18.7,5.3-25.1c0.5-3.2,0.8-4.8,1.1-6.4c0.3-1.6,0.5-3.2,0.8-6.4c0.2-1.6,0.3-3.6,0.4-5.9c0.1-2.2,0.2-4.7,0.2-7.1
		c0.1-4.9-0.3-9.8-0.5-13.1c-0.3-3.3-0.7-6-1.5-8.7l-1-4.1c-0.4-1.4-0.8-2.9-1.1-4.5c-0.3-1.6-0.6-2.8-1-3.8c-0.3-1-0.6-1.8-0.8-2.6
		c-0.5-1.6-1.1-3.1-2.2-6.3c-0.5-1.6-1-2.7-1.4-3.7c-0.4-1-0.7-1.7-1-2.5c-0.6-1.6-1.4-3-2.9-6c-1.6-2.9-2.4-4.4-3.2-5.9
		c-0.9-1.4-1.7-2.9-3.7-5.7c-2.1-2.6-3.1-4-4.3-5.2c-0.7-0.7-1-1.2-2.1-2.2c-0.4-0.4-0.8-0.9-1.2-1.3c-0.3-0.4-0.8-0.8-0.9-1.2
		c2.2-1.1,3.9-2,4.8-2.9l0.1-0.1l0,0l0.2-0.2c0.3-0.4,0.7-0.8,1-1.2c0.7-0.8,1.5-1.7,2.2-2.6c0.7-1,1.5-2,2.3-3
		c0.7-1.1,1.5-2.2,2.2-3.3c2.8-4.5,5.1-9.2,6.4-12.4c1.3-3.2,2-4.8,2.5-6.5c0.3-0.8,0.6-1.6,0.9-2.6c0.3-1,0.6-2.3,1.1-3.9
		c0.8-3.3,1.7-8.4,2.1-13.4c0.5-5,0.6-10,0.6-13.3c0-6.6,0-6.6-0.4-13.1c-0.3-3.3-0.5-4.9-0.7-6.5c-0.2-1.6-0.5-3.2-0.9-6.4
		c-0.9-6.4-0.2-6.5-1.4-12.9c-0.6-3.2-1.1-4.7-1.6-6.2c-0.5-1.5-1-3.1-1.7-6.2c-1.5-6.2-4.7-18.6-6.7-24.6c-2-6-2.1-6-4.3-12
		c-2.2-6-2.2-6-4.5-11.9c-2.3-5.9-2.2-5.9-4.7-11.8c-2.5-5.8-2.9-5.6-5.5-11.4c-2.6-5.8-2.1-6-4.8-11.7c-1.4-2.9-3.5-7.3-5.6-11.6
		c0.4,0.1,0.7,0.1,1.1,0.1c2.5,0.2,5,0.4,7.3,0.6c2.3,0.1,4.4,0.2,6.1,0.3c6.7,0.1,6.7-0.1,13.3-0.3c6.6-0.5,6.6-0.7,13.1-1.4
		c6.5-0.9,6.6-0.2,13.1-1.5c6.4-1.4,6.4-1.4,12.7-3.1c3.2-0.8,4.7-1.4,6.2-1.9c1.6-0.5,3.1-1.1,6.1-2.1c3.1-1,4.6-1.5,6.1-2
		c1.5-0.5,3.1-1,6.1-2.2c3-1.1,7.5-3,11.9-5c4.4-2,8.7-4.1,11.6-5.4c5.7-2.8,5.6-3.2,11.2-6.1c5.6-3,16.9-9,22.2-12.4
		c5.4-3.3,5.4-3.3,10.7-6.8c5.3-3.4,15.9-10.5,20.9-14.2c5.1-3.7,5.1-3.8,10.1-7.6c5-3.8,4.7-4.2,9.7-8.1c4.9-3.9,5.3-3.5,10.1-7.5
		c4.8-4,4.7-4.2,9.5-8.3c4.8-4.1,4.9-4,9.6-8.1c4.7-4.2,4.6-4.2,9.3-8.5c4.6-4.3,4.6-4.3,9.2-8.6c2.3-2.2,3.3-3.4,4.3-4.6
		c0.5-0.6,1-1.2,1.7-1.9c0.3-0.3,0.6-0.7,1-1.1c0.2-0.2,0.3-0.4,0.5-0.6c0.8-0.8,2.1-1.9,3.2-2.9c1.1-1,2.2-1.9,2.9-2.7
		c0.4-0.4,0.9-1,1.5-1.7l0.1-0.2l0,0.2l0,0.4c0,0.2,0,0.5,0,0.7c0,0.5,0,1.1,0,1.6c0,1.1,0,2.2,0,3c0,2.2,0.2,2.1,0.2,4.4
		c0,0.6,0,1-0.1,1.4c-0.1,0.9-0.1,1.6-0.2,2.4c-0.1,1.6-0.2,3.1-0.2,6.3c0.1,6.3,0.2,6.3,0.3,12.5c0.1,3.1-0.5,16.2-0.5,29.3
		c-0.1,13.1,0.3,26.4,0.7,29.6c0.7,6.4,5,10.1,6,16.4c1.1,6.3,0.9,6.4,2.2,12.8c0.7,3.2,1.2,4.8,1.6,6.4c0.4,1.6,0.9,3.2,2,6.5
		c0.6,1.6,1.4,3.7,2.5,6c0.5,1.2,1.2,2.4,1.9,3.7c0.8,1.3,1.6,2.5,2.9,4c1.2,1.4,2.6,2.8,4.1,3.8c0.4,0.3,0.8,0.5,1.1,0.8
		c0.4,0.2,0.8,0.4,1.2,0.6c0.8,0.4,1.6,0.8,2.5,1c0.7,0.2,1.3,0.5,2,0.7c0.6,0.2,1.2,0.3,1.7,0.5c1.1,0.3,2.1,0.6,3,0.7
		c1.8,0.4,3.1,0.5,4.2,0.7c1.1,0.1,2,0.2,2.8,0.2c1.7,0.1,3.4,0.2,6.8,0.3c6.7,0.1-0.6,1.6,6.1,1.6c6.7-0.1,13.6-2,20-2.8
		c6.4-0.9,6.3-1,12.6-2c3.1-0.5,4.7-1,6.2-1.4c0.8-0.2,1.6-0.4,2.5-0.6c0.5-0.1,0.8-0.2,1.5-0.4c2.4-0.5,2.2-0.1,4.4-0.6
		c1.6-0.4,2.3-0.8,3.6-1.1c0,0.1-0.2,0.5-0.4,1c-0.9,2.2-0.8,2.1-1.6,4.4c-0.2,0.6-0.4,1-0.6,1.4c-0.2,0.4-0.4,0.7-0.5,1
		c-0.2,0.4-0.4,0.7-0.6,1.1c-0.1,0.2-0.2,0.5-0.3,0.7l-0.1,0.2c-0.1,0.2-0.1,0.3-0.2,0.5c-0.1,0.3-0.2,0.7-0.3,1.1
		c-1.9,6.1-1.5,6.2-3.3,12.3c-1.7,6.1-6.8,11.2-8.1,17.6c-1.3,6.4,1.2,13.7,0.5,20.2c-0.4,3.2-0.6,4.8-0.7,6.4
		c-0.1,1.6-0.3,3.1-0.5,6.3c-0.3,3.1-0.7,7.8-1.1,12.5c-0.3,4.7-0.6,9.4-0.8,12.5c-0.4,6.3-0.3,6.3-0.6,12.5
		c-0.2,6.3-0.7,6.2-0.9,12.5c-0.2,6.3,0.3,6.3,0.2,12.5c0,3.1-1.2,5.3-1.9,8.7c-0.7,3.4-1,8.2,1.2,16.3c1.5,5.9,0,6.3,0,12.5
		c0.1,6.3-1.3,6-1.2,12.3c0.1,6.3,2.2,6.5,2.4,12.7c0.3,6.2-4.3,6.4-3.5,12.7c0.4,3.3,0.8,6.5,1.2,9.6c0.4,3.1,0.8,6,1.2,8.7
		c0.7,5.4,1.1,9.9,0.9,13.1c-0.7,18.1-0.9,8.4-0.3,14.7c0.6,6.3,2.7,3,3.3,9.3c0.7,6.3,2,0.7,2.7,6.9c0.4,3.1-0.7,7-1,11.4
		c-0.3,4.3,0.3,9.1,3.7,13.6c1.8,2.4,1.9,3.9,1.7,5.7c-0.2,1.8-0.7,3.7-0.1,6.8c1.1,6.2,0.3,9,1.4,15.2c1.2,6.2,2,3.5,3.3,9.7
		c0.6,3.1,1.1,4.6,1.6,6.1c0.5,1.5,0.9,3,1.7,6.1c0.9,3.7,1.8,7.5,2.7,11.3l0.7,2.8l0.8,2.8l1.6,5.7l1.6,5.7
		c0.4,1.3,0.3,1.1,0.4,1.4l0.1,0.6l0.3,1.1l0.1,0.5l0.1,0.2C434.9,592.9,435,592.9,434.8,592.9z"></path>
</g>
</svg>
