<!--?xml version="1.0" encoding="utf-8"?-->
<!-- Generator: Adobe Illustrator 25.2.3, SVG Export Plug-In . SVG Version: 6.00 Build 0)  -->
<svg version="1.1" id="_x32_" xmlns="http://www.w3.org/2000/svg" xmlns:xlink="http://www.w3.org/1999/xlink" x="0px" y="0px" viewBox="0 0 514.2 800" style="enable-background:new 0 0 514.2 800;" xml:space="preserve">
<style type="text/css">
	.stblack{fill:#000000;}
	.st0{fill:#FFFFFF;}
</style>
<g>
	<path class="stblack" d="M438.7,625.2c6.4-18.8,57-1.4,57-1.4c-46.4-42.6-60.1-88.6-38.5-90.5c-7.6-19.3,13.4-38.8,18.3-40.1
		c-4.6-3.3-21.4-21.7-19.3-65.8c2.4-51.1,17.2-48.3,17.2-48.3s-10.6-23.3-7.5-48.6c2.5-20.3,9.1-43.5,9.1-43.5s-17.3,8.8-20.3-11
		s46.6-91,46.6-91s-40.2,26.1-52.1,16.9c-12.3-9.4,4.6-35.1,5.4-38.1c-3.5,0-23.3,2.4-30-19.4c-6.8-22.1,29.6-99.6,29.6-99.6
		s-57.7,60.9-72.1,52.6c-14.4-8.3-7.7-25.5-7.7-25.5s-17.7,19-36.8,15.8c-19.2-3.3-19-23.9-19-23.9s-17.2,16-27.5,13
		c-15-4.5-27.5-56.9-27.5-56.9s-23.5,41.7-32,52.2c-8.5,10.4-21.6,18.6-47.9,12c-26.3-6.7-29.8-15.1-39.5-28.9c0,0,3.3,34.2-13.4,40
		c-16.7,5.8-58.9-28.6-58.9-28.6s28.4,50.5,23.2,66.8c-5.2,16.2-40.2,10.8-40.2,10.8s19.3,22.1,19.5,46c0.2,24-64.4,21.1-61.4,22
		c3,0.8,43.8,45.2,50.6,61.8c6.8,16.6-29.4,31.6-26.4,31.4c3-0.2,20.2,7.3,23.9,27.1c4.9,25.9-41.9,41.1-41.9,41.1
		c37.8,15.1,68.9,25.3,35.3,51c26.7,13.6-10.8,45.5-27.7,54.8c51.2,8.9,54,91.1,20.8,126.4c34.3-4.9,8.2,39.1,4.4,41.2
		c38.3-15.2-5.7,84.1-15.3,90.5c40.1-28.3,69.8-40.1,84.5-28.5c8.9,7,11.9,25.3,9.1,46.3c32.2-36,42.4-34.1,54.3-15.1
		c26.2-28.6,43.2-23.9,58.6-15.6c15.5,8.3,30.7,55.4,30.7,55.4c14.3-51.2,19.9-54.1,36.6-63.6c16.7-9.5,25.8-10.2,25.8-10.2
		c15.9-2,51.6,29.7,51.6,29.7c-8.5-46.3-2.6-62.9,19.9-55.4c22.5,7.5,51.4,20.7,64,30.1C457.6,696.6,432.3,644,438.7,625.2z"></path>
	<path class="st0" d="M335.6,695.7c15.9-2,45.7,27.2,45.7,27.2c-8.5-46.3,5.7-58.1,28.2-50.6c22.5,7.5,39.2,17.5,51.8,26.9
		c-14.2-14-36.3-60.9-29.9-79.7c6.4-18.8,46.4-6,46.4-6c-46.4-42.6-46.2-81.6-24.6-83.5c-8.3-21.3,13.3-39,14.5-36.1
		c1.1,2.9-24.1-18.6-21.7-69.7c2.4-51.1,22.6-47.1,22.6-47.1s-15.7-16-12.6-41.3c2.5-20.3,12.3-42.6,12.3-42.6s-21.5,9.1-24.5-10.7
		c-3-19.8,38.9-80.9,38.9-80.9s-26,18.3-41.6,8.1s4.1-37.2,5-40.2c-3.5,0-24.6,0.4-31.3-21.5C408,125.7,441.4,63,441.4,63
		s-49,52.1-63.4,43.8c-14.4-8.3-9.2-23.5-9.2-23.5s-16.2,15.8-35.3,12.6C314.3,92.6,314,75.7,314,75.7s-16.4,14.9-26.6,11.4
		c-10.2-3.5-25.8-47.3-25.8-47.3s-14.8,28.4-23.3,38.9S208.6,98,182.3,91.3c-26.3-6.7-24.4-8-34-21.8c0,0,2.4,27.9-14.3,33.7
		c-16.7,5.8-50.1-22.4-50.1-22.4s22.1,41.8,16.9,58.1c-5.2,16.2-34.4,10.7-34.4,10.7s16,20.2,16.2,44.1s-58.8,23-55.7,23.8
		s39.2,43,46,59.6c6.8,16.6-24.5,28.2-21.6,28.1s13.6,6.8,17.3,26.5c4.9,25.9-34,40.3-34,40.3c37.8,15.1,60.5,27.9,26.8,53.6
		c26.7,13.6-4.7,40.8-21.5,50.1c45.7,11.7,48.2,92.6,18.9,125.9c34.3-4.9,6,37.6,2.1,39.7c38.3-15.2-2.7,76.2-12.3,82.7
		c64.5-45.6,93.9-34.8,86.6,20.6c32.2-36,37-31.3,48.9-12.2c26.2-28.6,47.6-23.8,63.1-15.5c15.5,8.3,26.2,48.8,26.2,48.8
		c14.3-51.2,17.9-48.8,34.5-58.3C324.5,697.9,335.6,695.7,335.6,695.7z"></path>
</g>
</svg>
