<!--?xml version="1.0" encoding="utf-8"?-->
<!-- Generator: Adobe Illustrator 25.2.3, SVG Export Plug-In . SVG Version: 6.00 Build 0)  -->
<svg version="1.1" id="_x34_" xmlns="http://www.w3.org/2000/svg" xmlns:xlink="http://www.w3.org/1999/xlink" x="0px" y="0px" viewBox="0 0 702.9 800" style="enable-background:new 0 0 702.9 800;" xml:space="preserve">
<style type="text/css">
	.stblack{fill:#000000;}
	.st0{fill:#FFFFFF;}
</style>
<g>
	<path class="st0" d="M171.3,128.8c43.8,40.1,88.9,18.8,75.2-5c94,46.4,257.6,0.7,316.5-46.9c-10,48.9,63.9,17.5,95.2-18.8
		c-52.6,99-65.1,318.2-7.5,357c-53.9,36.3-52.6,194.2-27.6,223c-117.8-15-207.9,115.2-211.7,127.8c-17.5-71.4-61.4-50.1-75.2-30.1
		C320,593.1,153.1,592.2,52.9,637.3C174.4,552.2,210.7,485.8,179.4,467c81.9-96.1,6.7-238,6.7-238
		C224.9,212.7,171.3,128.8,171.3,128.8z"></path>
	<path class="stblack" d="M653.7,54.3c-2.4,2.6-5.5,5.8-8.6,8.6c-1.5,1.4-3.1,2.7-4.5,3.9c-1.4,1.2-2.7,2.2-3.7,3c-2.8,2.2-7.6,6.4-12.7,10.3
		c-5.1,3.9-10.5,7.4-13.7,8.9c-3.3,1.5-4.9,2.2-6.6,2.8c-1.8,0.6-3.5,1.2-6.7,2.4c-3.4,1.1-5,1.5-6.7,2c-1.7,0.4-3.4,0.8-6.7,1.2
		c-0.8,0.1-1.8,0.1-2.8,0.2c-1,0.1-2,0-3.1-0.1c-2.1-0.3-4.4-0.6-6-1.6c-1.7-0.9-2.9-2.2-3.7-3.7c-0.1-0.4-0.3-0.8-0.5-1.2l-0.2-0.6
		c0-0.4-0.1-0.8-0.1-1.2c-0.1-0.8-0.2-1.6-0.3-2.4c0-0.4-0.1-0.7-0.1-1.2c0-0.5,0.1-0.9,0.1-1.4c0.2-2.1,0.4-3.9,0.6-5.5
		c0.2-1.7,0.4-3.1,0.6-4.4c0.4-2.8,0.7-4.7,1.1-7c-0.2,0-0.4,0.1-0.7,0.1l-0.4,0.1c-0.1,0-0.3,0-0.6,0.3c-1.2,0.9-2.7,2.1-4.6,3.5
		c-4.6,3.6-7.1,5.3-9.4,7c-1.2,0.9-2.4,1.7-3.8,2.8c-0.4,0.3-0.8,0.5-1.2,0.8c-0.2,0.1-0.5,0.3-0.7,0.5l-0.4,0.3
		c-0.6,0.4-1.3,0.8-2,1.3c-6.1,4-18.9,11-25.6,14c-3.3,1.6-5,2.3-6.6,3.1c-1.7,0.8-3.3,1.6-6.7,3c-6.8,2.9-6.8,2.6-13.7,5.3
		c-22.9,8.7-46.4,15.9-70.5,20.7c-7.2,1.5-7.3,1-14.5,2.3c-7.2,1.2-7.2,1.4-14.5,2.4c-3.6,0.4-11,1.9-18.5,3
		c-7.4,1.1-14.9,2-18.6,2.1c-7.4,0.5-22.1,0-29.4-0.4c-3.7-0.3-5.5-0.3-7.3-0.4c-1.8-0.1-3.7-0.2-7.3-0.6c-1.8-0.2-3.6-0.5-5.3-0.9
		c-1.7-0.4-3.4-1-5.1-1.5c-1.7-0.5-3.4-1-5.1-1.5c-1.7-0.5-3.4-1-5.2-1.3c-7.1-1.4-7-1.9-14-3.7c-2.8-0.8-5.6-1.7-8.4-2.6
		c-1.4-0.4-2.8-0.9-4.2-1.4l-4.9-1.8c-4.7-1.9-9.4-4.1-14-6.1l-3.5-1.6l-1.7-0.8l-0.9-0.4l-0.4-0.2l-0.1,0c-0.3,0-0.6,0.1-1,0.1
		l-3.1-0.8l3.4,7.2l2.9,6.2c0.1,0.2,0.3,0.5,0.3,0.7l0.2,0.6l0.4,1.2l0.8,2.3c0.1,0.2,0.2,0.4,0.2,0.6l0,0.5c0,0.3,0,0.6-0.1,0.9
		l-0.1,0.5l-0.1,0.3c-0.4,1.1-0.7,2.3-1.5,3.6c-0.8,1.3-1.8,2.7-3.3,3.9c-2.7,2.5-6.6,4.3-9.9,4.9c-3.4,0.6-6.2,0.1-8.8-0.6
		c-2.7-0.7-5.2-1.6-8.5-2.3c-1.6-0.4-2.9-0.6-3.9-0.9c-1-0.3-1.9-0.4-2.7-0.7c-0.8-0.3-1.7-0.5-2.7-0.8c-1-0.4-2.2-0.9-3.8-1.5
		c-1.6-0.8-2.7-1.4-3.6-1.9c-0.9-0.6-1.6-1.1-2.4-1.5c-1.5-0.9-2.9-2-5.7-3.9c-1.4-1-2.5-1.7-3.4-2.4c-0.9-0.6-1.6-1.1-2.3-1.7
		c-0.9-0.6-1.8-1.3-3-2.3c-0.3-0.4-0.5-0.9-0.8-1.3l-0.4,0.3c-0.4-0.3-0.7-0.6-1.2-1l-3.9,4.2l-4.8,3.1c0.3,0.5,0.6,0.9,0.8,1.3
		l-0.4,0.4c0.4,0.4,0.8,0.7,1.2,1.1c2.1,3.6,2.4,4.7,5.3,9.9c3.5,6.4,3.4,6.4,6.6,12.9c3.1,6.6,3.4,6.4,6.1,13.1
		c1.3,3.3,2,5,2.6,6.7c0.6,1.7,1.2,3.4,2.3,6.8c1,3.4,3.5,12,3.6,20.3c0.1,4.1-0.6,8-1.8,10.9c-1.1,2.9-2.9,4.6-3.8,5.6
		c-0.1,0.1-0.2,0.2-0.4,0.4c-0.3,0.2-0.6,0.4-0.8,0.5c-0.5,0.3-1.1,0.6-1.5,0.9c-1,0.6-1.7,1.1-2.7,1.6c-1.8,0.9-3.3,1.6-4.9,2.4
		c1,2.5,2.6,5.3,5.1,10.5c0.8,1.8,1.4,3.2,2,4.3c0.5,1,0.8,1.9,1.2,2.7c0.7,1.7,1.4,3.4,2.8,6.7c1.4,3.4,2,5.1,2.7,6.8
		c0.6,1.7,1.3,3.4,2.5,6.9c2.4,6.9,2.4,6.9,4.6,13.9c1.1,3.5,1.6,5.2,2.3,6.9c0.6,1.7,1.2,3.5,2.1,7c0.9,3.5,2.2,8.9,3.2,14.2
		c1.1,5.4,1.9,10.8,2.5,14.4c1,7.2,2,3,2.9,10.2c0.7,7.3,1.1,7.3,1.5,14.6c0.2,3.7,0.2,5.5,0.1,7.3c0,1.9-0.1,3.7-0.1,7.3
		c-0.1,3.6-0.5,6.5-1.1,9.3c-0.6,2.8-1.2,5.6-1.5,9.2c-0.5,3.6-0.8,5.4-1.1,7.1c-0.3,1.8-0.7,3.5-1.4,7.1c-2.7,14.2-7,28-13.5,40.9
		c-1.5,3.3-2.6,4.7-3.5,6.3c-1,1.6-1.9,3.1-3.7,6.1c-2,3-3,4.5-3.9,6c-0.5,0.8-1,1.5-1.6,2.5c-0.8,1-1.7,2.2-2.9,3.8
		c-1.9,2.3-3.2,4.1-4.4,5.5c-0.6,0.7-1.1,1.4-1.6,2c-0.4,0.6-1.2,1.3-1.2,1.8c1.2,0.8,2.4,1.7,3.8,2.8c0.7,0.6,1.6,1.2,2.5,2
		c0.5,0.4,1,0.7,1.5,1.2c0.3,0.2,0.3,0.3,0.5,0.5l0.4,0.4c0.5,0.6,1.2,1.3,1.5,2.1c0.2,0.4,0.4,0.8,0.7,1.2c0.2,0.4,0.3,0.9,0.5,1.3
		c0.8,1.8,1.1,4.1,1.2,6.4c0.2,4.7-1.1,9.7-2.2,12.9c-2.3,6.5-2.4,6.5-5.6,12.8c-1.6,3.2-2.6,4.7-3.5,6.2c-0.9,1.6-1.9,3.1-3.9,6.1
		c-4.1,5.9-4.2,5.9-8.6,11.6c-4.6,5.6-4.6,5.7-9.4,11.2c-2.4,2.7-3.6,4.1-4.8,5.5c-1.2,1.4-2.4,2.8-5,5.4
		c-5.1,5.3-5.3,5.1-10.5,10.3c-5.3,5.1-16.2,15-21.8,19.8c-5.6,4.8-17,14.2-22.9,18.7c-5.8,4.6-5.7,4.7-11.6,9.2
		c-7.8,5.9-15.9,11.6-23.9,17.2c-0.2,0.1-0.4,0.2-0.7,0.3l0.1,0.1c-0.2,0.2-0.5,0.3-0.7,0.5l-32.7,22.8l37.1-15
		c0.3-0.1,0.5-0.2,0.8-0.3l0.1,0.1c0.1-0.1,0.3-0.2,0.4-0.3c3.6-1.5,7.2-3.1,10.8-4.5c3.4-1.3,5.1-2,6.8-2.6
		c1.7-0.6,3.5-1.2,6.9-2.4c3.5-1.2,5.2-1.7,7-2.3c1.8-0.5,3.5-1.1,7-2.1c3.6-0.9,9.9-2.5,16.3-3.7c1.6-0.3,3.2-0.6,4.7-0.9
		c1.6-0.3,3.1-0.5,4.5-0.7c2.9-0.5,5.4-0.9,7.2-1.2c5.1-0.7,10.2-1.7,15.3-2.2c7.2-0.8,5.2-1.8,12.5-2.4c7.3-0.6,4.3,0.3,11.6,0
		c1.8-0.1,3.2-0.1,4.3-0.2c1.1,0,2.1,0,3,0c1.8,0,3.6,0,7.3,0c3.6,0.1,5.5,0.2,7.3,0.3c1.8,0.1,3.7,0.1,7.3,0.4
		c7.2,0.7,7.3,0.5,14.5,1.6c1.8,0.3,3.2,0.4,4.3,0.6c1.1,0.2,2,0.4,2.9,0.6c1.8,0.4,3.6,0.7,7.1,1.4c3.5,0.8,5.3,1.2,7,1.7
		c1.8,0.4,3.6,0.8,7,1.9c1.7,0.5,3.9,1.2,6.2,2c2.3,0.9,4.8,1.9,7.3,2.9c2.6,0.9,4.9,2.2,7.2,3.2c2.2,1.1,4.3,1.9,5.8,2.9
		c3.1,1.8,7.1,3.6,10.7,5.9c1.8,1.1,3.7,2.2,5.4,3.4c1.7,1.3,3.2,2.4,4.7,3.5c0.7,0.6,1.6,1.2,2.5,2c0.9,0.8,1.9,1.7,2.9,2.7
		c2,2,4.5,4.1,6.6,6.5c1.1,1.2,2.1,2.4,3.2,3.6c0.5,0.6,1,1.2,1.5,1.7c0.4,0.6,0.9,1.2,1.3,1.8c1.7,2.3,3.2,4.3,4.3,5.7
		c2,2.9,2.8,4.5,3.8,6c0.9,1.5,1.9,3,3.5,6.2c3.7,6.1,9,19.5,10.9,26.4c1,3.4,1.3,5.2,1.8,7c0.2,0.9,0.4,1.8,0.7,2.8
		c0.2,0.8,0.4,1.7,0.6,2.6c0.2,1.1,0.4,2.4,0.6,3.8c0.8,5.5,1.2,8.5,1.5,11.5c0.2,1.5,0.4,3,0.6,4.8c0.1,0.9,0.3,1.9,0.4,3
		c0.1,0.7,0.2,0.8,0.4,1.1c0.1,0.3,0.3,0.6,0.5,0.9c0.2-0.2,0.5-0.7,0.9-1.2c2.3-3,4-5.3,5.5-7.2c1.4-1.8,2.6-3.4,3.7-4.7
		c0.6-0.6,1.1-1.2,1.7-1.8c0.6-0.6,1.2-1.4,1.9-1.9c0.7-0.6,1.5-1.3,2.4-2c0.6-0.5,1.2-0.8,1.9-1.4c2.8-1.8,4.3-2.6,5.8-3.2
		c1.5-0.7,3-1.3,6.1-2.2c3.1-0.8,4.7-0.8,6.2-1c1.5,0,3.1-0.2,6.1,0.6c3,0.7,4.3,1.6,5.7,2.3c0.7,0.4,1.3,0.9,2.1,1.4
		c0.7,0.7,1.8,1.2,2.9,2.3c2.5,2,7.4,7.2,10.9,13.8c0.8,1.7,1.8,3.3,2.5,5c0.4,0.8,0.7,1.6,1.1,2.4l0.3,0.6c0.1,0.2,0.2,0.6,0.3,0.9
		c0.2,0.7,0.5,1.3,0.7,1.9c0.4,1.3,0.9,2.5,1.3,3.6c0.4,1.1,0.8,2.2,1.1,3.4c0.6,2.2,1.2,4.2,1.6,5.6c0.7,2.5,1.4,5.1,2,7.7
		c0.3,1.3,0.7,2.7,1,4.1c0.2,0.7,0.4,1.4,0.5,2l0.5,0.8c1.8-3.8,4.1-8.4,6.1-12.4c0.5-1,1-2,1.5-3l0.8-1.5l0.8-1.2
		c1-1.6,2-3.2,3-4.8c2.4-3.6,3.7-5.5,5.1-7.5c1-1.5,2-3,4.3-5.9c4.5-5.7,4.8-5.5,9.5-11.1c4.7-5.6,12.4-13.5,17.5-18.6
		c5.2-5.1-1.7,1.1,3.5-4c1.3-1.3,3.4-3.3,5.9-5.5c2.5-2.3,5.4-4.9,8.4-7.4c2.9-2.6,6-5,8.6-7.1c2.7-2.1,4.9-3.8,6.4-4.9
		c2.9-2.2,6.6-3.9,10.3-5.6c3.7-1.6,7.3-3.3,10.5-5.1c6-3.9,16.2-12.2,22.8-15.3c6.6-2.9,0.1,0.2,6.7-2.7c1-0.5,2.1-0.9,3.1-1.3
		c2.5-0.8,5-1.6,7.5-2.3c2.5-0.7,5-1.3,7.5-2.1c1.7-0.6,3.6-1.1,5.5-1.7c1.9-0.6,4-1.3,6-1.9c2.1-0.5,4.2-1,6.1-1.5
		c2-0.5,3.9-1,5.7-1.1c3.5-0.5,4.3-0.6,5.2-0.7c0.4-0.1,0.8-0.1,1.6-0.2c0.7-0.1,1.8-0.2,3.6-0.3c3.6-0.2,5.4-0.4,7.1-0.5
		c1.8-0.1,3.6-0.1,7.2-0.1c0.6,0,1.1,0,1.6,0c0.6,0,1.2,0,1.8,0.1c1.2,0.1,2.4,0.2,3.6,0.3c2.3,0.3,4.6,0.6,7.1,0.9
		c2.3,0.3,4.8,0.6,7.3,1c1.3,0.2,2.5,0.3,3.8,0.5l1,0.1c0.3,0,0.5,0,0.7,0l1.4,0c-1.7-2.5-3.4-5.1-5.1-7.5
		c-3.3-4.5-4.7-7.8-6.7-11.2c-0.2-0.4-0.5-0.8-0.7-1.2c-0.2-0.4-0.3-0.8-0.5-1.2c-0.4-1.1-0.4-1.3-0.5-1.7c-0.2-0.7-0.4-1.4-0.6-2.1
		c-0.7-2.7-1.2-4.9-1.7-6.8c-0.4-1.9-0.8-3.5-1.2-5c-0.3-1.5-0.6-3-1-4.8c-0.7-3.5-1.7-9.2-2.6-14.9c-0.4-2.9-0.7-5.8-1-8.4
		c-0.2-2.7-0.4-5-0.6-6.8c-0.8-12.1-0.9-24.3-0.4-36.5c0.4-7.3,0.5-3.2,1-10.5c0.6-7.2-0.1-4.3,0.6-11.6c0.1-1.7,0.4-4.3,0.7-7.6
		c0.2-3.1,0.6-6.7,1-10.2c0.3-3.6,0.9-7.1,1.3-10.2c0.5-3.1,1-5.7,1.5-7.5c0.9-3.5,1.4-5.2,1.9-7c0.5-1.8,1-3.5,2.2-6.9
		c1.1-3.5,1.8-5.1,2.4-6.8c0.6-1.7,1.2-3.4,2.7-6.7c1.3-3.3,3.4-6.1,5.3-8.9c1.1-1.4,2.2-2.8,3.1-4c0.5-0.7,1-1.4,1.5-2
		c0.5-0.7,1-1.3,1.5-2c1.9-2.9,3.8-5.8,5.8-8.8l0.8-1c0.2-0.2,0.2-0.3,0.5-0.6l0.8-0.9c1.1-1.2,2.3-2.3,3.4-3.3
		c2.3-2,4.6-3.9,6.8-5.7l0.1-0.1c-2.4-1.8-4.2-3.1-5.8-4.3c-1.5-1.1-2.9-2.1-3.7-3c-0.5-0.4-1-0.9-1.5-1.3c-0.3-0.2-0.5-0.5-0.8-0.7
		l-0.4-0.4l-0.3-0.3c-0.7-0.8-1.6-1.7-2.6-3.1c-2.1-2.7-5-7-7.5-11.8c-2.5-4.7-4.4-9.7-5.6-13.1c-2.3-6.8-2.2-6.9-4.1-13.9
		c-1.8-7-1.6-7.1-3-14.2c-0.7-3.6-1.6-9-2.4-14.4c-0.7-5.4-1.4-10.9-1.7-14.6c-0.7-7.3-0.4-13.6-0.7-21c-0.3-7.3,0,0-0.3-7.3
		c-0.1-3.7,0-11.3,0.4-18.8c0.4-7.7,0.9-15.3,1.1-18.8c0.3-7.3-1.1-14.9-0.5-22.3c0.6-7.3,0.7-7.3,1.4-14.7
		c0.7-7.3,3.1-20.1,4.2-27.4c1-7.3,5.2-25,6.8-32.2c2.4-11.5,5.1-23,8.3-34.2c2-7,1.9-7.1,4-14.1c2.3-7,2.4-6.9,4.9-13.8
		c1.3-3.4,3-8.6,5.1-13.7c2-5.1,4.1-10.1,5.7-13.3c0.8-1.7,2-4.1,3.9-7.6L685.3,20L653.7,54.3z M635.2,99.2
		c-1.8,5.3-3.5,10.7-4.6,14.3c-2.1,7.2-1.9,7.3-3.9,14.5c-1.9,7.3-0.8-0.8-2.6,6.4c-1.8,7.3-2.9,15.4-4.4,22.7
		c-1.5,7.4-1.4,7.4-2.8,14.7c-1.3,7.4-1.1,7.4-2.2,14.8c-1.1,7.4-1.4,7.4-2.3,14.8c-0.9,7.4-0.8,7.4-1.6,14.9
		c-0.8,7.5-0.7,7.5-1.3,14.9c-0.6,7.5-0.9,7.4-1.4,14.9c-0.4,7.5-0.2,7.5-0.4,15c-0.2,7.5-2.6,14.6-2.5,22.2
		c0.1,7.6,2.6,15.4,3,22.8c0.5,7.5,0.5,7.5,1.1,15c0.3,3.8,0.9,9.4,1.7,15c0.7,5.6,1.7,11.2,2.4,14.9c1.5,7.4,1.5,7.4,3.4,14.8
		c2,7.4,1.7,7.5,4.2,14.8c1.3,3.6,2.1,5.4,2.9,7.2c0.8,1.8,1.7,3.5,3.4,7c1.8,3.4,2.5,6.2,4.7,10.1c0.5,1,1.1,2,2,3.1
		c0.8,1.1,1.7,2.3,2.9,3.6c1.5,1.7,1.7,1.7,2.6,2.4c0.5,0.2,1.1,0.5,2.1,0.9l0.1,0.1c-0.2,0.7-1,1.2-1.5,1.6l-0.4,0.3l-0.1,0.1
		l-0.3,0.3c-0.2,0.2-0.5,0.4-0.7,0.6c-0.5,0.4-1,0.9-1.6,1.5c-0.5,0.6-1.1,1.3-1.8,2c-1.3,1.5-2.3,2.6-3.1,3.5
		c-0.8,0.9-1.4,1.6-2,2.4c-1.3,1.4-2.6,2.8-4.6,6.3c-2.1,3.4-2.7,5.4-3.3,7.4c-0.3,1-0.6,2-1.1,3.1c-0.4,1.2-0.9,2.6-1.7,4.3
		c-1.6,3.5-2.9,5.1-4.2,6.6c-1.3,1.6-2.6,3.1-3.6,6.9c-4.6,15.8-6.5,30.3-8.1,37.6c-2.3,10.6-2.8,13.1-2.9,13.9
		c-0.2,0.7,0-0.3-0.4,3.5c-0.8,7.6,1.1,4.1,0.4,11.7c-0.5,7.6,1.1,1.2,0.6,8.7c-0.3,7.5-4.3,18.2-0.5,30.2c2,6.1,0.1,7.6,0.7,15.1
		c0.7,7.6,0.3,10.7,1.5,18.3c0.6,3.8,1,4.9,1.4,6c0.4,1.1,0.8,2.2,1.6,6c0.9,3.8,1.4,5.6,2.1,7.5c0.3,1,0.6,1.9,1,3
		c0.4,1.2,0.9,2.6,1.6,4.4c0.4,1.1,0.8,2.1,1.4,2.9l0.2,0.3l-0.4,0l-0.8-0.1l-1.5-0.2c-0.2,0-0.5,0-0.7-0.1l-0.3,0l-1.2,0l-6.1-0.2
		c-4,0.2-8.1,0.3-12.2,0.6l-6,0.7c-2,0.2-4,0.4-6,0.9c-3.8,0.7-5.7,1-7.6,1.4c-1.9,0.4-3.8,0.9-7.5,1.8c-3.8,0.9-4.7,1-5.8,1.1
		c-1,0.1-2,0.2-5.7,1.4c-1.7,0.4-5.6,2.7-10.3,4.6c-2.1,0.8-3.3,1.3-3.5,1.4c-4,1.8-8.2,3.3-12.2,5.3c-2,0.9-4,1.8-5.9,2.8
		c-1.9,1-3.8,2.1-5.7,3.1c-3.4,1.8-5.8,3.8-8.3,5.5c-2.5,1.8-4.9,3.7-8.1,5.8c-1.6,1-3.8,2.5-6.4,4.3c-2.6,1.8-5.5,3.7-8.3,5.9
		c-1.4,1-2.8,2.1-4.2,3.1c-1.3,1.1-2.6,2.1-3.9,3c-2.4,1.9-4.5,3.6-5.9,4.9c-8.4,7.4-16.4,15.1-23.9,23.2
		c-5.1,5.6-5.5,8.4-10.4,14.2c-4.5,5.3-8.8,10.7-12.9,16.3c-1.5,2-2.9,3.9-4.1,5.7c-0.5,0.7-0.9,1.3-1.4,2c-0.8,1.2-1.5,2.3-2,3.3
		c-0.2,0.8-0.3-0.2-0.4-0.6l-0.3-1.5c-0.3-1-0.5-1.8-0.8-2.9c-0.2-0.5-0.4-1.1-0.6-1.6c-0.6-1.4-1.2-2.8-1.8-4.3
		c-1.4-3-3-6.2-5.2-9.7c-2.2-3.4-5.8-8.4-10.8-12.5c-4.8-4.2-11.1-6.9-15.4-7.7c-0.5-0.1-1.1-0.2-1.7-0.4c-0.6-0.1-1.3-0.2-1.9-0.2
		c-1.3-0.2-2.8-0.2-4.3-0.2c-3,0.1-6.3,0.4-9.4,1.3c-6.2,1.6-11.8,4.7-15.1,7c-0.4,0.3-0.8,0.6-1.2,0.8c-0.2,0.1-0.4,0.3-0.5,0.4
		c-0.2,0.2-0.2,0.1-0.2,0.2c-0.2,0.2-0.4,0.3-0.5,0.5c-0.3,0.3-0.5,0.6-0.8,0.9c-0.5,0.6-1,1.2-2,2.4l-0.1,0.1l-0.3,0.5l-0.1,0.1
		l0-0.1l0-0.3c-0.1-0.4-0.1-0.9-0.2-1.4c-0.1-1-0.3-2.1-0.5-3.1c0-0.3-0.1-0.5-0.2-0.8c-0.1-0.4-0.2-0.8-0.3-1.3
		c-0.3-1.3-0.6-2.7-0.9-3.9c-0.6-2.5-1-4.8-1.7-6.6c-1.2-3.7-3.2-10.3-6.2-16.7c-0.7-1.6-1.3-3.2-2.1-4.7c-0.8-1.5-1.6-2.9-2.3-4.3
		c-1.5-2.7-2.6-5.2-3.8-6.7c-4.2-6.5-4.2-6.5-8.9-12.5c-1.2-1.5-2-2.7-2.8-3.6c-0.8-0.9-1.4-1.6-2.1-2.3c-1.3-1.4-2.6-2.9-5.2-5.7
		c-1.4-1.3-3.2-2.9-5.1-4.7c-1-0.9-2-1.8-3.1-2.8c-1.1-0.9-2.3-1.7-3.4-2.6c-4.5-3.7-9.4-6.7-12.6-8.8c-3.2-2-5-2.8-6.7-3.7
		c-1.7-0.9-3.3-1.9-6.8-3.4c-3.5-1.6-5.2-2.5-6.9-3.4c-1.7-0.8-3.5-1.5-7.1-2.9c-3.6-1.4-4.3-1.5-4.9-1.8c-0.7-0.2-1.4-0.5-5-1.6
		c-3.6-1.2-5.5-1.6-7.3-2.1c-1.8-0.4-3.7-1-7.4-1.8c-3.7-0.7-5.6-1.1-7.4-1.6c-0.9-0.2-1.9-0.4-3-0.7c-1.2-0.2-2.6-0.4-4.5-0.7
		c-7.5-1.1-7.5-0.9-15.1-1.6c-15.1-1.1-26.1-1-37-0.6c-10.9,0.6-21.9,1.5-36.8,4.1c-3.7,0.7-9.6,1.9-15.4,3.5
		c-1.5,0.4-2.9,0.8-4.4,1.1c-1.4,0.4-2.8,0.8-4.1,1.2c-2.7,0.8-5,1.4-6.8,1.9c-2,0.6-4.6,1.3-7.4,2.2c3.1-2.4,4.1-3.1,8.8-6.8
		c5.9-4.6,5.7-4.8,11.6-9.5c5.8-4.7,5.9-4.7,11.6-9.5c7.6-6.5,14.9-13.3,22.1-20.2c5.4-5.3,5.5-5.1,10.7-10.5
		c2.6-2.7,3.9-4.1,5.2-5.5c1.2-1.4,2.6-2.8,5-5.6c1.2-1.4,2.8-3.2,4.5-5.2c1.6-2,3.4-4.2,5.2-6.4c3.5-4.5,6.8-9.1,9-12.3
		c2.1-3.2,3.2-4.7,4.2-6.4c1-1.6,2.1-3.2,3.9-6.7c1.9-3.4,4.4-8.7,6.2-14.4c1.9-5.7,2.7-11.9,2.5-16.2c-0.1-4.3-1.3-8-3-11.4
		l-1.5-2.4c-0.5-0.8-1.1-1.4-1.7-2.1c-0.3-0.3-0.6-0.8-0.8-1l-0.5-0.4c-0.3-0.3-0.6-0.6-1-0.9c-0.3-0.2-0.6-0.5-0.8-0.6l-0.2-0.2
		l0.1-0.2l0.3-0.3c0.2-0.2,0.3-0.4,0.5-0.6c0.3-0.4,0.5-0.7,0.8-1.1c0.9-1.2,1.8-2.4,3.5-4.6c2.1-3.1,3.2-4.7,4.3-6.3
		c0.5-0.8,1.1-1.6,1.7-2.6c0.6-1,1.3-2.3,2.3-3.9c1.9-3.3,3-4.9,3.9-6.6c0.9-1.7,1.8-3.4,3.5-6.8c0.9-1.7,1.5-3,1.9-4.1
		c0.4-1.1,0.8-2,1.2-2.9c0.7-1.8,1.5-3.5,2.8-7.1c0.6-1.8,1.3-3.8,2-5.8c0.4-1,0.7-2,1.1-3.1c0.3-1,0.7-2.1,1-3.2
		c0.7-2.2,1.3-4.3,1.9-6.3c0.6-2.1,1-4.1,1.4-6c0.3-1.9,0.9-4.2,1.2-6.8c0.4-2.6,0.7-5.4,1.1-8.3c0.5-5.7,1-11.4,1.1-15.2
		c0.4-7.6,0.3-7.6,0.3-15.2c-0.2-3.8-0.4-9.5-1-15.2c-0.3-2.8-0.6-5.7-0.9-8.2c-0.4-2.6-0.6-4.9-0.9-6.8c-1.2-7.5-1.1-7.5-2.6-14.9
		c-0.7-3.7-1.2-5.5-1.7-7.4c-0.4-1.8-0.9-3.7-1.8-7.3c-0.9-3.7-1.3-5.5-1.7-7.4c-0.4-1.8-0.7-3.7-1.9-7.3c-2.2-7.2-2.5-7.1-5-14.3
		c-1.2-3.6-3.1-8.9-5.2-14.2c-1-2.6-2.1-5.3-3.1-7.7c-0.5-1.2-1-2.3-1.5-3.4c-0.4-0.9-0.8-1.7-1.1-2.5c-0.4-0.9-0.7-1.4-0.8-1.7
		c0.6-0.4,0.5,0,2.9-2.1c0.8-0.9,1.6-1.6,2.2-2.3c0.6-0.7,1-1.4,1.5-2c0.4-0.6,0.8-1.2,1.2-1.7c0.3-0.6,0.5-1.1,0.8-1.6
		c0.5-1.1,1.1-2.1,1.5-3.5c0.5-1.4,1-3,1.4-5.2c0.8-4.3,0.8-6.4,0.8-8.5c0-1,0-2.1-0.1-3.4c-0.1-1.3-0.1-2.8-0.4-4.8
		c-0.2-2-0.5-3.5-0.8-4.7c-0.3-1.2-0.5-2.2-0.7-3.1c-0.5-1.9-1-3.8-2.1-7.6c-1-3.6-1.6-5.4-2.2-7.4c-0.5-1.9-1.1-3.7-2.5-7.3
		c-1.4-3.6-3.6-8.9-6-14c-0.2-0.5-0.5-1-0.7-1.5c0.7,0.4,1.5,0.7,2.3,1c5.5,2.5,11.5,4.2,15.5,4.9c4,0.8,6.1,1,8.2,1.1
		c2.1,0.1,4.2,0.2,8.4-0.1c2.1-0.2,3.7-0.4,5-0.7c1.3-0.2,2.4-0.5,3.4-0.8c1.1-0.3,2.1-0.6,3.4-1.1c0.7-0.2,1.4-0.5,2.2-0.9
		c0.8-0.4,1.7-0.7,2.7-1.3c4-2.3,5.9-3.9,7.6-5.6c0.9-0.8,1.7-1.9,2.6-3.2c0.4-0.7,0.9-1.5,1.4-2.4c0.4-0.9,0.9-2.1,1.3-3.3
		c0.1-0.4,0.2-0.7,0.2-1.1l0-0.2l0-0.3l0-0.5c0-0.3-0.1-0.5-0.1-0.8c-0.1-0.2-0.1-0.4-0.2-0.6l-0.2-0.4l0.1,0l0.2,0.1
		c0.8,0.3,1.1,0.4,1.5,0.6c0.2,0.1,0.4,0.1,0.7,0.2l0.4,0.1c0.7,0.2,1.4,0.5,2.2,0.8c3.6,1.4,5.5,1.9,7.3,2.5
		c1.8,0.6,3.6,1.3,7.3,2.2c3.7,0.9,9.3,2.4,14.9,3.4c1.4,0.3,2.8,0.5,4.2,0.8c1.4,0.2,2.7,0.4,4,0.6c2.6,0.4,4.9,0.7,6.8,1
		c3.8,0.4,5.7,0.6,7.6,0.7c1.9,0.1,3.8,0.3,7.6,0.6c7.6,0.8,22.7,1.1,30.3,1c7.5-0.3,7.6-0.2,15.1-0.7c7.5-0.4,22.6-1.9,30-2.9
		c7.4-1.1,7.4-1.1,14.9-2.4c7.4-1.4,7.4-1.5,14.7-3.1c7.4-1.5,7.4-1.2,14.8-2.9c7.3-1.8,7.3-2,14.5-3.9c7.2-2.1,7.3-1.9,14.5-4.1
		c7.2-2.2,7.2-2.3,14.3-4.7c7.1-2.5,7.1-2.5,14.1-5.2c7-2.8,6.9-3,13.8-6c6.9-2.9,20.7-9.1,27.3-12.9c1.7-0.9,3.7-2.1,6-3.4
		c2.3-1.3,4.7-2.8,7.1-4.4l1.8-1.2l0.4-0.3l0.2-0.1l0,0l0.3-0.2c0.4-0.3,0.8-0.6,1.1-0.8c0.8-0.5,1.4-1,1.9-1.5
		c0.4-0.3,0.7-0.6,1-0.8l0,0.1l0,0.2l0,0.3c-0.1,0.5-0.1,0.9-0.1,1.3c0,0.5,0,1.1,0,1.9c0,0.3,0.2,0.9,0.2,1.2
		c0,0.2,0.1,0.4,0.1,0.5l0,0.1l0.1,0.3c0.1,0.2,0.1,0.4,0.2,0.6c0.6,1.5,0.9,2.7,1.6,3.8c0.7,1.1,1.3,2.3,2.5,3.4
		c1.1,1.3,2.7,2.5,5,3.7c4.6,2.2,6.9,2.1,9.1,2.5c2.2,0.1,4.4,0.2,8.5-0.2c2.1-0.2,7.3-0.9,13.7-2.8c6.4-1.9,14-4.8,21.2-8.4
		c7.2-3.6,14.1-7.8,19.6-11.5c0.5-0.4,1-0.7,1.5-1.1c-0.2,0.5-0.4,1-0.6,1.6C639,88.5,637.1,93.9,635.2,99.2z"></path>
</g>
</svg>
