<!--?xml version="1.0" encoding="utf-8"?-->
<!-- Generator: Adobe Illustrator 25.2.3, SVG Export Plug-In . SVG Version: 6.00 Build 0)  -->
<svg version="1.1" id="_x34_" xmlns="http://www.w3.org/2000/svg" xmlns:xlink="http://www.w3.org/1999/xlink" x="0px" y="0px" viewBox="0 0 800 613.073" style="enable-background:new 0 0 800 613.073;" xml:space="preserve">
<style type="text/css">
	.stblack{fill:#000000;}
	.st0{fill:#FFFFFF;}
</style>
<g>
	<path class="st0" d="M375.725,24.433c-1.266,0.137-2.529,0.276-3.789,0.417C141.802,50.634,25.913,150.866,25.913,315.665
		c0,144.693,155.715,191.707,288.793,195.724c42.734,0,78.437-3.196,105.908-7.031c5.991,39.013,0.886,65.592,0.886,65.592
		l-2.257,21.885c0,0,35.235-56.591,53.685-97.282c7.626-1.884,11.593-3.144,11.593-3.144
		c113.815-13.389,291.231-113.815,289.558-267.8C772.405,69.624,550.018,5.624,375.725,24.433z"></path>
	<path class="stblack" d="M49.968,413.706c14.152,19.842,32.601,36.241,53.823,49.662c31.847,20.133,69.945,33.634,109.763,42.162
		c39.822,8.521,81.385,12.055,120.21,12.056c5.158,0,10.27-0.062,15.323-0.181c3.263-0.078,5.844-2.787,5.767-6.051
		c-0.078-3.264-2.787-5.846-6.051-5.768h-0.002c-4.958,0.119-9.975,0.179-15.039,0.179c-33.873,0-69.874-2.749-104.726-9.201
		c-26.14-4.835-51.632-11.754-75.097-21.117c-35.215-14.043-65.792-33.573-87.453-59.659c-10.839-13.05-19.478-27.741-25.433-44.329
		c-5.954-16.589-9.229-35.09-9.231-55.793c0.002-40.734,7.192-77.224,21.439-109.492c10.689-24.203,25.352-46.053,44.055-65.578
		c28.05-29.276,65.236-53.33,111.737-71.837c46.494-18.504,102.28-31.433,167.304-38.448c19.476-2.102,39.578-3.161,59.912-3.161
		c79.792-0.023,163.118,16.359,226.053,49.294c31.478,16.452,57.825,36.999,76.293,61.485c9.239,12.245,16.523,25.476,21.555,39.737
		c5.03,14.263,7.814,29.564,7.995,46.008c0.007,0.695,0.01,1.394,0.01,2.097c-0.007,37.041-10.657,70.815-28.495,101.075
		c-26.74,45.372-69.795,82.706-116.719,109.818c-46.893,27.126-97.642,44.009-139.134,48.876c-0.234,0.028-0.45,0.096-0.673,0.149
		c0.013-0.034,0.029-0.07,0.044-0.105c2.378-5.963,4.244-11.409,5.396-16.236c0.754-3.176-1.206-6.363-4.382-7.118
		c-3.176-0.756-6.363,1.206-7.117,4.381l-0.001-0.001c-0.94,3.96-2.631,8.975-4.875,14.59c-3.927,9.843-9.535,21.558-15.722,33.519
		c-9.281,17.948-19.864,36.476-28.116,50.492c-4.127,7.009-7.67,12.892-10.18,17.018c-1.255,2.063-2.252,3.689-2.934,4.795
		c-0.341,0.553-0.604,0.977-0.779,1.262c-0.177,0.284-0.265,0.426-0.265,0.426c-1.727,2.77-0.879,6.417,1.893,8.143
		c2.77,1.725,6.416,0.878,8.143-1.893c0.029-0.049,13.873-22.282,28.804-48.989c7.465-13.358,15.205-27.829,21.641-41.258
		c1.682-3.51,3.27-6.943,4.746-10.276c1.158,1.936,3.371,3.125,5.759,2.843c28.984-3.415,61.708-12.283,94.626-26.066
		c49.36-20.685,99.159-52.417,136.867-93.796c18.848-20.692,34.665-43.812,45.782-69.177c11.116-25.359,17.516-52.972,17.513-82.471
		c0-0.736-0.003-1.477-0.01-2.223c-0.192-17.703-3.206-34.337-8.667-49.814c-9.559-27.099-26.58-50.594-48.768-70.483
		c-33.301-29.842-78.207-51.728-128.084-66.262C544.584,22.469,489.689,15.33,436.27,15.327c-20.744,0-41.263,1.079-61.18,3.228
		c-58.528,6.317-109.915,17.378-154.153,33.103c-33.179,11.794-62.336,26.215-87.43,43.244
		c-37.639,25.531-66.121,56.981-85.089,93.968C29.438,225.852,19.995,268.285,20,315.665
		C19.978,354.689,31.083,387.263,49.968,413.706z"></path>
	<path class="stblack" d="M417.574,574.074c3.133,0.921,6.419-0.872,7.342-4.004c0.123-0.431,3.955-13.626,3.957-35.639
		c0-11.006-0.96-24.215-3.825-39.116c-0.618-3.206-3.715-5.305-6.922-4.688c-3.206,0.617-5.306,3.715-4.688,6.921l-0.002-0.001
		c2.713,14.109,3.612,26.565,3.612,36.885c0,10.318-0.899,18.499-1.785,24.05c-0.443,2.776-0.883,4.893-1.202,6.289
		c-0.16,0.698-0.291,1.216-0.378,1.547c-0.043,0.165-0.075,0.283-0.095,0.353l-0.017,0.065h-0.001l-0.003,0.011h0.001
		C412.654,569.875,414.446,573.154,417.574,574.074z"></path>
</g>
</svg>
