<?xml version="1.0" encoding="UTF-8" standalone="no" ?>
<!DOCTYPE svg PUBLIC "-//W3C//DTD SVG 1.1//EN" "http://www.w3.org/Graphics/SVG/1.1/DTD/svg11.dtd">
<svg xmlns="http://www.w3.org/2000/svg" xmlns:xlink="http://www.w3.org/1999/xlink" version="1.1" width="704.2424242424242" height="996" viewBox="0 0 704.2424242424242 996" xml:space="preserve">
<desc>Created with Fabric.js 5.3.0</desc>
<defs>
</defs>
<g transform="matrix(1 0 0 1 352.1151515151515 452.41961192428334)"  >
<polygon style="stroke: rgb(0,0,0); stroke-width: 2; stroke-dasharray: none; stroke-linecap: butt; stroke-dashoffset: 0; stroke-linejoin: miter; stroke-miterlimit: 4; fill: rgb(255,255,255); fill-opacity: 0.25; fill-rule: nonzero; opacity: 1;"  points="-351.1151515151515,-193.49998783586565 -351.1151515151515,193.49998783586565 351.1151515151515,193.49998783586565 351.1151515151515,-193.49998783586565 " />
</g>
<g transform="matrix(1 0 0 1 352.1151515151515 825.4537392740139)"  >
<polygon style="stroke: rgb(0,0,0); stroke-width: 2; stroke-dasharray: none; stroke-linecap: butt; stroke-dashoffset: 0; stroke-linejoin: miter; stroke-miterlimit: 4; fill: rgb(255,255,255); fill-opacity: 0.25; fill-rule: nonzero; opacity: 1;"  points="-351.1151515151515,-169.53413951386486 -351.1151515151515,169.53413951386486 351.1151515151515,169.53413951386486 351.1151515151515,-169.53413951386486 " />
</g>
<g transform="matrix(1 0 0 1 94.60493109423788 124.95981204420886)"  >
<polygon style="stroke: rgb(0,0,0); stroke-width: 2; stroke-dasharray: none; stroke-linecap: butt; stroke-dashoffset: 0; stroke-linejoin: miter; stroke-miterlimit: 4; fill: rgb(255,255,255); fill-opacity: 0.25; fill-rule: nonzero; opacity: 1;"  points="93.60493109423788,-123.95981204420886 -93.60493109423788,-123.95981204420886 -93.60493109423788,123.95981204420886 63.38117904139713,123.95981204420886 " />
</g>
<g transform="matrix(1 0 0 1 259.8919485429836 124.95981204420886)"  >
<polygon style="stroke: rgb(0,0,0); stroke-width: 2; stroke-dasharray: none; stroke-linecap: butt; stroke-dashoffset: 0; stroke-linejoin: miter; stroke-miterlimit: 4; fill: rgb(255,255,255); fill-opacity: 0.25; fill-rule: nonzero; opacity: 1;"  points="91.90583840734855,-123.95981204420886 -61.6820863545078,-123.95981204420886 -91.90583840734855,123.95981204420886 91.9058384073485,123.95981204420886 " />
</g>
<g transform="matrix(1 0 0 1 532.5140449903175 124.95981204420886)"  >
<polygon style="stroke: rgb(0,0,0); stroke-width: 2; stroke-dasharray: none; stroke-linecap: butt; stroke-dashoffset: 0; stroke-linejoin: miter; stroke-miterlimit: 4; fill: rgb(255,255,255); fill-opacity: 0.25; fill-rule: nonzero; opacity: 1;"  points="170.71625803998546,123.95981204420886 170.71625803998546,-123.95981204420886 -170.7162580399854,-123.95981204420886 -170.71625803998546,123.95981204420886 " />
</g>
</svg>