<?xml version="1.0" encoding="UTF-8" standalone="no" ?>
<!DOCTYPE svg PUBLIC "-//W3C//DTD SVG 1.1//EN" "http://www.w3.org/Graphics/SVG/1.1/DTD/svg11.dtd">
<svg xmlns="http://www.w3.org/2000/svg" xmlns:xlink="http://www.w3.org/1999/xlink" version="1.1" width="623.6363636363636" height="882" viewBox="0 0 623.6363636363636 882" xml:space="preserve">
<desc>Created with Fabric.js 5.3.0</desc>
<g transform="matrix(1 0 0 1 311.92727272727274 127.68644273668923)"  >
<polygon style="stroke: rgb(0,0,0); stroke-width: 2; stroke-dasharray: none; stroke-linecap: butt; stroke-dashoffset: 0; stroke-linejoin: miter; stroke-miterlimit: 4; fill: rgb(255,255,255); fill-opacity: 0.25; fill-rule: nonzero; opacity: 1;"  points="310.92727272727274,87.07306102996938 310.92727272727274,-126.68644273668923 -310.92727272727274,-126.68644273668923 -310.92727272727274,126.68644273668923 " />
</g>
<g transform="matrix(1 0 0 1 311.92727272727274 697.2471052680254)"  >
<polygon style="stroke: rgb(0,0,0); stroke-width: 2; stroke-dasharray: none; stroke-linecap: butt; stroke-dashoffset: 0; stroke-linejoin: miter; stroke-miterlimit: 4; fill: rgb(255,255,255); fill-opacity: 0.25; fill-rule: nonzero; opacity: 1;"  points="-310.92727272727274,-183.97107655015654 -310.92727272727274,183.97107655015654 310.92727272727274,183.97107655015654 310.92727272727274,-183.97107655015654 " />
</g>
<g transform="matrix(1 0 0 1 99.87475127958925 377.36668212683765)"  >
<polygon style="stroke: rgb(0,0,0); stroke-width: 2; stroke-dasharray: none; stroke-linecap: butt; stroke-dashoffset: 0; stroke-linejoin: miter; stroke-miterlimit: 4; fill: rgb(255,255,255); fill-opacity: 0.25; fill-rule: nonzero; opacity: 1;"  points="-98.87475127958925,-112.99379665345919 -98.87475127958925,125.90934659103118 67.99507812776159,125.90934659103118 98.87475127958925,-125.90934659103118 " />
</g>
<g transform="matrix(1 0 0 1 289.70226583047696 370.99096166838956)"  >
<polygon style="stroke: rgb(0,0,0); stroke-width: 2; stroke-dasharray: none; stroke-linecap: butt; stroke-dashoffset: 0; stroke-linejoin: miter; stroke-miterlimit: 4; fill: rgb(255,255,255); fill-opacity: 0.25; fill-rule: nonzero; opacity: 1;"  points="-111.83243642312613,132.2850670494793 111.83243642312613,132.2850670494793 111.83243642312613,-132.28506704947932 -80.95276327129847,-119.53362613258307 " />
</g>
<g transform="matrix(1 0 0 1 517.1946238540743 364.01776624226375)"  >
<polygon style="stroke: rgb(0,0,0); stroke-width: 2; stroke-dasharray: none; stroke-linecap: butt; stroke-dashoffset: 0; stroke-linejoin: miter; stroke-miterlimit: 4; fill: rgb(255,255,255); fill-opacity: 0.25; fill-rule: nonzero; opacity: 1;"  points="-105.6599216004712,139.2582624756051 105.6599216004712,139.2582624756051 105.6599216004712,-139.2582624756051 -105.6599216004712,-125.31187162335351 " />
</g>
</svg>