<?xml version="1.0" encoding="UTF-8" standalone="no" ?>
<!DOCTYPE svg PUBLIC "-//W3C//DTD SVG 1.1//EN" "http://www.w3.org/Graphics/SVG/1.1/DTD/svg11.dtd">
<svg xmlns="http://www.w3.org/2000/svg" xmlns:xlink="http://www.w3.org/1999/xlink" version="1.1" width="623.6363636363636" height="882" viewBox="0 0 623.6363636363636 882" xml:space="preserve">
<desc>Created with Fabric.js 5.3.0</desc>
<g transform="matrix(1 0 0 1 104.55434150379737 111.15228764432433)"  >
<polygon style="stroke: rgb(0,0,0); stroke-width: 2; stroke-dasharray: none; stroke-linecap: butt; stroke-dashoffset: 0; stroke-linejoin: miter; stroke-miterlimit: 4; fill: rgb(255,255,255); fill-opacity: 0.25; fill-rule: nonzero; opacity: 1;"  points="70.41520128986842,-110.15228764432433 -103.55434150379737,-110.15228764432433 -103.55434150379737,110.15228764432433 103.55434150379737,110.15228764432433 " />
</g>
<g transform="matrix(1 0 0 1 403.9120441241056 111.15228764432433)"  >
<polygon style="stroke: rgb(0,0,0); stroke-width: 2; stroke-dasharray: none; stroke-linecap: butt; stroke-dashoffset: 0; stroke-linejoin: miter; stroke-miterlimit: 4; fill: rgb(255,255,255); fill-opacity: 0.25; fill-rule: nonzero; opacity: 1;"  points="218.94250133043982,110.15228764432433 218.94250133043982,-110.15228764432433 -218.94250133043982,-110.15228764432433 -185.80336111651087,110.15228764432433 " />
</g>
<g transform="matrix(1 0 0 1 461.72430746870793 556.2613785534152)"  >
<polygon style="stroke: rgb(0,0,0); stroke-width: 2; stroke-dasharray: none; stroke-linecap: butt; stroke-dashoffset: 0; stroke-linejoin: miter; stroke-miterlimit: 4; fill: rgb(255,255,255); fill-opacity: 0.25; fill-rule: nonzero; opacity: 1;"  points="-77.34652396532093,324.95680326476656 161.13023798583757,324.95680326476656 161.13023798583757,-324.95680326476656 -161.13023798583757,-324.95680326476656 " />
</g>
<g transform="matrix(1 0 0 1 164.42305510155808 373.28962523319217)"  >
<polygon style="stroke: rgb(0,0,0); stroke-width: 2; stroke-dasharray: none; stroke-linecap: butt; stroke-dashoffset: 0; stroke-linejoin: miter; stroke-miterlimit: 4; fill: rgb(255,255,255); fill-opacity: 0.25; fill-rule: nonzero; opacity: 1;"  points="-163.42305510155808,-141.98504994454348 -163.42305510155808,141.98504994454348 163.42305510155808,141.98051356761337 126.17101438131226,-141.98504994454348 " />
</g>
<g transform="matrix(1 0 0 1 187.6888917516935 703.2441603094936)"  >
<polygon style="stroke: rgb(0,0,0); stroke-width: 2; stroke-dasharray: none; stroke-linecap: butt; stroke-dashoffset: 0; stroke-linejoin: miter; stroke-miterlimit: 4; fill: rgb(255,255,255); fill-opacity: 0.25; fill-rule: nonzero; opacity: 1;"  points="-186.6888917516935,-177.96948513175803 -186.6888917516935,177.97402150868814 186.6888917516935,177.97402150868814 140.15721845142266,-177.97402150868814 " />
</g>
</svg>