<?xml version="1.0" encoding="UTF-8" standalone="no" ?>
<!DOCTYPE svg PUBLIC "-//W3C//DTD SVG 1.1//EN" "http://www.w3.org/Graphics/SVG/1.1/DTD/svg11.dtd">
<svg xmlns="http://www.w3.org/2000/svg" xmlns:xlink="http://www.w3.org/1999/xlink" version="1.1" width="622.929292929293" height="881" viewBox="0 0 622.929292929293 881" xml:space="preserve">
<desc>Created with Fabric.js 5.3.0</desc>
<defs>
</defs>
<g transform="matrix(1 0 0 1 311.5747474747475 117.45452114847923)"  >
<polygon style="stroke: rgb(0,0,0); stroke-width: 2; stroke-dasharray: none; stroke-linecap: butt; stroke-dashoffset: 0; stroke-linejoin: miter; stroke-miterlimit: 4; fill: rgb(255,255,255); fill-opacity: 0.25; fill-rule: nonzero; opacity: 1;"  points="310.5747474747475,116.45452114847923 310.5747474747475,-116.45452114847923 -310.5747474747475,-116.45452114847923 -310.5747474747475,57.31942563408252 " />
</g>
<g transform="matrix(1 0 0 1 111.4200764632403 774.5871406649371)"  >
<polygon style="stroke: rgb(0,0,0); stroke-width: 2; stroke-dasharray: none; stroke-linecap: butt; stroke-dashoffset: 0; stroke-linejoin: miter; stroke-miterlimit: 4; fill: rgb(255,255,255); fill-opacity: 0.25; fill-rule: nonzero; opacity: 1;"  points="-110.4200764632403,-105.63306135526483 -110.4200764632403,105.63306135526483 110.4200764632403,105.63306135526483 110.4200764632403,-105.63306135526483 " />
</g>
<g transform="matrix(1 0 0 1 426.9948239379878 731.9209953079537)"  >
<polygon style="stroke: rgb(0,0,0); stroke-width: 2; stroke-dasharray: none; stroke-linecap: butt; stroke-dashoffset: 0; stroke-linejoin: miter; stroke-miterlimit: 4; fill: rgb(255,255,255); fill-opacity: 0.25; fill-rule: nonzero; opacity: 1;"  points="195.15467101150716,62.96691599828131 195.15467101150716,-62.96691599828131 -195.15467101150716,-62.96691599828131 -195.15467101150716,62.96691599828131 " />
</g>
<g transform="matrix(1 0 0 1 192.41078627024382 421.86401304611707)"  >
<polygon style="stroke: rgb(0,0,0); stroke-width: 2; stroke-dasharray: none; stroke-linecap: butt; stroke-dashoffset: 0; stroke-linejoin: miter; stroke-miterlimit: 4; fill: rgb(255,255,255); fill-opacity: 0.25; fill-rule: nonzero; opacity: 1;"  points="-191.41078627024382,-237.0900662635553 -191.41078627024382,237.0900662635553 191.41078627024382,237.0900662635553 191.41078627024382,-200.168413873594 " />
</g>
<g transform="matrix(1 0 0 1 507.9855337449913 440.32483924109766)"  >
<polygon style="stroke: rgb(0,0,0); stroke-width: 2; stroke-dasharray: none; stroke-linecap: butt; stroke-dashoffset: 0; stroke-linejoin: miter; stroke-miterlimit: 4; fill: rgb(255,255,255); fill-opacity: 0.25; fill-rule: nonzero; opacity: 1;"  points="-114.16396120450366,218.62924006857463 114.16396120450366,218.62924006857463 114.16396120450366,-196.4157969441392 -114.16396120450366,-218.62924006857463 " />
</g>
</svg>