<?xml version="1.0" encoding="UTF-8" standalone="no" ?>
<!DOCTYPE svg PUBLIC "-//W3C//DTD SVG 1.1//EN" "http://www.w3.org/Graphics/SVG/1.1/DTD/svg11.dtd">
<svg xmlns="http://www.w3.org/2000/svg" xmlns:xlink="http://www.w3.org/1999/xlink" version="1.1" width="709.1919191919192" height="1003" viewBox="0 0 709.1919191919192 1003" xml:space="preserve">
<desc>Created with Fabric.js 5.3.0</desc>
<defs>
</defs>
<g transform="matrix(1 0 0 1 175.12252714952476 161.40690564018456)"  >
<polygon style="stroke: rgb(0,0,0); stroke-width: 2; stroke-dasharray: none; stroke-linecap: butt; stroke-dashoffset: 0; stroke-linejoin: miter; stroke-miterlimit: 4; fill: rgb(255,255,255); fill-opacity: 0.25; fill-rule: nonzero; opacity: 1.0;"  points="174.10939583639345,-160.39377432705325 -174.10939583639345,-160.39377432705325 -174.10939583639345,160.39377432705325 174.10939583639345,160.39377432705325 " />
</g>
<g transform="matrix(1 0 0 1 533.705355432353 161.40690564018456)"  >
<polygon style="stroke: rgb(0,0,0); stroke-width: 2; stroke-dasharray: none; stroke-linecap: butt; stroke-dashoffset: 0; stroke-linejoin: miter; stroke-miterlimit: 4; fill: rgb(255,255,255); fill-opacity: 0.25; fill-rule: nonzero; opacity: 1.0;"  points="174.47343244643486,160.39377432705325 174.47343244643486,-160.39377432705325 -174.47343244643486,-160.39377432705325 -174.47343244643486,160.39377432705325 " />
</g>
<g transform="matrix(1 0 0 1 175.12252714952473 493.2755185298004)"  >
<polygon style="stroke: rgb(0,0,0); stroke-width: 2; stroke-dasharray: none; stroke-linecap: butt; stroke-dashoffset: 0; stroke-linejoin: miter; stroke-miterlimit: 4; fill: rgb(255,255,255); fill-opacity: 0.25; fill-rule: nonzero; opacity: 1.0;"  points="-174.10939583639342,-160.92138738411145 -174.10939583639342,160.92138738411145 174.10939583639342,160.92138738411145 174.10939583639342,-160.92138738411145 " />
</g>
<g transform="matrix(1 0 0 1 533.705355432353 493.2755185298004)"  >
<polygon style="stroke: rgb(0,0,0); stroke-width: 2; stroke-dasharray: none; stroke-linecap: butt; stroke-dashoffset: 0; stroke-linejoin: miter; stroke-miterlimit: 4; fill: rgb(255,255,255); fill-opacity: 0.25; fill-rule: nonzero; opacity: 1.0;"  points="-174.47343244643488,160.92138738411145 174.47343244643488,160.92138738411145 174.47343244643488,-160.92138738411145 -174.47343244643488,-160.92138738411145 " />
</g>
<g transform="matrix(1 0 0 1 175.62249563184537 833.3686128896159)"  >
<polygon style="stroke: rgb(0,0,0); stroke-width: 2; stroke-dasharray: none; stroke-linecap: butt; stroke-dashoffset: 0; stroke-linejoin: miter; stroke-miterlimit: 4; fill: rgb(255,255,255); fill-opacity: 0.25; fill-rule: nonzero; opacity: 1.0;"  points="-174.60936431871406,-168.6182557972528 -174.60936431871406,168.6182557972528 174.60936431871406,168.6182557972528 174.60936431871406,-168.6182557972528 " />
</g>
<g transform="matrix(1 0 0 1 534.2053239146737 833.3686128896159)"  >
<polygon style="stroke: rgb(0,0,0); stroke-width: 2; stroke-dasharray: none; stroke-linecap: butt; stroke-dashoffset: 0; stroke-linejoin: miter; stroke-miterlimit: 4; fill: rgb(255,255,255); fill-opacity: 0.25; fill-rule: nonzero; opacity: 1.0;"  points="-173.97346396411425,168.6182557972528 173.97346396411425,168.6182557972528 173.97346396411425,-168.6182557972528 -173.97346396411425,-168.6182557972528 " />
</g>
</svg>