<?xml version="1.0" encoding="UTF-8" standalone="no" ?>
<!DOCTYPE svg PUBLIC "-//W3C//DTD SVG 1.1//EN" "http://www.w3.org/Graphics/SVG/1.1/DTD/svg11.dtd">
<svg xmlns="http://www.w3.org/2000/svg" xmlns:xlink="http://www.w3.org/1999/xlink" version="1.1" width="672" height="950.4" viewBox="0 0 672 950.4" xml:space="preserve">
<desc>Created with Fabric.js 5.3.0</desc>
<g transform="matrix(1 0 0 1 336.04 656.7195335417841)"  >
<polygon style="stroke: rgb(0,0,0); stroke-width: 2; stroke-dasharray: none; stroke-linecap: butt; stroke-dashoffset: 0; stroke-linejoin: miter; stroke-miterlimit: 4; fill: rgb(255,255,255); fill-opacity: 0.25; fill-rule: nonzero; opacity: 1;"  points="-335.04,-292.7604664582159 -335.04,292.7604664582159 335.04,292.7604664582159 335.04,-292.7604664582159 " />
</g>
<g transform="matrix(1 0 0 1 489.4039618689273 177.47953354178415)"  >
<polygon style="stroke: rgb(0,0,0); stroke-width: 2; stroke-dasharray: none; stroke-linecap: butt; stroke-dashoffset: 0; stroke-linejoin: miter; stroke-miterlimit: 4; fill: rgb(255,255,255); fill-opacity: 0.25; fill-rule: nonzero; opacity: 1;"  points="181.67603813107274,176.47953354178415 181.67603813107274,-176.47953354178415 -181.67603813107274,-176.47953354178415 -65.98733210143507,176.47953354178415 " />
</g>
<g transform="matrix(1 0 0 1 177.8765669109441 82.99018963159905)"  >
<polygon style="stroke: rgb(0,0,0); stroke-width: 2; stroke-dasharray: none; stroke-linecap: butt; stroke-dashoffset: 0; stroke-linejoin: miter; stroke-miterlimit: 4; fill: rgb(255,255,255); fill-opacity: 0.25; fill-rule: nonzero; opacity: 1;"  points="119.85135682691046,-81.99018963159905 -176.8765669109441,-81.99018963159905 -176.8765669109441,81.99018963159905 176.8765669109441,81.99018963159905 " />
</g>
<g transform="matrix(1 0 0 1 85.47320556640626 264.4697231733832)"  >
<polygon style="stroke: rgb(0,0,0); stroke-width: 2; stroke-dasharray: none; stroke-linecap: butt; stroke-dashoffset: 0; stroke-linejoin: miter; stroke-miterlimit: 4; fill: rgb(255,255,255); fill-opacity: 0.25; fill-rule: nonzero; opacity: 1;"  points="-84.47320556640626,-89.4893439101851 -84.47320556640626,89.4893439101851 84.47320556640626,89.4893439101851 84.47320556640624,-89.4893439101851 " />
</g>
<g transform="matrix(1 0 0 1 296.68152045015233 264.4697231733832)"  >
<polygon style="stroke: rgb(0,0,0); stroke-width: 2; stroke-dasharray: none; stroke-linecap: butt; stroke-dashoffset: 0; stroke-linejoin: miter; stroke-miterlimit: 4; fill: rgb(255,255,255); fill-opacity: 0.25; fill-rule: nonzero; opacity: 1;"  points="-116.73510931733983,89.4893439101851 116.73510931733986,89.4893439101851 58.07161337173582,-89.4893439101851 -116.73510931733986,-89.4893439101851 " />
</g>
</svg>