<?xml version="1.0" encoding="UTF-8" standalone="no" ?>
<!DOCTYPE svg PUBLIC "-//W3C//DTD SVG 1.1//EN" "http://www.w3.org/Graphics/SVG/1.1/DTD/svg11.dtd">
<svg xmlns="http://www.w3.org/2000/svg" xmlns:xlink="http://www.w3.org/1999/xlink" version="1.1" width="672" height="950.4" viewBox="0 0 672 950.4" xml:space="preserve">
<desc>Created with Fabric.js 5.3.0</desc>
<g transform="matrix(1 0 0 1 336.04 794.2040286491965)"  >
<polygon style="stroke: rgb(0,0,0); stroke-width: 2; stroke-dasharray: none; stroke-linecap: butt; stroke-dashoffset: 0; stroke-linejoin: miter; stroke-miterlimit: 4; fill: rgb(255,255,255); fill-opacity: 0.25; fill-rule: nonzero; opacity: 1;"  points="-335.04,-155.27597135080345 -335.04,155.27597135080345 335.04,155.27597135080345 335.04,-155.27597135080345 " />
</g>
<g transform="matrix(1 0 0 1 443.0132055664062 314.9640286491965)"  >
<polygon style="stroke: rgb(0,0,0); stroke-width: 2; stroke-dasharray: none; stroke-linecap: butt; stroke-dashoffset: 0; stroke-linejoin: miter; stroke-miterlimit: 4; fill: rgb(255,255,255); fill-opacity: 0.25; fill-rule: nonzero; opacity: 1;"  points="228.06679443359377,313.9640286491965 228.06679443359377,-313.9640286491965 -228.06679443359377,-313.9640286491965 -228.06679443359377,313.9640286491965 " />
</g>
<g transform="matrix(1 0 0 1 102.97320556640624 523.4405175938908)"  >
<polygon style="stroke: rgb(0,0,0); stroke-width: 2; stroke-dasharray: none; stroke-linecap: butt; stroke-dashoffset: 0; stroke-linejoin: miter; stroke-miterlimit: 4; fill: rgb(255,255,255); fill-opacity: 0.25; fill-rule: nonzero; opacity: 1;"  points="-101.97320556640624,-105.48753970450221 -101.97320556640624,105.48753970450221 101.97320556640624,105.48753970450221 101.97320556640624,-105.48753970450221 " />
</g>
<g transform="matrix(1 0 0 1 102.97320556640624 69.99165554871642)"  >
<polygon style="stroke: rgb(0,0,0); stroke-width: 2; stroke-dasharray: none; stroke-linecap: butt; stroke-dashoffset: 0; stroke-linejoin: miter; stroke-miterlimit: 4; fill: rgb(255,255,255); fill-opacity: 0.25; fill-rule: nonzero; opacity: 1;"  points="101.97320556640624,-68.99165554871642 -101.97320556640624,-68.99165554871642 -101.97320556640624,68.99165554871642 101.97320556640624,68.99165554871642 " />
</g>
<g transform="matrix(1 0 0 1 102.97320556640624 278.4681444934107)"  >
<polygon style="stroke: rgb(0,0,0); stroke-width: 2; stroke-dasharray: none; stroke-linecap: butt; stroke-dashoffset: 0; stroke-linejoin: miter; stroke-miterlimit: 4; fill: rgb(255,255,255); fill-opacity: 0.25; fill-rule: nonzero; opacity: 1;"  points="-101.97320556640624,-129.4848333959779 -101.97320556640624,129.4848333959779 101.97320556640624,129.4848333959779 101.97320556640624,-129.4848333959779 " />
</g>
</svg>