<?xml version="1.0" encoding="UTF-8" standalone="no" ?>
<!DOCTYPE svg PUBLIC "-//W3C//DTD SVG 1.1//EN" "http://www.w3.org/Graphics/SVG/1.1/DTD/svg11.dtd">
<svg xmlns="http://www.w3.org/2000/svg" xmlns:xlink="http://www.w3.org/1999/xlink" version="1.1" width="672" height="950.4" viewBox="0 0 672 950.4" xml:space="preserve">
<desc>Created with Fabric.js 5.3.0</desc>
<g transform="matrix(1 0 0 1 336.04 198.97710914039777)"  >
<polygon style="stroke: rgb(0,0,0); stroke-width: 2; stroke-dasharray: none; stroke-linecap: butt; stroke-dashoffset: 0; stroke-linejoin: miter; stroke-miterlimit: 4; fill: rgb(255,255,255); fill-opacity: 0.25; fill-rule: nonzero; opacity: 1;"  points="335.04,197.97710914039777 335.04,-197.97710914039777 -335.04,-197.97710914039777 -335.04,197.97710914039777 " />
</g>
<g transform="matrix(1 0 0 1 165.97320556640622 529.4398410167596)"  >
<polygon style="stroke: rgb(0,0,0); stroke-width: 2; stroke-dasharray: none; stroke-linecap: butt; stroke-dashoffset: 0; stroke-linejoin: miter; stroke-miterlimit: 4; fill: rgb(255,255,255); fill-opacity: 0.25; fill-rule: nonzero; opacity: 1;"  points="-164.97320556640622,-122.48562273596411 -164.97320556640622,122.48562273596411 164.97320556640622,122.48562273596411 164.97320556640622,-122.48562273596411 " />
</g>
<g transform="matrix(1 0 0 1 506.0132055664062 529.4398410167596)"  >
<polygon style="stroke: rgb(0,0,0); stroke-width: 2; stroke-dasharray: none; stroke-linecap: butt; stroke-dashoffset: 0; stroke-linejoin: miter; stroke-miterlimit: 4; fill: rgb(255,255,255); fill-opacity: 0.25; fill-rule: nonzero; opacity: 1;"  points="-165.0667944335938,122.48562273596411 165.0667944335938,122.48562273596411 165.0667944335938,-122.48562273596411 -165.0667944335938,-122.48562273596411 " />
</g>
<g transform="matrix(1.0151057401812689 0 0 1.0151057401812689 166.19683661948017 805.7178376165432)"  >
<polygon style="stroke: rgb(0,0,0); stroke-width: 2; stroke-dasharray: none; stroke-linecap: butt; stroke-dashoffset: 0; stroke-linejoin: miter; stroke-miterlimit: 4; fill: rgb(255,255,255); fill-opacity: 0.25; fill-rule: nonzero; opacity: 1;"  points="-162.72366940788075,-141.63772544322688 -162.72366940788075,141.63772544322688 162.72366940788075,141.63772544322688 162.72366940788075,-141.63772544322688 " />
</g>
<g transform="matrix(1.0151057401812689 0 0 1.0151057401812689 506.3123653203865 805.7178376165432)"  >
<polygon style="stroke: rgb(0,0,0); stroke-width: 2; stroke-dasharray: none; stroke-linecap: butt; stroke-dashoffset: 0; stroke-linejoin: miter; stroke-miterlimit: 4; fill: rgb(255,255,255); fill-opacity: 0.25; fill-rule: nonzero; opacity: 1;"  points="-162.330616306405,141.63772544322688 162.330616306405,141.63772544322688 162.330616306405,-141.63772544322688 -162.330616306405,-141.63772544322688 " />
</g>
</svg>