<?xml version="1.0" encoding="UTF-8" standalone="no" ?>
<!DOCTYPE svg PUBLIC "-//W3C//DTD SVG 1.1//EN" "http://www.w3.org/Graphics/SVG/1.1/DTD/svg11.dtd">
<svg xmlns="http://www.w3.org/2000/svg" xmlns:xlink="http://www.w3.org/1999/xlink" version="1.1" width="672" height="950.4" viewBox="0 0 672 950.4" xml:space="preserve">
<desc>Created with Fabric.js 5.3.0</desc>
<g transform="matrix(1 0 0 1 114.97320556640628 178.47942077892904)"  >
<polygon style="stroke: rgb(0,0,0); stroke-width: 2; stroke-dasharray: none; stroke-linecap: butt; stroke-dashoffset: 0; stroke-linejoin: miter; stroke-miterlimit: 4; fill: rgb(255,255,255); fill-opacity: 0.25; fill-rule: nonzero; opacity: 1;"  points="113.97320556640628,-177.47942077892904 -113.97320556640628,-177.47942077892904 -113.97320556640628,177.47942077892904 113.97320556640628,177.47942077892904 " />
</g>
<g transform="matrix(1 0 0 1 455.0132055664063 178.47942077892904)"  >
<polygon style="stroke: rgb(0,0,0); stroke-width: 2; stroke-dasharray: none; stroke-linecap: butt; stroke-dashoffset: 0; stroke-linejoin: miter; stroke-miterlimit: 4; fill: rgb(255,255,255); fill-opacity: 0.25; fill-rule: nonzero; opacity: 1;"  points="216.06679443359374,177.47942077892904 216.06679443359374,-177.47942077892904 -216.06679443359374,-177.47942077892904 -216.06679443359374,177.47942077892904 " />
</g>
<g transform="matrix(1 0 0 1 100.97320556640625 657.7194207789291)"  >
<polygon style="stroke: rgb(0,0,0); stroke-width: 2; stroke-dasharray: none; stroke-linecap: butt; stroke-dashoffset: 0; stroke-linejoin: miter; stroke-miterlimit: 4; fill: rgb(255,255,255); fill-opacity: 0.25; fill-rule: nonzero; opacity: 1;"  points="-99.97320556640625,-291.76057922107094 -99.97320556640625,291.76057922107094 99.97320556640625,291.76057922107094 99.97320556640625,-291.76057922107094 " />
</g>
<g transform="matrix(1 0 0 1 547.0132055664062 657.7194207789291)"  >
<polygon style="stroke: rgb(0,0,0); stroke-width: 2; stroke-dasharray: none; stroke-linecap: butt; stroke-dashoffset: 0; stroke-linejoin: miter; stroke-miterlimit: 4; fill: rgb(255,255,255); fill-opacity: 0.25; fill-rule: nonzero; opacity: 1;"  points="-124.06679443359377,291.76057922107094 124.06679443359377,291.76057922107094 124.06679443359377,-291.76057922107094 -124.06679443359377,-291.76057922107094 " />
</g>
<g transform="matrix(1 0 0 1 311.9464111328125 501.44299837670485)"  >
<polygon style="stroke: rgb(0,0,0); stroke-width: 2; stroke-dasharray: none; stroke-linecap: butt; stroke-dashoffset: 0; stroke-linejoin: miter; stroke-miterlimit: 4; fill: rgb(255,255,255); fill-opacity: 0.25; fill-rule: nonzero; opacity: 1;"  points="101,135.4841568188467 101,-135.4841568188467 -101,-135.4841568188467 -101,135.4841568188467 " />
</g>
<g transform="matrix(1 0 0 1 311.9464111328125 798.2035775977758)"  >
<polygon style="stroke: rgb(0,0,0); stroke-width: 2; stroke-dasharray: none; stroke-linecap: butt; stroke-dashoffset: 0; stroke-linejoin: miter; stroke-miterlimit: 4; fill: rgb(255,255,255); fill-opacity: 0.25; fill-rule: nonzero; opacity: 1;"  points="-101,151.27642240222423 101,151.27642240222423 101,-151.27642240222423 -101,-151.27642240222423 " />
</g>
</svg>