<?xml version="1.0" encoding="UTF-8" standalone="no" ?>
<!DOCTYPE svg PUBLIC "-//W3C//DTD SVG 1.1//EN" "http://www.w3.org/Graphics/SVG/1.1/DTD/svg11.dtd">
<svg xmlns="http://www.w3.org/2000/svg" xmlns:xlink="http://www.w3.org/1999/xlink" version="1.1" width="614.4444444444445" height="869" viewBox="0 0 614.4444444444445 869" xml:space="preserve">
<desc>Created with Fabric.js 5.3.0</desc>
<defs>
</defs>
<g transform="matrix(1 0 0 1 158.2149911063945 107.87459438037726)"  >
<polygon style="stroke: rgb(0,0,0); stroke-width: 2; stroke-dasharray: none; stroke-linecap: butt; stroke-dashoffset: 0; stroke-linejoin: miter; stroke-miterlimit: 4; fill: rgb(255,255,255); fill-opacity: 0.25; fill-rule: nonzero; opacity: 1;"  points="157.2149911063945,-106.87459438037726 -157.2149911063945,-106.87459438037726 -157.2149911063945,106.87459438037726 157.2149911063945,106.87459438037726 " />
</g>
<g transform="matrix(1 0 0 1 469.55943555083894 107.87459438037726)"  >
<polygon style="stroke: rgb(0,0,0); stroke-width: 2; stroke-dasharray: none; stroke-linecap: butt; stroke-dashoffset: 0; stroke-linejoin: miter; stroke-miterlimit: 4; fill: rgb(255,255,255); fill-opacity: 0.25; fill-rule: nonzero; opacity: 1;"  points="144.12945333804993,106.87459438037726 144.12945333804993,-106.87459438037726 -144.12945333804993,-106.87459438037726 -144.12945333804993,106.87459438037726 " />
</g>
<g transform="matrix(1 0 0 1 172.66544255531562 330.1946848667209)"  >
<polygon style="stroke: rgb(0,0,0); stroke-width: 2; stroke-dasharray: none; stroke-linecap: butt; stroke-dashoffset: 0; stroke-linejoin: miter; stroke-miterlimit: 4; fill: rgb(255,255,255); fill-opacity: 0.25; fill-rule: nonzero; opacity: 1;"  points="-171.66544255531562,-105.44549610596633 -171.66544255531562,105.44549610596633 82.17449722795266,105.44549610596633 171.66544255531562,-105.44549610596633 " />
</g>
<g transform="matrix(1 0 0 1 439.2644143360786 330.1946848667209)"  >
<polygon style="stroke: rgb(0,0,0); stroke-width: 2; stroke-dasharray: none; stroke-linecap: butt; stroke-dashoffset: 0; stroke-linejoin: miter; stroke-miterlimit: 4; fill: rgb(255,255,255); fill-opacity: 0.25; fill-rule: nonzero; opacity: 1;"  points="-174.4244745528103,105.44549610596633 174.4244745528103,105.44549610596633 174.4244745528103,-105.44549610596633 -84.93352922544733,-105.44549610596633 " />
</g>
<g transform="matrix(1 0 0 1 176.6408770883032 512.1049137471359)"  >
<polygon style="stroke: rgb(0,0,0); stroke-width: 2; stroke-dasharray: none; stroke-linecap: butt; stroke-dashoffset: 0; stroke-linejoin: miter; stroke-miterlimit: 4; fill: rgb(255,255,255); fill-opacity: 0.25; fill-rule: nonzero; opacity: 1;"  points="-175.6408770883032,-66.4647327744488 -175.6408770883032,66.4647327744488 111.45222347696458,66.4647327744488 175.6408770883032,-66.4647327744488 " />
</g>
<g transform="matrix(1 0 0 1 455.89099472707835 512.1049137471359)"  >
<polygon style="stroke: rgb(0,0,0); stroke-width: 2; stroke-dasharray: none; stroke-linecap: butt; stroke-dashoffset: 0; stroke-linejoin: miter; stroke-miterlimit: 4; fill: rgb(255,255,255); fill-opacity: 0.25; fill-rule: nonzero; opacity: 1;"  points="-157.79789416181055,66.4647327744488 157.79789416181055,66.4647327744488 157.79789416181055,-66.4647327744488 -93.60924055047192,-66.4647327744488 " />
</g>
<g transform="matrix(1 0 0 1 169.06909949527838 671.5262407055218)"  >
<polygon style="stroke: rgb(0,0,0); stroke-width: 2; stroke-dasharray: none; stroke-linecap: butt; stroke-dashoffset: 0; stroke-linejoin: miter; stroke-miterlimit: 4; fill: rgb(255,255,255); fill-opacity: 0.25; fill-rule: nonzero; opacity: 1;"  points="-168.06909949527838,-82.95659418393694 -168.06909949527838,82.95659418393694 120.65365406767629,82.95659418393694 168.06909949527838,-82.95659418393694 " />
</g>
<g transform="matrix(1 0 0 1 456.7058212259218 671.5262407055218)"  >
<polygon style="stroke: rgb(0,0,0); stroke-width: 2; stroke-dasharray: none; stroke-linecap: butt; stroke-dashoffset: 0; stroke-linejoin: miter; stroke-miterlimit: 4; fill: rgb(255,255,255); fill-opacity: 0.25; fill-rule: nonzero; opacity: 1;"  points="-156.9830676629671,82.95659418393694 156.9830676629671,82.95659418393694 156.9830676629671,-82.95659418393694 -109.56762223536501,-82.95659418393694 " />
</g>
<g transform="matrix(1 0 0 1 171.0889078654721 816.3636396669516)"  >
<polygon style="stroke: rgb(0,0,0); stroke-width: 2; stroke-dasharray: none; stroke-linecap: butt; stroke-dashoffset: 0; stroke-linejoin: miter; stroke-miterlimit: 4; fill: rgb(255,255,255); fill-opacity: 0.25; fill-rule: nonzero; opacity: 1;"  points="-170.0889078654721,-51.880804777492926 -170.0889078654721,51.880804777492926 131.96300870993434,51.880804777492926 170.0889078654721,-51.880804777492926 " />
</g>
<g transform="matrix(1 0 0 1 463.3704027321477 816.3636396669516)"  >
<polygon style="stroke: rgb(0,0,0); stroke-width: 2; stroke-dasharray: none; stroke-linecap: butt; stroke-dashoffset: 0; stroke-linejoin: miter; stroke-miterlimit: 4; fill: rgb(255,255,255); fill-opacity: 0.25; fill-rule: nonzero; opacity: 1;"  points="-150.31848615674122,51.880804777492926 150.31848615674122,51.880804777492926 150.31848615674122,-51.880804777492926 -112.19258700120346,-51.880804777492926 " />
</g>
</svg>