<svg version="1.1" id="Layer_1" xmlns="http://www.w3.org/2000/svg" xmlns:xlink="http://www.w3.org/1999/xlink" x="0px" y="0px"
	 width="100%" viewBox="0 0 2520 3540" enable-background="new 0 0 2520 3540" xml:space="preserve">
<path fill="none" opacity="1.000000" stroke="#000000" stroke-linecap="round" stroke-linejoin="round" stroke-width="7.000000"
	d="
M15.000000,8.000000 
	C10.656363,8.908939 8.359838,11.298824 8.966318,16.004341 
	C9.177620,17.643774 9.000000,19.333334 9.000000,21.000000 
	C9.000000,444.333344 9.000016,867.666687 8.999998,1291.000000 
	C8.999997,1303.982422 9.000004,1303.997681 22.000000,1303.997803 
	C850.666687,1304.000122 1679.333374,1303.999756 2508.000000,1304.007446 
	C2512.445068,1304.007568 2516.938721,1304.435059 2521.000000,1301.246948 
	C2521.000000,871.333313 2521.000000,440.666656 2521.000000,8.000000 
	C1686.001099,8.000000 851.000549,8.000000 16.000000,8.000000 
"/>
<path fill="none" opacity="1.000000" stroke="#000000" stroke-linecap="round" stroke-linejoin="round" stroke-width="8.000000"
	d="
M15.000000,1367.000000 
	C11.328263,1367.328247 9.239883,1369.323242 9.029614,1373.001709 
	C8.877687,1375.659668 9.000000,1378.333374 9.000000,1381.000000 
	C9.000000,2095.666748 9.001604,2810.333252 8.970539,3525.000000 
	C8.970298,3530.565430 8.807059,3536.077881 12.309062,3541.000000 
	C554.000000,3541.000000 1096.000000,3541.000000 1637.788818,3541.000000 
	C1640.727783,3536.345459 1641.045654,3531.273193 1641.045288,3526.000000 
	C1640.997559,2810.666748 1641.000244,2095.333252 1640.994141,1380.000000 
	C1640.994141,1376.141724 1641.362183,1372.243896 1639.178589,1367.000000 
	C1098.667603,1367.000000 557.333801,1367.000000 16.000000,1367.000000 
"/>
<path fill="none" opacity="1.000000" stroke="#000000" stroke-linecap="round" stroke-linejoin="round" stroke-width="8.000000"
	d="
M1679.000000,1367.000000 
	C1675.328247,1367.328247 1673.239746,1369.323242 1673.029541,1373.001709 
	C1672.877563,1375.659668 1673.000000,1378.333374 1673.000000,1381.000000 
	C1673.000000,2095.666748 1673.001465,2810.333252 1672.970459,3525.000000 
	C1672.970215,3530.565430 1672.807007,3536.077881 1676.309082,3541.000000 
	C1957.666626,3541.000000 2239.333252,3541.000000 2521.000000,3541.000000 
	C2521.000000,2817.000000 2521.000000,2093.000000 2521.000000,1367.000000 
	C2240.669922,1367.000000 1960.334961,1367.000000 1680.000000,1367.000000 
"/>
</svg>