<svg version="1.1" id="Layer_1" xmlns="http://www.w3.org/2000/svg" xmlns:xlink="http://www.w3.org/1999/xlink" x="0px" y="0px"
	 width="100%" viewBox="0 0 2520 3540" enable-background="new 0 0 2520 3540" xml:space="preserve">
<path fill="none" opacity="1.000000" stroke="#000000" stroke-linecap="round" stroke-linejoin="round" stroke-width="8.000000"
	d="
M15.000000,8.000000 
	C10.656363,8.908939 8.359838,11.298824 8.966318,16.004341 
	C9.177620,17.643774 9.000000,19.333334 9.000000,21.000000 
	C9.000000,649.000000 8.999553,1277.000000 9.009109,1905.000000 
	C9.009171,1909.187500 8.627756,1913.416504 10.208086,1918.250000 
	C278.499176,1918.250000 546.999268,1918.250000 815.390625,1918.250000 
	C817.551941,1913.499634 816.990479,1908.712036 816.990540,1904.000000 
	C817.000549,1276.333374 817.000000,648.666687 817.000000,21.000000 
	C817.000000,8.017557 817.000000,8.002387 804.000000,8.002239 
	C541.333313,7.999250 278.666656,8.000000 16.000000,8.000000 
"/>
<path fill="none" opacity="1.000000" stroke="#000000" stroke-linecap="round" stroke-linejoin="round" stroke-width="8.000000"
	d="
M857.000000,8.000000 
	C852.656372,8.908939 850.359863,11.298827 850.966248,16.004347 
	C851.177551,17.643780 851.000000,19.333334 851.000000,21.000000 
	C851.000000,649.000000 850.999573,1277.000000 851.009155,1905.000000 
	C851.009216,1909.187500 850.627747,1913.416504 852.126343,1918.000000 
	C1408.333862,1918.000000 1964.667236,1918.000000 2521.000000,1918.000000 
	C2521.000000,1281.333374 2521.000000,645.666687 2521.000000,8.000000 
	C1966.668213,8.000000 1412.334106,8.000000 858.000000,8.000000 
"/>
<path fill="none" opacity="1.000000" stroke="#000000" stroke-linecap="round" stroke-linejoin="round" stroke-width="8.000000"
	d="
M15.000000,1981.000000 
	C11.328263,1981.328247 9.239883,1983.323242 9.029622,1987.001709 
	C8.877687,1989.659668 9.000000,1992.333374 9.000000,1995.000000 
	C9.000000,2505.000000 9.002248,3015.000000 8.970473,3525.000000 
	C8.970126,3530.565430 8.807059,3536.077881 12.309062,3541.000000 
	C452.333344,3541.000000 892.666687,3541.000000 1332.241943,3541.000000 
	C1336.680664,3535.446777 1336.004395,3529.172363 1336.004272,3523.000000 
	C1335.999512,3013.666748 1336.000000,2504.333252 1336.000000,1995.000000 
	C1336.000000,1981.000000 1336.000000,1981.000000 1322.000000,1981.000000 
	C886.666687,1981.000000 451.333344,1981.000000 16.000000,1981.000000 
"/>
<path fill="none" opacity="1.000000" stroke="#000000" stroke-linecap="round" stroke-linejoin="round" stroke-width="8.000000"
	d="
M1373.000000,1981.000000 
	C1369.328247,1981.328247 1367.239868,1983.323242 1367.029541,1987.001709 
	C1366.877563,1989.659668 1367.000000,1992.333374 1367.000000,1995.000000 
	C1367.000000,2505.000000 1367.002197,3015.000000 1366.970459,3525.000000 
	C1366.970093,3530.565430 1366.807007,3536.077881 1370.309082,3541.000000 
	C1753.666626,3541.000000 2137.333252,3541.000000 2521.000000,3541.000000 
	C2521.000000,3021.666748 2521.000000,2502.333252 2521.000000,1981.000000 
	C2138.668945,1981.000000 1756.334473,1981.000000 1374.000000,1981.000000 
"/>
</svg>