<svg version="1.1" id="Layer_1" xmlns="http://www.w3.org/2000/svg" xmlns:xlink="http://www.w3.org/1999/xlink" x="0px" y="0px"
	 width="100%" viewBox="0 0 2520 3540" enable-background="new 0 0 2520 3540" xml:space="preserve">
<path fill="none" opacity="1.000000" stroke="#000000" stroke-linecap="round" stroke-linejoin="round" stroke-width="8.000000"
	d="
M15.000000,8.000000 
	C10.656363,8.908939 8.359838,11.298824 8.966318,16.004341 
	C9.177620,17.643774 9.000000,19.333334 9.000000,21.000000 
	C9.000000,429.666656 8.999354,838.333313 9.009129,1247.000000 
	C9.009229,1251.187500 8.627756,1255.416504 9.964374,1259.504639 
	C14.154171,1261.552734 18.622520,1260.985352 23.000000,1260.985474 
	C440.333344,1261.001099 857.666687,1261.000000 1275.000000,1261.000000 
	C1287.982422,1261.000000 1287.997559,1261.000000 1287.997681,1248.000000 
	C1288.000366,838.666687 1288.000366,429.333344 1287.997925,20.000000 
	C1287.997803,7.999990 1287.983765,7.999998 1275.000000,7.999998 
	C855.333313,8.000000 435.666656,8.000000 16.000000,8.000000 
"/>
<path fill="none" opacity="1.000000" stroke="#000000" stroke-linecap="round" stroke-linejoin="round" stroke-width="8.000000"
	d="
M1325.000000,8.000000 
	C1320.656372,8.908939 1318.359863,11.298827 1318.966309,16.004347 
	C1319.177612,17.643780 1319.000000,19.333334 1319.000000,21.000000 
	C1319.000000,770.333313 1319.000000,1519.666626 1319.000000,2269.000000 
	C1319.000000,2281.982422 1319.000000,2281.997803 1332.000000,2281.997803 
	C1724.000000,2282.000488 2116.000000,2281.999268 2508.000000,2282.007324 
	C2512.445068,2282.007568 2516.938721,2282.435059 2521.000000,2279.246826 
	C2521.000000,1523.333374 2521.000000,766.666687 2521.000000,8.000000 
	C2122.668945,8.000000 1724.334473,8.000000 1326.000000,8.000000 
"/>
<path fill="none" opacity="1.000000" stroke="#000000" stroke-linecap="round" stroke-linejoin="round" stroke-width="7.000000"
	d="
M15.000000,1326.000000 
	C10.656363,1326.908936 8.359852,1329.298828 8.966343,1334.004395 
	C9.177638,1335.643677 9.000000,1337.333374 9.000000,1339.000000 
	C9.000000,1649.000000 9.000012,1959.000000 8.999999,2269.000000 
	C8.999998,2281.982422 9.000004,2281.997559 22.000000,2281.997803 
	C440.000000,2282.000488 858.000000,2282.000488 1276.000000,2281.998047 
	C1287.983765,2281.997803 1287.997803,2281.983887 1287.997803,2270.000000 
	C1288.000488,1959.666626 1288.000000,1649.333374 1288.000000,1339.000000 
	C1288.000000,1326.000000 1288.000000,1326.000000 1275.000000,1326.000000 
	C855.333313,1326.000000 435.666656,1326.000000 16.000000,1326.000000 
"/>
<path fill="none" opacity="1.000000" stroke="#000000" stroke-linecap="round" stroke-linejoin="round" stroke-width="8.000000"
	d="
M15.000000,2347.000000 
	C11.328263,2347.328369 9.239876,2349.323242 9.029630,2353.001709 
	C8.877687,2355.659668 9.000000,2358.333252 9.000000,2361.000000 
	C9.000000,2749.000000 9.002989,3137.000000 8.970397,3525.000000 
	C8.969930,3530.565430 8.807059,3536.077881 12.309062,3541.000000 
	C848.333313,3541.000000 1684.666626,3541.000000 2521.000000,3541.000000 
	C2521.000000,3143.666748 2521.000000,2746.333252 2521.000000,2347.000000 
	C1686.001099,2347.000000 851.000549,2347.000000 16.000000,2347.000000 
"/>
</svg>