<svg version="1.1" id="Layer_1" xmlns="http://www.w3.org/2000/svg" xmlns:xlink="http://www.w3.org/1999/xlink" x="0px" y="0px"
	 width="100%" viewBox="0 0 2520 3540" enable-background="new 0 0 2520 3540" xml:space="preserve">
<path fill="none" opacity="1.000000" stroke="#000000" stroke-linecap="round" stroke-linejoin="round" stroke-width="5.000000"
	d="
M38.000000,1622.000000 
	C41.154926,1624.117432 44.686184,1622.921631 48.000175,1622.930054 
	C89.999908,1623.036621 132.004410,1623.397705 173.999237,1622.931763 
	C366.997559,1620.790161 560.003906,1623.105347 752.997986,1621.719971 
	C812.000244,1621.296509 871.002563,1621.680908 929.999817,1620.983154 
	C1119.996948,1618.736450 1310.003662,1621.082520 1499.998169,1619.740967 
	C1560.666992,1619.312622 1621.336304,1619.665283 1681.999634,1618.967163 
	C1873.663818,1616.761841 2065.337402,1619.101074 2256.998047,1617.727417 
	C2317.000244,1617.297363 2377.008545,1617.931519 2436.994873,1616.742065 
	C2452.303467,1616.438599 2467.718994,1616.868286 2483.500000,1615.447510 
	C2483.500000,1349.000000 2483.500000,1083.000000 2483.500000,817.203613 
	C2479.795166,815.380798 2476.346191,816.026489 2473.000000,816.025574 
	C2360.000000,815.994690 2246.994873,815.371338 2134.002441,816.299500 
	C2086.667480,816.688293 2039.329346,816.282166 1992.000488,817.029663 
	C1852.337158,819.235596 1712.661499,816.911133 1573.002319,818.246094 
	C1523.999023,818.714417 1474.995239,818.297302 1426.000732,819.050171 
	C1286.336548,821.196533 1146.661499,818.911072 1007.002380,820.245972 
	C957.999023,820.714417 908.995239,820.297241 860.000793,821.050110 
	C720.336609,823.196472 580.661621,820.911072 441.002350,822.246033 
	C391.999023,822.714417 342.987488,822.030090 294.002655,823.119202 
	C211.667465,824.949890 129.332031,823.364685 47.000561,824.065918 
	C43.684025,824.094177 40.128353,822.616882 36.265816,826.346375 
	C35.485298,827.868713 36.015911,830.976990 36.015713,834.000000 
	C35.998718,1094.333374 35.995876,1354.666626 36.066067,1615.000000 
	C36.066689,1617.305054 34.851704,1619.925903 37.000000,1622.000000 
"/>
<path fill="none" opacity="1.000000" stroke="#000000" stroke-linecap="round" stroke-linejoin="round" stroke-width="5.000000"
	d="
M40.000000,40.000000 
	C34.997330,40.832001 36.013100,44.718510 36.012909,48.000000 
	C35.998783,291.000000 35.999653,534.000000 36.005783,777.000000 
	C36.005833,779.047791 35.652122,781.169067 37.099625,783.091431 
	C40.204750,784.619202 43.653629,783.972778 47.000011,783.974182 
	C126.000000,784.007507 205.008987,784.712585 283.996429,783.717041 
	C327.335876,783.170837 370.671814,783.728699 413.999298,782.960388 
	C536.662659,780.785339 659.334167,782.630676 782.000000,782.000977 
	C848.000000,781.662170 914.008484,781.887573 979.998169,780.880005 
	C1102.332520,779.012268 1224.667480,780.629456 1347.000000,780.001343 
	C1413.333374,779.660767 1479.675049,779.890015 1545.998169,778.879272 
	C1668.332642,777.015076 1790.667480,778.629456 1913.000000,778.001343 
	C1979.333374,777.660767 2045.675293,777.894958 2111.998047,776.877380 
	C2231.999512,775.036194 2352.000732,776.630310 2471.999756,775.973877 
	C2475.677490,775.953796 2479.454834,776.670044 2483.500000,774.811462 
	C2483.500000,530.333313 2483.500000,285.666656 2483.500000,40.000000 
	C1669.000244,40.000000 855.000122,40.000000 41.000000,40.000000 
"/>
<path fill="none" opacity="1.000000" stroke="#000000" stroke-linecap="round" stroke-linejoin="round" stroke-width="5.000000"
	d="
M2445.000000,1656.000000 
	C2442.128662,1657.491577 2439.025146,1656.979004 2436.000000,1656.987549 
	C2312.000000,1657.335571 2188.000000,1657.714111 2064.000000,1657.978882 
	C2006.333618,1658.102051 1948.666382,1657.897705 1891.000000,1658.021118 
	C1767.333252,1658.285645 1643.658691,1657.908569 1520.002197,1659.210938 
	C1393.330688,1660.544800 1266.666382,1659.479248 1139.999878,1659.968384 
	C1016.000427,1660.447266 891.994202,1660.027222 768.001343,1661.148193 
	C576.333008,1662.880859 384.663513,1660.972412 193.001831,1662.270020 
	C144.335281,1662.599365 95.665306,1662.471680 47.000046,1663.004272 
	C36.608902,1663.117920 36.006916,1663.697510 36.006786,1674.000000 
	C35.999180,2278.000000 35.999462,2882.000000 36.015636,3486.000000 
	C36.015717,3489.022949 35.485298,3492.131348 37.212467,3495.500000 
	C852.333313,3495.500000 1667.666626,3495.500000 2483.500000,3495.500000 
	C2483.500000,2882.333252 2483.500000,2269.666748 2483.500000,1656.000000 
	C2470.684570,1656.000000 2458.342285,1656.000000 2446.000000,1656.000000 
"/>
</svg>