<svg version="1.1" id="Layer_1" xmlns="http://www.w3.org/2000/svg" xmlns:xlink="http://www.w3.org/1999/xlink" x="0px" y="0px"
	 width="100%" viewBox="0 0 2520 3540" enable-background="new 0 0 2520 3540" xml:space="preserve">
<path fill="none" opacity="1.000000" stroke="#000000" stroke-linecap="round" stroke-linejoin="round" stroke-width="5.000000"
	d="
M40.000000,40.000000 
	C37.689865,40.356533 36.198826,41.679192 36.041588,44.002815 
	C35.861954,46.657326 36.000000,49.333332 36.000000,52.000000 
	C36.000000,280.666656 35.996830,509.333344 36.028194,738.000000 
	C36.028702,741.676392 35.329941,745.454834 36.971939,749.028625 
	C40.204750,750.619202 43.653728,749.973572 46.999996,749.973145 
	C88.335640,749.967407 129.688889,750.640991 170.995972,748.904114 
	C212.999390,747.138000 255.025635,749.265991 296.994263,747.832336 
	C355.660919,745.828125 414.351654,747.114197 472.992554,745.692322 
	C525.001709,744.431335 577.010925,744.934814 628.995361,743.790283 
	C690.997864,742.425232 752.994202,742.259033 814.998718,741.819641 
	C841.658020,741.630798 868.315430,739.953857 895.000000,739.993469 
	C897.047729,739.996521 899.169067,740.347900 901.500000,738.592712 
	C901.500000,506.333344 901.500000,273.666656 901.500000,40.000000 
	C614.334106,40.000000 327.667053,40.000000 41.000000,40.000000 
"/>
<path fill="none" opacity="1.000000" stroke="#000000" stroke-linecap="round" stroke-linejoin="round" stroke-width="5.000000"
	d="
M946.000000,40.000000 
	C943.689880,40.356533 942.198853,41.679199 942.041687,44.002819 
	C941.862061,46.657333 942.000000,49.333332 942.000000,52.000000 
	C942.000000,856.666687 941.999084,1661.333374 942.027954,2466.000000 
	C942.028076,2469.676514 941.329956,2473.454834 943.188538,2477.500000 
	C1456.333374,2477.500000 1969.666626,2477.500000 2483.500000,2477.500000 
	C2483.500000,1665.000000 2483.500000,853.000000 2483.500000,40.000000 
	C1971.000488,40.000000 1459.000244,40.000000 947.000000,40.000000 
"/>
<path fill="none" opacity="1.000000" stroke="#000000" stroke-linecap="round" stroke-linejoin="round" stroke-width="5.000000"
	d="
M865.000000,780.000000 
	C862.822083,781.421204 860.365967,780.926697 857.999817,780.994202 
	C814.673584,782.229797 771.329834,781.536865 728.001404,782.105896 
	C660.335632,782.994568 592.662781,783.450134 525.005554,784.395569 
	C473.337463,785.117615 421.657288,785.105713 370.004242,786.200562 
	C308.002350,787.514832 245.992050,787.223572 184.005661,788.319824 
	C137.335754,789.145264 90.675957,789.979248 44.000008,790.012756 
	C41.633415,790.014465 39.176067,789.565796 36.500000,791.350098 
	C36.500000,1119.000000 36.500000,1447.000000 36.500000,1775.500000 
	C325.000000,1775.500000 613.000000,1775.500000 901.500000,1775.500000 
	C901.500000,1443.666626 901.500000,1112.333374 901.500000,780.000000 
	C889.352356,780.000000 877.676147,780.000000 866.000000,780.000000 
"/>
<path fill="none" opacity="1.000000" stroke="#000000" stroke-linecap="round" stroke-linejoin="round" stroke-width="5.000000"
	d="
M40.000000,1816.000000 
	C33.441624,1818.258301 36.109322,1823.838623 36.106575,1828.000122 
	C35.983463,2014.666626 36.000000,2201.333252 36.000000,2388.000000 
	C36.000000,2414.333252 35.949333,2440.666992 36.063629,2466.999756 
	C36.078041,2470.320312 34.691422,2473.864258 37.996246,2477.500000 
	C325.000000,2477.500000 613.000000,2477.500000 900.796387,2477.500000 
	C902.619202,2473.795166 901.974121,2470.346191 901.974548,2467.000000 
	C902.002747,2253.666748 902.000671,2040.333374 901.998108,1827.000000 
	C901.997986,1816.014893 901.985107,1816.002075 891.000000,1816.001953 
	C607.666687,1815.999634 324.333344,1816.000000 41.000000,1816.000000 
"/>
<path fill="none" opacity="1.000000" stroke="#000000" stroke-linecap="round" stroke-linejoin="round" stroke-width="5.000000"
	d="
M40.000000,2518.000000 
	C37.689865,2518.356445 36.198814,2519.679199 36.041576,2522.002930 
	C35.861950,2524.657471 36.000000,2527.333252 36.000000,2530.000000 
	C36.000000,2848.000000 35.997719,3166.000000 36.028107,3484.000000 
	C36.028458,3487.676514 35.329941,3491.454834 37.188522,3495.500000 
	C852.333313,3495.500000 1667.666626,3495.500000 2483.500000,3495.500000 
	C2483.500000,3169.666748 2483.500000,2844.333252 2483.500000,2518.000000 
	C1669.000244,2518.000000 855.000122,2518.000000 41.000000,2518.000000 
"/>
</svg>