<svg version="1.1" id="Layer_1" xmlns="http://www.w3.org/2000/svg" xmlns:xlink="http://www.w3.org/1999/xlink" x="0px" y="0px"
	 width="100%" viewBox="0 0 2520 3540" enable-background="new 0 0 2520 3540" xml:space="preserve">
<path fill="none" opacity="1.000000" stroke="#000000" stroke-linecap="round" stroke-linejoin="round" stroke-width="7.000000"
	d="
M15.000000,8.000000 
	C10.656363,8.908939 8.359838,11.298824 8.966318,16.004341 
	C9.177620,17.643774 9.000000,19.333334 9.000000,21.000000 
	C9.000000,1189.000000 9.001040,2357.000000 8.970598,3525.000000 
	C8.970453,3530.565430 8.807059,3536.077881 12.309062,3541.000000 
	C405.666656,3541.000000 799.333313,3541.000000 1192.241943,3541.000000 
	C1196.680664,3535.446777 1196.004272,3529.172363 1196.004272,3523.000000 
	C1195.999878,2355.666748 1196.000000,1188.333374 1196.000000,21.000000 
	C1196.000000,7.999990 1196.000000,7.999999 1183.000000,7.999999 
	C794.000000,8.000001 405.000000,8.000000 16.000000,8.000000 
"/>
<path fill="none" opacity="1.000000" stroke="#000000" stroke-linecap="round" stroke-linejoin="round" stroke-width="7.000000"
	d="
M1341.000000,8.000000 
	C1337.575562,8.535175 1335.852905,10.448714 1335.983765,14.000598 
	C1336.069702,16.330765 1336.000000,18.666666 1336.000000,21.000000 
	C1336.000000,287.000000 1336.000000,553.000000 1336.000000,819.000000 
	C1336.000000,832.000000 1336.000000,832.000000 1349.000000,832.000000 
	C1735.000000,832.000000 2121.000000,832.000244 2507.000000,831.997070 
	C2511.758545,831.997009 2516.619873,832.672363 2521.000000,829.272583 
	C2521.000000,556.666687 2521.000000,283.333344 2521.000000,8.000000 
	C2128.002197,8.000000 1735.001099,8.000000 1342.000000,8.000000 
"/>
<path fill="none" opacity="1.000000" stroke="#000000" stroke-linecap="round" stroke-linejoin="round" stroke-width="8.000000"
	d="
M1341.000000,911.000000 
	C1337.108276,912.276062 1335.852539,915.179443 1335.987549,919.000427 
	C1336.058105,920.997925 1336.000000,923.000000 1336.000000,925.000000 
	C1336.000000,1189.000000 1336.000000,1453.000000 1336.000000,1717.000000 
	C1336.000000,1730.000000 1336.000000,1730.000000 1349.000000,1730.000000 
	C1735.000000,1730.000000 2121.000000,1730.000244 2507.000000,1729.997070 
	C2511.758545,1729.996948 2516.619873,1730.672363 2521.000000,1727.272583 
	C2521.000000,1456.333374 2521.000000,1184.666626 2521.000000,911.000000 
	C2128.002197,911.000000 1735.001099,911.000000 1342.000000,911.000000 
"/>
<path fill="none" opacity="1.000000" stroke="#000000" stroke-linecap="round" stroke-linejoin="round" stroke-width="8.000000"
	d="
M1341.000000,1809.000000 
	C1337.108276,1810.276001 1335.852539,1813.179443 1335.987549,1817.000488 
	C1336.058228,1818.997925 1336.000000,1821.000000 1336.000000,1823.000000 
	C1336.000000,2089.000000 1336.000000,2355.000000 1336.000000,2621.000000 
	C1336.000000,2634.000000 1336.000000,2634.000000 1349.000000,2634.000000 
	C1735.000000,2634.000000 2121.000000,2634.000244 2507.000000,2633.997070 
	C2511.758545,2633.997070 2516.619873,2634.672363 2521.000000,2631.272705 
	C2521.000000,2358.333252 2521.000000,2084.666748 2521.000000,1809.000000 
	C2128.002197,1809.000000 1735.001099,1809.000000 1342.000000,1809.000000 
"/>
<path fill="none" opacity="1.000000" stroke="#000000" stroke-linecap="round" stroke-linejoin="round" stroke-width="8.000000"
	d="
M1341.000000,2713.000000 
	C1337.108276,2714.276123 1335.852539,2717.179443 1335.987549,2721.000488 
	C1336.058105,2722.998047 1336.000000,2725.000000 1336.000000,2727.000000 
	C1336.000000,2992.333252 1336.000732,3257.666748 1335.995605,3523.000000 
	C1335.995483,3529.172363 1335.319336,3535.446777 1339.758057,3541.000000 
	C1733.000000,3541.000000 2127.000000,3541.000000 2521.000000,3541.000000 
	C2521.000000,3265.666748 2521.000000,2990.333252 2521.000000,2713.000000 
	C2128.002197,2713.000000 1735.001099,2713.000000 1342.000000,2713.000000 
"/>
</svg>