<svg version="1.1" id="Layer_1" xmlns="http://www.w3.org/2000/svg" xmlns:xlink="http://www.w3.org/1999/xlink" x="0px" y="0px"
	 width="100%" viewBox="0 0 3540 2520" enable-background="new 0 0 3540 2520" xml:space="preserve">
<path fill="none" opacity="1.000000" stroke="#000000" stroke-linecap="round" stroke-linejoin="round" stroke-width="7.000000"
	d="
M13.000000,8.000000 
	C9.575543,8.535175 7.852850,10.448714 7.983775,14.000598 
	C8.069667,16.330767 8.000000,18.666666 8.000000,21.000000 
	C8.000000,849.666687 7.999889,1678.333374 8.002915,2507.000000 
	C8.002933,2511.758545 7.327643,2516.619873 10.727409,2521.000000 
	C387.333344,2521.000000 764.666687,2521.000000 1141.246948,2521.000000 
	C1144.435059,2516.938721 1144.007568,2512.445068 1144.007568,2508.000000 
	C1143.999756,1678.666626 1144.000244,849.333313 1143.997925,20.000000 
	C1143.997925,8.016185 1143.983765,8.002121 1132.000000,8.002041 
	C759.333313,7.999547 386.666656,8.000000 14.000000,8.000000 
"/>
<path fill="none" opacity="1.000000" stroke="#000000" stroke-linecap="round" stroke-linejoin="round" stroke-width="8.000000"
	d="
M1213.000000,8.000000 
	C1208.656372,8.908939 1206.359863,11.298827 1206.966431,16.004332 
	C1207.177734,17.643764 1207.000000,19.333334 1207.000000,21.000000 
	C1207.000000,849.666687 1206.999634,1678.333374 1207.008667,2507.000000 
	C1207.008789,2511.751953 1206.373901,2516.613281 1209.214355,2521.000000 
	C1586.333374,2521.000000 1963.666626,2521.000000 2340.785645,2521.000000 
	C2343.625977,2516.613281 2342.990967,2511.751953 2342.991211,2507.000000 
	C2343.000488,2072.000000 2343.000000,1637.000000 2343.000000,1202.000000 
	C2343.000000,808.666687 2343.000000,415.333344 2343.000000,22.000000 
	C2343.000000,7.999989 2343.000000,7.999998 2329.000000,7.999998 
	C1957.333374,8.000000 1585.666626,8.000000 1214.000000,8.000000 
"/>
<path fill="none" opacity="1.000000" stroke="#000000" stroke-linecap="round" stroke-linejoin="round" stroke-width="7.000000"
	d="
M2413.000000,8.000000 
	C2409.575439,8.535175 2407.852783,10.448718 2407.983887,14.000598 
	C2408.069580,16.330765 2408.000000,18.666666 2408.000000,21.000000 
	C2408.000000,849.666687 2408.000000,1678.333374 2408.002930,2507.000000 
	C2408.003174,2511.758545 2407.327637,2516.619873 2410.727295,2521.000000 
	C2787.000000,2521.000000 3164.000000,2521.000000 3541.000000,2521.000000 
	C3541.000000,1684.333374 3541.000000,847.666687 3541.000000,11.758092 
	C3535.446777,7.319369 3529.172363,7.995581 3523.000000,7.995662 
	C3153.333252,8.000506 2783.666748,8.000000 2414.000000,8.000000 
"/>
</svg>