<svg version="1.1" id="Layer_1" xmlns="http://www.w3.org/2000/svg" xmlns:xlink="http://www.w3.org/1999/xlink" x="0px" y="0px"
	 width="100%" viewBox="0 0 3540 2520" enable-background="new 0 0 3540 2520" xml:space="preserve">
<path fill="none" opacity="1.000000" stroke="#000000" stroke-linecap="round" stroke-linejoin="round" stroke-width="5.000000"
	d="
M1470.000000,38.000000 
	C1476.260620,53.844337 1486.421265,67.491814 1495.098755,81.940681 
	C1539.217896,155.402664 1583.636230,228.685120 1628.009155,301.994476 
	C1666.965332,366.354309 1706.130127,430.588226 1744.959473,495.024384 
	C1776.825073,547.904480 1808.441772,600.935730 1839.880249,654.070862 
	C1844.474854,661.836182 1850.041016,664.210205 1859.000122,664.206421 
	C2404.000000,663.976257 2949.000000,663.995117 3494.000000,664.030273 
	C3506.585205,664.031067 3506.033936,664.585205 3506.031250,652.000000 
	C3505.987061,450.666656 3506.003906,249.333328 3505.971924,48.000004 
	C3505.971436,44.323547 3506.670166,40.545147 3505.028076,36.971390 
	C3501.795166,35.380817 3498.346191,36.025337 3495.000000,36.025208 
	C2823.666748,35.999111 2152.333252,36.003502 1481.000000,35.944649 
	C1474.975464,35.944122 1468.587646,38.378189 1463.000000,34.000000 
"/>
<path fill="none" opacity="1.000000" stroke="#000000" stroke-linecap="round" stroke-linejoin="round" stroke-width="5.000000"
	d="
M1797.000000,661.000000 
	C1785.514160,637.785278 1771.205811,616.196350 1757.833252,594.100952 
	C1735.455566,557.126648 1713.302124,520.018616 1690.947998,483.031433 
	C1652.803345,419.917328 1614.063721,357.162048 1576.076294,293.954163 
	C1538.559448,231.529190 1501.132568,169.052551 1463.048462,106.970268 
	C1450.076416,85.824303 1437.436646,64.464264 1425.164307,42.906494 
	C1422.152954,37.616940 1418.921265,35.878803 1413.000000,35.880516 
	C962.000000,36.011009 511.000000,35.999260 60.000000,36.015656 
	C56.976997,36.015766 53.868736,35.485298 50.972149,36.970390 
	C49.380817,40.204750 50.025887,43.653679 50.025417,47.000004 
	C49.997063,249.000000 49.999310,451.000000 50.001900,653.000000 
	C50.002041,663.985168 50.014854,663.998108 61.000000,663.998169 
	C635.666687,664.000244 1210.333374,664.000061 1785.000000,663.999268 
	C1789.110107,663.999268 1793.301025,664.473083 1797.000000,662.000000 
"/>
<path fill="none" opacity="1.000000" stroke="#000000" stroke-linecap="round" stroke-linejoin="round" stroke-width="5.000000"
	d="
M54.000000,704.000000 
	C51.689865,704.356506 50.198833,705.679199 50.041595,708.002808 
	C49.861961,710.657349 50.000000,713.333313 50.000000,716.000000 
	C50.000000,1300.666626 49.998749,1885.333374 50.027996,2470.000000 
	C50.028183,2473.676514 49.329941,2477.454834 51.188522,2481.500000 
	C1202.333374,2481.500000 2353.666748,2481.500000 3505.500000,2481.500000 
	C3505.500000,1889.000000 3505.500000,1297.000000 3505.500000,704.000000 
	C2355.000244,704.000000 1205.000122,704.000000 55.000000,704.000000 
"/>
</svg>