<svg version="1.1" id="Layer_1" xmlns="http://www.w3.org/2000/svg" xmlns:xlink="http://www.w3.org/1999/xlink" x="0px" y="0px"
	 width="100%" viewBox="0 0 3540 2520" enable-background="new 0 0 3540 2520" xml:space="preserve">
<path fill="none" opacity="1.000000" stroke="#000000" stroke-linecap="round" stroke-linejoin="round" stroke-width="7.000000"
	d="
M13.000000,8.000000 
	C9.575543,8.535175 7.852850,10.448714 7.983775,14.000598 
	C8.069667,16.330767 8.000000,18.666666 8.000000,21.000000 
	C8.000000,849.666687 7.999889,1678.333374 8.002915,2507.000000 
	C8.002933,2511.758545 7.327643,2516.619873 10.727409,2521.000000 
	C288.000000,2521.000000 566.000000,2521.000000 843.246887,2521.000000 
	C846.435059,2516.938721 846.007568,2512.445068 846.007507,2508.000000 
	C845.999756,1678.666626 846.000183,849.333313 845.997925,20.000000 
	C845.997864,8.016185 845.983765,8.002173 834.000000,8.002056 
	C560.666687,7.999385 287.333344,8.000000 14.000000,8.000000 
"/>
<path fill="none" opacity="1.000000" stroke="#000000" stroke-linecap="round" stroke-linejoin="round" stroke-width="8.000000"
	d="
M917.000000,8.000000 
	C913.575562,8.535175 911.852844,10.448714 911.983765,14.000598 
	C912.069702,16.330765 912.000000,18.666666 912.000000,21.000000 
	C912.000000,849.666687 911.999817,1678.333374 912.002869,2507.000000 
	C912.002869,2511.758545 911.327637,2516.619873 914.727417,2521.000000 
	C1193.000000,2521.000000 1472.000000,2521.000000 1750.785645,2521.000000 
	C1753.626099,2516.613281 1752.991211,2511.751953 1752.991333,2507.000000 
	C1753.000732,2072.000000 1753.000000,1637.000000 1753.000000,1202.000000 
	C1753.000000,808.333313 1753.000000,414.666656 1753.000000,21.000000 
	C1753.000000,8.017557 1753.000000,8.002377 1740.000000,8.002236 
	C1466.000000,7.999280 1192.000000,8.000000 918.000000,8.000000 
"/>
<path fill="none" opacity="1.000000" stroke="#000000" stroke-linecap="round" stroke-linejoin="round" stroke-width="8.000000"
	d="
M1823.000000,8.000000 
	C1819.575562,8.535175 1817.852905,10.448714 1817.983765,14.000598 
	C1818.069702,16.330765 1818.000000,18.666666 1818.000000,21.000000 
	C1818.000000,849.666687 1818.000000,1678.333374 1818.003052,2507.000000 
	C1818.003052,2511.758545 1817.327637,2516.619873 1820.727417,2521.000000 
	C2096.333252,2521.000000 2372.666748,2521.000000 2648.785645,2521.000000 
	C2651.625977,2516.613281 2650.990967,2511.751953 2650.991211,2507.000000 
	C2651.000488,2072.000000 2651.000000,1637.000000 2651.000000,1202.000000 
	C2651.000000,808.333313 2651.000000,414.666656 2651.000000,21.000000 
	C2651.000000,8.017560 2651.000000,8.002379 2638.000000,8.002237 
	C2366.666748,7.999273 2095.333252,8.000000 1824.000000,8.000000 
"/>
<path fill="none" opacity="1.000000" stroke="#000000" stroke-linecap="round" stroke-linejoin="round" stroke-width="8.000000"
	d="
M2723.000000,8.000000 
	C2718.656250,8.908939 2716.359863,11.298810 2716.966553,16.004318 
	C2717.177734,17.643742 2717.000000,19.333334 2717.000000,21.000000 
	C2717.000000,849.666687 2716.999756,1678.333374 2717.008789,2507.000000 
	C2717.008789,2511.751953 2716.374023,2516.613281 2719.214355,2521.000000 
	C2993.000000,2521.000000 3267.000000,2521.000000 3541.000000,2521.000000 
	C3541.000000,1684.333374 3541.000000,847.666687 3541.000000,11.758092 
	C3535.446777,7.319369 3529.172363,7.995525 3523.000000,7.995643 
	C3256.666748,8.000702 2990.333252,8.000000 2724.000000,8.000000 
"/>
</svg>