<svg version="1.1" id="Layer_1" xmlns="http://www.w3.org/2000/svg" xmlns:xlink="http://www.w3.org/1999/xlink" x="0px" y="0px"
	 width="100%" viewBox="0 0 3540 2520" enable-background="new 0 0 3540 2520" xml:space="preserve">
<path fill="none" opacity="1.000000" stroke="#000000" stroke-linecap="round" stroke-linejoin="round" stroke-width="5.000000"
	d="
M2712.000000,37.000000 
	C2708.844971,34.882599 2705.312744,36.067047 2702.000000,36.066792 
	C1822.000000,35.998219 942.000000,35.999172 62.000000,36.027954 
	C58.323570,36.028076 54.545147,35.329941 50.500000,37.188522 
	C50.500000,851.666687 50.500000,1666.333374 50.500000,2480.796387 
	C54.204750,2482.619141 57.653698,2481.974854 61.000000,2481.974854 
	C769.666687,2482.000977 1478.333374,2481.988037 2187.000000,2482.155518 
	C2194.820801,2482.157471 2197.593750,2480.071289 2199.251221,2472.052002 
	C2217.181885,2385.302002 2235.615479,2298.656006 2254.016602,2212.003418 
	C2268.602051,2143.319580 2283.403076,2074.681641 2297.980713,2005.995972 
	C2313.399414,1933.347412 2328.655029,1860.664185 2344.002930,1788.000610 
	C2361.323486,1705.997925 2378.666748,1624.000000 2396.000244,1542.000000 
	C2413.333252,1460.000000 2430.666748,1378.000000 2448.000000,1296.000000 
	C2465.333496,1214.000000 2482.666504,1132.000000 2500.000000,1050.000000 
	C2517.333496,968.000061 2534.666748,886.000061 2552.000244,804.000061 
	C2569.333496,722.000061 2586.667236,640.000183 2604.000244,558.000061 
	C2621.333496,476.000031 2638.666748,394.000000 2656.000000,312.000000 
	C2673.333496,230.000031 2690.762451,148.020020 2707.870605,65.973015 
	C2709.867432,56.397675 2713.144775,46.978985 2713.000000,37.000000 
"/>
<path fill="none" opacity="1.000000" stroke="#000000" stroke-linecap="round" stroke-linejoin="round" stroke-width="5.000000"
	d="
M2239.000000,2481.000000 
	C2242.206299,2482.602539 2245.651367,2481.977783 2249.000000,2481.978027 
	C2664.333252,2482.001465 3079.666748,2482.003418 3495.000000,2481.940674 
	C3498.318604,2481.940186 3501.864258,2483.308594 3505.500000,2480.003662 
	C3505.500000,1666.333374 3505.500000,851.666687 3505.500000,37.203587 
	C3501.795166,35.380817 3498.346191,36.025749 3495.000000,36.025368 
	C3251.666748,35.997551 3008.333252,36.034946 2765.000244,35.842186 
	C2757.178467,35.835991 2754.405762,37.928349 2752.749268,45.948235 
	C2734.145752,136.030090 2715.036377,226.007690 2695.988281,315.997498 
	C2681.380615,385.010010 2666.604736,453.986908 2652.015869,523.003357 
	C2634.614746,605.322388 2617.410889,687.683105 2599.976074,769.994934 
	C2585.426270,838.686401 2570.596680,907.318420 2556.019043,976.004028 
	C2540.600586,1048.652710 2525.344727,1121.335693 2509.997070,1193.999390 
	C2492.676758,1276.002075 2475.307129,1357.994385 2458.007324,1440.001587 
	C2440.640137,1522.327881 2423.339600,1604.667969 2405.998047,1686.999634 
	C2389.006836,1767.668091 2372.040283,1848.341797 2354.988281,1928.997437 
	C2340.045410,1999.676270 2324.947266,2070.322021 2310.013916,2141.002930 
	C2292.621094,2223.323730 2275.388672,2305.678467 2257.969482,2387.993652 
	C2251.824219,2417.033447 2245.316895,2445.996582 2239.044678,2475.009766 
	C2238.700439,2476.602051 2239.000000,2478.333252 2239.000000,2480.000000 
"/>
</svg>