<svg version="1.1" id="Layer_1" xmlns="http://www.w3.org/2000/svg" xmlns:xlink="http://www.w3.org/1999/xlink" x="0px" y="0px"
	 width="100%" viewBox="0 0 3540 2520" enable-background="new 0 0 3540 2520" xml:space="preserve">
<path fill="none" opacity="1.000000" stroke="#000000" stroke-linecap="round" stroke-linejoin="round" stroke-width="5.000000"
	d="
M2947.000000,2512.000000 
	C2950.627686,2500.899414 2945.479248,2490.411133 2943.618652,2480.068604 
	C2926.597412,2385.461914 2910.666992,2290.661133 2894.384766,2195.933838 
	C2878.697510,2104.666992 2863.290771,2013.335083 2847.610107,1922.067017 
	C2832.021240,1831.336060 2816.263428,1740.620361 2800.245361,1649.956665 
	C2783.885254,1557.356567 2768.213135,1464.630005 2752.198975,1371.965576 
	C2736.184570,1279.301636 2719.899414,1186.678833 2704.314453,1093.947144 
	C2688.965332,1002.616699 2673.291016,911.335022 2657.609863,820.067017 
	C2642.021240,729.336060 2626.263428,638.620361 2610.245361,547.956665 
	C2593.885254,455.356628 2578.453369,362.590027 2562.138916,269.975525 
	C2547.479492,186.758316 2534.055908,103.323746 2519.809570,20.032534 
	C2519.190674,16.412987 2519.376465,12.291245 2515.367920,8.154577 
	C2513.795166,7.380819 2510.346191,8.026073 2507.000000,8.025485 
	C2341.666748,7.996404 2176.333252,8.051189 2011.000244,7.840651 
	C2003.178101,7.830689 2000.155518,9.823801 1998.785156,17.963839 
	C1985.476196,97.024033 1971.948120,176.050079 1957.903809,254.982880 
	C1948.063599,310.287506 1938.585571,365.652802 1928.886353,420.980072 
	C1913.111938,510.961823 1897.297241,600.934631 1881.847290,690.973816 
	C1872.347900,746.333801 1862.578369,801.651855 1852.856689,856.974854 
	C1837.747681,942.956543 1822.776733,1028.960693 1807.853882,1114.974609 
	C1798.251953,1170.318359 1788.657104,1225.665771 1778.889038,1280.980469 
	C1764.708374,1361.283203 1750.684814,1441.611206 1736.931396,1521.988281 
	C1727.623901,1576.383057 1717.499512,1630.637573 1708.041748,1685.007202 
	C1695.870239,1754.977417 1684.356812,1825.063599 1671.886475,1894.979736 
	C1662.023071,1950.280884 1652.651245,2005.664673 1642.903564,2060.982910 
	C1627.050049,2150.951172 1611.362427,2240.946289 1595.851562,2330.974365 
	C1586.314697,2386.328613 1576.079834,2441.563721 1566.926270,2496.987793 
	C1566.046387,2502.316650 1564.515259,2507.522705 1564.864990,2512.976074 
	C1568.204712,2514.619141 1571.653687,2513.974854 1575.000000,2513.974854 
	C2029.000000,2514.001465 2483.000000,2513.987305 2937.000000,2514.176270 
	C2941.589355,2514.178223 2946.590820,2511.061279 2951.000000,2515.000000 
"/>
<path fill="none" opacity="1.000000" stroke="#000000" stroke-linecap="round" stroke-linejoin="round" stroke-width="5.000000"
	d="
M1961.000000,9.000000 
	C1956.741577,7.693194 1952.354492,8.007320 1948.000000,8.007242 
	C1518.000000,7.999484 1088.000000,8.000000 658.000000,8.000001 
	C645.889099,8.000001 645.997620,7.982095 647.981750,20.003010 
	C658.184082,81.812485 669.730774,143.381851 681.023804,204.995636 
	C696.724304,290.656158 711.914978,376.408417 727.730957,462.049683 
	C739.045959,523.319153 749.796936,584.702454 760.936523,646.011536 
	C776.190613,729.965393 790.968445,814.005676 806.012207,897.997803 
	C814.611511,946.009888 823.324951,994.001526 832.001953,1041.999634 
	C843.993896,1108.334473 855.756470,1174.711914 868.085510,1240.984131 
	C876.325500,1285.276611 883.888367,1329.689331 892.114685,1373.978760 
	C904.425476,1440.257935 916.111816,1506.646484 928.128052,1572.976807 
	C936.158386,1617.305054 944.082642,1661.652588 952.143005,1705.973999 
	C964.204468,1772.296753 976.369385,1838.598267 988.153687,1904.972656 
	C996.622375,1952.671997 1005.636414,2000.276733 1014.067688,2047.988037 
	C1025.798340,2114.368896 1037.964844,2180.673096 1050.012573,2246.997803 
	C1057.946655,2290.676514 1066.023071,2334.329102 1073.993530,2378.001221 
	C1082.022949,2421.995850 1089.996704,2466.000488 1098.018921,2509.996582 
	C1098.205933,2511.022461 1098.676758,2511.996582 1099.037598,2513.060791 
	C1102.204712,2514.619141 1105.653687,2513.973877 1109.000000,2513.974609 
	C1243.666626,2514.004395 1378.333496,2513.927979 1512.999634,2514.182129 
	C1520.962158,2514.197266 1523.849854,2511.823730 1525.161011,2504.027100 
	C1537.893188,2428.315186 1550.675049,2352.609131 1564.108032,2277.019287 
	C1573.936401,2221.712402 1583.343018,2166.333984 1593.110962,2111.019531 
	C1607.291626,2030.716797 1621.315186,1950.388794 1635.068604,1870.011719 
	C1644.375977,1815.616943 1654.500366,1761.362427 1663.958252,1706.992676 
	C1676.129761,1637.022583 1687.643311,1566.936401 1700.113525,1497.020264 
	C1709.976929,1441.719116 1719.348755,1386.335327 1729.096436,1331.016968 
	C1744.949951,1241.048828 1760.637695,1151.053589 1776.148682,1061.025635 
	C1785.685425,1005.671509 1795.436279,950.351135 1805.120361,895.021057 
	C1820.869751,805.035034 1836.665894,715.058777 1852.166504,625.028687 
	C1861.696899,569.673828 1871.398193,514.343872 1881.136353,459.024017 
	C1896.271118,373.046692 1911.206177,287.036255 1926.152100,201.026428 
	C1935.768799,145.685120 1945.763550,90.408585 1955.011963,35.001991 
	C1956.401489,26.677074 1959.117310,18.565439 1959.000000,10.000000 
"/>
<path fill="none" opacity="1.000000" stroke="#000000" stroke-linecap="round" stroke-linejoin="round" stroke-width="5.000000"
	d="
M1057.000000,2512.000000 
	C1053.340454,2482.438232 1047.087402,2453.308594 1041.800781,2424.035889 
	C1029.820435,2357.699219 1017.950684,2291.341797 1005.864441,2225.024658 
	C997.786987,2180.703857 990.077515,2136.317139 981.885742,2092.021240 
	C969.626953,2025.732910 957.707153,1959.387207 945.868042,1893.023560 
	C937.658203,1847.003052 929.106873,1801.042358 920.880310,1755.021362 
	C906.982971,1677.276855 891.821594,1599.756470 878.162720,1521.971436 
	C867.328613,1460.272949 856.117310,1398.644775 844.928833,1337.012939 
	C829.373535,1251.326294 814.068604,1165.594604 798.237915,1079.956055 
	C786.852722,1018.365967 776.285645,956.615112 764.972229,895.005066 
	C749.243408,809.349731 734.070801,723.594055 718.277161,637.948914 
	C706.918701,576.354736 696.120422,514.645203 685.004272,452.999237 
	C668.830261,363.303528 652.470825,273.640808 636.243591,183.955933 
	C626.057556,127.660095 615.372253,71.443398 606.152283,14.975139 
	C605.258301,9.499728 603.205261,7.463541 597.998047,7.980357 
	C596.677734,8.111397 595.333313,8.000000 594.000000,8.000000 
	C404.000000,8.000000 214.000000,7.996185 24.000006,8.028261 
	C20.323547,8.028882 16.545147,7.329942 12.500000,9.188521 
	C12.500000,843.666687 12.500000,1678.333374 12.500000,2512.796387 
	C16.204748,2514.619141 19.653690,2513.974609 23.000002,2513.974854 
	C364.333344,2514.001953 705.666687,2514.001709 1047.000000,2513.977783 
	C1050.348755,2513.977539 1053.793579,2514.602539 1057.000000,2513.000000 
"/>
<path fill="none" opacity="1.000000" stroke="#000000" stroke-linecap="round" stroke-linejoin="round" stroke-width="5.000000"
	d="
M2559.000000,10.000000 
	C2560.700195,29.535036 2564.956787,48.680740 2568.142334,67.976509 
	C2577.067627,122.043861 2586.682129,175.997345 2595.995117,230.000809 
	C2603.352539,272.663361 2610.647217,315.336670 2618.004883,357.999176 
	C2627.318359,412.002594 2636.681885,465.997375 2645.995361,520.000854 
	C2653.352783,562.663330 2660.647461,605.336609 2668.004883,647.999146 
	C2677.318115,702.002625 2686.681885,755.997375 2695.995117,810.000854 
	C2703.352539,852.663391 2710.647461,895.336609 2718.004883,937.999146 
	C2727.318115,992.002625 2736.681641,1045.997437 2745.994873,1100.000854 
	C2753.352539,1142.663330 2760.647461,1185.336670 2768.004883,1227.999146 
	C2777.318115,1282.002563 2786.681885,1335.997314 2795.995117,1390.000854 
	C2803.352539,1432.663330 2810.647217,1475.336670 2818.004639,1517.999146 
	C2827.318359,1572.002563 2836.681885,1625.997437 2845.995117,1680.000854 
	C2853.352539,1722.663330 2860.647461,1765.336548 2868.005127,1807.999146 
	C2877.318359,1862.002563 2886.681885,1915.997437 2895.995117,1970.000854 
	C2903.352539,2012.663330 2910.647217,2055.336670 2918.004639,2097.999268 
	C2927.318115,2152.002686 2936.681885,2205.997314 2945.995117,2260.000732 
	C2953.352539,2302.663330 2960.615479,2345.342041 2968.015137,2387.997314 
	C2974.609375,2426.010010 2981.276611,2464.010010 2988.032959,2501.994141 
	C2990.174316,2514.031738 2990.352783,2514.000000 3002.000000,2514.000000 
	C3176.000000,2514.000000 3350.000000,2514.004395 3524.000000,2513.971924 
	C3527.676514,2513.971191 3531.454834,2514.670166 3535.500000,2512.811523 
	C3535.500000,1678.333374 3535.500000,843.666687 3535.500000,9.203587 
	C3531.795166,7.380819 3528.346191,8.025595 3525.000000,8.025310 
	C3206.333252,7.998129 2887.666748,7.999952 2569.000000,8.000537 
	C2564.972656,8.000545 2560.924316,7.759310 2557.000000,9.000000 
"/>
</svg>