<svg version="1.1" id="Layer_1" xmlns="http://www.w3.org/2000/svg" xmlns:xlink="http://www.w3.org/1999/xlink" x="0px" y="0px"
	 width="100%" viewBox="0 0 3540 2520" enable-background="new 0 0 3540 2520" xml:space="preserve">
<path fill="none" opacity="1.000000" stroke="#000000" stroke-linecap="round" stroke-linejoin="round" stroke-width="5.000000"
	d="
M805.000000,1328.000000 
	C795.666626,1281.000000 786.958008,1233.864868 776.828674,1187.037109 
	C766.171021,1137.766479 756.364990,1088.326538 746.063904,1038.986694 
	C730.485840,964.371033 715.333313,889.666687 700.000000,815.000000 
	C684.666687,740.333313 669.340088,665.665283 653.998169,591.000366 
	C639.340393,519.665222 624.659668,448.334778 610.001892,376.999603 
	C594.659912,302.334717 579.330566,227.667236 564.001160,152.999771 
	C556.027466,114.161057 548.065308,75.319969 540.102051,36.500000 
	C376.999329,36.500000 213.999146,36.500000 51.203587,36.500000 
	C49.380817,40.204750 50.025455,43.653694 50.025257,47.000000 
	C49.998657,499.000000 49.999668,951.000000 50.001965,1403.000000 
	C50.002026,1414.585205 49.991547,1414.367310 62.004189,1413.037842 
	C113.994438,1407.283203 166.028427,1401.913086 217.990677,1395.919067 
	C256.974274,1391.422363 295.970764,1387.081909 334.992828,1382.932617 
	C385.688812,1377.541748 436.330902,1371.644653 487.000854,1366.007812 
	C520.329590,1362.300049 553.670227,1358.698608 586.999146,1354.991943 
	C631.669373,1350.023926 676.338074,1345.041870 720.998108,1339.983521 
	C745.981323,1337.153809 770.895203,1333.710571 795.992310,1331.893799 
	C799.048706,1331.672607 802.000000,1330.000000 805.000000,1329.000000 
"/>
<path fill="none" opacity="1.000000" stroke="#000000" stroke-linecap="round" stroke-linejoin="round" stroke-width="5.000000"
	d="
M586.000000,36.000000 
	C579.976257,37.826206 582.163818,42.050858 582.979370,46.004253 
	C588.685059,73.662880 594.322815,101.335495 600.002258,128.999542 
	C609.993958,177.667892 620.003174,226.332672 629.999268,275.000153 
	C645.335388,349.666229 660.666626,424.333344 676.000000,499.000000 
	C691.333374,573.666687 706.660034,648.334656 722.001953,722.999634 
	C736.659668,794.334717 751.340271,865.665283 765.998108,937.000366 
	C781.340027,1011.665283 796.666809,1086.333374 812.000122,1161.000000 
	C827.333435,1235.666626 842.660095,1310.334717 858.001953,1384.999634 
	C872.659607,1456.334839 887.340332,1527.665161 901.998047,1599.000366 
	C917.339966,1673.665283 932.666565,1748.333374 947.999939,1823.000000 
	C963.333313,1897.666626 978.666626,1972.333374 994.000000,2047.000000 
	C1009.333313,2121.666748 1024.653320,2196.335938 1040.003906,2270.999268 
	C1053.985352,2339.002930 1068.042969,2406.991211 1081.820312,2475.036377 
	C1082.300781,2477.408936 1083.930908,2479.149414 1084.006348,2481.498047 
	C1891.000122,2481.500000 2698.000244,2481.500000 3505.500000,2481.500000 
	C3505.500000,1666.333374 3505.500000,851.666687 3505.500000,36.000000 
	C2532.333496,36.000000 1559.666748,36.000000 587.000000,36.000000 
"/>
<path fill="none" opacity="1.000000" stroke="#000000" stroke-linecap="round" stroke-linejoin="round" stroke-width="5.000000"
	d="
M807.000000,1370.000122 
	C779.000000,1373.333374 751.017761,1376.825684 722.995056,1379.955811 
	C694.350708,1383.155518 665.654053,1385.884766 637.002930,1389.026611 
	C592.325195,1393.926025 547.669373,1399.023926 502.999115,1403.991943 
	C469.670258,1407.698730 436.329742,1411.301147 403.000885,1415.007935 
	C358.330658,1419.975952 313.664703,1424.982666 269.000641,1430.005859 
	C236.663971,1433.642578 204.337112,1437.367065 171.999023,1440.991211 
	C133.003143,1445.361450 93.999374,1449.661011 55.002590,1454.023193 
	C53.648926,1454.174561 52.333401,1454.666992 50.500000,1455.125488 
	C50.500000,1797.000000 50.500000,2139.000000 50.500000,2481.500000 
	C381.000000,2481.500000 711.000000,2481.500000 1042.373779,2481.500000 
	C966.195068,2110.657227 890.170349,1740.563721 814.049011,1370.000000 
	C812.001892,1370.000000 810.000916,1370.000000 808.000000,1370.000000 
"/>
</svg>