<svg version="1.1" id="Layer_1" xmlns="http://www.w3.org/2000/svg" xmlns:xlink="http://www.w3.org/1999/xlink" x="0px" y="0px"
	 width="100%" viewBox="0 0 3540 2520" enable-background="new 0 0 3540 2520" xml:space="preserve">
<path fill="none" opacity="1.000000" stroke="#000000" stroke-linecap="round" stroke-linejoin="round" stroke-width="8.000000"
	d="
M13.000000,8.000000 
	C9.575543,8.535175 7.852850,10.448714 7.983775,14.000598 
	C8.069667,16.330767 8.000000,18.666666 8.000000,21.000000 
	C8.000000,407.666656 8.000016,794.333313 7.999999,1181.000000 
	C7.999998,1195.000000 8.000005,1195.000000 22.000000,1195.000000 
	C287.666656,1195.000000 553.333313,1195.000977 819.000000,1194.990845 
	C823.187439,1194.990723 827.416443,1195.372192 831.485291,1194.041992 
	C833.551941,1189.499634 832.990356,1184.712036 832.990479,1180.000000 
	C833.000854,793.666687 833.000000,407.333344 833.000000,21.000000 
	C833.000000,8.017557 833.000000,8.002381 820.000000,8.002238 
	C551.333313,7.999266 282.666656,8.000000 14.000000,8.000000 
"/>
<path fill="none" opacity="1.000000" stroke="#000000" stroke-linecap="round" stroke-linejoin="round" stroke-width="8.000000"
	d="
M917.000000,8.000000 
	C913.575562,8.535175 911.852844,10.448714 911.983765,14.000598 
	C912.069702,16.330765 912.000000,18.666666 912.000000,21.000000 
	C912.000000,407.666656 912.000000,794.333313 912.000000,1181.000000 
	C912.000000,1195.000000 912.000000,1195.000000 926.000000,1195.000000 
	C1191.666626,1195.000000 1457.333374,1195.001099 1723.000000,1194.990845 
	C1727.187500,1194.990723 1731.416504,1195.372192 1735.485352,1194.041992 
	C1737.551880,1189.499634 1736.990356,1184.712036 1736.990479,1180.000000 
	C1737.000854,793.666687 1737.000000,407.333344 1737.000000,21.000000 
	C1737.000000,8.017560 1737.000000,8.002381 1724.000000,8.002238 
	C1455.333374,7.999266 1186.666626,8.000000 918.000000,8.000000 
"/>
<path fill="none" opacity="1.000000" stroke="#000000" stroke-linecap="round" stroke-linejoin="round" stroke-width="8.000000"
	d="
M1821.000000,8.000000 
	C1817.575562,8.535175 1815.852905,10.448714 1815.983765,14.000598 
	C1816.069702,16.330765 1816.000000,18.666666 1816.000000,21.000000 
	C1816.000000,407.666656 1816.000000,794.333313 1816.000000,1181.000000 
	C1816.000000,1195.000000 1816.000000,1195.000000 1830.000000,1195.000000 
	C2093.666748,1195.000000 2357.333252,1195.000977 2621.000000,1194.990845 
	C2625.187500,1194.990601 2629.416504,1195.372192 2633.485352,1194.041992 
	C2635.552002,1189.499634 2634.990479,1184.712036 2634.990723,1180.000000 
	C2635.000977,793.666687 2635.000000,407.333344 2635.000000,21.000000 
	C2635.000000,8.017560 2635.000000,8.002383 2622.000000,8.002238 
	C2355.333252,7.999260 2088.666748,8.000000 1822.000000,8.000000 
"/>
<path fill="none" opacity="1.000000" stroke="#000000" stroke-linecap="round" stroke-linejoin="round" stroke-width="7.000000"
	d="
M2719.000000,8.000000 
	C2715.575439,8.535175 2713.852783,10.448718 2713.983887,14.000598 
	C2714.069580,16.330765 2714.000000,18.666666 2714.000000,21.000000 
	C2714.000000,407.666656 2714.000000,794.333313 2714.000000,1181.000000 
	C2714.000000,1195.000000 2714.000000,1195.000000 2728.000000,1195.000000 
	C2993.666748,1195.000000 3259.333252,1194.995605 3525.000000,1195.029785 
	C3530.565430,1195.030396 3536.077881,1195.192993 3541.000000,1191.690918 
	C3541.000000,798.333313 3541.000000,404.666656 3541.000000,11.758092 
	C3535.446777,7.319369 3529.172363,7.995526 3523.000000,7.995643 
	C3255.333252,8.000698 2987.666748,8.000000 2720.000000,8.000000 
"/>
<path fill="none" opacity="1.000000" stroke="#000000" stroke-linecap="round" stroke-linejoin="round" stroke-width="8.000000"
	d="
M13.000000,1335.000000 
	C9.108318,1336.276001 7.852561,1339.179443 7.987556,1343.000488 
	C8.058126,1344.997925 8.000000,1347.000000 8.000000,1349.000000 
	C8.000000,1735.000000 7.999729,2121.000000 8.002933,2507.000000 
	C8.002973,2511.758545 7.327643,2516.619873 10.727409,2521.000000 
	C283.666656,2521.000000 557.333313,2521.000000 832.000000,2521.000000 
	C832.000000,2126.167969 832.000000,1731.334473 832.000000,1335.000000 
	C559.335144,1335.000000 286.667572,1335.000000 14.000000,1335.000000 
"/>
<path fill="none" opacity="1.000000" stroke="#000000" stroke-linecap="round" stroke-linejoin="round" stroke-width="8.000000"
	d="
M917.000000,1335.000000 
	C913.108337,1336.276001 911.852539,1339.179443 911.987610,1343.000488 
	C912.058167,1344.997925 912.000000,1347.000000 912.000000,1349.000000 
	C912.000000,1735.000000 911.999695,2121.000000 912.002930,2507.000000 
	C912.002991,2511.758545 911.327637,2516.619873 914.727417,2521.000000 
	C1187.666626,2521.000000 1461.333374,2521.000000 1736.000000,2521.000000 
	C1736.000000,2126.167969 1736.000000,1731.334473 1736.000000,1335.000000 
	C1463.335205,1335.000000 1190.667603,1335.000000 918.000000,1335.000000 
"/>
<path fill="none" opacity="1.000000" stroke="#000000" stroke-linecap="round" stroke-linejoin="round" stroke-width="8.000000"
	d="
M1821.000000,1335.000000 
	C1817.108276,1336.276001 1815.852661,1339.179443 1815.987671,1343.000488 
	C1816.058350,1344.997925 1816.000000,1347.000000 1816.000000,1349.000000 
	C1816.000000,1735.000000 1815.999756,2121.000000 1816.002930,2507.000000 
	C1816.003052,2511.758545 1815.327637,2516.619873 1818.727417,2521.000000 
	C2089.666748,2521.000000 2361.333252,2521.000000 2634.000000,2521.000000 
	C2634.000000,2126.167969 2634.000000,1731.334473 2634.000000,1335.000000 
	C2363.335205,1335.000000 2092.667480,1335.000000 1822.000000,1335.000000 
"/>
<path fill="none" opacity="1.000000" stroke="#000000" stroke-linecap="round" stroke-linejoin="round" stroke-width="8.000000"
	d="
M2719.000000,1335.000000 
	C2715.108398,1336.276001 2713.852539,1339.179443 2713.987549,1343.000488 
	C2714.058105,1344.997925 2714.000000,1347.000000 2714.000000,1349.000000 
	C2714.000000,1735.000000 2713.999756,2121.000000 2714.002930,2507.000000 
	C2714.002930,2511.758545 2713.327637,2516.619873 2716.727295,2521.000000 
	C2991.000000,2521.000000 3266.000000,2521.000000 3541.000000,2521.000000 
	C3541.000000,2126.666748 3541.000000,1732.333374 3541.000000,1338.309082 
	C3536.077881,1334.807007 3530.565430,1334.969604 3525.000000,1334.970215 
	C3256.666748,1335.004272 2988.333252,1335.000000 2720.000000,1335.000000 
"/>
</svg>