<svg version="1.1" id="Layer_1" xmlns="http://www.w3.org/2000/svg" xmlns:xlink="http://www.w3.org/1999/xlink" x="0px" y="0px"
	 width="100%" viewBox="0 0 3540 2520" enable-background="new 0 0 3540 2520" xml:space="preserve">
<path fill="none" opacity="1.000000" stroke="#000000" stroke-linecap="round" stroke-linejoin="round" stroke-width="5.000000"
	d="
M16.000000,8.000000 
	C13.689866,8.356533 12.198832,9.679194 12.041590,12.002814 
	C11.861956,14.657326 12.000000,17.333334 12.000000,20.000000 
	C12.000000,847.333313 11.999102,1674.666626 12.027963,2502.000000 
	C12.028091,2505.676514 11.329942,2509.454834 13.188521,2513.500000 
	C437.666138,2513.500000 862.333069,2513.500000 1287.671387,2513.500000 
	C1300.582153,2469.741455 1314.655396,2425.637939 1327.141724,2381.039795 
	C1334.016479,2356.484619 1342.889160,2332.491943 1349.889771,2307.968506 
	C1366.972656,2248.125488 1386.060547,2188.887451 1403.255127,2129.073242 
	C1412.396851,2097.272217 1422.585571,2065.745361 1432.059204,2034.017700 
	C1447.688721,1981.673462 1463.919067,1929.513306 1479.239624,1877.070068 
	C1488.520020,1845.302490 1498.585693,1813.745483 1508.059448,1782.017700 
	C1523.688965,1729.673462 1539.919067,1677.513306 1555.239624,1625.070068 
	C1564.520142,1593.302490 1574.585571,1561.745483 1584.059326,1530.017700 
	C1599.688843,1477.673462 1615.919067,1425.513306 1631.239624,1373.069946 
	C1640.520142,1341.302490 1650.585815,1309.745483 1660.059448,1278.017700 
	C1675.689087,1225.673584 1691.932129,1173.517334 1707.234619,1121.068481 
	C1716.504150,1089.297729 1726.540039,1057.730835 1736.043457,1026.013062 
	C1751.722412,973.683289 1767.851685,921.492249 1783.226562,869.066406 
	C1792.540527,837.306885 1802.540161,805.730896 1812.043335,774.013000 
	C1827.722412,721.683289 1843.851562,669.492188 1859.226318,617.066406 
	C1868.540405,585.306885 1878.540039,553.730835 1888.043457,522.013000 
	C1903.722412,469.683319 1919.851440,417.492157 1935.226318,365.066376 
	C1944.540283,333.306793 1954.540161,301.730865 1964.043335,270.013000 
	C1979.722290,217.683304 1995.878418,165.500443 2011.220581,113.064545 
	C2020.219116,82.310204 2030.047485,51.784492 2039.086304,21.025375 
	C2042.951172,7.873605 2043.381226,7.999999 2030.000000,7.999999 
	C1436.000000,8.000000 842.000000,8.000000 248.000000,8.000000 
	C171.000000,8.000000 94.000000,8.000000 17.000000,8.000000 
"/>
<path fill="none" opacity="1.000000" stroke="#000000" stroke-linecap="round" stroke-linejoin="round" stroke-width="5.000000"
	d="
M2088.000000,8.000000 
	C2079.352295,15.341472 2079.465332,26.649078 2076.376709,36.122814 
	C2066.049561,67.798798 2057.666992,100.102028 2047.924683,131.976959 
	C2031.648560,185.229019 2015.706787,238.578018 1999.760986,291.928558 
	C1990.582886,322.635284 1981.308472,353.326294 1971.928345,383.978088 
	C1955.633911,437.224579 1939.706787,490.578033 1923.760864,543.928528 
	C1914.582886,574.635254 1905.308472,605.326355 1895.928467,635.978088 
	C1879.633911,689.224670 1863.706665,742.578003 1847.760864,795.928528 
	C1838.582886,826.635254 1829.277100,857.316284 1819.935669,887.980408 
	C1803.708740,941.246643 1787.660034,994.563477 1771.756348,1047.927368 
	C1762.603394,1078.640503 1753.224487,1109.299683 1743.947021,1139.984009 
	C1728.136353,1192.274780 1712.192627,1244.521606 1696.734985,1296.921753 
	C1687.370605,1328.666016 1677.495239,1360.280029 1667.936890,1391.980957 
	C1652.166504,1444.283691 1636.192749,1496.521729 1620.734985,1548.921875 
	C1611.370728,1580.666016 1601.495117,1612.279907 1591.936768,1643.980957 
	C1576.166504,1696.283691 1560.192749,1748.521729 1544.734985,1800.921753 
	C1535.370605,1832.666016 1525.495239,1864.280029 1515.936890,1895.980957 
	C1500.166626,1948.283691 1484.192871,2000.521729 1468.735107,2052.921875 
	C1459.370728,2084.666260 1449.470337,2116.272217 1439.942261,2147.982666 
	C1424.222534,2200.300293 1408.027344,2252.470459 1392.765015,2304.931641 
	C1384.402710,2333.675293 1375.262085,2362.204834 1366.847412,2390.955322 
	C1355.091064,2431.123779 1342.277954,2470.982910 1329.930542,2510.930420 
	C1330.333374,2511.333252 1330.755249,2511.615234 1330.983276,2512.009766 
	C1331.650146,2513.162842 1329.718384,2512.633789 1330.997803,2513.007568 
	C1332.008789,2513.303223 1333.000000,2513.958740 1334.000000,2513.958740 
	C2066.000000,2514.000244 2798.000000,2513.999756 3530.000000,2514.014404 
	C3531.756592,2514.014404 3533.505859,2514.196045 3535.500000,2511.562256 
	C3535.500000,1678.333374 3535.500000,843.666687 3535.500000,8.000000 
	C3053.000488,8.000000 2571.000244,8.000000 2089.000000,8.000000 
"/>
</svg>