<svg version="1.1" id="Layer_1" xmlns="http://www.w3.org/2000/svg" xmlns:xlink="http://www.w3.org/1999/xlink" x="0px" y="0px"
	 width="100%" viewBox="0 0 3540 2520" enable-background="new 0 0 3540 2520" xml:space="preserve">
<path fill="none" opacity="1.000000" stroke="#000000" stroke-linecap="round" stroke-linejoin="round" stroke-width="5.000000"
	d="
M54.000000,36.000000 
	C51.689865,36.356533 50.198837,37.679195 50.041595,40.002815 
	C49.861961,42.657326 50.000000,45.333332 50.000000,48.000000 
	C50.000000,855.333313 49.999119,1662.666626 50.027958,2470.000000 
	C50.028088,2473.676514 49.329941,2477.454834 51.188522,2481.500000 
	C321.666656,2481.500000 592.333313,2481.500000 862.796387,2481.500000 
	C864.619202,2477.795166 863.973022,2474.346191 863.974243,2471.000000 
	C864.006897,2384.666748 864.547485,2298.327881 863.719727,2212.002686 
	C863.406494,2179.336914 863.654541,2146.661133 862.963562,2114.000732 
	C860.777527,2010.671631 863.064270,1907.326904 861.746521,1804.003174 
	C861.329834,1771.333252 861.654480,1738.661255 860.963501,1706.000732 
	C858.777466,1602.671631 861.064209,1499.326904 859.746521,1396.003174 
	C859.329895,1363.333252 859.654419,1330.661255 858.963440,1298.000732 
	C856.777466,1194.671631 859.064209,1091.326904 857.746460,988.003235 
	C857.329773,955.333313 857.654480,922.661255 856.963501,890.000793 
	C854.777527,786.671631 857.064270,683.326843 855.746521,580.003235 
	C855.329895,547.333313 855.654419,514.661255 854.963501,482.000763 
	C852.777466,378.671661 855.065369,275.326813 853.747742,172.003220 
	C853.326843,138.999817 853.893616,105.983780 852.768005,73.007919 
	C852.359009,61.024483 852.593201,48.948528 851.566284,36.000000 
	C585.667480,36.000000 320.333740,36.000000 55.000000,36.000000 
"/>
<path fill="none" opacity="1.000000" stroke="#000000" stroke-linecap="round" stroke-linejoin="round" stroke-width="5.000000"
	d="
M896.000000,36.000000 
	C891.445374,36.492603 891.841553,39.898224 892.020264,42.998833 
	C894.342957,83.306046 891.590454,123.695175 893.982117,164.001068 
	C894.120117,166.326202 894.000000,168.666672 894.000000,171.000000 
	C894.000000,266.333344 893.598877,361.669220 894.210022,456.998657 
	C894.434448,491.995636 894.409973,527.007202 895.089539,561.998291 
	C897.109436,665.996887 894.952148,770.006226 896.254700,873.996826 
	C896.655518,905.999573 896.095642,938.015381 897.097168,969.996948 
	C898.976257,1029.997070 897.411072,1090.001343 898.012329,1149.999878 
	C898.042664,1153.023804 897.485291,1156.131226 899.212463,1159.500000 
	C1767.666626,1159.500000 2636.333252,1159.500000 3505.500000,1159.500000 
	C3505.500000,785.000000 3505.500000,411.000000 3505.500000,36.000000 
	C2635.666992,36.000000 1766.333496,36.000000 897.000000,36.000000 
"/>
<path fill="none" opacity="1.000000" stroke="#000000" stroke-linecap="round" stroke-linejoin="round" stroke-width="5.000000"
	d="
M902.000000,1200.000000 
	C896.113220,1201.511963 898.051086,1206.333374 898.066589,1209.999756 
	C898.304382,1266.333496 898.036011,1322.679077 899.146484,1378.997070 
	C900.848816,1465.333984 899.391113,1551.667725 899.997192,1638.000000 
	C900.345825,1687.666504 900.018921,1737.348145 901.152771,1786.996460 
	C902.827637,1860.334595 901.455811,1933.667480 901.977356,2007.000122 
	C902.420715,2069.332520 902.019531,2131.678467 903.152405,2193.997314 
	C904.831116,2286.334473 903.363708,2378.667969 904.066162,2470.999512 
	C904.091370,2474.315674 902.616882,2477.871582 906.120239,2481.500000 
	C1771.666626,2481.500000 2638.333252,2481.500000 3505.500000,2481.500000 
	C3505.500000,2054.333252 3505.500000,1627.666626 3505.500000,1200.000000 
	C2637.666992,1200.000000 1770.333496,1200.000000 903.000000,1200.000000 
"/>
</svg>