<svg version="1.1" id="Layer_1" xmlns="http://www.w3.org/2000/svg" xmlns:xlink="http://www.w3.org/1999/xlink" x="0px" y="0px"
	 width="100%" viewBox="0 0 3540 2520" enable-background="new 0 0 3540 2520" xml:space="preserve">
<path fill="none" opacity="1.000000" stroke="#000000" stroke-linecap="round" stroke-linejoin="round" stroke-width="5.000000"
	d="
M54.000000,36.000000 
	C51.689865,36.356533 50.198837,37.679195 50.041595,40.002815 
	C49.861961,42.657326 50.000000,45.333332 50.000000,48.000000 
	C50.000000,855.333313 49.999119,1662.666626 50.027958,2470.000000 
	C50.028088,2473.676514 49.329941,2477.454834 51.188522,2481.500000 
	C321.666656,2481.500000 592.333313,2481.500000 862.796387,2481.500000 
	C864.619202,2477.795166 863.973022,2474.346191 863.974243,2471.000000 
	C864.006897,2384.666748 864.547485,2298.327881 863.719727,2212.002686 
	C863.406494,2179.336914 863.654541,2146.661133 862.963562,2114.000732 
	C860.777527,2010.671631 863.064270,1907.326904 861.746521,1804.003174 
	C861.329834,1771.333252 861.654480,1738.661255 860.963501,1706.000732 
	C858.777466,1602.671631 861.064209,1499.326904 859.746521,1396.003174 
	C859.329895,1363.333252 859.654419,1330.661255 858.963440,1298.000732 
	C856.777466,1194.671631 859.064209,1091.326904 857.746460,988.003235 
	C857.329773,955.333313 857.654480,922.661255 856.963501,890.000793 
	C854.777527,786.671631 857.064270,683.326843 855.746521,580.003235 
	C855.329895,547.333313 855.654419,514.661255 854.963501,482.000763 
	C852.777466,378.671661 855.065369,275.326813 853.747742,172.003220 
	C853.326843,138.999817 853.893616,105.983780 852.768005,73.007919 
	C852.359009,61.024483 852.593201,48.948528 851.566284,36.000000 
	C585.667480,36.000000 320.333740,36.000000 55.000000,36.000000 
"/>
<path fill="none" opacity="1.000000" stroke="#000000" stroke-linecap="round" stroke-linejoin="round" stroke-width="5.000000"
	d="
M896.000000,36.000000 
	C891.445374,36.492603 891.845520,39.897800 892.019531,42.998905 
	C894.356384,84.640015 891.551392,126.361565 893.982544,168.001022 
	C894.118286,170.326416 894.000000,172.666672 894.000000,175.000000 
	C894.000000,253.666672 893.879761,332.333588 894.042786,410.999908 
	C894.149170,462.333740 893.996155,513.681885 895.161438,564.996338 
	C896.796692,637.001892 895.462646,709.000732 895.974426,781.000183 
	C896.429382,844.999329 896.224670,909.007263 897.275391,972.995483 
	C897.581482,991.640442 897.199951,1010.373840 898.314148,1028.169800 
	C905.942261,1032.867920 913.851440,1031.590820 921.001404,1031.617065 
	C940.721680,1031.689453 960.340210,1033.250366 979.995972,1034.093628 
	C1022.669373,1035.924805 1065.357056,1037.399902 1108.015991,1039.704590 
	C1125.974609,1040.674805 1144.001709,1041.283691 1162.001099,1041.972656 
	C1206.015869,1043.657471 1250.020020,1045.493042 1294.015747,1047.683228 
	C1313.642090,1048.660278 1333.338867,1049.247070 1352.997192,1050.067627 
	C1396.005737,1051.862793 1439.022583,1053.427002 1482.015503,1055.707886 
	C1499.976685,1056.660889 1518.001709,1057.283691 1536.001099,1057.972656 
	C1580.015869,1059.657471 1624.021606,1061.441406 1668.015381,1063.699951 
	C1686.975586,1064.673218 1706.004761,1065.221558 1724.999023,1066.022217 
	C1768.007446,1067.834961 1811.022339,1069.429810 1854.016602,1071.684082 
	C1873.304565,1072.695435 1892.671265,1073.239380 1911.998291,1074.040039 
	C1955.340576,1075.835327 1998.685791,1077.537476 2042.015747,1079.681763 
	C2060.979004,1080.620361 2080.004883,1081.262085 2098.997314,1082.064209 
	C2142.004883,1083.880127 2185.024414,1085.363403 2228.017334,1087.679443 
	C2247.301025,1088.718140 2266.670166,1089.261353 2285.998535,1090.035645 
	C2329.343506,1091.771973 2372.683594,1093.610107 2416.014893,1095.686890 
	C2434.982666,1096.595825 2454.004883,1097.262207 2472.997314,1098.064209 
	C2516.004883,1099.880249 2559.024414,1101.363403 2602.017334,1103.679321 
	C2621.301025,1104.718140 2640.670166,1105.261353 2659.998535,1106.035645 
	C2703.343506,1107.771973 2746.683838,1109.602661 2790.014893,1111.690308 
	C2808.982178,1112.604004 2828.001221,1113.338501 2846.996826,1114.080322 
	C2890.009766,1115.760254 2933.017090,1117.610474 2976.015137,1119.685181 
	C2994.981934,1120.600342 3014.004883,1121.262085 3032.997314,1122.064087 
	C3076.004883,1123.880127 3119.022949,1125.420654 3162.018066,1127.653320 
	C3181.303955,1128.654785 3200.665527,1129.390747 3219.996826,1130.088989 
	C3263.347412,1131.654907 3306.684326,1133.580078 3350.014893,1135.697021 
	C3368.648926,1136.607422 3387.334229,1137.310547 3405.999023,1138.024536 
	C3434.010742,1139.096069 3462.043457,1139.674072 3490.009033,1141.887085 
	C3494.941162,1142.277466 3500.109863,1142.980103 3505.500000,1140.801392 
	C3505.500000,773.000000 3505.500000,405.000000 3505.500000,36.000000 
	C2635.666992,36.000000 1766.333496,36.000000 897.000000,36.000000 
"/>
<path fill="none" opacity="1.000000" stroke="#000000" stroke-linecap="round" stroke-linejoin="round" stroke-width="5.000000"
	d="
M902.000000,1070.000000 
	C896.997314,1070.832031 898.014038,1074.718506 898.013184,1078.000000 
	C897.995667,1146.333374 897.442627,1214.673584 898.289795,1282.996460 
	C898.603943,1308.328613 898.526550,1333.668335 898.993958,1359.000122 
	C901.023743,1468.994751 899.326843,1579.002319 900.247070,1688.997925 
	C900.387634,1705.796753 900.282593,1722.708252 901.438171,1739.748169 
	C940.656433,1741.851685 979.371033,1743.340210 1017.988281,1746.160767 
	C1058.640503,1749.129883 1099.354370,1751.042358 1140.023315,1753.633789 
	C1167.971313,1755.414429 1196.000000,1756.809692 1223.983276,1758.311768 
	C1252.992432,1759.869141 1282.023193,1761.654663 1311.022827,1763.670898 
	C1336.638672,1765.451660 1362.340942,1766.521362 1388.000000,1768.000977 
	C1419.677490,1769.827759 1451.347168,1771.885010 1483.018066,1773.680908 
	C1508.671021,1775.135620 1534.341797,1776.513062 1559.998901,1778.018433 
	C1591.674194,1779.876709 1623.351074,1781.777100 1655.019897,1783.665894 
	C1680.663696,1785.195312 1706.341797,1786.513062 1731.998901,1788.018311 
	C1763.674194,1789.876709 1795.351196,1791.776978 1827.019897,1793.665771 
	C1852.663696,1795.195190 1878.340210,1796.538574 1903.999390,1798.011597 
	C1936.341309,1799.868286 1968.683228,1801.760986 2001.018066,1803.699585 
	C2025.999268,1805.197144 2051.000977,1806.651245 2076.000244,1807.997314 
	C2108.349609,1809.739136 2140.683105,1811.761719 2173.018066,1813.699585 
	C2197.999268,1815.196777 2222.998047,1816.708130 2248.000977,1817.982910 
	C2280.356689,1819.632690 2312.680908,1821.821533 2345.017090,1823.707275 
	C2370.003174,1825.164551 2394.998047,1826.708130 2420.000977,1827.983032 
	C2452.356689,1829.632812 2484.681885,1831.768066 2517.016357,1833.728516 
	C2542.659912,1835.283569 2568.340820,1836.521118 2594.000000,1838.000854 
	C2625.677490,1839.827515 2657.347168,1841.884888 2689.018066,1843.680908 
	C2714.670898,1845.135620 2740.341797,1846.513184 2765.999023,1848.018555 
	C2797.674072,1849.876831 2829.351074,1851.776978 2861.020020,1853.665649 
	C2886.663574,1855.195068 2912.341797,1856.513062 2937.999023,1858.018311 
	C2969.674072,1859.876709 3001.351074,1861.777100 3033.020020,1863.665771 
	C3058.663574,1865.195190 3084.340332,1866.538574 3109.999268,1868.011597 
	C3142.341309,1869.868286 3174.683105,1871.760986 3207.018066,1873.699341 
	C3231.999268,1875.197021 3257.000977,1876.651367 3282.000244,1877.997437 
	C3314.349609,1879.739136 3346.683105,1881.761719 3379.018066,1883.699707 
	C3403.999268,1885.196777 3428.988525,1887.208008 3454.005127,1887.781250 
	C3468.382324,1888.110840 3482.603027,1890.794189 3496.997803,1889.961426 
	C3499.668945,1889.807007 3502.572998,1891.249878 3505.500000,1887.199951 
	C3505.500000,1653.666626 3505.500000,1418.333374 3505.500000,1181.838013 
	C3492.966553,1182.402466 3480.952148,1180.234131 3469.001221,1180.287476 
	C3449.268555,1180.375488 3429.667969,1178.570190 3410.005371,1177.854370 
	C3367.322510,1176.300293 3324.648682,1174.423462 3281.984863,1172.306519 
	C3263.352539,1171.381958 3244.663574,1170.732666 3226.001221,1169.970215 
	C3182.657715,1168.199707 3139.314209,1166.459229 3095.984375,1164.317993 
	C3077.020752,1163.380859 3057.994385,1162.749023 3039.002930,1161.933716 
	C2995.996582,1160.087646 2952.978760,1158.532593 2909.982422,1156.343384 
	C2890.693359,1155.361328 2871.334229,1154.615479 2852.003418,1153.909180 
	C2809.319092,1152.349976 2766.646973,1150.482178 2723.983643,1148.322266 
	C2704.359619,1147.328613 2684.658936,1146.820557 2665.002197,1145.951538 
	C2621.998047,1144.050659 2578.974609,1142.664429 2535.983643,1140.297729 
	C2518.027832,1139.309448 2499.998535,1138.716309 2481.999023,1138.027344 
	C2437.984131,1136.342407 2393.979248,1134.530884 2349.984375,1132.309570 
	C2330.690918,1131.335327 2311.327393,1130.807861 2292.000977,1129.977051 
	C2248.661377,1128.114502 2205.311768,1126.545166 2161.983398,1124.323853 
	C2143.025146,1123.351807 2123.997559,1122.697510 2105.002197,1121.944092 
	C2061.989746,1120.238403 2018.975098,1118.644653 1975.983765,1116.296631 
	C1958.026855,1115.315918 1939.998291,1114.716064 1921.998901,1114.027222 
	C1877.984131,1112.342285 1833.979980,1110.506470 1789.984253,1108.316650 
	C1770.357788,1107.339844 1750.659790,1106.807373 1731.001953,1105.954224 
	C1687.996216,1104.087769 1644.980103,1102.485474 1601.983765,1100.321411 
	C1583.022949,1099.366943 1563.997559,1098.697266 1545.002197,1097.944092 
	C1501.989746,1096.238403 1458.977661,1094.570312 1415.983398,1092.315918 
	C1396.695435,1091.304688 1377.328735,1090.760498 1358.001709,1089.959961 
	C1314.659424,1088.164673 1271.314209,1086.462524 1227.984253,1084.317993 
	C1209.020996,1083.379639 1189.997559,1082.697388 1171.002197,1081.944092 
	C1127.989746,1080.238403 1084.983643,1078.329712 1041.982788,1076.378174 
	C1019.028687,1075.336426 995.982910,1074.639771 973.015198,1073.648071 
	C949.685486,1072.640747 926.228210,1073.172974 903.000000,1070.000000 
"/>
<path fill="none" opacity="1.000000" stroke="#000000" stroke-linecap="round" stroke-linejoin="round" stroke-width="5.000000"
	d="
M906.000000,1780.000000 
	C901.377136,1781.357666 900.915039,1785.045288 901.004639,1788.999878 
	C903.299377,1890.326904 900.980164,1991.672363 902.212463,2092.997314 
	C902.621887,2126.666504 902.332153,2160.341553 903.077209,2193.998291 
	C905.121216,2286.329590 903.363708,2378.667969 904.066162,2470.999512 
	C904.091370,2474.315674 902.616882,2477.871582 906.120239,2481.500000 
	C1771.666626,2481.500000 2638.333252,2481.500000 3504.796387,2481.500000 
	C3506.619141,2477.795166 3505.974121,2474.346191 3505.974854,2471.000000 
	C3506.003662,2294.333252 3506.000977,2117.666748 3505.998291,1941.000000 
	C3505.998047,1930.014893 3505.965576,1930.434082 3495.003662,1929.921143 
	C3462.975830,1928.422363 3430.986328,1926.116699 3398.982178,1924.315674 
	C3373.328125,1922.872070 3347.658203,1921.486938 3322.000977,1919.981567 
	C3290.325928,1918.123291 3258.648926,1916.223022 3226.979980,1914.334351 
	C3201.336426,1912.804932 3175.659668,1911.461426 3150.000732,1909.988403 
	C3117.658691,1908.131714 3085.316895,1906.239014 3052.981934,1904.300537 
	C3028.000732,1902.802856 3002.999023,1901.348633 2977.999756,1900.002563 
	C2945.650391,1898.260864 2913.316650,1896.238403 2880.981934,1894.300415 
	C2856.000732,1892.803223 2830.999023,1891.348755 2805.999756,1890.002686 
	C2773.650391,1888.260864 2741.317383,1886.209473 2708.981934,1884.307251 
	C2683.666260,1882.817871 2658.336182,1881.280151 2633.000977,1879.980835 
	C2600.979492,1878.338623 2568.983887,1876.241577 2536.983154,1874.276123 
	C2511.341797,1872.701172 2485.659180,1871.479004 2460.000000,1869.999268 
	C2428.322510,1868.172607 2396.652832,1866.114990 2364.981934,1864.319092 
	C2339.329102,1862.864380 2313.660645,1861.447021 2288.000488,1859.991699 
	C2256.321289,1858.195068 2224.652832,1856.114990 2192.981934,1854.319092 
	C2167.329102,1852.864258 2141.658203,1851.486938 2116.000977,1849.981689 
	C2084.325928,1848.123169 2052.648926,1846.222900 2020.980103,1844.334351 
	C1995.336304,1842.804810 1969.659790,1841.461426 1944.000610,1839.988403 
	C1911.658691,1838.131714 1879.316772,1836.239136 1846.981934,1834.300537 
	C1822.000732,1832.802856 1796.999268,1831.348755 1771.999878,1830.002808 
	C1739.650513,1828.260864 1707.316772,1826.238403 1674.982056,1824.300415 
	C1650.000610,1822.803223 1624.999268,1821.348755 1599.999878,1820.002563 
	C1567.650513,1818.260864 1535.316528,1816.250000 1502.982178,1814.294434 
	C1477.670776,1812.763550 1452.330200,1811.392944 1426.999634,1810.007324 
	C1394.983765,1808.255615 1362.986084,1806.145508 1330.982422,1804.306396 
	C1305.331421,1802.832275 1279.661011,1801.439087 1254.000610,1799.989990 
	C1222.320801,1798.201172 1190.652832,1796.115112 1158.981934,1794.319214 
	C1133.328979,1792.864380 1107.660645,1791.447021 1082.000488,1789.991699 
	C1050.321167,1788.195190 1018.653870,1786.050171 986.981995,1784.332397 
	C960.327820,1782.886719 933.683289,1781.000854 907.000000,1780.000000 
"/>
</svg>