<!--?xml version="1.0" encoding="utf-8"?-->
<!-- Generator: Adobe Illustrator 25.2.3, SVG Export Plug-In . SVG Version: 6.00 Build 0)  -->
<svg version="1.1" id="_x32_" xmlns="http://www.w3.org/2000/svg" xmlns:xlink="http://www.w3.org/1999/xlink" x="0px" y="0px" viewBox="0 0 800 768.6" style="enable-background:new 0 0 800 768.6;" xml:space="preserve">
<style type="text/css">
	.stblack{fill:#000000;}
	.st0{fill:#FFFFFF;}
</style>
<g>
	<path class="st0" d="M34.8,428.5C7.3,254.7,103,61.9,336.6,32.9c233.6-29,344.5,98.9,371.7,286.5c27.3,187.6-56.3,310.4-92.1,341.1
		C580.5,691.2,485,756,326.4,732.9C167.2,709.7,72.3,665.6,34.8,428.5z"></path>
	<path class="stblack" d="M687.4,204.6c17.7,43,28.2,88.9,33.8,131.3c5.5,42.5,5.1,81.7,1.6,111.7c-2.1,19.2-6.9,36.2-11.8,47.9
		c-2.5,5.9-5,10.5-7.3,13.4c-2.3,3-4.3,4.4-6,3.9c-1.6-0.5-2.7-2.7-3.2-6.4c-0.5-3.7-0.6-8.7-0.3-14.9c0.5-12.3,2.3-28.7,4.4-46.9
		c4.9-41.6,4.2-85.6-1.4-126.3c-5.4-40.8-15.4-78-27.2-106.6c-1.3-3.3-2.9-6.5-4.3-9.8c-1.5-3.3-2.9-6.6-4.5-9.7l-4.8-9.6
		c-1.7-3.1-3.5-6.2-5.2-9.3l-2.6-4.6l-2.8-4.5c-1.9-3-3.7-6.1-5.7-9l-6.1-8.7c-1-1.5-2.1-2.9-3.2-4.3l-3.3-4.2l-3.3-4.2
		c-1.1-1.4-2.3-2.7-3.5-4c-2.3-2.6-4.6-5.3-7-8c-5-5-9.8-10.2-15.1-14.8c-5.1-4.9-10.8-9.1-16.2-13.6c-5.8-4-11.4-8.4-17.4-12
		c-23.8-15.2-50.4-25.7-77.9-32.7c-27.6-6.6-56.2-9.6-84.9-9.8c-3.6-0.1-7.2,0.1-10.8,0.1l-10.8,0.3c-7.2,0.4-14.4,0.9-21.5,1.4
		l-21.5,2.3l-21.3,3.2c-28.2,5-55.9,12.9-82.1,24.1l-9.8,4.2l-9.6,4.7c-6.5,3-12.6,6.7-18.8,10.1c-3.1,1.7-6.1,3.7-9.1,5.6l-9,5.7
		l-8.6,6.2l-4.3,3.1c-1.5,1-2.8,2.2-4.2,3.3c-22.2,17.6-42.2,38.1-58.7,61.3c-8.5,11.4-15.6,23.7-22.5,36.1
		c-3.1,6.4-6.5,12.6-9.2,19.2c-1.4,3.3-2.9,6.5-4.2,9.8l-3.8,10c-1.3,3.3-2.4,6.7-3.5,10.1c-1.1,3.4-2.3,6.7-3.3,10.2
		c-1.8,6.9-4,13.7-5.4,20.7c-3.4,13.8-5.4,28-7,42.1c-2.8,28.3-2.6,57,1.4,85.3c0.5,3.5,0.9,7,1.5,10.6l1.8,10.7
		c0.6,3.6,1.2,7.2,1.9,10.7l2.1,10.7c2.8,14.2,6.1,28.3,9.8,42.2c0.8,3.5,2,6.9,2.9,10.4c1,3.4,2,6.9,3,10.3l3.4,10.2l1.7,5.1l1.9,5
		l3.7,10.1l4.1,9.9c0.7,1.6,1.3,3.3,2.1,4.9l2.3,4.8c1.5,3.2,2.9,6.5,4.6,9.6c6.3,12.7,13.7,24.7,21.9,36.1c2.1,2.8,4.1,5.7,6.3,8.4
		l6.7,8l7.1,7.6c2.4,2.5,5,4.8,7.5,7.2c20.4,18.9,44.9,33.1,71.2,43.3c13.2,5.1,26.8,9.3,40.7,12.9c13.9,3.6,28,6.6,42.2,9.1
		c9,1.7,18.7,3.2,28.8,4.6c10.1,1.4,20.5,2.6,31.4,3.5c5.4,0.4,10.9,0.7,16.5,0.9c5.6,0.1,11.3,0.3,17,0.2c11.5,0,23.2-0.7,35.1-1.8
		c23.7-2.3,48-6.9,71.6-14.1c23.6-7.2,46.4-17.1,67.4-29c18.4-10.4,34.6-20.5,46.8-27.5c5.7-3.2,10.7-6.3,14.6-8.1
		c3.9-1.8,6.8-2.3,8.3-1c1.5,1.3,1.6,4.2,0.1,8.5c-1.5,4.3-4.5,9.8-9.7,16.1c-9.7,11.8-25.7,25.7-45.8,37.1
		c-15.7,9-34.6,17.6-56,24.9c-10.7,3.6-22,6.8-33.8,9.5c-11.8,2.7-24.1,4.9-36.7,6.5c-12.7,1.6-25.6,2.7-38.9,3
		c-13.2,0.3-26.6,0.2-40.1-0.6c-13.5-0.9-27.1-2.1-40.5-4.1c-6.8-0.9-13.4-2-20.1-3c-6.7-1.1-13.3-2.2-20-3.4
		c-14.6-2.6-29.3-5.8-43.8-9.5c-14.5-3.8-29-8.2-43.2-13.8c-14.1-5.6-28-12.2-41.1-20.2c-13.2-7.9-25.6-17.2-36.9-27.7
		c-2.8-2.7-5.6-5.3-8.3-8.1l-7.9-8.5l-7.4-8.9c-2.5-3-4.6-6.1-6.9-9.2c-8.9-12.5-16.8-25.5-23.6-39.1c-1.8-3.4-3.2-6.8-4.9-10.3
		l-2.4-5.1c-0.8-1.7-1.5-3.5-2.2-5.2L58,562.2l-3.9-10.6l-1.9-5.3l-1.7-5.3l-3.5-10.7c-1.1-3.6-2.1-7.2-3.1-10.8
		c-1-3.6-2.1-7.2-3-10.8c-3.8-14.5-7.2-29-10-43.6l-2.1-10.9c-0.7-3.6-1.3-7.3-1.9-11l-1.9-11c-0.6-3.7-1-7.5-1.6-11.2
		c-4.1-29.9-4.3-60.3-1.3-90.3c1.8-15,4-30,7.6-44.6c1.5-7.4,3.8-14.6,5.8-21.9c1-3.6,2.3-7.2,3.5-10.8c1.2-3.6,2.3-7.2,3.8-10.7
		l4.1-10.6c1.4-3.5,3-6.9,4.5-10.4c2.9-7,6.6-13.6,9.9-20.4c7.3-13.3,15-26.3,24-38.5c17.6-24.7,39-46.6,62.8-65.3
		c1.5-1.2,2.9-2.4,4.5-3.5l4.6-3.3l9.2-6.6l9.6-6.1c3.2-2,6.3-4.1,9.7-5.9c6.6-3.7,13.1-7.5,20-10.7l10.2-5l10.4-4.4
		c27.8-11.7,57-20,86.5-25.1c7.4-1.2,14.8-2.2,22.3-3.3l22.3-2.3c7.5-0.5,14.9-1,22.4-1.4l11.2-0.3c3.7,0,7.5-0.3,11.2-0.1
		c30,0.2,60.1,3.4,89.6,10.6c29.3,7.5,57.9,18.8,83.6,35.4c6.6,3.9,12.6,8.6,18.8,13c5.9,4.8,12,9.4,17.5,14.7
		c5.8,5,10.9,10.6,16.3,16c2.5,2.8,5,5.7,7.5,8.6c1.2,1.4,2.5,2.8,3.7,4.3l3.5,4.5l3.5,4.5c1.2,1.5,2.3,3,3.4,4.6l6.5,9.3
		c2.1,3.1,4,6.4,6.1,9.6l3,4.8l2.8,4.9c1.8,3.3,3.7,6.6,5.5,9.9l5,10.1c1.7,3.3,3.2,6.8,4.7,10.3
		C684.5,197.7,686.1,201.1,687.4,204.6z"></path>
	<path class="st0" d="M627.2,615.5c56.8,26.2,133.6-13.4,133.6-13.4s-80.3-66.4-91.2-87.2"></path>
	<path class="stblack" d="M678.5,536.3c6,6.4,12.6,14.6,20.8,23.2c6.5,6.8,14.5,13.3,22.6,21.1c3.5,3.3,7.1,6.8,10.8,10.4c1.9,1.8,3.8,3.6,5.7,5.4
		l1.5,1.4l0.7,0.6l0,0.1l0.1,0.3c0,0.2-0.1,0.3-0.3,0.4l-0.1,0c0.4,0.1,0.5,0.2,0.5,0.3c-0.1,0.1-0.3,0.2-0.4,0.2l-0.1,0l-1,0.3
		l-1.9,0.7c-1.3,0.4-2.6,0.9-3.9,1.3c-5.2,1.6-10.2,3.2-15,4.7c-12.3,4-24.3,4.8-34.7,6.3c-13.2,1.9-24.7,2.9-34.2,0.9
		c-6.2-1.2-11.2-1.5-15.2-1c-3.8,0.3-6.5,1.4-7,2.5c-0.5,1.1,0.3,3.6,3.3,6.7c3,2.9,8.5,6.5,16.8,8c5.5,1,10.6,1.8,16.2,2.2
		c5.6,0.5,11.7,0.8,19.3,0.7c6-0.1,12.9-0.6,20-1.6c7.1-0.9,14.4-2.3,21.3-4c5.4-1.3,10.9-3.2,16.4-5.3c1.4-0.5,2.7-1.1,4.1-1.6
		c1.7-0.7,3.4-1.4,5-2.1c5.2-2.2,10.5-4.4,15.5-6.8c4.1-2,8.1-4.1,12.2-6.2c0.4-0.2,1-0.5,2.6-1.4c-4.7-3.7-16-12.6-27-21.3
		c-5.7-4.3-11.4-8.6-13.3-10.2c-2.9-2.3-4.9-3.7-8-6.3c-5-4.3-8.6-8.9-15.6-14.5c-9-7.1-22.6-19.4-28.1-25.4
		c-3.7-3.9-7.9-6.8-11.4-8.8c-3.5-1.9-6.2-3.1-7.2-2.7c-1,0.4-1.3,3.2,0.1,7.2C670.8,526.3,673.7,531.3,678.5,536.3z"></path>
</g>
</svg>
