<!--?xml version="1.0" encoding="utf-8"?-->
<!-- Generator: Adobe Illustrator 22.1.0, SVG Export Plug-In . SVG Version: 6.00 Build 0)  -->
<svg version="1.1" id="_x34_" xmlns="http://www.w3.org/2000/svg" xmlns:xlink="http://www.w3.org/1999/xlink" x="0px" y="0px" viewBox="0 0 800 451.4" style="enable-background:new 0 0 800 451.4;" xml:space="preserve">
<style type="text/css">
	.stblack{fill:#000000;}
	.st0{fill:#FFFFFF;}
</style>
<g>
	<path class="st0" d="M141.1,433.5c4.9-1.9,12.1-10.7,16.6-14.1c4.3-3.2,9.3-6.3,12.8-10.4c3.6-4.2,6.5-9.2,8.8-14.1
		c2.4-5.1,4.2-10.7,4.6-16c0.3-5.4-1.1-11.1-3.5-16.3c-2.1-4.5-5.5-9.2-10.1-13.1c-4-3.4-9.5-5.9-15-8.7c-4.8-2.5-10.5-3.9-16.1-6.2
		c-5.1-2.1-10.2-4.9-15.7-7.1c-5.2-2.1-10.6-4.3-16-6.5c-5.3-2.2-10.9-3.8-16.1-6.4c-5.2-2.5-9.8-6.1-14.8-9.1
		c-4.9-3-9.6-6.3-14.2-9.9c-4.5-3.5-8.3-7.8-12.3-12.1c-3.9-4.1-8.1-8-11.3-13c-3-4.7-5-10.1-7.3-15.6c-2.1-5.1-3.7-10.4-5.1-16.3
		c-1.3-5.3-3.3-10.8-3.9-16.8c-0.5-5.4-1.2-11.2-1.1-17.3c0.1-5.8,1-11.5,1.7-17.2c0.7-5.8,1.7-11.4,3-17c1.3-5.6,3.5-10.9,5.4-16.3
		c1.9-5.4,2.3-11.5,4.8-16.7c2.5-5.2,5.5-10.2,8.6-15.1c3-4.8,6.8-9.2,10.4-13.8c3.5-4.4,7-9.1,11.1-13.3c4-4,8.9-7.1,13.4-10.9
		c4.3-3.6,8.2-8.1,13-11.5c4.6-3.2,10-5.5,15.1-8.4c4.8-2.8,10.2-4.9,15.5-7.5c5-2.5,10-5.3,15.4-7.6c5.2-2.2,10.1-5.3,15.7-7.3
		c5.3-1.9,11.2-2.4,16.8-4.2c5.4-1.6,11-2.8,16.7-4.3c5.5-1.4,10.6-4.6,16.3-5.8c5.5-1.2,11.3-1.4,17.1-2.5c5.5-1,11.3-1.1,17.1-1.9
		c5.6-0.8,11.1-3.3,16.9-4c5.6-0.7,11.4-0.9,17.2-1.4c5.6-0.5,11.4-0.7,17.2-1c5.6-0.4,11.4,0.2,17.3-0.1c5.7-0.2,11.4-0.9,17.2-1
		c5.7-0.1,11.4-0.5,17.2-0.5c5.7,0,11.4-0.3,17.3-0.2c5.7,0.1,11.4,0.9,17,1.1c5.7,0.1,11.4-0.1,17,0c5.7,0.1,11.4,1.4,17,1.5
		c5.7,0.2,11.4-0.6,17.1-0.4c5.7,0.2,11.3,1.3,17,1.5c5.7,0.3,11.4-0.1,17,0.2c5.7,0.3,11.4-0.3,17.1,0.1c5.7,0.4,11.4,0.7,17,1.1
		c5.7,0.4,11.4,0.8,17,1.3c5.7,0.5,11.4,1.2,17,1.8c5.7,0.6,11.4,1.2,16.9,1.9c5.7,0.7,11.3,1.9,16.8,2.7c5.7,0.8,11.3,1.8,16.8,2.7
		c5.7,1,11.2,2.3,16.7,3.4c5.6,1.1,11,3.3,16.4,4.6c5.6,1.3,11.2,2.4,16.6,3.8c5.6,1.5,10.9,3.3,16.3,5c5.5,1.8,11,3.3,16.2,5.2
		c5.4,2,11,3.4,16.1,5.6c5.3,2.4,10.4,4.9,15.3,7.5c5.1,2.7,9.1,7,13.8,10c4.8,3.1,10.3,5.2,14.7,8.7c4.5,3.6,8.7,7.4,12.7,11.4
		c4.1,4,7.6,8.5,11.1,12.9c3.6,4.4,7.7,8.5,10.7,13.3c3,4.8,5.2,10.1,7.6,15.3c2.3,5.1,3.9,10.5,5.7,16.1c1.7,5.3,2.5,10.9,3.6,16.6
		c1.1,5.4,2,10.9,2.6,16.8c0.6,5.5,2.5,11.1,2.6,16.9c0.1,5.8-1.5,11.4-2,16.9c-0.5,5.8-0.5,11.5-1.6,16.9
		c-1.2,5.7-2.6,11.2-4.5,16.4c-1.9,5.4-5.3,10-7.9,15c-2.6,5.1-4.7,10.3-7.9,14.9c-3.2,4.6-7,8.8-10.8,13
		c-3.8,4.2-8.1,7.7-12.4,11.4c-4.2,3.7-7.8,8.2-12.4,11.5c-4.5,3.2-9.8,5.5-14.7,8.4c-4.8,2.8-9.7,5.6-14.8,8.1
		c-5,2.5-10.1,4.9-15.4,7.1c-5.2,2.1-10.1,4.9-15.5,6.8c-5.3,1.8-11,2.7-16.4,4.3c-5.4,1.6-10.6,3.9-16.1,5.3
		c-5.5,1.4-11.2,1.8-16.7,2.9c-5.5,1.1-11,2.7-16.5,3.7c-5.6,1-11.1,2.1-16.7,2.9c-5.6,0.8-11.2,1.6-16.8,2.2
		c-5.6,0.6-11.4-0.2-17,0.3c-5.7,0.5-11.2,2.5-16.8,2.9c-5.7,0.4-11.4,0-17,0.3c-5.7,0.2-11.4,1.1-16.9,1.2
		c-5.7,0.1-11.4-1.5-17-1.5c-5.8,0-11.4,1.1-16.9,1c-5.8-0.1-11.5,0-17-0.2c-5.9-0.3-11.4-2.2-16.8-2.6c-6.3-0.4-12.3-0.4-18-0.7
		c-6.3-0.4-12.4-0.6-18-0.9c-6.4-0.3-12.4,0.1-18.1,0c-6.5-0.2-12.5,0.3-18,0.3c-6.6,0-12.6-0.3-18-0.1c-6.8,0.3-12.6,1.2-17.9,1.9
		c-6.9,0.9-12.5,2.1-17.5,3.7c-6.3,2.1-11.2,4.6-15.9,7.9c-4.7,3.3-9.9,6.1-14.6,10.6c-3.9,3.8-8.5,7.4-14,10.7
		c-4.8,2.9-10.2,5.5-15.8,8c-5.3,2.3-10.6,5-16.4,7c-5.6,1.9-11.5,3-17.2,4.5c-5.8,1.6-11.6,3.1-17.3,4.2c-6.1,1.2-12,1.9-17.6,2.6
		c-6.5,0.8-12.4,1.8-17.6,1.8C131.9,435,128,438.6,141.1,433.5z"></path>
	<path class="stblack" d="M142.7,437.5c5.6-2.7,9.6-7.9,14.2-12c5-4.5,11-7.6,15.5-12.8c9-10.3,15.5-25.4,12.8-39.2c-2.5-12.6-9.9-24.5-21-31.3
		c-6.8-4.1-14-7.1-21.5-9.8c-8.2-2.9-15.9-7-23.9-10.3c-7.3-2.9-14.5-5.9-21.9-8.7c-8.3-3.1-15.3-7.9-22.7-12.6
		c-7.2-4.5-14-9.5-19.9-15.6c-7.4-7.6-15.1-15-19.3-24.9c-7.3-17.1-12.6-36.3-11.6-55.1c0.4-7.3,1.4-14.8,2.7-22
		c1.7-9.7,5.2-18.4,7.9-27.8c2.1-7.5,3.6-14,7.5-20.9c4.5-8,9.9-15.1,15.6-22.3c5.1-6.4,9.9-12.7,16.4-17.8
		c7.1-5.6,13.5-12.4,20.9-17.6c13.1-9.2,29.2-15.9,43.7-22.6c7-3.2,13.9-7.3,21.5-9.4c8.3-2.2,16.8-4.1,25.1-6.2
		c7.6-1.9,14.7-5.7,22.4-7.2c8.4-1.7,17.1-2.6,25.6-3.4c8-0.8,15.2-3.3,23.1-4.6c8.4-1.4,17.2-1.7,25.7-2.1
		c16.4-0.9,32.8-1.2,49.3-1.7c16.5-0.6,32.7,0.4,49.1,0.6c8.9,0.1,17.5,0.3,26.4,1.2c7.4,0.7,14.8-0.3,22.2,0
		c8.2,0.3,16.1,1.6,24.3,1.6c8.1,0,16.3-0.1,24.3,0.1c33.1,0.8,66.3,5.4,98.9,10.9c32,5.4,63.1,15.2,93.9,25.3
		c7.7,2.5,15.1,5.8,22.3,9.7c6.9,3.7,12.4,9.2,19.1,13c7.5,4.2,14,8.6,20.3,14.5c6.7,6.3,12.1,13.5,18.1,20.4
		c12.4,14.2,17.9,32.5,21.4,50.7c1.5,7.5,2.2,15.2,3.6,22.7c1,5.4,2,10.1,1.4,15.5c-0.5,4.4-1.5,8.8-1.8,13.2
		c-0.7,8.5-1.4,16.4-3.7,24.7c-2.5,8.8-7.1,16-11.1,24c-3.3,6.6-6.5,12.7-11.3,18.5c-6.2,7.5-13.3,13.4-20.3,20
		c-5.5,5.2-10.2,9.9-16.8,13.6c-7.8,4.3-15.4,8.8-23.4,12.8c-14.6,7.3-29.2,13.3-45,17.5c-7,1.9-13.7,4.9-20.8,6.4
		c-8.7,1.8-17.4,3.3-26.1,5.2c-16.6,3.6-33.5,6.1-50.4,6.1c-7.9,0-15.2,2.7-23,3.1c-9.2,0.5-18.4,0.5-27.7,1.2
		c-7.8,0.6-15.3-1.4-23-1.2c-8.5,0.1-17,0.9-25.5,0.9c-8.2,0-15.7-2-23.8-2.7c-8.7-0.7-17.5-0.7-26.2-1.2c-17.2-0.8-34.4,0-51.7-0.2
		c-15.3-0.2-31.2,0.6-46,5c-14.5,4.3-25.7,13.9-37.1,23.3c-12.2,10-28.8,17.7-43.9,22.3c-16.2,5-32.9,8.4-49.6,10.6
		c-11.9,1.5-23.9,1.7-35.8,3.4c1.1,2.6,2.1,5.3,3.2,7.9C136.4,438.9,141.1,438.1,142.7,437.5c1.5-0.6-1.6-8.5-3.2-7.9
		c-1.8,0.7-6.3,1.3-7.6,2.7c-1.2,1.3,1.3,8.2,3.2,7.9c12.7-1.9,25.5-2.1,38.2-3.7c17.3-2.2,35.7-5.8,52.1-12
		c14.9-5.6,30.3-12.7,42.2-23.4c11.4-10.3,24.8-18.9,40-22.1c16.4-3.5,32.4-3,49-3.4c17.7-0.4,35.3,0,53,0.8
		c17.4,0.8,34.3,3.9,51.7,3.4c4-0.1,8.1-0.8,12.1-0.9c4.8-0.1,9.4,0.7,14.2,1.2c7.4,0.7,14.7-0.6,22.2-1c9.1-0.4,17.6-0.1,26.5-1.9
		c9-1.8,17.9-0.8,27-1.8c17.6-2,34.6-6.4,52-9.3c7.8-1.3,14.9-2.9,22.3-5.5c8-2.8,16.5-4,24.4-7c15.8-6.2,30.8-14.2,45.5-22.3
		c28.3-15.6,50.4-41.4,63.4-71c6.5-14.8,7.2-32.1,8.8-48c0.8-7.8-1.3-14.9-2.4-22.6c-1.1-8-2.4-15.8-3.9-23.7
		c-5.9-30.9-22.4-57.3-45.5-78.4c-5.8-5.3-11.5-9.1-18.3-12.9c-6.5-3.6-11.7-8.8-18.1-12.5c-14.8-8.5-31.4-13.2-47.6-18.4
		c-63.1-20-129.7-28.9-195.8-28.7c-8.2,0-16.2-1.5-24.3-1.6c-9.3-0.2-18.3,0.2-27.6-0.8c-7.4-0.7-14.8-0.2-22.3-0.4
		c-9-0.2-17.9-1.2-26.9-1c-16.8,0.3-33.7,1.8-50.5,1.6c-7.8-0.1-15.6,0.4-23.4,0.9c-9,0.7-18.2,0.9-26.9,3.2
		c-16.6,4.4-34.8,2.9-50.9,9.2c-7.8,3-15.5,4.9-23.6,7.1c-7.9,2.2-16.2,3.3-23.7,6.8c-15.7,7.1-31.2,14.8-46.4,22.9
		C94.2,67,88,71.3,81.7,77.2C75,83.3,67.3,88.1,61.3,95c-10.1,11.6-20.7,24.5-27,38.7c-3.3,7.5-4.6,15.9-7.3,23.6
		c-2.8,7.9-4.5,16.1-5.6,24.4c-4.1,30.1,0.6,62.5,16,89.2c3.6,6.2,8.6,11.1,13.5,16.3c5.8,6.2,11.7,11.9,18.6,16.8
		c6.6,4.7,13.7,9.5,20.8,13.4c7.6,4.1,16.1,6.6,24.1,9.9c7.3,3,14.4,6,21.6,9.3c8.3,3.8,17.1,6.3,25.2,10.6
		c11.2,5.8,21.4,14.8,20.8,28.6c-0.4,9-5.2,18.5-10.3,25.8c-4.9,6.9-11.8,10.6-18,16.1c-4.6,4.1-8.5,9.3-14.2,12
		C137.9,430.3,141.3,438.2,142.7,437.5z"></path>
</g>
</svg>
