<!--?xml version="1.0" encoding="utf-8"?-->
<!-- Generator: Adobe Illustrator 25.2.3, SVG Export Plug-In . SVG Version: 6.00 Build 0)  -->
<svg version="1.1" id="_x33_" xmlns="http://www.w3.org/2000/svg" xmlns:xlink="http://www.w3.org/1999/xlink" x="0px" y="0px" viewBox="0 0 800 485.77" style="enable-background:new 0 0 800 485.77;" xml:space="preserve">
<style type="text/css">
	.stblack{fill:#000000;}
	.st0{fill:#FFFFFF;}
</style>
<g>
	<polygon class="st0" points="211.612,444.475 211.612,444.475 211.596,444.49 	"></polygon>
	<path class="st0" d="M653.528,46.138c-375.809-109.653-815.645,161.56-541.46,290.88c44.339,20.912,97.521,26.373,99.544,26.373
		l28.474,2.212c-15.058,41.813-28.471,78.867-28.474,78.873c23.1-21.758,55.593-52.713,77.52-75.063l33.091,2.57
		c141.078-6.489,293.312-19.918,378.024-84.058C795.173,216.051,806.854,90.875,653.528,46.138z"></path>
	<path class="stblack" d="M209.035,432.954c-0.114,1.48-0.46,3.03-0.803,4.29c-0.195,0.199-0.401,0.409-0.59,0.604
		c-4.095,4.149-12.339,11.892-15.801,16.493c-1.681,2.177-3.753,4.384-5.401,6.05c-1.648,1.666-2.867,2.797-2.867,2.797
		l-3.299,3.569l6.367,6.868l7.819-6.348c0,0,5.222-3.953,10.499-8.184c5.272-4.236,10.607-8.746,10.851-9.825
		c0.257-0.619,8.241-8.092,16.368-15.507c8.122-7.418,16.386-14.782,17.298-15.061c4.338-0.827,17.485-14.927,17.433-17.024
		c0.025-3.005,14.434-14.71,15.037-15.527c0.707-0.7,14.646-17.805,16.879-18.65c0.667-0.222,0.882-1.524,1.828-2.48
		c1.615-1.601,3.581-3.938,5.32-6.049c1.742-2.1,3.247-4.01,3.881-4.928c1.054-1.458,1.399-3.636,1.526-5.03
		c0.083-1-2.742-3.391-4.244-3.669c-2.673-0.498-4.171,1.24-5.446,2.56c-0.889,0.941-2.877,2.738-4.847,4.638
		c-1.969,1.905-4.103,3.872-5.505,5.156c-2.787,2.572-6.669,6.152-9.994,9.22c-3.036,2.885-10.565,7.392-14.06,12.987
		c-3.405,5.508-8.448,7.882-12.658,11.833c-4.225,3.942-9.125,10.318-12.182,11.588c-2.274,0.94-9.286,10.229-14.753,14.893
		c2.715-7.134,6.736-16.838,7.484-17.248c2.98-1.234,5.87-12.169,4.712-13.476c-1.597-1.894,3.712-11.488,3.795-12.074
		c0.155-0.56,2.474-13.378,3.958-14.167c0.43-0.23-0.057-1.08,0.227-1.81c0.959-2.48,1.935-6.779,2.206-7.99
		c0.214-0.999-0.496-2.402-1.023-3.31c-0.387-0.647-3.841-1.986-5.234-2.03c-2.483-0.079-2.982,1.256-3.479,2.273
		c-0.748,1.453-2.818,5.638-3.785,7.673c-0.976,2.032-2.316,4.869-3.42,7.315c-0.99,2.273-4.681,6.287-4.539,10.365
		c0.188,4.01-2.579,6.304-3.841,9.466c-1.248,3.167-1.749,7.963-3.484,9.265c-1.494,1.102-2.001,10.078-4.516,13.216
		c-1.784,2.23-1.121,3.559-1.168,3.688c-0.89,2.847-2.209,7.251-3.13,10.559C211.477,423.221,209.229,429.478,209.035,432.954z"></path>
	<path class="stblack" d="M772.758,200.542c0.518-1.035,1.03-2.13,1.536-3.279c0.506-1.148,1.005-2.349,1.496-3.597
		c0.428-1.264,0.803-2.589,1.189-3.944c0.751-2.72,1.561-5.573,1.927-8.603c0.42-3.015,0.965-6.104,0.97-9.282
		c0.076-3.168,0.272-6.361-0.084-9.539c-0.276-3.171-0.437-6.321-1.126-9.348c-1.004-6.089-2.822-11.708-4.678-16.48
		c-3.775-16.41-11.558-29.963-21.213-41.19c-9.727-11.262-21.321-20.416-34.844-28.926c-2.048-1.858-4.261-3.566-6.551-5.235
		c-1.148-0.83-2.32-1.64-3.512-2.435c-1.221-0.728-2.473-1.417-3.734-2.104c-2.526-1.367-5.117-2.674-7.743-3.942
		c-2.68-1.129-5.405-2.191-8.14-3.252c-1.368-0.523-2.739-1.05-4.11-1.576c-1.377-0.512-2.787-0.913-4.179-1.378
		c-2.791-0.901-5.577-1.81-8.341-2.758c-1.374-0.503-2.773-0.901-4.164-1.322c-1.389-0.425-2.773-0.864-4.147-1.317
		c-2.747-0.898-5.466-1.906-8.134-2.931c-21.118-7.418-43.409-12.998-65.889-16.744c-22.484-3.745-45.152-5.679-67.121-5.981
		c-28.704-4.244-57.716-3.744-86.384-1.736c-14.352,0.988-28.649,2.34-42.954,3.672c-14.311,1.316-28.633,2.585-43.115,3.458
		c-35.82,7.766-70.664,16.184-104.89,27.163c-34.165,10.992-67.811,24.551-99.588,43.339c-15.764,6.896-30.857,15.356-45.038,25.247
		c-14.164,9.905-27.466,21.203-39.356,34.016c-11.84,12.823-22.423,27.125-30.064,43.265c-3.815,8.052-6.853,16.572-8.726,25.445
		c-0.917,4.439-1.578,8.953-1.881,13.519c-0.276,4.566-0.223,9.167,0.174,13.756c-0.255,7.174,0.691,13.872,2.462,19.949
		c1.777,6.086,4.364,11.563,7.515,16.544c3.159,4.984,6.882,9.485,11.125,13.683c4.25,4.194,9.01,8.108,14.42,11.817
		c12.34,13.233,29.086,24.215,46.406,32.864c2.182,1.055,4.363,2.111,6.539,3.163c2.233,0.989,4.461,1.975,6.68,2.958
		c2.207,1.023,4.472,1.82,6.691,2.725c2.226,0.886,4.438,1.766,6.666,2.525c8.847,3.28,17.577,5.895,25.811,8.368
		c3.405,1.844,10.838,3.444,19.268,4.096c8.426,0.696,17.815,0.506,25.138-0.516c3.66-0.496,6.812-1.208,9.07-2.039
		c1.13-0.415,2.028-0.881,2.663-1.347c0.279-0.246,0.466-0.497,0.599-0.747c0.065-0.124,0.114-0.249,0.148-0.374l0.023-0.093
		l0.01-0.047l0.002-0.011l0.001,0.14l0.004,0.303c0.001,0.087,0.002,0.164,0.004,0.251c-0.001-0.063-0.001-0.118-0.002-0.185
		c-0.005-0.389-0.009-0.788-0.012-1.203l-0.02-0.095l-0.052-0.188c-0.08-0.251-0.199-0.5-0.347-0.742
		c-0.169-0.242-0.593-0.514-1.004-0.773c-0.435-0.261-0.947-0.52-1.583-0.802c-2.499-1.085-6.561-2.295-12.473-3.717
		c-17.327-2.359-34.586-6.203-51.199-11.662c-4.175-1.317-8.257-2.852-12.348-4.367c-2.037-0.774-4.029-1.641-6.044-2.458
		l-3.012-1.246l-2.949-1.36c-1.964-0.923-3.935-1.778-5.892-2.756c-1.952-0.99-3.923-1.951-5.861-2.965
		c-1.923-1.035-3.867-2.041-5.776-3.097c-1.893-1.081-3.811-2.124-5.684-3.231c-7.511-4.4-14.749-9.177-21.57-14.38
		c-6.839-5.183-13.187-10.866-18.888-17.011c-5.675-6.161-10.631-12.84-14.515-20.022c-3.831-7.195-6.661-14.876-7.996-22.941
		c-0.937-4.38-1.451-9.471-1.204-14.838c0.22-5.363,1.264-10.974,2.997-16.287c3.454-10.663,9.684-19.954,16.027-24.848
		c3.974-6.996,9.137-13.9,14.977-20.567c5.905-6.624,12.476-13.036,19.51-19.038c14.021-12.074,29.575-22.689,44.189-32.261
		c18.341-13.067,37.562-23.199,57.39-31.918c19.855-8.722,40.365-16.061,62.134-23.191c28.88-8.517,57.002-15.61,85.499-21.253
		c28.486-5.65,57.369-9.797,87.623-11.812c25.283-1.256,51.325-0.236,77.134,1.452c25.84,1.68,51.431,4.066,76.605,5.255
		c12.368,3.492,17.019,5.06,21.745,5.763c4.71,0.788,9.457,0.703,21.803,1.966c6.507,2.059,13.588,4.297,20.845,6.435
		c3.623,1.067,7.281,2.143,10.921,3.213c3.578,1.113,7.156,2.158,10.689,3.114c0.674,0.148,1.35,0.292,2.014,0.466l1.966,0.607
		c1.307,0.418,2.607,0.862,3.899,1.33c2.573,0.959,5.169,1.9,7.649,3.084c2.466,1.213,4.909,2.474,7.338,3.747
		c1.204,0.654,2.446,1.239,3.612,1.95l3.5,2.12c2.316,1.426,4.697,2.731,6.983,4.153c2.255,1.468,4.531,2.879,6.854,4.2
		c2.376,1.251,4.541,2.757,6.905,3.996c2.333,1.28,4.806,2.377,7.167,3.624c0.962,1.167,1.922,2.274,2.883,3.333
		c0.485,0.521,0.966,1.036,1.443,1.548l0.72,0.749l0.666,0.788c1.777,2.081,3.57,3.985,5.395,5.772
		c1.757,1.844,3.38,3.711,5.131,5.433c1.803,1.685,3.311,3.554,4.95,5.331l2.459,2.679c0.814,0.901,1.495,1.893,2.258,2.842
		c0.744,0.966,1.492,1.938,2.243,2.915l1.128,1.485c0.324,0.525,0.651,1.054,0.979,1.586c0.641,1.075,1.289,2.162,1.943,3.259
		c0.318,0.557,0.639,1.114,0.962,1.676l0.472,0.854l0.391,0.898c0.519,1.204,1.028,2.43,1.524,3.687
		c0.242,0.629,0.487,1.264,0.733,1.905c0.246,0.639,0.488,1.285,0.636,1.974c3.356,10.444,4.726,21.727,4.109,33.022
		c-0.598,11.306-3.133,22.606-7.046,33.42c-3.908,10.83-9.169,21.183-15.151,30.96c-2.952,4.917-6.206,9.618-9.447,14.273
		c-1.697,2.274-3.365,4.557-5.004,6.85c-1.761,2.196-3.492,4.403-5.193,6.621c-1.396,1.569-3.002,2.953-4.501,4.442
		c-1.536,1.453-3.022,2.966-4.607,4.385c-1.605,1.398-3.213,2.801-4.825,4.206l-2.417,2.113l-2.526,1.999
		c-1.686,1.336-3.375,2.672-5.069,4.012c-1.69,1.341-3.49,2.536-5.234,3.818c-3.46,2.595-7.179,4.88-10.818,7.288
		c-14.813,9.296-30.905,17.088-47.52,23.724c-33.378,13.05-68.776,21.447-103.169,26.572c-12.478,3.182-24.843,5.747-37.137,7.938
		c-12.305,2.139-24.546,3.868-36.821,5.302c-24.562,2.816-49.24,4.488-75.017,5.744c-14.21,0.171-31.06,0.769-42.922,2.334
		c-12.126,1.074-16.171,3.933-15.512,7.475c0.655,3.505,5.932,6.695,16.301,7.478c19.478-2.182,45.963,1.41,67.256-2.207
		c12.554-1.95,22.696-3.876,32.792-5.334c10.099-1.447,20.15-2.442,32.577-2.651c13.085-1.689,28.259-2.755,41.847-3.64
		c5.659-2.325,13.917-4.624,21.797-6.193c3.935-0.821,7.781-1.438,11.172-1.758c3.385-0.365,6.313-0.441,8.416-0.102
		c12.424-3.305,27.955-7.94,43.581-12.967c15.646-4.992,31.349-10.42,44.641-14.447c2.677-1.434,4.986-2.669,7.016-3.757
		c2.012-1.131,3.755-2.086,5.329-2.913c1.571-0.831,2.981-1.51,4.3-2.151c1.308-0.661,2.544-1.238,3.799-1.778
		c1.256-0.542,2.531-1.048,3.919-1.571c1.397-0.504,2.883-1.078,4.561-1.756c3.364-1.342,7.59-2.881,13.216-5.541
		c17.661-12.182,37.147-27.165,53.545-45.374c8.103-9.164,15.36-19.123,21.044-29.521c5.66-10.391,9.867-21.167,11.774-31.595
		C771.728,202.556,772.247,201.579,772.758,200.542z"></path>
	<path class="stblack" d="M211.609,362.058c-0.006-0.426-0.011-0.869-0.017-1.323C211.607,362.135,211.618,362.572,211.609,362.058z"></path>
</g>
</svg>
