<!--?xml version="1.0" encoding="utf-8"?-->
<!-- Generator: Adobe Illustrator 22.1.0, SVG Export Plug-In . SVG Version: 6.00 Build 0)  -->
<svg version="1.1" id="_x32_" xmlns="http://www.w3.org/2000/svg" xmlns:xlink="http://www.w3.org/1999/xlink" x="0px" y="0px" viewBox="0 0 800 212.5" style="enable-background:new 0 0 800 212.5;" xml:space="preserve">
<style type="text/css">
	.stblack{fill:#000000;}
	.st0{fill:#FFFFFF;}
	.st1{fill:#231815;}
</style>
<g>
	<g>
		<path class="st0" d="M781.9,195.7c-10.7-4.3-52.4-14.7-58.8-10.7c-6.4,4-18.5,4.8-28.1,2.4c-9.6-2.4-33.7,14.5-61.8,12.9
			c-28.1-1.6-75.5,1.6-92.4-0.8c-16.9-2.4-45,3.2-57,6.4c-12,3.2-47.4,3.2-50.6,2.4c-3.2-0.8-33.7,0.8-45,0c-11.2-0.8-43.4-3.2-65,0
			c-21.7,3.2-38.5-2.4-55.4-6.4c-16.9-4-94-1.6-130.1-0.8c-36.1,0.8-69.9-8-97.2-30.5c-27.3-22.5-20.9-72.3-4-105.2
			s81.1-53.4,117.3-53.4c36.1,0,67.5-0.8,90.7-2.7c28.9-2.4,53.8-1.7,63.4,0.7c9.6,2.4,46.6,2.4,70.7,1.6c24.1-0.8,45.6,0,77.9,0.7
			c35.3,0.8,50.6-3.1,82.7-4.7c32.1-1.6,61,12,101.2,12s52.2,10.4,79.5,47.4c32.9,22.5,16.1,55.4,17.7,80.3
			c1.6,24.9,28.1,36.1,32.1,45L781.9,195.7z"></path>
		<g>
			<path class="stblack" d="M782.7,193.5c-10.3-4-21.3-6.5-32.1-8.7c-5.5-1.1-11.1-2.2-16.7-2.7c-3.4-0.3-7.3-0.8-10.5,0.6
				c-7.9,3.3-15.4,4.6-24.1,3.2c-5.3-0.9-8.9-1-14.1,0.6c-15.3,4.6-29.7,11.2-46,11.6c-7.7,0.2-15.4-0.5-23-0.5
				c-7.9,0-15.9,0.1-23.8,0.2c-14.4,0.2-28.9,0.8-43.4,0.1c-5.8-0.3-11.6-1.3-17.5-1.2c-7.8,0-15.7,0.9-23.4,2.1
				c-12,1.8-23.6,5.6-35.7,6.7c-20,1.8-40,0.3-60.1,0.7c-27.4,0.6-54.8-3.4-82.2-0.8c-9.1,0.8-17.8,2.2-26.9,1.4
				c-9.2-0.7-18.1-2.9-27-5.1c-9.4-2.4-18.3-3.4-28-3.8c-27.9-1.1-55.8-0.2-83.7,0.4c-13.8,0.3-27.7,1.2-41.5,0.4
				c-17.9-1-35.6-4.7-52-11.9c-14.6-6.4-31.3-15.8-39.5-30c-7.4-12.7-8.9-28.2-7.6-42.6c1.4-15.6,5.8-31.2,12.6-45.3
				c5.8-12,15.8-20.8,27-27.8c23.7-14.9,52.6-23.9,80.4-26.2c17.6-1.5,35.6-0.5,53.3-0.9c16.6-0.4,33.2-1.2,49.7-2.5
				c17.3-1.3,35-2.2,52.3-0.4c4.5,0.5,8.8,1.6,13.3,2.1c6.3,0.7,12.7,0.9,19,1.1c32.4,0.8,64.7-0.9,97-0.2c19,0.4,38,1.3,56.9,0.2
				c15.7-0.9,31.2-2.9,46.9-3.9c17.3-1.1,33.8,1.1,50.8,4.4c17.6,3.5,35.3,6.8,53.3,7.2c13.4,0.3,26.9,0.3,39.5,5.6
				c11,4.6,19.7,13,27.4,21.9c5.2,6.1,9.5,13.2,14.9,19c2.8,3,6.6,5.2,9.5,8.3c2.8,3,5.1,6.3,6.9,10c6.1,12.6,4.2,26.9,2.6,40.3
				c-1.5,12.5-3,25.3,3.2,36.8c5.5,10.2,14.8,16.9,23.1,24.6c2.2,2,3.8,5.4,6.5,6.4c3.5,1.4,7.4,2.1,11.1,3.2
				C783.1,198.5,784.6,194,782.7,193.5c-3.5-1-8.5-1.4-11.6-3.3c-0.6-0.4-1-1.2-1.9-2.3c-1.5-1.8-3.2-3.4-5-4.9
				c-9.5-8.3-20-16.5-23.8-29.1c-3.9-12.9,0.3-27.3,1.2-40.3c1-13-0.4-26.2-8.4-36.9c-2.2-2.9-4.7-5.6-7.5-7.9
				c-1.7-1.5-3.9-2.7-5.4-4.4c-1.7-1.8-3-4.1-4.5-6.1c-4.5-6-9.2-11.9-14.3-17.3c-7.7-8.3-16.5-15.4-27.3-19.2
				c-13.2-4.6-27-4-40.8-4.6c-19-0.7-37.6-4.9-56.2-8.4c-17-3.2-33.3-4-50.5-2.7c-15.7,1.2-31.4,3.2-47.1,3.8
				c-19.4,0.8-38.9-0.3-58.3-0.7c-16.3-0.3-32.6-0.1-48.9,0.3c-15.9,0.4-31.9,0.5-47.8-0.2c-10.9-0.5-21.4-2.9-32.2-3.5
				c-18.4-1-36.8,0.5-55.2,1.7c-17.6,1.2-35.2,1.7-52.8,2c-16.4,0.2-32.9-0.7-49.2,1.7c-13.9,2-27.7,5.6-41,10.5
				c-24.7,9-50.1,22.9-61.5,47.8c-11.5,25.2-18.3,57.8-7.2,84.3c5.8,14,17.6,23,30.4,30.5c15.2,9,32.2,14.6,49.7,17.2
				c15.1,2.3,30.2,2,45.5,1.6c14.5-0.3,29-0.7,43.5-0.9c14.3-0.2,28.6-0.3,43-0.1c9.5,0.2,19.5,0,28.9,2c17.1,3.6,33.2,8.7,50.9,7.2
				c8.6-0.7,17-2,25.6-2.2c8.4-0.2,16.7,0,25.1,0.3c11.8,0.5,23.4,1.5,35.2,1.4c9.9-0.1,20.1-1.1,30-0.1c10.4,1.1,21.3,0.4,31.7-0.2
				c12.2-0.7,23.6-3.9,35.6-6.1c14.7-2.7,28.7-3.5,43.5-2.2c13.8,1.2,27.9,0.5,41.7,0.2c15.6-0.3,31.3-0.5,46.9,0.2
				c16.9,0.7,32.3-4.9,48-10.3c5.8-2,10.3-3.1,16.3-2c7.3,1.3,15.4,1.3,22.4-1.3c2-0.7,3.6-2,5.7-2.4c2-0.4,4.2-0.2,6.2,0
				c6.3,0.4,12.6,1.7,18.7,3c10.4,2.2,21.1,4.6,31,8.5C783,198.7,784.6,194.2,782.7,193.5z"></path>
		</g>
	</g>
	<g>
		<g>
			<path class="st1" d="M782.7,193.5c-10.3-4-21.3-6.5-32.1-8.7c-5.5-1.1-11.1-2.2-16.7-2.7c-3.4-0.3-7.3-0.8-10.5,0.6
				c-7.9,3.3-15.4,4.6-24.1,3.2c-5.3-0.9-8.9-1-14.1,0.6c-15.3,4.6-29.7,11.2-46,11.6c-7.7,0.2-15.4-0.5-23-0.5
				c-7.9,0-15.9,0.1-23.8,0.2c-14.4,0.2-28.9,0.8-43.4,0.1c-5.8-0.3-11.6-1.3-17.5-1.2c-7.8,0-15.7,0.9-23.4,2.1
				c-12,1.8-23.6,5.6-35.7,6.7c-20,1.8-40,0.3-60.1,0.7c-27.4,0.6-54.8-3.4-82.2-0.8c-9.1,0.8-17.8,2.2-26.9,1.4
				c-9.2-0.7-18.1-2.9-27-5.1c-9.4-2.4-18.3-3.4-28-3.8c-27.9-1.1-55.8-0.2-83.7,0.4c-13.8,0.3-27.7,1.2-41.5,0.4
				c-17.9-1-35.6-4.7-52-11.9c-14.6-6.4-31.3-15.8-39.5-30c-7.4-12.7-8.9-28.2-7.6-42.6c1.4-15.6,5.8-31.2,12.6-45.3
				c5.8-12,15.8-20.8,27-27.8c23.7-14.9,52.6-23.9,80.4-26.2c17.6-1.5,35.6-0.5,53.3-0.9c16.6-0.4,33.2-1.2,49.7-2.5
				c17.3-1.3,35-2.2,52.3-0.4c4.5,0.5,8.8,1.6,13.3,2.1c6.3,0.7,12.7,0.9,19,1.1c32.4,0.8,64.7-0.9,97-0.2c19,0.4,38,1.3,56.9,0.2
				c15.7-0.9,31.2-2.9,46.9-3.9c17.3-1.1,33.8,1.1,50.8,4.4c17.6,3.5,35.3,6.8,53.3,7.2c13.4,0.3,26.9,0.3,39.5,5.6
				c11,4.6,19.7,13,27.4,21.9c5.2,6.1,9.5,13.2,14.9,19c2.8,3,6.6,5.2,9.5,8.3c2.8,3,5.1,6.3,6.9,10c6.1,12.6,4.2,26.9,2.6,40.3
				c-1.5,12.5-3,25.3,3.2,36.8c5.5,10.2,14.8,16.9,23.1,24.6c2.2,2,3.8,5.4,6.5,6.4c3.5,1.4,7.4,2.1,11.1,3.2
				C783.1,198.5,784.6,194,782.7,193.5c-3.5-1-8.5-1.4-11.6-3.3c-0.6-0.4-1-1.2-1.9-2.3c-1.5-1.8-3.2-3.4-5-4.9
				c-9.5-8.3-20-16.5-23.8-29.1c-3.9-12.9,0.3-27.3,1.2-40.3c1-13-0.4-26.2-8.4-36.9c-2.2-2.9-4.7-5.6-7.5-7.9
				c-1.7-1.5-3.9-2.7-5.4-4.4c-1.7-1.8-3-4.1-4.5-6.1c-4.5-6-9.2-11.9-14.3-17.3c-7.7-8.3-16.5-15.4-27.3-19.2
				c-13.2-4.6-27-4-40.8-4.6c-19-0.7-37.6-4.9-56.2-8.4c-17-3.2-33.3-4-50.5-2.7c-15.7,1.2-31.4,3.2-47.1,3.8
				c-19.4,0.8-38.9-0.3-58.3-0.7c-16.3-0.3-32.6-0.1-48.9,0.3c-15.9,0.4-31.9,0.5-47.8-0.2c-10.9-0.5-21.4-2.9-32.2-3.5
				c-18.4-1-36.8,0.5-55.2,1.7c-17.6,1.2-35.2,1.7-52.8,2c-16.4,0.2-32.9-0.7-49.2,1.7c-13.9,2-27.7,5.6-41,10.5
				c-24.7,9-50.1,22.9-61.5,47.8c-11.5,25.2-18.3,57.8-7.2,84.3c5.8,14,17.6,23,30.4,30.5c15.2,9,32.2,14.6,49.7,17.2
				c15.1,2.3,30.2,2,45.5,1.6c14.5-0.3,29-0.7,43.5-0.9c14.3-0.2,28.6-0.3,43-0.1c9.5,0.2,19.5,0,28.9,2c17.1,3.6,33.2,8.7,50.9,7.2
				c8.6-0.7,17-2,25.6-2.2c8.4-0.2,16.7,0,25.1,0.3c11.8,0.5,23.4,1.5,35.2,1.4c9.9-0.1,20.1-1.1,30-0.1c10.4,1.1,21.3,0.4,31.7-0.2
				c12.2-0.7,23.6-3.9,35.6-6.1c14.7-2.7,28.7-3.5,43.5-2.2c13.8,1.2,27.9,0.5,41.7,0.2c15.6-0.3,31.3-0.5,46.9,0.2
				c16.9,0.7,32.3-4.9,48-10.3c5.8-2,10.3-3.1,16.3-2c7.3,1.3,15.4,1.3,22.4-1.3c2-0.7,3.6-2,5.7-2.4c2-0.4,4.2-0.2,6.2,0
				c6.3,0.4,12.6,1.7,18.7,3c10.4,2.2,21.1,4.6,31,8.5C783,198.7,784.6,194.2,782.7,193.5z"></path>
		</g>
	</g>
</g>
</svg>
