<!--?xml version="1.0" encoding="utf-8"?-->
<!-- Generator: Adobe Illustrator 22.1.0, SVG Export Plug-In . SVG Version: 6.00 Build 0)  -->
<svg version="1.1" id="_x34_" xmlns="http://www.w3.org/2000/svg" xmlns:xlink="http://www.w3.org/1999/xlink" x="0px" y="0px" viewBox="0 0 800 307.2" style="enable-background:new 0 0 800 307.2;" xml:space="preserve">
<style type="text/css">
	.stblack{fill:#000000;}
	.st0{fill:#FFFFFF;}
</style>
<g>
	<path id="fillArea" class="st0" d="M714.8,38.8c-14.7-4.8-29.8-5.6-45.2-5.7c-1.9,0-3.7,0-5.6,0L649.8,33c-145.6-1.6-290.9-1.6-436.3-4.1
		c-23.4,0-45.6-1.2-69,1.2c-35.7,4.9-73.9,19.7-91.1,54.2c-16,34.5-20.9,80,12.3,107.1c19.7,16,43.1,19.7,66.5,24.6
		c99.8,3.7,199.3,3.7,298.6,4.7c-1.2,5.6,0.3,7.8,3.7,12.3c7.7,10.2,22.6,9.9,33.7,6.6c11.9-3.6,25-8.8,25.3-22.7h3.3
		c9.5-2.5,20.5-1.5,30.2-1.7c19.1-0.2,38.2,0,57.3,0.1c21.6,0.2,43.2,0.4,64.9,0.6c16.2,0.1,32.4,0.4,48.4-2.3
		c34.9-5.9,63-26.4,76.3-59.7c12.1-30.3,6.1-63.3-15.8-87.7C746.4,53.5,731.3,44.1,714.8,38.8z"></path>
	<path id="fillArea" class="st0" d="M461.8,259.3c-0.7,1.5-1.4,3.1-1.3,4.8c0.3,3.5,3.9,5.7,7.3,6.5c7.9,2,16.8,0,23-5.3c1.7-1.4,3.2-3,3.9-5.1
		c1.4-3.9-0.5-8.7-4.3-10.4c-3-1.4-6.4-0.9-9.7-0.4c-4.8,0.8-9.6,1.5-14.4,2.3l2.6-0.1C465.4,252.2,463.3,256,461.8,259.3z"></path>
	<path id="fillArea" class="st0" d="M483.6,290.1c-0.5,1.3-1,2.6-0.9,4c0.3,2.8,3.4,4.5,6.2,5c6.5,1.3,13.6-0.6,18.5-5.1c1.3-1.2,2.5-2.6,3-4.2
		c1-3.2-0.7-7-3.8-8.3c-2.5-1-5.3-0.5-7.9,0c-3.9,0.8-7.7,1.6-11.6,2.4l2.1-0.2C486.3,284.2,484.8,287.4,483.6,290.1z"></path>
	<path class="stblack" d="M53.6,47.3c0.1-0.1,0.3-0.3,0.4-0.4C53.9,47,53.7,47.1,53.6,47.3z"></path>
	<path class="stblack" d="M35.7,74.6c0,0.1-0.1,0.2-0.1,0.2c0.1-0.2,0.2-0.5,0.3-0.8c0,0.1,0,0.1-0.1,0.1C35.8,74.3,35.7,74.5,35.7,74.6z"></path>
	<path class="stblack" d="M48.5,52.8c0,0,0.1-0.1,0.1-0.1C48.5,52.7,48.5,52.7,48.5,52.8C48.5,52.8,48.5,52.8,48.5,52.8z"></path>
	<path class="stblack" d="M51.6,49.3C51.5,49.3,51.5,49.4,51.6,49.3c0.3-0.3,0.7-0.7,1.1-1.1c0,0-0.1,0.1-0.1,0.1C52.2,48.6,51.9,49,51.6,49.3z"></path>
	<path class="stblack" d="M46.4,55.3C46.4,55.3,46.4,55.4,46.4,55.3c0.2-0.2,0.4-0.5,0.6-0.8c-0.1,0.2-0.3,0.4-0.4,0.5
		C46.6,55.2,46.5,55.3,46.4,55.3z"></path>
	<path class="stblack" d="M39.1,66.9c0.1-0.3,0.3-0.5,0.4-0.8c-0.1,0.2-0.2,0.5-0.4,0.7C39.1,66.8,39.1,66.9,39.1,66.9z"></path>
	<path class="stblack" d="M37.2,70.8c0-0.1,0-0.1,0.1-0.2C37.3,70.7,37.3,70.7,37.2,70.8C37.3,70.8,37.3,70.8,37.2,70.8z"></path>
	<path class="stblack" d="M59.9,41.6C59.9,41.6,59.9,41.6,59.9,41.6C60,41.6,60,41.6,59.9,41.6C59.9,41.6,59.9,41.6,59.9,41.6z"></path>
	<path class="stblack" d="M38.1,68.8c0,0.1-0.1,0.2-0.1,0.2c0.2-0.4,0.3-0.7,0.5-1.1c0,0,0,0,0,0C38.4,68.2,38.3,68.5,38.1,68.8z"></path>
	<path class="stblack" d="M45.2,57c0.1-0.1,0.2-0.3,0.3-0.4C45.4,56.7,45.3,56.8,45.2,57C45.2,56.9,45.2,57,45.2,57z"></path>
	<path class="stblack" d="M42.4,61.1c0,0,0.1-0.1,0.1-0.1c0,0,0,0,0,0C42.5,61,42.4,61,42.4,61.1z"></path>
	<path class="stblack" d="M40.9,63.6c0.3-0.4,0.5-0.9,0.8-1.3c-0.1,0.2-0.2,0.4-0.3,0.5C41.2,63.1,41,63.3,40.9,63.6z"></path>
	<path class="stblack" d="M52.6,48.2C52.6,48.2,52.6,48.2,52.6,48.2c0.3-0.3,0.6-0.6,0.9-0.9C53.3,47.6,53,47.9,52.6,48.2z"></path>
	<path class="stblack" d="M60.2,33.2c0.3-0.2,0.6-0.4,0.9-0.6c0.6-0.4,1.3-0.9,1.9-1.3c-1.3,0.9-2.6,1.8-3.9,2.7c0.3-0.2,0.7-0.5,1-0.7
		C60.1,33.2,60.2,33.2,60.2,33.2z"></path>
	<path class="stblack" d="M50,41.6c0.1-0.1,0.2-0.2,0.3-0.2c-0.3,0.3-0.6,0.5-0.8,0.8c0.1-0.1,0.2-0.2,0.3-0.3C49.8,41.8,49.9,41.7,50,41.6z"></path>
	<path class="stblack" d="M72,25.8c0.5-0.3,1-0.6,1.5-0.8c0.3-0.1,0.6-0.3,0.9-0.4c0.2-0.1,0.4-0.2,0.6-0.3c-0.1,0.1-0.2,0.1-0.3,0.2
		c-1,0.5-2.4,1.3-4.2,2.2c0.5-0.3,0.9-0.5,1.3-0.7C71.8,25.9,71.9,25.9,72,25.8z"></path>
	<path class="stblack" d="M75,24.3C76.3,23.6,76.1,23.7,75,24.3L75,24.3z"></path>
	<path class="stblack" d="M75,24.3C75,24.3,75,24.3,75,24.3C75,24.3,75,24.3,75,24.3C75,24.3,75,24.3,75,24.3z"></path>
	<path class="stblack" d="M62.8,39.4C62.8,39.4,62.8,39.4,62.8,39.4C63.1,39.1,63.2,39.1,62.8,39.4z"></path>
	<path class="stblack" d="M50.2,50.8C50.2,50.8,50.1,50.9,50.2,50.8C50.1,50.9,50.2,50.8,50.2,50.8z"></path>
	<path class="stblack" d="M97.9,22.1c-0.1,0-0.3,0.1-0.4,0.1C97.7,22.2,97.8,22.1,97.9,22.1z"></path>
	<path class="stblack" d="M119.2,16.9C119.2,16.9,119.2,16.9,119.2,16.9C119.3,16.9,119.3,16.9,119.2,16.9z"></path>
	<polygon points="113.2,18.1 113.2,18.1 113.2,18.1 	"></polygon>
	<path class="stblack" d="M48.9,42.7c0.2-0.2,0.3-0.3,0.5-0.5C49.2,42.4,49.1,42.5,48.9,42.7z"></path>
	<path class="stblack" d="M101.6,21c0.2-0.1,0.4-0.1,0.6-0.2c-0.2,0-0.3,0.1-0.5,0.1C101.7,21,101.6,21,101.6,21z"></path>
	<path class="stblack" d="M47.3,44.3c0,0,0.2-0.2,0.6-0.6c0,0,0,0,0,0C47.5,44.1,47.3,44.3,47.3,44.3z"></path>
	<path class="stblack" d="M99.5,21.6c0.3-0.1,0.6-0.2,0.9-0.3c-0.2,0.1-0.4,0.1-0.6,0.2C99.7,21.6,99.6,21.6,99.5,21.6z"></path>
	<path class="stblack" d="M116,17.5c0,0,0.1,0,0.1,0C116,17.5,116,17.5,116,17.5C116,17.5,116,17.5,116,17.5z"></path>
	<path class="stblack" d="M49.4,42.2C49.4,42.2,49.4,42.2,49.4,42.2C49.4,42.2,49.4,42.2,49.4,42.2z"></path>
	<path class="stblack" d="M95.6,22.8C95.6,22.8,95.7,22.8,95.6,22.8C95.7,22.8,95.6,22.8,95.6,22.8C95.6,22.8,95.6,22.8,95.6,22.8z"></path>
	<path class="stblack" d="M60,41.6c0.9-0.7,1.9-1.5,2.8-2.2c-0.1,0.1-0.2,0.2-0.4,0.3C61.9,40.1,61,40.7,60,41.6z"></path>
	<path class="stblack" d="M729.3,176.3c0.4-0.3,0.8-0.7,1.3-1.1c-0.3,0.3-0.7,0.5-0.9,0.8C729.5,176.1,729.4,176.2,729.3,176.3z"></path>
	<path class="stblack" d="M715.8,177.9c-0.1,0.1-0.2,0.2-0.4,0.2c0,0,0.1-0.1,0.1-0.1C715.6,178,715.7,178,715.8,177.9z"></path>
	<path class="stblack" d="M733.1,173.1c-0.1,0.1-0.2,0.2-0.3,0.3c0.7-0.6,1.3-1.2,2-1.9c0.3-0.3,0.6-0.5,0.9-0.8c-0.3,0.3-0.7,0.6-1,0.9
		C734.1,172.1,733.6,172.6,733.1,173.1z"></path>
	<path class="stblack" d="M737.5,168.8c-0.1,0.1-0.1,0.1-0.2,0.2c0.2-0.3,0.5-0.5,0.7-0.7c0.1-0.2,0.3-0.3,0.4-0.4c0,0,0,0-0.1,0.1
		C738.1,168.2,737.8,168.5,737.5,168.8z"></path>
	<path class="stblack" d="M713.6,179.3c0.2-0.1,0.3-0.2,0.5-0.3c0,0,0.1-0.1,0.1-0.1c-0.1,0.1-0.3,0.2-0.4,0.3c-0.3,0.2-0.5,0.3-0.8,0.5c0,0,0,0,0,0
		C713.2,179.5,713.4,179.4,713.6,179.3z"></path>
	<path class="stblack" d="M721.9,173.7c0.6-0.4,0.2-0.1-1.9,1.4c0.1,0,0.1-0.1,0.2-0.1C721,174.4,721.6,174,721.9,173.7z"></path>
	<path class="stblack" d="M736.5,169.8C736.5,169.8,736.5,169.8,736.5,169.8c-0.1,0.1-0.2,0.2-0.4,0.3C736.3,170.1,736.4,169.9,736.5,169.8z"></path>
	<path class="stblack" d="M734.2,162.7c-0.3,0.4-0.7,0.7-1,1.1C733.5,163.4,733.9,163.1,734.2,162.7C734.2,162.7,734.2,162.7,734.2,162.7z"></path>
	<path class="stblack" d="M743.9,150.2C743.9,150.2,743.9,150.1,743.9,150.2C744.2,149.7,744.1,149.8,743.9,150.2z"></path>
	<path class="stblack" d="M741.8,153.3c-0.4,0.6-0.9,1.3-1.4,2c0,0,0-0.1,0.1-0.1C741,154.5,741.4,153.8,741.8,153.3z"></path>
	<path class="stblack" d="M730.1,166.9C730.1,166.9,730.1,166.9,730.1,166.9C730.1,166.9,730.1,166.9,730.1,166.9
		C730.1,166.9,730.1,166.9,730.1,166.9z"></path>
	<path class="stblack" d="M714.5,178.7c-0.1,0.1-0.2,0.1-0.2,0.1c0.4-0.2,0.8-0.5,1.2-0.7C715.1,178.4,714.8,178.6,714.5,178.7z"></path>
	<path class="stblack" d="M739.1,157c-0.2,0.2-0.4,0.5-0.5,0.7c0.1-0.1,0.2-0.2,0.2-0.3C738.9,157.3,739,157.1,739.1,157z"></path>
	<path class="stblack" d="M716.8,177.3c-0.3,0.2-0.7,0.4-1,0.7c0.5-0.3,0.9-0.6,1.4-0.8C717,177.1,716.9,177.2,716.8,177.3z"></path>
	<path class="stblack" d="M730.1,166.9C729.7,167.2,729.7,167.2,730.1,166.9L730.1,166.9z"></path>
	<path class="stblack" d="M720,175.1c-0.2,0.1-0.4,0.3-0.6,0.4c0.1-0.1,0.2-0.1,0.2-0.2C719.8,175.3,719.9,175.2,720,175.1z"></path>
	<path class="stblack" d="M732.1,165c0,0-0.1,0.1-0.1,0.1C732,165.1,732,165.1,732.1,165C732.1,165,732.1,165,732.1,165z"></path>
	<path class="stblack" d="M764.2,94.9c-0.2-1.7-0.4-3.4-0.7-5c-0.2-1.7-0.6-3.3-1-4.9c-1.5-6.5-3.6-12.7-6.3-18.5c-2.8-5.7-6.1-11-9.7-15.9
		c-1-1.2-1.9-2.3-2.8-3.5c-0.5-0.6-0.9-1.2-1.4-1.7c-0.5-0.5-1-1.1-1.5-1.6c-1-1.1-2-2.1-3-3.1c-1-1-2-2-3.1-2.9
		c-8.4-7.6-17.5-13.2-26.3-17.1c-8.8-3.9-17.4-6.3-24.9-7.4c-7.6-1.2-14.2-1.4-19.6-1.2c-5.4,0.2-9.7,0.8-12.7,1.5
		c-3,0.8-4.8,1.8-5.3,3c-0.3,0.7,0.5,1.3,2.3,1.8c1.8,0.5,4.7,0.8,8.4,1.1c3.8,0.3,8.5,0.6,14.2,1.2c5.6,0.6,12.1,1.4,19.3,3.3
		c7.1,1.8,15,4.7,23,9.1c4,2.2,8.1,4.8,12.1,7.8c4,3.1,7.9,6.6,11.5,10.6c3.6,4.1,7,8.6,10.1,13.6c2.9,5.1,5.5,10.6,7.4,16.5
		c3.9,11.9,4.8,25.6,1.9,39.5c-1.6,7.5-4.1,13.8-6.5,19.1c-1.9,3.9-3.8,7.3-5.7,10.2c0,0.1-0.1,0.1-0.1,0.2c0,0,0-0.1,0.1-0.1
		c-0.6,0.9-1.2,1.8-1.7,2.6c0,0,0,0.1-0.1,0.1c-0.1,0.1-0.2,0.3-0.3,0.4c0.1-0.1,0.1-0.2,0.2-0.3c-0.5,0.8-1,1.5-1.6,2.2
		c-0.1,0.1-0.2,0.2-0.3,0.4c0,0,0,0,0,0c0.1-0.1,0.2-0.2,0.2-0.3c-0.5,0.6-0.9,1.2-1.3,1.7c0.2-0.3,0.5-0.6,0.7-0.9
		c-0.3,0.4-0.6,0.8-1,1.2c-0.3,0.4-0.6,0.8-0.9,1.1c0.2-0.3,0.4-0.6,0.7-0.8c-0.3,0.3-0.5,0.6-0.8,1c-0.1,0.1-0.2,0.3-0.4,0.5
		c-0.3,0.3-0.5,0.6-0.8,1c0.1-0.2,0.3-0.3,0.4-0.5c-0.2,0.3-0.5,0.6-0.7,0.9c0,0-0.1,0.1-0.1,0.1c0,0.1-0.1,0.1-0.1,0.2
		c-0.1,0.1-0.3,0.3-0.4,0.4c0-0.1,0.1-0.1,0.1-0.2c-0.1,0.1-0.2,0.2-0.3,0.3c-0.4,0.5-0.8,0.9-1.2,1.3c0,0-0.1,0.1-0.1,0.1
		c0,0,0,0,0,0c-0.4,0.4-0.7,0.8-1,1.1c0,0,0,0,0,0c0,0-0.1,0.1-0.1,0.1c-0.4,0.4-0.7,0.8-1,1.1c0.1-0.1,0.1-0.1,0.2-0.2
		c-0.1,0.1-0.1,0.1-0.2,0.2c-0.1,0.1-0.1,0.1-0.2,0.2c-0.1,0.1-0.1,0.1-0.2,0.2c0.1-0.1,0.2-0.2,0.3-0.3c-0.2,0.2-0.4,0.4-0.6,0.6
		c-0.1,0-0.1,0.1-0.1,0.1c-0.6,0.5-0.9,0.9-1.2,1.1c0.2-0.2,0.5-0.5,0.9-0.9c-0.9,0.8-1.7,1.6-2.6,2.4c-0.2,0.2-0.5,0.4-0.7,0.7
		c-0.2,0.2-0.5,0.4-0.7,0.6c-0.5,0.4-0.9,0.8-1.4,1.2c-0.9,0.7-1.8,1.5-2.6,2.1c-1.2,0.8-2.3,1.6-3.3,2.4c-0.1,0.1-0.2,0.2-0.3,0.2
		c0,0,0.1,0,0.1-0.1c-0.2,0.2-0.5,0.3-0.7,0.5c0,0,0.1,0,0.1-0.1c-0.1,0-0.1,0.1-0.2,0.1c-0.1,0.1-0.2,0.2-0.4,0.3
		c-1,0.6-1.9,1.2-2.8,1.7c-0.5,0.3-0.9,0.6-1.5,0.9c-0.2,0.1-0.3,0.2-0.5,0.3c-0.1,0.1-0.2,0.1-0.2,0.2c-0.1,0.1-0.2,0.1-0.3,0.2
		c0,0,0,0,0,0c0,0,0,0,0,0c-1.3,0.7-2.7,1.5-4.3,2.3c-1.7,0.9-3.8,1.8-5.9,2.8c-8.9,3.7-21.9,7.8-40.5,8.8c-4.2,0.3-10.3,0.4-18,0.3
		c-7.6-0.1-16.7-0.4-26.6-0.6c-9.9-0.3-20.6-0.5-31.5-0.8c-10.9-0.3-22-0.5-32.9-0.6c-10.8-0.1-21.2-0.1-30.7,0
		c-4.7,0-9.3,0.1-13.4,0.2c-4.1,0.1-7.9,0.2-11.5,0.3c-3.6,0.1-6.8,0.4-9.6,0.9c-2.8,0.4-5.1,1-6.7,1.7c0,0,0,0-0.1,0
		c-0.1-1-0.4-1.9-0.6-2.7c-0.7-1.9-1.7-3.3-2.8-3.8c-1.1-0.6-2.1-0.4-3.2,0.4c-1.5,1.1-2.5,2.3-3.3,3.5c-0.8,1.2-1.5,2.4-2.1,3.7
		c-0.6,1.3-1.1,2.6-1.7,4.1c-0.6,1.4-1.3,3-2.2,4.4c-1.7,3-4.4,6.1-7.1,8.4c-2.6,2.3-5.1,3.9-6.2,4.3c-4.5,1.7-8.2,2.4-10.7,2.7
		c-0.2,0-0.5,0.1-0.7,0.1c0,0-0.1,0-0.2,0c0,0,0.1,0,0.1,0c0,0,0,0,0,0c-0.1,0-0.2,0-0.3,0c-0.1,0-0.3,0-0.5,0.1c0.1,0,0.2,0,0.3,0
		c-0.1,0-0.2,0-0.3,0c-0.1,0-0.1,0-0.2,0c0,0,0,0,0,0c0,0-0.1,0-0.1,0h0c0,0,0,0,0,0c-1.1,0.1-3.2,0.3-6.6-0.1
		c-2.8-0.3-5.3-1.1-7.5-2.3c-1.1-0.6-2.1-1.3-2.9-2c-0.4-0.4-0.8-0.7-1.1-1.1c-0.3-0.4-0.7-0.8-1-1.2c-1.2-1.7-2.1-3.5-2.6-5.3
		c-0.5-1.8-0.7-3.4-0.7-4.9c0-2.9,0.3-4.8,0.2-6.7c0-0.5,0-0.9-0.1-1.5c-0.1-0.5-0.2-1-0.4-1.5c-0.3-1.1-0.9-2.3-1.8-3.5
		c-0.6-0.7-1.2-1.1-1.9-1.2c-0.7,0-1.7,0.3-2.6,1c-1.9,1.4-3.9,4.7-4.4,9.1c-13.1-1.4-45.1-1.9-94.4-2.2
		c-34.2-0.2-76.7-0.3-127.1-1.2c-12.6-0.2-25.6-0.5-39.2-0.8c-6.8-0.2-13.7-0.4-20.7-0.6c-3.4-0.1-6.9-0.2-10.3-0.3
		c-3.4-0.7-6.7-1.4-10.2-2.1c-7.1-1.5-14.2-3-21.2-5.1c-3.5-1-7-2.2-10.4-3.5c-3.4-1.4-6.8-2.8-10-4.6c-3.3-1.7-6.4-3.7-9.5-5.9
		c-3-2.2-5.9-4.6-8.5-7.3c-2.6-2.7-5-5.6-7.2-8.7c-2.1-3.1-3.9-6.5-5.5-10.1c-3.3-7.7-4.8-15.6-5.3-23c-0.2-3.7-0.3-7.3-0.1-10.8
		c0.2-3.5,0.5-6.8,1-10c1-6.4,2.4-12.2,4.1-17.5c1.2-3.8,2.5-7.4,3.8-10.6c-0.1,0.3-0.2,0.5-0.3,0.8c0.1-0.3,0.2-0.6,0.4-1
		c0,0,0,0,0-0.1c0.1-0.1,0.1-0.2,0.2-0.4c0.1-0.2,0.2-0.5,0.3-0.8c-0.1,0.2-0.2,0.4-0.3,0.6c0.3-0.8,0.7-1.6,1-2.4
		c0.1-0.3,0.3-0.6,0.4-0.9c-0.1,0.2-0.2,0.3-0.2,0.5c0,0,0-0.1,0-0.1c0.1-0.2,0.1-0.3,0.2-0.4c0.1-0.1,0.1-0.3,0.2-0.4
		c0.1-0.2,0.2-0.4,0.3-0.6c-0.1,0.3-0.3,0.6-0.4,0.9c0.2-0.5,0.5-1.1,0.7-1.6c-0.1,0.1-0.1,0.2-0.2,0.3c0.1-0.2,0.2-0.4,0.3-0.6
		c0.1-0.2,0.2-0.4,0.3-0.7c0-0.1,0.1-0.1,0.1-0.2c0-0.1,0-0.1,0.1-0.2c0,0.1,0,0.1-0.1,0.2c0.2-0.4,0.3-0.7,0.5-1
		c-0.1,0.2-0.2,0.4-0.3,0.6c0.1-0.2,0.3-0.5,0.4-0.8c0.1-0.3,0.3-0.5,0.4-0.8c0,0,0,0.1-0.1,0.1c0.2-0.3,0.4-0.7,0.5-1
		c0.3-0.5,0.6-1,0.8-1.5c0,0,0,0,0,0.1c-0.2,0.3-0.4,0.6-0.5,0.9c0,0,0,0,0,0c0.3-0.6,0.7-1.1,1-1.7c0.2-0.3,0.4-0.7,0.6-1
		c-0.1,0.2-0.2,0.3-0.3,0.5c0.2-0.4,0.5-0.8,0.7-1.2c0,0,0,0,0-0.1c0,0,0,0,0,0.1c0-0.1,0.1-0.1,0.1-0.2c0.1-0.2,0.2-0.4,0.4-0.6
		c0,0,0,0,0,0c-0.1,0.2-0.2,0.4-0.4,0.6c0.2-0.3,0.4-0.6,0.6-0.9c0.3-0.5,0.6-0.9,0.9-1.4c0.2-0.3,0.5-0.7,0.7-1
		c0.1-0.2,0.3-0.4,0.4-0.6c-0.1,0.1-0.2,0.2-0.2,0.3c0.1-0.1,0.2-0.3,0.3-0.4c0.3-0.5,0.7-0.9,1-1.4c-0.3,0.3-0.5,0.7-0.8,1
		c0.3-0.4,0.6-0.8,0.9-1.2c0,0,0,0,0,0c0,0,0,0,0.1-0.1c0.1-0.1,0.1-0.2,0.2-0.2c0.4-0.5,0.7-0.9,1.1-1.4c-0.2,0.3-0.4,0.6-0.7,0.8
		c0.3-0.4,0.6-0.7,0.9-1.1c0.2-0.2,0.4-0.4,0.6-0.7c-0.1,0.2-0.3,0.3-0.4,0.5c0.2-0.2,0.3-0.4,0.5-0.6c0.1-0.1,0.2-0.2,0.2-0.3
		c0,0,0.1-0.1,0.1-0.1c-0.1,0.1-0.2,0.2-0.3,0.4c0.2-0.3,0.5-0.5,0.7-0.8c0.3-0.3,0.6-0.7,0.9-1c-0.1,0.1-0.2,0.2-0.3,0.3
		c0.2-0.2,0.4-0.4,0.5-0.6c-0.1,0.1-0.1,0.1-0.2,0.2c0.2-0.3,0.5-0.5,0.7-0.8c0.2-0.2,0.4-0.4,0.6-0.6c0,0-0.1,0.1-0.1,0.1
		c0.1-0.1,0.1-0.1,0.2-0.2c0.2-0.2,0.3-0.3,0.5-0.5c0.2-0.2,0.3-0.3,0.5-0.5c1.8-1.9,3.4-3.3,4.8-4.5c-1,0.9-2.2,1.9-3.4,3.1
		c1.1-1.1,2.2-2.1,3.4-3.1c0.1-0.1,0.3-0.2,0.4-0.4c0.2-0.1,0.3-0.3,0.5-0.4c0.6-0.5,1.1-1,1.6-1.3c-0.4,0.3-0.9,0.7-1.4,1.1
		c0.2-0.2,0.5-0.4,0.7-0.6c0.2-0.2,0.5-0.4,0.7-0.6c1.3-1.1,2.2-1.7,2.7-2.1c0,0,0.1-0.1,0.1-0.1c1.2-0.9,2.5-1.8,3.7-2.6
		c4.8-3.2,9.4-5.7,13.7-7.8c3.2-1.5,6.3-2.8,9.1-3.9c0,0,0,0,0,0c0.8-0.3,1.6-0.6,2.3-0.9c0.3-0.1,0.5-0.2,0.8-0.3
		c0.5-0.2,1.1-0.4,1.6-0.6c0.5-0.2,1-0.4,1.6-0.5c-0.3,0.1-0.7,0.2-1,0.3c0,0-0.1,0-0.1,0c0.4-0.1,0.7-0.2,1.1-0.4
		c0.1,0,0.1,0,0.2-0.1c0,0-0.1,0-0.1,0c0.1,0,0.1,0,0.2-0.1c0.5-0.2,1.1-0.4,1.7-0.5c-0.2,0.1-0.4,0.1-0.6,0.2
		c0.4-0.1,0.9-0.3,1.3-0.4c-0.1,0-0.2,0.1-0.3,0.1c0.5-0.2,1-0.3,1.6-0.5c-0.1,0-0.2,0.1-0.3,0.1c0.2-0.1,0.4-0.1,0.6-0.2
		c0.2-0.1,0.4-0.1,0.7-0.2c0,0,0,0,0,0c0,0,0.1,0,0.1,0c0.4-0.1,0.7-0.2,1.1-0.3c0,0,0,0,0,0c0.1,0,0.1,0,0.2-0.1c0,0,0,0,0,0
		c0.3-0.1,0.7-0.2,1-0.3c-0.2,0-0.3,0.1-0.5,0.1c0.4-0.1,0.8-0.2,1.2-0.3c0.1,0,0.3-0.1,0.4-0.1c0.6-0.2,1.2-0.3,1.7-0.5
		c0.1,0,0.1,0,0.2-0.1c1.8-0.5,3.3-0.8,4.7-1.2c0.6-0.1,1.2-0.3,1.8-0.4c0.3-0.1,0.5-0.1,0.8-0.2c-0.2,0-0.4,0.1-0.6,0.1
		c0.2,0,0.4-0.1,0.6-0.1c0.1,0,0.2,0,0.2,0c-0.1,0-0.2,0-0.2,0c0.9-0.2,1.8-0.4,2.8-0.6c-0.7,0.1-1.5,0.3-2.4,0.5
		c0.3-0.1,0.6-0.1,0.8-0.2c1.3-0.3,2.3-0.5,3-0.6c-0.4,0.1-0.9,0.2-1.4,0.3c1-0.2,2-0.4,3.1-0.6c0,0-0.1,0-0.1,0c0,0,0.1,0,0.1,0
		c0,0,0.1,0,0.1,0c1.2-0.2,2.4-0.4,3.7-0.6c1.2-0.2,2.4-0.4,3.7-0.6c1.3-0.1,2.6-0.3,3.9-0.4c10.9-1,24-1.3,39.6-1.1
		c7.8,0.1,16.4,0.2,25.5,0.3c9.1,0.1,18.9,0.3,29.4,0.5c18.9,0.4,55.3,1,98.9,1.9c43.6,0.8,94.4,1.5,141.9,2
		c47.6,0.4,92,0.6,122.8,0.2c30.8-0.4,48.1-1.5,41.5-3.7c-8.9-2.9-37-4.9-74.9-6c-37.9-1.2-85.6-1.5-133.7-1.6
		c-48.1,0-96.6,0.2-136.2,0.3c-39.5,0.1-70.1,0.2-82.3,0c-13.1-0.1-25.5-0.3-37.2-0.4c-11.7-0.1-22.6,0.1-32.8,0.9
		c-2.5,0.2-5.1,0.4-7.5,0.7c-2.5,0.4-4.8,0.7-7.2,1.1c-4.6,0.8-9.1,1.8-13.2,2.8c-8.4,2.1-15.8,4.7-22.3,7.4c-3,1.3-5.9,2.6-8.5,3.9
		c-0.3,0.1-0.5,0.3-0.9,0.4c-0.5,0.3-1,0.5-1.5,0.8c-0.1,0.1-0.2,0.1-0.3,0.2c-0.5,0.3-0.9,0.5-1.4,0.8c0,0,0,0,0.1,0
		c-0.1,0-0.1,0.1-0.2,0.1c-1.4,0.8-2.7,1.5-3.9,2.3c-1.2,0.7-2.3,1.4-3.3,2.1c0.5-0.4,1.1-0.7,1.6-1c-1.1,0.7-2.3,1.5-3.5,2.3
		c-0.3,0.2-0.6,0.4-0.9,0.6c0,0-0.1,0.1-0.1,0.1c-0.4,0.3-0.8,0.6-1.1,0.8c0.1,0,0.1-0.1,0.2-0.1C59,34,59,34.1,58.9,34.1
		c0,0,0,0,0,0c-1.2,0.9-2.4,1.8-3.7,2.9c-1.6,1.3-3.2,2.7-4.9,4.4c0,0,0,0,0,0c-0.1,0.1-0.2,0.2-0.3,0.3c-0.1,0.1-0.1,0.1-0.2,0.2
		c-0.2,0.2-0.3,0.3-0.5,0.5c-0.2,0.2-0.3,0.3-0.4,0.4c0,0,0,0,0.1-0.1c-0.3,0.3-0.7,0.7-1,1c0.1-0.1,0.2-0.2,0.3-0.3c0,0,0,0,0,0
		c-0.1,0.1-0.2,0.2-0.3,0.3c-1.5,1.5-3,3.2-4.6,5c-2.1,2.5-4.1,5.2-6.1,8.3c-1,1.5-1.9,3.2-2.9,4.9c-0.5,0.9-0.9,1.8-1.4,2.7
		c-0.5,0.9-0.8,1.8-1.3,2.8c-3.3,7.5-6.4,16.1-8.7,26.1c-1.7,7.9-2.8,15.8-2.9,23.8c-0.1,8,0.9,16,3,23.6
		c2.2,7.6,5.6,14.9,10.2,21.3c1.1,1.6,2.4,3.1,3.6,4.6c0.6,0.7,1.3,1.4,2,2.2c0.6,0.7,1.3,1.4,2,2.1c0.7,0.7,1.4,1.4,2.1,2l2.2,1.9
		c1.5,1.2,3,2.4,4.5,3.5c6.2,4.5,12.9,8,19.8,10.8c6.9,2.8,13.9,4.8,20.9,6.6c7,1.7,13.9,3.1,20.6,4.6l1.3,0.3l0.6,0.1
		c0.3,0.1,0.7,0.2,1,0.2l2.7,0.1c1.7,0.1,3.4,0.1,5.1,0.2c3.4,0.1,6.8,0.3,10.2,0.4c54,2.1,102.6,3.2,143.4,3.7
		c40.9,0.5,74.1,0.5,97.7-0.2c15.2-0.4,26.3-1.1,32.9-2.3c0.1,1.1,0.2,2.3,0.5,3.4c0.6,2.6,1.6,5.3,3.2,7.9c1.6,2.6,3.7,5.2,6.5,7.4
		c0.7,0.5,1.5,1.1,2.3,1.5c0.8,0.4,1.5,0.9,2.3,1.3c0.8,0.4,1.6,0.8,2.5,1.1c0.4,0.2,0.9,0.3,1.3,0.5c0.4,0.1,0.9,0.3,1.3,0.4
		c3.9,1.2,6.8,1.4,8.9,1.4c-0.3,0-0.5,0-0.6,0c-0.3,0-0.3,0,0.3,0c0.2,0,0.5,0,0.9,0c0.1,0,0.2,0,0.3,0c-0.1,0-0.1,0-0.2,0
		c0.2,0,0.4,0,0.7,0c0,0,0,0-0.1,0c0.1,0,0.3,0,0.4,0c0.4,0,0.8,0,1.3,0c0.1,0,0.2,0,0.3,0c0,0-0.1,0-0.1,0c0,0,0,0,0,0
		c0.4,0,0.7,0,1-0.1c-0.2,0-0.6,0-0.9,0.1c0.3,0,0.6,0,0.8,0c0,0,0.1,0,0.1,0c0.1,0,0.1,0,0.2,0c0,0-0.1,0-0.2,0c0.2,0,0.4,0,0.5,0
		c1-0.1,1.9-0.2,2.6-0.3c0,0,0.2,0,0.6-0.1c0.7-0.1,1.2-0.2,1.7-0.3c0.4-0.1,0.9-0.2,1.5-0.3c-0.3,0.1-0.7,0.1-1.2,0.2
		c0.6-0.1,0.9-0.2,1.2-0.2c0.5-0.1,1-0.2,1.6-0.4c2.3-0.5,5.5-1.4,9.5-3.1c1.8-0.8,5.6-1.9,9.9-4.4c2.1-1.2,4.4-2.8,6.5-4.8
		c0.5-0.5,1-1,1.5-1.6c0.5-0.6,1-1.1,1.4-1.8c0.9-1.2,1.7-2.5,2.4-3.8c1.4-2.6,2.2-5.5,2.5-8.2c0-0.2,0-0.4,0.1-0.7
		c2.4,0.4,5.6,0.8,9.6,1.2c2.9,0.3,6.1,0.7,9.8,1.1c1.8,0.2,3.8,0.4,5.8,0.5c2,0.1,4.1,0.2,6.3,0.4c17.2,0.9,38.7,1,60.5,0.8
		c21.8-0.1,43.8-0.6,61.7-1c9-0.2,17-0.5,23.4-1c6.5-0.5,11.4-1.1,14.1-1.4c12-1.5,22.6-4.4,31.2-7.9c8.7-3.5,15.5-7.7,20.7-11.5
		c1.3-0.8,2.4-1.7,3.4-2.6c0,0-0.1,0.1-0.1,0.1c-0.7,0.6-0.7,0.6,0.2-0.1c0.4-0.3,0.7-0.6,1.1-0.9c-0.1,0.1-0.3,0.2-0.4,0.3
		c0.2-0.2,0.5-0.4,0.7-0.6c0.4-0.4,0.9-0.7,1.3-1c-0.1,0.1-0.2,0.2-0.3,0.3c0.2-0.2,0.5-0.4,0.7-0.6c0,0,0,0,0.1-0.1c0,0,0,0,0,0
		c0.2-0.2,0.4-0.3,0.6-0.5c0.2-0.2,0.4-0.4,0.7-0.6c-0.1,0.1-0.2,0.2-0.3,0.3c0.2-0.2,0.5-0.4,0.7-0.6c0.5-0.4,1-0.9,1.5-1.4
		c0.4-0.4,0.8-0.8,1.2-1.1c-0.1,0.1-0.1,0.1-0.2,0.2c0.1-0.1,0.3-0.3,0.4-0.4c0.1-0.1,0.1-0.1,0.2-0.2c-0.1,0.1-0.1,0.1-0.2,0.2
		c0.2-0.2,0.4-0.4,0.6-0.5c0,0,0,0,0,0c0,0,0,0,0.1-0.1c0,0,0.1-0.1,0.1-0.1c0.1-0.1,0.2-0.3,0.4-0.4c0.1-0.1,0.1-0.1,0.2-0.2
		c0,0,0,0-0.1,0.1c0.1-0.1,0.1-0.1,0.2-0.2c0,0,0.1-0.1,0.1-0.1c0.3-0.3,0.5-0.6,0.8-0.9c0.1-0.1,0.1-0.1,0.2-0.2
		c0.1-0.1,0.2-0.2,0.3-0.3c-0.1,0.1-0.2,0.3-0.4,0.4c0,0,0,0,0,0c0.9-0.9,1.8-1.9,2.7-3c3.7-4.4,8.2-10.4,12.6-18.6
		c1.8-3.2,3.2-6.6,4.6-9.9c0.6-1.7,1.2-3.4,1.9-5.1c0.5-1.7,1-3.5,1.5-5.2c1.8-6.9,2.8-13.9,2.9-20.9c0-0.9,0-1.7,0-2.6
		c0-0.9,0-1.7-0.1-2.6C764.5,98.3,764.4,96.6,764.2,94.9z M109.9,18.8C109.9,18.8,109.9,18.8,109.9,18.8
		C109.9,18.8,109.9,18.8,109.9,18.8z M106.2,19.7c0.4-0.1,0.8-0.2,1.3-0.3C107.1,19.5,106.7,19.6,106.2,19.7z M112,18.4
		C112,18.4,112,18.4,112,18.4C112,18.4,112,18.4,112,18.4z M105.1,20c-0.4,0.1-0.7,0.2-1.1,0.3c0.2-0.1,0.4-0.1,0.5-0.2
		C104.7,20.1,104.9,20.1,105.1,20z M66.6,28.9c-0.6,0.3-1.1,0.7-1.8,1.1C65.5,29.6,66,29.3,66.6,28.9z M68,28.1
		c-0.3,0.2-0.7,0.4-1,0.6C67.3,28.5,67.6,28.3,68,28.1z M43.6,59.2C43.6,59.2,43.7,59.2,43.6,59.2C43.7,59.2,43.6,59.2,43.6,59.2z
		 M44.1,58.5c0.2-0.2,0.3-0.5,0.5-0.7C44.4,58.1,44.3,58.3,44.1,58.5z M57.4,43.8c0.1-0.1,0.1-0.1,0.2-0.2
		C57.5,43.6,57.4,43.7,57.4,43.8z M58.1,43.1C58.1,43.1,58.1,43.1,58.1,43.1C58.1,43.1,58.1,43.1,58.1,43.1
		C58.1,43.1,58.1,43.1,58.1,43.1z M53.4,38.5c-1,0.9-1.9,1.7-2.7,2.4C51.5,40.2,52.4,39.4,53.4,38.5z M54,38
		c-0.2,0.2-0.4,0.3-0.6,0.5C53.6,38.3,53.8,38.2,54,38z M39.9,65.3c0,0-0.1,0.1-0.1,0.1C39.8,65.4,39.9,65.4,39.9,65.3
		C39.9,65.4,39.9,65.3,39.9,65.3z M34.8,76.8C34.8,76.9,34.7,76.9,34.8,76.8c0,0,0.1-0.1,0.1-0.3C34.8,76.7,34.8,76.8,34.8,76.8z
		 M34.4,77.7c-0.2,0.4-0.3,0.7-0.3,0.8c0,0,0,0,0-0.1C34.2,78.3,34.3,78.1,34.4,77.7z M439.2,220.1c-0.1,0-0.2,0-0.2,0
		C439,220.1,439.1,220.1,439.2,220.1C439.1,220.1,439.2,220.1,439.2,220.1z M438.6,220.2c-0.1,0-0.2,0-0.3,0
		C438.4,220.2,438.5,220.2,438.6,220.2z M437.4,228.3c0,0,0.1,0,0.1,0c0,0,0,0,0,0C437.6,228.3,437.5,228.3,437.4,228.3z
		 M446.1,227.3c0.2,0,0.3-0.1,0.4-0.1C446.5,227.2,446.4,227.3,446.1,227.3z M709.4,181.6c-0.4,0.2-0.7,0.4-0.9,0.5
		C708.7,182,709,181.8,709.4,181.6z M707.9,182.4c-0.2,0.1-0.3,0.2-0.4,0.2C707.3,182.6,707.5,182.5,707.9,182.4z M709.7,181.4
		c0.2-0.1,0.5-0.3,0.8-0.4c0.4-0.2,0.8-0.4,1.2-0.7c-0.1,0-0.1,0.1-0.2,0.1C710.8,180.8,710.2,181.1,709.7,181.4z M712.9,179.7
		c-0.1,0-0.2,0.1-0.2,0.1C712.7,179.8,712.8,179.7,712.9,179.7z M738.9,167.3C738.9,167.3,738.9,167.3,738.9,167.3
		C738.9,167.3,738.9,167.3,738.9,167.3z M742.8,151.8c0.1-0.2,0.3-0.4,0.4-0.6c0,0.1-0.1,0.1-0.1,0.2
		C743,151.5,742.9,151.7,742.8,151.8z"></path>
	<path class="stblack" d="M718.7,176.1c0,0,0.1-0.1,0.1-0.1c-0.5,0.3-1,0.7-1.5,1c0,0-0.1,0.1-0.1,0.1c0.4-0.2,0.7-0.5,1.1-0.7
		C718.4,176.3,718.5,176.2,718.7,176.1z"></path>
	<path class="stblack" d="M736.6,160.1c-0.3,0.3-0.6,0.7-0.8,1c0.1-0.1,0.3-0.3,0.4-0.4C736.3,160.4,736.4,160.3,736.6,160.1z"></path>
	<path class="stblack" d="M436,228.3c0.1,0,0.2,0,0.3,0c-0.1,0-0.3,0-0.4,0C435.9,228.3,435.9,228.3,436,228.3z"></path>
	<path class="stblack" d="M438.2,228.3C438.2,228.3,438.2,228.3,438.2,228.3C438.2,228.3,438.2,228.3,438.2,228.3
		C438.2,228.3,438.2,228.3,438.2,228.3z"></path>
	<path class="stblack" d="M439.7,228.2c-0.1,0-0.2,0-0.3,0C439.8,228.2,439.9,228.2,439.7,228.2z"></path>
	<path class="stblack" d="M443,227.8c0,0,0.1,0,0.1,0c0.2,0,0.5-0.1,0.8-0.1c-0.1,0-0.2,0-0.2,0C443.5,227.8,443.2,227.8,443,227.8z"></path>
	<path class="stblack" d="M440.8,220C440.9,220,440.9,220,440.8,220C440.9,219.9,440.9,220,440.8,220z"></path>
	<path class="stblack" d="M442.3,227.9c0,0,0.3,0,0.8-0.1c-0.1,0-0.1,0-0.2,0C442.7,227.9,442.5,227.9,442.3,227.9z"></path>
	<path class="stblack" d="M440,220.1c-0.1,0-0.2,0-0.3,0c0,0,0.1,0,0.1,0C439.9,220.1,439.9,220.1,440,220.1z"></path>
	<path class="stblack" d="M444.5,227.6c-0.2,0-0.4,0.1-0.5,0.1c0.3,0,0.6-0.1,0.9-0.1C444.8,227.6,444.7,227.6,444.5,227.6
		C444.5,227.6,444.5,227.6,444.5,227.6z"></path>
	<path class="stblack" d="M465.8,247.4c-0.1,0-0.2,0.1-0.2,0.1C465.7,247.5,465.8,247.5,465.8,247.4z"></path>
	<path class="stblack" d="M465.5,247.6c0,0,0.1,0,0.1-0.1C465.6,247.5,465.6,247.6,465.5,247.6z"></path>
	<path class="stblack" d="M471.9,243.1C471.9,243.1,471.9,243.1,471.9,243.1C471.9,243.1,471.9,243.1,471.9,243.1z"></path>
	<path class="stblack" d="M471.5,250.8c-0.1,0.1-0.2,0.1-0.2,0.2C471.4,250.9,471.5,250.9,471.5,250.8z"></path>
	<path class="stblack" d="M473,249.8c0.2-0.1,0.3-0.2,0.4-0.3c-0.1,0.1-0.1,0.1-0.2,0.2C473.1,249.7,473,249.8,473,249.8z"></path>
	<path class="stblack" d="M471.8,250.6C471.8,250.7,471.7,250.7,471.8,250.6C471.7,250.7,471.8,250.7,471.8,250.6z"></path>
	<path class="stblack" d="M467.4,246.6C467.7,246.4,467.8,246.3,467.4,246.6L467.4,246.6z"></path>
	<path class="stblack" d="M476.7,231.7c-1-1.2-2.4-2.3-3.8-3c-1.4-0.7-2.9-1-4.2-1.2c-1.3-0.2-2.6-0.2-3.7-0.1c-2.3,0.1-4.1,0.4-5.9,0.6
		c-5.3,0.7-9,1.9-10.3,4.3c-0.5-0.2-1-0.2-1.6-0.2c-1.7,0.1-3.6,1.2-5,2.6c-1.5,1.5-2.6,3.3-3.5,5.2c-0.5,1-1,2.3-1.3,4.1
		c-0.2,1.8,0.1,3.9,1,5.6c0.9,1.7,2.1,2.9,3.4,3.8c1.2,0.9,2.5,1.4,3.7,1.8c1.2,0.4,2.4,0.7,3.5,0.8c1.1,0.1,2.1,0.2,3.1,0.2
		c3.9-0.1,6.6-0.9,7.8-1c2.4-0.4,4.5-1,6.3-1.6c1.8-0.7,3.2-1.4,4.3-2.1c0.2-0.1,0.4-0.2,0.6-0.4c0,0,0.1-0.1,0.3-0.2
		c-0.1,0-0.1,0.1-0.2,0.1c0,0,0,0,0,0c0.3-0.2,0.5-0.3,0.7-0.5c0,0,0,0,0,0c0,0,0,0,0,0c0.1,0,0.1-0.1,0.2-0.1
		c0.1-0.1,0.3-0.2,0.5-0.3c-0.1,0.1-0.2,0.1-0.2,0.2c0.1-0.1,0.2-0.2,0.4-0.3c0.2-0.1,0.4-0.3,0.6-0.4c0.3-0.2,0.5-0.4,0.5-0.4
		s-0.1,0.1-0.2,0.2c0.2-0.2,0.4-0.3,0.7-0.5c0.9-0.8,2-1.8,3.3-3.4c0.5-0.7,0.9-1.4,1.2-2.2c0.3-0.8,0.6-1.6,0.7-2.5
		c0.3-1.7,0.1-3.4-0.3-4.9C478.5,234.4,477.8,232.9,476.7,231.7z M469.5,245.2C469.5,245.2,469.5,245.2,469.5,245.2
		C469.5,245.2,469.5,245.2,469.5,245.2C469.5,245.2,469.5,245.2,469.5,245.2z M469.8,245c0,0,0.1-0.1,0.1-0.1c0,0,0,0,0.1-0.1
		C469.9,244.8,469.9,244.9,469.8,245z M470.7,244.3C470.7,244.3,470.7,244.3,470.7,244.3C470.7,244.3,470.7,244.3,470.7,244.3z
		 M470.8,244.1c0,0,0.1-0.1,0.1-0.1C470.9,244,470.9,244.1,470.8,244.1z M471,243.9c0.1-0.1,0.2-0.1,0.2-0.2
		C471.2,243.8,471.1,243.8,471,243.9z M471.8,243.1C471.8,243.1,471.8,243.1,471.8,243.1c-0.1,0.1-0.2,0.2-0.2,0.2
		c0,0-0.1,0.1-0.1,0.1c-0.2,0.2-0.3,0.3-0.5,0.5c-0.1,0.1-0.1,0.1-0.2,0.2c-0.1,0.1-0.1,0.1-0.2,0.2c-0.2,0.1-0.3,0.3-0.5,0.4
		c-1.1,0.9-2,1.4-2.7,1.9c0,0-0.1,0-0.1,0.1c0,0-0.1,0.1-0.2,0.1c-0.2,0.1-0.3,0.2-0.4,0.2c0,0,0.1,0,0.1-0.1
		c-0.1,0-0.1,0.1-0.2,0.1c-0.1,0-0.1,0.1-0.2,0.1c-0.1,0.1-0.2,0.1-0.3,0.2c-0.1,0-0.1,0.1-0.2,0.1c0,0,0.1,0,0.1-0.1
		c-0.3,0.1-0.5,0.2-0.6,0.3c0,0-0.1,0-0.1,0c0,0,0.1,0,0.1,0c-0.1,0-0.2,0.1-0.2,0.1c-0.3,0.1-0.5,0.2-0.9,0.4
		c-0.8,0.3-1.7,0.6-2.8,0.9c-1.1,0.3-2.5,0.6-4,0.7c-0.7,0.1-1.7,0-3-0.2c-1.2-0.2-2.7-0.5-4.1-1.1c-1.3-0.5-2.6-1.3-3.2-2.1
		c-0.3-0.4-0.3-0.6-0.3-0.7c0-0.1,0-0.1,0.2-0.5c0.1-0.4,0.4-1.1,0.8-1.9c0.4-0.8,0.7-1.5,1-2.2c0.5-1.1,1-2.1,1.4-2.9
		c0.2-0.4,0.3-0.7,0.4-1.1c1.5,0.2,3.8,0,6.7-0.6c1.4-0.3,3-0.6,4.8-1c1.8-0.4,3.6-0.8,5.3-0.9c1.7-0.1,3.2,0.1,4.2,0.9
		c1.1,0.8,2,2.5,1.9,4.2C473.5,241,472.7,242.2,471.8,243.1C471.9,243.1,471.9,243.1,471.8,243.1z M465.1,247.8
		C465.1,247.8,465.1,247.8,465.1,247.8C465.1,247.8,465.1,247.8,465.1,247.8z"></path>
	<path class="stblack" d="M472.8,249.9c0,0,0.1-0.1,0.1-0.1c-0.1,0.1-0.2,0.1-0.3,0.2C472.7,250,472.8,250,472.8,249.9z"></path>
	<path class="stblack" d="M466.8,246.9c0,0-0.1,0-0.1,0.1c0.1-0.1,0.2-0.1,0.3-0.2c0.1,0,0.2-0.1,0.3-0.1c0,0,0.1,0,0.1-0.1
		C467.2,246.7,467,246.8,466.8,246.9z"></path>
	<path class="stblack" d="M472.5,250.2C472.5,250.1,472.6,250.1,472.5,250.2c0.1-0.1,0.2-0.1,0.2-0.1c0,0-0.1,0-0.1,0.1
		C472.6,250.1,472.5,250.1,472.5,250.2z"></path>
	<path class="stblack" d="M471.7,250.7c-0.1,0-0.1,0.1-0.2,0.1C471.6,250.8,471.7,250.8,471.7,250.7z"></path>
	<path class="stblack" d="M465.3,247.7C465.4,247.7,465.4,247.7,465.3,247.7c0.1,0,0.1-0.1,0.2-0.1C465.5,247.6,465.4,247.6,465.3,247.7z"></path>
	<path class="stblack" d="M488.8,279.1c-0.1,0.1-0.1,0.1-0.2,0.1C488.6,279.2,488.7,279.2,488.8,279.1z"></path>
	<path class="stblack" d="M488.9,279C488.9,279,488.9,279,488.9,279C489,279,489,279,488.9,279C488.9,279,488.9,279,488.9,279z"></path>
	<path class="stblack" d="M489.5,278.6C489.5,278.5,489.6,278.5,489.5,278.6c0.1-0.1,0.1-0.1,0.2-0.1C489.6,278.5,489.6,278.5,489.5,278.6
		C489.6,278.5,489.5,278.5,489.5,278.6z"></path>
	<path class="stblack" d="M489.8,278.3c0,0,0.1-0.1,0.1-0.1c-0.1,0.1-0.2,0.1-0.2,0.2C489.7,278.4,489.8,278.4,489.8,278.3z"></path>
	<path class="stblack" d="M489.9,278.3c0.1-0.1,0.2-0.2,0.3-0.3c-0.1,0.1-0.1,0.1-0.2,0.2C490,278.2,489.9,278.2,489.9,278.3z"></path>
	<path class="stblack" d="M488.9,279c0,0-0.1,0.1-0.1,0.1C488.8,279.1,488.8,279.1,488.9,279z"></path>
	<path class="stblack" d="M487.2,273c0.1-0.1,0.1-0.1,0.2-0.2c0,0,0,0,0,0C487.3,272.9,487.2,272.9,487.2,273C487.1,273,487.1,273,487.2,273z"></path>
	<path class="stblack" d="M469.4,264.4c-0.4-0.2-0.9-0.3-1.5-0.2c-1.5,0.1-3.2,1-4.4,2.3c-1.2,1.3-2.1,2.8-2.8,4.4c-0.2,0.4-0.4,1-0.6,1.5
		c-0.2,0.5-0.4,1.5-0.4,2.2c-0.1,1.6,0.3,3.3,1.1,4.7c0.4,0.7,0.9,1.4,1.5,1.9c0.3,0.3,0.6,0.6,0.9,0.8c0.3,0.2,0.6,0.4,0.8,0.6
		c1.1,0.7,2.2,1.1,3.3,1.4c1,0.3,2.1,0.4,3,0.5c0.9,0,1.8,0,2.6,0c3.2-0.3,5.5-1.1,6.4-1.3c4-0.8,6.8-2.3,8.6-3.5
		c0.2-0.1,0.3-0.2,0.5-0.3c0,0,0.1-0.1,0.2-0.2c-0.1,0-0.1,0.1-0.2,0.1c0,0,0,0,0,0c0.2-0.1,0.4-0.3,0.6-0.4c0,0,0,0,0,0
		c0,0,0,0,0,0c0.1,0,0.1-0.1,0.2-0.1c0.1-0.1,0.2-0.2,0.4-0.3c-0.1,0-0.1,0.1-0.2,0.1c0.1-0.1,0.2-0.1,0.2-0.2
		c0.1-0.1,0.3-0.2,0.4-0.4c0.3-0.2,0.4-0.3,0.4-0.3s-0.1,0.1-0.2,0.2c0.2-0.1,0.3-0.3,0.5-0.5c0.7-0.7,1.6-1.5,2.6-3
		c0.4-0.6,0.7-1.2,1-1.9c0.3-0.7,0.4-1.4,0.5-2.2c0.2-1.5,0-2.9-0.4-4.2c-0.4-1.3-1.1-2.5-2-3.6c-0.9-1-2.1-1.9-3.4-2.4
		c-2.5-1-4.9-1-6.8-0.9c-1.9,0.2-3.4,0.4-4.8,0.6C473.2,260.8,470.2,261.9,469.4,264.4z M486.2,273.8
		C486.2,273.8,486.2,273.8,486.2,273.8C486.2,273.8,486.2,273.8,486.2,273.8C486.2,273.8,486.2,273.8,486.2,273.8z M487.8,272.2
		C487.8,272.2,487.9,272.2,487.8,272.2C487.9,272.2,487.9,272.2,487.8,272.2C487.8,272.2,487.8,272.2,487.8,272.2z M484.6,266.5
		c1.3-0.2,2.3-0.1,3,0.4c0.8,0.5,1.5,1.7,1.5,2.8c0,0.9-0.5,1.8-1.1,2.5c0,0,0,0,0,0c0,0,0,0,0,0c-0.1,0.1-0.1,0.1-0.2,0.2
		c0,0-0.1,0.1-0.1,0.1c-0.1,0.1-0.2,0.3-0.4,0.4c0.1-0.1,0.3-0.3,0.4-0.4c-0.1,0.1-0.2,0.2-0.4,0.4c-0.1,0.1-0.1,0.1-0.2,0.2
		c0,0-0.1,0.1-0.1,0.1c0,0,0,0,0.1-0.1c0,0-0.1,0.1-0.1,0.1c-0.1,0.1-0.2,0.2-0.4,0.4c0.1-0.1,0.2-0.2,0.3-0.3
		c-0.2,0.1-0.3,0.3-0.4,0.4c0,0,0,0,0.1-0.1c0,0,0,0,0,0c-0.7,0.6-1.3,1-1.8,1.4c0,0,0,0-0.1,0.1c-0.1,0.1-0.2,0.1-0.3,0.2
		c0.1,0,0.1-0.1,0.2-0.1c0,0-0.1,0.1-0.1,0.1c0,0-0.1,0.1-0.1,0.1c0,0,0,0-0.1,0c-0.1,0-0.1,0.1-0.2,0.1c0,0,0.1,0,0.1,0
		c0,0,0,0,0,0c-0.1,0.1-0.3,0.2-0.4,0.2c0,0,0,0-0.1,0c-0.1,0-0.1,0.1-0.2,0.1c-0.2,0.1-0.3,0.2-0.5,0.3c0,0-0.1,0-0.1,0.1
		c-0.2,0.1-0.4,0.2-0.7,0.3c-1.2,0.5-2.9,1.2-5.3,1.5c-0.5,0.1-1.4,0.1-2.3-0.1c-1-0.1-2.1-0.4-3.2-0.8c-1-0.4-2-1-2.3-1.5
		c0-0.2,0.1-0.3,0.2-0.3l0,0l0,0l0-0.1l0.1-0.3c0.1-0.3,0.2-0.6,0.3-0.9c0.2-0.6,0.5-1.2,0.7-1.8c0.4-1,0.7-1.7,0.8-2.2
		c0-0.3,0-0.5,0-0.7c1.2,0.2,3-0.1,5.3-0.6c1.2-0.3,2.4-0.6,3.9-1C481.9,267.1,483.3,266.6,484.6,266.5z M483,275.9
		C483,275.9,483,275.9,483,275.9C483,275.9,483,275.9,483,275.9z M483.1,275.9c0.1-0.1,0.3-0.1,0.4-0.2
		C483.3,275.7,483.2,275.8,483.1,275.9z"></path>
	<path class="stblack" d="M487.9,272.1C488,272.1,488,272.1,487.9,272.1L487.9,272.1z"></path>
	<path class="stblack" d="M484.3,275.2C484.3,275.2,484.3,275.2,484.3,275.2c0.1-0.1,0.1-0.1,0.2-0.1C484.3,275.1,484.3,275.2,484.3,275.2
		C484.2,275.2,484.2,275.2,484.3,275.2z"></path>
	<path class="stblack" d="M486.6,273.5C486.6,273.5,486.6,273.5,486.6,273.5C486.6,273.5,486.6,273.5,486.6,273.5S486.6,273.5,486.6,273.5z"></path>
</g>
</svg>
