<svg version="1.1" xmlns="http://www.w3.org/2000/svg" xmlns:xlink="http://www.w3.org/1999/xlink" viewBox="0 0 800 489.877">
<style type="text/css">
.outline-stroke{fill:#FFFFFF;stroke:#000000;stroke-width:5;stroke-linejoin:round;stroke-linecap:round}
</style>
<g>
<path class="outline-stroke" d="M755.785,91.029c-34.984-70.361-138.97-75.56-355.756-75.56c-216.784,0-320.77,5.199-355.754,75.56C23.041,133.732,24.89,204.424,24.89,204.424s-1.849,70.693,19.384,113.397c34.985,70.361,138.971,75.56,355.755,75.56c38.035,0,72.584-0.161,103.91-0.806c-0.375,1.676-0.365,2.761-0.266,2.782c-0.25,0.063,0.041,7.039,6.074,13.324c3.848,4.189,9.382,7.167,15.661,9.184c6.342,2.011,13.681,2.986,22.657,2.992c8.975-0.009,16.312-0.977,22.657-2.992c6.284-2.024,11.805-4.989,15.66-9.184c6.031-6.286,6.323-13.261,6.074-13.324c0.158-0.035,0.086-2.941-1.583-6.68c91.313-7.291,142.402-25.583,164.912-70.857c21.232-42.703,19.385-113.397,19.385-113.397S777.017,133.732,755.785,91.029z"/>
<path class="outline-stroke" d="M539.692,450.034c-2.288-2.488-5.562-4.248-9.289-5.447c-3.763-1.19-8.115-1.776-13.439-1.775c-5.327-0.001-9.674,0.586-13.44,1.775c-3.724,1.195-7.002,2.962-9.289,5.447c-3.582,3.73-3.752,7.87-3.603,7.904c-0.149,0.037,0.025,4.175,3.603,7.903c2.282,2.484,5.565,4.25,9.289,5.447c3.763,1.192,8.115,1.772,13.44,1.775c5.324-0.006,9.676-0.579,13.439-1.775c3.729-1.2,7.002-2.96,9.289-5.447c3.578-3.73,3.751-7.866,3.603-7.903C543.44,457.906,543.271,453.764,539.692,450.034z"/>
</g>
</svg>