<?xml version="1.0" encoding="utf-8"?>
<svg version="1.1" xmlns="http://www.w3.org/2000/svg" xmlns:xlink="http://www.w3.org/1999/xlink" viewBox="0 0 800 770.6">
<path fill="white" stroke="black" stroke-width="5" d="M719.9,494.5c22.9-25.9,39.6-54.9,50.3-88.4c12.2-38.1,12.2-74.7,4.6-114.3c-6.1-27.4-13.7-53.3-29-77.7
    c-9.1-13.7-16.8-25.9-27.4-36.6c-1.5-1.5-1.5-4.6-3-6.1c-10.7-10.7-18.3-21.3-30.5-32c-1.5-1.5-4.6-1.5-6.1-3
    c-29-28.9-65.5-44.2-102.1-57.9c-114.3-42.7-237.7-25.9-345.9,29c-3,1.5-4.6,6.1-7.6,7.6c-77.7,39.6-141.7,103.6-161.5,192
    c-9.1,41.1-7.6,80.8,4.6,120.4c9.1,30.5,24.4,56.4,44.2,80.8c10.7,12.2,21.3,21.3,33.5,32c3,3,7.6,4.6,10.7,7.6
    c6.1,4.6,12.2,6.1,16.8,9.1c59.4,36.6,126.5,44.2,192.1,33l-2.6,7.7c-3.4,24,19.5,37.6,39.9,42c20.5,4.4,48,2,61.8-15.9
    c8.4-10.9,7.9-21-0.7-32.3v-2.1C556.9,602.7,654.4,566.1,719.9,494.5z M436.6,678.6c-0.5-2.8-2.3-5.2-4.1-7.4
    c-3.9-4.9-8.9-10.2-15.1-9.5l4.4-0.8c-8.2,0.7-16.4,1.4-24.7,2.1c-5.5,0.5-11.5,1.1-15.8,4.6c-5.4,4.4-6.7,13.1-2.8,18.9
    c2.1,3,5.2,5.1,8.5,6.7c12.5,6.1,27.9,5.9,40.1-0.7C432.5,689.6,437.6,684.5,436.6,678.6z M380.6,722.9c-4.5,0.2-9.3,0.5-13,3.1
    c-4.6,3.4-5.9,10.4-3,15.2c1.6,2.5,4.1,4.4,6.7,5.8c9.9,5.4,22.4,5.8,32.6,0.9c4.4-2.1,8.7-6,8.1-10.8c-0.3-2.3-1.7-4.3-3.1-6.2
    c-3-4.1-6.8-8.6-11.9-8.3l3.6-0.5C394,722.4,387.3,722.6,380.6,722.9z"/>
</svg>