<!--?xml version="1.0" encoding="utf-8"?-->
<!-- Generator: Adobe Illustrator 22.1.0, SVG Export Plug-In . SVG Version: 6.00 Build 0)  -->
<svg version="1.1" id="_x34_" xmlns="http://www.w3.org/2000/svg" xmlns:xlink="http://www.w3.org/1999/xlink" x="0px" y="0px" viewBox="0 0 800 749.2" style="enable-background:new 0 0 800 749.2;" xml:space="preserve">
<style type="text/css">
	.stblack{fill:#000000;}
	.st0{fill:#FFFFFF;}
</style>
<g>
	<path id="fillArea" class="st0" d="M726.4,215.3c-38.8-36.6-64.3-38.8-73.2-41c-8.9-2.2-15.5,5.5-27.7-16.6c-12.2-22.2-64.3-74.3-104.3-88.7
		C481.2,54.5,362.6,44.5,286,82.2c-76.5,37.7-119.8,127.6-120.9,159.7l-36.6,23.3c0,0-61,45.5-68.8,117.6s26.6,123.1,74.3,148.6
		s69.9,25.5,74.3,26.6c4.4,1.1,6.7,15.5,47.7,25.5s74.3,18.9,91,11.1c-4.4,12.2,0,31.1,26.6,39.9c26.6,8.9,38.8,5.5,71-11.1
		c32.2-16.6,29.9-39.9,29.9-39.9s24.4,3.3,43.3,5.5c18.9,2.2,66.6-8.9,89.8-17.7c23.3-8.9,41-53.2,41-53.2s3.3-6.7,14.4-11.1
		c11.1-4.4,44.4-27.7,72.1-54.4s41-66.6,44.4-105.4C782.9,308.5,765.2,251.9,726.4,215.3z"></path>
	<path id="fillArea" class="st0" d="M449.1,657.9c-14.4-2.2-25.5,1.1-25.5,1.1c-18.9,4.4-17.7,21.1-7.8,27.7c10,6.7,28.8,6.7,39.9-4.4
		C466.8,671.2,463.5,660.1,449.1,657.9z"></path>
	<path id="fillArea" class="st0" d="M469,711.1c-14.5,0-17.7,11.1-8.9,16.6c8.9,5.5,22.2,2.2,26.6-6.7C491.2,712.2,482.3,710,469,711.1z"></path>
	<path class="stblack" d="M28,375.4c0,0.1,0,0.2,0,0.3C28,375.8,28,375.7,28,375.4z"></path>
	<path class="stblack" d="M27.9,372c0-0.4,0-0.8,0-1.2c0,0.7,0,1.5,0,2.1C27.9,372.5,27.9,372.2,27.9,372z"></path>
	<path class="stblack" d="M28,363.5c0,0,0,1.2-0.1,3.6c0,0.3,0,0.5,0,0.8C28,365.5,28,363.5,28,363.5z"></path>
	<path class="stblack" d="M27.9,373.1c0-0.1,0-0.2,0-0.2C27.9,372.9,27.9,372.9,27.9,373.1C27.9,373,27.9,373,27.9,373.1z"></path>
	<path class="stblack" d="M20.2,361.3c0,0.5,0,0.9,0,1.3c0-0.8,0.1-1.5,0.1-2.3C20.2,360.6,20.2,361,20.2,361.3z"></path>
	<path class="stblack" d="M20,367.1c0-0.1,0-0.2,0-0.3C20,366.9,20,367,20,367.1z"></path>
	<path class="stblack" d="M20,366.5C20,366.5,20,366.5,20,366.5c0,0,0-0.1,0-0.2C20,366.3,20,366.4,20,366.5z"></path>
	<path class="stblack" d="M27.9,370.7c0-0.1,0-0.2,0-0.4c0,0.1,0,0.1,0,0.2C27.9,370.6,27.9,370.7,27.9,370.7z"></path>
	<path class="stblack" d="M20.1,363.2C20.1,363.2,20.1,363.3,20.1,363.2C20.1,363.3,20.1,363.2,20.1,363.2C20.1,363.2,20.1,363.2,20.1,363.2z"></path>
	<path class="stblack" d="M21.1,350.7c-0.1,0.5-0.1,1.1-0.2,1.8c0-0.3,0.1-0.6,0.1-0.8C21,351.3,21.1,351,21.1,350.7z"></path>
	<path class="stblack" d="M20.2,377.6c0-0.3,0,0.6,0.1,2c0-0.1,0-0.1,0-0.2C20.3,378.9,20.3,378.3,20.2,377.6z"></path>
	<path class="stblack" d="M21,386.6c0-0.3-0.1-0.5-0.1-0.8c0-0.1,0-0.2,0-0.3c0-0.1,0-0.2,0-0.3c0.1,1,0.2,1.9,0.3,2.8c0-0.3-0.1-0.7-0.1-1.1
		C21,386.9,21,386.7,21,386.6z"></path>
	<path class="stblack" d="M20,367.6c0-0.2,0-0.3,0-0.5C20,369.1,20,369.7,20,367.6z"></path>
	<path class="stblack" d="M20,366.6c0,0.1,0,0.2,0,0.2C20,366.8,20,366.7,20,366.6C20,366.6,20,366.6,20,366.6z"></path>
	<path class="stblack" d="M139.7,511.9c-2.1-1.2-4.4-2.5-6.9-3.9c-1.3-0.7-2.6-1.4-4.1-2.1c-1.4-0.7-2.9-1.4-4.4-2.2c-12-6.1-27-13.9-40.5-23.9
		c-3.3-2.6-6.8-5-9.8-7.8c-1.6-1.4-3.1-2.7-4.7-4.1c-1.5-1.4-2.9-2.9-4.3-4.3c-1.4-1.5-2.9-2.8-4.2-4.3c-1.3-1.5-2.5-3-3.7-4.4
		c-2.6-2.8-4.6-5.9-6.7-8.7c-7.9-11.4-12.4-21.5-13.8-25.6c-1.4-4.5-3-8.6-3.8-12.7c-0.9-4-2-7.8-2.5-11.4c-0.5-3.6-1.1-6.8-1.5-9.8
		c-0.3-3-0.6-5.7-0.7-8.2c-0.1-0.9-0.1-1.8-0.1-2.7c0,0,0-0.3,0-0.8c0,0.1,0,0.2,0,0.3c0,0.1,0,0.1,0,0.2c0-0.6-0.1-1.2-0.1-1.7
		c0-0.2,0-0.4,0-0.6c0,0.2,0,0.3,0,0.5c0-0.2,0-0.4,0-0.6c0-0.5,0-1,0-1.7c0-0.2,0-0.5,0-0.7c0-0.7,0-1.3,0-1.9c0,0.6,0,1.1,0,1.7
		c0-0.7,0-1.6,0-2.5c0,0.2,0,0.4,0,0.6c0-0.4,0-0.8,0-1.2c0-0.1,0-0.1,0-0.2c0-4.9,0.4-12.3,2-22.8c3.6-22.2,12.1-42.2,22.4-58.4
		c10.3-16.3,22.3-28.8,33.2-38c2.7-2.4,5.5-4.4,8-6.4c2.6-1.9,5.1-3.8,7.5-5.3c4.7-3.3,9-5.9,12.4-8.3c7-4.6,11.1-7.9,10.8-11
		c-0.1-0.9-0.9-1.3-2.5-1.3c-0.8,0-1.8,0.2-3,0.4c-1.2,0.2-2.5,0.6-4.1,1.2c-6.1,2.1-15,6.4-25.5,14c-10.5,7.6-22.4,18.6-33.7,33.8
		c-11.3,15.1-21.8,34.6-28.7,58.1c-3.4,11.7-4.8,20.9-5.6,27.8c0-0.2,0-0.3,0.1-0.4c0,0.2-0.1,0.5-0.1,0.9c0,0.2,0,0.3-0.1,0.5
		c0,0.3-0.1,0.6-0.1,0.9c-0.1,0.5-0.1,1-0.1,1.4c0.1-0.6,0.1-1.1,0.2-1.6c-0.1,0.7-0.2,1.4-0.2,2.4c0,0.2,0,0.4,0,0.5
		c-0.1,0.6-0.1,1.2-0.2,1.9c0-0.3,0.1-0.7,0.1-1c-0.1,1.1-0.2,2.1-0.2,3c-0.1,1.2-0.1,2.5-0.2,4c0,0.2,0,0.3,0,0.4
		c0,1-0.1,2.1-0.1,3c0,0.4,0,0.7,0,0.9c0,1,0,2,0,3c0,2.2,0,4.3,0.2,6.1c0,0.3,0,0.6,0.1,0.9c0,0.2,0,0.8,0.1,1.9c0,0.1,0,0.1,0,0.2
		c0,0,0,0,0-0.1c0,0.3,0,0.6,0,0.9c0,0.2,0,0.3,0,0.5c0,0.2,0,0.4,0,0.6c0,0.2,0,0.4,0.1,0.7c0.1,0.6,0.1,1.2,0.2,1.8
		c0,0.4,0.1,0.7,0.1,1.1c0-0.1,0-0.3,0-0.4c0,0.3,0.1,0.7,0.1,1.1c0,0.4,0.1,0.8,0.1,1.1c0,0.5,0.1,1,0.2,1.6c0-0.2-0.1-0.3-0.1-0.5
		c0,0.1,0,0.3,0,0.4c0.1,0.4,0.1,0.7,0.2,1c0-0.1,0-0.1,0-0.2c0,0.2,0.1,0.4,0.1,0.5c0,0.2,0,0.3,0.1,0.4c0-0.1,0-0.3-0.1-0.4
		c0.3,2,0.7,4.2,1.1,6.8c1.3,8.2,3.8,19.5,9.8,34.1c0.7,1.6,1.5,3.7,2.5,6c1.1,2.3,2.4,4.9,3.9,7.7c1.3,2.9,3.3,5.8,5.2,9
		c1,1.6,1.9,3.3,3.1,4.9c1.2,1.6,2.4,3.2,3.6,4.9c4.8,6.7,11,13.3,17.6,19.5c0.8,0.8,1.7,1.6,2.6,2.3l2.6,2.2c1.8,1.5,3.5,3,5.3,4.4
		c1.9,1.3,3.7,2.7,5.6,4c1.9,1.3,3.7,2.7,5.6,3.8c15.2,9.6,30.7,16,41.8,19.1c2.7,0.9,5.3,1.3,7.4,1.8c2.2,0.4,4,0.6,5.4,0.7
		c2.8,0.1,4-0.6,3.2-2.2C146.5,516.6,143.7,514.3,139.7,511.9z M20.6,382.7C20.6,382.7,20.6,382.7,20.6,382.7c0,0,0,0.1,0,0.1
		C20.6,382.8,20.6,382.7,20.6,382.7z M21.6,391.5c0,0.2,0.1,0.4,0.1,0.5C21.7,391.9,21.7,391.8,21.6,391.5z"></path>
	<path class="stblack" d="M20.5,357.3c-0.1,1-0.1,2-0.2,3c0-0.3,0-0.7,0.1-1C20.4,358.5,20.4,357.9,20.5,357.3z"></path>
	<path class="stblack" d="M20.1,363.3c0,0.1,0,0.2,0,0.2c0,1-0.1,1.9-0.1,2.7c0-0.7,0-1.6,0.1-2.6C20.1,363.5,20.1,363.4,20.1,363.3z"></path>
	<path class="stblack" d="M20.2,362.6c0,0.2,0,0.4,0,0.6c0,0,0,0,0,0C20.1,363,20.2,362.8,20.2,362.6z"></path>
	<path class="stblack" d="M21.3,389.4C21.3,389.5,21.3,389.5,21.3,389.4c0,0.2,0,0.3,0.1,0.4c0,0,0,0,0,0C21.3,389.7,21.3,389.6,21.3,389.4z"></path>
	<path class="stblack" d="M359.1,27.7c-0.1,0-0.2,0-0.2,0c1-0.1,2.1-0.1,3.1-0.2c0.2,0,0.5,0,0.7-0.1c-0.1,0-0.1,0-0.2,0
		C361.4,27.5,360.3,27.6,359.1,27.7z"></path>
	<path class="stblack" d="M369,27.1c0.1,0,0.2,0,0.2,0S369.1,27.1,369,27.1z"></path>
	<path class="stblack" d="M352.2,28.3c0.1,0,0.3,0,0.5-0.1c-0.2,0-0.4,0-0.6,0.1C351.1,28.4,351.3,28.4,352.2,28.3z"></path>
	<path class="stblack" d="M363.6,19.5c-1.6,0.1-2.7,0.2-2.8,0.2c0.9-0.1,1.8-0.1,2.7-0.2C363.5,19.5,363.6,19.5,363.6,19.5z"></path>
	<path class="stblack" d="M377.5,18.9c0.3,0,0.7,0,1,0C378.2,18.9,377.8,18.9,377.5,18.9z"></path>
	<path class="stblack" d="M367.8,27.1c-0.1,0-0.3,0-0.5,0c0.8,0,1.4-0.1,1.7-0.1C368.8,27.1,368.4,27.1,367.8,27.1z"></path>
	<path class="stblack" d="M376.8,18.9c0.2,0,0.4,0,0.7,0C377.3,18.9,377,18.9,376.8,18.9z"></path>
	<path class="stblack" d="M368.7,19.2c2.2-0.1,4.9-0.2,8.1-0.3C374.1,19,371.2,19.1,368.7,19.2z"></path>
	<path class="stblack" d="M341.1,21.6c-1.6,0.2-3.3,0.4-5,0.6c0.3,0,0.5-0.1,0.8-0.1C338.5,21.9,339.9,21.7,341.1,21.6z"></path>
	<path class="stblack" d="M330.8,23c-0.3,0-0.5,0.1-0.8,0.1C330.3,23.1,330.5,23,330.8,23C330.8,23,330.8,23,330.8,23z"></path>
	<path class="stblack" d="M193.1,99.9c8.4-8.8,17.7-16.9,27-23.9c9.4-7,18.9-13.1,27.8-17.9c17.8-9.7,32.7-15,38.7-17c12.9-4.1,24.7-6.7,34.9-8.6
		c2.6-0.5,5-0.9,7.4-1.3c2.4-0.4,4.6-0.8,6.8-1.1c4.4-0.5,8.3-1.1,11.8-1.4c1.6-0.2,3-0.3,4.4-0.4c0.2,0,0.5,0,0.8-0.1
		c-0.1,0-0.1,0-0.2,0c2.3-0.2,4.3-0.4,6.1-0.5c0,0,0.1,0,0.1,0c0,0,0,0-0.1,0c0.1,0,0.2,0,0.3,0c1-0.1,2.1-0.2,3.3-0.2
		c0.2,0,0.4,0,0.5,0c-0.1,0-0.2,0-0.3,0c1.3-0.1,2.8-0.2,4.4-0.3c0.1,0,0.2,0,0.3,0c-0.1,0-0.2,0-0.2,0c1.6-0.1,3.3-0.2,5.1-0.2
		c6.4-0.3,14.6-0.5,25-0.2c32.6,0.7,63.2,6.2,89.2,15.9c26.1,9.5,47,23.2,62.6,36.8c7.8,6.8,14.3,13.6,19.7,19.9
		c2.8,3.1,5.1,6.2,7.4,8.9c2.1,2.9,4.2,5.4,5.9,7.9c7.1,9.7,11.3,15.7,14.5,15.5c1,0,1.2-1.1,0.8-3.3c-0.4-2.2-1.4-5.5-3.3-9.6
		c-3.8-8.3-11.1-20.6-23.8-34.1c-12.7-13.4-30.7-28-55-39.9c-24.2-11.8-54.4-20.5-88.8-24c-16.3-1.7-29-1.9-38.6-1.9
		c-0.6,0-2.4,0-6.1,0.1c-1.2,0-2.3,0-3.3,0.1c1.1,0,2.1,0,3.1-0.1c-3,0.1-7.2,0.2-12.8,0.4c-0.2,0-0.3,0-0.4,0c0.1,0,0.2,0,0.3,0
		c-0.2,0-0.5,0-0.7,0c-1,0-1.9,0.1-2.8,0.1c-0.3,0-0.7,0-1,0c-0.2,0-0.4,0-0.6,0c0.4,0,0.9-0.1,1.4-0.1c-0.5,0-1,0.1-1.5,0.1
		c-2,0.2-2.8,0.2-2.7,0.2c-0.8,0.1-1.6,0.1-2.3,0.2c-3.2,0.2-6,0.5-8.6,0.7c-1.6,0.1-3.1,0.3-4.4,0.4c-0.3,0-0.6,0.1-1,0.1
		c-0.9,0.1-2,0.3-3.3,0.4c0,0,0.1,0,0.1,0c-1.4,0.2-2.7,0.3-3.8,0.5c-0.2,0-0.3,0-0.5,0.1c-1.6,0.2-3.4,0.5-5.5,0.8
		c1.4-0.2,3-0.4,4.7-0.7c-2.3,0.3-4.1,0.6-5.3,0.8c0.1,0,0.2,0,0.3,0c-0.1,0-0.2,0-0.3,0.1c-0.1,0-0.2,0-0.3,0
		c-1.5,0.2-2.3,0.4-2.6,0.4c-0.3,0.1,0.5-0.1,2.1-0.3c-2.5,0.4-5.2,0.8-8.3,1.4c-11.5,2.1-27.5,5.5-48.5,12.9
		c-9.4,3.3-27.6,10.1-47.7,21.9c-20.1,11.7-41.4,29.4-57.3,49.5c-8,10-14.7,20.5-19.8,30.6c-2.4,5.1-4.8,9.9-6.5,14.6
		c-0.9,2.4-1.8,4.5-2.4,6.8c-0.7,2.2-1.3,4.3-1.9,6.3c-0.6,2-1,3.9-1.4,5.7c-0.4,1.8-0.7,3.5-1,5c-0.5,3.1-0.6,5.8-0.6,7.7
		c0,4,0.7,5.5,2.3,4c1.1-1,2.2-2.6,3.3-4.7c0.6-1.1,1.1-2.3,1.7-3.6c0.6-1.3,1.3-2.7,2-4.2c0.7-1.5,1.4-3.1,2.1-4.9
		c0.8-1.7,1.6-3.5,2.5-5.4c1.6-3.8,3.7-7.8,5.7-12.1c4.4-8.5,9.7-17.9,16.2-27.3C177,118.1,184.7,108.7,193.1,99.9z M387.1,18.7
		c0,0,0.1,0,0.1,0c-0.8,0-1.6,0-2.4,0C385.8,18.7,386.6,18.7,387.1,18.7z M366.1,27.2c0.1,0,0.2,0,0.4,0
		C366.3,27.2,366.2,27.2,366.1,27.2z M363.9,27.4c0.7-0.1,1.3-0.1,1.8-0.1C365.1,27.3,364.5,27.3,363.9,27.4z M367.8,19.3
		c-0.9,0-1.8,0.1-2.5,0.1C366.1,19.3,367,19.3,367.8,19.3z M345.7,21C349,20.7,350.3,20.6,345.7,21L345.7,21z"></path>
	<path class="stblack" d="M705.7,421.7c0.5-0.6,1-1.1,1.3-1.6c-0.4,0.5-0.9,1.1-1.5,1.8C705.6,421.9,705.7,421.8,705.7,421.7z"></path>
	<path class="stblack" d="M702.2,425.6c0,0,0.1-0.1,0.1-0.1c0.1-0.1,0.2-0.2,0.3-0.3c-0.1,0.1-0.2,0.2-0.3,0.3C702.3,425.5,702.3,425.6,702.2,425.6z
		"></path>
	<path class="stblack" d="M688.5,439.4c-0.1,0.1-0.2,0.2-0.2,0.2c-0.2,0.1-0.3,0.2-0.4,0.4c-0.2,0.2-0.4,0.4-0.6,0.5c1-0.8,2.7-2.4,4.6-4.3
		c-0.6,0.6-1.2,1.2-1.9,1.8C689.5,438.5,689,438.9,688.5,439.4z"></path>
	<path class="stblack" d="M701.4,426.5c-0.1,0.1-0.2,0.2-0.3,0.3C701.2,426.7,701.3,426.6,701.4,426.5z"></path>
	<path class="stblack" d="M748.8,285.4c-0.1-0.8-0.2-1.5-0.3-2.3c-0.2-0.7-0.3-1.5-0.5-2.3c-0.3-1.5-0.7-3.1-1-4.6c-0.7-3-1.5-6.2-2.3-9.3
		c-3.4-12.7-8.1-26.1-14.2-39.4c-6.1-13.2-13.7-26.2-22.5-37.8c-8.8-11.5-18.8-21.7-29-29.5c-10.2-7.9-20.5-13.4-29.3-17
		c-8.8-3.6-16.1-5-20.6-5.4c-4.5-0.3-6.3,0.3-4.6,2c1.1,1.2,2.9,2.4,5.2,3.7c2.3,1.4,5.2,2.9,8.5,4.7c6.6,3.6,14.8,8.1,23.5,14.4
		c8.7,6.2,17.9,14.1,26.5,23.7c8.7,9.5,16.7,20.6,23.7,32.4c7,11.8,12.9,24.5,17.7,36.9c2.4,6.2,4.4,12.4,6.3,18.4
		c0.9,3,1.7,6,2.5,8.8c0.2,0.7,0.4,1.4,0.6,2.1c0.1,0.7,0.2,1.4,0.4,2.1c0.2,1.4,0.5,2.8,0.7,4.2c1.8,11.1,2,21.3,1.6,29.4
		c0,2-0.2,3.9-0.4,5.7c-0.2,1.8-0.3,3.4-0.5,4.9c-0.5,3-0.8,5.4-1.1,7.1c-1.5,7.4-3.5,14.3-5.7,20.7c-2.3,6.3-4.6,12.2-7.3,17.4
		c-5.1,10.5-10.4,18.8-15,25.3c-1.3,1.9-2.6,3.6-3.8,5.2c-0.5,0.7-1.2,1.6-2.1,2.8c0.2-0.3,0.4-0.5,0.6-0.8c-0.3,0.4-0.7,0.8-1,1.3
		c-0.1,0.1-0.1,0.2-0.2,0.3c-0.1,0.2-0.3,0.4-0.4,0.6c-0.2,0.3-0.5,0.5-0.7,0.8c0.1-0.2,0.2-0.3,0.4-0.5c-0.4,0.5-0.8,0.9-1.1,1.4
		c-0.3,0.4-0.6,0.7-0.9,1.1c-0.6,0.7-1.2,1.4-1.7,2.1c0,0,0,0,0,0c-0.1,0.1-0.1,0.2-0.2,0.2c-0.1,0.1-0.2,0.2-0.2,0.3
		c0.1-0.1,0.2-0.2,0.3-0.3c-2.3,2.5-3.6,4-3.9,4.4c-0.8,0.8-1.5,1.7-2.4,2.6c-4.9,5.3-11.6,11.7-20.6,19.1
		c-14.3,11.5-29.6,20.9-45.1,28.1c-1.9,0.9-3.9,1.7-5.9,2.6l-2,0.9c-0.4,0.1-0.6,0.5-1,0.8l-0.8,0.8l-2.3,2.2c-1.5,1.5-3,3-4.6,4.5
		l-2.5,2.4c-0.6,0.6-1.3,1.1-1.4,2l-0.7,2.1c-0.7,1.9-1.2,3.8-2,5.6c-0.8,1.8-1.6,3.6-2.4,5.4c-0.9,1.7-1.9,3.4-2.8,5
		c-0.9,1.7-2.1,3.2-3.1,4.7c-8.8,12.2-20.9,20.8-33.3,26.3c-6.2,2.8-12.4,5-18.5,6.7c-0.8,0.2-1.5,0.4-2.3,0.7
		c-0.8,0.2-1.5,0.4-2.3,0.6c-1.5,0.4-3,0.7-4.5,1.1c-3,0.6-5.9,1.2-8.8,1.7c-11.6,2-22.2,2.7-31.7,3.1c-9.5,0.4-17.7,0.4-24.5,0.3
		c-13.7-0.1-21.8-0.2-23.8,2.4c-1.2,1.5,3.5,4,13.7,5.8c5.1,0.9,11.5,1.7,19.3,2.1c7.8,0.4,16.8,0.4,27.2-0.3
		c10.3-0.8,21.9-2.2,34.4-5.5c6.3-1.6,12.8-3.7,19.4-6.4c6.6-2.7,13.3-6.1,19.8-10.5c6.5-4.4,12.8-9.7,18.3-16.2
		c5.6-6.4,10.2-14.2,13.5-22.6c1-2.1,1.5-4.3,2.3-6.5l0.5-1.6l0.1-0.3l1.6-1.6c1.6-1.6,3.1-3.1,4.7-4.7c0.8-0.8,1.6-1.6,2.4-2.4
		l0.6-0.6l0.8-0.3c8.5-3.7,17-8.1,25.5-13.2c9.2-5.5,16.8-10.9,23.2-15.8c5.1-3.9,9.4-7.6,13-10.9c0,0-0.1,0.1-0.1,0.1
		c-1.2,1-1.2,1,0.7-0.6c0.2-0.2,0.4-0.4,0.6-0.6c1.1-1,2.6-2.4,4.6-4.3c-0.4,0.4-0.8,0.8-1.2,1.2c4-3.8,7-6.9,9.3-9.5
		c-1.8,1.9-3.7,3.9-5.6,5.9c1.8-1.8,3.9-4,6.4-6.7c-0.1,0.2-0.3,0.3-0.4,0.5c0.2-0.2,0.3-0.3,0.5-0.5c0,0,0-0.1,0.1-0.1
		c0.1-0.1,0.2-0.2,0.2-0.3c0,0.1-0.1,0.1-0.1,0.2c0.1-0.1,0.2-0.2,0.3-0.3c1.9-2.1,3.7-4.1,5.3-6c-0.2,0.2-0.3,0.4-0.6,0.7
		c0.3-0.3,0.5-0.6,0.6-0.8c6.6-7.9,11.1-14.3,14.3-19.1c-0.2,0.3-0.4,0.6-0.6,1c-0.3,0.5-0.6,0.9-0.9,1.4c1-1.5,2.2-3.3,3.6-5.6
		c1.4-2.4,2.5-4.2,3.4-5.6c-0.7,1.1-1.4,2.4-2.3,3.8c0.9-1.4,1.8-2.9,2.8-4.7c0,0,0.1-0.1,0.1-0.1c0.1-0.2,0.2-0.4,0.3-0.6
		c1.4-2.5,2.9-5.2,4.4-8.4c3-6,6.2-13.4,9.2-22.4c3-9,5.7-19.8,7.2-32.5c0.4-2.8,0.6-6.4,0.9-10.5c0.1-4.1,0.3-8.8,0.1-13.9
		C750,297,749.6,291.5,748.8,285.4z M697.8,418.7c0,0,0.1-0.1,0.1-0.2c-0.5,0.6-1,1.2-1.6,1.8C696.6,420.1,697.1,419.5,697.8,418.7z
		 M694.4,433.8c-0.2,0.2-0.4,0.4-0.7,0.6C693.9,434.2,694.1,434,694.4,433.8z M701.5,414.4C701.6,414.4,701.6,414.4,701.5,414.4
		C701.5,414.4,701.5,414.5,701.5,414.4C701.5,414.5,701.5,414.4,701.5,414.4z M708.1,406.2c0.1-0.1,0.2-0.3,0.3-0.3
		C709.1,405,709.1,404.9,708.1,406.2z M718.5,405.2C716.3,408.4,715.5,409.5,718.5,405.2L718.5,405.2z M729.1,388.3
		c0.1-0.2,0.2-0.4,0.3-0.5C729.5,387.6,729.4,387.8,729.1,388.3z"></path>
	<path class="stblack" d="M705.5,422C705.5,422,705.5,421.9,705.5,422c-0.1,0.1-0.2,0.2-0.3,0.3C705.3,422.2,705.4,422,705.5,422z"></path>
	<path class="stblack" d="M723.8,397.3c-0.6,0.9-1.2,1.9-1.9,2.9c1.1-1.6,2.2-3.4,3.2-5c-0.4,0.6-0.7,1.2-1.1,1.8C724,397.1,723.9,397.2,723.8,397.3
		z"></path>
	<path class="stblack" d="M703.9,423.7c-0.4,0.5-0.8,0.9-1.3,1.4C703.1,424.7,703.5,424.2,703.9,423.7z"></path>
	<path class="stblack" d="M705.2,422.3c-0.4,0.4-0.8,0.9-1.3,1.5C704.4,423.2,704.8,422.7,705.2,422.3z"></path>
	<path class="stblack" d="M705.5,409.6c-0.4,0.5-0.9,1.1-1.4,1.7c0.2-0.3,0.5-0.6,0.8-0.9C705.1,410.1,705.3,409.8,705.5,409.6z"></path>
	<path class="stblack" d="M700.3,415.9c0,0.1-0.1,0.1-0.1,0.2C700.2,416,700.2,416,700.3,415.9C700.3,415.9,700.3,415.9,700.3,415.9z"></path>
	<path class="stblack" d="M288.9,555.7c-8.8-0.3-21.9,0-38.6-2c-4.8-0.6-8.2-1.1-10.6-1.5c-0.7-0.1-1.7-0.3-3.2-0.5c-3.5-0.7-5.8-1.1-7.3-1.4
		c0.2,0,0.3,0.1,0.5,0.1c-0.4-0.1-0.9-0.2-1.5-0.3c-1.8-0.3-1.4-0.3-0.4-0.1c-0.7-0.1-1.4-0.3-2.2-0.5c-2.7-0.7-6.5-1.5-11.4-3.3
		c-0.6-0.2-1.2-0.4-2-0.7c-0.7-0.4-1.6-0.8-2.5-1.2c-0.9-0.5-1.9-1-3-1.5c-1-0.6-2.1-1.3-3.2-2c-4.5-2.8-9.2-6.5-13.5-10.5
		c-4.3-3.9-8.5-7.7-11.9-9.9c-3.4-2.2-6-2.8-7.1-0.5c-1.4,3.1-0.2,7,2.7,11.1c2.8,4.1,7.6,8.6,13.1,12.4c5.4,3.9,11.9,6.4,17,8.1
		c2.6,0.7,4.9,1.4,6.8,1.8c1.9,0.4,3.3,0.7,4,0.9c6.7,2.1,11.9,3.2,15.5,3.9c0.4,0.1,0.8,0.2,1.1,0.2c0,0,0,0,0,0c0,0,0,0,0.1,0
		c0.6,0.1,1.2,0.2,1.7,0.3c1.7,0.3,4.6,0.8,9.6,1.5c16.3,2.3,30.7,4.8,41.3,5.7c10.6,0.8,17.3-0.1,18.1-5.6
		C302.2,556.8,297.7,555.9,288.9,555.7z M230.8,550.6C230.8,550.6,230.8,550.6,230.8,550.6C231.9,550.8,232.4,550.9,230.8,550.6z
		 M236.4,551.7c1,0.2,2.3,0.4,3.2,0.5C233,551.2,234.1,551.2,236.4,551.7z"></path>
	<path class="stblack" d="M232.7,558.6c-0.7-0.1-1.3-0.3-1.6-0.3C231.4,558.3,231.9,558.4,232.7,558.6z"></path>
	<path class="stblack" d="M233.5,558.7c1,0.2,1.8,0.3,1.8,0.3s-0.5-0.1-1.4-0.2c-0.3-0.1-0.7-0.1-1.2-0.2c0,0,0,0,0,0
		C233,558.6,233.2,558.7,233.5,558.7z"></path>
	<path class="stblack" d="M229.2,550.3c-0.6-0.1-1.1-0.2-1.5-0.3c0.2,0,0.3,0.1,0.4,0.1C228.4,550.1,228.8,550.2,229.2,550.3z"></path>
	<path class="stblack" d="M231,558.2C231,558.2,231,558.2,231,558.2C231,558.2,231.1,558.3,231,558.2C231.1,558.3,231.1,558.3,231,558.2
		C231,558.2,231,558.2,231,558.2z"></path>
	<path class="stblack" d="M374.1,609.1c-0.1,0,0.5,0,1.4-0.2c-0.1,0-0.3,0-0.4,0C374.8,609.1,374.4,609.1,374.1,609.1z"></path>
	<path class="stblack" d="M362.3,609.9c0.2,0,0.3,0,0.5,0c-0.3,0-0.6,0-0.8,0C362.1,609.8,362.2,609.8,362.3,609.9z"></path>
	<path class="stblack" d="M372.5,603C372.5,603,372.5,603,372.5,603C372.5,603,372.5,603,372.5,603z"></path>
	<path class="stblack" d="M375.5,609c0.1,0,0.1,0,0.2,0c0.4-0.1,1-0.2,1.6-0.3c-0.1,0-0.3,0-0.4,0.1C376.4,608.8,375.9,608.9,375.5,609z"></path>
	<path class="stblack" d="M368.1,609.7c0,0,0.1,0,0.1,0c0.2,0,0.4,0,0.7,0c-0.1,0-0.3,0-0.4,0c0.5,0,0.8-0.1,0.9-0.1c1.8-0.1,3.4-0.3,4.7-0.5
		c0,0,0.4-0.1,1-0.1c1.3-0.2,2.4-0.4,3.3-0.5c0.1,0,0.1,0,0.2,0c0.7-0.1,1.6-0.3,2.6-0.5c-0.5,0.1-1.3,0.3-2.1,0.4
		c1-0.2,1.7-0.3,2.2-0.4c0.9-0.2,2-0.4,3.2-0.7c4.4-1,10.4-2.7,18.2-5.9c3.5-1.5,10.4-4.1,18-9c3.8-2.4,7.7-5.5,11.3-9.2
		c3.6-3.6,6.7-8.1,9-12.7c2.3-4.6,3.8-9.5,4.4-14c0.6-4.5,0.4-8.8-0.4-12.1c-0.8-3.3-2-5.8-3.1-7c-1.1-1.3-2.1-1.4-2.8-0.4
		c-0.5,0.7-0.8,1.5-1.1,2.5c-0.2,1-0.5,2.1-0.6,3.3c-0.3,2.4-0.6,5.3-1.2,8.6c-1.1,6.5-3.7,14.4-8.5,21.4c-4.7,7-11.6,12.9-17.7,17
		c-6.2,4.1-11.5,6.6-13.7,7.4c-9.4,3.5-17.1,5-22.2,5.7c-0.5,0.1-1,0.1-1.5,0.2c0.1,0,0,0-0.4,0c0.1,0,0.1,0,0.2,0
		c0.1,0,0.1,0,0.2,0c-0.3,0-0.6,0.1-0.8,0.1c-0.3,0-0.7,0.1-1.2,0.1c0.3,0,0.5,0,0.7-0.1c-0.2,0-0.4,0-0.6,0.1c-0.2,0-0.4,0-0.5,0
		c0,0,0,0,0.1,0c-2.4,0.1-6.8,0.6-14.2-0.1c-5.9-0.6-11.5-2.2-16.3-4.6c-2.4-1.2-4.8-2.6-6.8-4.1c-1-0.8-2-1.5-2.9-2.4
		c-0.9-0.9-1.8-1.7-2.5-2.7c-3.1-3.7-5.4-7.8-6.8-11.8c-1.4-4-2.1-8-2.4-11.5c0-0.9,0-1.8-0.1-2.6c0-0.8,0.1-1.7,0.1-2.4
		c0-1.6,0.4-3,0.6-4.4c0.3-1.4,0.6-2.6,0.9-3.8c0.4-1.1,0.7-2.2,1-3.2c0.4-0.9,0.7-1.8,1-2.7c0.2-0.9,0.5-1.5,0.7-2.3
		c0.3-1.4,0.2-2.7-0.5-3.7c-0.4-0.6-1-0.8-1.9-0.5c-0.5,0.2-1,0.4-1.6,0.8c-0.6,0.4-1.3,0.9-1.9,1.6c-2.7,2.7-5.9,8.1-6.8,15.8
		c-0.4,3.8-0.3,8.1,0.6,12.6c0.9,4.5,2.6,9.2,5.2,14c2.6,4.7,6.3,9.4,11.2,13.3c1.3,0.9,2.5,1.9,3.9,2.7c1.4,0.8,2.7,1.7,4.2,2.3
		c1.5,0.7,2.9,1.5,4.5,2c0.8,0.3,1.6,0.6,2.3,0.9c0.8,0.2,1.6,0.5,2.4,0.8c7.1,2.1,12.5,2.5,16.4,2.7c-0.5,0-0.9,0-1.2,0
		c-0.6,0-0.5,0,0.5,0c0.4,0,1,0,1.7,0.1c0.2,0,0.4,0,0.6,0c-0.1,0-0.3,0-0.4,0c0.4,0,0.9,0,1.4,0c0,0-0.1,0-0.1,0c0.2,0,0.5,0,0.7,0
		c0.7,0,1.5,0,2.5,0C366.9,609.8,367.6,609.8,368.1,609.7z M381.2,608c0.4-0.1,0.7-0.2,0.8-0.2C382.1,607.8,381.8,607.9,381.2,608z
		 M366.5,609.8c0,0-0.1,0-0.1,0c0.6,0,1.1-0.1,1.6-0.1C367.5,609.7,367,609.8,366.5,609.8z M367.1,603.5c0.2,0,0.5,0,0.8-0.1
		C367.6,603.4,367.3,603.5,367.1,603.5z M364.6,609.8c0.2,0,0.4,0,0.6,0c0,0,0.1,0,0.1,0C365.1,609.8,364.9,609.8,364.6,609.8z"></path>
	<path class="stblack" d="M370.4,603.2c-0.1,0-0.2,0-0.4,0c0,0,0.1,0,0.1,0C370.3,603.2,370.4,603.2,370.4,603.2z"></path>
	<path class="stblack" d="M377.3,608.7c0.6-0.1,1.2-0.2,1.7-0.3c-0.2,0-0.3,0.1-0.5,0.1C378.1,608.6,377.7,608.6,377.3,608.7z"></path>
	<path class="stblack" d="M369.4,609.6c-0.2,0-0.3,0-0.5,0C369.3,609.6,369.5,609.6,369.4,609.6z"></path>
	<path class="stblack" d="M415.5,651.9c0.1,0,0.1-0.1,0.2-0.1c-0.2,0.1-0.3,0.1-0.5,0.2c0,0,0.1,0,0.1-0.1C415.3,652,415.4,651.9,415.5,651.9z"></path>
	<polygon points="421.1,648.9 421.1,648.9 421.1,648.9 	"></polygon>
	<path class="stblack" d="M412.4,653.1c0.1,0,0.3-0.1,0.5-0.2C412.8,652.9,412.6,653,412.4,653.1z"></path>
	<path class="stblack" d="M423.1,655.1c0.1-0.1,0.1-0.1,0.2-0.1c-0.2,0.1-0.3,0.2-0.5,0.3C422.9,655.2,423,655.1,423.1,655.1z"></path>
	<path class="stblack" d="M420.8,656.4c-0.1,0.1-0.2,0.1-0.3,0.2C420.6,656.5,420.7,656.4,420.8,656.4z"></path>
	<path class="stblack" d="M412.4,653.1C412.4,653.1,412.4,653.1,412.4,653.1C412.4,653.1,412.4,653.1,412.4,653.1
		C412.4,653.1,412.4,653.1,412.4,653.1z"></path>
	<path class="stblack" d="M422.5,655.4c0,0,0.1-0.1,0.1-0.1c0.1,0,0.1-0.1,0.2-0.1c0,0-0.1,0.1-0.2,0.1C422.6,655.4,422.6,655.4,422.5,655.4z"></path>
	<path class="stblack" d="M413.2,652.8c-0.1,0-0.2,0.1-0.3,0.1C413,652.9,413.1,652.8,413.2,652.8z"></path>
	<path class="stblack" d="M423.3,654.9c0.3-0.2,0.5-0.3,0.7-0.4c-0.1,0.1-0.2,0.2-0.4,0.2C423.6,654.8,423.4,654.9,423.3,654.9z"></path>
	<path class="stblack" d="M419.9,656.8c0,0,0.2-0.1,0.5-0.3c-0.1,0.1-0.3,0.1-0.4,0.2c0,0,0,0,0,0c0.4-0.2,0.9-0.4,1.2-0.6c-0.2,0.1-0.4,0.2-0.5,0.3
		c0.2-0.1,0.3-0.2,0.5-0.3c0.1-0.1,0.2-0.1,0.3-0.2c0.3-0.1,0.5-0.3,0.9-0.5c-0.1,0.1-0.2,0.1-0.3,0.2c0.2-0.1,0.3-0.2,0.5-0.3
		c0.3-0.2,0.6-0.4,1-0.6c0.5-0.3,0.8-0.5,0.8-0.5s-0.2,0.1-0.4,0.3c0.4-0.2,0.8-0.5,1.2-0.8c1.6-1.1,3.6-2.5,5.7-4.9
		c1.7-1.9,3.1-4.3,3.8-6.8c0.7-2.5,0.7-5.2,0.3-7.6c-0.5-2.5-1.4-4.8-2.8-6.8c-1.4-2-3.3-3.8-5.3-5c-4.2-2.4-8.5-2.9-12.2-3
		c-3.7-0.1-6.8,0-9.7,0.1c-9.1,0.4-15.6,1.3-18.1,4c-0.6-0.1-1.2-0.2-1.9-0.1c-2.5,0.2-5.3,1.6-7.6,3.8c-2.4,2.2-4.4,4.9-6.1,7.8
		c-0.9,1.6-1.9,3.4-2.5,5.9c-0.6,2.5-0.5,5.5,0.5,8c1,2.5,2.5,4.5,4.2,6c1.7,1.5,3.4,2.6,5.2,3.5c1.8,0.9,3.6,1.5,5.3,1.9
		c1.7,0.4,3.3,0.7,4.8,1c6.1,0.8,10.8,0.2,12.6,0.1c8-0.4,13.9-2.4,17.6-4.2C419.3,657.1,419.6,656.9,419.9,656.8z M420.1,649.6
		c0.1,0,0.1-0.1,0.2-0.1C420.2,649.5,420.1,649.5,420.1,649.6C420.1,649.5,420.1,649.5,420.1,649.6z M424.7,646.3
		C424.8,646.2,424.8,646.2,424.7,646.3L424.7,646.3z M414.2,652.4c-0.2,0.1-0.4,0.1-0.6,0.2c-0.1,0-0.2,0.1-0.3,0.1
		c0.1,0,0.2-0.1,0.2-0.1c-0.5,0.2-0.9,0.3-1.1,0.4c0,0-0.1,0-0.1,0c0,0,0.1,0,0.1,0c-0.2,0.1-0.3,0.1-0.4,0.1
		c-0.5,0.2-1,0.3-1.6,0.5c-2.8,0.7-6.8,1.7-12.3,1.5c-2.4-0.1-7.3-0.8-12.3-3.1c-2.3-1.1-4.7-2.7-6-4.5c-0.6-0.9-1-1.7-1.1-2.4
		c-0.1-0.7,0-1.3,0.4-2.3c0.4-1,1-2.2,1.8-3.5c0.8-1.3,1.5-2.6,2.2-3.7c1.4-2.2,2.7-3.8,3.7-4.9c0.8-0.8,1.4-1.4,1.9-2
		c2.4,0.4,6.3,0.4,11.5,0c2.4-0.2,5.2-0.4,8.2-0.7c3.1-0.3,6.2-0.6,9.3-0.5c3.1,0.2,6,1,8,3c2.1,2,3.4,5.6,2.9,9
		c-0.6,3.5-2.9,5.7-4.6,7.2c0,0-0.1,0.1-0.1,0.1c-0.4,0.3-0.7,0.6-1,0.8c-0.1,0.1-0.3,0.2-0.4,0.3c-0.2,0.1-0.3,0.2-0.4,0.3
		c-0.3,0.2-0.6,0.4-1,0.7c0,0,0,0,0,0c-0.1,0.1-0.3,0.2-0.4,0.2c0.1-0.1,0.2-0.1,0.3-0.2c0,0,0.1,0,0.1-0.1
		c-1.7,1.1-3.2,1.8-4.4,2.4c0,0-0.1,0-0.3,0.1c-0.3,0.1-0.5,0.2-0.7,0.3c0.2-0.1,0.3-0.1,0.4-0.2c-0.1,0-0.2,0.1-0.3,0.2
		c-0.1,0-0.2,0.1-0.3,0.1c-0.1,0-0.1,0-0.2,0.1c-0.1,0.1-0.3,0.1-0.4,0.2c0.1,0,0.1-0.1,0.2-0.1c0,0,0.1,0,0.1,0
		C414.8,652.2,414.4,652.3,414.2,652.4z M423.5,647.2c-0.2,0.1-0.3,0.2-0.5,0.4C423.2,647.5,423.4,647.4,423.5,647.2z M422.9,647.7
		c-0.1,0.1-0.2,0.1-0.2,0.2C422.7,647.8,422.8,647.8,422.9,647.7z M422.4,648.1c0,0-0.1,0-0.1,0.1
		C422.3,648.1,422.4,648.1,422.4,648.1z"></path>
	<path class="stblack" d="M452.2,696.4c0.1-0.1,0.3-0.2,0.4-0.2c-0.1,0-0.1,0.1-0.2,0.1C452.4,696.4,452.3,696.4,452.2,696.4z"></path>
	<path class="stblack" d="M450.2,697.5c0.2-0.1,0.4-0.2,0.7-0.3c0,0-0.1,0-0.1,0C450.5,697.4,450.4,697.5,450.2,697.5z"></path>
	<path class="stblack" d="M451.7,696.8C451.7,696.8,451.7,696.7,451.7,696.8c0.1-0.1,0.1-0.1,0.1-0.1C451.8,696.7,451.8,696.7,451.7,696.8
		C451.7,696.7,451.7,696.8,451.7,696.8z"></path>
	<path class="stblack" d="M449.6,690.7C449.6,690.7,449.6,690.7,449.6,690.7C449.6,690.7,449.6,690.7,449.6,690.7
		C449.6,690.7,449.6,690.7,449.6,690.7z"></path>
	<path class="stblack" d="M446.3,692.4c-0.1,0-0.1,0.1-0.2,0.1C446.2,692.4,446.3,692.4,446.3,692.4z"></path>
	<path class="stblack" d="M444.5,693C444.5,693,444.5,693,444.5,693C444.5,693,444.5,693,444.5,693C444.5,693,444.5,693,444.5,693z"></path>
	<path class="stblack" d="M454.7,674.5c-2.8-1.7-5.8-2.1-8.1-2.3c-2.4-0.2-4.3-0.1-6.1-0.1c-5.6,0.1-9.5,0.9-11.1,3.4c-0.5-0.2-1-0.4-1.6-0.5
		c-1.8-0.1-3.9,0.7-5.6,2.1c-1.7,1.4-3.1,3.1-4.3,4.9c-0.6,1-1.4,2.3-1.8,4.1c-0.5,1.8-0.4,4.1,0.3,6c0.7,1.9,1.9,3.3,3.1,4.4
		c1.2,1.1,2.4,1.8,3.7,2.4c1.2,0.6,2.5,1,3.6,1.2c1.1,0.3,2.2,0.4,3.1,0.5c4,0.4,7-0.1,8.1-0.2c5.1-0.2,8.9-1.5,11.3-2.5
		c0.2-0.1,0.5-0.2,0.7-0.3c0,0,0.1,0,0.2-0.1c0,0-0.1,0-0.1,0.1c0,0,0,0-0.1,0c0.3-0.1,0.5-0.2,0.7-0.4c0.1,0,0.2-0.1,0.3-0.1
		c-0.1,0-0.1,0.1-0.2,0.1c0.1-0.1,0.2-0.1,0.3-0.1c0.2-0.1,0.3-0.2,0.5-0.3c0,0-0.1,0-0.1,0.1c0.1,0,0.1-0.1,0.2-0.1
		c0.1-0.1,0.2-0.1,0.3-0.2c-0.1,0-0.1,0.1-0.2,0.1c0.1,0,0.2-0.1,0.2-0.1c0.1,0,0.1-0.1,0.2-0.1c-0.1,0-0.1,0.1-0.2,0.1
		c0.1-0.1,0.2-0.1,0.3-0.2c0.3-0.2,0.5-0.3,0.5-0.3s-0.1,0.1-0.3,0.2c0.2-0.1,0.5-0.3,0.8-0.5c1-0.7,2.3-1.6,3.8-3.2
		c1.1-1.3,2.1-2.8,2.6-4.6c0.5-1.7,0.6-3.5,0.3-5.2C459.6,679.5,457.6,676.3,454.7,674.5z M449,691.1c0.1,0,0.1-0.1,0.2-0.1
		C449.1,691,449,691,449,691.1C449,691,449,691,449,691.1z M450.9,689.8c0.3-0.2,0.6-0.4,0.7-0.5C451.8,689,451.7,689.2,450.9,689.8
		z M453.7,685.9c-0.3,1.6-1.5,2.8-2.5,3.6c-0.2,0.1-0.3,0.2-0.5,0.4c-0.3,0.2-0.7,0.5-1.2,0.8c0.1-0.1,0.3-0.2,0.4-0.2
		c-0.3,0.2-0.5,0.3-0.7,0.4c0.1,0,0.1-0.1,0.2-0.1c0,0,0,0,0,0c-1,0.6-1.8,1-2.5,1.4c0,0,0,0-0.1,0c-0.2,0.1-0.4,0.2-0.6,0.2
		c0.1-0.1,0.2-0.1,0.3-0.1c-0.1,0-0.1,0.1-0.2,0.1c-0.1,0.1-0.3,0.1-0.5,0.2c0,0,0.1,0,0.1,0c0,0,0.1,0,0.1,0
		c-0.2,0.1-0.4,0.2-0.6,0.2c-0.1,0-0.2,0.1-0.3,0.1c-0.2,0.1-0.4,0.2-0.7,0.2c0.2-0.1,0.4-0.1,0.6-0.2c-0.3,0.1-0.5,0.2-0.6,0.2
		c0,0-0.1,0-0.1,0c0,0,0,0,0.1,0c-0.1,0-0.1,0-0.2,0.1c-0.3,0.1-0.6,0.2-1,0.3c-1.6,0.4-4,0.9-7.2,0.8c-1.4,0-4.2-0.7-7-2.1
		c-1.2-0.7-2.4-1.7-2.9-2.5c-0.2-0.4-0.2-0.6-0.2-0.7c0.1-0.1,0.1,0,0.2-0.4c0.3-0.7,1.6-2.8,2.3-3.9c0.8-1.3,1.4-2.1,1.7-2.7
		c0.2-0.4,0.3-0.7,0.5-1.1c1.5,0.5,3.8,0.5,7,0.3c1.5-0.1,3.2-0.3,5.1-0.4c1.9-0.2,3.8-0.4,5.5-0.4c1.7,0.1,3.2,0.5,4,1.3
		C453.3,682.5,454,684.3,453.7,685.9z M450.7,690c-0.1,0.1-0.2,0.2-0.3,0.2C450.5,690.1,450.6,690,450.7,690z"></path>
</g>
</svg>
