<!--?xml version="1.0" encoding="utf-8"?-->
<!-- Generator: Adobe Illustrator 22.1.0, SVG Export Plug-In . SVG Version: 6.00 Build 0)  -->
<svg version="1.1" id="_x31__1_" xmlns="http://www.w3.org/2000/svg" xmlns:xlink="http://www.w3.org/1999/xlink" x="0px" y="0px" viewBox="0 0 800 199.9" style="enable-background:new 0 0 800 199.9;" xml:space="preserve">
<style type="text/css">
	.st0{fill:#231815;}
</style>
<g>
	<path class="st0" d="M681.8,17.4C681.8,17.4,681.8,17.4,681.8,17.4C681.8,17.4,681.8,17.4,681.8,17.4
		C681.8,17.4,681.8,17.4,681.8,17.4z M478.4,20c0,0-0.1,0-0.2,0C478.9,20.2,478.3,20,478.4,20z M500.3,20
		C501.9,20,500.4,20,500.3,20L500.3,20z M502.6,19.8c0.1,0,0.2,0,0.3-0.1C502.8,19.8,502.7,19.8,502.6,19.8z M514.7,20.5
		c3.4-0.1,6.7-0.4,8.7-0.5c1.5-0.1,3.9,0.3,6.2,0.5c1.2,0,2.4,0,3.7,0c0.5-0.1,0.9-0.2,1.2-0.4c1.2-0.3,7.3-0.1,5.6-0.1
		c3.3,0,6.6,0,10,0c-14.4-0.3-29.4-0.8-43.9-0.1c1,0.2,2.2,0.4,3.5,0.4C511.3,20.5,513,20.5,514.7,20.5z M502.5,19.8
		c-0.5,0.1-1.2,0-1.8,0c0.1,0,0.2,0,0.3,0.1C501.4,19.9,502,19.9,502.5,19.8z M494.6,19.7c0.1,0,0.1,0,0.2,0
		C494.8,19.7,494.7,19.7,494.6,19.7C494.6,19.7,494.6,19.7,494.6,19.7z M547.2,17.3c0.3,0,0.8-0.1,0.9-0.1c-0.2,0-0.3-0.1-0.5-0.1
		c-0.4,0.1-0.6,0.1-0.8,0.1C547,17.3,547.1,17.3,547.2,17.3z M505.3,20.1c0,0-0.1,0-0.1,0c-0.1,0-0.1,0-0.2,0
		C505.1,20.1,505.2,20.1,505.3,20.1z M505.5,20c0,0-0.1,0-0.1,0C505.5,20.1,505.6,20.1,505.5,20z M505,20.1c-0.2,0-0.5,0-0.7,0
		C504.6,20.1,504.8,20.1,505,20.1z M779.3,17.3c0,0-0.1,0-0.1,0C778.7,17.4,778.4,17.5,779.3,17.3z M504.1,20.1c0.1,0,0.3,0,0.4,0
		c-0.2-0.1-0.4-0.1-0.6-0.2c-0.1,0-0.3,0-0.4,0.1C503.7,20,503.9,20.1,504.1,20.1z M503.7,20.1c0.2,0,0.4,0,0.6,0
		c-0.1,0-0.1,0-0.2,0C504,20.1,503.8,20.1,503.7,20.1z M24.5,21.2C24.5,21.2,24.4,21.2,24.5,21.2C24.5,21.2,24.5,21.2,24.5,21.2
		C24.5,21.2,24.5,21.2,24.5,21.2z M21.2,18.7C21.2,18.7,21.2,18.7,21.2,18.7C21.2,18.7,21.2,18.7,21.2,18.7z M21.9,20.5
		c0,0,0.2,0,0.4,0C22,20.4,21.7,20.4,21.9,20.5z M500.7,19.8c-0.5-0.1-1.2,0-1.2,0C499.8,19.8,500.3,19.8,500.7,19.8z M762,16.8
		c-0.1-0.8-0.2-1.7-0.3-2.6C761.8,15.1,761.9,16,762,16.8c-0.3,0-0.6,0-0.9,0c0.1-1.5,0.2-2.7,0.5-3.3c-0.7-5.2-2.3-11-6.8-7.6
		c0,0.1-1.8,4.2-1.5,4.2c-1.1,1.6,0.2,4.4,0.2,6.4c-39-0.7-77.6-1.8-116.3-1.1c-1.6-0.8-7.6,0-9.6,0c-4,0-7.4,0.4-11.8-0.1
		c-1.9,2.2-24.5-0.1-27.6-0.1c-12.8,0-25.7-0.3-38.5-0.2c-6.6,0.1-15.7,1.2-22.1-0.4c1.6-0.1,3.3-0.1,4.9,0c-0.8-1-6.6-0.1-7.9,0
		c0.3,0,0.7,0,1,0.1c-25.7,1.7-51.4-0.2-77.3-0.5c1.2,0.4,3.1,0.1,4.4,0.1c-1.4,0.2-5.7,0.1-5.4-0.1c-1.5,0-5.3,0.1-8.2-0.1
		c0,0,0,0.1,0.1,0.1c0.1,0,0.2,0,0.3,0c-0.1,0-0.2,0-0.3,0c-59.8-0.8-120.2-2.1-180.3-0.2c-36.2,1.1-72.6,0.6-108.8,0.5
		c-24.2,0-49-1.2-73.1,0.6c0.2,0,0.3,0,0.5-0.1c-5.7,0.3-12.2,0.6-17.8-0.1c5.2-0.2,10.4,0,15.7-0.3c-5.7,0.1-11.4,0.2-17.2,0.1
		c0.2,0.1,0.4,0.2,0.7,0.2c-8.6-0.1-17.2,0.3-25.8,0.8c0-0.1,0-0.2-0.1-0.3c0,0.1,0,0.2,0,0.3c-0.1,0-0.2,0-0.3,0
		c0-0.4,0.1-0.7,0.2-0.9c-0.9-5-2.7-10.4-7-7c0,0.1-1.6,4.1-1.4,4.1c-0.9,1.4,0.1,3.8,0.3,5.7c-1.1,0.4-3.3,1-3.5,1.1
		c1.5,0.2-0.1,0.1-1.2,0.5c0.7,0.1,4.2,0.3,1.9,0.8c0.6-0.1,1.4,0,2,0.1c-0.1,0.1-1.1,0.2-1.6,0.3c0.4,0.1,0.9,0.3,0.3,0.4
		c0.7,0.1,1.3,0.2,2,0.3c0.1,0,0.2-0.1,0,0c0,0,0,0,0,0c0,0-0.1,0-0.1,0c-0.1,0-0.2,0.1-0.4,0.2c0.4,0,0.6,0,0.7,0c0,0,0,0,0,0.1
		c-0.2,0-0.5,0-0.5,0c0.2,0.1,0.4,0.1,0.6,0.2c1,5,1.8,11.1,1.3,15.6c0.4,0,0.7,8.4,0.7,9.1c0.1,0,0.3-2,0.3-2.1
		c1,2.4,2.9,26.2,1.8,26.9c-0.4,0.8,0.6,15.2,0.9,22.5c0-0.1,0-0.1,0-0.1c0.1,0.2,0.1,0.2,0.1,0.1c0-0.5,0-0.1,0,0
		c0,0.2,0,0.5,0.1,1.1c0.2,0,0.2-0.7,0.2-1.1c0-0.1,0-0.2,0-0.2c0,0,0,0.1,0,0.2c0.7,5.6,0.5,40.6,1,55.9c-0.9,0.8-2.2,1.9-2.9,2.4
		c0.4,0.1,2,0.3,0.9,0.8c0.2,0,0.7,0,1,0.1c0,0.1-0.9,0.3-1,0.3c0.1,0.2,0.9,0.9,1.1,1.1c0,0,0,0,0,0c0.1,0.1,0.1,0.1,0,0
		c0.2,0.3,0.6,0.6,1.2,0.7c0.1,1,0.2,1.6,0.4,1.6c0-0.5,0-1,0-1.5c0.1,0,0.1,0,0.2,0c0,0.1,0,0.3,0,0.4c0.1-0.1,0.2-0.3,0.2-0.4
		c0.4,0,0.8,0.1,1.2,0.1c0,0.2,0.1,0.3,0.1,0.4c0-0.1,0-0.3,0-0.4c0.2,0,0.3,0,0.5,0c0,0.1,0.1,0.1,0.1,0.1c0,0,0-0.1,0-0.1
		c0.2,0,0.4,0,0.7,0c-0.1,1.4-0.2,2.8,0.5,3.4c0.2-1.1,0.4-2.2,0.5-3.4c0.3,0,0.7,0,1,0c0.4,3.8,0.6,8.2,0.2,8.7
		c-0.1-0.2-0.1-0.2,0.1,0.1c0.5-0.5,0.8-4.3,0.8-8.8c0.8,0.1,1.5,0.2,2,0.6c1.7-1,16.1,0,19.3,0.4c2.1-1.3,7.6-0.3,10.1-0.4
		c4.2,0,8.5-0.2,12.6-0.3c5.4-0.1,10.6-0.7,16.2-0.3c0.2-0.9,19.1-0.3,20.9-0.3c-0.5-0.4-4.1-0.4-4.9-0.4
		c12.8-1.9,27.3-0.2,40.6-0.4c5.1,0,17.5,1.3,20.7-0.2c2.2,0.3,10.9,0.7,11.7-0.1c4.5,0.3,49.7,1.3,49.9,0.3c-0.5,0-9.3,0.6-9.9-0.2
		c0.5,0,0.5-0.1,0.3-0.1c-1.5,0-0.4,0,0,0c0.5,0,1.3,0,2.5,0c0-0.1-1.4-0.2-2.4-0.2c-0.3,0-0.5,0-0.8,0c-0.4-0.1,0.1-0.1,0.8,0
		c13.5-0.6,27.4-0.7,41.5-0.7c-0.1,0-0.3,0-0.4,0c-8.8-0.2-17.5-0.2-26.1-0.1c-0.1,0-0.3,0-0.4,0c-2.2,0.1-4.9,0.2-7.3,0.2
		c-6.3,0.3-13,0.6-19.1-0.1c-1.7,0-3-0.2-3.4-0.5c1.1,0.2,2.2,0.4,3.4,0.5c4.4,0.1,11.7-0.6,13-0.6c1,0.5,3.4,0.7,6.1,0.7
		c2.5-0.1,5-0.2,7.3-0.2c1.6-0.1,2.9-0.2,3.8-0.3c0,0-0.1,0-0.1-0.1c1.2-0.8,7.7-0.5,10.9-0.2c0.4,0,0.8,0,0.9,0
		c-0.1,0.1-0.3,0.1-0.5,0.1c0.4,0.1,0.8,0.1,1,0.2c0.2,0,0.4,0,0.5,0c0.1,0,0.3-0.1,0.4-0.1c-0.2,0-0.4-0.1-0.5-0.1
		c-0.1,0-0.3,0-0.7,0c0.1-0.1,0.4,0,0.6,0c0,0,0,0,0,0c5.4-0.9,16.5-1,19.7-0.2c4,1.3,9.2-1,13.7,0.2c7-0.4,14.2,0,21.4,0.4
		c7-0.4,16-0.8,16.7,0.3c-4.1,0-8.3,0-12.6-0.1c4.2,0.2,8.3,0.4,12.4,0.5c0.1,0,0.1,0,0.2,0c0.2,0,0.4,0,0.6,0
		c5.1,0,10.2-0.2,15.1-0.9c0,0-0.1,0-0.1,0c-1.4,0.1-3,0.2-4.3-0.1c1.2-0.3,3.4-0.1,4.3,0.1c0.1,0,0.3,0,0.4,0c-0.1,0-0.2,0-0.3,0
		c0.2,0,0.3,0.1,0.3,0.1c0.3,0,1.7,0,3.5-0.1c0-0.1,0.5-0.1,0.7-0.1c0,0-0.2,0.1-0.3,0.1c2,0,4.5-0.1,6.6-0.1
		c-0.7-0.1-1.3-0.2-2-0.4c1.1,0,2.2-0.1,3.4-0.1c-1.8-0.1-3.5-0.4-4.9-0.3c0.1,0,0.3,0,0.4-0.1c-3.7-0.1,0.3,0.4-3,0
		c1-0.5,3.7,0,4.6,0c-0.4-0.1-0.9-0.1-1.3-0.1c0,0-0.1,0-0.2,0c0.1,0,0.1,0,0.2,0c0.1,0,0.1,0,0-0.1c1.1,0.1,8.6-0.7,9.2,0.2
		c0.5,0.2,11.3,0.6,13.7-0.4c-6.8-0.8-13.6-0.7-20.6-1.2c5.1-0.6,10.9,0,16.3,0.2c1.1,0,2.5-0.1,4-0.2c0,0.1,0.1,0.2,0.1,0.2
		c1.1,0.9,3.6,3.7,3.9,5c0.2-0.1,1.7,2.5,1.9,2.7c0,0-0.1-0.8-0.1-0.8c1.5,0.6,10.2,16.3,10.2,16.3c0,0-0.7-1.4-0.7-1.4
		c0.1,0.1,0.2,0.4,0.4,0.3c-0.1,0-0.1-0.1,0-0.2c-0.1,0.1-0.2,0-0.2-0.2c2.2,2.9,4.1,6.4,6,10.1c-1,3.1-1.9,6.2-2.4,9.2
		c0-0.3,0.2-0.6,0.4-0.8c-0.1,0.1-0.1,0.3-0.1,0.5c0.4-0.1,1.1-2.2,2-5c0.1-0.4,0.2-0.8,0.3-1.3c0.1-0.3,0.2-0.8,0.3-1.4
		c0,0.1,0,0.1,0.1,0.2c0,0.1,0,0.2-0.1,0.3c0-0.1,0.1-0.2,0.1-0.3c0,0,0,0,0,0c-0.1,0.3-0.2,0.6-0.3,0.9c-0.1,0.4-0.1,0.6-0.2,0.8
		c0,0,0,0,0-0.1c-0.1,0.3-0.2,0.6-0.3,0.9c-0.1,0.6-0.1,1.2,0.2,1.7c-0.1-1.7,0.3-0.6,0.2-0.6c0,0.3-0.1,0.7-0.3,1.1l0,0
		c0,0,0,0,0,0c0,0,0,0,0,0c0,0,0,0,0,0.1c0,0,0,0,0,0c-0.5,1-1.2,2.3-0.9,2.9c0.3-0.4,0.6-2,1-2.2c0,0.4-0.5,1.6-0.5,2.1
		c0,0,0,0,0,0c0.1,0,0,0.1,0,0.1c0,0,0,0,0,0c0,0.1,0,0.1,0.1,0.1c0.1-1.1,0.5-2.1,0.9-2.6c0.1,0.1,0.1,0,0.1-0.2
		c0.5,0.4-1.4,3.4-0.6,4.1c0.7-0.7,1-2,1.6-3c0,0.1-1.3,5.2-1,5.1c0-0.1,0-0.1,0,0l0,0c0,0,0,0,0,0.1c0.8-0.1,1.9-2.7,2.8-5.9
		c0.5,1,1.1,2,1.6,2.9c0.2-0.1-0.4-0.6-0.2-0.9c0.1,0.1,0.1,0.3,0.3,0.4c0.1-0.3-0.4-1.6-1.3-3.6c0.1-0.2,0.1-0.4,0.2-0.5
		c0.2,0.1,0.3,0.2,0.5,0.3c-0.2-0.2-0.3-0.3-0.4-0.4c0-0.1,0-0.2,0.1-0.2c0.1,0,0.1,0.1,0.1,0.1c0.2,0.2,0.3,0.6,0.5,1l0,0
		c0,0,0,0,0,0c0,0,0,0,0,0c0,0,0,0,0,0.1c0,0,0,0,0,0c0.4,1.1,0.7,2.5,1.4,2.7c-0.1-0.5-1-1.8-0.8-2.3c0.2,0.3,0.7,1.5,1,1.8
		c0,0,0,0,0,0c0.1,0,0.1,0,0.1,0.1c0,0,0,0,0,0c0,0,0.1,0.1,0.1,0.1c-0.7-0.9-1.1-1.9-1.2-2.4c0.1,0,0.1-0.1,0-0.2
		c0.7-0.1,1.4,3.4,2.4,3.3c0-1-0.6-2.2-0.9-3.2c0.1,0.1,2.7,4.6,2.8,4.3c0,0,0,0,0.1,0c0.8-0.9-1.9-6.1-4.3-10.4
		c0.6-2.5,1.1-4.4,1.2-4.8c0,0,1.9-6.4,1.6-5.8c-0.5-0.8,2.9-11.6,3.3-13.3c0.1-0.4,0.4-1.5,0.7-2.8c1.3,0,2.5,0.2,3.3,0.6
		c-0.2,0.1,6.1,0.5,6.7,0.5c4.3,0,8.9-0.6,13.2-0.1c2.2-1.4,7.8-0.3,10.4-0.4c4.4,0,8.7-0.2,13-0.3c5.6-0.1,10.8-0.7,16.7-0.3
		c0.3-1,19.4-0.3,21.5-0.3c-0.5-0.5-4.2-0.4-5-0.4c13.2-1.9,28.1-0.2,41.8-0.4c5.3,0,17.9,1.3,21.2-0.2c2.3,0.3,11.2,0.8,12-0.1
		c4.8,0.3,51.1,1.4,51.3,0.3c-0.6,0-9.5,0.6-10.2-0.2c0.5,0,0.5-0.1,0.3-0.1c-1.6,0-0.4,0,0,0c0.5,0,1.3,0,2.6,0
		c0-0.1-1.4-0.2-2.4-0.2c-0.3,0-0.5,0-0.8,0c-0.4-0.1,0.1-0.1,0.8,0c14.7-0.6,29.9-0.8,45.3-0.6c-10-0.2-19.9-0.2-29.8-0.2
		c0,0-0.1,0-0.1,0c-2.6,0.2-5.8,0.3-8.6,0.2c-6.2,0.3-12.7,0.6-18.6-0.1c-1.9,0-3.3-0.2-3.7-0.6c1.2,0.2,2.4,0.4,3.7,0.6
		c4.6,0.1,11.9-0.6,13.1-0.6c1,0.5,3.1,0.7,5.5,0.7c3-0.1,5.8-0.2,8.6-0.2c1.5-0.1,2.7-0.2,3.6-0.3c0,0-0.1,0-0.1-0.1
		c1.3-0.8,8-0.6,11.3-0.2c0.4,0,0.7,0,0.8,0c-0.1,0.1-0.2,0.1-0.4,0.1c0.4,0.1,0.8,0.1,1,0.2c0.2,0,0.4,0,0.5,0
		c0.1,0,0.2-0.1,0.3-0.1c-0.1,0-0.2-0.1-0.3-0.1c-0.1,0-0.3,0-0.8,0c0.1-0.1,0.5,0,0.7,0c0,0,0,0,0,0c0.5-0.1,1.3-0.1,2.2-0.1
		c3.9-0.4,9.3,0.1,14.2,0.4c1.1-0.1,1.9-0.2,2-0.5c0.8,0.3,1.6,0.4,2.5,0.6c2.9,0,5.8,0,8.7,0.1c0.3,0,0.7,0,1,0
		c7-0.5,14.7-1.6,20.6-0.2c2.3,0,4.7,0.1,7.1,0.2c6.5-0.3,14.3-0.5,15,0.4c-2,0-4,0-6,0c7.6,0.3,15.2,0.5,22.2-0.5c0,0-0.1,0-0.1,0
		c-1.4,0.1-3,0.2-4.4-0.1c1.3-0.3,3.5-0.1,4.4,0.1c0.1,0,0.3,0,0.4,0c-0.1,0-0.2,0-0.4,0c0.2,0,0.3,0.1,0.3,0.1c0.4,0,1.8,0,3.6-0.1
		c0-0.1,0.5-0.1,0.7-0.1c0,0-0.1,0.1-0.2,0.1c2,0,4.5-0.1,6.6-0.1c-0.6-0.1-1.3-0.2-1.9-0.4c1.1,0,2.3-0.1,3.5-0.1
		c-1.8-0.1-3.6-0.4-5-0.3c0.1,0,0.3,0,0.4-0.1c-3.8-0.1,0.4,0.4-3,0c1.1-0.5,3.8,0,4.7,0c-0.4-0.1-0.9-0.1-1.3-0.1c0,0-0.1,0-0.2,0
		c0.1,0,0.1,0,0.2,0c0.1,0,0.1,0,0-0.1c1.2,0.1,8.8-0.7,9.4,0.2c0.4,0.2,6.9,0.5,11.1,0.1c-0.1,3.2-0.1,6.4-0.1,9.5
		c0.1,0,0.1-2.3,0.3-2.5c0,0.5,0,0.9,0,1.3c0.5-0.8,0.7-4.6,0.8-8.4c0.3,0,0.5-0.1,0.7-0.1c-0.2,1.8-0.4,3.6,0,4.3
		c-0.1-0.8,0.1-0.4,0,0c0,0,0,0.1,0.1,0.1c-0.1,1-0.4,3.3-0.1,4.3c0.3-1.8-0.3-5.2,0.6-6.9c0,0.4,0.1,0.8,0.1,1.3
		c0-1.1,0.2-2.3,0.4-3.1c0.3,0.3,0,1.9,0,2.1c1.3-0.8-0.2,3.7,0.2,3.4c0.4,1.6-0.8,5.3,0.3,6.4c0.7-2.9,0.7-6.3,1.1-9.4
		c0.4,1.4,1.2,14,0.4,15c-0.1-0.2-0.1-0.2,0.1,0.1c1-0.8,1.4-12.7,1.5-19.4c3.5-0.4,7-0.7,9.2,0.1c-0.5,0.1-0.4,0.1,0.3-0.1
		c-2.3-1.3-6.3-0.5-9.6-0.3c0-2.5,0-4.3-0.1-4.3c-0.1-5-0.4-9.6,0.1-14.3c0.3-3.2,0.4-7.5,0.1-10.7c0.2-0.6,0.6-7.1,0.4-4.6
		c0.4-0.1,0.2-16.7,0.3-18.2c-0.1,0.3-0.2,0.6-0.1,0.9c-1.2-2.4-0.1-11.7,0.3-15.3c2.2-6.4-0.2-17.3-0.3-24c0-3.7-0.1-7.5-0.2-11.3
		c-0.2-5.7-2-14-0.7-19.5c-0.7-1.6-1.1-6.8-1.1-10.7c0.5,0,1,0,1.5-0.1c5.1,0.4,11.3-1.3,16.5-0.4c0.2,0,0.3-0.1,0.5-0.1
		C774.4,15.8,767.9,16.5,762,16.8z M29.8,92.2c0.1,0,0.1,0.2,0.1,0.3C29.8,92.5,29.8,92.3,29.8,92.2z M29.9,93.2
		c0-0.1,0-0.2,0.1-0.2C29.9,93.1,29.9,93.2,29.9,93.2z M226.1,154.2c-0.2,0-0.4,0-0.4-0.1C225.8,154.1,226.1,154.1,226.1,154.2z
		 M224.4,154.1c0,0.1-0.5,0-0.7,0C223.7,154.1,224.2,154.1,224.4,154.1z M356.8,150.4c0.2,0,0.4,0,0.4,0.1
		C356.9,150.5,356.7,150.5,356.8,150.4z M397,189.9C397,189.7,397.1,189.8,397,189.9L397,189.9z M397.1,189.8c-0.1,0,0-0.2,0.1-0.2
		C397.2,189.6,397,189.7,397.1,189.8z M397.2,189.3C397.2,189.4,397.1,189.5,397.2,189.3L397.2,189.3z M397.3,188.9
		C397.4,188.8,397.4,188.8,397.3,188.9C397.4,188.8,397.4,188.9,397.3,188.9z M398.2,188.5L398.2,188.5
		C398.3,188.5,398.2,188.6,398.2,188.5z M604.4,154.2c-0.2,0-0.4,0-0.4-0.1C604.1,154.1,604.4,154.1,604.4,154.2z M602.7,154.1
		c0,0.1-0.5,0-0.7,0C602,154.1,602.4,154.1,602.7,154.1z M757.8,107.1C757.8,107.1,757.8,107.2,757.8,107.1L757.8,107.1z
		 M757.8,107.7C758,107.9,757.8,107.8,757.8,107.7L757.8,107.7z M757.8,108c0,0.2,0,0.4-0.1,0.6C757.8,108.5,757.7,108.1,757.8,108z
		 M757.6,106.8C757.8,106.9,757.6,107.1,757.6,106.8L757.6,106.8z M757.7,108.7C758.4,110.3,757.2,108.8,757.7,108.7L757.7,108.7z
		 M757.5,110C757.6,109.2,757.6,109.9,757.5,110L757.5,110z M757.5,106.7c0-0.1,0-0.3,0.1-0.3C757.6,106.5,757.6,106.7,757.5,106.7z
		 M742.7,17.7c3.6-0.1,7.1,0,10.7,0c-0.1,0.2-0.2,0.4-0.3,0.6c0,0.1,0,0.2,0.1,0.3c-14.5-0.8-28.5-0.7-43.2-1.1
		C720.3,17,731.7,17.8,742.7,17.7z M712.8,17.7c-0.5,0-0.9,0-0.8-0.1C712.4,17.6,712.8,17.6,712.8,17.7z M709.4,17.5
		C707.9,17.6,708,17.5,709.4,17.5L709.4,17.5z M527.4,14.7c-0.4,0-0.9,0-1.3,0.1C526.5,14.6,526.9,14.6,527.4,14.7z M510.5,16.9
		c3.4-0.1,6.5-0.3,9.6,0.1c0.1,0,0.2,0,0.3,0c4.4-0.1,13.6-0.6,19.6,0.1c-0.6,0-1.2,0-1.8,0.1c0.6,0,1.2,0,1.7,0c0.3,0,0.6,0,0.9,0
		c-0.3,0-0.6,0-0.8,0c4.2,0.1,5.5-0.1,7.6,0c0.7,0,1.5,0,2.2,0c-0.5,0-1,0-1.5,0c0.3,0,0.8,0.1,1.4,0.1c2,0,4.1,0,6.1,0.1
		c-0.1-0.1-0.4-0.1-0.7-0.2c1.7,0.1,5.4,0.3,3.7,0c20.1-1.4,46.2,0.8,67.8,0.3c2.5-1.2,8.6,0.1,11.6,0.1c0.4,0,0.7,0,1.1,0
		c1.2-0.1,1.9-0.2,1.9-0.3c2.9-0.1,6.1-0.3,8.1,0c0.4-0.4,7,0.3,9.6,0c6.8-0.8,14.6,0,21.5,0c-1.2,0.1-2.5,0.1-3.7,0.1
		c0.7,0.1,3.1,0.1,4.9,0c-2.6-0.2,1.5-0.1,2-0.1c-0.7,0-1.3,0-2,0.1c1.5,0,2.5,0,2.1,0c2.2-0.1,4.4-0.1,6.6-0.1
		c6.4-0.1,12.3-0.2,12.4,0.3c-4.1,0-8.3-0.2-12.4-0.3c-7.1,0.1-14.8,0.4-15.4,0.2c-6.3,0-12.9,0.6-19.2,0.1c-5.5,0.1-11,0-16.6,0
		c-9.2,0.6-49.5,0.2-83.6-0.2c1.3,0.6-3.5,0.2-6.1-0.1c-0.9,0-1.7,0-2.6,0c-0.3,0-0.5,0-0.3,0c-2.3,0-4.6-0.1-6.8-0.1
		c-0.6,0-1.2,0-1.8,0c0,0,0,0,0.1,0c-0.5,0-1,0-1.5,0c-0.1,0-0.2,0-0.3,0c0,0,0,0,0,0c-6-0.1-11.5-0.1-16.1-0.2c-0.1,0-0.2,0-0.2,0
		c0,0,0,0-0.1,0C516.3,16.9,513,16.9,510.5,16.9c-1.4,0-2.8,0.1-4.3,0C507.1,16.9,508.6,16.9,510.5,16.9z M696.6,20
		c-0.2,0.1-1.2,0.1-1.9,0.1C695,20,696.4,20,696.6,20z M696.3,19.1c0.3-0.1,1.2,0,0.7,0.1C696.7,19.1,696.6,19.1,696.3,19.1z
		 M697.8,20c-0.1,0.1-0.9,0.1-1.5,0.1C696.2,20,697.2,20,697.8,20z M604,18.7c-0.8,0-1.7,0-2.5,0c-0.7,0.1-1.5,0.1-2.1-0.1
		c0.7,0,1.4,0,2.1,0.1C602.4,18.7,603.3,18.6,604,18.7z M598.6,18.7C598.9,18.7,600.1,18.8,598.6,18.7L598.6,18.7z M589.4,18.7
		c-0.6,0-1.2,0-1.7,0c0,0,0-0.1,0.1-0.1c-0.7,0-1.5,0-2.6,0c1.1-0.1,1.8-0.1,2.7,0c0,0,0.1,0,0.2,0c-0.1,0-0.1,0-0.2,0
		c0.2,0,1.7-0.2,1.9,0c0.1,0.1-0.1,0.1-0.4,0.1c0.1,0,0.1,0,0.2,0c2.9,0.1,4.8,0.1,6.7,0.1c0,0.3-4.4,0-4.9,0
		C592.7,19.5,590.9,19,589.4,18.7z M595.1,18.6c0.5-0.1,1-0.1,1.5,0c0.2,0,0.4,0,0.5,0c0.1,0,0.1,0,0.3,0c-0.1,0-0.2,0-0.3,0
		c0,0-0.1,0.1-0.1,0.1c-0.2-0.1-0.3-0.1-0.5-0.1C596.1,18.6,595.6,18.6,595.1,18.6z M567.5,19.7c-0.1-0.1,0.9,0,1.2-0.1
		C569,19.6,568.1,19.7,567.5,19.7z M560.4,19.6C560.3,19.4,562.9,19.5,560.4,19.6L560.4,19.6z M512.9,17c-0.9,0-3.1,0.1-3-0.1
		C510.7,17,512.3,16.9,512.9,17z M498.1,16.6c0.2,0,0.4,0,0.7,0c0.4,0,0.7,0.1,1.1,0.1c1.9-0.1,4.1,0,6,0.1
		c-0.4,0.1-0.8,0.1-1.1,0.2c1.3,0,2.7,0,4,0c0.3,0,0.5,0,0.7,0c-0.2,0-0.5,0-0.7,0c-1.9,0.1-5.6,0.6-6.8,0.1c-0.7,0-1.3-0.1-2-0.1
		c-1.4,0.1-2.8,0-4.2-0.1c0.3,0,0.7,0,1-0.1c-1.2,0-2.4,0-3.5,0c-1.1-0.1-2.2-0.1-3.4-0.1C492.7,16.6,495.4,16.5,498.1,16.6z
		 M495.4,16.9c-0.8,0.1-1.7,0-2.5,0H495.4z M492.1,19.7C492.1,19.7,492.8,19.7,492.1,19.7L492.1,19.7z M491.4,19.7
		c-0.1,0-0.8,0.2-1,0.2C489.3,20,490.9,19.7,491.4,19.7z M490,20c-0.6,0-1.5,0-1.3-0.1C489.1,19.9,489.9,19.9,490,20z M481.1,16.8
		c0.8,0,1.7,0,1.7,0c-0.5,0-1,0-1.5,0C481.2,16.8,481.2,16.8,481.1,16.8c-0.8,0-1.6,0-1.7,0C480,16.7,480.6,16.7,481.1,16.8z
		 M484.4,16.8c0,0-0.1,0-0.1,0c-0.4,0-0.8,0-1.2,0c0.2-0.3,0.8-0.1,1.2,0c0.1,0,0.2,0,0.3,0c0,0,0,0,0,0c0.3,0,0.6,0,0.8,0
		c-0.1,0.1,0.6,0.1,1.5,0c-0.4,0-0.9,0-1.3,0c0.9-0.2,1.8-0.1,2.7,0c0.6,0,1.1,0,1.3,0c-0.4,0.1-0.9,0.1-1.3,0c-0.4,0-0.9,0-1.4,0.1
		c1.3,0,2.7,0,4.1,0c-1.5,0-8.8,1-9.8-0.1c-0.7,0.1-1.3,0.1-2,0C481,16.8,482.7,16.8,484.4,16.8z M478.8,16.7c0,0-0.6,0-0.8,0
		C477.9,16.6,478.4,16.7,478.8,16.7z M477.4,16.7c-0.5,0-0.9,0.1-1.9,0.1C475.4,16.6,477.2,16.7,477.4,16.7z M32,105.1
		C32.2,105.4,32,105.3,32,105.1L32,105.1z M32.1,105.5c0,0.2,0,0.4-0.1,0.6C32,105.9,32,105.6,32.1,105.5z M32,106.2
		C32.7,107.6,31.4,106.2,32,106.2L32,106.2z M32,104.6C32,104.7,31.9,104.6,32,104.6L32,104.6z M31.8,104.3
		C32,104.5,31.8,104.6,31.8,104.3L31.8,104.3z M31.8,107.4C31.8,106.6,31.9,107.3,31.8,107.4L31.8,107.4z M31.8,103.9
		c0,0.1,0.1,0.3,0,0.3C31.7,104.1,31.7,103.9,31.8,103.9z M31.8,106.3C31.8,106.4,31.8,106.6,31.8,106.3L31.8,106.3z M33.5,148.5
		c0-0.1,0-0.3,0.1-0.3C33.6,148.3,33.6,148.5,33.5,148.5z M33.5,147c0.1,0,0.1,0.2,0.1,0.3C33.5,147.3,33.5,147.1,33.5,147z
		 M33.5,146.6c0,0,0.1,0.3,0.1,0.4C33.5,147,33.5,146.8,33.5,146.6z M33.6,143.8c0.1,0.5,0,1.4-0.1,2.3c0.1,0.2,0.2,0.6,0,0.1
		c-0.1,0.8-0.2,1.7-0.2,2.5c-0.1,0-0.2,0-0.4,0c-0.2-3.5-0.8-7.1-0.6-8.8c0.1-0.1,0.1-0.3,0.2-0.5c0-1.3,0-2.7,0.1-4.2
		c0-0.7-0.1-1.4-0.2-2.2c-0.2-1.6-0.4-3.2-0.4-4.1c0-0.5,0-1,0-1.5c-0.3-3.4-0.4-6.8-0.2-9.7c0-0.2,0-0.5,0-0.7
		c0.1-2.1,0.1-4.2,0.1-6.3c-0.1-1-0.1-2.1,0-2.7c-0.1-2.6-0.2-5.2-0.4-7.8c-0.2-3.5-1.5-10-0.1-13.2c0.2-0.1,0.1,16.7,0.5,16.9
		c0,0.7,0,1.9,0.1,3.6c0,0,0,0,0.1-0.1c0.2,0.6-0.1-0.1,0.1-0.2c0-0.1,0-0.1,0-0.3c0.1,0,0.1,0.2,0,0.3l0,0c0.8,2,1.9,12.2,0.6,14.6
		c0.3,1.9,0.3,3.9,0.3,6.1c0.2,5.8,0.3,10.4-0.3,10.6c0,0,0-0.1,0-0.1c0,0.4-0.1,0.8-0.2,1.1c0.1,2.2,0.4,4.2,1.1,6
		c-0.1-0.7-0.1-1.4,0-2.1C33.7,143.8,33.7,143.9,33.6,143.8z M34,126.8C34.7,126.3,32.6,129.8,34,126.8L34,126.8z M34,126.7
		C34.1,126.8,34,126.9,34,126.7L34,126.7z M34,125.9C34,125.7,34,125.7,34,125.9C34,125.9,34,125.9,34,125.9
		C34,126,34,125.9,34,125.9c0.3,0.5-0.3,0.7-0.1,0.1C34,125.9,34,125.9,34,125.9c-0.1-0.4-0.2-1-0.1-1.3c-0.3,0.7,0.1-0.4,0.2-0.7
		C34.4,124.4,34.1,125.1,34,125.9z M34.6,148.5c-0.1,0-0.2,0-0.4,0c0.1-0.5,0.1-0.9,0.2-1.2C34.6,147.5,34.6,148,34.6,148.5z
		 M34.9,101.7c0,0,0-0.1,0-0.2C35,101.5,34.9,101.7,34.9,101.7z M34.9,102.3C35.2,101.9,35.2,102.6,34.9,102.3L34.9,102.3z
		 M34.9,101.4c0-0.1-0.1-0.2-0.1-0.4C35,101,34.9,101.4,34.9,101.4z M34.8,104.3c-0.6-1-0.6-1.7,0-2C35.1,102.5,34.9,104,34.8,104.3
		z M34.4,147.1c0,0,0.1-0.1,0.1-0.1C34.6,147,34.5,147.2,34.4,147.1z M36.2,148.2c0-0.1,0-0.2,0-0.2c0-0.6-0.1-2.1-0.2-4.1
		c-0.2-0.5-0.5-1.1,0-0.6c-0.2-4.6-0.5-10.9-0.5-10.9c-0.7-4.4-0.8-11.6-0.4-14.8c-0.6,0.5-0.5-1.7,0-1.1c0.1-0.3,0-0.7,0-0.9
		c-0.4,0.5-0.2-0.6-0.1-1c-0.1-0.6,0-0.7,0.1-0.1c0.2-0.3,0.3-0.7,0.3-1c-0.1-1-0.1-2.1-0.2-3.1c-0.1-0.9-0.3-1.7-0.2-2.4
		c0,0.1,0,0.2-0.1,0.2c0-0.5,0-1-0.1-1.6c0,0.1,0,0.1,0.1,0.2c0-0.2,0.1-0.4,0.2-0.6c0,0-0.1-0.1-0.1-0.1c0,0.2-0.1,0.3-0.1,0.3
		c-1.3-2.9,0.8,0.4,0-1.5c0,0.1,0,0.2-0.1,0.4c-0.1-0.3,0-0.6,0.1-0.5c0.5-1,0.3,0.5,0.1,1.3c0.3-0.3,0.2-0.2,0.1,0.2
		c0.2,0.3,0.2,0.7-0.1,1.2c0,0.1,0,0.1,0,0.2c0.1,0.9,0.1,1.8,0.2,2.7c0.2,1.1,0.3,2.2,0.2,3.1c0.6,10.4,0.6,20.3,0.8,30.2
		c-0.1-0.1-0.1-0.2-0.2-0.2c0,0.2,0,0.4,0,0.6c0.1,0.2,0.1,0.3,0.1,0.4c0.3,0.9,0.1,2.7,0,3.7C36.2,148.2,36.2,148.2,36.2,148.2z
		 M34.9,108.8c0-0.2-0.1-0.6,0.1-0.6C34.9,108.4,35,108.7,34.9,108.8z M35,113.7C35.1,113.8,35,113.9,35,113.7L35,113.7z
		 M36.1,143.8C36.1,143.7,36.6,144.2,36.1,143.8L36.1,143.8z M244.6,149.5c-0.1-0.1,0.8-0.1,0.9-0.1
		C245.2,149.5,245,149.5,244.6,149.5z M245.7,149.5c0-0.1,0.2,0,0.4,0C246.1,149.5,245.8,149.5,245.7,149.5z M249.7,149.7
		c-1.7,0.3-3.9,0.7-2.4-0.1C247.3,149.7,248.5,149.7,249.7,149.7c0.2,0,0.4-0.1,0.6-0.1c-0.3,0-0.6,0-0.9,0c0.6,0,1.1,0,1.7-0.1
		c0.1,0,0.2,0,0.3,0c-0.1,0-0.2,0-0.3,0c-0.2,0-0.4,0-0.7,0.1c0.5,0,1.1,0,1.6,0C251.9,149.7,250.8,149.7,249.7,149.7z M247.3,149.5
		C245.6,148.8,248.7,149.1,247.3,149.5L247.3,149.5z M248.9,149.6C247.2,149.4,248.9,149.5,248.9,149.6L248.9,149.6z M252.8,149.7
		h1.2C253.6,149.8,253.2,149.7,252.8,149.7z M256.6,149.7c-0.3,0.1-3.2,0.6-2-0.1H253c-0.5,0-1.1-0.1-1.6-0.1
		c1.3-0.1,2.9-0.2,4.2-0.1c-1.1-0.5-0.4-0.3,0.7,0c0.8-0.2,1.7-0.2,2.6,0.2c-0.6,0.2-1.7,0-2.6-0.2c-0.1,0-0.2,0.1-0.3,0.1
		C256.2,149.6,256.4,149.6,256.6,149.7z M259.2,149.8c-1,0-2.2,0-2.2,0C257.8,149.8,258.5,149.8,259.2,149.8c0.6,0,1.2,0,1.4,0
		C260.2,149.8,259.7,149.8,259.2,149.8z M260.9,149.7c0.4,0,1.1,0,1.4,0.1C261.9,149.8,260.8,149.9,260.9,149.7z M284.8,152.3
		C284.8,152.2,286,152.3,284.8,152.3L284.8,152.3z M301.8,151.5c-0.1,0.2-1.4,0-1.9-0.1c-0.1,0-0.1,0-0.2,0c0,0,0.1,0,0.2,0.1
		c0,0.1-2.2,0.1-2.2-0.1c0.5,0,0.9,0,1.4,0c-0.2,0-0.5-0.1-0.7-0.1c-0.1,0-0.1,0-0.2,0c0,0,0,0,0,0c-0.6,0-1.2,0-1.7,0
		c0.5-0.1,2.1-0.1,2.2,0c-0.2,0-0.3,0-0.4,0c0,0,0.1,0,0.1,0c0.5,0,0.9,0,1.3,0.1c-0.1,0,0,0,0.2,0c0.6,0,1.1,0,1.5,0.1
		c-0.1,0-0.1,0-0.2,0c0.4,0,0.7,0,1.1,0C302.2,151.5,302.1,151.5,301.8,151.5z M303,151.5C303.2,151.5,303.5,151.5,303,151.5
		L303,151.5z M304.3,151.5c-0.4,0-0.8,0.1-0.9,0C303.7,151.5,304,151.5,304.3,151.5c0.5,0,1-0.1,1.3,0
		C305.1,151.5,304.7,151.5,304.3,151.5z M347.2,152.9C349.4,152.6,347.2,153,347.2,152.9L347.2,152.9z M348.6,152.8
		c0.1,0,0.8-0.1,0.9-0.1C349.4,152.8,348.9,152.9,348.6,152.8z M349.6,151.9c-0.1,0-0.2-0.1-0.3-0.1
		C349.5,151.8,349.9,151.9,349.6,151.9z M350.5,150.2c-1.6,0-4.1-0.1-6.9-0.1c0,0,0,0,0,0c0.2,0,0.2,0,0,0c0,0,0,0,0,0
		c0,0-0.1,0-0.2,0c-0.3,0-0.5,0-0.8,0c0,0-0.1,0-0.1,0.1c-0.1,0-0.1,0-0.1-0.1c-0.3,0-0.7,0-1,0c-0.4,0-0.8,0-1.1,0
		c-0.1,0-0.1,0-0.1,0c-10.4,0-23.6,0-23.8,0.1c-5.6,0.3-10.9-0.2-16.6-0.1c-2.8-0.5-7.3-0.7-10.1-0.1c-0.6-0.6-5.7-0.3-5-0.1
		c-0.2,0.1-1.8,0-2.2,0c1.6,1-4.2,0.5-2.6,0c-0.5-0.1-1.7,0.2-1,0c-1.1-0.1-1.5,0.1-3.6,0c0.8,0,0.5,0-0.9,0c0,0,0,0,0,0
		c-0.1,0-0.2,0-0.3,0c-0.5,0.3-4.9-0.1-5-0.1c-0.1,0.2-3.9,0-3.3,0c-0.3-0.1-0.7-0.2-1-0.2c-0.8,0-1.7,0-2.5,0c-1,0.1-2.1,0.1-3.1,0
		c1,0,2.1,0,3.1,0c0.9-0.1,1.7-0.1,2.5,0c26.7-0.3,52.2,0.2,77.2,0.5c-0.1,0-0.2,0-0.2,0c0.2,0,0.4,0,0.7,0c0-0.2,1.4-0.7,0.3,0
		c0.3,0,0.6,0,0.8,0c0.1,0,0.1,0,0.2,0C345.8,149.8,348.2,150,350.5,150.2c1.3,0,2,0,2,0.1C351.9,150.2,351.2,150.2,350.5,150.2z
		 M268.5,147.6C268.9,147.4,269.9,147.6,268.5,147.6L268.5,147.6z M355.6,150.3C354.9,150.4,354.9,150.3,355.6,150.3L355.6,150.3z
		 M391.2,171.8C391.3,171.8,391.3,171.9,391.2,171.8C391.2,172,391.2,171.9,391.2,171.8z M391.4,172.2
		C391.4,172.1,391.4,172.1,391.4,172.2C391.4,172.1,391.4,172.2,391.4,172.2z M394.4,175c0,0-0.1-0.1,0-0.1
		C394.3,174.9,394.4,175,394.4,175z M394.7,175.7C394.8,175.7,394.8,175.7,394.7,175.7L394.7,175.7z M394.9,176
		C394.8,175.8,395,175.9,394.9,176L394.9,176z M397.9,181.3c-0.9-1.7-1.8-3.4-2.7-4.9c0.9,1.7,1.8,3.6,2.6,5.2c0,0,0,0.1,0,0.1
		c-1.5-2.5-3.1-5.3-2.9-5.6c0.2,0.1,0,0,0-0.1c-0.2-0.3-0.4-0.6-0.5-0.9c0,0,0,0,0,0c0,0,0,0,0,0c-1.5-2.6-2.6-4.6-2.9-5.2
		c0,0-0.1,0-0.1,0c0,0,0,0,0.1,0c0-0.1-0.1-0.1-0.1-0.1c0,0,0.1,0.1,0.1,0.1c0,0,0,0,0,0.1c0.4,0.3,1.6,2.5,3,5.2c0,0,0,0,0,0
		c0.2,0.3,0.3,0.6,0.5,0.9c0,0,0,0,0,0c0,0,0,0,0-0.1c0.1,0,0.1,0,0.1,0.1c1.4,0.5,2.3,2.5,3.1,4.7C398.1,180.8,398,181,397.9,181.3
		z M394.6,175.1C394.6,175.1,394.6,175,394.6,175.1L394.6,175.1z M394.7,175.2C394.8,175.2,394.7,175.2,394.7,175.2L394.7,175.2z
		 M394.8,175.5c0,0-0.1-0.1-0.1-0.2C394.8,175.3,394.8,175.4,394.8,175.5z M394.8,175.6C395,175.6,395,175.8,394.8,175.6
		L394.8,175.6z M395.9,172.8c0.1-0.1,0.1,0.1,0.1,0.1C396,172.9,395.9,172.9,395.9,172.8z M396,173C396,173,396,173,396,173
		C396,172.9,396,173,396,173z M396.2,173.4C396.2,173.3,396.2,173.3,396.2,173.4C396.3,173.7,396.6,174.1,396.2,173.4
		C396.2,173.4,396.2,173.4,396.2,173.4C396.2,173.4,396.2,173.4,396.2,173.4c0,0-0.1-0.1-0.1-0.2
		C396.1,173.2,396.1,173.3,396.2,173.4z M396.1,173.2C396.1,173.1,396.2,173.2,396.1,173.2L396.1,173.2z M396.7,174.6
		C397.6,175.8,396.7,174.7,396.7,174.6L396.7,174.6z M397.1,175.3c0-0.1-0.2-0.2-0.1-0.2C397.1,175.2,397.2,175.2,397.1,175.3z
		 M396.7,174.4C397.5,174.6,396.5,174.8,396.7,174.4L396.7,174.4z M396.5,174.1C396.5,174.1,396.5,174.1,396.5,174.1
		C396.4,174.1,396.4,173.9,396.5,174.1C397,174.2,396.7,174.2,396.5,174.1z M397.1,175.3c0.1,0,0.1,0,0.1-0.1
		c-0.1-0.1-0.2-0.3-0.3-0.4c0.2,0.2,0.3,0.3,0.3,0.4c0.6,0.9,1.2,1.8,1.7,2.7c-0.1,0.4-0.2,0.7-0.3,1.1
		C397.9,177.5,397.3,176.1,397.1,175.3z M398.4,182.6C398.4,182.6,398.4,182.6,398.4,182.6C398.4,182.6,398.4,182.6,398.4,182.6
		C398.4,182.6,398.4,182.6,398.4,182.6C398.4,182.6,398.4,182.6,398.4,182.6C398.4,182.6,398.4,182.6,398.4,182.6
		C398.4,182.6,398.4,182.6,398.4,182.6z M398.6,182.9C398.6,182.9,398.6,182.8,398.6,182.9C398.5,182.8,398.5,182.8,398.6,182.9
		C398.6,182.8,398.6,182.8,398.6,182.9C398.6,182.9,398.6,182.9,398.6,182.9z M398.5,182.3C398.5,182.3,398.5,182.3,398.5,182.3
		c0-0.2,0.1-0.3,0.1-0.5c0,0,0,0,0,0C398.6,182,398.5,182.2,398.5,182.3z M398.7,182.6c0,0,0-0.1-0.1-0.1c0-0.1,0.1-0.2,0.1-0.4
		c0,0.1,0,0.1,0.1,0.2C398.8,182.5,398.7,182.6,398.7,182.6z M399,189.9C399,189.9,399,189.9,399,189.9C399,189.9,399,190,399,189.9
		z M399.1,175.3C399.2,175.3,399.2,175.4,399.1,175.3L399.1,175.3z M399.4,178.5c0,0.1,0.1,0.2,0.1,0.2c-0.1,0.4-0.2,0.8-0.3,1.1
		c0-0.1-0.1-0.1-0.1-0.2C399.2,179.3,399.3,178.9,399.4,178.5z M399.1,180.9c0-0.1,0-0.1,0.1-0.2c0,0.1,0.1,0.2,0.1,0.3
		c0,0,0.1,0.1,0,0.1c0,0,0,0,0-0.1C399.2,181,399.1,181,399.1,180.9z M399.2,189.7C399.1,189.6,399.2,189.6,399.2,189.7L399.2,189.7
		z M399.3,181.2C399.3,181.2,399.3,181.2,399.3,181.2c0,0.1,0,0.1,0,0.2C399.2,181.3,399.2,181.3,399.3,181.2z M399.8,187.8
		c-0.1,0.5-0.3,0.9-0.4,1.3c0,0.1-0.1,0.2-0.1,0.2c0-0.1,0-0.1,0.1-0.2c0.1-0.4,0.3-1.3,0.5-2.3c0,0.1,0.1,0.2,0.1,0.3
		C399.9,187.3,399.9,187.5,399.8,187.8C399.8,187.8,399.9,187.8,399.8,187.8z M399.6,180.6c-0.1-0.2-0.2-0.3-0.3-0.5
		c0.1-0.4,0.2-0.8,0.3-1.2c0.1,0.2,0.3,0.5,0.4,0.7C399.9,179.9,399.8,180.3,399.6,180.6z M400.3,186c-0.1-0.1-0.1-0.3-0.2-0.4
		c0,0,0,0,0,0c0.1,0.1,0.1,0.1,0.2,0.1c0-0.1-0.1-0.2-0.1-0.2c0,0,0,0,0-0.1c0.1,0.1,0.2,0.3,0.2,0.3c0,0,0,0-0.1,0
		C400.3,185.8,400.3,185.8,400.3,186C400.4,185.9,400.4,186,400.3,186z M400.3,181.2C400.5,181.4,399.9,181.3,400.3,181.2
		L400.3,181.2z M400.2,181.5C400.2,181.5,400.2,181.5,400.2,181.5C400.3,181.5,400.3,181.5,400.2,181.5z M400.3,181.1
		C400.3,181.1,400.3,181.2,400.3,181.1C400.3,181.1,400.3,181.1,400.3,181.1c0-0.2-0.1-0.5,0.1-0.5c0,0,0-0.1,0.1,0
		C400.5,180.6,400.4,180.9,400.3,181.1z M400.1,177.1c0.2-0.8,0.4-1.7,0.7-2.5c-0.2,0.8-0.5,1.6-0.7,2.3c-0.1-0.1-0.1-0.2-0.2-0.3
		c0.4-1.3,0.7-2.2,0.9-2.2c0.1,0.2,0,0,0.1,0c0.1-0.4,0.2-0.7,0.3-1c0,0,0,0,0,0c0,0,0,0,0,0c0.8-2.9,1.3-5.2,1.5-5.8
		c0-0.1,0-0.1,0-0.1c0,0,0.1,0,0.1,0c0-0.1,0-0.1,0-0.1c0,0,0,0.1,0,0.1c0,0,0,0.1,0,0.1c0.1,0.6-0.6,3-1.4,5.9c0,0,0,0,0,0
		c-0.1,0.2-0.1,0.4-0.2,0.6c0.1,0.2-0.1,0.3,0,0c0,0.1-0.1,0.3-0.1,0.4c0,0,0,0,0,0c0,0,0,0,0-0.1c0.1,0,0,0.1,0,0.1
		c0.4,1,0.2,2.2-0.3,3.6C400.5,177.7,400.3,177.3,400.1,177.1z M400.8,174.3C400.8,174.1,400.9,174.3,400.8,174.3L400.8,174.3z
		 M400.8,174C400.9,174,400.9,174,400.8,174L400.8,174z M401,173.2C401.1,173.2,401,173.1,401,173.2
		C401.1,173.2,401.1,173.2,401,173.2z M401.1,173.6C401.2,173.7,401.1,173.6,401.1,173.6L401.1,173.6z M401.2,173.7
		c0,0.1-0.1,0.1-0.1,0.2C401.1,173.9,401,173.7,401.2,173.7z M401.3,182.8c0-0.1-0.1-0.1,0-0.1c-0.2-0.2-0.3-0.4-0.5-0.6
		c0-0.3,0.1-0.6,0.2-1c0.2,0.4,0.4,0.7,0.6,1.1C401.4,182.4,401.3,182.6,401.3,182.8z M402.5,188.7c0,0-0.1-0.1,0-0.1
		C402.5,188.6,402.5,188.6,402.5,188.7z M402.7,189.1C402.8,189.2,402.7,189.2,402.7,189.1L402.7,189.1z M403,189.7
		C402.8,189.5,403,189.5,403,189.7L403,189.7z M402.9,189.5c-0.1,0-0.2-0.1-0.1-0.2C402.9,189.3,402.8,189.5,402.9,189.5z
		 M402.9,187.8L402.9,187.8C402.9,187.8,402.9,187.9,402.9,187.8z M404.4,188.2C404.4,188.2,404.4,188.3,404.4,188.2
		C404.4,188.2,404.4,188.2,404.4,188.2z M404.4,188C404.3,187.9,404.4,187.9,404.4,188L404.4,188z M403.5,186.2
		C403.5,186.2,403.5,186.2,403.5,186.2c0.2,0.4,0.4,0.9,0.6,1.3c0.1,0.1,0.1,0.1,0.1,0.2c0,0-0.1-0.1-0.1-0.2
		c-0.3-0.4-1.1-1.7-1.8-2.9c0-0.2,0.1-0.3,0.1-0.4C402.8,184.8,403.1,185.5,403.5,186.2z M403,175.5c-0.3,1.6-0.6,3.2-1,4.8
		c-0.2-0.4-0.4-0.7-0.6-1.1c0.5-1.6,1-3,1.4-3.8C402.9,175.5,402.9,175.5,403,175.5c0-0.2,0.1-0.3,0.1-0.5
		C403.1,175.2,403,175.4,403,175.5z M402.8,175.4c0-0.1,0-0.2,0.1-0.2C402.9,175.2,402.9,175.4,402.8,175.4z M403,174.6
		C402.9,176.1,402.9,174.6,403,174.6L403,174.6z M403.2,174.4C403.6,175.1,402.7,174.5,403.2,174.4L403.2,174.4z M403.2,174.1
		C403.2,174.1,403.2,174.1,403.2,174.1C403.1,174,403.3,173.9,403.2,174.1C403.5,174.5,403.3,174.2,403.2,174.1z M403.5,173.3
		C403.4,173.7,403.3,174.1,403.5,173.3c0-0.1,0-0.1,0-0.2C403.5,173.1,403.5,173.2,403.5,173.3z M403.5,173.1
		C403.6,173.1,403.6,173.2,403.5,173.1L403.5,173.1z M403.6,172.9C403.6,172.9,403.6,172.9,403.6,172.9
		C403.7,172.9,403.7,172.9,403.6,172.9z M403.7,172.9c0,0,0-0.1,0-0.1C403.8,172.7,403.7,172.8,403.7,172.9z M404.2,176.7
		C404.3,176.8,404.2,176.9,404.2,176.7L404.2,176.7z M623.4,149.5c-0.1-0.1,0.8-0.1,0.9-0.1C624,149.5,623.8,149.5,623.4,149.5z
		 M624.5,149.5c0-0.1,0.2,0,0.4,0C625,149.5,624.7,149.5,624.5,149.5z M626.2,149.5C624.4,148.8,627.7,149.1,626.2,149.5
		L626.2,149.5z M628.2,149.7c-1.5,0.2-3,0.4-2-0.1C626.2,149.7,627.2,149.7,628.2,149.7c0.3,0,0.6-0.1,0.8-0.1c-0.2,0-0.5,0-0.7,0
		c0.5,0,0.9,0,1.4-0.1c0.2,0,0.4,0,0.6,0c-0.2,0-0.4,0-0.6,0c-0.2,0-0.5,0-0.7,0.1c0.6,0,1.3,0,1.9,0
		C630.9,149.7,629.5,149.7,628.2,149.7z M627.8,149.6C626.1,149.4,627.8,149.5,627.8,149.6L627.8,149.6z M631.8,149.7h1.2
		C632.7,149.8,632.3,149.7,631.8,149.7z M635.8,149.7c-0.3,0-3.3,0.7-2.1-0.1H632c-0.5,0-1.1-0.1-1.6-0.1c1.3-0.1,3-0.2,4.3-0.1
		c-1.1-0.5-0.4-0.3,0.8,0c0.9-0.2,1.8-0.2,2.7,0.2c-0.6,0.2-1.8,0-2.7-0.2c-0.1,0-0.2,0.1-0.3,0.1
		C635.4,149.6,635.6,149.6,635.8,149.7z M638.8,149.8c-1.1,0-2.5,0.1-2.6,0C637.1,149.8,637.9,149.8,638.8,149.8c0.5,0,1,0,1.1,0
		C639.5,149.8,639.2,149.8,638.8,149.8z M640.1,149.7c0.4,0,1.2,0,1.5,0.1C641.2,149.8,640.1,149.9,640.1,149.7z M664.8,152.3
		C664.7,152.2,666,152.3,664.8,152.3L664.8,152.3z M668.2,152.5c0-0.1,0.4,0,0.6-0.1C669,152.4,668.5,152.5,668.2,152.5z
		 M682.3,151.5c-0.1,0.2-1.5,0-2-0.1c-0.1,0-0.1,0-0.2,0c0,0,0.1,0,0.2,0.1c0,0.1-2.2,0.1-2.2-0.1c0.5,0,0.9,0,1.4,0
		c-0.2,0-0.5-0.1-0.7-0.1c-0.1,0-0.1,0-0.2,0c0,0,0,0,0,0c-0.6,0-1.2,0-1.8,0c0.5-0.1,2.2-0.1,2.2,0c-0.2,0-0.3,0-0.5,0
		c0.1,0,0.1,0,0.2,0c0.5,0,1,0,1.3,0.1c-0.1,0,0,0,0.2,0c0.6,0,1.1,0,1.6,0.1c-0.1,0-0.1,0-0.2,0c0.4,0,0.8,0,1.2,0
		C682.7,151.5,682.5,151.5,682.3,151.5z M683.4,151.5C683.7,151.5,684,151.5,683.4,151.5L683.4,151.5z M684.8,151.5
		c-0.4,0-0.8,0.1-1,0C684.2,151.5,684.5,151.5,684.8,151.5c0.5,0,1-0.1,1.3,0L684.8,151.5z M728.9,152.9
		C731.2,152.6,728.9,153,728.9,152.9L728.9,152.9z M730.3,152.8c0.1,0,0.8-0.1,0.9-0.1C731.1,152.8,730.6,152.9,730.3,152.8z
		 M731.4,151.9c-0.1,0-0.2-0.1-0.3-0.1C731.2,151.8,731.7,151.9,731.4,151.9z M731.9,150.1c-1.6,0-3.9-0.1-6.6-0.1
		c-0.1,0-0.1,0-0.2,0c0.2,0,0.2,0,0,0c0,0,0,0,0,0c-0.2,0-0.6,0-1,0c0,0-0.1,0-0.1,0.1c-0.1,0-0.2,0-0.2-0.1c-0.3,0-0.5,0-0.8,0
		c-0.5,0-0.9,0-1.4,0c-0.1,0-0.1,0,0.1,0c-10.7,0-24.4,0-24.5,0.2c-5.7,0.3-11.2-0.2-17.1-0.1c-2.9-0.5-7.5-0.7-10.3-0.1
		c-0.6-0.6-5.8-0.3-5.2-0.1c-0.2,0.1-1.8,0-2.3,0c1.7,1-4.3,0.5-2.6,0c-0.5-0.1-1.8,0.2-1.1,0c-1.1-0.1-1.6,0.1-3.7,0
		c0.9,0,0.5,0-0.9,0c0,0,0,0,0,0c-0.1,0-0.2,0-0.3,0c-0.5,0.3-5-0.1-5.2-0.1c-0.1,0.2-4,0-3.4,0c-0.3-0.1-0.7-0.2-1.1-0.2
		c-0.9,0-1.7,0-2.6,0c-1,0.1-2.1,0.1-3.2,0c1.1,0,2.1,0,3.2,0c0.9-0.1,1.8-0.1,2.6,0c27.4-0.3,53.7,0.2,79.4,0.5c-0.1,0-0.2,0-0.2,0
		c0.2,0,0.4,0,0.7,0c-0.1-0.2,1.5-0.7,0.3,0c0.4,0,0.8,0,1.2,0C727.5,149.9,729.7,150,731.9,150.1c1.5,0,2.4,0.1,2.4,0.1
		C733.6,150.2,732.8,150.2,731.9,150.1z M648,147.6C648.4,147.4,649.4,147.6,648,147.6L648,147.6z M737.5,150.3
		C736.8,150.4,736.8,150.3,737.5,150.3L737.5,150.3z M738.7,150.4c0.2,0,0.4,0,0.4,0.1C738.9,150.5,738.7,150.5,738.7,150.4z
		 M755.9,151.2c-0.9-0.1-1.9-0.1-2.9-0.2c-2.8,0.5-6.2,0-9.5-0.4c-2-0.1-3.9-0.1-5.9-0.3c1.7-0.2,3.7,0,5.9,0.3
		c3.2,0.1,6.3,0.2,9.5,0.4c0.6-0.1,1.1-0.2,1.6-0.4c0.4,0,0.8,0,1.2,0C756,150.8,756,151,755.9,151.2z M757.7,155.6
		c-0.1,0-0.1-0.6,0-0.7C757.8,155.1,757.6,155.4,757.7,155.6z M757.7,154.3C757.9,154.3,757.7,155.1,757.7,154.3L757.7,154.3z
		 M757.8,152.9c0-0.1,0-0.3,0.1-0.3C757.8,152.7,757.9,152.9,757.8,152.9z M757.8,151.4C757.8,151.3,757.8,151.3,757.8,151.4
		C757.8,151.3,757.9,151.3,757.8,151.4C757.8,151.4,757.8,151.4,757.8,151.4z M757.9,151.4c-0.1,0-0.1-0.3-0.1-0.4
		C757.9,151,757.9,151.3,757.9,151.4L757.9,151.4z M757.8,150.5c0,0.3-0.1,0.6-0.1,0.9c-0.3,0-0.5-0.1-0.8-0.1c0-0.2,0-0.5,0-0.7
		C757.3,150.5,757.5,150.5,757.8,150.5C757.8,150.5,757.8,150.5,757.8,150.5C757.8,150.5,757.8,150.5,757.8,150.5
		C757.9,150.5,757.9,150.5,757.8,150.5C757.9,150.7,758,151,757.8,150.5z M758,148c0.1,0.4,0,1,0,1.6c0,0,0,0-0.1,0
		c-0.1-0.7-0.1-1.4,0-2C758.2,148,758.2,148.1,758,148z M757.9,125.1c0.2,1.6,0.2,3.4,0.1,5.2c0.2,6.5,0.1,11.9-0.7,12.1
		c0-1,0-2.1-0.1-3.2c-0.3,3.8-0.4,7.4,0.6,10.4c-0.3,0-0.6,0-0.9,0c0-3.1,0-5.6,0-5.6c-0.3-1.5-0.5-3.1-0.5-4.7
		c-0.1,3.5-0.3,6.9-0.4,10.3c-5.8,0-14-0.9-19.7-1c-11.5,0.1-22.5-0.6-34-0.2c-1.1-1.2-17.2-0.7-19.7-0.2
		c-7.9-0.4-15.9-0.3-23.8-0.2c-1.6-0.1-13.3-0.6-7.6-0.5c-0.2-0.4-3.4,0-3.9,0c0.2,0,0.3,0,0.5,0.1c-11.9,1.7-25.6-0.2-37.7-0.5
		c0.4,0.3,1.7,0.1,2.1,0.1c-2.4,0.5-4,0.1-6.7-0.2c0,0.1,0,0.1,0.1,0.1c-31.1-0.8-62.5-1.2-93.6-0.2c-19.9-0.1-39.8,0.4-59.7,0.6
		c-10,0.1-22.8,2.6-31.9,0.3c2.5-0.2,5.1,0,7.6-0.3c-2.8,0.1-5.6,0.2-8.4,0.1c0.1,0.1,0.2,0.2,0.3,0.2c-1.3,0-5.3-0.1-8.8,0.1
		c0-0.4,0-0.7-0.2-0.8c-0.2-1.3,0.2-5.5,0.8-3.3c0.1-2.5-1-6.1-4.3-4.9c-1.3,1.6-1.7,1.3-2.3,3.9c0.2,1.5,0,5.2-0.7,6.4c0,0,0,0,0,0
		c-1.2,0.5-2.7,2.4-3.4,2.9c0.4,0.1,2,0.3,0.9,0.8c0.3,0,0.8,0,1,0.1c0,0.1-0.9,0.3-1,0.3c0.1,0.2,0.9,0.9,1.2,1.1c0,0,0,0,0,0
		c0.1,0.1,0.1,0.1,0,0c0.2,0.3,0.5,0.5,0.9,0.6c-1,5.5-3.7,15.7-3.7,15.7c0,0,0.5-1.5,0.5-1.5c0,0.1-0.2,0.4,0.1,0.4
		c0-0.1,0-0.1,0.1-0.1c-0.1,0-0.1-0.1,0.1-0.3c-0.3,2.2-0.8,4.5-1.5,6.9c-0.1-0.2-0.2-0.4-0.2-0.4c0,0-3-5.8-2.9-5.2
		c-0.9-0.2-5.9-10.3-6.8-11.7c-0.7-1.2-4.7-8.4-6-9.2c0.7,0,1.4,0,2,0c-0.6,0-1.3,0-2,0c-0.1-0.1-0.2-0.1-0.2-0.1
		c-1.1-0.8-3.7-4.1-1.7-2.9c-1.7-1.9-4.9-3.7-6.5-0.5c0.1,1.7-0.2,2,0.5,3.3c-17.7-0.7-35-1-52.6-1.1c-6.7-0.1-12.5,0-19.4-0.2
		c-7.3-0.3-14.9-0.5-22.2-0.1c-3.3-0.4-9.3,1.1-12.3-0.5c5.2-0.6-0.1-0.1-1.4,0c0.2,0,0.3,0,0.5,0.1c-11.6,1.7-24.9-0.2-36.7-0.5
		c0.7,0.1,1.4,0.2,2.1,0.1c-2.3,0.5-4,0.1-6.5-0.2c0,0.1,0,0.1,0.1,0.1c-30.3-0.8-60.8-1.2-91.1-0.2c-19.3-0.1-38.7,0.4-58,0.6
		c-9.7,0.1-22.2,2.6-31.1,0.3c2.5-0.2,5,0,7.4-0.3c-2.7,0.1-5.4,0.2-8.2,0.1c0.1,0.1,0.2,0.2,0.3,0.2c-2.9-0.1-5.8,0.1-8.7,0.4
		c-0.1-3.9-0.2-7-0.3-7c-0.2-4.8-0.7-9.2-0.3-13.7c0.2-3.1,0.2-7.2-0.3-10.3c0.1-0.6,0.3-6.8,0.3-4.4c0.3-0.1-0.3-16.4-0.3-17.5
		c-0.1,0.3-0.2,0.6-0.1,0.9c-1.6-2.7,0.5-10.5-0.1-14.6c-0.5-0.1-1-21.6-1.1-23.5c-0.7-9.4,0.1-20.1-2-29.3c0.9-0.7,0.5-3.4-0.1-6.3
		c0.8,0.1,1.5,0.2,2.2,0.4c4.3-0.7,8.4,0.4,11.4,0.9c6.8,1.2,15.1-0.3,22.1-0.2c5.7-0.7,11.6,0.2,17.3-0.2
		c15.2-1.4,31.1-0.3,46.3-0.5c11.5-0.1,22.2-0.7,34.2-0.3c0.3-0.6,8.8-0.5,8.1-0.1c12.3,0.4,23.9-0.1,36-0.2
		c-2.2-1-7.8-0.3-10.3-0.4c9.5-0.7,18.4-0.2,27.1-0.3c10.5-0.1,22.1,1.4,32.5-0.1c11.6,0.1,25.2-2,36.6-0.1
		c5.2,0.9,11.3-0.1,16.7-0.1c2,0,11,1.2,12.4,0c0.8,0,5.7-0.5,3.9-0.1c5.8,0.4,11.9-0.4,17.7-0.1c-0.2,0-0.3,0-0.5,0.1
		c1.5-0.1,2.7-0.1,4.4-0.1c0.2-1.9,64.1,0.5,88.7,0.5c-0.6-0.1-1.2-0.2-1.5-0.4c0.7,0,1.3,0,2.1-0.1c-1.4-0.1-2.7-0.2-2.7-0.2
		c1.4,0,5,0,5.2-0.1c1,0.1,2.7,0,4.4-0.1c-12.7,0.2-25.3,0.2-37.8-0.9c-1.1,0-2,0-2.4-0.2c0.8,0.1,1.6,0.1,2.4,0.2
		c3,0,7.7-0.6,7.4-0.4c9.6,0.9,19.5-0.5,28.8,0.3c0.9,1.5,28.6,0.2,32,0.1c0,0-0.1,0-0.2-0.1c3.1-1,9.5,0.9,10.9,0.1
		c1.7,0,3.6-0.1,5.6-0.3c0.4-0.1,1.9-0.4,0.1,0c3.2-0.2,6.5-0.4,9.1,0.2c0.4,0,1,0.1,1.3,0.1c0,0,0.1,0,0.1,0c0,0,0.1,0,0.1,0
		c0.2,0,0.4,0,0.6,0c-0.1,0-0.1,0-0.2,0c0,0,0.1,0,0.1,0c-0.5,0-0.9,0-1.1-0.1c-0.5,0-0.9,0-1.4,0c0.5-0.1,0.9,0,1.4,0
		c0,0,0,0,0-0.1c12-0.9,26-1.5,38-0.2c-0.7-0.2-1.7-0.6,1.4,0c-0.2,0-0.5,0-0.7,0.1c3.2-0.2,6.6,0.6,9.9,0
		c19.6,0.7,43.4-0.1,65.2,0.3c23.5-1.4,47,1.6,70.3,0c0,0,0,0,0,0c-3.2,0.1-6.6,0.3-9.8,0c2.9-0.3,6.4,0,9.8,0c0,0,0.1,0,0.1,0
		c0,0,0,0-0.1,0c0.4,0,0.7,0,1.1,0c-0.4,0-0.8,0-1.2,0.2c1,0,2,0,3,0c0,0,0,0,0.1-0.1c0.5,0,1,0,1.5,0c0.2,0,0.4,0,0.5,0
		c-0.2,0-0.4,0-0.5,0c-0.3,0-0.6,0.1-0.9,0.1c4.2,0,8.3,0.1,12.5,0.1c0.8,0,2.6-0.1,4.6-0.3c-0.9-0.1-1.9-0.2-2.8-0.3
		c1.1,0,3.3,0,5.9,0.1c2.7-0.1,5.3-0.2,6.7,0.2c4,0.1,8,0.2,10.6,0.1c-2-0.2-4.1-0.6-6.1-0.9c-0.3,0.2-4.7-0.1-5.9-0.1
		c-0.5,0-0.9,0-1.4,0c-0.6,0.1-1.1,0.2-1.7,0.4c0.4-0.1,0.7-0.1,1,0.1c-4.3,0.1-9-0.4-12.3-0.4c0.3,0,0.6,0,0.8-0.1
		c-2.8,0-3.6,0.1-6.2,0c2.4-0.6,4.6-0.4,6.8-0.2c0.1,0,0.1,0,0.2,0c0.2,0,0.2,0-0.1-0.1c3.9,0.1,7.6,0.2,11.4,0.1
		c2.3-0.4,4.8-0.2,7.3,0.1c0.1,0,0-0.1-0.4-0.2c9.6-0.5,20.2,1.5,29.6-0.2c1,5.5,1.8,12.8,1.1,18.1c0.4,0,0.4,8.8,0.4,9.5
		c0.1,0,0.4-2.1,0.4-2.2c0.9,2.6,2.2,27.3,0.9,28.1c-0.5,0.8,0,15.9,0.1,23.5c0-0.1,0-0.2,0.1-0.2c0,0.2,0.1,0.2,0.1,0.1
		c0-0.5,0-0.1,0,0c0,0.2,0,0.6,0,1.1c0.2,0,0.2-0.7,0.2-1.2c0-0.1,0-0.2,0-0.3c0,0,0,0.1,0,0.3c0.7,7,0.9,14.3,0.8,21.8
		c0.1-1.3,0.1-2.5,0.1-3.8c-0.1-1.2-0.1-2.3,0-3c0-0.7,0-1.2,0-1.7c0-2.2,0-4.3-0.1-6.4c0-3.5-1-9.6,0.1-13.1
		c0.1-0.4,0.1-0.6,0.2-0.6c-0.1,0.2-0.2,0.4-0.2,0.6c-0.5,3.1,0.4,16.2,0.1,18.5c0,0.3-0.1,0.6-0.1,1c0,0.5,0,1.1,0,1.6
		c0.1-0.3,0.1-0.5,0.2-0.6c0.2,0.6-0.1-0.1,0.2-0.2c0-0.1,0-0.1,0-0.3c0.1,0,0.1,0.2,0,0.3c0,0,0,0,0,0
		C758.6,112.1,759.3,122.6,757.9,125.1z M401,168.8c-0.1,0,0-0.1,0-0.1C401.1,168.7,401,168.8,401,168.8z M401,169
		C400.9,169,401,169.1,401,169C400.9,169,400.9,169,401,169z M37.2,111.5C37.4,111.6,37.3,112,37.2,111.5L37.2,111.5z M431.6,21.4
		c0.1-0.1,1,0,1.5,0C433.1,21.4,432.2,21.4,431.6,21.4z M435.8,21.3c0.3,0,0.9,0,0.8,0.1C436.2,21.4,435.8,21.4,435.8,21.3z
		 M702.3,20.1c0.6,0,1.2,0,1.3,0.1C703.1,20.2,702.3,20.2,702.3,20.1z M756,94.1c0.1,0,0.1,0.2,0,0.3C756,94.4,756,94.2,756,94.1z
		 M756.1,95c0,0.1,0,0.2-0.1,0.2C756,95.1,756,95,756.1,95z M757.5,108.9C757.5,109,757.5,109.2,757.5,108.9L757.5,108.9z
		 M758.8,151.5C758.8,151.5,758.8,151.5,758.8,151.5C758.8,151.5,758.8,151.4,758.8,151.5c0-0.1,0-0.1,0-0.2
		C758.9,151.3,758.8,151.4,758.8,151.5z M759,130.4C759.7,129.9,757.5,133.4,759,130.4L759,130.4z M759,130.2
		C759.1,130.4,759,130.4,759,130.2L759,130.2z M759.1,129.4C759.1,129.2,759.1,129.2,759.1,129.4
		C759.1,129.4,759.1,129.4,759.1,129.4C759.1,129.4,759.1,129.4,759.1,129.4c0.3,0.6-0.3,0.7-0.1,0.1
		C759,129.4,759.1,129.4,759.1,129.4c-0.1-0.4-0.1-1-0.1-1.4c-0.3,0.8,0.1-0.4,0.2-0.7C759.6,127.9,759.2,128.5,759.1,129.4z
		 M762.8,114.4C762.9,114.6,762.8,115,762.8,114.4L762.8,114.4z M760.8,103.5c0.1,0,0.1,0.3,0.1,0.4
		C760.8,103.8,760.7,103.7,760.8,103.5z M760.8,104c0.1,0,0,0.1,0,0.2C760.8,104.2,760.8,104.1,760.8,104z M760.7,104.8
		C761.1,104.4,760.9,105.1,760.7,104.8L760.7,104.8z M760.7,105.5C760.8,104.8,760.8,105.5,760.7,105.5L760.7,105.5z M760.7,104.8
		c-0.1,0-0.1,0.1-0.2,0.1c0,0.2,0.1,0.6,0.2,0.9c0.1-0.4,0.2-0.5,0.1,0.4c0,0.1,0,0.3,0,0.4c0,0,0-0.1-0.1-0.1c0,0.1,0,0.3-0.1,0.4
		c-0.5-0.9-0.6-1.6-0.1-2C760.5,104.7,760.6,104.7,760.7,104.8z M760.3,154.8c0-0.1,0-0.2,0.1-0.2
		C760.3,154.8,760.3,154.9,760.3,154.8z M760.4,154.1C760.3,153.8,760.4,153.8,760.4,154.1L760.4,154.1z M760.5,152.5
		c0,0.2,0,0.3,0,0.3C760.5,152.7,760.5,152.6,760.5,152.5c0-0.4,0-1.2,0-2.3c0.1,0,0.1,0,0.2,0C760.6,151,760.5,151.9,760.5,152.5z
		 M760.6,147.9c-0.1-0.1-0.1-0.2-0.2-0.2c0,0.2,0,0.4,0,0.6c0.1,0.2,0.1,0.3,0.1,0.4c0.1,0.3,0.1,0.7,0.1,1.1c-0.1,0-0.1,0-0.2,0
		c0-0.5,0-1,0-1.5c-0.2-0.5-0.5-1.3,0-0.6c-0.1-4.9-0.1-11.4-0.1-11.4c-0.5-4.7-0.4-12.1,0.2-15.5c-0.6,0.5-0.4-1.8,0-1.2
		c0.1-0.3,0.1-0.7,0-0.9c-0.4,0.5-0.2-0.7-0.1-1.1c-0.1-0.6,0-0.7,0.1-0.1c0.2-0.3,0.3-0.7,0.3-1c0-1.1-0.1-2.3-0.1-3.4
		c-0.1-1.1-0.3-2.1-0.1-2.9c0,1,0.1,1.9,0.1,2.9c0.1,1.2,0.3,2.4,0.1,3.4C761.1,127.3,760.8,137.6,760.6,147.9z M760.5,148.1
		C760.6,148,761.1,148.5,760.5,148.1L760.5,148.1z M760.4,116.7C760.6,116.8,760.4,116.9,760.4,116.7L760.4,116.7z M760.6,111
		c0,0.2,0,0.5-0.1,0.7C760.5,111.4,760.4,110.9,760.6,111z M760.7,108.6c0.3-0.3,0.2-0.2,0.1,0.2c0.2,0.3,0.2,0.8-0.1,1.3
		c0,0-0.1-0.1-0.1-0.2c0,0.4,0,0.9,0,0.9c0-0.5,0-1.1,0-1.6c0,0,0,0.1,0.1,0.2c0-0.2,0.1-0.4,0.2-0.6
		C760.8,108.8,760.8,108.7,760.7,108.6c-0.1,0.2-0.1,0.4-0.1,0.4c-1.2-3.1,0.8,0.5,0.1-1.6c0,0.1,0,0.2-0.1,0.4
		c-0.1-0.3,0-0.6,0.1-0.5C761.3,106.2,760.9,107.8,760.7,108.6z M705.2,19C705.1,19,705.1,19,705.2,19c-0.2,0-0.2,0-0.3,0
		C705,19,705.1,19,705.2,19z M779.7,17.1c0.1,0,0.2,0,0.3,0.1C780.1,17.1,779.9,17.1,779.7,17.1z M707.9,19.1
		c-0.9-0.1-1.8-0.1-2.6-0.1c0,0-0.1,0-0.1,0C706.1,19,707,19.1,707.9,19.1z M447.8,20.9c1.7,0,3.3-0.1,5-0.1
		C452.2,20.6,450,20.7,447.8,20.9z M444.8,21.2c-1.3,0-2.6,0-3.8,0C442.6,21.4,444.5,21.5,444.8,21.2z M498.8,19.8
		c-0.6-0.1-1.9-0.1-2.7-0.1C496.7,19.8,498.2,19.8,498.8,19.8z M459.7,21.5c-3.8,0-6.7,0.1-10.3-0.2c-0.3,0.1-1.1,0.2-2.1,0.3
		c0.7,0,1.3-0.1,1.7-0.2C449.8,21.6,459.5,22.2,459.7,21.5z M542.9,20.2C542,20.2,542.1,20.5,542.9,20.2L542.9,20.2z M447.4,21.6
		c-1.6,0.1-4.1,0.1-7.1,0.1C442.3,22,445.4,21.8,447.4,21.6z M712.9,20.2c0.1,0.1,1.9,0.1,2.7,0c-0.4,0-0.9,0-1.3,0
		C713.8,20.2,713.3,20.2,712.9,20.2z M721.8,20.3c5.6,0.2,11.3,0.5,16.8,0c-1.7-0.1-3.4-0.1-5.1-0.1c1.4,0,2.7-0.2,3.9-0.6
		c-0.6,0-1.2,0-1.8,0c0,0,0.1,0,0.1,0c-0.1,0.1-0.8,0.1-1.2,0c0,0,0,0,0,0c-0.4,0-0.9,0-1.3,0c0,0.2-1.2,0.3-3.1,0.4
		c0.9,0.1,1.8,0.2,2.6,0.2C729.1,20.2,725.4,20.3,721.8,20.3z M589.6,18.6c-0.1,0-0.3,0-0.4,0c-0.1,0-0.2,0-0.3,0
		c0.2,0,0.3,0.1,0.5,0.1c0.4,0,0.8,0,1.1,0C590.2,18.6,589.9,18.6,589.6,18.6z M484.7,16.8c-0.1,0-0.2,0-0.2,0
		C484.6,16.9,484.7,16.9,484.7,16.8z M720.3,20.3c0.5,0,1,0,1.4,0C721.3,20.3,720.8,20.3,720.3,20.3
		C720.3,20.3,720.3,20.3,720.3,20.3z M588.9,18.6c0.1,0,0.2,0,0.3,0c0.1,0,0.1,0,0.2,0c-0.2,0-0.4,0-0.6,0
		C588.8,18.5,588.8,18.5,588.9,18.6z M711.1,20.1c1.1,0.1,2.1,0.1,3.2,0.2c0.7,0,1.3,0,1.7,0c0,0-0.1,0-0.3,0c0.4,0,0.8,0,1.2,0
		c-0.2,0-0.3,0-0.5,0c5.4-0.2,0.7-0.1,2.4,0c-0.1,0-0.3,0-0.4,0c0.3,0,0.6,0,0.8,0c-0.1,0-0.1-0.1-0.2-0.1c0.5,0,0.9,0,1.4,0
		c-0.2-0.1-0.5-0.3-0.8-0.3c-2.3-0.1-4.7-0.1-6.7-0.2c-1,0.1-2.1,0.1-3.1,0.2c0.4,0,0.8,0.1,1.1,0.1C710.9,20,711,20,711.1,20.1z
		 M588,18.5c0.1,0,0.2,0,0.3,0c-0.2,0-0.3,0-0.5,0c-0.1,0-0.1,0-0.1,0c0.3,0,0.7,0,1,0C588.5,18.5,588.2,18.5,588,18.5z M692.5,20.2
		c-0.2,0-0.4,0-0.7,0C691.8,20.3,692.1,20.2,692.5,20.2z M710.1,20.2c0.5,0.1,1,0.1,1.5-0.1c-0.2-0.1-0.3-0.1-0.5-0.1
		c-0.1,0-0.2,0-0.3,0C710.6,20,710.3,20.1,710.1,20.2z M734.5,19.7c0.4,0,0.7,0,1.1,0C735.2,19.7,734.5,19.6,734.5,19.7z
		 M536.6,17.1c0.1,0,0.1,0,0.2,0C537.2,17,537.3,16.7,536.6,17.1z M500,17c0.3,0,0.7,0,1-0.1c-0.4-0.1-0.7-0.1-1.1-0.1
		c-0.2,0-0.4,0-0.6,0c-0.2-0.1-0.3-0.1-0.5-0.1c-0.2,0-0.5,0-0.7,0c-0.3,0-0.6,0.1-0.8,0.2C498.1,16.9,499.1,16.9,500,17z M501.8,17
		c0,0,0.1,0.1,0.1,0.1c0.9,0,1.9,0,2.7-0.1C503.8,17,502.8,17,501.8,17z M720.4,20.4C720.3,20.4,720.3,20.3,720.4,20.4
		c-0.5,0-0.9,0-1.3,0C719.5,20.5,719.9,20.5,720.4,20.4z M718.2,20.3c-0.5,0-0.9,0-1.4,0C717.3,20.3,717.8,20.3,718.2,20.3z
		 M648.8,20.5c2.1,0,4.3,0,6.4,0C654.4,19.9,651.2,20.3,648.8,20.5z M529.6,20.6c-5,0-10,0-15-0.1c-1.7,0.1-3.4,0.1-5,0
		c-8.5,0-17-0.1-25.4-0.2c-10.4-0.1-20.9,0.2-31.4,0.5c0.1,0,0.1,0,0.2,0.1c45.9,1.6,92.2,0.7,138.2,0.7
		c47.4-0.1,95.2,0.6,142.7,0.7c-1.1-0.1-1.9-0.2-2.3-0.3c2-0.2,4.2,0.1,6.2,0c-11.4-1.8-24.2-0.5-35.9-0.6
		c-14.6-0.1-30.5-0.3-44.3-0.3c-30.3-0.1-60.6-0.1-91-0.2c-11.1,0-22.3-0.1-33.4-0.1C532.3,20.7,531,20.7,529.6,20.6z M628.3,20.5
		c0,0,0.1,0,0.1,0C628.5,20.4,628.4,20.4,628.3,20.5z M609.3,20.5c7.6,0,15.2,0.1,22.9,0.1c4.7,0,9.4,0.1,14.2,0.1
		c0.5,0,1.4-0.1,2.4-0.2c-6.7,0-13.5,0-20.3-0.1c0,0-0.1,0.1-0.2,0.2c-0.2,0-0.1-0.1,0.1-0.2c-26-0.1-52.6-0.3-78.3-0.3
		c2.4,0.1,4.7,0.1,7.1,0.1C574.7,20.5,592.1,20.6,609.3,20.5z M543.2,19.6c-0.1,0-0.3,0-0.4,0C543,19.6,543.2,19.7,543.2,19.6z
		 M743.1,22.2c-3,0-6.1,0-9.2,0C737.2,22.5,742.5,22.8,743.1,22.2z M504.9,19.8L504.9,19.8c0,0,0.1,0,0.1,0
		C505,19.8,504.9,19.8,504.9,19.8z M588.7,18.6c0,0,0.1,0,0.2,0c0,0,0,0,0,0C588.8,18.6,588.8,18.6,588.7,18.6z M506,20
		C507,20,508,19.8,506,20L506,20z M758.4,155.6c0-0.2,0-0.5,0-0.7C758.4,155.1,758.4,155.3,758.4,155.6
		C758.4,155.6,758.4,155.6,758.4,155.6z M760.7,106.5c0-0.1,0-0.2,0-0.3c0-0.1,0-0.2-0.1-0.4C760.7,106,760.6,106.3,760.7,106.5z
		 M758.1,121.9C758.1,122.5,758.3,121.9,758.1,121.9L758.1,121.9z M757.4,118.1C757.5,117.8,757.4,118.1,757.4,118.1L757.4,118.1z
		 M760.7,107.3C760.7,107.3,760.7,107.3,760.7,107.3c0,0.1,0,0.1,0,0.2C760.7,107.4,760.7,107.3,760.7,107.3z M760.7,108.7
		C760.7,108.7,760.7,108.7,760.7,108.7C760.7,108.7,760.7,108.7,760.7,108.7C760.7,108.7,760.7,108.7,760.7,108.7z M757,120.9
		c0-0.2,0-0.4,0.1-0.7c0-0.9,0-1.8,0-2.6c0,0.9-0.1,1.7-0.1,2.6C757,120.4,757,120.7,757,120.9z M757.3,111.4c0,0.8,0,1.6-0.1,2.4
		c0.1,1,0.1,2,0.2,2.7C757.4,114.6,757.3,112.9,757.3,111.4z M758.3,160.2c0.1-0.8,0.2-1.9,0.1-3
		C758.2,158.4,757.9,159.9,758.3,160.2z M758.3,159.6c0.1,0,0,0.2,0,0.3C758.2,159.8,758.2,159.6,758.3,159.6z M760.6,109.4
		c0,0.2,0,0.4,0,0.5C760.6,109.7,760.6,109.6,760.6,109.4z M759,128c0-0.1,0.1-0.1,0.1-0.2C759,127.8,759,127.9,759,128z
		 M757.3,110.7C757.3,110.7,757.3,110.8,757.3,110.7c0,0.3,0,0.5,0,0.7C757.3,111.2,757.3,111,757.3,110.7z M758,123.4
		c0,0.1,0.1,0.3,0.1,0.3C758,123.6,758.1,123.4,758,123.4z M759,129.7c0,0,0-0.1,0-0.2c0,0,0,0,0,0C759,129.5,759,129.6,759,129.7z
		 M755.9,100.2c0.1,0,0.1-1.7,0.1-4.3C755.9,96.7,755.9,100.2,755.9,100.2z M757.8,109.9C757.8,109.9,757.7,109.9,757.8,109.9
		C757.7,110,757.8,110,757.8,109.9z M761.7,13.5C761.7,13.6,761.7,13.6,761.7,13.5c0,0.3,0,0.5,0.1,0.7
		C761.7,14,761.7,13.8,761.7,13.5z M758.4,155.6c0,0.5,0,1.1,0,1.7C758.6,156.4,758.7,155.7,758.4,155.6z M756.8,128.2
		c0-0.6,0.1-1.3,0.1-1.9c0-1.3,0.1-2.7,0.1-4c0-0.5,0-0.9,0-1.4C756.8,123.1,756.8,125.6,756.8,128.2z M757.1,120.2c0,0.7,0,1.4,0,2
		c0,1.3,0,2.6-0.1,4c0,0.9-0.1,1.8-0.1,2.7c0.1,3.5,0.3,7.1,0.4,10.2c0.2-3,0.6-6,0.8-8.9c-0.1-4.1-0.3-8.6-0.5-12.6
		C757.3,118.5,757.2,119.3,757.1,120.2z M757.1,136.6C757.1,136.5,757.4,136.7,757.1,136.6L757.1,136.6z M756.8,128.2
		c-0.2,3.7-0.6,7.5-0.4,11.1c0.1-3.4,0.3-6.9,0.4-10.3C756.8,128.7,756.8,128.5,756.8,128.2z M757.7,156.1
		C757.7,156.1,757.7,156.1,757.7,156.1C757.7,156.1,757.7,156.1,757.7,156.1C757.6,156.1,757.6,156.1,757.7,156.1z M760.4,117.6
		C760.4,117.6,760.4,117.6,760.4,117.6C760.5,117.4,760.5,117.4,760.4,117.6z M757.5,117.7c0-0.2,0-0.7-0.1-1.2
		C757.5,116.9,757.5,117.3,757.5,117.7C757.5,117.7,757.5,117.7,757.5,117.7z M33.4,146c0,0,0,0.1,0,0.1L33.4,146
		C33.5,146.1,33.5,146.1,33.4,146z M35,107.4c0,0.1,0,0.3,0,0.4c0-0.1,0-0.2,0-0.3C35,107.5,35,107.5,35,107.4z M29.9,98
		c0.1,0,0.1-1.7,0-4.2C29.8,94.5,29.9,98,29.9,98z M32.8,14.8C32.8,14.8,32.8,14.8,32.8,14.8c0,0.2,0,0.4,0.1,0.6
		C32.9,15.2,32.8,15,32.8,14.8z M35,107.4C35,107.4,35,107.4,35,107.4c0-0.2,0-0.5-0.1-0.7C34.8,106.9,34.8,107.2,35,107.4z
		 M32.9,127.9c-0.3-6.8-0.9-15.4-1.1-20.3c-0.1,0.1-0.1,0.3-0.2,0.6c0,0.9,0,1.8,0,2.7c0.1,1.6,0.4,3.3,0.4,3.9
		c-0.2,0.9-0.3,2-0.4,3.1c0.2,3.2,0.2,6.5,0.2,9.7c0.1,1.9,0.3,3.8,0.4,5.6c0.1,0.6,0.1,1.1,0.2,1.7
		C32.7,132.5,32.9,130.2,32.9,127.9z M32.3,132.9C32.3,132.8,32.6,132.9,32.3,132.9L32.3,132.9z M32.5,134.8c0,0.2,0,0.3,0,0.5
		c0.1,1,0.1,1.9,0.2,2.8C32.7,137.2,32.6,136,32.5,134.8z M32.8,120.5c0-0.1,0-0.3-0.1-0.2C32.7,120.4,32.8,120.6,32.8,120.5z
		 M32,115.2C32,114.9,32,115.2,32,115.2L32,115.2z M32.8,118.8C32.8,119.3,33,118.7,32.8,118.8L32.8,118.8z M32.1,107.3
		C32.1,107.3,32,107.3,32.1,107.3C32,107.4,32.1,107.3,32.1,107.3z M32.7,138.1c0,0,0,0.1,0,0.1c0,0,0,0,0,0
		C32.7,138.2,32.7,138.2,32.7,138.1z M32.6,138.4c0,0,0-0.1,0-0.2C32.5,138.1,32.5,138.1,32.6,138.4z M33.9,124.6
		c0-0.1,0-0.1,0.1-0.2C33.9,124.4,33.9,124.5,33.9,124.6z M35,114.6C35,114.6,35,114.6,35,114.6C35,114.4,35,114.4,35,114.6z
		 M35,106C35,106,35,106,35,106C35,106,35,106,35,106C35,106,35,106,35,106z M34.9,104.7C34.9,104.7,34.9,104.7,34.9,104.7
		c0,0.1,0,0.1,0,0.2C34.9,104.8,34.9,104.7,34.9,104.7z M34,126.2c0,0,0-0.1,0-0.2c0,0,0,0,0,0C34,126,34,126.1,34,126.2z M34.9,103
		C35,102.9,35,102.2,34.9,103L34.9,103z M635,149.6c0.1,0,0.1,0,0.2-0.1c-0.1,0-0.3,0-0.4-0.1C634.8,149.5,634.9,149.6,635,149.6z
		 M632.7,152.5C633.1,152.5,633.4,152.2,632.7,152.5L632.7,152.5z M634.7,152.5c-0.3-0.1-0.9-0.1-1.3-0.1
		C633.7,152.6,634.4,152.5,634.7,152.5z M740.7,152.3C740.7,152.3,740.7,152.3,740.7,152.3c-0.3,0-0.7,0-1,0
		C740,152.3,740.4,152.4,740.7,152.3z M745.6,152.3c-2.1-0.5-4.2-0.9-5.4,0c0.2-0.1,0.3,0,0.5,0.1
		C742.3,152.3,744,152.3,745.6,152.3z M631.4,152.5C631.4,152.5,631.6,152.5,631.4,152.5L631.4,152.5z M751.1,152.5
		c-1.7-0.1-3.6-0.2-5.5-0.2C747.7,152.8,749.9,153.3,751.1,152.5z M750.3,152.5c-0.1,0.1-0.4,0.1-0.6,0
		C749.7,152.4,750.2,152.4,750.3,152.5z M630.6,152.7C630.2,152.8,631.7,152.7,630.6,152.7L630.6,152.7z M656.2,153
		C655.7,152.9,656,153.1,656.2,153L656.2,153z M742.8,153.1C742.8,153.1,742.8,153.1,742.8,153.1c-0.3-0.1-0.5-0.1-0.7-0.1
		C742.3,153.2,742.6,153.2,742.8,153.1z M690.8,153.2c4.8,0,9.5,0.1,14.2,0.1c-3-0.1-6-0.3-9-0.4C694.1,153,692.3,153.1,690.8,153.2
		z M697.9,153.4C698.1,153.1,697.8,153.4,697.9,153.4L697.9,153.4z M742,153.1L742,153.1c-0.1,0-0.2,0-0.3,0
		C741.8,153.1,741.9,153.1,742,153.1z M743.3,153.1c-0.2,0-0.4,0-0.6,0c0,0,0.1,0,0.1,0C742.9,153.1,743.1,153.1,743.3,153.1z
		 M739.2,153c0,0.1,1.1,0.1,1.4,0c0,0-0.1,0-0.1,0C740.1,153,739.6,153,739.2,153z M734.7,152.9c-0.1-0.1-0.4-0.1-0.7-0.1
		C734,153,734.4,152.9,734.7,152.9z M737.8,153C739.5,153,737.8,152.9,737.8,153L737.8,153z M635.5,152.8
		C635.5,152.8,636.3,152.8,635.5,152.8L635.5,152.8z M637.3,152.8C637.3,152.8,637.3,152.8,637.3,152.8
		C637,152.8,636.9,152.8,637.3,152.8z M637.5,152.9c0.1,0,0.2,0,0.3-0.1c-0.2,0-0.4,0-0.5,0C637.4,152.8,637.5,152.8,637.5,152.9z
		 M637.9,152.8c0,0-0.1,0-0.1,0c0,0,0,0,0,0C637.8,152.8,637.9,152.8,637.9,152.8z M666.7,153.4c-5.2-0.1-10.3-0.2-15.5-0.2
		c3.2,0.1,6.5,0.2,9.7,0.3C662.8,153.4,664.7,153.4,666.7,153.4z M740.7,153C740.7,153,740.7,153,740.7,153c0.3,0.1,0.7,0.1,1.1,0.1
		c-0.3,0-0.6,0-0.9,0c0.4-0.1,0.8-0.1,1.1,0c0.1,0,0.1,0,0.2,0c0,0-0.1,0-0.1-0.1c0.2,0,0.4,0,0.6,0c-0.5-0.2-2.3-0.2-4.5-0.3
		c0.8,0.1,1.5,0.2,2.3,0.2C740.6,153,740.6,153,740.7,153z M731.1,152.9c0.2,0,0.4,0,0.5,0C731.4,152.9,731.2,152.9,731.1,152.9
		C731.1,152.9,731.1,152.9,731.1,152.9z M687.7,153.4c0.6,0,1.7-0.1,3.1-0.2c-2.1,0-4.2,0-6.3-0.1
		C685.6,153.2,686.6,153.3,687.7,153.4z M629.8,152.7c-0.1,0.1,0.4,0.1,0.7,0.1C630.4,152.7,630,152.7,629.8,152.7z M753.9,155
		c-0.8,0-1.6,0-2.5,0C752.7,155,753.9,155.1,753.9,155z M706.3,154.2c-4.9-0.1-9.9-0.2-14.8-0.4
		C696.4,154.1,701.5,154.5,706.3,154.2z M635.2,152.6c-0.1,0-0.1,0-0.1,0C635.1,152.6,635.1,152.6,635.2,152.6z M748.3,154.6
		c1,0,2,0,3,0c-4.9-1.6-12-0.5-17.1-0.6c-7.7-0.1-15.8,0.2-23.1-0.4c-1.5,0.3-3.1,0.5-4.8,0.5c15.2,0.4,30.3,0.7,45.1,0.7
		C750.1,154.9,748.6,154.8,748.3,154.6z M635.2,152.6c0.3,0,0.8,0,1.1,0c-0.1,0-0.3,0-0.4-0.1C635.6,152.5,635.3,152.6,635.2,152.6z
		 M684.1,153.6c-5.7-0.2-11.6-0.3-17.4-0.3c8.3,0.1,16.5,0.3,24.8,0.5C689,153.7,686.5,153.6,684.1,153.6z M624.8,152.8
		C624.8,152.8,624.8,152.8,624.8,152.8C624.8,152.8,624.8,152.8,624.8,152.8z M751.7,153.1c-2.6-0.2-5.5,0-8.4,0
		C746,153.3,749.2,153.6,751.7,153.1z M653.1,150C653.6,150,653.3,149.7,653.1,150L653.1,150z M668.4,152.9c-0.1,0-0.2,0-0.3,0
		c5.5,0,10.9,0.1,16.4,0.1C679.2,152.8,673.8,152.9,668.4,152.9z M655.8,152.9c1.4,0.1,2.7,0.1,4,0.1c-0.4,0-0.8-0.1-1.1-0.1
		C657.7,152.9,656.8,152.9,655.8,152.9z M660.4,153c-0.2,0-0.4,0-0.6,0c2.5,0.2,5.3,0.1,8.3-0.1c-0.2,0-0.5,0-0.7,0
		C665,153,662.7,153,660.4,153z M721.7,150.1c0.5,0,0.9,0,1.4,0c0.1,0,0.1,0,0.2,0C722.5,150,721.9,150,721.7,150.1z M723.8,150.1
		C723.8,150.1,723.8,150.1,723.8,150.1c0.1,0,0.1,0,0.2,0C724,150.1,723.9,150.1,723.8,150.1z M681.9,151.5c0.2,0,0.3,0,0.4,0
		c0,0,0,0,0,0C682.2,151.5,682,151.5,681.9,151.5z M639.9,152.4c-0.6,0.1-1.2,0.1-1.8,0.3c0.2,0,0.4,0,0.6,0
		c2.2,0.5,13.9,0.2,16.1,0.2c0.3,0,0.6,0,1,0c-0.5,0-1.1-0.1-1.7-0.1C650.8,153,643.8,152.5,639.9,152.4z M637.7,152.6
		c0,0,0.1,0,0.1,0C637.9,152.6,637.8,152.6,637.7,152.6z M724.1,150.1C724.1,150.1,724.1,150.1,724.1,150.1
		C724.1,150.1,724.1,150.1,724.1,150.1C724.1,150.1,724.1,150.1,724.1,150.1z M654,149.9C655.1,149.9,654.4,149.3,654,149.9
		L654,149.9z M256.3,152.8C256.3,152.8,257.1,152.8,256.3,152.8L256.3,152.8z M255.8,149.6c0,0,0.1,0,0.1-0.1c-0.1,0-0.3,0-0.4-0.1
		C255.7,149.5,255.7,149.6,255.8,149.6z M259,152.7c1.3,0.2,4.7,0.2,8,0.2C263.9,152.6,261,152.3,259,152.7z M358.8,153
		c0.4,0,0.7,0,1.1,0c0,0,0,0,0,0C359.6,153.1,359.2,153.1,358.8,153C358.8,153,358.8,153,358.8,153z M277.7,153.2
		c0.3-0.1,0.6-0.1,0.9-0.2c5.5,0.2,11.1,0,16.6,0c-6.7-0.1-13.5-0.1-20.1-0.1c-0.5,0-4.3,0.1-8.2,0c0.6,0.1,1.1,0.1,1.7,0.2
		c1,0,2,0,3,0.1C273.7,153.2,275.7,153.2,277.7,153.2z M276.5,153C276.3,153.1,276,152.9,276.5,153L276.5,153z M363.4,152.3
		c-2.1-0.5-4.1-0.9-5.2,0c0.2-0.1,0.3,0,0.4,0.1C360.2,152.3,361.9,152.3,363.4,152.3z M361.1,153.1c-0.2,0-0.4,0-0.6,0
		c0,0,0.1,0,0.1,0C360.8,153.1,361,153.1,361.1,153.1z M360.7,153.1C360.7,153.1,360.7,153.1,360.7,153.1c-0.3-0.1-0.4-0.1-0.6-0.1
		C360.3,153.2,360.5,153.2,360.7,153.1z M358.7,152.3C358.7,152.3,358.6,152.3,358.7,152.3c-0.3,0-0.6,0-1,0
		C358,152.3,358.3,152.4,358.7,152.3z M369.4,153.1c-2.6-0.2-5.4,0-8.2,0C363.8,153.3,366.9,153.6,369.4,153.1z M269.1,153.2
		c2.8,0.3,5.7,0.5,8.1,0.2c-1.8-0.1-3.7-0.1-5.5-0.1C270.8,153.2,270,153.2,269.1,153.2z M368.8,152.5c-1.6-0.1-3.5-0.2-5.4-0.2
		C365.5,152.7,367.7,153.2,368.8,152.5z M368,152.5c-0.1,0.1-0.4,0.1-0.6,0C367.4,152.4,367.9,152.4,368,152.5z M305.1,153.3
		c0.8,0.1,2.6,0,4.8-0.1c-3.1,0-6.3-0.1-9.4-0.1C302,153.1,303.6,153.2,305.1,153.3z M300.4,153.1c-1.7,0-3.5-0.1-5.2,0
		C297,153,298.7,153.1,300.4,153.1z M277.2,153.3c1.3,0,2.6,0.1,3.9,0.1c1.8,0,3.7-0.1,5.6-0.1c-3-0.1-6-0.1-8.9-0.1
		C277.5,153.3,277.4,153.3,277.2,153.3z M258.5,152.6C258.5,152.6,258.5,152.6,258.5,152.6C258.7,152.6,258.6,152.6,258.5,152.6z
		 M288.8,152.4c-0.1,0-0.6,0-0.6,0.1C288.5,152.5,288.9,152.4,288.8,152.4z M355.9,153C357.5,153,355.8,152.9,355.9,153L355.9,153z
		 M286.6,153.4c8.1,0.1,16.1,0.3,24.2,0.5c-2.5-0.1-4.9-0.3-7.3-0.2C298,153.4,292.3,153.3,286.6,153.4z M317.3,153.2
		c-1.4-0.1-2.7-0.2-4.1-0.2c-1.1,0.1-2.2,0.1-3.3,0.2C312.4,153.2,314.8,153.2,317.3,153.2z M317,153.4
		C317.2,153.1,316.9,153.4,317,153.4L317,153.4z M352.8,152.9c0-0.1-0.4-0.1-0.6-0.1C352.2,153,352.6,152.9,352.8,152.9z
		 M325.2,154.2c15.6,0.4,31.1,0.7,46.3,0.8c0.1-0.1-4.7,0-5.4-0.3c1,0,2,0,3,0c-4.7-1.6-11.7-0.5-16.7-0.6c-7.3-0.1-15,0.2-21.9-0.3
		c-0.3,0-0.5,0-0.8,0C328.3,154,326.8,154.1,325.2,154.2z M250.8,152.7c-0.1,0.1,0.4,0.1,0.6,0.1C251.4,152.7,251,152.7,250.8,152.7
		z M255.9,152.6C255.9,152.6,256,152.6,255.9,152.6C255.9,152.6,255.9,152.6,255.9,152.6z M245.9,152.8
		C245.9,152.8,245.9,152.8,245.9,152.8C246,152.8,246,152.8,245.9,152.8z M274.3,149.9C275.4,149.9,274.7,149.3,274.3,149.9
		L274.3,149.9z M251.6,152.7C251.2,152.8,252.7,152.7,251.6,152.7L251.6,152.7z M273.5,150C274,150,273.7,149.7,273.5,150L273.5,150
		z M389,150c-0.5-0.3-1.8-0.4-3.3-0.4c1.2,0,2.2,0.2,3,0.5C388.2,150.2,388.3,150.1,389,150z M357.2,153c0,0.1,1.1,0.1,1.4,0
		c0,0-0.1,0-0.1,0C358.2,153,357.6,153,357.2,153z M258.3,152.9c0.1,0,0.2,0,0.3-0.1c-0.2,0-0.4,0-0.5,0
		C258.2,152.8,258.3,152.8,258.3,152.9z M258.7,152.8c0,0,0,0-0.1,0c0,0,0,0,0,0C258.6,152.8,258.7,152.8,258.7,152.8z M258.1,152.8
		C258.1,152.8,258.1,152.8,258.1,152.8C257.8,152.8,257.7,152.8,258.1,152.8z M257.1,152.6c-0.1,0-0.3,0-0.4-0.1c-0.2,0-0.5,0-0.6,0
		C256.3,152.6,256.7,152.6,257.1,152.6z M342.3,150.1C342.3,150.1,342.3,150.1,342.3,150.1c0.1,0,0.2,0,0.2,0c0,0,0,0,0,0
		C342.5,150.1,342.4,150.1,342.3,150.1z M340.1,150.1c0.4,0,0.8,0,1.2,0c0.1,0,0.2,0,0.4,0C340.9,150,340.1,150,340.1,150.1z
		 M349.3,152.9c0.1,0,0.3,0,0.4,0C349.6,152.9,349.4,152.9,349.3,152.9C349.3,152.9,349.3,152.9,349.3,152.9z M301.5,151.5
		c0.1,0,0.3,0,0.4,0c0,0,0,0,0,0C301.7,151.5,301.6,151.5,301.5,151.5z M325.2,154.2c-4.8-0.1-9.6-0.2-14.4-0.3
		C315.6,154.1,320.6,154.5,325.2,154.2z M252.4,152.5C252.4,152.5,252.5,152.5,252.4,152.5L252.4,152.5z M253.6,152.5
		C254,152.5,254.3,152.2,253.6,152.5L253.6,152.5z M254.3,152.5c0.3,0.1,1,0.1,1.3,0.1C255.3,152.5,254.7,152.4,254.3,152.5z
		 M358.7,153C358.7,153,358.7,153,358.7,153c0,0,0.1,0,0.2,0c0.4-0.1,0.8-0.1,1.1,0c0.1,0,0.1,0,0.2,0c0,0-0.1,0-0.1-0.1
		c0.2,0,0.4,0,0.6,0c-0.5-0.2-2.2-0.2-4.2-0.2c0.7,0.1,1.4,0.2,2.2,0.2C358.6,153,358.6,153,358.7,153z M402.1,187.9
		C402.3,188,402.2,187.8,402.1,187.9L402.1,187.9z M396.2,178.5C396.3,178.5,396.2,178.3,396.2,178.5L396.2,178.5z M396.2,173.4
		C396.2,173.4,396.2,173.4,396.2,173.4C396.2,173.4,396.2,173.4,396.2,173.4C396.2,173.4,396.2,173.4,396.2,173.4
		C396.2,173.4,396.2,173.4,396.2,173.4z M395,176c0.1,0.1,0.1,0.3,0.2,0.4C395.2,176.2,395.1,176.1,395,176
		C395,175.9,395,175.9,395,176z M403.5,186.2C403.5,186.2,403.5,186.2,403.5,186.2C403.4,186.2,403.4,186.2,403.5,186.2
		C403.4,186.2,403.5,186.2,403.5,186.2z M394.5,175C394.5,175,394.5,175,394.5,175C394.5,175,394.5,175,394.5,175
		C394.5,175,394.5,175,394.5,175C394.5,175,394.5,175,394.5,175z M404,190.5C404,190.5,404,190.5,404,190.5
		C404,190.5,404,190.5,404,190.5z M402.2,188.1C402.2,188.1,402.2,188.1,402.2,188.1C402.3,188.1,402.3,188.1,402.2,188.1
		L402.2,188.1z M397.9,176.9C398,176.9,398,176.9,397.9,176.9L397.9,176.9z M396.5,174C396.5,174,396.5,174.1,396.5,174
		C396.5,174.1,396.5,174,396.5,174C396.5,174,396.5,174,396.5,174z M402.2,188.2C402.2,188.2,402.3,188.2,402.2,188.2
		C402.3,188.2,402.3,188.2,402.2,188.2C402.3,188.2,402.3,188.2,402.2,188.2z M397.3,179.3C397.4,179.5,397.4,179.2,397.3,179.3
		L397.3,179.3z M395.1,175.9C395.1,175.9,395.1,175.9,395.1,175.9C395,175.9,395,175.9,395.1,175.9
		C395,175.9,395.1,175.9,395.1,175.9z M397.6,179.9C397.6,179.9,397.6,179.8,397.6,179.9C397.5,179.9,397.6,179.9,397.6,179.9z
		 M401,174C401,174,401,173.9,401,174L401,174C401,173.9,401,174,401,174z M401.2,173.3C401.2,173.3,401.2,173.3,401.2,173.3
		C401.1,173.3,401.1,173.3,401.2,173.3C401.2,173.3,401.2,173.3,401.2,173.3C401.2,173.4,401.2,173.4,401.2,173.3z M397.8,185.2
		c0.1-0.2,0.1-0.5,0.2-0.7c0-0.2,0.1-0.4,0.1-0.7c-0.1,0.3-0.2,0.7-0.3,1C397.8,185,397.8,185.1,397.8,185.2z M397.6,188
		C397.7,188.3,397.7,188,397.6,188L397.6,188z M402.3,177.1C402.3,177.1,402.4,177.2,402.3,177.1L402.3,177.1z M403.3,174
		C403.2,174,403.2,174,403.3,174C403.3,174,403.3,174,403.3,174C403.3,174,403.3,174,403.3,174z M399.8,187.8L399.8,187.8
		C399.8,187.7,399.8,187.7,399.8,187.8C399.8,187.7,399.8,187.7,399.8,187.8z M400.9,174.4L400.9,174.4
		C400.9,174.3,400.9,174.3,400.9,174.4C400.9,174.4,400.9,174.4,400.9,174.4z M397.6,188.2c0,0,0,0.1,0,0.1
		C397.6,188.3,397.6,188.3,397.6,188.2L397.6,188.2z M397.5,188.3c0,0,0,0.1,0,0.1C397.5,188.4,397.5,188.4,397.5,188.3
		C397.5,188.4,397.5,188.3,397.5,188.3z M400.9,174.4c0,0.1,0,0.2-0.1,0.3C400.8,174.5,400.9,174.4,400.9,174.4
		C400.9,174.4,400.9,174.4,400.9,174.4z"></path>
</g>
</svg>
