<!--?xml version="1.0" encoding="utf-8"?-->
<!-- Generator: Adobe Illustrator 22.1.0, SVG Export Plug-In . SVG Version: 6.00 Build 0)  -->
<svg version="1.1" id="_x34_" xmlns="http://www.w3.org/2000/svg" xmlns:xlink="http://www.w3.org/1999/xlink" x="0px" y="0px" viewBox="0 0 577.1 800" style="enable-background:new 0 0 577.1 800;" xml:space="preserve">
<style type="text/css">
	.stblack{fill:#000000;}
	.st0{fill:#FFFFFF;}
</style>
<g>
	<path class="st0" d="M180.6,773.9c3.1-13.9,2.9-12.2,8.1-27c3-8.6,5.1-17.5,7.1-26.6c2.6-11.9,4.6-12,10.1-44.2
		c-1.7-3.6-1.8,19.8-5.6,15.4c-4.6-5.4-28.9-27.9-36-33.4c-6.1-4.7-12.7-9.7-19.5-14.7c-6.4-4.7-13.1-9.5-19.8-14.2
		c-6.7-4.8-13.5-9.3-20.1-13.9c-7-4.8-13.7-9.5-20.1-13.8c-7.5-5-14.5-9.4-20.5-13.3c-10.2-6.5-17.9-10.6-21-12
		c-0.6-3.1-0.9-11.7-2.1-24.6c-0.6-7.1-1.5-15.5-2.2-24.9c-0.6-7.7-1.2-16-1.9-24.9c-0.6-7.9-3.5-16.1-4.1-24.8
		c-0.6-8.1,0-16.5-0.6-25c-0.6-8.2-1.4-16.5-2-24.9c-0.6-8.2,0.1-16.7-0.5-25c-0.6-8.3-1-16.7-1.5-25c-0.6-8.4-1.8-16.7-2.3-24.9
		c-0.6-8.4-2.5-16.7-3-24.9c-0.5-8.5,1.2-17,0.7-25.1c-0.5-8.7-2.4-16.9-2.8-24.9c-0.5-8.9-1.4-17.3-1.8-24.9
		c-0.5-9.4,0.2-17.9-0.1-25c-0.6-14.4-1.5-33.1-1-34.7c0.5-1.8,1.4,8.3,1.4,8.3c5.5-4.5,28.8-25,36.1-30.7
		c6.1-4.7,13.3-8.9,20.3-14.2c6.3-4.8,11.8-11.3,18.6-16.4c6.5-4.9,13.4-9.5,20.1-14.5c6.6-4.9,12.7-10.7,19.3-15.6
		c6.7-5,14-9,20.6-13.8c6.8-5.1,13.1-10.6,19.5-15.3c7-5.2,14-9.7,20.2-14.3c7.5-5.5,14.9-9.5,20.6-13.7
		c10.7-7.9,30.6-21.2,32.6-22.7c11.7-8.8-3.2,0,4.1,0c1.4,0,25.4,7.6,39.4,11.8c7,2.1,15,5.3,24.1,8.1c7.6,2.3,16.3,2.9,24.9,5.6
		c7.8,2.4,15.7,5.9,24,8.4c8,2.5,15.9,5.7,24.1,8.2c8.2,2.5,16.9,3.1,24.9,5.5c8.3,2.5,16.6,4.8,24.4,7.2c8.6,2.6,16.4,6.2,24,8.4
		c9.1,2.7,17.2,5.7,24.3,7.7c13.3,3.7,22.5,5.4,24.8,5.4c6.8,0,10.1,5.1,12.3,21.5c0.9,6.8,2.1,15.6,3.1,26.9c0.6,7.8,0.2,16.8,1,27
		c0.7,8.1,0.5,17.2,1.4,27c0.7,7.6,1.7,15.5,2.5,23.6c0.7,7.7,2.2,15.6,3,23.5c0.8,7.8,2.4,15.6,3.2,23.5c0.9,7.9,1.8,15.8,2.7,23.6
		c0.9,8,0.1,16.1,1,23.7c1,8.1,2.1,16,3,23.5c1,8.3,3.7,16,4.6,23.3c1.1,8.8,0.4,17,1.4,23.7c1.7,12.3,7.7,30.6,8.4,33.3
		c1.4,5.6,2-8,0,0c-2.2,8.5-11.8,27.9-14.8,31.6c-1.1,1.4-6.1,9.7-13.2,22c-3.7,6.4-6.8,14.6-11.5,22.8c-3.9,7-7.8,14.6-12.2,22.4
		c-4.1,7.2-7.7,15-12,22.5c-4.1,7.4-10.1,13.9-14.3,21.3c-4.2,7.6-6.4,16.2-10.4,23.4c-4.3,7.8-10.2,14.4-14.1,21.3
		c-4.6,8.3-7.4,16.6-10.9,23.1c-6.8,12.4-12.9,19.9-13.7,21.6c-0.9,1.9-9,6.4-22.5,11c-7,2.4-15.4,4.8-24.5,7.6
		c-7.7,2.4-15.7,5.8-24.3,8.3c-8,2.4-17.1,2.2-25.4,4.5c-8.3,2.4-16.6,4.8-24.6,7.1c-8.6,2.4-16.5,6.3-24.3,8.5
		c-9.1,2.5-11.5,0.1-18.7,2.1c-12.9,3.6-20.4-2.6-23-1.8c-4.6,1.5-20.4,20.1-28.3,27.8c-5.8,5.8-11.3,13-16.9,18.9
		C190.1,765.2,183.5,772.8,180.6,773.9z"></path>
	<path class="stblack" d="M183.4,779.5c2.5-11.3,6.6-21.8,10-32.8c3-9.8,4.7-19.9,7.6-29.7c2.1-7.3,3.9-14.6,5.3-22.1c1-5.2,3.2-11.2,2.3-16.4
		c-0.3-1.5-2.6-8.9-5-8.8c-3.6,0.1-1.5,13.1-3.8,15c-1.8,1.5-2.3-0.6-4.3-2.6c-3.7-3.7-7.5-7.3-11.3-10.8
		c-18.8-17.6-39.3-32.8-60.4-47.7c-15.1-10.7-30.3-21.2-45.7-31.4c-11.8-7.8-23.7-16-36.6-22c1.6,3.3,3.2,6.5,4.8,9.8
		c-3.4-21-3.9-43.1-5.4-64.3c-1-13.9-4.9-27.5-5.1-41.4c-0.2-14-1.4-27.8-2.3-41.8c-1.8-28.3-1.5-56.6-5.4-84.8
		c-0.9-6.5-2.1-13-2.1-19.7c0-7,1.1-13.9,0.8-20.8c-0.5-12-2.7-24.1-3.6-36.1c-1.1-14.6-0.7-29.1-1.3-43.7
		c-0.3-6.5-0.6-12.9-0.8-19.4c-0.1-2.1-1-8.5,0-9.8c-1.2-1.1-2.5-2.3-3.7-3.4c-3.3-7-1-0.4-0.7,2.5c0.1,1.1,3.6,11.2,5.3,9.8
		c10.9-9,21.3-18.6,32.2-27.6c7.3-6,15.4-10.8,23-16.4c9.5-7.1,17.5-15.8,27.2-22.7c9.9-7.1,19.2-14.6,28.7-22.1
		c9.4-7.4,20-13.2,29.4-20.7c17.9-14.2,37-26.3,55.5-39.5c7.8-5.6,15.8-11.1,23.7-16.5c3.8-2.6,10.6-5.9,13.2-9.9
		c1.2-1.9-2.5-12.2-5.2-11.6c-3.7,0.8-3.1,5.7-2.4,8.2c1.5,5.1,3.4,7,8.2,8.1c17.3,4.2,34.6,10.2,51.5,16c11.5,4,23.4,5.4,35,8.9
		c11.7,3.5,23.2,8,34.7,12c22.8,8.1,46.9,11.4,69.7,19.6c20.5,7.3,41.8,15.9,63.5,18.9c2,0.3,4.7,0,6.5,1c3.8,2.1,3.5,9,4,13
		c1.5,11.2,2.9,22.5,3.1,33.8c0.4,23.5,2.1,46.9,4.7,70.2c2.8,25.6,8.6,51.3,9.2,77.1c0.6,27.3,7.8,53.5,9.1,80.6
		c0.5,9.8,3,19.4,5.7,28.8c1.9,6.7,3.2,14.3,7.2,20.1c0.3,0.5,1.1,1.5,1.9,1.3c4.6-1-2-14.3-3.3-15.5c-0.3-0.4-0.7-0.5-1.2-0.5
		c-1.4,1.5-1.6,3.9-2.2,5.8c-1.2,3.7-2.8,7.3-4.4,10.9c-2.8,6.2-5.8,12.2-9.5,17.9c-9.4,14.4-16.5,29.8-24.7,44.9
		c-10.8,20-20.8,40.4-33.8,59.1c-6.2,8.8-9,18.6-13.8,28.1c-4.7,9.4-12,17.2-16.9,26.6c-4.8,9.2-8.3,18.8-13.7,27.6
		c-3,4.9-6.3,11.7-10.7,15.5c-5.5,4.8-14.3,7.1-21,9.4c-10.7,3.6-21.7,6.5-32.3,10.2c-10.2,3.6-19.8,6.6-30.5,8.1
		c-12.2,1.7-24.2,5.6-36,9.2c-9.7,2.9-19.3,8.3-29.5,9.5c-3.1,0.4-6.2,0-9.3,0.3c-6.1,0.6-11.1,2.6-17.4,1.3
		c-5.6-1.1-8.4-3.9-13.2-0.1c-6.5,5.1-11.9,11.8-17.5,17.9c-6.4,6.9-12.9,13.7-19.1,20.8c-4.7,5.4-9.6,10.7-14.6,15.8
		c-2.5,2.6-5.1,5.8-8.4,7.5c-2.5,1.3,2.9,13.1,4.9,12c6.9-3.6,12.6-11.9,17.8-17.5c6.8-7.4,13.4-15.1,20.3-22.4
		c5.2-5.4,10.2-11,15.4-16.4c3.7-3.8,6.9-8.4,12.3-7.4c3.3,0.6,6.3,2,9.8,2.2c4.4,0.3,8.2-0.9,12.5-1.5c3.1-0.5,6.1-0.2,9.1-0.4
		c6.2-0.4,12-2.7,17.8-4.8c9.9-3.7,20-6.6,30.1-9.5c11.1-3.2,22.6-3.9,33.7-6.9c10.2-2.8,20.1-7,30.2-10.1
		c11.1-3.3,22.4-6.4,32.8-11.4c10.9-5.2,16.8-16.9,22.3-27.3c4.8-9,7.9-18.7,13.5-27.3c6.5-10,12.7-18.9,17.3-30.1
		c4.1-10.1,10.1-18,16-26.9c6.3-9.4,11-20,16.4-29.9c11-20.2,20.7-41.1,32.8-60.7c2.9-4.8,6-9.3,8.5-14.3
		c1.7-3.3,11.9-20.9,8.6-23.8c-1.3-2.7-2.6-5.3-3.9-8c-0.6-3.2,0.3,0.1-0.4,0.3c0.6,0.4,1.2,0.9,1.9,1.3c4.5,6.7,2.6,6.4,1.8,2.8
		c-0.3-1.3-0.8-2.6-1.2-4c-1.3-4.3-2.5-8.6-3.6-12.9c-2.8-11.1-2.5-21.7-3.6-33c-0.9-9.8-4-19.3-5.3-29.1
		c-1.7-12.9-2.7-25.5-3.3-38.4c-1.1-23.7-5.7-47.3-8.6-70.8c-3-24-4.6-48.2-5.1-72.4c-0.3-17.5-1.3-37.4-7-54.1
		c-1.6-4.7-4-10.8-8.4-13.5c-3.9-2.4-10.1-2.1-14.5-3c-22.8-4.9-44.2-14.1-66.4-20.8C411,71.3,389,66.8,367.4,59.5
		c-12.5-4.2-25-9.6-37.9-12.3c-12.3-2.5-23.7-6-35.6-10c-9.7-3.2-19.5-6-29.3-9c-3.8-1.2-7.6-2.4-11.5-3.4c-0.7-0.2-5.2-1.6-4.3-0.4
		c1.2,3.2,2.3,6.4,3.5,9.6c0-0.7,1.5-1.8,2.1-2c-1.7-3.9-3.5-7.8-5.2-11.6c-3.3,5.2-13.3,9.7-18.2,13c-9.9,6.8-19.5,13.8-29.6,20.3
		c-12.4,8-24.8,16.6-36.4,25.8c-11.2,8.9-23.4,16.4-34.8,25c-12,9.1-23.7,18.4-35.8,27.4c-6.1,4.5-11.3,9.8-16.9,14.8
		c-5.6,4.9-11.9,8.8-18,13c-15.2,10.4-28.3,23.6-42.5,35.3c1.8,3.3,3.5,6.5,5.3,9.8c-0.4-5-1-9.9-3.2-14.5c-0.4-0.8-2.4-5-3.7-3.4
		c-2.4,3-0.2,13.5-0.1,17c0.4,11.1,0.8,22.1,0.7,33.2c-0.1,11.2,1,22.4,1.8,33.6c0.8,12.1,3.5,24.1,2.8,36.3
		c-1.5,24.2,3.8,48.4,5.3,72.6c0.8,13.4,0.9,26.7,1.4,40.1c0.5,14,2.4,27.7,2.5,41.7c0,11.8,2.7,22.4,4.2,33.9
		c1.5,11.6,1.8,23.5,2.8,35.1c1,11.1,2,22.2,2.8,33.3c0.4,5.4,0.3,12.9,4.3,17.1c4.4,4.7,13.2,7.5,18.7,10.9
		c10.2,6.3,20.3,13,30.3,19.7c21.8,14.8,43.5,29.8,64.5,45.7c14,10.6,27.1,22.5,39.6,34.9c2.5,2.5,5.6,8.1,8.3,3.8
		c1.2-1.9,1.3-5.5,1.6-7.8c0.2-1.4,0.7-3,0.6-4.3c-0.1-3.9,1.3,0.4-1.8-4.2c-0.9-2.8-1.8-5.6-2.7-8.5c-2.4,13.7-5.8,26.8-9.2,40.3
		c-2.8,10.9-5.1,21.8-8.8,32.5c-2.8,8.1-5.3,15.9-7.2,24.3c-0.6,2.5,0.7,5.6,1.9,7.9C179.9,776.6,183,781.4,183.4,779.5z"></path>
</g>
</svg>
