<!--?xml version="1.0" encoding="utf-8"?-->
<!-- Generator: Adobe Illustrator 25.2.3, SVG Export Plug-In . SVG Version: 6.00 Build 0)  -->
<svg version="1.1" id="_x32_" xmlns="http://www.w3.org/2000/svg" xmlns:xlink="http://www.w3.org/1999/xlink" x="0px" y="0px" viewBox="0 0 800 310.1" style="enable-background:new 0 0 800 310.1;" xml:space="preserve">
<style type="text/css">
	.stblack{fill:#000000;}
	.st0{fill:#FFFFFF;}
</style>
<g>
	<path class="st0" d="M72.7,294.9c10.3,0,10.3,1.5,20.6,1.5c10.3,0,10.3-0.3,20.6-0.3c10.3,0,10.3-1,20.6-1
		c10.3,0,10.3-0.3,20.6-0.3c10.3,0,10.3,0.6,20.6,0.6c10.3,0,10.3,0.1,20.6,0.1c10.3,0,10.3,0.7,20.6,0.7c10.3,0,10.3-0.9,20.6-0.9
		c10.3,0,10.3-0.5,20.6-0.5s10.3,1.2,20.6,1.2s10.3-0.6,20.6-0.6c10.3,0,10.3,0.3,20.6,0.3c10.3,0,10.3,0.3,20.6,0.3
		c10.3,0,10.3-0.9,20.6-0.9c10.3,0,10.3,0.3,20.6,0.3c10.3,0,10.3-0.5,20.6-0.5s10.3,1.5,20.6,1.5s10.3-0.2,20.6-0.2
		c10.3,0,10.3-0.2,20.6-0.2c10.3,0,10.3-1.3,20.6-1.3c10.3,0,10.3,0.9,20.6,0.9c10.3,0,10.3,0.2,20.6,0.2s10.3-0.5,20.6-0.5
		c10.3,0,10.3,0,20.6,0c10.3,0,10.3-0.5,20.6-0.5c10.3,0,10.3,0.5,20.6,0.5c10.3,0,10.3,0.1,20.6,0.1c10.3,0,10.3-0.7,20.6-0.7
		c10.3,0,10.3,1.5,20.6,1.5c10.3,0,10.3-1.1,20.6-1.1c10.3,0,10.3,1.1,20.6,1.1c10.3,0,10.3-1.5,20.6-1.5c10.3,0,10.3,0.9,20.6,0.9
		c4.2,0,10.1-3.6,14.8-8.3c5.7-5.8,7.7-14.1,6.7-22.1c-0.4-10.5-0.1-10.5-0.1-20.9c0-10.5,0.7-10.5,0.7-20.9
		c0-10.5-0.7-10.5-0.7-20.9c0-10.5,0.1-10.5,0.1-20.9c0-10.5,1.1-10.5,1.1-20.9c0-10.5-0.4-10.5-0.4-20.9c0-10.5,0.1-10.5,0.1-20.9
		c0-10.5,0.1-10.5,0.1-20.9c0-10.5,0-10.5,0-20.9c0-10.5,0-10.5,0-20.9c0-10.5,0-10.5-0.6-20.9c-1.7-9.1-5.5-14.5-10.3-17.6
		c-7-4.6-15.5-4.9-20.4-4.9c-10.5,0-10.5,0.3-20.9,0.3c-10.5,0-10.5,0.6-20.9,0.6c-10.5,0-10.5,0.1-20.9,0.1
		c-10.5,0-10.5-0.6-20.9-0.6c-10.5,0-10.5,0.2-20.9,0.2c-10.5,0-10.5-0.4-20.9-0.4c-10.5,0-10.5,0.2-20.9,0.2
		c-10.5,0-10.5-0.9-20.9-0.9s-10.5,1.3-20.9,1.3c-10.5,0-10.5-0.6-20.9-0.6c-10.5,0-10.5-0.2-20.9-0.2c-10.5,0-10.5-0.7-20.9-0.7
		c-10.5,0-10.5,1.1-20.9,1.1c-10.5,0-10.5-0.9-20.9-0.9s-10.5,0.8-20.9,0.8c-10.5,0-10.5-1-20.9-1c-10.5,0-10.5,0.9-20.9,0.9
		c-10.5,0-10.5,0.6-20.9,0.6c-10.5,0-10.5-0.9-20.9-0.9c-10.5,0-10.5,0.3-20.9,0.3c-10.5,0-10.5,0.5-20.9,0.5
		C294,13.6,294,13,283.5,13c-10.5,0-10.5,0-20.9,0c-10.5,0-10.5-0.7-20.9-0.7c-10.5,0-10.5,1.1-20.9,1.1c-10.5,0-10.5-0.8-20.9-0.8
		c-10.5,0-10.5,0.2-20.9,0.2c-10.5,0-10.5,0-20.9,0c-10.5,0-10.5,0.4-20.9,0.4c-10.5,0-10.5,0.3-21,0.3c-10.5,0-10.5-0.9-20.9-0.9
		c-4.2,0-13.5,0.7-21.8,2.6c-8.3,1.9-15.9,5.2-15.9,12.7c0,10.5-0.5,10.5-0.5,21c0,10.5,1.2,10.5,1.2,21c0,10.5-0.3,10.5-0.3,21.1
		c0,10.5,0.2,10.5,0.2,21c0,10.5,0.1,10.5,0.1,21.1c0,10.5-1.2,10.5-1.2,21.1c0,10.5,0.1,10.5,0.1,21.1c0,10.5,0.3,10.5,0.3,21
		c0,10.5-0.5,10.5-0.5,21.1c0,10.5,0.2,10.5,0.2,21.1c0,10.5,0.5,10.5,0.5,21.1c0,10.5,0.7,10.5,0.7,21.1
		C58.2,289,64.3,294.9,72.7,294.9z"></path>
	<path class="stblack" d="M60.6,173.8c0.5-2.4,0.7-4.8,0.7-7.8c0-1.2,0-2.3-0.1-3.4c0-1.1-0.1-2.1-0.1-3.1c0-1.6,0.1-2.9,0.2-4.2
		c0.2-1.6,0.4-2.7,0.6-3.8c0.4-2.4,0.8-3.9,1.1-6.3c0.1-1,0.2-2.1,0.2-3.5c0-2.3-0.2-4.1-0.4-5.7c-0.3-1.7-0.5-3.1-0.5-4.6
		c0-0.8,0.1-1.6,0.2-2.5c0.8-5.3,1.2-11.5,1.2-11.8l0-0.1l0.4-11.6c-0.1-4.5-0.1-8.8-0.1-13.1l0-0.1c0,0-0.1-1.7-0.1-4.1
		c-0.1-2.4-0.1-5.5-0.2-8.5c-0.1-6.1-0.1-10.9-0.1-10.9c0-2.4-0.1-4.8-0.3-7.2C63,59.1,62.7,57,62.5,55c-0.3-2.4-0.5-4.8-0.7-7.4
		c-0.2-2.6-0.3-5.1-0.4-7.6c0.2-3.8,0.3-7.8,0.3-11.7c0-0.2,0-0.3,0-0.4l0-0.3c0-0.2,0-0.3,0.1-0.5c0.1-0.9,0.4-1.6,1.1-2.3
		c0.6-0.7,1.5-1.5,2.7-2.1c2.3-1.3,5.2-2.3,8.2-3c6.1-1.5,12.6-2.4,19-2.7c0.8,0,1.6-0.1,2.3-0.1l2.4,0c1.6,0,3.2,0,4.8,0.1
		c3.1,0.2,6.7,0.6,10.1,0.6c3.5,0,6.8,0,10.2-0.1c3.4-0.1,6.7-0.3,10-0.4c3.3,0,6.7,0,10.2-0.1c3.5-0.1,6.8-0.3,10.1-0.3
		c3.3-0.1,6.7,0,10.1,0l10.2,0l10.2,0l10.2-0.1c3.4,0,6.8-0.1,10,0c3.3,0,6.5,0.4,10,0.6c4.2,0.3,8.3,0.5,12.6,0.5
		c2.1,0,4.3-0.2,6.3-0.3c2-0.1,3.8-0.2,5.8-0.2c4.1,0.6,7.4,0.9,10.4,1c3.1,0.2,6.2,0.1,10-0.2c0.7-0.1,1.4-0.1,2.2-0.2
		c1.5-0.1,2.9-0.2,4.4-0.2c1.9,0,3.6,0.1,5.3,0.2c1.7,0.1,3.4,0.2,5.3,0.2c1.5,0,3-0.1,4.4-0.3c0.9,0,5.4-0.2,10.2-0.1
		c3.1,0.1,6,0.4,8.3,0.5c1.9,0.1,3.4,0.3,4.7,0.4c1.8,0.1,3.2,0.2,4.7,0.2c1.9,0,3.9-0.2,6.8-0.7c1.1-0.2,2.5-0.3,4.3-0.4
		c2-0.1,4.3,0,6.7,0.1c2.4,0.1,5,0.3,7.4,0.4c4.2,0.2,7.6,0.3,10,0.3c0.1,0,0.3,0,0.4,0c3.3-0.1,6.2-0.1,8.8-0.1
		c2.5,0,5,0.2,7.3,0.2c4.6,0,7.9-0.5,10.1-1c2.9,0.1,6,0.1,8.9,0.1c2.8,0,5.6,0,8.4,0.1c2.4,0,5,0,7.5-0.2c2.6-0.1,5.1-0.4,7.3-0.5
		c4.6-0.3,9.5-0.3,14,0c2.4,0.1,5.1,0.3,7.9,0.4c2.8,0.1,5.4,0,8.1-0.1c2.7-0.1,5.4-0.3,8.1-0.6c2.6-0.3,5.1-0.5,7.6-0.6
		c2.2,0.1,4.3,0.2,6.5,0.4c2.1,0.2,4.2,0.5,6.4,0.8l0.1,0c3,0.3,6,0.4,8.6,0.3c2.5,0,4.8-0.1,6.7-0.3c3.9-0.3,6.2-0.9,6.9-1
		c2.5-0.3,4.9-0.5,7.4-0.5c2.5-0.1,5,0,7.5,0c2.5,0.1,4.9,0.2,7.6,0.4c2.6,0.1,5.3,0.2,7.9,0.2c1.2,0,2.4,0.2,3.7,0.5
		c1.5,0.3,3.1,0.6,4.9,0.7c3.3,0.1,7.5,0,10.9-0.2c2.1-0.1,3.8-0.2,4.7-0.1l2.5,0.2c1.5,0.2,3,0.3,4.6,0.4c1.8,0.1,3.8,0.1,5.7,0
		c2.9-0.2,5.6-0.4,8.5-0.8c1.9-0.1,3.8-0.2,5.6-0.4c1.9-0.2,3.6-0.5,5.3-0.6c0.8,0,1.6,0.1,2.4,0.1c2.6,0.2,5.4,0.4,8.2,0.4
		c1.8,0,3.7,0.1,5.5,0.1l4.1,0c2.3,0,4.4,0,6.6,0c3.2,0.2,6.4,0.4,9.7,0.6c1.6,0.1,3.2,0.1,4.7,0.1l0.5,0c2.5,0,5.1-0.2,7.6-0.5
		l0.4,0c2.1-0.2,4.1-0.3,6.2-0.3l7.4,0.3c2.5,0.1,5,0.1,7.5,0.1c4.9,0,10-0.1,14.8-0.2c0.7,0,4.1,0.2,8.5,0.5
		c2.2,0.1,4.6,0.3,7.1,0.5c2.5,0.2,5.3,0.4,7.7,0.4c3.1,0,6.3-0.4,8.4-0.7c0.7-0.1,1.6-0.2,1.8-0.2l10.3-0.1c3.4,0,6.9,0,10.5-0.1
		l5.3,0.2c2.8-0.3,5.7-0.5,8.6-0.7c2.8,0,5.7,0,8.6-0.1c2.9-0.1,5.6-0.2,8.4-0.2l4.2,0c1.4,0,2.7,0,4,0.1c2.6,0.2,5.2,0.5,7.6,1.2
		c0.9,0.2,2.2,0.7,3.7,1.3c1.1,0.4,2.2,1.1,3.3,1.8c1.1,0.7,2,1.5,2.8,2.4c1.5,1.7,2.3,3.2,2.7,4.1c0.4,0.8,1.1,2.3,1.8,4.7
		c0.2,0.6,0.4,1.3,0.5,1.9c0.1,0.3,0.2,0.7,0.2,1l0.1,0.5l0,0.2c0.1,1.5,0.2,2.9,0.3,4.2c0.1,1.6,0.2,3,0.2,3.7
		c0.3,6,0.1,12.3,0.2,18.5l0,18.7l0,18.7l-0.1,18.7c-0.2,8.3-0.5,16.6-0.6,25.1c0,2.1,0,4.3,0,6.4c0,2.1,0.1,4.1,0.1,6.2
		c0,2,0,4.1-0.1,6.1c-0.1,2-0.2,4-0.4,5.9c-0.1,0.9-0.2,2.6-0.3,4.8c-0.1,2.3-0.1,5.1,0,7.7c0.2,5.1,0.5,9.9,0.5,10.7l0,10.3
		c0,3.4,0,7,0.3,10.5c0,3,0,5.7-0.1,8.5c-0.1,2.8-0.3,5.7-0.6,8.4c0.2,2.5,0.2,5.1,0.3,7.9c-0.4,3.5-0.7,7.2-0.9,10.6l0.5,8.8
		c0,1.9,0,3.9,0,5.8l0.1,2.9l0,0.7c0,0.2,0,0.4,0,0.6l0,0.5c0,0.4,0.1,0.8,0.1,1.2c0.2,3.3-0.2,6.6-1.3,9.5c-0.5,1.5-1.2,2.9-2,4.1
		c-0.4,0.6-0.9,1.3-1.4,1.8c-0.2,0.3-0.5,0.6-0.8,0.8c-0.2,0.3-0.5,0.6-0.8,0.8c-2.4,2.3-5.3,4.3-8,5.5c-1,0.5-2,0.8-2.7,0.9
		c-0.2,0-0.3,0-0.5,0l-1,0l-2.1,0c-2.7,0-5.3-0.2-8.2-0.4c-2.9-0.2-5.9-0.2-8.8-0.2c-2.9,0-6,0.2-9,0.6c-2,0.3-3.7,0.8-5.4,1
		c-1.7,0.3-3.4,0.4-5.2,0.6c-2.6,0-5.2-0.1-7.7-0.4c-1.3-0.1-2.5-0.3-3.9-0.5c-1.3-0.2-2.8-0.3-4.2-0.5l-0.3,0c-0.3,0-0.6,0-0.9,0
		c-1.3,0.1-2.6,0.1-3.9,0.2l-0.3,0c-0.3,0-0.6-0.1-0.9-0.1c-0.8-0.3-1.8-0.4-2.7-0.4c-2.4,0-5,0.1-7.4,0.3c-2.4,0.2-4.5,0.3-6.8,0.4
		c-1.8,0.1-3.6,0.2-5.5,0.3c-1.8,0-3.6,0-5.3-0.1c-1.7-0.1-3.6-0.3-5.7-0.5c-2-0.1-4.1-0.2-6.1-0.1c-2.3,0-4.5,0-6.8,0
		c-2.3,0.1-4.6,0.2-6.8,0.4c-4.3,0.3-8.6,0.3-13,0.2c-0.5,0-1.1,0-1.6-0.1l-4.4-0.6c-0.8-0.1-1.6-0.2-2.5-0.2c-1,0-2.1,0.1-3.1,0.2
		l-3.7,0.6c-3.8,0-7.5,0-11.2-0.2c-3.8-0.2-7.8-0.3-11.6-0.2c-3.8,0-7.8,0.2-11.5,0.4c-3.7,0.2-7.4,0.2-11.2,0.2
		c-0.9,0-2.7-0.1-4.5-0.3c-3-0.2-6.7-0.5-9.7-0.5c-3.6,0-5.8,0.4-6.9,1.2c0,0-0.1,0-0.2,0.1c-0.1,0-0.3,0.1-0.6,0.1
		c-0.5,0.1-1.4,0.2-2.9,0.2c-2.8,0.1-6.1,0-8.8-0.2c-1.8-0.1-3.3-0.2-4.1-0.2c-3.1,0-6.2,0-9.3-0.1c-3.1-0.1-6.3-0.1-9.4-0.1
		c-3.2,0-6.1,0-9.1-0.2c-2.9-0.2-6.2-0.6-9.4-0.7c-3.2-0.1-6.4-0.1-9.7,0.1c-1.6,0.1-3.3,0.3-4.9,0.5c-1.6,0.2-3,0.4-4.5,0.5
		c-2.9,0.2-5.9,0.2-9.1,0.2c-3.1,0-6.3,0.1-9.4,0.1c-4.1,0-8.3-0.1-12.5-0.2l-12.5-0.1c-4.2-0.1-8.1-0.1-11.9-0.7
		c-1.9-0.3-4.2-0.7-6.4-0.9c-2.3-0.2-4.5-0.3-6.6-0.3c-0.9,0-2.7,0.1-4.9,0.2c-2.2,0.1-4.8,0.4-7.3,0.6c-4.8,0.4-9.7,0.6-10.7,0.7
		c-0.5,0-2.1-0.1-4.2-0.3c-2.1-0.1-4.8-0.3-7.6-0.5c-2.8-0.2-5.6-0.3-8.1-0.4c-2.5-0.1-4.6,0-5.7,0.1l-0.1,0l-5.9,0.7
		c-1.9,0.2-3.7,0.4-5.7,0.5c-3.9,0.2-7.8,0.3-11.7,0.4c-3.6-0.1-7.3-0.1-10.9-0.1c-3.6,0-7.1-0.1-10.7-0.2
		c-3.6-0.1-7.3-0.1-10.9-0.1c-3.6,0-7.4,0.2-10.9,0.4c-1.8,0.1-3.5,0.1-5.3,0.1c-1.8,0-3.5,0-5.3,0c-1.7,0-3.4-0.1-5.1-0.3
		c-1.7-0.2-3.5-0.4-5.4-0.6c-3.8-0.3-7.5-0.3-11.2-0.3c-3.7,0-7.4,0.3-10.8,0.4c-3.3-0.2-6.5-0.7-10-0.9c-1.1,0.3-2.2,0.5-3.2,0.8
		c-1.1,0-2.2,0.1-3.2,0.2c-2.1,0.5-4.1,0.9-6.2,1.3c-3.5-0.4-7.1-0.9-10.5-1.5c-1.4,0-2.8,0-4.4,0c-1.5,0-3.1,0-4.6,0
		c-3.1,0.1-6.1,0.3-9,0.4l-15-0.1c-2.5,0-5,0-7.4-0.1c-2.4-0.1-4.8-0.3-7.4-0.4c-2.6-0.1-5.1-0.2-7.7-0.2c-2.5,0-5,0-7.6,0.1
		c-5.1,0.1-9.9,0.2-15,0.2c-2.6,0-5.2,0.2-7.8,0.4c-2.5,0.2-4.8,0.4-7.3,0.5c-1.2,0-2.4,0-3.6,0.1l-3.8,0c-2.5,0-5.1,0.1-7.6,0.1
		c-2.5,0.1-4.9,0.1-7.4,0.1c-2.5,0-4.9,0-7.2-0.2c-1.2-0.1-2.3-0.2-3.5-0.4c-1.2-0.2-2.5-0.4-3.8-0.5c-2.7-0.3-5.3-0.4-7.9-0.4v7.3
		c2.6,0,5.1,0.1,7.6,0.4c2.5,0.3,5.4,0.8,8.3,0.9c1.4,0.1,2.8,0.1,4.2,0.1l4.1,0c2.7,0,5.5-0.1,8.2-0.2c2.7-0.1,5.3-0.1,8-0.1
		c2.7,0,5.5,0,8.3-0.2c2.9-0.2,5.4-0.5,8-0.6c2.6-0.1,5.2-0.1,8-0.1c2.7,0,5.5-0.1,8.2-0.1c2.7-0.1,5.3-0.1,8-0.1
		c2.7,0,5.3,0,7.9,0.1c2.6,0.1,5.3,0.3,8.1,0.4c5.6,0.2,10.9,0.1,16.3,0.1l8.1,0c2.7,0,5.3,0,8,0.1c2.3,0.6,4.6,1,7.7,1.2
		c1.2,0.1,2.4,0.1,3.5,0.1c1.1,0,2.2,0,3.2,0c1.6,0,3,0.1,4.3,0.2c1.6,0.2,3,0.3,4.2,0.4c2.7,0.2,4.4,0.3,6.7,0.1
		c1-0.1,2-0.1,3.2-0.3c1-0.1,1.9-0.2,2.8-0.4c0.9-0.1,1.7-0.3,2.5-0.4c1.6-0.3,3.1-0.6,4.6-0.6c0.8,0,1.7,0,2.5,0.1
		c2.7,0.3,5.4,0.5,7.6,0.7c2.2,0.2,3.8,0.3,3.9,0.3l0,0c1.8,0.1,3.6,0.2,5.4,0.4c1.7,0.2,3.5,0.5,5.6,0.8c2.4,0.3,4.8,0.4,7.1,0.4
		c2.4,0,4.5,0,6.8,0l0.1,0c0,0,0.5,0,1.2-0.1c0.8-0.1,1.8-0.1,3.1-0.2c2.5-0.2,5.5-0.5,8.4-0.6c2.9-0.1,5.5-0.2,7.4-0.2
		c1.9,0,3.1,0,3.1,0l6.8,0.2c2.3,0,4.6,0.1,6.9,0.1c2.6-0.2,5.1-0.3,7.7-0.4c2.6-0.1,5.2-0.2,7.9-0.4c3.9,0,7.8,0.1,11.9-0.2
		c0.8-0.1,1.5-0.1,2-0.1c1.7-0.2,3.3-0.3,4.9-0.4c1.6-0.1,3.2-0.2,4.8-0.2c3.2-0.1,6.6-0.1,9.8,0c3.3,0.1,6.7,0.1,10.1,0.1
		c3.4,0,6.8-0.1,10.2-0.2c3.4-0.2,6.6-0.4,9.9-0.5c3.3-0.1,6.5-0.1,9.5,0.2c1.5,0.1,3.1,0.4,4.9,0.6c1.7,0.2,3.6,0.4,5.3,0.4
		c3.6,0.1,6.8,0,10.2-0.1l10.1-0.1l10.2,0l10.1-0.1l5.1,0c1.7,0,3.5-0.1,5.3-0.2c1.8-0.1,3.6-0.3,5.2-0.5c1.7-0.2,3.2-0.4,4.8-0.5
		c3.2-0.2,6.6-0.1,9.8,0c1.6,0.1,3.2,0.2,4.9,0.4s3.5,0.3,5.2,0.4c1.8,0.1,3.5,0.1,5.2,0.1l5,0c4,0.2,8.1,0.5,12.2,0.6
		c4.1,0.2,8.2,0.3,12.4,0.3c4.4,0.4,7.5,0.7,10.7,0.7c3.3,0,6.2-0.3,9.8-0.7c0.7-0.1,1.4-0.2,2.1-0.2c1.5-0.2,2.9-0.2,4.3-0.2
		c1.9,0,3.6,0.1,5.3,0.3c1.7,0.1,3.5,0.2,5.4,0.2c1.6,0,3.1-0.2,4.6-0.4c0.9-0.1,5.2-0.5,10.2-0.5c3.2,0,5.9,0.1,8.1,0.3
		c1.8,0.2,3.3,0.3,4.6,0.5c1.8,0.2,3.2,0.3,4.8,0.3c1.9,0,3.9-0.1,6.7-0.5c1.1-0.1,2.5-0.2,4.3-0.2c4.1,0,9.4,0.5,14.2,0.7
		c4.1,0.3,8,0.3,10.4,0.1c0.1,0,0.3,0,0.4,0c3.2-0.2,6.1-0.4,8.8-0.5c2.6-0.1,4.9-0.1,6.9-0.1c2,0.1,3.9,0.2,5.6,0.2
		c1.8,0,3.2-0.1,4.4-0.3c3.1,0.3,6,0.4,9,0.4c1.5,0,3.1-0.1,4.6-0.2c1.5-0.1,2.9-0.2,4.2-0.2c4.5-0.3,9.4-0.3,13.9,0
		c2.2,0.2,4.8,0.5,7.4,0.7c2.6,0.1,5.1,0.2,7.6,0.1c2.7-0.1,5.6-0.4,8.4-0.9c2.7-0.5,4.9-0.9,7.4-1c2.4-0.2,5-0.2,7.5-0.2
		c2.5,0,5,0.1,7.7,0.3c2.3,0.3,4.6,0.6,6.9,0.7l1.7,0.1c0.2,0,0.7,0,1.1,0c0.4,0,0.8,0,1.2-0.1c1.6-0.2,2.9-0.6,4.2-1l0.1-0.1
		c3.4-1.5,5.9-3.3,8-5.1c1-0.9,2-1.8,2.8-2.7c0.4-0.4,0.8-0.9,1.2-1.3c0.4-0.4,0.7-0.9,1.1-1.3c1.3-1.8,2.1-3.3,2.6-4.5
		c0.6-1.2,0.8-2,0.9-2.4c1.1-2.7,1.8-5.6,2.1-8.5c0.1-1.4,0.2-2.9,0.2-4.3c0-0.7-0.1-1.4-0.1-2.1l-0.1-1.1c0-0.5,0-0.3-0.1-0.7
		c-0.1-2.5-0.2-5.1-0.2-7.6c0-2.5,0-5,0.1-7.6c0-1.2,0.3-2.4,0.5-3.7c0.3-1.5,0.6-3.1,0.7-4.9c0.1-3.3,0.2-7.4,0.2-10.7
		c0-2.1,0-4,0-4.9l0.2-2.6c0.1-1.6,0.2-3.2,0.1-4.9c-0.1-1.9-0.3-3.9-0.6-5.7c-0.4-2.7-0.8-5.3-1.1-8l0-10.7l0.3-2.6
		c0.4-2.8,0.5-5.7,0.5-8.5c0-1.9-0.1-3.8-0.1-5.6c0-1.3-0.1-2.5,0-3.8c0-2,0.2-4.3,0.3-6.5c0.4-3.3,0.6-6.6,0.8-9.8
		c0.1-1.6,0.1-3.2,0-4.8l0-0.5c-0.1-2.6-0.3-5.1-0.6-7.5l0-0.4c-0.3-2-0.4-4.1-0.4-6.2l0.2-29.5c0.1-1.4,1-13.8,0.9-23.4
		c0-3-0.4-6.2-0.7-8.3c-0.1-0.7-0.2-1.6-0.2-1.8l0-20.7l0.4-5.3c-0.2-3-0.5-6-0.8-8.9l-0.2-4.4c0-0.6-0.2-1.1-0.2-1.4
		c-0.1-0.4-0.1-0.7-0.2-1.1c-0.2-0.7-0.4-1.5-0.6-2.2c-0.9-3-2.1-6-3.9-8.7c-1.8-2.7-4.2-5.2-7-7c-2.7-1.8-5.7-3.1-8.7-3.9
		c-1.1-0.3-2.8-0.7-4.9-1c-2.9-0.4-6.5-0.5-9.4-0.5c-2.8,0-4.8,0-6-0.1c-1.1-0.1-3,0-5.8,0.1c-2.9,0.1-6.1,0.1-8.7,0.2
		c-1.6,0-3.1,0.1-3.8,0.1c-3.2,0-6.4,0.2-9.4,0.4c-3,0.1-6.1,0.1-9.2,0.1L681.9,10c-3.1,0-6.1,0-9.1-0.2c-3-0.2-6.3-0.4-9.5-0.4
		c-3.2,0-6.3,0-9.4,0l-9.3,0.1c-4.1-0.1-8.3-0.1-12.4-0.3c-4-0.2-8.4-0.5-12.6-0.6c-4.2-0.1-8.4-0.1-12.6-0.1l-6.2-0.1
		c-2.1,0-4.1-0.1-6.1-0.2c-0.9,0-2.6,0-4.6-0.1c-2.1,0-4.8-0.2-7.4-0.2c-2.7,0-5.2,0.1-7.2,0.2c-2,0.1-3.5,0.3-3.9,0.3
		c-1.8,0.1-3.6,0.3-5.3,0.5c-1.7,0.2-3.3,0.4-4.9,0.5c-3.2,0.2-6.6,0.2-9.9,0.1c-2.8-0.2-5.5-0.6-8.5-0.9c-3-0.3-5.9-0.5-8.8-0.7
		c-2.6,0.2-5.3,0.5-7.9,0.7c-3.4-0.3-7-0.6-10.4-0.9c-2.9,0.2-5.7,0.3-8.6,0.4c-3.6-0.2-7.6-0.6-11.5-0.6c-3.8-0.1-7.8-0.1-11.8,0.3
		c-2,0.2-3.8,0.4-5.5,0.5c-1.8,0.1-3.6,0.1-5.4,0.1c-1.8,0-3.7,0-5.5-0.1c-1.8-0.1-3.6-0.2-5.5-0.4c-2.9-0.2-5.9-0.3-8.8-0.3
		c-2.9,0-5.8,0.1-8.8,0.3c-1.5,0.1-3,0.2-4.4,0.4c-1.4,0.1-2.7,0.2-4.1,0.3c-2.7,0.2-5.5,0.2-8.2,0.2C425.7,9,424,9,422.2,9
		l-5.6-0.2c-2.8-0.3-5.6-0.4-8.3-0.4c-2.7-0.1-5.6,0-8.3,0.1l-0.3,0c-0.3,0-0.6,0.1-0.9,0.1l-3.6,0.6l-0.2,0c-0.3,0-0.6,0-0.9-0.1
		c-0.8-0.2-1.7-0.4-2.6-0.4l-7.1-0.1c-2.4,0-4.9,0-7.3,0.1c-3.7,0.4-7.3,0.7-11.1,0.8c-1.9,0.1-3.7,0.1-5.5,0.1
		c-1.8,0-3.7-0.1-5.6-0.2c-4.6-0.4-9.2-0.3-13.6-0.3c-4.5,0-8.9,0.2-13.3,0.2c-0.5,0-1.1,0-1.6-0.1l-4.5-0.6
		c-0.8-0.1-1.7-0.1-2.5-0.1c-1.1,0-2.1,0.2-3.1,0.4l-3.6,0.8c-3.7,0.2-7.4,0.2-11.2,0.1c-3.7,0-7.3-0.3-11.3-0.4
		c-3.9-0.1-7.7-0.1-11.5-0.1l-11.4,0c-0.9,0-2.6-0.1-4.5-0.3c-2.9-0.2-6.5-0.5-9.4-0.7c-3.6-0.3-5.9,0-7.1,0.8c0,0-0.1,0-0.2,0.1
		c-0.1,0-0.3,0.1-0.6,0.1c-0.5,0.1-1.4,0.1-2.9,0.1c-2.8,0-6.3-0.2-9.1-0.2c-1.9,0-3.4,0.1-4.2,0.2c-3,0.3-5.9,0.4-8.9,0.4
		c-3.1,0-6-0.1-9.1-0.3c-3.1-0.2-6.4-0.4-9.5-0.4c-3.2,0-6.3,0-9.4,0c-12.4,0.2-24.8,0.1-37.3,0.1c-2.1,0-4.3,0-6.4,0
		c-2.1,0-4.1,0.1-6.2,0.1c-2.1,0-4.1,0-6.2-0.1c-2.1,0-4.2-0.1-6.3-0.1c-4.3,0-8.3,0.1-12.4,0c-2.1,0-4.1-0.1-6.1-0.2
		c-2-0.1-3.9-0.3-6-0.5c-0.9-0.1-2.7-0.2-5-0.2c-1.1,0-2.4,0-3.6,0.1c-0.6,0-1.3,0.1-1.9,0.1c-0.7,0-1.4,0.1-2,0.1
		C87.6,9,82.7,9.9,81.7,10.1c-1.1,0.1-6.5,0.5-12.2,1.8c-2.9,0.7-5.9,1.7-8.5,3c-2.6,1.4-4.7,3.3-5.6,4.6l-0.1,0.1
		c-1.7,2.4-2.6,5.5-2.5,8.3c0.1,2,0.2,3.9,0.2,5.9c0,1.9,0,3.9,0,5.9c0,2,0,4,0.1,6c0,3.6-0.1,7.3,0.3,11.1c0.2,1.9,0.4,3.7,0.6,5.4
		c0.2,1.7,0.3,3.4,0.3,5.1c0,1.7,0,3.5,0,5.3L54.2,78c-0.1,3.5-0.2,7.2-0.2,10.8l0.3,43.2c-0.3,3.3-0.8,6.5-1.4,9.5
		c0.1,1,0.2,2.1,0.3,3.2c-0.1,1.1-0.2,2.2-0.3,3.2c0.2,2.3,0.4,4.5,0.7,6.7l-1.4,10.8c0.4,5.9,0.7,11.8,1.2,17.9l0.2,7.5
		c0,2.5,0,5,0,7.4c0,2.5-0.1,4.9-0.2,7.4c-0.1,2.5-0.2,5.1-0.3,7.6c-0.1,5.1,0,10.1,0.1,15.1c0.1,5,0.1,9.9,0.1,15
		c0,2.6,0.2,5.1,0.3,7.6c0.1,2.5,0.2,4.9,0.2,7.4c0,2.5,0,5.1,0.1,7.6c0.1,2.6,0.3,5.1,0.5,7.5c0.1,2.4,0.2,4.8,0.2,7.4
		c0.1,3,0.8,6.2,2.4,9c0.8,1.4,1.8,2.6,2.9,3.8c1.2,1.1,2.5,2,3.9,2.8c2.8,1.5,5.9,2.1,9,2.2v-7.3c-2.1,0-4.2-0.5-5.9-1.5
		c-0.9-0.5-1.6-1.1-2.3-1.8c-0.7-0.7-1.2-1.5-1.6-2.4c-0.2-0.4-0.4-0.9-0.5-1.4c-0.1-0.5-0.3-1-0.3-1.5c0-0.3-0.1-0.5-0.1-0.8l0-0.8
		l0-0.4l0-0.5l0-1c0-2.7-0.1-5.6-0.3-8.3c-0.2-2.7-0.3-5.3-0.4-7.9l-0.1-8.1c0-2.8-0.2-5.5-0.3-8.2c-0.1-2.6-0.1-5.3-0.1-7.9
		c0-5.4-0.1-10.9-0.2-16.2c0-2.7,0-5.4,0-8c0-2.7,0.1-5.3,0.2-8c0.2-5.5,0.2-11,0.1-16.4l-0.2-8.1C60.6,179.1,60.6,176.5,60.6,173.8
		z"></path>
	<path class="st0" d="M62.4,238.1c-12.3,7.5-35.3,7.1-35.3,7.1s23,18.5,35.3,17.4"></path>
	<path class="stblack" d="M60.9,261.1c-0.5,0-1.2-0.4-1.9-0.7c-0.6-0.3-1.2-0.2-1.9-0.5c-0.6-0.2-1.2-0.6-1.8-0.9c-0.3-0.1-0.5-0.3-0.8-0.4
		c-0.2,0-0.3,0-0.5-0.1c-0.4-0.1-0.8-0.4-1.2-0.6c-0.4-0.3-0.6-0.5-0.6-0.5c-0.3-0.2-0.7-0.3-1-0.5c-0.4-0.2-0.9-0.2-1.4-0.3
		l-0.1-0.1l-0.3-0.1l-0.2-0.1c-0.6-0.3-1-1.1-1.6-1.4c-0.6-0.3-1.4-0.2-2.1-0.6c-0.6-0.3-1.1-0.9-1.7-1.2c-0.6-0.3-1.2-0.6-1.8-1
		c-0.6-0.4-1-1-1.6-1.3c-0.6-0.4-1.4-0.4-2-0.8c-0.6-0.4-1.2-0.8-1.8-1.2c-0.3-0.2-0.6-0.4-0.9-0.6l-0.1-0.1
		c-0.1-0.1-0.1-0.2-0.2-0.2c-0.1-0.1,0.3-0.1,0.2-0.1l-0.1-0.1l0,0l0.1,0l0.1,0l0,0c0,0-1-0.4-0.8-0.4c0.2,0,1,0.5,1,0.5
		c0,0-0.4-0.5-0.2-0.5l0.2,0.1c-0.1,0,0.2,0,0.4,0.1c0.2,0,0.4,0,0.6,0c0.7-0.1,1.4-0.2,2.2-0.3c0.7-0.1,1.5,0.1,2.2,0
		c0.8-0.1,1.5-0.6,2.2-0.7c0.8-0.1,1.5-0.3,2.2-0.4c0.8-0.1,1.5-0.2,2.3-0.4c0.8-0.2,1.5-0.2,2.3-0.4c0.8-0.2,1.6-0.1,2.3-0.3
		c0.8-0.2,1.5-0.4,2.2-0.6c0.5-0.1,0.9-0.2,1.4-0.4c0,0,1.1-0.4,1.5-0.6c0.9-0.4,1.5-0.7,2.2-1.2c0.5-0.3,0.8-0.6,1.2-0.9
		c0.3-0.3,0.7-0.6,1-0.8c0.9-0.5,0.7-2,0.4-2.4c-0.3-0.5-1.4-1.4-2.3-0.9c-0.6,0.3-1.1,0.6-2.1,0.7c-0.7,0.2-1.7,0.4-2.6,0.6
		c-0.7,0.1-1.3,0.7-2.1,0.8c-0.2,0-0.3,0.1-0.5,0.1c-0.1,0-0.3,0.1-0.6,0.3c-0.4,0.2-0.8,0.3-1.2,0.4c-0.7,0.1-1.4,0.3-2.1,0.4
		c-0.7,0.2-1.4,0.1-2.1,0.2c-0.7,0.1-1.3,0.6-2.1,0.7c-0.7,0.1-1.5,0-2.2,0.1c-0.7,0.1-1.5-0.2-2.2-0.1c-0.7,0.1-1.3,0.8-2,0.9
		c-0.7,0.1-1.4-0.1-2.1,0c-0.2,0-0.4,0-0.5,0l-0.3,0c-0.1,0-0.3,0-0.5,0c-0.7,0-1.4-0.1-2.1,0c-1.5,0.1-2.6,0.4-4,0.4
		c-1.5,0-2.9,0-4.3,0.1c-1.5,0-2.9,0-4.3,0l-0.2,0c0.4,0.3,0.5,0.5,0.9,0.9c0.4,0.4,0.3,0.2,0.9,0.7c0.9,0.8,2.4,1.6,3.3,2.4
		c0.9,0.7,1.8,1.5,2.8,2.3c1,0.7,1.8,1.6,3,2.5c0.6,0.4,1.2,0.8,1.8,1.1c0.4,0.2,0.7,0.3,1,0.5c0.6,0.4,1.1,1.1,1.7,1.5
		c0.6,0.4,1,1.1,1.7,1.6c0.6,0.4,1.6,0.3,2.2,0.6c0.6,0.4,1.2,1,1.8,1.3c0.6,0.4,1.2,1,1.8,1.3c0.7,0.4,1.4,0.5,2.1,0.8
		c0.7,0.3,1.4,0.7,2,1c0.7,0.3,1.4,0.6,2.1,0.9l0.2,0.1c0.2,0.1,0.4,0.2,0.6,0.4c0.7,0.4,1.6,0.5,2.4,0.9c0.2,0.1,0.3,0.1,0.5,0.2
		c0.4,0.2,2.3,0.3,2.7,0.4c0.3,0,0.5,0,0.8,0.1c0.5,0.1,0.9,0.4,1.6,0.4c0.9,0,2.3,0,3,0c0.9,0,1.6-1.3,1.5-1.8
		C62.3,262,61.7,261.2,60.9,261.1z"></path>
</g>
</svg>
