<?xml version="1.0" encoding="utf-8"?>
<svg version="1.1" xmlns="http://www.w3.org/2000/svg" xmlns:xlink="http://www.w3.org/1999/xlink" viewBox="0 0 800 302.2">
<path fill="white" stroke="black" stroke-width="5" d="M763.1,58.2 L763.1,41.3 L746.2,41.3 L746.2,24.4 L729.3,24.4 L729.3,7.6 L70.7,7.6 L70.7,24.4 L53.8,24.4 
    L53.8,41.3 L36.9,41.3 L36.9,58.2 L20,58.2 L20,193.3 L36.9,193.3 L36.9,210.2 L53.8,210.2 L53.8,227.1 L70.7,227.1 L70.7,244 L357.8,244 
    L357.8,260.9 L374.7,260.9 L374.7,277.8 L391.6,277.8 L391.6,294.7 L408.4,294.7 L408.4,277.8 L425.3,277.8 L425.3,260.9 L442.2,260.9 
    L442.2,244 L729.3,244 L729.3,227.1 L746.2,227.1 L746.2,210.2 L763.1,210.2 L763.1,193.3 L780,193.3 L780,58.2 L763.1,58.2z"/>
</svg>