<?xml version="1.0" encoding="utf-8"?>
<svg version="1.1" xmlns="http://www.w3.org/2000/svg" xmlns:xlink="http://www.w3.org/1999/xlink" viewBox="0 0 800 531.8">
<path fill="white" stroke="black" stroke-width="5" d="M713.8,422.1 L667.2,374.2 L694.8,383.1 L673.7,357.9 L682.2,359.6 L726.3,222.4 L719,222.1 L778.7,183.6 
    L716.1,192.4 L724.7,185.9 L746.6,167.9 L705.3,176.1 L709.5,169.1 L638,101.9 L627,104.2 L650.1,69 L621.8,82 L663.3,27 L585.3,83.2 
    L593.1,70 L607.2,43.5 L560.2,74.8 L563,65.9 L439.8,48.9 L249.6,62 L248.3,71.2 L204.2,30.4 L217.6,66.9 L224.3,80.3 L152.4,15.8 L199.4,89.1 
    L186.9,83.7 L116.4,138.2 L121.1,148.8 L81.3,132.7 L115.1,164.6 L85.2,153.8 L102.4,176.8 L95.4,175.4 L91.8,255.1 L102.4,258 L21.3,293 
    L98.8,282.1 L82.8,289.7 L63.5,300.9 L96.6,299.7 L93.7,305.4 L179.8,399 L188.6,394.6 L171.6,419.6 L190.9,411.1 L205.9,405.8 L165.8,461.5 
    L223.3,423.3 L210.9,446.3 L254,424.7 L251.9,433.4 L410.7,429.1 L409.2,418.3 L536.5,516 L482.5,412.5 L499.8,420.6 L637.6,398.1 
    L630.6,390.2 L713.8,422.1z"/>
</svg>