<!--?xml version="1.0" encoding="utf-8"?-->
<!-- Generator: Adobe Illustrator 25.2.3, SVG Export Plug-In . SVG Version: 6.00 Build 0)  -->
<svg version="1.1" id="_x34_" xmlns="http://www.w3.org/2000/svg" xmlns:xlink="http://www.w3.org/1999/xlink" x="0px" y="0px" viewBox="0 0 800 306.5" style="enable-background:new 0 0 800 306.5;" xml:space="preserve">
<style type="text/css">
	.stblack{fill:#000000;}
	.st0{fill:#FFFFFF;}
</style>
<g>
	<path class="st0" d="M727.5,295.8c-10.3,0-10.3-1.5-20.6-1.5c-10.3,0-10.3,0.3-20.7,0.3c-10.3,0-10.3,1-20.7,1
		c-10.3,0-10.3,0.3-20.7,0.3c-10.3,0-10.3-0.6-20.7-0.6c-10.3,0-10.3-0.1-20.7-0.1c-10.3,0-10.3-0.7-20.7-0.7
		c-10.3,0-10.3,0.9-20.7,0.9c-10.3,0-10.3,0.5-20.7,0.5c-10.3,0-10.3-1.2-20.7-1.2c-10.3,0-10.3,0.6-20.7,0.6s-10.3-0.3-20.7-0.3
		c-10.3,0-10.3-0.3-20.7-0.3c-10.3,0-10.3,0.9-20.7,0.9c-10.3,0-10.3-0.3-20.7-0.3c-10.3,0-10.3,0.5-20.7,0.5s-10.3-1.5-20.7-1.5
		c-10.3,0-10.3,0.2-20.7,0.2c-10.3,0-10.3,0.2-20.7,0.2c-10.3,0-10.3,1.3-20.7,1.3c-10.3,0-10.3-0.9-20.7-0.9s-10.3-0.2-20.7-0.2
		c-10.3,0-10.3,0.5-20.7,0.5c-10.3,0-10.3,0-20.7,0c-10.3,0-10.3,0.5-20.7,0.5c-10.3,0-10.3-0.5-20.7-0.5c-10.3,0-10.3-0.1-20.7-0.1
		c-10.3,0-10.3,0.7-20.7,0.7c-10.3,0-10.3-1.5-20.7-1.5c-10.3,0-10.3,1.1-20.7,1.1c-10.3,0-10.3-1.1-20.7-1.1
		c-10.3,0-10.3,1.5-20.7,1.5c-10.3,0-10.3-0.9-20.7-0.9c-4.2,0-9.8-3.8-14.5-8.5c-5.7-5.8-9.1-13.8-8.1-21.9
		c0.4-10.5-0.1-10.5-0.2-20.9c0-10.5,0.7-10.5,0.7-21c0-10.5-0.7-10.5-0.7-21c0-10.5,0.1-10.5,0-21c0-10.5,1-10.5,1-21
		c0-10.5-0.4-10.5-0.4-21c0-10.5,0.1-10.5,0.1-21c0-10.5,0.1-10.5,0.1-21c0-10.5,0-10.5-0.1-21c0-10.5,0-10.5,0-21
		c0-10.5-1.2-10.5-0.7-21c1.7-9.1,6.3-14.6,11.1-17.7c7-4.6,15.6-4.3,20.5-4.3c10.5,0,10.5-0.3,21-0.3c10.5,0,10.5-0.6,21-0.6
		c10.5,0,10.5-0.1,21-0.1c10.5,0,10.5,0.6,21,0.6c10.5,0,10.5-0.2,21-0.2c10.5,0,10.5,0.4,21,0.4c10.5,0,10.5-0.2,21-0.2
		c10.5,0,10.5,0.9,21,0.9c10.5,0,10.5-1.4,21-1.4s10.5,0.6,21,0.6c10.5,0,10.5,0.2,21,0.2c10.5,0,10.5,0.7,21,0.7
		c10.5,0,10.5-1.1,21-1.1c10.5,0,10.5,0.9,21,0.9c10.5,0,10.5-0.8,21-0.8c10.5,0,10.5,1,21,1c10.5,0,10.5-0.9,21-0.9
		s10.5-0.6,21-0.6c10.5,0,10.5,0.9,21,0.9c10.5,0,10.5-0.3,21-0.3c10.5,0,10.5-0.5,21-0.5c10.5,0,10.5,0.6,21,0.6
		c10.5,0,10.5,0,21,0c10.5,0,10.5,0.7,21,0.7c10.5,0,10.5-1.1,21-1.1c10.5,0,10.5,0.8,21,0.8c10.5,0,10.5-0.2,21-0.2
		c10.5,0,10.5,0,21,0s10.5-0.4,21-0.4c10.5,0,10.5-0.3,21-0.3c10.5,0,10.5,0.9,21,0.9c4.2,0,13.7-0.7,22.1,1.2
		c8.3,1.9,15.1,6.1,15.1,13.7c0,10.5-0.5,10.5-0.5,21.1c0,10.5,1.2,10.5,1.2,21.1c0,10.5-0.3,10.5-0.3,21.1
		c0,10.5,0.2,10.5,0.2,21.1c0,10.5,0.1,10.5,0.1,21.1s-1.2,10.5-1.2,21.1c0,10.5,0.1,10.5,0.1,21.1c0,10.5,0.3,10.5,0.3,21.1
		c0,10.5-0.5,10.5-0.5,21.1s0.2,10.5,0.2,21.1c0,10.5,0.5,10.5,0.5,21.1c0,10.5,0.7,10.5,0.7,21.1
		C743.3,288.2,735.9,295.8,727.5,295.8z"></path>
	<path class="stblack" d="M744.4,174.6c0.3-2.4,0.5-4.9,0.5-7.8c0-1.2,0-2.3-0.1-3.4c0-1.1,0-2.1-0.1-3.1c0-1.6,0-2.9,0.2-4.2
		c0.1-1.5,0.3-2.8,0.4-3.9c0.3-2.4,0.5-4.2,0.7-6.5c0.1-1,0.2-2,0.2-3.3c0.1-2.2,0-4-0.1-5.5c-0.1-1.7-0.3-3.1-0.3-4.7
		c0-0.8,0-1.6,0.1-2.5c0.6-5.2,0.7-11.6,0.8-11.8l0-0.1l0.3-11.6c0-4.5-0.2-8.9-0.2-13.2l0-0.1c0,0,0-1.7-0.1-4.1
		c-0.1-2.4-0.1-5.6-0.1-8.5c0-6,0-10.8,0-10.8c0-2.3,0-4.7-0.2-7c-0.2-2.4-0.5-4.7-0.7-6.8c-0.3-2.4-0.5-4.9-0.7-7.5
		c-0.1-2.6-0.2-5.2-0.2-7.7c0.2-3.8,0.3-7.8,0.3-11.6c0-0.8,0-1.4,0-2c0-2.1-0.5-4.2-1.5-6.1c-1-1.9-2.4-3.5-3.9-4.8
		c-3.1-2.5-6.6-3.9-10.1-4.9c-7-1.9-14-1.9-20.7-1.7c-1.7,0-3.3,0.1-4.9,0.1c-1.6,0-3.3,0-4.9-0.1c-1.6-0.1-3.2-0.2-4.9-0.3
		c-1.7-0.1-3.4-0.3-5.1-0.3c-3.4-0.1-6.8,0-10.2,0l-10,0.3l-10.2,0.1c-3.4,0-6.9,0.2-10.2,0.3c-6.7,0.1-13.5,0-20.3,0.1
		c-6.8,0-13.6,0-20.4,0.1c-3.4,0-6.8,0.1-10.1,0c-3.4,0-6.6-0.3-10.1-0.5c-4.2-0.4-8.3-0.5-12.5-0.5c-2.1,0-4.2,0.1-6.3,0.3
		c-2.1,0.2-4,0.3-5.9,0.4c-4.1-0.3-7.5-0.5-10.6-0.6c-1.6-0.1-3.1-0.1-4.7-0.1c-1.6,0-3.3,0-5.2,0.1c-0.7,0-1.4,0.1-2.2,0.1
		c-1.5,0.1-3,0.1-4.4,0.1c-1.9,0-3.6-0.1-5.3-0.2c-1.7-0.1-3.4-0.2-5.3-0.2c-1.5,0-3,0.1-4.5,0.2c-0.8,0-5.4,0.2-10.3,0
		c-3.2-0.1-5.9-0.3-8.2-0.5c-1.9-0.1-3.4-0.2-4.7-0.3c-1.8-0.1-3.2-0.2-4.7-0.1c-1.9,0-3.9,0.1-6.8,0.5c-1.1,0.1-2.5,0.3-4.3,0.3
		c-2,0.1-4.3,0.1-6.8,0c-2.4-0.1-5-0.2-7.3-0.3c-4.2-0.1-7.6-0.2-10.1-0.1c-0.1,0-0.3,0-0.4,0c-3.3,0-6.3,0.1-9,0.1
		c-2.6,0-5-0.2-7.3-0.3c-4.5-0.1-7.8,0.2-10,0.5c-2.9-0.1-5.9-0.1-8.8,0c-2.9,0.1-5.7,0.1-8.6,0.1c-2.4,0-4.9,0-7.4,0.1
		c-2.5,0.1-5.1,0.3-7.4,0.5c-4.7,0.3-9.5,0.3-14.2,0.1c-2.5-0.1-5.1-0.3-7.8-0.5c-2.7-0.1-5.4-0.1-8.1-0.1c-2.7,0.1-5.4,0.2-8,0.4
		c-2.7,0.2-5.2,0.5-7.7,0.6c-4.4-0.1-8.8-0.3-13-0.8l-0.1,0c-3-0.3-5.9-0.4-8.5-0.4c-2.5,0-4.7,0.1-6.6,0.2
		c-3.8,0.2-6.2,0.6-6.8,0.8c-2.6,0.3-5,0.5-7.5,0.6c-2.5,0.1-5.1,0.1-7.6,0c-2.5,0-5-0.2-7.6-0.4c-2.6-0.2-5.2-0.2-7.8-0.3
		c-1.2,0-2.4-0.2-3.7-0.3c-1.5-0.2-3.1-0.4-4.9-0.5c-3.3,0-7.5,0-10.9,0c-2.1,0-3.8,0.1-4.8,0.1l-2.5-0.2c-1.5-0.1-3.1-0.2-4.6-0.3
		c-1.8-0.1-3.7-0.2-5.6-0.1c-2.9,0.1-5.6,0.2-8.5,0.4c-1.8,0-3.7,0.1-5.6,0.3c-1.9,0.2-3.7,0.4-5.4,0.6c-0.8,0-1.6,0-2.5,0
		c-2.9-0.1-5.6-0.1-8.3-0.2c-1.8,0-3.7-0.1-5.6-0.1l-4-0.1c-2.3,0-4.4-0.1-6.6-0.1c-3.3-0.2-6.4-0.3-9.7-0.4c-1.6,0-3.2-0.1-4.7,0
		l-0.5,0c-2.5,0-5.1,0.2-7.6,0.3l-0.4,0c-2.1,0.2-4.2,0.2-6.3,0.2c-2.4-0.1-4.9-0.2-7.4-0.3c-2.5-0.1-5-0.1-7.5-0.1
		c-4.9,0-10,0.1-14.8,0.2c-0.7,0-4.2-0.1-8.6-0.3c-2.2-0.1-4.6-0.2-7.1-0.4c-2.5-0.2-5.2-0.4-7.6-0.4c-3.1-0.1-6.3,0.2-8.4,0.4
		c-0.7,0.1-1.6,0.1-1.8,0.1L101,8.6c-3.4,0-6.9,0-10.4,0.1c-1.8-0.1-3.6-0.1-5.3-0.1c-2.9,0.3-5.7,0.4-8.6,0.5c-2.8,0-5.7,0-8.6,0.1
		c-2.9,0.1-5.7,0.2-8.5,0.2l-8.5,0c-2.9,0-5.9,0.3-8.9,0.9c-1.1,0.2-2.8,0.7-4.7,1.4c-1.4,0.6-2.9,1.3-4.3,2.2
		c-1.4,0.9-2.8,2-3.9,3.1c-2.2,2.1-3.5,3.9-4.2,5c-0.7,1-1.8,2.8-2.8,5.6c-0.5,1.5-1,3.1-1.3,4.7l-0.1,0.6c0,0.2-0.1,0.5-0.1,0.8
		c0,0.4,0,0.8-0.1,1.2c0,0.7,0,1.5-0.1,2.2c0,1.7,0,3.1,0,3.9c0.1,1.6,0.2,3.3,0.4,4.8c0.1,1.5,0.3,3,0.3,4.6c0.1,1.5,0.1,3,0.1,4.6
		l0,4.7l0,18.7l0.1,18.7L21.4,116c-0.1,8.4-0.4,16.7-0.4,25.1c-0.1,4.2,0.1,8.5,0.2,12.6c0,4.1,0,8.3-0.3,12.3
		c0,0.9-0.2,2.5-0.3,4.8c-0.2,2.2-0.3,5-0.2,7.6c0.2,5.1,0.3,10,0.3,10.8l0,10.3c0,3.4,0,6.9,0.2,10.4c0.1,3,0.2,5.8,0.1,8.6
		c0,2.8-0.2,5.7-0.3,8.5c0.1,2.6,0.1,5.2,0.1,7.9c-0.4,3.5-0.6,7.1-0.7,10.6c0.1,2.9,0.3,5.9,0.6,8.8c0,1.9,0,3.7,0,5.6l-0.1,2.8
		l-0.1,1.4l0,0.3l0,0.2l-0.1,0.8c-0.4,4.3,0.3,8.6,1.9,12.5c1.5,3.9,3.9,7.5,6.8,10.5c2.8,2.9,5.9,5.5,9.7,7.6
		c1.4,0.7,3,1.4,4.8,1.8c0.4,0.1,0.9,0.2,1.4,0.2c0.5,0,1.1,0.1,1.4,0l2.1,0c2.8,0,5.5,0.2,8.3,0.4c2.9,0.2,5.9,0.3,8.7,0.3
		c2.9,0,5.9-0.1,8.9-0.5c1.9-0.3,3.8-0.7,5.5-0.9c1.7-0.3,3.5-0.5,5.3-0.6c2.6,0,5.3,0.1,7.9,0.3c2.6,0.2,5.2,0.6,8,0.8l0.3,0
		c0.3,0,0.6,0,0.9,0c1.3,0,2.6,0,3.8-0.1l0.3,0c0.3,0,0.6,0,0.9,0.1c0.8,0.2,1.8,0.3,2.7,0.3c2.4,0,4.9-0.1,7.4-0.3
		c2.4-0.2,4.6-0.4,6.9-0.5c3.7-0.3,7.4-0.4,11-0.2c1.8,0.1,3.6,0.4,5.6,0.6c2,0.2,4,0.3,6,0.3c2.3,0.1,4.5,0,6.8,0
		c2.3,0,4.6-0.2,6.8-0.3c4.4-0.3,8.7-0.3,13.2-0.3c0.5,0,1.1,0,1.6,0.1l4.5,0.4c0.8,0.1,1.6,0.1,2.5,0.1c1,0,2.1,0,3.1-0.1l3.7-0.4
		c3.8,0,7.5,0,11.3,0.2c3.8,0.2,7.7,0.3,11.5,0.3c3.8,0,7.8-0.1,11.5-0.3c3.8-0.2,7.5-0.2,11.3-0.2c0.9,0,2.7,0.1,4.5,0.2
		c3,0.1,6.7,0.3,9.7,0.3c3.6,0,5.8-0.2,6.9-0.8c0,0,0.1,0,0.2,0c0.1,0,0.3,0,0.6-0.1c0.5-0.1,1.4-0.1,2.9-0.2c2.8-0.1,6.2-0.1,8.8,0
		c1.8,0.1,3.3,0.1,4.2,0.1c3.1,0,6.2,0,9.3,0.1c3.1,0.1,6.3,0.1,9.4,0.1c3.2,0,6.2,0,9.2,0.2c3,0.2,6.2,0.6,9.4,0.7
		c3.2,0.1,6.3,0.1,9.6,0c1.6-0.1,3.2-0.2,4.8-0.4c1.6-0.2,3.1-0.4,4.6-0.5c3-0.3,6-0.3,9.2-0.3c3.1,0,6.3-0.1,9.4-0.1
		c4.2,0,8.3,0.1,12.5,0.1l12.6,0c4.2,0,8.3,0,12.2,0.6c2,0.3,4.1,0.7,6.3,0.9c2.2,0.2,4.4,0.3,6.5,0.3c0.9,0,2.7,0,4.8-0.1
		c2.2-0.1,4.8-0.3,7.3-0.5c4.9-0.4,9.7-0.5,10.8-0.5c0.5,0,2.1,0.1,4.2,0.2c2.1,0.1,4.8,0.3,7.6,0.4c2.8,0.1,5.6,0.2,8.1,0.3
		c2.4,0,4.5,0,5.6-0.1l0.1,0c2.1-0.2,4-0.5,5.9-0.7c1.9-0.2,3.8-0.3,5.8-0.4c3.9-0.1,7.9-0.2,11.8-0.2c3.6,0.1,7.3,0.1,10.9,0.1
		c3.6,0,7.1,0.1,10.7,0.2c3.6,0.1,7.3,0.1,10.9,0.1c3.6,0,7.4-0.2,10.9-0.4c3.5-0.2,7.1-0.2,10.7-0.2c1.8,0,3.5,0.1,5.2,0.3l5.4,0.6
		c3.7,0.4,7.5,0.3,11.1,0.3c3.7,0,7.3-0.3,10.9-0.4c3.3,0.1,6.6,0.4,10.1,0.6c1.1-0.2,2.1-0.4,3.2-0.6c1.1,0,2.1-0.1,3.2-0.2
		c2.2-0.4,4.2-0.8,6.3-1c3.5,0.2,7.1,0.6,10.6,1c2.9,0,5.9,0.2,9,0.2c3.1,0,6.1-0.2,9-0.3l15.1,0.1c2.5,0,5,0,7.5,0.1
		c2.5,0.1,4.9,0.3,7.5,0.4c5.1,0.2,10.2,0.2,15.2,0.1c5.1-0.1,9.9-0.2,15-0.2c2.5,0,5.2-0.1,7.7-0.4c2.5-0.2,4.9-0.4,7.4-0.5
		c2.4-0.1,4.9,0,7.5-0.1c2.5,0,5.1-0.1,7.6-0.1c2.5-0.1,5-0.1,7.5-0.1c2.5,0,4.9,0,7.3,0.2c2.4,0.2,4.8,0.6,7.4,0.9
		c2.6,0.3,5.2,0.4,7.8,0.4v-4.9c-2.7,0-5.2-0.1-7.8-0.4c-2.5-0.3-5.4-0.8-8.2-0.9c-2.8-0.2-5.6-0.1-8.3-0.1c-2.7,0-5.5,0.1-8.2,0.2
		c-2.7,0.1-5.4,0.1-8.1,0.1c-2.7,0-5.5,0-8.3,0.2c-2.8,0.2-5.4,0.5-8,0.6c-2.6,0.1-5.3,0.1-8,0.1c-2.7,0-5.5,0.1-8.2,0.1
		c-2.7,0.1-5.4,0.1-8.1,0.1c-2.7,0-5.4,0-8-0.1c-2.6-0.1-5.4-0.3-8.1-0.4c-5.5-0.2-10.9-0.1-16.3-0.1l-8.1,0c-2.7,0-5.4,0-8-0.1
		c-2.4-0.4-4.7-0.8-7.7-1c-1.2-0.1-2.4-0.1-3.5-0.1c-1.1,0-2.1,0-3.2,0c-1.6,0-3,0-4.3-0.1c-1.6-0.1-2.9-0.1-4.1-0.2
		c-2.6-0.1-4.4,0-6.7,0.1c-1,0-2.1,0.1-3.3,0.2c-2,0.2-3.7,0.3-5.3,0.5c-1.6,0.2-3.1,0.4-4.6,0.5c-0.8,0-1.6,0-2.5,0
		c-5.7-0.3-11.4-0.6-11.7-0.6l0,0c-1.9-0.1-3.7-0.2-5.5-0.4c-1.8-0.2-3.6-0.5-5.7-0.8c-2.3-0.2-4.7-0.4-7-0.4c-2.3,0-4.5,0-6.8,0
		l-0.1,0c0,0-0.5,0-1.2,0.1c-0.8,0-1.8,0.1-3.1,0.2c-2.5,0.2-5.5,0.4-8.5,0.5c-2.9,0.1-5.6,0.1-7.5,0.1c-1.9,0-3.1,0-3.1,0
		c-4.4-0.2-9.1-0.3-13.6-0.2c-2.6,0.1-5.2,0.2-7.8,0.3c-2.6,0.1-5.3,0.1-7.9,0.2c-3.9,0-7.8-0.1-11.8,0.2c-0.8,0.1-1.4,0.1-2,0.1
		c-3.4,0.4-6.5,0.6-9.8,0.6c-3.3,0-6.6,0-9.9,0c-3.3-0.1-6.7-0.1-10.1-0.1c-3.4,0-6.7,0.1-10.1,0.2c-3.4,0.2-6.6,0.4-9.9,0.4
		c-3.3,0.1-6.5,0.1-9.7-0.3c-1.6-0.2-3.2-0.4-4.9-0.6c-1.7-0.2-3.5-0.3-5.2-0.4c-3.5-0.1-6.8,0-10.1,0l-10.2,0.1l-10.2,0L339,292
		c-3.3,0-6.8,0-10.4,0.2c-1.8,0.1-3.5,0.4-5.2,0.6c-1.6,0.2-3.3,0.3-4.9,0.4c-3.3,0.1-6.7,0.1-9.9,0c-1.6-0.1-3.3-0.2-5-0.4
		c-1.7-0.2-3.5-0.3-5.2-0.3c-3.5-0.1-6.9-0.1-10.2-0.1c-4-0.1-8.1-0.4-12.2-0.5c-4.1-0.1-8.2-0.2-12.4-0.1
		c-4.3-0.2-7.6-0.4-10.8-0.4c-3.4,0-6.2,0.2-9.9,0.5c-0.7,0-1.4,0.1-2.1,0.2c-1.5,0.1-2.9,0.2-4.4,0.2c-1.9,0-3.6-0.1-5.3-0.2
		c-1.7-0.1-3.5-0.1-5.4-0.1c-1.6,0-3.1,0.2-4.5,0.4c-0.9,0.1-5.3,0.4-10.3,0.4c-3.2,0-5.9-0.1-8.2-0.3c-1.9-0.2-3.4-0.3-4.7-0.4
		c-1.8-0.1-3.2-0.2-4.7-0.3c-1.9,0-3.9,0.1-6.7,0.3c-1.1,0.1-2.5,0.1-4.3,0.1c-4.1,0-9.5-0.3-14.2-0.5c-4.2-0.2-7.9-0.1-10.3,0.1
		c-0.1,0-0.3,0-0.4,0c-3.2,0.2-6.2,0.3-8.9,0.3c-2.7,0-5,0-7-0.1c-2-0.1-4-0.4-5.7-0.4c-1.7,0-3.1,0-4.3,0.2c-3-0.2-5.9-0.3-8.9-0.2
		c-1.5,0-3,0.1-4.5,0.3c-1.5,0.1-2.8,0.2-4.2,0.3c-2.3,0.2-4.7,0.2-7.1,0.2c-2.4,0-4.7-0.1-7.1-0.3c-2.3-0.2-4.9-0.5-7.4-0.6
		c-2.5-0.1-5-0.1-7.5-0.1c-2.7,0.1-5.6,0.4-8.2,0.9c-2.6,0.5-4.9,0.8-7.5,0.9c-2.5,0.1-5.1,0.1-7.7,0.1c-2.5,0-5.1-0.3-7.8-0.4
		c-2.3-0.3-4.5-0.4-6.8-0.5c-1.3,0-1.7-0.1-2.6-0.4c-0.8-0.3-1.6-0.6-2.5-1.1l-0.1,0c-2.3-1.2-4.4-2.8-6.2-4.3
		c-0.9-0.7-1.7-1.5-2.4-2.2c-0.7-0.7-1.3-1.3-1.9-2c-2.2-2.5-3.2-4.4-3.5-4.9c-1-2.1-1.7-4.4-2.1-6.7c-0.2-1.1-0.3-2.3-0.2-3.5
		c0-0.6,0-1.2,0.1-1.7l0-0.4c0-0.3,0-0.5,0-0.7l0-1c0.1-2.6,0.1-5.2,0.1-7.8c-0.1-2.6-0.2-5.2-0.2-7.7c0-1.1,0.1-2.4,0.3-3.7
		c0.2-1.5,0.4-3.1,0.5-4.9c0-1.6,0.1-3.5,0.2-5.3c0.1-1.9,0.2-3.8,0.2-5.5c0-2.1,0-3.9,0-4.9l0.1-2.6c0.1-1.6,0.1-3.2,0-4.9
		c-0.1-1.9-0.3-3.8-0.5-5.6c-0.4-2.7-0.6-5.4-0.8-8.1l0-10.7l0.2-2.6c0.2-2.8,0.3-5.7,0.3-8.5c0-1.8,0-3.7,0-5.6
		c0-1.3,0-2.6,0.1-3.9c0.1-2.1,0.3-4.4,0.3-6.5c0.3-3.3,0.4-6.5,0.5-9.7c0-1.6,0-3.2,0-4.8l0-0.5c-0.1-2.6-0.3-5.1-0.5-7.6l0-0.4
		c-0.2-2.1-0.2-4.2-0.2-6.3l0.1-29.6c0.1-1.4,0.6-13.9,0.6-23.5c0-3-0.3-6.2-0.5-8.3c-0.1-0.7-0.1-1.6-0.1-1.8l0-10.4
		c0-3.5,0-6.9-0.1-10.5c0-1.8,0-3.6,0-5.4c-0.4-2.9-0.7-5.6-0.7-8.5l0.1-2.1l0-0.9c0-0.1,0-0.1,0.1-0.3l0.1-0.5
		c0.3-1.3,0.6-2.6,1.1-3.8c0.9-2.5,2.1-4.8,3.6-6.8c1.6-2,3.5-3.7,5.7-5c2.1-1.3,4.6-2.2,7.1-2.8c0.9-0.2,2.4-0.5,4.2-0.7
		c2.5-0.3,5.7-0.3,8.7-0.3c2.8,0,4.8,0,6,0c1.1,0,3,0,5.8-0.1c2.9-0.1,6.1-0.1,8.8-0.1c1.6,0,3.1-0.1,3.8-0.1
		c3.2-0.1,6.3-0.3,9.4-0.4c3.1-0.1,6.1-0.1,9.3-0.1l18.7-0.1c3.1,0,6.2,0.1,9.2,0.2c3.1,0.2,6.3,0.3,9.5,0.3
		c6.3,0.1,12.6-0.1,18.8-0.2c4.2,0,8.3,0.1,12.4,0.3c4.1,0.2,8.5,0.4,12.6,0.5c4.2,0.1,8.4,0.1,12.6,0c4.1,0,8.4,0,12.4,0.2
		c0.9,0,2.6,0,4.7,0.1c2.1,0.1,4.9,0.3,7.5,0.3c2.6,0,5.1-0.1,7.1-0.2c2-0.1,3.5-0.3,3.9-0.3c1.8-0.1,3.6-0.4,5.2-0.6
		c1.7-0.2,3.3-0.4,4.9-0.5c3.3-0.2,6.7-0.1,10.1,0c2.8,0.2,5.7,0.5,8.6,0.7c2.9,0.2,5.9,0.3,8.8,0.5c2.7-0.2,5.3-0.3,7.9-0.4
		c3.5,0.2,7,0.4,10.4,0.6c2.9-0.1,5.8-0.2,8.6-0.2c3.7,0.3,7.7,0.5,11.5,0.6c3.8,0.1,7.8,0,11.7-0.4c1.9-0.2,3.7-0.4,5.5-0.4
		c1.8-0.1,3.7-0.1,5.5-0.1c1.9,0,3.7,0.1,5.6,0.2c1.8,0.1,3.7,0.3,5.6,0.4c2.9,0.2,5.9,0.3,8.8,0.3c2.9,0,5.8-0.1,8.7-0.3
		c2.9-0.2,5.7-0.5,8.4-0.6c2.8-0.1,5.6-0.1,8.4-0.1c1.8,0,3.6,0,5.4,0.1c1.8,0.1,3.7,0.2,5.7,0.3c2.8,0.2,5.5,0.3,8.2,0.3
		c2.7,0,5.5-0.1,8.3-0.3l0.3,0c0.3,0,0.6-0.1,0.8-0.1c1.2-0.2,2.4-0.3,3.6-0.5l0.2,0c0.3,0,0.6,0,0.9,0.1c0.8,0.2,1.7,0.2,2.6,0.2
		c2.3,0,4.7,0.1,7.1,0.1c2.4,0,4.9-0.1,7.2-0.2c3.7-0.3,7.5-0.5,11.2-0.6c1.9,0,3.7,0,5.6,0.1c1.8,0.1,3.8,0.2,5.7,0.3
		c4.6,0.3,9.1,0.2,13.5,0.2c4.5-0.1,8.9-0.2,13.3-0.2c0.5,0,1.1,0,1.6,0.1l4.5,0.4c0.8,0.1,1.7,0.1,2.5,0c1.1,0,2.1-0.1,3.1-0.3
		l3.6-0.6c3.7-0.1,7.5-0.1,11.3-0.1c3.7,0,7.5,0.4,11.4,0.5c3.9,0.1,7.7,0.1,11.5,0.1l11.4,0c0.9,0,2.7,0.1,4.5,0.2
		c3,0.1,6.5,0.4,9.6,0.7c3.7,0.3,5.9,0,7-0.5c0,0,0.1,0,0.2,0c0.1,0,0.3,0,0.6-0.1c0.5,0,1.4-0.1,2.9-0.1c2.8,0,6.3,0,9.1-0.1
		c1.9-0.1,3.3-0.2,4.2-0.3c3-0.3,6-0.3,9.1-0.3c3.1,0,6.1,0.2,9.2,0.4c3.2,0.2,6.4,0.3,9.5,0.3c3.1,0,6.3,0,9.4-0.1
		c12.5-0.2,24.9,0,37.5-0.1c2.1,0,4.2,0,6.3-0.1c2.1-0.1,4.1-0.1,6.2-0.1c4.1,0,8.4,0.1,12.6,0c4.2-0.1,8.3-0.1,12.5-0.1
		c2.1,0,4.1,0.1,6.1,0.2c2,0.1,4,0.4,6.2,0.6c1.8,0.2,7.2,0.3,12.3-0.1c5-0.3,9.7-0.3,10.7-0.2c1,0.1,6.2,0.6,10.9,2.5
		c2.3,0.9,4.5,2.2,5.9,3.5c1.4,1.3,2.1,2.6,2.3,3.2l0,0c0.3,0.6,0.5,1.3,0.6,2l0.1,1.1l0,1.5c0,2,0.1,3.9,0.1,5.9c0,3.9-0.1,8,0,12
		c0,3.6,0,7.4,0.4,11.1c0.2,1.8,0.4,3.6,0.5,5.3c0.1,1.7,0.2,3.5,0.2,5.3c0,3.6,0,7.2-0.1,10.7c-0.1,3.6-0.2,7.3-0.2,10.9l0.3,43.3
		c-0.2,3.3-0.6,6.4-1.3,9.7l0.1,3.2c-0.1,1.1-0.2,2.1-0.2,3.2c0.1,2.2,0.3,4.4,0.5,6.6l-0.9,10.8c0.3,5.9,0.4,11.9,0.8,17.9
		c0.2,5,0.2,10,0.2,15c0,2.5-0.1,4.9-0.2,7.5c-0.1,2.5-0.2,5.1-0.2,7.6c0,5,0,10.1,0.1,15.1c0.1,5,0,10,0.2,15.1l0.3,7.5
		c0.1,2.5,0.1,4.9,0.1,7.5c0,2.5,0.1,5.1,0.2,7.7c0.2,2.6,0.4,5,0.4,7.5c0,1.2,0.1,2.5,0.1,3.7c0,0.6,0,1.3,0,1.8c0,0.5,0,1-0.1,1.6
		c-0.3,2.1-1.1,4.1-2.4,5.8c-1.3,1.7-2.9,3.2-4.8,4.3c-1.9,1-3.9,1.6-6,1.6v4.9c3.2,0,6.3-0.9,9-2.6c2.7-1.6,4.9-3.8,6.5-6.5
		c1.6-2.6,2.6-5.7,2.7-8.9c0-2.8,0-5.5-0.2-8.3c-0.2-2.8-0.4-5.4-0.5-8.1c-0.1-2.7-0.1-5.3-0.1-8.1c0-2.7-0.1-5.5-0.3-8.2
		c-0.1-2.7-0.2-5.3-0.2-8c0-5.4-0.1-10.9-0.2-16.3c0-5.4-0.1-10.8,0.1-16.1c0.3-5.4,0.3-11,0.2-16.4c0-2.7-0.1-5.5-0.2-8.2
		C744.4,179.9,744.4,177.3,744.4,174.6z"></path>
	<path class="st0" d="M737.8,237.3c12.3,7.5,35.3,7.2,35.3,7.2s-23.1,18.5-35.3,17.4"></path>
	<path class="stblack" d="M739.4,263.1c0.7,0,1.4,0.2,2.4,0.2c0.7,0,1.5-0.3,2.3-0.4c0.7-0.1,1.5-0.2,2.3-0.4c0.3-0.1,0.7-0.2,1-0.2
		c0.2-0.1,0.3-0.2,0.5-0.3c0.4-0.2,0.9-0.3,1.4-0.4c0.5-0.1,0.9-0.2,0.9-0.2c0.4-0.1,0.7-0.3,1.1-0.4c0.5-0.2,0.8-0.6,1.3-0.9
		l0.1-0.1l0.2-0.2l0.2-0.1c0.7-0.3,1.5-0.3,2.2-0.6c0.6-0.3,1.1-1,1.8-1.4c0.6-0.4,1.4-0.5,2-0.9c0.6-0.4,1.2-0.8,1.8-1.2
		c0.6-0.4,1.3-0.6,2-1c0.6-0.4,1.1-1.1,1.7-1.5c0.6-0.4,1.2-0.9,1.9-1.3c0.6-0.4,1.3-0.8,1.9-1.3c0.5-0.3,0.9-0.6,1.4-0.9
		c0.6-0.4,1.1-0.8,1.7-1.2c0.6-0.4,1.2-0.8,1.8-1.2c0.6-0.4,1.2-0.8,1.7-1.2c1.1-0.9,2.1-1.7,3.2-2.5c0.3-0.2,0.6-0.5,1-0.8l0.1,0
		l1.1-0.8l-0.8,0c-0.7,0-1.8,0.1-2.7,0.2c-1,0.1-1.9,0.2-2.6,0.2c-1.4,0-2.2-0.4-3.8-0.5c-0.7,0-1.5,0.1-2.3,0.1
		c-0.4,0-0.7,0.1-1.1,0.1l-0.5,0l-0.3,0c-0.7,0-1.4-0.3-2.1-0.4c-0.7-0.1-1.4,0-2.1-0.1c-0.7-0.1-1.4-0.4-2.1-0.5
		c-0.7-0.1-1.5,0.1-2.2,0.1c-0.7-0.1-1.4-0.2-2.2-0.3c-0.7-0.1-1.4-0.3-2.1-0.4c-0.7-0.1-1.4-0.3-2.1-0.5c-0.7-0.2-1.4-0.5-2-0.7
		c-0.7-0.2-1.4-0.4-2-0.6c-0.4-0.1-0.8-0.3-1.2-0.4c0,0-1-0.3-1.4-0.4c-0.9-0.2-1.4-0.5-2.1-0.7c-0.5-0.1-0.9-0.2-1.3-0.2
		c-0.4-0.1-0.8-0.2-1.1-0.4c-0.8-0.4-1.8,0.3-2.1,0.7c-0.2,0.4-0.4,1.6,0.7,2.1c0.7,0.4,1.2,0.7,2.1,1.3c0.7,0.4,1.7,1,2.6,1.4
		c0.7,0.3,1.5,0.4,2.4,0.7c0.2,0.1,0.3,0.1,0.5,0.2c0.1,0,0.4,0.1,0.7,0.1c0.5,0.1,0.9,0.2,1.4,0.3c0.7,0.2,1.5,0.4,2.2,0.6
		c0.7,0.2,1.4,0.5,2.2,0.7c0.7,0.1,1.5,0.1,2.3,0.2c0.7,0.1,1.5,0.4,2.2,0.6c0.7,0.1,1.5,0.5,2.2,0.6c0.7,0.1,1.5-0.3,2.3-0.3
		c0.7,0.1,1.5,0.3,2.2,0.4c0.7,0.1,1.5,0.4,2.2,0.4l0.3,0l0,0l0.1-0.1l0.2-0.1c0.1,0,0.3,0,0.4,0c0.1,0,0.3,0,0.4,0l0.1,0l0,0.1
		c-0.2,0.1,0,0-0.1,0.1c-0.1,0.1,0.2,0.1,0,0.2c-0.2,0.1-0.3,0.2-0.5,0.3l-0.3,0.1l-0.1,0c-0.1,0-0.3,0.2-0.4,0.3
		c-0.6,0.4-1.1,1-1.7,1.4c-0.6,0.4-1.3,0.6-1.9,1c-0.6,0.4-1.4,0.5-2,0.9c-0.6,0.4-0.9,1.2-1.5,1.6c-0.6,0.4-1.3,0.6-1.9,0.9
		c-0.6,0.4-1.4,0.5-2,0.9c-0.6,0.3-1.1,0.9-1.7,1.2c-0.6,0.3-1.2,0.7-1.9,1c-0.6,0.3-1.3,0.6-1.9,0.9l-0.2,0.1
		c-0.2,0.1-0.4,0.1-0.6,0.2c-0.7,0.2-1.3,0.7-2.1,0.9c-0.2,0-0.3,0.1-0.5,0.2c-0.3,0.1-1.8,1-2.2,1.1c-0.2,0.1-0.4,0.2-0.6,0.3
		c-0.4,0.1-0.8,0-1.4,0.2c-0.7,0.3-1.9,0.5-2.4,0.5c-0.7,0-1.4,1-1.4,1.4C737.7,262.3,738.3,263.2,739.4,263.1z"></path>
</g>
</svg>
