<svg version="1.1" xmlns="http://www.w3.org/2000/svg" xmlns:xlink="http://www.w3.org/1999/xlink" viewBox="0 0 514.2 800">
<style type="text/css">
.outline-stroke{fill:#FFFFFF;stroke:#000000;stroke-width:5;stroke-linejoin:round;stroke-linecap:round}
</style>
<path class="outline-stroke" d="M438.7,625.2c6.4-18.8,57-1.4,57-1.4c-46.4-42.6-60.1-88.6-38.5-90.5c-7.6-19.3,13.4-38.8,18.3-40.1c-4.6-3.3-21.4-21.7-19.3-65.8c2.4-51.1,17.2-48.3,17.2-48.3s-10.6-23.3-7.5-48.6c2.5-20.3,9.1-43.5,9.1-43.5s-17.3,8.8-20.3-11s46.6-91,46.6-91s-40.2,26.1-52.1,16.9c-12.3-9.4,4.6-35.1,5.4-38.1c-3.5,0-23.3,2.4-30-19.4c-6.8-22.1,29.6-99.6,29.6-99.6s-57.7,60.9-72.1,52.6c-14.4-8.3-7.7-25.5-7.7-25.5s-17.7,19-36.8,15.8c-19.2-3.3-19-23.9-19-23.9s-17.2,16-27.5,13c-15-4.5-27.5-56.9-27.5-56.9s-23.5,41.7-32,52.2c-8.5,10.4-21.6,18.6-47.9,12c-26.3-6.7-29.8-15.1-39.5-28.9c0,0,3.3,34.2-13.4,40c-16.7,5.8-58.9-28.6-58.9-28.6s28.4,50.5,23.2,66.8c-5.2,16.2-40.2,10.8-40.2,10.8s19.3,22.1,19.5,46c0.2,24-64.4,21.1-61.4,22c3,0.8,43.8,45.2,50.6,61.8c6.8,16.6-29.4,31.6-26.4,31.4c3-0.2,20.2,7.3,23.9,27.1c4.9,25.9-41.9,41.1-41.9,41.1c37.8,15.1,68.9,25.3,35.3,51c26.7,13.6-10.8,45.5-27.7,54.8c51.2,8.9,54,91.1,20.8,126.4c34.3-4.9,8.2,39.1,4.4,41.2c38.3-15.2-5.7,84.1-15.3,90.5c40.1-28.3,69.8-40.1,84.5-28.5c8.9,7,11.9,25.3,9.1,46.3c32.2-36,42.4-34.1,54.3-15.1c26.2-28.6,43.2-23.9,58.6-15.6c15.5,8.3,30.7,55.4,30.7,55.4c14.3-51.2,19.9-54.1,36.6-63.6c16.7-9.5,25.8-10.2,25.8-10.2c15.9-2,51.6,29.7,51.6,29.7c-8.5-46.3-2.6-62.9,19.9-55.4c22.5,7.5,51.4,20.7,64,30.1C457.6,696.6,432.3,644,438.7,625.2z"/>
</svg>