<svg version="1.1" xmlns="http://www.w3.org/2000/svg" xmlns:xlink="http://www.w3.org/1999/xlink" viewBox="0 0 741.8 800">
<style type="text/css">
.outline-stroke{fill:#FFFFFF;stroke:#000000;stroke-width:5;stroke-linejoin:round;stroke-linecap:round}
</style>
<path class="outline-stroke" d="M623.5,601.6c37.7-70,36.5-75.5,99.7-121.4c-15.1-18.4-45.9-51-46.4-75.2c6.7-31.1,12.5-77.8,36.1-103.2c-24.8-14.8-54-31.1-66.6-57.8c-2-10,3.9-37.6,5-44.2c-33.3-8.9-69.5-47.9-67.5-81.8c-3.9-0.7-25.6-5.4-29.4-10c-14.4-20.2-19.6-35.8-27.3-62.5c-25.3,14.2-62.9,45.4-78.2,6.3C421.7,77,386.3,41.8,370.4,20c-9.2,17.2-55.6,66-76.5,33.5C282.7,91.6,228.2,85,196,88.8c-1.4,49-56.5,77.3-100.4,66c12.9,60,28,98.9-44.9,114c13.1,15.8,42.1,47.6,7.1,61c27.3,13.3,5.9,49.3-0.4,69.8c-7,14.7-27.7,30.4-38.8,41.3c59.4,23.2,83.9,101.7,70,160.8c42.1,18.9,74.8,66.8,88.6,109c12.3,0.7,38.1-1.7,48.9,9.4c23.4,17,48.8,36.3,62.6,59.8c23.8-21.7,73.3-50,101.4-23.7c12.1-16.9,22.8-22.6,47-19.3c22.2,0.9,52.7,5.2,72.5,11.7c13-14.8,18.5-34.2,31.1-47.5c18.2-16.9,52.5-43.3,70.8-43.7C608.3,645,615,617.5,623.5,601.6z"/>
</svg>