<svg version="1.1" xmlns="http://www.w3.org/2000/svg" xmlns:xlink="http://www.w3.org/1999/xlink" viewBox="0 0 800 684.4">
<style type="text/css">
.outline-stroke{fill:#FFFFFF;stroke:#000000;stroke-width:5;stroke-linejoin:round;stroke-linecap:round}
</style>
<path class="outline-stroke" d="M321.5,115.8l16.2-88c0,0,73.1,84.5,73.1,81.4c0-3.1,43.8-71.8,43.8-71.8l40.6,54.9l87-64.5l-1.1,92.6l170.6-36.6l-58,142.2l76.3,10.6l-76.4,80.9l60.8,11.6l-89.4,46.5l99.9,95.8l-100.9,25.5l-9.4,68.6L575,554.3l12.9,101l-91.3-80.1l-57.1,80.5l-38.7-69.3c0,0-132.9,76.3-132.9,73.3c0-3.1,13.6-104.2,13.6-104.2l-138.6,54.7L189.8,496l-77.5,4.1l39.6-75.4L29.8,354.3l124.7-68.8L60.2,183.7l122.3,7.1L101.6,50.5L321.5,115.8z"/>
</svg>