<!--?xml version="1.0" encoding="utf-8"?-->
<!-- Generator: Adobe Illustrator 25.2.3, SVG Export Plug-In . SVG Version: 6.00 Build 0)  -->
<svg version="1.1" id="_x34_" xmlns="http://www.w3.org/2000/svg" xmlns:xlink="http://www.w3.org/1999/xlink" x="0px" y="0px" viewBox="0 0 800 489.646" style="enable-background:new 0 0 800 489.646;" xml:space="preserve">
<style type="text/css">
	.st0{fill:#000001;}
	.st1{fill:#FFFFFF;}
</style>
<g>
	<path class="st0" d="M800,259.377c0,0-115.647-23.199-121.815-51.262c-5.42-24.665,75.738-70.127,75.738-70.127
		s-70.366,10.434-99.093-3.422c-45.625-22.004,35.285-98.092,49.813-118.374c0,0-103.482,74.232-144.032,68.631
		c-40.548-5.601-23.246-72.457-23.246-72.457s-35.517,64.66-64.047,65.484c-28.53,0.824-58.713-55.327-58.713-55.327
		s-10.509,57.64-44.921,54.201C335.272,73.285,240.34,0,240.34,0s32.655,82.832-0.173,101.618
		c-32.828,18.785-134.786-19.809-134.786-19.809s51.567,43.888,49.395,67.792C152.604,173.505-2.848,171.816,0.04,171.453
		c2.887-0.362,126.224,43.653,129.548,63.245c3.323,19.591-81.897,40.826-81.897,40.826s67.976,2.059,78.98,16.891
		c11.006,14.831-90.677,70.477-90.677,70.477s105.618-24.945,123.797-10.669c18.179,14.275-45.772,108.322-45.772,108.322
		s112.192-63.942,153.754-66.748s49.625,60.002,58.094,95.851c0,0,31.303-90.846,65.254-93.479
		c18.459-1.43,65.354,43.57,102.839,82.196c0,0-13.517-90.223,21.691-105.168c35.208-14.944,71.658,12.299,113.455,44.768
		c-46.026-73.206-23.656-107.079,46.262-80.361C635.248,276.079,722.564,264.667,800,259.377z"></path>
	<path class="st1" d="M764.797,256.84c0,0-101.106-19.297-106.869-44.971c-5.065-22.565,70.115-64.013,70.115-64.013
		s-65.227,9.431-91.885-3.284c-42.34-20.194,32.563-89.651,46.004-108.176c0,0-95.835,67.724-133.441,62.539
		c-37.606-5.185-19.342-64.235-19.342-64.235s-35.157,57.013-61.609,57.722c-26.452,0.709-53.163-50.687-53.163-50.687
		s-11.017,52.694-42.93,49.496c-31.913-3.199-120.051-70.366-120.051-70.366s30.409,75.801-0.001,92.929
		c-30.409,17.128-125.007-18.325-125.007-18.325s47.882,40.217,45.906,62.074c-1.976,21.857-146.118,20.07-143.442,19.743
		c2.677-0.327,120.306,35.38,123.332,58.98c2.313,18.042-78.986,36.266-78.986,36.266s63.031,1.988,73.258,15.569
		c10.227,13.581-83.969,64.31-83.969,64.31s97.893-22.647,114.771-9.565c16.879,13.083-42.271,98.989-42.271,98.989
		s103.321-62.074,141.854-64.576c38.533-2.501,42.133,57.875,50.043,90.672c0,0,27.645-83.397,65.535-87.646
		c17.712-1.986,59.274,42.475,92.986,81.531c0,0-12.45-87.889,20.172-101.501c32.621-13.612,70.614,8.833,109.656,43.172
		c-45.406-69.347-20.298-102.316,48.45-74.322C626.612,272.841,693.005,261.557,764.797,256.84z"></path>
</g>
</svg>
