<!--?xml version="1.0" encoding="utf-8"?-->
<!-- Generator: Adobe Illustrator 25.2.3, SVG Export Plug-In . SVG Version: 6.00 Build 0)  -->
<svg version="1.1" id="_x34_" xmlns="http://www.w3.org/2000/svg" xmlns:xlink="http://www.w3.org/1999/xlink" x="0px" y="0px" viewBox="0 0 800 424.5" style="enable-background:new 0 0 800 424.5;" xml:space="preserve">
<style type="text/css">
	.stblack{fill:#000000;}
	.st0{fill:#FFFFFF;}
</style>
<g>
	<path class="stblack" d="M42.4,204c-3.6,4.1-21.1,11.3-22.4,11.4c41.3,14.7,28.2,34.4,2.3,55.2c35.6,1.3,52.3,11.4,30.1,45.2
		c39.8-14.5,44.3,7.6,35.2,41.1c26.6-19.1,50.1-23.2,48.8,19.1c27.2-35.6,43.6-12.7,46.1,19.2c15.9-28.2,41-38.7,47.9,3.2
		c18.4-39.5,40.2-21.8,46.7,11.2c12-30.8,36.3-43.1,47.2-2.3c14.2-41.2,37.9-25.6,47.2,6.7c9.2-31.7,32.4-46,46.7-6.3
		c10.8-42.3,35.6-28.6,47.7,2.7c6.6-32.4,28.3-48.5,46.1-10.4c6.9-43.1,32.8-31.7,48-1.9c3.2-31.7,22-52.1,45.2-15.6
		c1.5-43.3,28-35.9,48.2-9c-1.4-32.1,12.1-54.4,42.9-24.6c-7.8-43.3,16-38.9,48.2-27.9c-15.1-30.4-19.7-50.2,22.5-51.4
		c-36-26.1-17.2-40.7,12.9-53.8c-32.1-10.4-48.2-24.3-17-51.9c-44.4,3.6-39.5-20.5-23.8-48.9c-32.5,13-54,7.6-42.2-30.7
		c-32.8,25.6-45.6,5.5-41.4-30c-21.6,24-47.4,30-47.8-12.3c-23.1,34.6-42.4,18.4-45.9-17.4c-15,28-39.9,40.2-48-2.3
		c-17.6,40.3-39.9,22.2-47.1-10c-12.4,33.4-35.7,42.1-47.2,3.7c-12.9,41.6-37.1,26.8-47.4-5.2c-8.3,32-31.2,46.9-46.4,7.6
		c-9.7,42.5-35.1,29.4-47.4-1.9c-6.3,32.8-27.6,48.3-46.5,11c-5.5,43.1-30.7,33.3-49.5,5.6c-0.4,32.6-15.6,53.3-44.5,22.9
		c6.8,44.4-20.8,39.5-46.8,21.9c10.4,31.8,6,54.2-33.5,40c23.9,35.3,2.6,44.5-31.7,43.7C32.1,167.3,59.7,192.3,42.4,204z"></path>
	<path class="st0" d="M47.9,204.8c-3.6,4-21.1,10.8-22.3,10.8c39.2,13.8,28.5,33.6,2,53.3c35.2,1.2,52.1,10,29.3,43.5
		c39.4-14.7,43.5,9.7,34,39.9c26-18.7,49.3-24.4,47.5,18.4c25.7-33.7,43.9-13.1,45.4,19c15.8-28,40.9-39,47.5,3.1
		c17.6-37.7,40.9-21.8,46.4,11.1c12.1-30.6,36.3-43.2,47-2.3c13.7-39.3,38.6-25.7,47,6.7c9.1-31.1,32.3-46.5,46.5-6.3
		c10.4-40.3,36.3-28.7,47.4,2.7c6.7-32.2,28.3-48.7,45.9-10.4c6.7-41.1,33.4-31.9,47.7-1.8c3.3-31.5,21.9-52.3,44.8-15.6
		c1.5-41.4,28.5-36.1,47.7-8.9c-1.3-31.7,11.7-54.5,42.2-24.3c-7.6-42.5,17.5-38.2,46.6-26.6c-15.5-29.5-20-49.5,21.4-49.4
		c-34.5-24.7-17.5-40.2,12.6-51.8c-31.7-10.1-48.4-22.9-16.6-50c-41.7,4-39.7-20.5-22.9-47.4c-31.9,12.8-53.6,8.9-41.2-29.8
		c-32.6,25.6-45.5,3-40.5-29.5C631.7,83,606.1,89.7,606,47.1C583,81.6,562.7,63,560.6,29.9c-15,27.8-39.8,40.4-47.5-2.2
		c-16.8,38.3-40.4,22.5-46.8-10C453.8,51,430.6,60,419.4,21.4c-12.5,39.7-37.8,26.9-47.2-5.2C363.8,48,341,63.3,326,23.8
		c-11.2,44.9-38,24.5-47.2-1.9c-6.4,32.5-27.5,48.6-46.1,11c-5.3,41.2-31.1,33.5-48.8,5.5c-0.4,32.2-15,53.4-43.6,22.6
		c6.4,42.3-20.5,39.8-45.8,21.3c11.2,33.2,4.7,53.4-32.5,39.1c23.9,34.8,0.5,44.3-30.9,42.3C36.8,169.1,65.3,193.6,47.9,204.8z"></path>
</g>
</svg>
