<svg version="1.1" xmlns="http://www.w3.org/2000/svg" xmlns:xlink="http://www.w3.org/1999/xlink" viewBox="0 0 702.9 800">
<style type="text/css">
.outline-stroke{fill:#FFFFFF;stroke:#000000;stroke-width:5;stroke-linejoin:round;stroke-linecap:round}
</style>
<path class="outline-stroke" d="M171.3,128.8c43.8,40.1,88.9,18.8,75.2-5c94,46.4,257.6,0.7,316.5-46.9c-10,48.9,63.9,17.5,95.2-18.8c-52.6,99-65.1,318.2-7.5,357c-53.9,36.3-52.6,194.2-27.6,223c-117.8-15-207.9,115.2-211.7,127.8c-17.5-71.4-61.4-50.1-75.2-30.1C320,593.1,153.1,592.2,52.9,637.3C174.4,552.2,210.7,485.8,179.4,467c81.9-96.1,6.7-238,6.7-238C224.9,212.7,171.3,128.8,171.3,128.8z"/>
</svg>