<!--?xml version="1.0" encoding="utf-8"?-->
<!-- Generator: Adobe Illustrator 25.2.3, SVG Export Plug-In . SVG Version: 6.00 Build 0)  -->
<svg version="1.1" id="_x33_" xmlns="http://www.w3.org/2000/svg" xmlns:xlink="http://www.w3.org/1999/xlink" x="0px" y="0px" viewBox="0 0 800 781.6" style="enable-background:new 0 0 800 781.6;" xml:space="preserve">
<style type="text/css">
	.stblack{fill:#000000;}
	.st0{fill:#FFFFFF;}
</style>
<g>
	<path class="stblack" d="M770.5,481.5c-31.4-20-72.1-52.8-15.8-65c-38.7-6.8-30.9-40.4,0.3-51.1c-68.2-6.2,0-46.8,23.4-53.7
		c-26.5-3.2-104.7-5.7-43.6-45.8c-77.2,8.2-12.8-49.3,10.1-65.4c-6,3.2-68.4,27.3-74.5,5.9c-11.2-22,7.6-37.1,10.3-38.8
		c-64.4,39.8-50.7-28.6-33.8-61.4c-37.6,33.3-88.4,47-56.7-25.8c-16.8,13.5-51.2,41.6-51.4-2.4c-43.3,53.1-46.1-37.7-44.8-58.5
		c-17.1,28.6-54,91.6-68.4,27c-6.5,38.8-38.9,31-48.6-0.8c-8.3,68.2-45.9-2.8-50.9-26c-4.8,34.9-12.8,100.3-47.3,41
		c3.3,77.3-49.9,9.3-64.6-14.4c2.2,7.8,23.8,65.3,1.2,75c-13.6,7.6-33.3-2.3-38.3-12.6c35.8,66.3-31.5,49.2-63.5,31
		c30.6,38.9,43.3,90.8-28.9,55.9c12.9,17.4,39.4,53.1-4.6,51.8c51.7,43.4-39.5,46.8-60.1,44.8c26,16.3,91.4,55.7,26.9,71.1
		c38.9,5.9,31.7,39.6,0.8,50.8c64.7,4.4,7.1,43.8-22.9,53.2c23.1,2.5,106,4,43.5,44.4c77.8-7.7,10.8,48.8-12.2,63.5
		c7.6-2.3,63.9-26.6,74.4-4.3c7.9,16-3,32.2-12.7,37.8c65.9-35.9,48.6,29.7,28.6,62.1c42.8-32.4,88.5-37.6,60.9,33.3
		c20.9-14.8,52-41,54.5,1.7c40-54.9,47.1,33,46.4,56.1c13.6-26.9,50.5-94.2,66.2-29.5c5.3-39,38.6-31.9,48.7-0.4
		c6.5-68.8,45.4,1.3,51,24.5c4.8-24.7,6.1-106.9,45.6-41.3c-4.2-77.9,49.4-9.1,63.5,14.6c-2.7-6.1-22.8-70-0.9-74.6
		c22.7-9.6,36.4,10.2,37.9,13.1c-33.1-63.1,25.4-52,64-29.8c-29.5-38.6-42.3-91.8,29.8-55.8c-12.7-17.8-38.4-53.6,5.5-51.7
		C669,486.6,756.5,486,780,487.9C780,487.9,776.2,485.3,770.5,481.5z"></path>
	<path class="st0" d="M729,483.3c16-0.9,31.1-0.2,31.1-0.2c-26.9-17.9-84.7-54.2-23.9-67.9c-36.7-6.4-29.3-38.4,0.3-48.6
		c-64.7-5.9-0.1-44.5,22.2-50.9c-25.1-3-99.3-5.4-41.4-43.4c-73.2,7.9-12-46.6,9.7-61.8c-5.6,3-64.8,26-70.6,5.7
		c-10.5-20.7,7.3-35,9.9-36.7c-61.1,37.8-47.7-26.9-31.7-57.9c-35.6,31.6-83.6,44.8-53.5-24.2c-15.9,12.8-48.5,39.5-48.6-2.3
		c-39.8,50.4-44.5-36.1-42.6-55.5c-16.9,28.9-52.1,85.7-65.4,25.6c-6.2,36.8-37.4,29.4-46.8-0.7c-8.2,65.3-43.5-2.6-48.7-24.6
		c-4.6,33.1-12.2,95.1-45,38.9c3.1,73.4-47.2,8.8-61.1-13.7c2.1,7.3,22.6,61.8,1.4,71c-12.8,7.1-31.5-2.4-36.2-12.1
		c34.1,62.9-29.6,46.2-59.8,29c29.1,36.8,41.3,85.7-27.2,52.7c12.2,16.4,37.5,50.2-4.2,49c49.1,41.2-37.5,44.3-57,42.4
		c24.7,15.5,86.7,52.8,25.5,67.6c36.9,5.7,30,37.8,0.8,48.4c61.3,4.2,6.8,41.7-21.7,50.7c22,2.3,100.5,4,41.3,42.3
		c73.8-7.2,10.4,46.3-11.5,60.3c7.2-2.2,60.6-25.2,70.5-4c7.5,15.1-2.9,30.5-12,35.8c62.5-34.1,46,28,27,58.8
		c7.9-6.9,44.6-29.9,61.2-19.1c9.5,9-3.1,44.3-4.8,49.8c19.6-14.3,48.5-39.1,51,1.3c37.9-52,45.1,31.3,44.3,53.3
		c13.1-25.7,48.5-89.2,63.6-27.9c5.1-37,37.1-30.2,46.8-0.3c6.6-65.9,43,1.2,48.8,23.2c4.6-23.7,6.2-101.2,43.6-39.2
		c-3.9-73.9,46.8-8.7,60.2,13.8c-2.6-5.8-21.6-66.4-1-70.7c21.4-9,34.3,9.8,35.8,12.5c-31.5-59.9,23.8-49,60.2-27.8
		c-28-36.4-40.5-86.7,27.9-52.5c-12-16.9-36.6-50.7,5.1-48.8C674.5,501.9,692.1,482.3,729,483.3z"></path>
</g>
</svg>
