<!--?xml version="1.0" encoding="utf-8"?-->
<!-- Generator: Adobe Illustrator 22.1.0, SVG Export Plug-In . SVG Version: 6.00 Build 0)  -->
<svg version="1.1" id="_x34_" xmlns="http://www.w3.org/2000/svg" xmlns:xlink="http://www.w3.org/1999/xlink" x="0px" y="0px" viewBox="0 0 800 687.7" style="enable-background:new 0 0 800 687.7;" xml:space="preserve">
<style type="text/css">
	.stblack{fill:#000000;}
	.st0{fill:#FFFFFF;}
</style>
<g>
	<path class="st0" d="M736,124.1c1.7,37.8-1.3,358.6,2.1,404.9c5.2,19.7-2.9,46.1,40.7,97.4c-50.7-32.6-91.8-34.4-61.5,11.1
		c-19.2-13.7-35.9-29.8-67.9-29.8c-33.1-1.3-470.5-1.3-497.2-0.7c-16.9,0-52.5,9.1-92.3,60.3c55.1-87.1,13.3-85.3-34.1-58.4
		c19.9-19.9,36.8-42.3,36.8-58.2c-1.6-45.2,2-377.4,1.2-417.9c0.2-41-21.3-70-42.6-85.5C82.7,81.8,110.6,73.4,85,27.9
		c13.9,13.7,19.1,19.9,35.1,25.6c30.8,11,525.8,12.9,558.5,2.7c18.3-5.7,26.5-13.7,41.5-26.9c-30.2,45.6,15,29.9,53.8-9
		C739.5,71.6,736.9,90.4,736,124.1z"></path>
	<path class="stblack" d="M734.5,121.6c1,23.1,0.6,46.3,0.6,69.3c0,39.9-0.1,79.9-0.1,119.8c-0.1,69.7-1.8,139.8,1.3,209.5
		c0.6,12.4,2.5,25.6,4.9,37.8c5.3,26.8,20.5,50.2,37.9,70.8c-0.4-1.9-0.9-3.7-1.3-5.6c-12.4-7.9-25.4-15.1-39.3-19.9
		c-7.6-2.6-17.6-5.8-25.7-3.2c-17,5.3-1,31.1,4.3,39.2c-0.2-1.6-0.4-3.2-0.6-4.7c-13.9-10-27.1-21.1-43.7-26.4
		c-9.7-3.1-19.5-3.6-29.6-3.8c-12.2-0.3-24.5-0.3-36.7-0.4c-45.9-0.3-91.8-0.4-137.7-0.5c-55.4-0.1-110.8-0.1-166.1-0.1
		c-41.9,0-83.8,0-125.7,0.2c-8.7,0-17.5,0-26.2,0.2c-27.3,0.7-51.9,17.6-70.8,36c-7.8,7.6-14.9,15.9-21.7,24.5
		c1,1.9,1.9,3.9,2.9,5.8c10.2-16.3,21.8-34.3,25.5-53.5c1.5-7.6,1.1-16.6-4.5-22.7c-5.4-5.8-14.3-5-21.4-3.5
		c-12.9,2.7-25,8.9-36.4,15.3c0.8,2.1,1.7,4.2,2.5,6.3c16.6-16.8,37.5-37.9,36.9-63.1c-0.2-11.2-0.3-22.4-0.3-33.5
		c-0.1-38.4,0.1-76.8,0.3-115.2c0.4-80.5,1.3-160.9,1.3-241.4c0-14.6,0.7-29.6-1.8-44c-4.9-27.9-20.3-53.5-43.1-70.5
		c0.6,2,1.1,4,1.7,6c13.7,7.6,28,14.9,43.2,18.9c7.3,1.9,17.4,4.2,24.5,0.1c14.7-8.4,0.6-33.8-4.8-43.5c0.2,1.6,0.4,3.2,0.6,4.7
		c13.5,13.3,26.6,25.4,45.9,27.7c12.9,1.5,26,2.2,38.9,2.8c45.1,2.2,90.3,3.1,135.5,3.7c55.5,0.8,111,1.1,166.5,0.9
		c47.7-0.2,95.5-0.5,143.2-2c15.3-0.5,30.6-1,45.9-2.2c14-1.1,25.6-3.4,37.8-11.3c8-5.1,14.9-11.7,22-17.9c-0.9-2-1.8-4-2.7-6
		c-4.4,6.8-11.2,16.1-9.8,24.8c0.7,4.5,3.2,8.6,8,9c8.1,0.7,17.3-5.1,23.8-9.1c12.6-7.7,24-17.3,34.5-27.7c-0.9-2-1.8-4-2.7-6
		c-12.4,18.5-25,37.8-31.9,59.2C736,91.2,734.9,106.4,734.5,121.6c0,1.5,3,6.6,3,5.1c0.5-15.5,1.6-30.8,6.6-45.7
		c7-20.8,19.3-39.6,31.4-57.7c0.8-1.2-2.2-6.6-2.7-6c-13.6,13.4-29.3,27.1-47.2,34.3c-2.6,1.1-5.5,2.1-8.3,2.4
		c-1.3,0.1-6.3-0.7-5.4,0.5c-3-4.3,7.9-19.2,9.8-22.1c0.7-1.1-2-6.6-2.7-6c-15.5,13.6-31.1,26.4-52.1,28.5
		c-13.1,1.4-26.3,1.9-39.4,2.4c-45.1,1.8-90.2,2.2-135.3,2.4c-55,0.3-110,0.1-164.9-0.5c-47.4-0.6-94.9-1.4-142.3-3.3
		c-15.6-0.6-31.3-1.3-46.9-2.7c-12.2-1.1-22.3-2.6-32.9-9.5C97.3,38.6,90.9,31.5,84.4,25c-1.5-1.4,0.3,4.3,0.6,4.7
		c5.9,10.7,15.6,32.9-3.8,35.4c-8.2,1.1-16.8-1.4-24.4-4C44,56.9,31.9,50.8,20.2,44.3c-0.7-0.4,0.6,5.2,1.7,6
		c26,19.3,39.9,47.9,40.4,80.1c0.1,8.4,0.1,16.9,0.1,25.3c0,33.4-0.3,66.9-0.5,100.3c-0.5,81.1-1.2,162.2-1.2,243.3
		c0,13.5,0,27,0.2,40.6c0.1,7,0.3,13.3-2.3,20.1c-6.8,17.7-20.9,32.7-34,45.9c-1,1,1.5,6.8,2.5,6.3c9.4-5.3,19.3-10.2,29.6-13.5
		c6.9-2.2,15.8-4.6,22.8-1.6c8.4,3.5,4.6,14.6,2.5,21.3c-5.2,16.4-14.4,31.6-23.6,46.2c-0.8,1.3,2.1,6.8,2.9,5.8
		c20.3-25.9,47.6-52.9,81.4-59.1c9.2-1.7,18.9-1.2,28.2-1.2c38.2-0.2,76.4-0.2,114.6-0.3c54.4,0,108.8,0,163.2,0
		c48,0.1,96,0.2,144.1,0.4c14.9,0.1,29.8,0.2,44.6,0.4c3.9,0.1,7.8,0.1,11.6,0.2c17.2,0.4,32.3,4.6,46.8,13.9
		c7.6,4.9,14.7,10.5,22,15.8c1.7,1.2-0.2-4.2-0.6-4.7c-4-6.2-12.1-17-7.8-24.9c2.6-4.8,8.8-5.3,13.6-5.1c20,1,40.2,13.3,56.6,23.8
		c0.8,0.5-0.8-4.9-1.3-5.6c-16.8-19.9-31.4-42-35.4-68.2c-1.6-10.4-3.4-21.2-3.9-31.8c-1.1-27.1-1.1-54.2-1.2-81.3
		c-0.4-79.6,0-159.1,0-238.7c0-25.8,0.6-51.7-0.6-77.4C737.4,125.2,734.4,120.2,734.5,121.6z"></path>
</g>
</svg>
