<!--?xml version="1.0" encoding="utf-8"?-->
<!-- Generator: Adobe Illustrator 22.1.0, SVG Export Plug-In . SVG Version: 6.00 Build 0)  -->
<svg version="1.1" id="_x34_" xmlns="http://www.w3.org/2000/svg" xmlns:xlink="http://www.w3.org/1999/xlink" x="0px" y="0px" viewBox="0 0 800 593.8" style="enable-background:new 0 0 800 593.8;" xml:space="preserve">
<style type="text/css">
	.stblack{fill:#000000;}
	.st0{fill:#FFFFFF;}
</style>
<g>
	<path class="stblack" d="M589.4,577.9c-1.8-1.5-3.3-8.4-5.7-10.4C553.1,542.4,482.2,480,471.5,471c-0.1,0-4.9-2.1-5-2.1c-18.5,0-81.1,5.6-142.8,9.8
		l-0.9,0.1c-62.6,4.3-128.6,13.4-148.8,13.4c-6,0-9.3-0.3-12.6-2.1c-3.8-2-6.9-16.6-73.1-100.4C56.6,349.4,25.3,309,25,308.6l-5-8.9
		l2.9-4.9c0.2-0.5,18.4-48.2,37.3-96.4C98.9,99.4,99.1,90,101.1,87.3l9.5-5.5c4.1-0.5,372.2-40.3,474.9-60.3c5-0.7,7.2-4.9,10.6-5.4
		c3.4-0.5,5.9-0.9,7.5-1.2l10.2,1.9C643,35,768,166.4,769.2,167.6c1.9,2,10,3.2,10.7,6.2c0.7,2.9-1.2,9.6-1.8,14.9
		c-0.6,6-7.1,11.9-9.3,23c-3.3,15.8-8.6,40-15.2,66.6c-11.1,45.2-17.8,90.6-18.9,94.4l-2.8,12c-0.8,0.5-1.5,4.5-4.2,5.7
		c-1.9,0.8-5.4-1.5-8.1-0.5c-29.6,11.7-106.8,36.7-143.3,50.7l23.6,134.9C599.8,575.5,593.5,581.2,589.4,577.9z"></path>
	<path class="st0" d="M37.7,296.1c13-26.1,75.6-184.7,81.3-192.3c0,0,452.9-62.8,485.9-69.3c26.4,16.4,143.6,140.9,149.5,147.1
		c5.9,6.2-42.6,177.7-43.9,182.6c-6.8,3.7-104,37.6-144.8,51.8c-2.6,0.9-7.3-0.6-9.4,0.1c-6.8,2.4-9,3.3-9,3.3l23.1,107.6
		c0,0-95-83.5-101-87.3c-0.6-0.4-1-3.6-6.4-3.5c-2.2,0-7.7,3.2-10.6,3.3c-62.9,1.9-275,22.9-281.2,19.6
		c-6.8-3.6-120.9-141.6-134-157.5l0.3-2.2C37.6,299.3,37.1,297.3,37.7,296.1z"></path>
</g>
</svg>
