<!--?xml version="1.0" encoding="utf-8"?-->
<!-- Generator: Adobe Illustrator 22.1.0, SVG Export Plug-In . SVG Version: 6.00 Build 0)  -->
<svg version="1.1" id="_x32_" xmlns="http://www.w3.org/2000/svg" xmlns:xlink="http://www.w3.org/1999/xlink" x="0px" y="0px" viewBox="0 0 799 800" style="enable-background:new 0 0 799 800;" xml:space="preserve">
<style type="text/css">
	.stblack{fill:#000000;}
</style>
<g>
	<path class="stblack" d="M661.6,426.6c30.4,4.4,49.7,6.9,58.5,7.9c8.8,0.9,28.2,2.7,58.9,4c-30.4-4.9-49.7-7-58.6-7.9
		C711.7,429.7,692.2,428.4,661.6,426.6z M762.7,418.3c-30.6-3.3-50-4.4-58.9-4.8c-8.8-0.4-28.3-0.8-59-1.1c30.6,2.8,50,4.3,58.8,4.8
		C712.5,417.7,732,418.5,762.7,418.3z M700.9,444.2c-8.8-1.3-28.1-3.6-58.6-7c30.2,5.8,49.3,9.3,58.1,10.7c8.7,1.4,28,4.1,58.6,7
		C728.9,448.5,709.7,445.5,700.9,444.2z M735,400c-30.7-1.6-50.2-1.7-59-1.7c-8.9,0-28.3,0.6-59,1.7c30.7,1.1,50.1,1.7,59,1.7
		C684.8,401.7,704.3,401.6,735,400z M650.9,478.6c28.9,10.4,47.3,16.8,55.7,19.5c8.4,2.7,27.1,8.3,56.9,15.8
		c-28.7-10.9-47.3-16.9-55.7-19.5C699.4,491.7,680.6,486.5,650.9,478.6z M751.7,490.9c-29.3-9.4-48.1-14.4-56.7-16.6
		c-8.6-2.2-27.6-6.5-57.6-13c29.4,8.9,48.1,14.3,56.7,16.5S721.5,484.9,751.7,490.9z M630,485c28.3,11.8,46.4,19.1,54.7,22.2
		c8.3,3.1,26.6,9.7,56,18.8c-28.2-12.3-46.4-19.2-54.7-22.2C677.6,500.7,659.2,494.5,630,485z M728.2,467.3
		c-29.8-7.7-48.8-11.7-57.5-13.5c-8.7-1.7-27.9-5.1-58.1-10.2c29.8,7.2,48.8,11.7,57.5,13.5C678.7,458.9,697.8,462.7,728.2,467.3z
		 M599.5,485.4c27.8,13.1,45.4,21.3,53.6,24.8c8.1,3.5,26.1,11.1,54.9,21.8c-27.6-13.6-45.4-21.4-53.6-24.8
		C646.2,503.7,628.1,496.5,599.5,485.4z M630,527.3c26.2,16.1,42.9,26.1,50.6,30.4c7.7,4.3,24.8,13.7,52.5,27
		c-25.9-16.5-42.9-26.1-50.6-30.4C674.8,550,657.4,541.1,630,527.3z M672.3,535.4c7.9,3.9,25.5,12.4,53.8,24.4
		c-26.8-15.1-44.2-23.8-52.1-27.7c-8-3.9-25.7-11.9-53.8-24.4C647.2,522.4,664.4,531.5,672.3,535.4z M608.1,529.4
		c25.4,17.3,41.6,28.1,49.1,32.8c7.5,4.7,24.1,14.9,51,29.7c-25.1-17.7-41.6-28.2-49.1-32.8C651.7,554.4,634.8,544.6,608.1,529.4z
		 M578.2,523.6c24.6,18.5,40.2,30.1,47.5,35.1c7.2,5.1,23.3,16.1,49.4,32.4c-24.3-18.9-40.2-30.1-47.5-35.1
		C620.3,551,604,540.3,578.2,523.6z M599.6,570.9c22.4,21,36.8,34.2,43.5,40c6.7,5.8,21.6,18.4,46,37c-22.1-21.4-36.8-34.2-43.5-40
		C638.9,602.1,623.7,589.9,599.6,570.9z M639.5,587.4c7,5.4,22.5,17.3,47.8,34.7c-23.2-20.2-38.5-32.2-45.5-37.6
		c-7-5.4-22.8-16.9-47.8-34.7C617.5,569.5,632.5,581.9,639.5,587.4z M621.8,607.9c-6.4-6.1-21-19.1-44-39.3
		c21.4,22,35.1,35.9,41.5,42c6.4,6.1,20.6,19.4,44.1,39.3C642.3,627.5,628.3,613.9,621.8,607.9z M561.1,607.5
		c17.8,25.1,29.2,40.8,34.6,47.8c5.4,7,17.5,22.3,37.7,45.5C616,675.5,604.2,660,598.8,653C593.3,646,580.9,631,561.1,607.5z
		 M559.8,585.6c19.1,24.1,31.3,39.2,37,46c5.7,6.7,18.6,21.4,39.9,43.6c-18.7-24.4-31.3-39.3-37.1-46
		C593.9,622.5,580.7,608.1,559.8,585.6z M540.2,600.8c16.5,25.9,27.2,42.2,32.2,49.5c5,7.3,16.3,23.2,35.3,47.4
		c-16.1-26.2-27.1-42.2-32.2-49.5C570.4,641,558.8,625.3,540.2,600.8z M631,642.5c-20-23.3-33.3-37.6-39.5-43.9
		c-6.1-6.4-19.9-20.1-41.9-41.6c20.3,23,33.4,37.5,39.4,43.9C595.1,607.3,608.6,621.3,631,642.5z M514.9,583.8
		c15.3,26.6,25.2,43.4,29.8,51c4.7,7.5,15.1,24,32.7,49.2c-14.9-26.9-25.1-43.5-29.8-51C542.9,625.5,532.1,609.2,514.9,583.8z
		 M516,635.7c12.4,28.1,20.4,45.9,24.3,53.8c3.9,8,12.6,25.4,27.8,52.1c-11.9-28.4-20.3-45.9-24.3-53.8
		C539.9,679.8,530.7,662.6,516,635.7z M519.2,614c13.9,27.4,22.8,44.7,27.1,52.5c4.3,7.8,13.9,24.7,30.3,50.7
		c-13.4-27.7-22.7-44.8-27.1-52.5C545.1,656.9,535.2,640.2,519.2,614z M496.9,624.9c11,28.7,18.1,46.8,21.6,55
		c3.5,8.1,11.3,26,25,53.5c-10.5-28.9-18.1-46.8-21.6-55C518.4,670.3,510.2,652.6,496.9,624.9z M475.7,603.1
		c9.7,29.2,15.9,47.6,18.9,55.9c3,8.3,9.9,26.6,22.1,54.8c-9.2-29.3-15.8-47.7-18.9-55.9C494.6,649.5,487.3,631.5,475.7,603.1z
		 M466.3,654.1c6.4,30,10.7,49,12.8,57.6c2.2,8.6,7.2,27.4,16.7,56.7c-5.9-30.2-10.6-49.1-12.9-57.7
		C480.7,702.2,475.2,683.5,466.3,654.1z M473.7,633.5c8,29.7,13.3,48.4,15.9,56.9c2.6,8.5,8.6,27,19.4,55.8
		c-7.5-29.8-13.2-48.5-15.9-56.9C490.5,680.8,484.1,662.4,473.7,633.5z M449.8,639.7c4.9,30.3,8.3,49.5,10,58.2
		c1.7,8.7,5.8,27.7,13.6,57.5c-4.4-30.4-8.2-49.6-10-58.2C461.6,688.5,457.1,669.5,449.8,639.7z M433.4,614
		c3.5,30.5,5.9,49.8,7.2,58.6c1.3,8.8,4.3,28,10.5,58.1c-3-30.6-5.8-49.9-7.2-58.6C442.5,663.4,439,644.2,433.4,614z M413.8,662.1
		c0.2,30.7,0.6,50.2,1,59s1.6,28.3,4.9,58.9c0.3-30.8-0.5-50.2-1-59.1C418.2,712.1,416.6,692.7,413.8,662.1z M425.3,643.4
		c1.8,30.6,3.2,50.1,4.1,58.9c0.9,8.8,2.9,28.2,7.8,58.6c-1.3-30.7-3.1-50.1-4.1-58.9C432.1,693.1,429.6,673.8,425.3,643.4z
		 M400.5,644.7c-1.2,30.7-1.8,50.1-1.9,59c0,8.9,0.1,28.3,1.9,59c1.7-30.7,1.9-50.2,1.9-59C402.3,694.8,401.7,675.3,400.5,644.7z
		 M342.9,776.1c6.4-30.1,9.5-49.3,10.8-58.1c1.3-8.8,3.6-28.1,6.9-58.6c-5.9,30.1-9.4,49.3-10.8,58
		C348.5,726.2,345.7,745.5,342.9,776.1z M363.8,760.9c4.8-30.4,6.9-49.7,7.7-58.6c0.9-8.8,2.2-28.2,4.1-58.9
		c-4.3,30.4-6.8,49.7-7.7,58.5C367,710.7,365.2,730.2,363.8,760.9z M337.5,697.1c-1.8,8.7-5.6,27.8-10,58.2
		c7.9-29.7,11.9-48.8,13.6-57.5c1.7-8.7,5.1-27.9,10-58.2C343.8,669.5,339.3,688.5,337.5,697.1z M383.5,734.1
		c3.1-30.6,4.2-50,4.6-58.9c0.4-8.8,0.8-28.3,1.3-59c-2.6,30.6-4.2,50-4.6,58.8C384.3,683.9,383.5,703.4,383.5,734.1z M346.1,609.6
		c-8.7,29.4-14.1,48.1-16.4,56.7c-2.2,8.6-7,27.5-13.1,57.6c9.2-29.3,14.2-48.2,16.4-56.7C335.2,658.6,339.5,639.6,346.1,609.6z
		 M287,700.8c-3.1,8.3-9.7,26.6-18.7,56c12.4-28.1,19.3-46.4,22.3-54.7c3.1-8.3,9.2-26.8,18.7-56C297.4,674.5,290.1,692.5,287,700.8
		z M307.8,689.3c-2.7,8.4-8.4,27.1-15.9,56.9c10.8-28.8,16.8-47.3,19.4-55.8c2.6-8.5,7.9-27.2,15.9-56.9
		C316.8,662.4,310.4,680.8,307.8,689.3z M304,624.9c-13.2,27.7-21.5,45.4-25,53.5c-3.5,8.1-11.1,26.1-21.6,55
		c13.7-27.5,21.5-45.3,25-53.5C285.8,671.7,293,653.6,304,624.9z M305.1,594.4c-14.5,27.1-23.6,44.3-27.5,52.2
		c-3.9,7.9-12.4,25.5-24.5,53.7c15-26.8,23.7-44.3,27.5-52.2C284.5,640.2,292.6,622.5,305.1,594.4z M261.7,622.8
		c-17.4,25.3-28.2,41.5-32.9,49c-4.7,7.5-14.9,24.1-29.6,51.1c17.8-25.1,28.3-41.5,32.9-49C236.7,666.3,246.5,649.5,261.7,622.8z
		 M281.8,614c-16,26.2-26,43-30.3,50.7c-4.3,7.7-13.7,24.8-27.1,52.5c16.4-26,26-42.9,30.3-50.7C259,658.7,267.9,641.4,281.8,614z
		 M260.7,600.8c-18.6,24.5-30.2,40.1-35.3,47.4c-5.1,7.2-16.1,23.3-32.2,49.5c19-24.2,30.2-40.1,35.3-47.4
		C233.5,643,244.2,626.7,260.7,600.8z M180.4,634.3c6.1-6.4,19-21,39.2-44.1c-22.1,21.3-36,35-42.1,41.4
		c-6.1,6.4-19.4,20.6-39.3,44.1C160.8,654.8,174.3,640.8,180.4,634.3z M241.1,585.6c-20.9,22.5-34.1,36.9-39.9,43.6
		c-5.8,6.7-18.4,21.6-37.1,46c21.3-22.2,34.1-36.8,39.9-43.6C209.8,624.9,222.1,609.7,241.1,585.6z M223.1,568.6
		c-23.1,20.2-37.6,33.2-44,39.3c-6.4,6.1-20.5,19.6-41.5,42c23.4-19.9,37.7-33.2,44.1-39.3C188,604.4,201.7,590.6,223.1,568.6z
		 M195.7,664.5c20.1-23.3,32.1-38.6,37.5-45.6c5.4-7,16.9-22.8,34.8-47.7c-19.7,23.6-32.1,38.6-37.5,45.6
		C225,623.8,213.2,639.3,195.7,664.5z M185,549.9c-25.9,16.5-42.3,27.1-49.5,32.1c-7.3,5-23.2,16.3-47.3,35.4
		c26.2-16.1,42.3-27.1,49.5-32.1C145,580.2,160.6,568.5,185,549.9z M207,549.7c-25,17.8-40.8,29.3-47.8,34.7
		c-7,5.4-22.3,17.4-45.5,37.6c25.3-17.4,40.8-29.2,47.8-34.7C168.4,581.9,183.5,569.5,207,549.7z M92.7,591.9
		c27-14.8,43.5-25,51-29.7c7.5-4.7,23.7-15.5,49.1-32.8c-26.7,15.2-43.5,25-51,29.7C134.2,563.7,117.8,574.2,92.7,591.9z
		 M146.6,617.9c24.3-18.8,39.2-31.4,45.9-37.2c6.7-5.8,21.1-18.9,43.7-39.7c-24,19.2-39.1,31.4-45.9,37.2
		C183.6,583.9,168.9,596.7,146.6,617.9z M159.2,503.5c-28.7,10.9-46.9,18-55,21.5c-8.1,3.5-26,11.3-53.4,25.1
		c28.9-10.4,46.9-18,55-21.5C113.9,525.1,131.6,516.8,159.2,503.5z M180.7,507.7c-28.1,12.4-45.8,20.5-53.8,24.4
		s-25.4,12.6-52.1,27.7c28.3-12,45.9-20.4,53.8-24.4C136.5,531.5,153.7,522.4,180.7,507.7z M60.3,526c29.4-9,47.7-15.7,56-18.8
		c8.3-3.1,26.3-10.4,54.7-22.2c-29.2,9.5-47.7,15.7-56,18.8C106.7,506.8,88.4,513.7,60.3,526z M158.7,532.2
		c-7.8,4.3-24.7,13.8-50.8,30.2c27.6-13.5,44.7-22.9,52.4-27.2c7.7-4.3,24.5-14.3,50.8-30.2C183.7,519,166.4,528,158.7,532.2z
		 M143.3,452.9c-30.3,4.9-49.5,8.1-58.2,9.9c-8.7,1.7-27.7,5.8-57.5,13.7c30.5-4.4,49.6-8.1,58.2-9.9
		C94.6,464.8,113.6,460.3,143.3,452.9z M163.6,461.4c-30,6.5-49,10.8-57.6,13c-8.6,2.2-27.4,7.2-56.7,16.6c30.2-6,49.1-10.7,57.6-13
		C115.4,475.7,134.2,470.2,163.6,461.4z M158.6,437.1c-30.5,3.4-49.9,5.7-58.6,7c-8.8,1.3-28,4.4-58.1,10.7
		c30.6-2.9,49.9-5.7,58.6-7C109.3,446.5,128.4,442.9,158.6,437.1z M137,480.9c-8.5,2.6-27,8.6-55.8,19.3
		c29.8-7.7,48.4-13.4,56.8-16.1c8.4-2.7,26.9-9,55.8-19.3C164.2,473,145.5,478.3,137,480.9z M79,402c8.9,0,28.3-0.6,59-2
		c-30.7-1.3-50.1-1.9-59-2c-8.9,0-28.3,0.1-59,2C50.7,401.8,70.2,402,79,402z M156.1,412.4c-30.7,0.3-50.2,0.7-59,1.1
		c-8.8,0.4-28.3,1.5-58.9,4.8c30.7,0.2,50.2-0.6,59.1-1.1C106.1,416.8,125.5,415.2,156.1,412.4z M97.1,386.5
		c8.8,0.4,28.3,0.8,59,1.1c-30.6-2.8-50-4.3-58.8-4.8c-8.8-0.5-28.3-1.3-59.1-1.1C68.8,384.9,88.2,386.1,97.1,386.5z M126.2,426.2
		c-8.8,0.9-28.2,2.9-58.6,7.6c30.7-1.5,50.1-3.3,58.9-4.2c8.8-0.9,28.1-3.4,58.5-7.6C154.4,424,135,425.4,126.2,426.2z M126.2,373.8
		c8.8,0.9,28.2,2.2,58.9,4.2c-30.4-4.2-49.7-6.7-58.5-7.6c-8.8-0.9-28.2-2.8-58.9-4.2C98,370.9,117.4,372.9,126.2,373.8z
		 M143.3,347.1c-29.8-7.4-48.7-11.9-57.4-13.7c-8.7-1.8-27.8-5.5-58.2-9.9c29.7,7.9,48.8,12,57.5,13.8
		C93.8,339,113,342.3,143.3,347.1z M41.9,345.1c30.1,6.3,49.3,9.4,58.1,10.7c8.8,1.3,28.1,3.6,58.6,7c-30.2-5.8-49.3-9.3-58.1-10.7
		C91.8,350.8,72.5,348,41.9,345.1z M163.6,338.6c-29.4-8.9-48.1-14.3-56.7-16.5c-8.6-2.2-27.5-7-57.6-13
		c29.3,9.4,48.1,14.4,56.7,16.6C114.5,327.9,133.5,332.1,163.6,338.6z M193.8,335.1c-28.9-10.2-47.4-16.6-55.8-19.3
		c-8.4-2.7-27.1-8.4-56.8-16.1c28.8,10.7,47.4,16.6,55.8,19.3C145.5,321.7,164.2,327,193.8,335.1z M159.2,296.5
		c-27.7-13.3-45.3-21.6-53.4-25.1c-8.1-3.5-26.1-11.1-55-21.5c27.5,13.8,45.3,21.6,53.4,25.1C112.4,278.5,130.5,285.6,159.2,296.5z
		 M116.3,292.8c-8.3-3.1-26.6-9.7-56-18.8c28.2,12.3,46.4,19.2,54.7,22.2c8.3,3.1,26.8,9.2,56,18.8
		C142.6,303.2,124.6,295.9,116.3,292.8z M180.7,292.3c-27-14.6-44.2-23.8-52.1-27.7c-7.9-3.9-25.5-12.4-53.8-24.4
		c26.8,15.1,44.2,23.8,52.1,27.7C134.9,271.8,152.6,279.8,180.7,292.3z M211.1,295c-26.3-15.9-43-25.8-50.8-30.2
		c-7.7-4.3-24.8-13.7-52.4-27.2c26,16.3,43,25.9,50.8,30.2C166.4,272,183.7,281,211.1,295z M185,250.1
		c-24.4-18.6-40.1-30.3-47.3-35.4c-7.2-5.1-23.3-16.1-49.5-32.1c24.1,19.1,40,30.3,47.3,35.4C142.8,223,159.1,233.6,185,250.1z
		 M143.7,237.8c-7.5-4.7-24.1-14.9-51-29.7c25.1,17.7,41.6,28.2,49.1,32.8c7.5,4.7,24.4,14.5,51,29.7
		C167.4,253.3,151.2,242.5,143.7,237.8z M207,250.3c-23.5-19.8-38.5-32.2-45.5-37.6c-7-5.4-22.5-17.3-47.8-34.7
		c23.2,20.2,38.5,32.2,45.5,37.6C166.2,221,182,232.4,207,250.3z M219.7,209.8c-20.2-23.1-33.2-37.7-39.2-44.1
		c-6.1-6.4-19.6-20.4-42.1-41.4c19.8,23.5,33.1,37.7,39.3,44.1C183.7,174.8,197.6,188.4,219.7,209.8z M179.1,192.1
		c6.4,6.1,21,19.1,44,39.3c-21.4-22-35.1-35.9-41.5-42c-6.4-6.1-20.6-19.4-44.1-39.3C158.6,172.5,172.7,186.1,179.1,192.1z
		 M241.1,214.4c-19.1-24.1-31.3-39.2-37.1-46c-5.7-6.7-18.5-21.4-39.9-43.6c18.7,24.4,31.3,39.3,37.1,46
		C207,177.5,220.2,191.9,241.1,214.4z M192.5,219.3c-6.7-5.8-21.6-18.4-45.9-37.2c22.2,21.2,36.9,34,43.7,39.8
		c6.7,5.7,21.9,18,45.9,37.2C213.6,238.2,199.2,225.1,192.5,219.3z M261.7,177.2c-15.1-26.7-24.9-43.6-29.6-51.1
		c-4.7-7.5-15.1-24-32.9-49c14.7,27,24.9,43.6,29.6,51.1C233.4,135.7,244.3,151.9,261.7,177.2z M260.7,199.2
		c-16.5-25.9-27.2-42.2-32.2-49.5c-5-7.3-16.3-23.2-35.3-47.4c16.1,26.2,27.1,42.2,32.2,49.5C230.5,159,242.2,174.7,260.7,199.2z
		 M281.8,186c-13.8-27.4-22.8-44.7-27.1-52.5c-4.3-7.8-13.9-24.7-30.3-50.7c13.4,27.7,22.7,44.8,27.1,52.5
		C255.8,143.1,265.8,159.8,281.8,186z M195.7,135.5c17.5,25.2,29.4,40.7,34.8,47.7c5.4,7,17.8,22,37.5,45.6
		c-17.9-24.9-29.4-40.7-34.8-47.7C227.8,174.1,215.7,158.7,195.7,135.5z M305.1,205.6c-12.6-28-20.6-45.8-24.5-53.7
		c-3.9-8-12.6-25.4-27.5-52.2c12.1,28.3,20.6,45.8,24.5,53.7C281.5,161.3,290.6,178.5,305.1,205.6z M309.3,153.8
		c-9.4-29.3-15.6-47.7-18.7-56c-3-8.3-10-26.5-22.3-54.7c8.9,29.4,15.6,47.8,18.7,56C290.1,107.5,297.4,125.5,309.3,153.8z
		 M304,175.1c-11-28.7-18.1-46.8-21.6-55c-3.5-8.1-11.3-26-25-53.5c10.5,28.9,18.1,46.8,21.6,55C282.5,129.7,290.7,147.4,304,175.1z
		 M327.2,166.5c-8-29.7-13.3-48.4-15.9-56.9c-2.6-8.4-8.6-27-19.4-55.8c7.5,29.8,13.2,48.5,15.9,56.9
		C310.4,119.2,316.8,137.6,327.2,166.5z M346.1,190.4c-6.6-30-10.9-49-13.1-57.6c-2.2-8.6-7.2-27.4-16.4-56.7
		c6.1,30.1,10.9,49,13.1,57.6C332,142.2,337.4,160.9,346.1,190.4z M342.9,23.9c2.8,30.6,5.6,49.9,6.9,58.7c1.4,8.7,4.9,27.9,10.8,58
		c-3.3-30.5-5.6-49.9-6.9-58.6C352.4,73.2,349.4,53.9,342.9,23.9z M351.1,160.3c-4.9-30.3-8.3-49.5-10-58.2
		c-1.7-8.7-5.8-27.7-13.6-57.5c4.4,30.4,8.2,49.6,10,58.2C339.3,111.5,343.8,130.5,351.1,160.3z M363.8,39.1
		c1.3,30.7,3.1,50.1,4.1,58.9c0.9,8.8,3.5,28.1,7.7,58.5c-1.8-30.6-3.2-50.1-4.1-58.9C370.7,88.9,368.6,69.5,363.8,39.1z
		 M414.8,78.9c-0.4,8.8-0.8,28.3-1,59c2.8-30.6,4.4-50,4.9-58.8c0.5-8.8,1.3-28.3,1-59.1C416.3,50.6,415.2,70,414.8,78.9z
		 M398.6,96.3c0,8.9,0.6,28.3,1.9,59c1.2-30.7,1.8-50.1,1.9-59c0-8.9-0.1-28.3-1.9-59C398.7,68,398.6,87.5,398.6,96.3z M437.1,39.1
		c-4.8,30.4-6.9,49.8-7.8,58.6c-0.9,8.8-2.2,28.2-4.1,58.9c4.3-30.4,6.8-49.7,7.7-58.5C433.9,89.3,435.7,69.8,437.1,39.1z
		 M383.5,65.9c-0.1,30.7,0.8,50.2,1.3,59.1c0.5,8.8,2,28.3,4.6,58.8c-0.4-30.7-0.8-50.2-1.3-59C387.8,115.9,386.7,96.5,383.5,65.9z
		 M482.9,89.2c2.2-8.6,7-27.5,12.9-57.7c-9.4,29.3-14.5,48.1-16.7,56.7c-2.2,8.6-6.4,27.6-12.8,57.6
		C475.2,116.5,480.7,97.8,482.9,89.2z M463.4,102.9c1.8-8.7,5.6-27.8,10-58.2c-7.9,29.7-11.9,48.8-13.6,57.5
		c-1.7,8.7-5.1,27.9-10,58.2C457.1,130.5,461.6,111.5,463.4,102.9z M473.7,166.5c10.3-28.9,16.7-47.3,19.4-55.7
		c2.7-8.4,8.4-27.1,15.9-56.9c-10.8,28.8-16.8,47.3-19.4,55.8C487,118.1,481.8,136.8,473.7,166.5z M443.9,127.9
		c1.4-8.7,4.2-28,7.2-58.6c-6.2,30.1-9.2,49.4-10.5,58.1c-1.3,8.8-3.7,28.1-7.2,58.6C439,155.8,442.5,136.6,443.9,127.9z
		 M475.7,196.9c11.7-28.4,19-46.5,22.1-54.7c3.1-8.3,9.8-26.6,18.9-55.9c-12.2,28.2-19,46.5-22.1,54.8
		C491.5,149.3,485.3,167.7,475.7,196.9z M516,164.3c14.7-27,23.9-44.2,27.8-52.1s12.4-25.5,24.3-53.8
		c-15.2,26.7-23.9,44.1-27.8,52.1C536.4,118.4,528.4,136.2,516,164.3z M521.9,121.6c3.5-8.1,11.1-26.1,21.6-55
		c-13.7,27.5-21.5,45.3-25,53.5c-3.5,8.1-10.6,26.3-21.6,55C510.2,147.4,518.4,129.7,521.9,121.6z M519.2,186
		c16-26.2,26-43,30.3-50.7c4.3-7.7,13.7-24.8,27.1-52.5c-16.4,26-26,42.9-30.3,50.7C542,141.3,533,158.6,519.2,186z M514.9,216.2
		c17.2-25.5,28-41.7,32.7-49.2c4.7-7.5,14.9-24.1,29.8-51c-17.6,25.2-28,41.6-32.7,49.2C540.1,172.8,530.3,189.6,514.9,216.2z
		 M561.1,192.5c19.8-23.5,32.3-38.5,37.7-45.5c5.4-7,17.2-22.5,34.6-47.8c-20.3,23.1-32.3,38.4-37.7,45.5
		C590.3,151.6,578.8,167.4,561.1,192.5z M540.2,199.2c18.6-24.5,30.2-40.1,35.3-47.4c5.1-7.2,16.1-23.3,32.2-49.5
		c-19,24.2-30.2,40.1-35.3,47.4C567.4,157,556.7,173.3,540.2,199.2z M559.8,214.4c20.9-22.5,34.1-36.9,39.9-43.6
		c5.8-6.7,18.4-21.6,37.1-46c-21.3,22.2-34.1,36.8-39.9,43.6C591.1,175.1,578.9,190.3,559.8,214.4z M599.6,229.1
		c24.1-19,39.3-31.2,46-37c6.7-5.7,21.4-18.6,43.5-40c-24.5,18.6-39.4,31.2-46,37C636.4,194.9,622,208.1,599.6,229.1z M577.8,231.4
		c23.1-20.2,37.6-33.2,44-39.3c6.4-6.1,20.5-19.6,41.5-42c-23.4,19.9-37.7,33.2-44.1,39.3C612.9,195.6,599.2,209.4,577.8,231.4z
		 M687.3,178c-25.3,17.4-40.8,29.2-47.8,34.7c-7,5.4-22,17.9-45.5,37.6c25-17.8,40.8-29.3,47.8-34.7
		C648.7,210.2,664.1,198.1,687.3,178z M631,157.5c-22.3,21.1-35.8,35.2-41.9,41.6c-6.1,6.4-19.1,20.9-39.4,43.9
		c21.9-21.5,35.8-35.2,41.9-41.6C597.6,195.1,611,180.9,631,157.5z M630,272.7c27.5-13.8,44.8-22.7,52.5-27
		c7.8-4.3,24.7-13.9,50.6-30.4c-27.7,13.3-44.8,22.6-52.5,27C672.9,246.6,656.1,256.6,630,272.7z M608.1,270.6
		c26.7-15.2,43.5-25,51-29.7c7.5-4.7,24-15.1,49.1-32.8c-27,14.8-43.5,25-51,29.7C649.7,242.5,633.5,253.3,608.1,270.6z
		 M726.1,240.2c-28.3,12-45.9,20.4-53.8,24.4c-7.9,3.9-25.1,13.1-52.1,27.7c28.1-12.4,45.8-20.5,53.8-24.4
		C681.9,264,699.3,255.3,726.1,240.2z M627.6,244c7.3-5,23.2-16.3,47.5-35.1c-26.1,16.2-42.1,27.3-49.4,32.4
		c-7.2,5.1-22.9,16.7-47.5,35.1C604,259.7,620.3,249,627.6,244z M650.9,321.4c29.7-7.9,48.4-13.2,56.9-15.8
		c8.5-2.6,27-8.6,55.7-19.5c-29.8,7.4-48.5,13.1-56.9,15.8C698.2,304.6,679.8,311,650.9,321.4z M630,315c29.2-9.5,47.7-15.7,56-18.8
		c8.3-3,26.5-10,54.7-22.2c-29.4,9-47.7,15.7-56,18.8C676.4,295.9,658.3,303.2,630,315z M751.7,309.1c-30.2,6-49.1,10.7-57.6,13
		c-8.6,2.2-27.3,7.7-56.7,16.5c30-6.5,49-10.8,57.6-13C703.5,323.5,722.4,318.5,751.7,309.1z M654.4,292.9
		c8.1-3.5,26-11.3,53.6-24.8c-28.8,10.6-46.8,18.2-54.9,21.8c-8.1,3.5-25.8,11.7-53.6,24.8C628.1,303.5,646.2,296.3,654.4,292.9z
		 M720.1,365.5c-8.8,0.9-28.1,3.5-58.5,7.9c30.7-1.8,50.1-3.1,58.9-3.9c8.8-0.9,28.2-3,58.6-7.9
		C748.3,362.9,728.9,364.6,720.1,365.5z M642.3,362.9c30.5-3.4,49.9-5.7,58.6-7c8.8-1.3,28-4.4,58.1-10.7c-30.6,2.9-49.9,5.7-58.6,7
		C691.6,353.5,672.5,357.1,642.3,362.9z M703.6,382.8c-8.8,0.5-28.3,2-58.8,4.8c30.7-0.3,50.2-0.7,59-1.1c8.8-0.4,28.3-1.5,58.9-4.8
		C732,381.5,712.5,382.3,703.6,382.8z M670.7,346.2c8.7-1.7,27.7-5.8,57.5-13.5c-30.4,4.6-49.5,8.4-58.2,10.2
		c-8.7,1.8-27.6,6.3-57.5,13.5C642.8,351.2,662,347.9,670.7,346.2z"></path>
</g>
</svg>
