<!--?xml version="1.0" encoding="utf-8"?-->
<!-- Generator: Adobe Illustrator 22.1.0, SVG Export Plug-In . SVG Version: 6.00 Build 0)  -->
<svg version="1.1" id="_x34_" xmlns="http://www.w3.org/2000/svg" xmlns:xlink="http://www.w3.org/1999/xlink" x="0px" y="0px" viewBox="0 0 800 371.2" style="enable-background:new 0 0 800 371.2;" xml:space="preserve">
<style type="text/css">
	.stblack{fill:#000000;}
	.st0{fill:#FFFFFF;}
</style>
<g>
	<path class="stblack" d="M780,172.4c0-35.4-18.8-85.2-108.6-121.6C604.6,23.6,510.8,9.3,400,9.3c-110.8,0-204.6,14.3-271.4,41.5
		C38.8,87.2,20,137,20,172.4c0,1.4,0,2.9,0.1,4.4c-0.1,1.5-0.1,3-0.1,4.4c0,35.4,18.8,85.2,108.6,121.6
		c66.8,27.1,160.6,41.5,271.4,41.5c71.2,0,121.8-3.8,163.5-12.3c3.3,1.6,9.7,6.5,13.8,9.6c4.6,3.5,8.9,6.8,13,9.3
		c10.3,6.2,27.9,11,36.1,11c0.5,0,1,0,1.4-0.1c19,1.1,18.7-6.5,20-9c2.6-5.2-4.6-17-7.8-24.6c-2-4.7-3.4-9-4.5-12.9
		C728.8,287.2,780,239.9,780,181.2c0-1.5,0-3-0.1-4.6C779.9,175.2,780,173.8,780,172.4z"></path>
	<path class="st0" d="M765.3,172.4c0,55.5-54.4,98.9-147.9,124.1c-9,2.4,1.2,27.6,10.9,40.6c2.8,3.7-19.6-1.1-30.4-7.6
		c-10.6-6.4-27.2-22.8-35.2-21.1c-47.1,9.9-102.2,12.4-162.7,12.4c-221.9,0-365.3-58.2-365.3-148.4C34.7,82.2,178.1,24,400,24
		C621.9,24,765.3,82.2,765.3,172.4z"></path>
</g>
</svg>
