<!--?xml version="1.0" encoding="utf-8"?-->
<!-- Generator: Adobe Illustrator 22.1.0, SVG Export Plug-In . SVG Version: 6.00 Build 0)  -->
<svg version="1.1" id="_x34_" xmlns="http://www.w3.org/2000/svg" xmlns:xlink="http://www.w3.org/1999/xlink" x="0px" y="0px" viewBox="0 0 800 421.8" style="enable-background:new 0 0 800 421.8;" xml:space="preserve">
<style type="text/css">
	.st0{fill:#FFFFFF;}
</style>
<g>
	<polygon points="466.7,411.3 472,352.4 475.6,312.9 109.7,310.4 99.9,310.3 95,301.7 24,175.4 20,168.3 23,160.8 78.3,21.3 
		82.5,10.5 94,10.5 546.9,10.5 547.7,10.5 548.6,10.6 753.9,31.7 768.1,33.2 769.1,47.4 779.7,194.8 780,199.4 777.9,203.6 
		733.2,293.1 724.9,308.3 713.1,303.1 547.5,305 502.5,364.2 	"></polygon>
	<polygon class="st0" points="546.9,23.6 94,23.6 38.8,163.1 109.8,289.5 494.2,292.1 488.9,350.1 549.3,271.7 551.3,283.9 
		718,281.6 762.7,192.1 752.2,44.7 	"></polygon>
</g>
</svg>
