<!--?xml version="1.0" encoding="utf-8"?-->
<!-- Generator: Adobe Illustrator 22.1.0, SVG Export Plug-In . SVG Version: 6.00 Build 0)  -->
<svg version="1.1" id="_x34_" xmlns="http://www.w3.org/2000/svg" xmlns:xlink="http://www.w3.org/1999/xlink" x="0px" y="0px" viewBox="0 0 800 532.2" style="enable-background:new 0 0 800 532.2;" xml:space="preserve">
<style type="text/css">
	.stblack{fill:#000000;}
	.st0{fill:#FFFFFF;}
</style>
<g>
	<path class="st0" d="M81.6,132.2c-14.6,24.7-24.7,49.5-29.1,78.6c-7.3,48,7.3,96.1,39.3,131c32,32,77.2,36.4,120.8,42.2
		c68.4,10.2,135.4,11.6,203.4,7.2l11.9-1.8c7.1-1.1,13.8,3.2,16.2,10c2.1,5.9,6.1,11.1,11.1,15c8.3,6.4,18.8,9.1,29.2,10.1
		c15.7,1.5,33.1-1.3,43.9-12.9c4.8-5.1,7.8-11.8,8-18.9c5.4,0.2,11.3,0.9,16.7,1c35.6,0.8,70-3.1,104.4-12.2
		c36.7-9.7,71.7-29.5,93.4-61.3c19.4-28.5,29.5-64,29.1-98.3c-0.5-35.1-14.4-66.5-38.9-91.5c-24.7-25.2-57.2-40.7-89.9-52.7
		c0,0-2.7,0.2-17.6-6.1C601,57.8,565,56.5,530,52.1c-67-4.4-133.9-10.2-200.9-7.3c-26.2,1.5-52.4,2.9-78.6,5.8
		c-4.4,0-8.7,2.9-13.1,2.9c-34.9,1.5-67,13.1-99,29.1l-4.4,4.4C113.7,98.7,94.8,111.8,81.6,132.2z"></path>
	<path class="st0" d="M507.7,456.5c-0.4-2.4-2-4.4-3.5-6.4c-3.3-4.2-7.6-8.8-12.9-8.2l3.8-0.7c-7,0.6-14.1,1.2-21.1,1.8
		c-4.8,0.4-9.8,0.9-13.5,3.9c-4.7,3.8-5.8,11.2-2.4,16.2c1.8,2.6,4.5,4.4,7.3,5.8c10.7,5.2,23.9,5,34.4-0.6
		C504.1,465.9,508.5,461.5,507.7,456.5z"></path>
	<path class="st0" d="M459.7,494.5c-3.9,0.2-8,0.4-11.1,2.7c-3.9,2.9-5.1,8.9-2.5,13.1c1.3,2.2,3.5,3.7,5.7,5
		c8.5,4.6,19.2,4.9,28,0.8c3.7-1.8,7.5-5.2,7-9.3c-0.2-2-1.5-3.7-2.6-5.3c-2.6-3.5-5.9-7.4-10.2-7.1l3.1-0.4
		C471.2,494,465.4,494.2,459.7,494.5z"></path>
	<path class="stblack" d="M61,91.1c-1.2,1.3-2.2,2.7-3.3,4c-1.1,1.3-2,2.7-3,4c-1,1.3-1.9,2.7-2.8,4.1c-3.3,5.5-6,10.5-8.5,15.2
		c-2.4,4.8-4.5,9.2-6.3,13.2c-5.9,13.4-10,26.4-12.8,38.8c-0.7,3.1-1.3,6.2-1.8,9.2c-0.2,1.5-0.5,3-0.7,4.5c-0.2,1.5-0.4,3-0.6,4.5
		c-0.2,1.5-0.4,3-0.6,4.5c-0.1,1.5-0.2,3-0.3,4.5c-0.1,1.5-0.2,2.9-0.3,4.4c-0.1,1.5,0,2.9-0.1,4.4c-0.2,11.6,0.8,22.9,3,34
		c2.1,11.1,5.4,22,10,32.9c4.6,10.8,10.6,21.6,18.3,32.1c4,5.2,8.1,10.6,13.2,15.5c1.3,1.2,2.6,2.4,4,3.7c1.4,1.2,2.8,2.3,4.3,3.4
		c2.8,2.4,6,4.3,9.2,6.5c1.6,1,3.3,1.9,5,2.9c0.8,0.5,1.7,1,2.5,1.5c0.9,0.5,1.8,0.9,2.7,1.3c1.8,0.9,3.6,1.8,5.4,2.6
		c1.9,0.8,3.8,1.6,5.7,2.4c7.7,3,15.9,5.6,24.6,7.7c17.4,4.2,36.6,6.7,57.4,9.4c9.4,1.3,27.6,4.3,49.6,6.8
		c21.9,2.4,47.6,4.3,71.8,4.7c24.1,0.5,46.6-0.4,62.2-2c7.8-0.8,13.8-1.7,17.5-2.8c3.7-1,4.9-2.1,3.2-3.3
		c-4.7-3.2-18.9-4.1-37.9-4.6c-19-0.4-42.8-0.3-66.9-0.9c-12-0.2-24.1-0.7-35.6-1.2c-5.8-0.3-11.4-0.6-16.8-0.9
		c-5.4-0.3-10.6-0.7-15.6-1.1c-9.9-0.8-18.6-1.6-25.7-2.4c-7-0.8-12.5-1.3-15.5-1.7c-6.5-0.9-16.3-2.1-28.2-4.2
		c-3-0.5-6.1-1.1-9.3-1.8c-1.6-0.4-3.2-0.7-4.9-1.1c-0.8-0.2-1.7-0.4-2.5-0.6c-0.8-0.2-1.7-0.4-2.5-0.7c-1.7-0.4-3.4-0.9-5.2-1.3
		c-1.7-0.5-3.5-1.1-5.3-1.6c-1.8-0.5-3.6-1.1-5.4-1.8c-1.8-0.7-3.6-1.2-5.4-2c-7.3-2.8-14.5-6.5-21.5-11c-1.7-1.2-3.5-2.3-5.2-3.5
		c-1.7-1.3-3.3-2.6-5-3.9c-0.9-0.6-1.6-1.4-2.4-2.1l-2.3-2.2c-0.8-0.7-1.6-1.4-2.3-2.2l-2.1-2.5l-2.1-2.5l-1.1-1.2l-1-1.3
		c-1.3-1.7-2.7-3.5-4-5.2c-2.5-3.6-5.1-7.2-7.3-11.1c-2.4-3.7-4.4-7.7-6.4-11.7c-0.9-2-1.9-4-2.8-6c-0.5-1-0.9-2-1.3-3l-1.2-3.1
		c-3.2-8.2-5.7-16.5-7.3-24.9c-0.2-1-0.4-2.1-0.7-3.1c-0.2-1-0.3-2.1-0.5-3.1c-0.3-2.1-0.7-4.1-0.9-6.2c-0.4-4.1-0.9-8.1-1-12.1
		c-0.5-7.9,0-15.6,0.6-22.7c0.2-1.8,0.4-3.5,0.6-5.3c0.2-1.7,0.4-3.4,0.7-5.1c0.5-3.3,1.1-6.5,1.8-9.6c2.6-12.2,5.9-21.9,8.4-28.5
		c1.3-3.3,2.3-5.9,3.1-7.6c0.7-1.7,1.1-2.7,1.1-2.7s0.5-1,1.4-3c0.9-2,2.3-4.9,4.1-8.5c1.8-3.7,4.2-8.1,7.1-13.1
		c0.7-1.2,1.4-2.5,2.3-3.7c0.8-1.2,1.7-2.5,2.7-3.8c0.5-0.6,1-1.3,1.5-2c0.5-0.6,1-1.3,1.6-1.9c1-1.3,2.2-2.6,3.4-3.9
		c4.8-5.2,10.5-10.5,17.2-15.5c6.7-5,14.2-9.8,22.3-14.5l1.9-1.1c0.4-0.3,0.6-0.6,1-0.9l0.7-0.7c0.8-0.8,1.6-1.6,2.5-2.5l0.3-0.3
		l0.4-0.2l1.6-0.8c1.1-0.5,2.2-1.1,3.3-1.6c4.4-2.1,8.9-4.2,13.5-6.2c9.2-4,18.9-7.7,28.9-10.8c10-3.1,20.3-5.5,30.8-7.1
		c5.2-0.7,10.6-1.4,15.8-1.6l4.2-0.2c1.7-0.2,3.2-0.6,4.6-1c2.7-0.9,5.1-1.8,6.9-1.8c0.3,0,0.5,0,0.8-0.1l0.5-0.1l1-0.1l2-0.2l4-0.4
		c2.6-0.3,5.3-0.5,7.9-0.8c5.3-0.5,10.5-0.9,15.7-1.3c10.4-0.8,20.5-1.4,30.3-2c39.2-2.6,72.9-1.6,93-1c31.7,1.1,61.5,3.6,88.6,5.8
		c6.8,0.6,13.4,1.1,19.8,1.7c3.2,0.3,6.3,0.5,9.4,0.8c3.1,0.3,6.1,0.4,9,0.9c5.9,0.8,11.7,1.7,17.2,2.4c5.5,0.8,10.8,1.6,15.9,2.4
		c20.2,3,36.4,6.1,48.1,8c11.6,1.9,18.7,2.4,20.7-0.2c0.6-0.8,0-1.7-1.8-2.8c-0.9-0.6-2.1-1.2-3.6-1.9c-1.5-0.6-3.3-1.3-5.3-2.1
		c-8.2-2.9-21.1-6.2-38.3-9.1c-8.6-1.5-18.2-2.8-28.9-4.2c-5.3-0.6-10.9-1.3-16.7-2c-3-0.3-6-0.7-9.1-1c-3.1-0.2-6.2-0.3-9.4-0.5
		c-25.4-1.4-54.6-3.3-87.6-5c-35.9-1.8-75.2-2.9-114.9-0.5c-19.8,1.1-39.7,2.4-59.3,4.3c-2.5,0.3-4.9,0.5-7.4,0.8l-1.7,0.2l-0.2,0
		c-0.2,0-0.4,0-0.7,0c-0.4,0-0.8,0.1-1.2,0.2c-1.6,0.3-3,0.7-4.2,1.1c-2.5,0.8-4.5,1.5-6,1.6c-2.4,0.1-4.9,0.3-7.3,0.4
		c-9.9,0.8-19.6,2.4-28.9,4.5c-18.8,4.3-36.2,11.1-52.1,18.4c-4,1.8-7.9,3.7-11.7,5.6l-2.1,1c-0.4,0.3-0.6,0.6-1,0.9l-0.7,0.7
		c-0.7,0.7-1.5,1.5-2.2,2.2c-1.1,1-0.2,0.4-1.5,1.1c-0.9,0.5-1.8,1-2.7,1.6c-7.1,4.2-13.9,8.5-20.1,13.2
		c-6.2,4.6-11.9,9.6-16.9,14.7C63.4,88.5,62.2,89.8,61,91.1z"></path>
	<path class="stblack" d="M499.6,392.2c0.7-0.5,1.2-1,1.9-1.5c0.6-0.5,1.2-1,1.8-1.6c0.6-0.6,1.1-1.1,1.6-1.6c0.5-0.6,1-1.2,1.5-1.8
		c3.8-4.8,5.3-9.9,6-12.8c0.1-0.5,0.2-0.9,0.3-1.4c0.9,0.4,2.2,0.7,3.7,1c4.1,0.7,10.4,1.1,18.8,1c16.8-0.2,41.8-2,73.2-8.2
		c8.6-1.7,17.4-3.7,26.5-6.2c9.1-2.5,18.2-5.7,27.1-9.6c17.8-7.7,34.7-18.5,48.3-31.4c6.8-6.4,12.7-13.4,17.6-20.5
		c4.9-7,8.9-14.1,12.2-20.8c1.7-3.3,3.1-6.6,4.5-9.7c1.2-3.2,2.5-6.1,3.4-9c0.5-1.4,1-2.8,1.4-4.1c0.4-1.3,0.8-2.6,1.2-3.9
		c0.8-2.5,1.4-4.8,1.9-6.8c1.7-6.8,3.1-13.2,4-19.3c0.3-1.5,0.4-3,0.6-4.5c0.2-1.5,0.3-2.9,0.5-4.4c0.2-2.9,0.5-5.7,0.6-8.5
		c0.5-11.1,0.2-21.7-1.8-32.9c-0.3-1.4-0.5-2.8-0.8-4.2c-0.3-1.4-0.7-2.8-1-4.3c-0.6-2.9-1.6-5.8-2.4-8.8c-2-6-4.4-12.3-7.6-18.8
		c-6.5-13.1-16.2-27.4-31.4-41.7c-3.4-3.2-10-9.5-18.6-16.1c-8.6-6.6-19.3-13.4-29.8-18.7c-10.5-5.4-20.7-9.4-28-11.3
		c-7.3-2-11.8-1.9-11.2,1c1.7,8,22.6,16.4,42.7,26.7c10.1,5.1,20,10.8,27.8,15.9c7.8,5.2,13.4,9.8,15.4,11.9
		c2.2,2.2,5.4,5.6,9.1,9.9c3.6,4.4,7.7,9.9,11.6,16.3c3.9,6.4,7.5,13.7,10.5,21.5c2.9,7.8,5.1,16.2,6.4,24.5
		c2.6,16.6,1.4,32.9-0.3,44.7c-0.5,2.9-0.9,5.6-1.4,8c-0.2,1.2-0.4,2.3-0.6,3.3c-0.2,1-0.4,1.9-0.6,2.8c-0.4,1.7-0.7,3-0.9,3.8
		c-0.2,0.9-0.4,1.3-0.4,1.3s-0.1,0.5-0.4,1.5c-0.3,1-0.6,2.5-1.2,4.4c-0.6,1.9-1.2,4.2-2.2,6.8c-0.5,1.3-1,2.7-1.5,4.2
		c-0.6,1.5-1.2,3-1.8,4.6c-5.2,12.7-14,29.7-27.6,44.2c-6.8,7.3-14.6,14-22.9,19.7c-8.3,5.7-17.1,10.5-25.5,14.3
		c-8.5,3.8-16.6,6.8-23.8,9c-7.2,2.1-13.4,3.7-18.1,4.8c-14.7,3.4-28.9,5.3-41.8,6.3c-12.9,1-24.5,1.1-34.2,1.2
		c-9.7,0.1-17.7,0.1-23.4,1c-3,0.4-5.3,1.1-6.9,2.1c0.2-2.1,0.2-4.2,0.1-6.2c-0.1-1.1-0.2-2.1-0.4-3.2c-0.2-1-0.4-2-0.7-3
		c-0.3-0.9-0.7-1.9-1-2.7c-0.4-0.9-0.9-1.7-1.3-2.4c-0.2-0.4-0.4-0.7-0.7-1.1c-0.3-0.3-0.5-0.6-0.8-0.9c-0.5-0.6-1.1-1.1-1.6-1.6
		c-1.2-0.8-2.3-1.4-3.4-1.6c-2.3-0.3-4,0.8-5.6,3.3c-0.9,1.5-1,2.7-0.6,3.7c0.2,0.5,0.6,0.9,0.9,1.4c0.4,0.5,1,0.9,1.5,1.6
		c1.2,1.1,2.6,2.9,3.7,5.4c1.1,2.5,1.9,5.9,1.5,9.8c-0.4,4.2-2,8.7-4.6,12.4c-0.3,0.5-0.7,0.9-1.1,1.3l-0.5,0.6
		c-0.2,0.2-0.4,0.4-0.6,0.6l-1.3,1.2l-1.4,1.1c-0.4,0.4-0.9,0.7-1.4,1.1c-0.5,0.3-0.9,0.7-1.4,1c-1,0.6-2,1.2-3,1.7
		c-4.1,2.1-8.4,3.3-12.2,4c-3.8,0.7-7,0.9-9.2,1c-7.4,0.2-12.5-0.5-18.3-1.6c-2.9-0.6-5.9-1.5-9.3-2.8c-3.4-1.4-7.2-3.4-10.9-6.8
		c-0.8-0.8-2.1-2.6-3.3-4.9c-1.1-2.3-2.1-5.1-2.7-7.5c-0.6-2.5-1-4.6-1.8-6.3c-0.4-0.8-0.9-1.5-1.7-2c-0.8-0.5-1.8-0.8-3-0.8
		c-1.7,0.1-3.1,0.6-4.3,1.5c-1.1,1-1.9,2.3-2.2,4c-0.4,1.6-0.3,3.5,0,5.5c0.4,1.9,1.1,3.8,2.1,5.6c1.9,3.6,4.8,6.4,7.4,8.3
		c2.5,1.9,4.7,3,5.4,3.6c1.5,1.3,4.7,3.7,8.9,5.7c4.2,2.1,9.4,3.8,14.5,4.8c5.1,1,9.9,1.5,13.5,1.6c3.6,0.2,6,0,6,0s0.7,0,1.9-0.1
		c1.2-0.1,2.9-0.2,5-0.5c2.1-0.2,4.6-0.7,7.3-1.4c2.7-0.7,5.6-1.6,8.4-2.9C494.1,395.7,497,394.2,499.6,392.2z"></path>
	<path class="stblack" d="M476.5,444.8c1.8-1.1,3.6-2.4,5.3-4.4c0.9-1,1.7-2.2,2.4-3.6c0.7-1.4,1.2-3.2,1.2-5.1c0-0.8,0-2.1-0.4-3.6
		c-0.3-1.5-1-3-1.8-4.4c-0.8-1.4-1.5-2.6-2.4-4c-0.9-1.3-1.9-2.7-3.2-3.9c-1.2-1.2-2.7-2.4-4.3-3.1c-1.6-0.8-3.3-1.2-4.8-1.1
		c-0.2,0-0.4,0-0.6,0.1c-1-0.9-2.8-1-5.6-0.7c-2.1,0.2-4.6,0.7-7.6,1.2c-1.5,0.2-3.1,0.5-4.9,0.7c-1.7,0.2-3.6,0.4-5.7,0.7
		c-2.3,0.3-4.8,0.7-7.4,1.7c-1.3,0.5-2.6,1.2-3.9,2c-1.2,0.8-2.5,2-3.4,3.2c-3.8,5-4.4,11.9-1.5,17.3c1.5,2.7,3.6,4.6,5.6,6
		c2,1.4,4,2.4,5.8,3.2c3.7,1.6,6.9,2.3,9.2,2.7c3.7,0.6,6.9,0.7,9.9,0.5c3-0.2,5.7-0.7,8.7-1.5C470,447.9,472.9,446.8,476.5,444.8z
		 M454.2,443.9c-0.7,0-1.4-0.1-1.9-0.1c-0.6-0.1-1.1-0.1-1.5-0.2c-0.8-0.1-1.3-0.2-1.3-0.2s-0.5-0.1-1.4-0.3c-0.9-0.2-2.2-0.5-3.8-1
		c-3-1.1-7.5-2.9-10-6.1c-1.2-1.5-1.8-3.5-1.9-5.6c0-2.1,0.6-4.1,1.6-5.6c0.5-0.8,1.1-1.4,1.7-1.9c0.7-0.5,1.4-1,2.1-1.3
		c1.4-0.7,2.8-1,3.9-1.3c3.4-0.7,7.1-0.5,10.4-0.4c3.3,0.1,6.2,0.2,8.7,0.1c2.4-0.1,4.3-0.5,5.7-1.4c0.4,0.9,0.8,1.5,1.3,2.2
		c0.9,1.2,2.4,2.5,4.3,4.2c1,0.9,2,1.8,3,2.6c1,0.8,1.8,1.5,2.4,2.1c0.6,0.6,1,1.1,1.2,1.6c0.1,0.3,0.2,0.5,0.2,0.7
		c0,0.2,0,0.4,0,0.5c-0.1,0.5-0.3,1.3-0.9,2.3c-0.6,1-1.6,2.1-2.8,3.1c-2.5,2.1-6.6,3.8-10.4,4.8C460.9,443.8,457,444,454.2,443.9z"></path>
	<path class="stblack" d="M461,471.3c-0.7-1.1-1.5-2.3-2.5-3.4c-1-1.1-2.2-2.1-3.5-2.8c-1.3-0.7-2.9-1.1-4.1-1.1c-0.3,0-0.6,0-0.8,0.1
		c-0.8-0.9-2.3-1-4.4-0.9c-1.7,0.1-3.8,0.5-6.2,0.8c-1.2,0.2-2.6,0.3-4,0.5c-1.4,0.1-2.9,0.2-4.7,0.4c-1.9,0.1-4,0.4-6.3,1.1
		c-1.1,0.4-2.3,0.9-3.4,1.6c-1.1,0.7-2.2,1.6-3,2.6c-3.4,4.2-4.2,10-2,14.8c1.2,2.4,2.9,4.1,4.5,5.3c1.7,1.3,3.2,2.1,4.7,2.9
		c3,1.5,5.7,2.2,7.5,2.6c3.1,0.7,5.7,0.8,8.2,0.8c2.5-0.1,4.8-0.3,7.2-0.9c2.5-0.6,5-1.4,8-2.9c1.5-0.8,3.1-1.9,4.7-3.5
		c0.8-0.8,1.5-1.8,2.2-3c0.6-1.2,1.2-2.7,1.2-4.4c0-0.7,0.1-1.9-0.2-3.2c-0.2-1.3-0.7-2.7-1.3-3.9
		C462.2,473.4,461.7,472.4,461,471.3z M457.1,483.7c-0.5,0.7-1.3,1.5-2.3,2.3c-2,1.5-5.3,2.8-8.4,3.5c-3.1,0.7-6.3,0.7-8.5,0.5
		c-1.1-0.1-2.1-0.2-2.7-0.4c-0.6-0.1-1-0.2-1-0.2s-0.4-0.1-1.1-0.3c-0.7-0.2-1.7-0.5-3-1c-2.4-0.9-5.9-2.6-7.7-5.1
		c-0.9-1.2-1.3-2.7-1.2-4.3c0-1.6,0.6-3.1,1.4-4.2c1.6-2.2,4.5-2.9,6.1-3.2c2.7-0.4,5.7-0.1,8.4,0.2c2.7,0.3,5.1,0.5,7.1,0.5
		c1.9,0,3.5-0.3,4.6-1c0.2,0.8,0.4,1.4,0.6,1.9c0.4,1.1,1.5,2.1,3,3.4c0.7,0.7,1.6,1.4,2.4,2.1c0.7,0.6,1.3,1.1,1.9,1.6
		c0.5,0.4,0.8,0.7,1,1.1c0.2,0.4,0.3,0.7,0.2,0.9C457.8,482.4,457.6,483,457.1,483.7z"></path>
</g>
</svg>
