<!--?xml version="1.0" encoding="utf-8"?-->
<!-- Generator: Adobe Illustrator 22.1.0, SVG Export Plug-In . SVG Version: 6.00 Build 0)  -->
<svg version="1.1" id="_x34_" xmlns="http://www.w3.org/2000/svg" xmlns:xlink="http://www.w3.org/1999/xlink" x="0px" y="0px" viewBox="0 0 800 659" style="enable-background:new 0 0 800 659;" xml:space="preserve">
<style type="text/css">
	.stblack{fill:#000000;}
	.st0{fill:#FFFFFF;}
</style>
<g>
	<path class="st0" d="M68.9,387.3c38.4,83.4,109.9,119.7,266.8,122.7l5.2,0.2c2.1,8.8,7.5,17.2,15.1,22.1
		c16.2,10.6,37.7,8.8,55.9,2.4c12-4.2,23.7-10.6,31.7-20.6c2-2.5,3.7-5.2,5.1-8.1l2.3-0.7c67.7-1.2,139.2-2.8,203.5-33.5
		c64.2-30.6,103.7-86.3,121.2-155.2c17.5-69-18.6-145.9-73.5-191.2c-35.2-29-80.3-42.6-124.2-54.8C492.6,47,401.6,47.4,314.5,59.4
		c-67.4,9.3-156.9,34.4-205.2,82.4c-35.1,34.8-53.9,91.3-57.6,140.6C49.4,311.7,56.6,360.6,68.9,387.3z"></path>
	<path class="st0" d="M396.1,570.9c-1.3,2.7-2.5,5.6-2.3,8.6c0.5,6.2,7,10.1,13,11.6c14.1,3.6,29.8,0,41-9.4c2.9-2.5,5.6-5.4,7-9
		c2.6-6.9-1-15.4-7.6-18.5c-5.3-2.5-11.4-1.6-17.2-0.7c-8.5,1.4-17.1,2.7-25.6,4.1l4.7-0.2C402.6,558.3,398.8,565,396.1,570.9z"></path>
	<path class="st0" d="M444.4,641.8c11.6,2.4,24.2-1.1,32.9-9.1c2.3-2.1,4.4-4.6,5.3-7.6c1.8-5.7-1.3-12.5-6.8-14.7
		c-4.4-1.8-9.3-0.9-14,0.1c-6.9,1.4-13.8,2.8-20.6,4.3l3.8-0.4c-5.2,0.9-8,6.5-10,11.4c-0.9,2.3-1.9,4.6-1.6,7.1
		C434,637.9,439.4,640.8,444.4,641.8z"></path>
	<path class="stblack" d="M20.5,250.7c-0.2,3.3-0.4,6.6-0.5,9.9c-0.1,6.6,0.1,13.1,0.6,19.5c0.4,6.4,1.2,12.8,2,19.1c1.8,12.6,4.1,24.9,7.4,36.9
		c1.6,6,3.6,11.8,5.8,17.6c0.6,1.4,1.2,2.8,1.8,4.3c0.6,1.4,1.3,2.7,1.9,4.1c0.6,1.4,1.3,2.7,1.9,4c0.7,1.3,1.4,2.6,2.1,4
		c5.5,10.5,11.7,20.4,18.7,29.4c6.9,9,14.6,17.1,22.6,24.2c16.1,14.2,33.8,24.3,50.4,31.5c16.7,7.2,32.5,11.9,46.4,15.3
		c27.9,6.6,48.1,8.8,57.5,10c9.7,1.2,27.4,5.6,42.5,7.2c3.8,0.4,7.4,0.7,10.7,0.7c3.3,0,6.2-0.2,8.7-0.7c4.5-0.9,7.2-2.7,7.2-5.9
		c0.4,1.2,0.7,2.5,1.2,3.7c2.3,6.5,6.5,13,12.4,18.1c0.7,0.6,1.6,1.2,2.3,1.8l1.2,0.9c0.4,0.3,0.8,0.5,1.2,0.7l2.4,1.4l2.5,1.2
		c0.8,0.4,1.7,0.8,2.6,1.1c0.9,0.3,1.7,0.7,2.6,1c1.7,0.5,3.4,1.1,5.2,1.5c3.4,0.9,6.8,1.2,10,1.5c3.2,0.2,6.2,0.2,8.9,0
		c5.5-0.3,9.9-1.1,12.9-1.8c5-1.1,9.1-2.3,12.9-3.6c3.8-1.3,7.3-2.8,10.9-4.6c3.7-1.8,7.6-4,11.9-7.1c4.3-3.2,9.2-7.4,13.7-14.1
		c0.5-0.7,1.2-1.6,2-2.8c3.7,3.4,13.5,3.7,24.9,2.7c15.1-1.3,32.8-5,42.6-5.9c2.4-0.2,5.2-0.4,8.5-0.7c3.3-0.3,7-0.7,11.2-1.1
		c4.2-0.4,8.8-1.1,13.7-1.7c2.5-0.3,5.1-0.7,7.8-1.1c2.7-0.4,5.5-0.8,8.3-1.3c11.4-1.9,24.3-4.6,38.1-8.4c13.9-3.8,28.7-9,43.8-15.9
		c15.2-6.9,30.6-15.9,45.2-27.3c3.7-2.7,7.2-5.9,10.8-9l2.7-2.3l2.5-2.5c1.7-1.7,3.4-3.3,5.1-5c1.8-1.6,3.3-3.5,4.9-5.3
		c1.6-1.8,3.3-3.6,4.9-5.4c1.5-1.9,3.1-3.8,4.6-5.7l2.3-2.9l1.2-1.4l1.1-1.5c11.8-15.9,21.8-33.7,29.6-52.7c1-2.3,1.9-4.8,2.8-7.2
		c0.9-2.4,1.9-4.8,2.7-7.3c0.8-2.5,1.6-4.9,2.4-7.4c0.8-2.5,1.6-4.9,2.3-7.4c1.4-5,2.9-10,3.9-15.2c0.6-2.6,1-5.2,1.5-7.8
		c0.4-2.6,0.7-5.2,1-7.9c2.2-21,0-42.4-5.5-62.5c-5.5-20.2-14.1-39.2-24.8-56.3c-10.7-17.2-23.3-32.6-37.2-45.8
		c-1.7-1.7-3.5-3.2-5.3-4.8c-1.8-1.6-3.6-3.1-5.4-4.6c-3.7-2.9-7.3-5.9-11.2-8.5c-7.6-5.3-15.3-10.1-23.1-14.2
		c-7.8-4.1-15.5-7.8-23.2-10.9c-7.6-3.2-15.1-6-22.4-8.5c-14.6-5.1-28.3-9.1-40.6-12.7c-6.1-1.8-12.1-3.3-17.7-4.8
		c-1.4-0.4-2.8-0.7-4.1-1.1c-1.4-0.3-2.7-0.6-4-0.9c-2.6-0.6-5.2-1.2-7.6-1.8c-4.8-1.2-9.4-2-13.4-2.9c-4.1-0.8-7.7-1.6-11-2.2
		c-3.2-0.5-7.1-1-11.6-1.6c-4.5-0.6-9.6-1.1-15.3-1.8c-5.7-0.6-11.9-1.1-18.7-1.7c-3.4-0.2-6.9-0.4-10.5-0.7
		c-3.6-0.2-7.4-0.5-11.3-0.6c-31.1-1.4-70.1-0.7-113.7,4c-5.4,0.6-11,1.2-16.6,1.9c-5.6,0.8-11.2,1.4-17,2.3
		c-5.7,0.9-11.5,1.7-17.4,2.8c-5.8,1-11.7,2.2-17.6,3.4c-23.7,4.9-48,11.5-72.3,20.2c-12.1,4.5-24.2,9.3-36.1,15.2
		c-6,2.7-11.8,6.1-17.6,9.2c-2.9,1.7-5.7,3.4-8.6,5.2c-1.4,0.9-2.9,1.7-4.3,2.6l-4.2,2.9l-4.2,2.9c-1.4,1-2.8,1.9-4.1,3
		c-2.7,2.1-5.3,4.2-8,6.3c-1.4,1-2.6,2.2-3.8,3.3l-3.8,3.4c-1.2,1.2-2.5,2.3-3.7,3.5l-3.5,3.7c-9.3,10-17.2,21.2-23.9,33
		c-13.3,23.7-22,49.6-27,75.7c-0.7,3.3-1.1,6.5-1.7,9.8c-0.5,3.3-0.9,6.6-1.3,9.8C21.1,244.2,20.8,247.4,20.5,250.7z M29,254.3
		c0.1-1.6,0.2-3.3,0.4-5l0.5-5c0.4-3.4,0.9-6.7,1.3-10.1c2-13.4,5-26.8,9.1-40c4.1-13.1,9.2-26,15.6-38.3
		c6.4-12.2,14-23.9,22.9-34.2c9-10.3,19.7-19.1,30.9-26.9c5.6-4,11.5-7.4,17.4-11c6.1-3.2,12-6.6,18.2-9.4
		c24.5-11.9,50.2-20.4,75.3-27.2c25.2-6.6,49.8-11.3,73.4-14.3c23.6-3.1,46-5.1,66.7-6.2c20.7-1.1,39.6-1.3,56.4-0.8
		c16.7,0.5,31.3,1.4,43.2,2.7c3,0.3,5.8,0.6,8.5,0.8c2.6,0.3,5.1,0.6,7.4,0.9c4.6,0.6,8.5,1,11.7,1.6c6.3,1,9.7,1.5,9.7,1.5
		s0.7,0.1,1.9,0.3c1.3,0.2,3.2,0.5,5.6,1c4.9,0.9,12.1,2.2,21.2,4.3c2.3,0.5,4.7,1,7.2,1.6c2.5,0.6,5.1,1.3,7.9,2
		c2.7,0.7,5.6,1.5,8.5,2.2c3,0.8,6,1.7,9.2,2.6c12.6,3.6,26.9,7.7,42,13.2c7.6,2.7,15.4,5.8,23.3,9.3c7.9,3.5,15.9,7.6,23.8,12.2
		c7.9,4.7,15.7,9.9,23.1,16c7.5,6.1,14.6,12.9,21.5,20.3c6.8,7.4,13.3,15.4,19.2,23.9c5.9,8.5,11.3,17.6,16,27.1
		c4.8,9.5,8.8,19.5,12,29.7c3.2,10.3,5.5,20.9,6.8,31.6c0.7,5.4,1,10.8,1.1,16.2c0,2.7,0.1,5.4-0.1,8.1l-0.2,4l-0.3,4
		c-0.2,2.7-0.6,5.3-1,8c-0.4,2.7-0.9,5.3-1.4,7.9c-1.1,5.2-2.6,10.5-4.1,15.7c-0.7,2.6-1.6,5.2-2.4,7.8c-0.9,2.6-1.6,5.2-2.6,7.7
		c-1,2.5-1.9,5-2.9,7.6l-1.4,3.8l-1.6,3.7c-1.1,2.5-2.1,4.9-3.2,7.3c-1.2,2.4-2.4,4.8-3.5,7.1c-2.2,4.8-5,9.3-7.5,13.9
		c-10.6,18-23.6,33.9-37.7,47.2c-14.2,13.3-29.7,23.8-45.1,31.9c-15.4,8.1-30.8,14-45,18.4c-14.2,4.4-27.3,7.2-38.7,9.4
		c-5.7,1-11,1.9-15.8,2.6c-2.4,0.3-4.7,0.7-6.8,1c-2.2,0.3-4.2,0.5-6.1,0.7c-7.6,0.9-13.1,1.3-16.1,1.6c-2.3,0.2-5.3,0.3-8.7,0.1
		c-3.4-0.1-7.3-0.3-11.4-0.6c-8.2-0.5-17.4-1.3-26.2-1.5c-10.2-0.2-19.7,0.3-26.1,2.8c0.5-1.8,0.9-3.6,1.1-5.4
		c0.6-4.9-0.3-9.8-2.2-12.6c-0.9-1.4-2-2.4-3.2-2.7c-1.2-0.3-2.4-0.1-3.7,0.8c-1.8,1.1-3.1,2.4-4,3.7c-1,1.3-1.6,2.6-2,3.9
		c-0.8,2.6-0.9,5.5-1,8.8c-0.1,3.2-0.4,6.8-0.9,9.8c-0.5,3-1.3,5.3-1.8,6.1c-1.1,1.6-3.7,4.8-7.5,8c-3.8,3.2-8.9,6.4-14.1,8.9
		c-5.2,2.5-10.5,4.3-14.4,5.4c-3.9,1.1-6.5,1.6-6.5,1.6s-0.7,0.2-2,0.4c-1.3,0.2-3.2,0.6-5.5,0.8c-2.3,0.3-5.1,0.4-8.1,0.5
		c-3-0.1-6.2-0.2-9.5-0.9c-3.2-0.6-6.5-1.5-9.5-2.8c-0.8-0.3-1.5-0.7-2.2-1c-0.7-0.3-1.5-0.7-2.1-1.1c-0.7-0.4-1.4-0.8-2-1.2
		c-0.6-0.4-1.2-0.9-1.8-1.3c-0.6-0.4-1.1-0.9-1.6-1.4c-0.5-0.5-1-0.9-1.5-1.4c-0.4-0.5-0.9-1-1.3-1.5c-0.4-0.5-0.8-0.9-1.2-1.4
		c-1.4-1.9-2.4-3.7-3.1-5c-2.2-4.3-2.8-9-2.5-12.9c0.1-1,0.2-1.9,0.4-2.8c0.2-0.9,0.4-1.7,0.6-2.5c0.3-0.8,0.5-1.5,0.7-2.2
		c0.2-0.7,0.6-1.3,0.8-1.9c0.1-0.3,0.2-0.6,0.3-0.9c0.1-0.3,0.3-0.5,0.4-0.8c0.2-0.5,0.4-1.1,0.5-1.6c0.4-0.9,0.6-1.9,0.6-3
		c0.1-1.9-0.7-4.3-3-7.2c-1.4-1.7-2.8-2.1-4.6-1.2c-0.9,0.4-1.9,1.1-2.8,2.3c-0.9,1.1-1.9,2.4-2.6,4.2c-1.7,3.4-2.6,8-2.7,13.1
		c0,2.9,0.3,5.9,1,9c-3.9-7.6-17.7-9-33.2-9.1c-2.2,0-4.4,0-6.6,0.1c-2.2,0.1-4.4,0.1-6.6,0.2c-2.2,0.1-4.4,0.2-6.6,0.2
		c-2.2,0.1-4.3,0.1-6.3,0.2c-4.1,0.1-8,0.2-11.4,0.2c-3.4-0.1-6.4-0.1-8.7-0.5c-3-0.4-9.2-1.2-18.1-2.7c-8.9-1.5-20.6-3.6-34.3-7.3
		c-6.8-1.9-14.2-4-21.9-6.8c-7.7-2.7-15.8-6-24-10c-16.5-8-33.6-19.3-48.7-35c-7.5-7.8-14.5-16.7-20.7-26.5
		c-1.6-2.5-3.1-4.9-4.6-7.5c-0.7-1.3-1.5-2.6-2.2-3.8c-0.7-1.3-1.4-2.6-2.1-4c-0.7-1.3-1.4-2.6-2.1-4c-0.7-1.4-1.3-2.7-2-4.1
		c-1.4-2.8-2.5-5.5-3.6-8.2c-2.2-5.6-4-11.5-5.7-17.6c-1.6-6.1-3-12.3-4.2-18.6c-1.2-6.3-2.2-12.7-3-19.2
		c-0.8-6.5-1.4-13.1-1.7-19.7C28.7,267.5,28.6,260.9,29,254.3z"></path>
	<path class="stblack" d="M407.2,562.2c0.7-0.3,1.4-0.5,1.9-0.7c1.1-0.4,1.6-0.7,1.6-0.7s0.7-0.3,1.9-0.8c1.2-0.6,2.8-1.5,4.8-2.7
		c1.9-1.3,4.1-2.8,6.4-4.9c2.2-2,4.6-4.6,6.1-8.1c1.6-3.5,1.8-7.7,0.9-11.3c-0.9-3.7-2.9-7-5.5-9.4c-1.3-1.2-2.8-2.1-4.3-2.9
		c-1.5-0.7-2.9-1.1-4.3-1.4c-2.7-0.6-4.9-0.5-6.5-0.5c-2.5,0.1-4.9,0.3-7.2,0.5c-2.2,0.2-4.3,0.3-6.3,0.4c-4,0.2-7.6,0.3-10.6,0.7
		c-3.9,0.5-6.8,1.4-8.1,3.6c-1.4-0.4-3.2-0.2-4.9,0.5c-1.9,0.8-3.6,2.2-5,3.8c-1.4,1.6-2.4,3.5-3.2,5.3c-0.8,1.9-1.3,3.7-1.8,5.5
		c-0.5,1.8-0.9,3.9-0.9,5.9c-0.1,2,0.3,3.9,0.8,5.3c0.2,0.7,0.5,1.3,0.7,1.8c0.2,0.5,0.4,0.8,0.6,1.1c0.5,1.2,1.5,2.8,3.1,4.4
		c1.6,1.6,3.7,3,6.1,4.1c4.9,2.3,10.7,3.1,16.4,3.3c5.6,0.1,11-0.9,14.8-2C405.6,562.8,406.5,562.5,407.2,562.2z M389.3,557.3
		c-1.5,0-3.1-0.2-4.7-0.4c-0.8-0.1-1.7-0.2-2.6-0.5c-0.4-0.1-0.9-0.2-1.3-0.3c-0.4-0.1-0.8-0.2-1.3-0.4c-1.7-0.5-3.5-1.3-5.1-2.4
		c-1.6-1.1-2.8-2.5-3.2-4c-0.2-0.7,0-1.9,1.4-4.1c0.6-1.1,1.6-2.6,2.5-4c0.9-1.4,1.8-2.7,2.6-3.8c0.8-1.1,1.6-2.1,2.2-2.8
		c0.6-0.7,1-1.3,1.3-1.9c0.1-0.2,0.2-0.5,0.3-0.7c1.1,0,2.4-0.2,4-0.5c2.5-0.5,5.5-1.3,9.2-2.2c1.8-0.4,3.8-0.9,5.9-1.3
		c2.1-0.4,4.4-0.9,6.6-1.2c2.4-0.3,4.9-0.5,7.1-0.2c2.2,0.3,4.1,1,5.6,2.2c1.5,1.2,2.8,3,3.4,5c0.7,2,0.8,4,0.3,5.8
		c-0.9,3.5-4.3,6.9-7.5,9.2c-3.2,2.4-6.2,3.9-8.3,4.8c-3.5,1.5-6.6,2.4-9.6,2.9C395.2,557.2,392.3,557.4,389.3,557.3z"></path>
	<path class="stblack" d="M402.7,603.8c0.5,1.2,1,1.9,1.3,2.4c0.5,1,1.4,2.4,2.8,3.6c1.4,1.3,3.2,2.4,5.2,3.2c4.2,1.7,9,2.2,13.7,2.1
		c4.7-0.2,9-1.1,12.1-2.2c1.5-0.5,2.8-1,3.6-1.4c0.9-0.4,1.3-0.6,1.3-0.6s0.5-0.3,1.5-0.8c0.9-0.5,2.3-1.3,3.9-2.4
		c1.6-1.1,3.3-2.5,5.1-4.2c1.8-1.8,3.6-4,4.8-7c1.2-3,1.3-6.6,0.4-9.6c-0.9-3.1-2.7-5.8-5-7.7c-1.2-1-2.4-1.7-3.7-2.3
		c-1.3-0.5-2.5-0.8-3.6-1c-2.3-0.4-4.1-0.3-5.5-0.2c-2.1,0.2-4,0.4-5.9,0.6c-1.8,0.2-3.5,0.3-5.1,0.5c-3.3,0.2-6.2,0.4-8.6,0.8
		c-3.1,0.5-5.4,1.5-6.3,3.6c-1.3-0.5-3-0.3-4.6,0.3c-1.6,0.7-3.1,2-4.2,3.4c-1.1,1.4-1.9,3-2.5,4.6c-0.6,1.6-0.9,3.1-1.2,4.6
		c-0.3,1.6-0.5,3.3-0.4,5C401.8,600.9,402.2,602.6,402.7,603.8z M411.8,599.4c0.6-1,1.3-2.1,1.9-3.2c0.7-1.1,1.4-2.1,2-3
		c0.6-0.9,1.1-1.6,1.5-2.1c0.4-0.6,0.5-1,0.6-1.5c0-0.1,0-0.3,0.1-0.5c0.9,0,1.9-0.2,3.1-0.5c2-0.5,4.4-1.3,7.3-2.2
		c1.5-0.4,3-0.9,4.7-1.4c1.7-0.4,3.5-0.9,5.3-1.2c1.9-0.3,3.8-0.5,5.5-0.4c1.7,0.1,3.1,0.6,4.2,1.4c1.2,0.8,2.1,2.1,2.7,3.5
		c0.6,1.4,0.7,2.9,0.4,4.2c-0.5,2.5-3,5.3-5.5,7.3c-2.4,2-4.7,3.3-6.4,4.1c-2.7,1.3-5.2,2.1-7.5,2.7c-2.3,0.5-4.6,0.8-7,0.8
		c-1.2,0-2.4,0-3.8-0.2c-0.7-0.1-1.3-0.1-2-0.3c-0.7-0.1-1.4-0.2-2.1-0.4c-1.3-0.4-2.8-0.9-4-1.7c-1.2-0.8-2.1-1.8-2.4-2.7
		C410.6,601.7,410.8,601.1,411.8,599.4z"></path>
</g>
</svg>
