<!--?xml version="1.0" encoding="utf-8"?-->
<!-- Generator: Adobe Illustrator 22.1.0, SVG Export Plug-In . SVG Version: 6.00 Build 0)  -->
<svg version="1.1" id="_x34_" xmlns="http://www.w3.org/2000/svg" xmlns:xlink="http://www.w3.org/1999/xlink" x="0px" y="0px" viewBox="0 0 800 587.1" style="enable-background:new 0 0 800 587.1;" xml:space="preserve">
<style type="text/css">
	.stblack{fill:#000000;}
	.st0{fill:#FFFFFF;}
</style>
<g>
	<path class="st0" d="M418.3,570.8c-6.6-22.6-6.6-49.2-89.1-43.9c-85,5.5-143.6-21.3-160.9-65.2c-39.9-2.7-54.5-13.3-91.8-49.2
		S38,311.5,63.3,276.9c25.3-34.6,90.4-62.5,86.4-62.5c-4,0,33.2-83.8,99.7-119.7s198.1-6.6,198.1-6.6s18.6-29.3,78.5-42.6
		s135.6,13.3,178.2,59.8c42.6,46.5,45.2,115.7,27.9,139.6c-8,22.6-18.6,27.9-8,35.9c10.6,8,33.2,22.6,46.5,46.5
		c13.3,23.9,16,81.1-17.3,117s-39.9,45.2-65.2,57.2c-25.3,12-70.5,4-82.4,2.7c-12,1.3-10.6-4-25.3,13.3
		c-14.6,17.3-14.6,26.6-51.9,30.6c-37.2,4-57.2,2.7-81.1,2.7C423.7,550.9,418.3,570.8,418.3,570.8z"></path>
	<path class="stblack" d="M418.6,528.7c6.1-1.7,12.3-2.5,18.4-2.8c6.1-0.3,12.2-0.1,18,0c11.7,0.3,23.1-0.3,33.9-1.7c10.8-1.5,20.9-3.9,29.8-7
		c8.9-3.1,16.7-6.9,23-10.9c8-5.1,14.6-10.7,19.1-15.1c4.5-4.4,7.3-7.3,8.2-6.8c0.8,0.5-0.3,4.6-4.1,10.2
		c-3.7,5.6-10.4,12.5-19.1,18.1c-10,6.4-21.2,10.9-32.6,13.9c-11.4,3-23,4.7-34.2,5.4c-5.6,0.4-11.1,0.5-16.5,0.4
		c-5.4-0.1-10.6-0.3-15.5-0.5c-5-0.1-9.7-0.1-14.2,0.3c-4.5,0.4-8.6,1.1-12.4,2.2c-6.5,1.8-12.5,5.4-17.1,10.1
		c-4.6,4.8-7.6,10.9-7.4,17.3l-5.7-1.4c2.6-4.8,3.6-10.4,3-15.9c-0.7-5.5-2.7-11-5.8-15.8c-3.1-4.8-7.1-9.1-11.7-12.4
		c-0.6-0.5-1.2-0.8-1.8-1.2l-1.8-1.1c-1.3-0.7-2.5-1.4-3.9-2c-1.3-0.6-2.6-1.2-4-1.7c-0.7-0.3-1.4-0.5-2.1-0.8l-2.1-0.7
		c-5.6-1.8-11.5-2.7-17.4-3.3c-5.9-0.6-12-0.7-18-0.7c-12.1,0.1-24.4,0.6-36.7,0.6c-8.4,0-17.8,0.1-27.9-0.5
		c-10.1-0.5-20.9-1.5-32-3.6c-11.1-2-22.4-5.3-33.3-10.1c-5.4-2.4-10.7-5.2-15.8-8.2c-5-3.2-9.9-6.6-14.3-10.4
		c-7.8-6.7-13.5-14.3-16.6-20.3c-0.8-1.5-1.4-2.9-1.9-4.1c-0.5-1.3-0.8-2.4-1.1-3.3c-0.5-1.8-0.5-3,0-3.2c0.5-0.2,1.4,0.4,2.6,1.8
		c0.6,0.7,1.3,1.5,2.1,2.5c0.9,1,1.8,2.1,2.8,3.3c4.1,4.9,9.8,11.3,17.1,17.5c5.7,4.9,12.8,9.9,21.1,14.3c4.1,2.3,8.7,4.3,13.4,6.2
		c1.2,0.4,2.4,0.9,3.6,1.4c0.6,0.2,1.2,0.5,1.8,0.7c0.6,0.2,1.2,0.4,1.9,0.6c1.3,0.4,2.5,0.8,3.8,1.2c1.3,0.4,2.6,0.7,3.9,1.1
		c5.2,1.4,10.7,2.7,16.2,3.6c2.8,0.5,5.6,0.9,8.5,1.3c2.9,0.3,5.7,0.7,8.7,1c5.8,0.6,11.7,0.9,17.6,1.1c5.9,0.2,11.9,0.3,17.9,0.2
		c12.2-0.1,24.4-0.6,36.7-0.6c6.2,0,12.4,0.1,18.6,0.8c6.2,0.6,12.5,1.7,18.6,3.6l2.3,0.7c0.8,0.3,1.5,0.6,2.2,0.8
		c1.5,0.5,3,1.2,4.4,1.9c1.5,0.6,2.9,1.5,4.3,2.2l2.1,1.3c0.7,0.4,1.4,0.8,2,1.4c5.3,3.8,9.8,8.6,13.3,14.1
		c3.4,5.5,5.8,11.7,6.6,18.3c0.7,6.6-0.5,13.5-3.8,19.5l-5.1,9.2l-0.2-10.6c-0.1-4.1,0.8-8.1,2.4-11.8c1.6-3.7,3.9-6.9,6.6-9.7
		C404.3,534.8,411.2,530.8,418.6,528.7z"></path>
	<path class="stblack" d="M32.9,261.6c3.7-6.7,8.2-12.9,12.9-18.7c4.8-5.8,9.8-11.1,14.7-16c9.8-9.9,19.8-18,28.7-22.8c5.6-3.1,11.3-4.9,15.5-5.4
		c1.1-0.1,2-0.2,2.9-0.2c0.9,0,1.6,0.1,2.2,0.2c1.2,0.2,1.9,0.5,2,1.1c0.1,0.5-0.4,1.1-1.4,1.8c-0.5,0.3-1.1,0.7-1.8,1.1
		c-0.7,0.4-1.5,0.8-2.4,1.3c-3.5,1.8-8.2,4.1-13.4,6.9c-11.8,6.5-22.7,16.1-32.4,25.6c-9.7,9.5-17.6,19.2-22.4,28.1l-1.7,3.1
		c-0.6,1-1,2.2-1.5,3.2c-0.5,1.1-1,2.1-1.5,3.3l-1.3,3.3c-0.5,1.1-0.8,2.2-1.2,3.4l-1.1,3.4l-0.9,3.5c-0.3,1.2-0.6,2.3-0.8,3.5
		c-1.9,9.3-2.7,19-2,28.5c0.7,9.5,2.5,19,5.6,28.1c3.1,9,7.4,17.7,12.7,25.7c2.8,4.2,6.2,8.7,10.3,13.3c4.1,4.5,8.7,9,13.9,13.3
		c5.1,4.3,10.8,8.3,16.8,11.9c1.5,0.9,3,1.7,4.5,2.6c1.5,0.9,3.1,1.6,4.6,2.4c3.1,1.6,6.2,3,9.3,4.2c5.4,2,10.3,3.2,13.9,3.7
		c3.6,0.6,6.2,0.5,6.5,1.6c0.2,0.5-0.3,1.1-1.3,1.9c-0.5,0.4-1.2,0.7-2,1.1c-0.8,0.3-1.8,0.6-2.9,0.8c-2.2,0.5-4.9,0.6-7.8,0.3
		c-2.9-0.3-6-1.1-9-2.2c-2.4-0.9-4.9-2-7.4-3.3c-1.3-0.6-2.5-1.3-3.8-2c-0.7-0.3-1.3-0.7-2-1.1c-0.7-0.4-1.3-0.8-2-1.2
		c-5.4-3.1-10.9-6.9-16.4-11.3c-11-8.7-21.7-20-30-32.7c-5.5-8.4-10-17.5-13.3-27c-3.3-9.6-5.2-19.5-5.9-29.6
		c-0.7-10.1,0.1-20.2,2.1-30.1c0.2-1.2,0.6-2.5,0.9-3.7l0.9-3.7l1.2-3.6c0.4-1.2,0.8-2.4,1.2-3.6l1.4-3.5c0.4-1.2,1-2.3,1.5-3.5
		c0.5-1.1,1-2.3,1.6-3.4L32.9,261.6z"></path>
	<path class="stblack" d="M271,52.9c11.6-2.6,23.6-4.2,34.6-4.8c11-0.6,21-0.3,28.8,0.7c9.9,1.1,17.4,4.6,16.9,6.6c-0.5,2.1-8.4,2.1-17.8,1
		c-10.8-1.3-22.2-1.7-32.8-1.2c-10.6,0.5-20.5,1.9-28.4,3.5c-7.5,1.6-14.8,3.8-22,6.2c-7.2,2.5-14.2,5.5-21.1,8.9
		c-6.8,3.5-13.4,7.3-19.8,11.5c-6.3,4.3-12.4,8.9-18.2,13.9c-6.1,5.3-13.1,12.3-19.9,20.6c-6.8,8.2-13.3,17.6-18.8,27
		c-4.8,8.2-9.5,14.5-11.5,13.6c-1.9-0.8-0.1-8.9,4.9-17.5c3.9-6.7,9.7-15,16.7-23.4c7.1-8.4,15.6-17,24.6-24.8
		c6-5.2,12.3-9.9,18.8-14.3c6.6-4.4,13.4-8.3,20.4-11.9c7.1-3.5,14.3-6.6,21.8-9.2C255.7,56.7,263.3,54.5,271,52.9z"></path>
	<path class="stblack" d="M699.4,103.7c10.1,17.5,16.9,37.1,19.8,55.6c1.4,9.3,2,18.2,1.7,26.5c-0.3,8.3-1.3,15.8-2.6,22.3
		c-1.7,8.3-4.6,15.5-7.3,20.3c-0.7,1.2-1.3,2.3-1.9,3.2c-0.6,0.9-1.2,1.7-1.8,2.3c-1.1,1.2-1.9,1.7-2.3,1.5s-0.6-1.2-0.4-2.7
		c0.1-0.8,0.3-1.7,0.5-2.7c0.2-1,0.5-2.2,0.8-3.5c1.3-5.1,3.2-12.1,4.9-19.9c3.8-17.9,3.7-37.3,0.1-54.9
		c-3.4-17.6-9.9-33.3-16.7-45.1c-6.4-11.2-14.3-21.4-23.4-30.5c-9.1-9.1-19.3-17.2-30.2-24c-21.9-13.7-46.6-22.8-72.1-27.5
		c-13.4-2.5-30.4-4-48.4-3.2c-9,0.5-18.2,1.6-27.2,3.8c-9,2.2-17.8,5.3-25.7,9.6c-6.9,3.7-12.6,7.9-16.8,11.1
		c-2.1,1.5-3.8,2.9-5.1,3.7c-1.3,0.8-2.2,1.2-2.7,0.8c-0.4-0.3-0.3-1.3,0.4-2.7c0.7-1.5,1.7-3.5,3.6-5.6c3.4-4.5,9.3-9.8,16.9-13.9
		c5.9-3.2,13-6.1,21-8.4c8-2.2,16.9-3.8,26.2-4.5c18.7-1.5,39,0,58.8,3.5c26.1,4.8,51.6,14.1,74.2,28.3
		c11.3,7.1,21.8,15.4,31.3,24.9C684.5,81.4,692.7,92.1,699.4,103.7z"></path>
	<path class="stblack" d="M698.3,462.8c-6.2,4.9-13,9.2-20,12.7c-7,3.5-14.3,6.2-21.4,8c-14.2,3.8-27.6,4.5-37.8,4.4c-13.1-0.2-23.3-3.5-23-5.5
		c0.3-2.2,10.7-2.3,23.2-2.1c14.4,0.3,29.3-1.2,42.5-5.2c6.6-2,12.8-4.6,18.4-7.5c5.5-2.9,10.4-6.2,14.5-9.5
		c7.8-6.2,14.8-13.5,21-21.3c3.2-3.9,6.1-8,9-12.2c2.9-4.2,5.6-8.4,8.3-12.8c1.3-2.2,2.6-4.3,3.9-6.5c1.2-2.2,2.5-4.3,3.6-6.6
		c2.2-4.5,4.2-9,5.8-13.8c3.2-9.4,5.3-19.3,6-29.2c0.1-1.3,0.1-2.7,0.2-4.1c0-0.7,0.1-1.4,0.1-2.1c0-0.7,0-1.4,0-2.2
		c0-1.5,0-2.9-0.1-4.5c-0.1-1.5-0.2-3.1-0.3-4.6c-0.6-6.3-1.6-12.9-3.5-19.6c-0.4-1.7-1-3.3-1.5-5c-0.3-0.8-0.5-1.7-0.8-2.5
		c-0.3-0.8-0.6-1.7-0.9-2.5c-1.2-3.4-2.6-6.6-4.3-9.7c-3.3-6.3-7.4-12.1-12.4-16.8c-4.3-4-8.7-6.9-12.1-8.9
		c-1.7-0.9-3.1-1.8-4.2-2.3c-1-0.7-1.6-1.3-1.5-1.8c0.1-0.5,0.8-0.9,2.1-1.1c1.3-0.3,3.1-0.2,5.4,0.2c4.5,0.8,10.5,3.6,15.5,8.4
		c3.9,3.7,7.8,8.5,11.1,14.2c1.7,2.8,3.2,5.9,4.6,9.1c0.3,0.8,0.7,1.6,1,2.5c0.3,0.8,0.6,1.7,0.9,2.5c0.6,1.7,1.2,3.4,1.7,5.2
		c4.3,14.1,6.1,30.2,5,46c-0.8,10.4-2.9,20.8-6.3,30.7c-1.7,5-3.8,9.8-6.1,14.5c-1.2,2.3-2.5,4.6-3.8,6.9c-1.3,2.2-2.6,4.4-4,6.6
		c-2.7,4.4-5.5,8.7-8.4,13c-2.9,4.3-6,8.5-9.2,12.5C713.8,448.7,706.5,456.3,698.3,462.8z"></path>
</g>
</svg>
