<!--?xml version="1.0" encoding="utf-8"?-->
<!-- Generator: Adobe Illustrator 25.2.3, SVG Export Plug-In . SVG Version: 6.00 Build 0)  -->
<svg version="1.1" id="_x34_" xmlns="http://www.w3.org/2000/svg" xmlns:xlink="http://www.w3.org/1999/xlink" x="0px" y="0px" viewBox="0 0 800 452.44" style="enable-background:new 0 0 800 452.44;" xml:space="preserve">
<style type="text/css">
	.stblack{fill:#000000;}
	.st0{fill:#FFFFFF;}
</style>
<g>
	<polygon class="st0" points="683.932,413.23 776.708,13.927 116.071,13.927 23.296,413.23 	"></polygon>
	<path class="stblack" d="M577.005,404.262l29.861,35.923c0.922,1.111,2.573,1.263,3.683,0.34c1.111-0.923,1.263-2.573,0.34-3.684l-29.861-35.923
		c-0.923-1.112-2.573-1.263-3.683-0.339C576.234,401.502,576.082,403.151,577.005,404.262"></path>
	<path class="stblack" d="M555.342,410.614H26.587l91.56-394.072h655.265l-91.56,394.072H619.73c-1.445,0-2.616,1.171-2.616,2.616
		c0,1.444,1.17,2.616,2.616,2.616h66.278L780,11.311H113.992L20,415.846h535.342c1.444,0,2.615-1.171,2.615-2.615
		C557.957,411.785,556.786,410.615,555.342,410.614L555.342,410.614z"></path>
</g>
</svg>
