<!--?xml version="1.0" encoding="utf-8"?-->
<!-- Generator: Adobe Illustrator 25.2.3, SVG Export Plug-In . SVG Version: 6.00 Build 0)  -->
<svg version="1.1" id="_x34_" xmlns="http://www.w3.org/2000/svg" xmlns:xlink="http://www.w3.org/1999/xlink" x="0px" y="0px" viewBox="0 0 800 530.287" style="enable-background:new 0 0 800 530.287;" xml:space="preserve">
<style type="text/css">
	.st0{fill:#231815;}
	.st1{fill:#FFFFFF;}
</style>
<g>
	<polygon class="st0" points="487.249,306.453 449.233,408.32 473.029,408.32 425.551,517.03 565.869,391.569 536.706,391.569 
		601.118,307.621 	"></polygon>
	<path class="st0" d="M603.048,13.257H196.952C99.224,13.257,20,92.481,20,190.209c0,97.728,79.224,176.952,176.952,176.952h406.096
		c97.728,0,176.953-79.223,176.953-176.952C780,92.481,700.776,13.257,603.048,13.257z"></path>
	<path class="st1" d="M603.048,20.357H196.952c-92.243,0-167.02,74.778-167.02,167.021s74.778,167.02,167.02,167.02h406.096
		c92.243,0,167.021-74.777,167.021-167.02C770.069,95.135,695.29,20.357,603.048,20.357z"></path>
	<polygon class="st1" points="577.875,317.899 517.003,402.974 532.458,402.974 456.763,474.944 487.703,396.765 465.418,395.113 
		494.366,312.732 	"></polygon>
</g>
</svg>
