<!--?xml version="1.0" encoding="utf-8"?-->
<!-- Generator: Adobe Illustrator 25.2.3, SVG Export Plug-In . SVG Version: 6.00 Build 0)  -->
<svg version="1.1" id="_x34_" xmlns="http://www.w3.org/2000/svg" xmlns:xlink="http://www.w3.org/1999/xlink" x="0px" y="0px" viewBox="0 0 800 684.4" style="enable-background:new 0 0 800 684.4;" xml:space="preserve">
<style type="text/css">
	.st0{fill:#FFFFFF;}
	.st1{fill:#020202;}
</style>
<g>
	<path class="st0" d="M321.5,115.8l16.2-88c0,0,73.1,84.5,73.1,81.4c0-3.1,43.8-71.8,43.8-71.8l40.6,54.9l87-64.5l-1.1,92.6
		l170.6-36.6l-58,142.2l76.3,10.6l-76.4,80.9l60.8,11.6l-89.4,46.5l99.9,95.8l-100.9,25.5l-9.4,68.6L575,554.3l12.9,101l-91.3-80.1
		l-57.1,80.5l-38.7-69.3c0,0-132.9,76.3-132.9,73.3c0-3.1,13.6-104.2,13.6-104.2l-138.6,54.7L189.8,496l-77.5,4.1l39.6-75.4
		L29.8,354.3l124.7-68.8L60.2,183.7l122.3,7.1L101.6,50.5L321.5,115.8z"></path>
	<path class="st1" d="M700.6,222.2l59.1-144.9L586,114.5l1.2-96.3l-90.9,67.4L454.5,29l-3.8,5.9c0,0-11,17.2-21.9,34.8
		c-5.5,8.8-11,17.7-15.1,24.6c-1.6,2.7-3.1,5.2-4.2,7.2c-1.3-1.3-2.8-2.9-4.5-4.8c-9.8-10.6-25.7-28.7-39.2-44
		C359.1,45,353,38,348.6,32.9c-2.2-2.5-4-4.6-5.2-6c-1.2-1.4-1.9-2.2-1.9-2.2l-6.5-7.6l-17.1,92.6L91.5,42.5l82.4,143l-125.4-7.3
		l98.2,106.1L20,354.2l125.5,72.3l-41.3,78.8l78.3-4.1l-48.3,117.6L275.6,563c-1.3,9.5-3.5,26.1-5.7,42.9
		c-1.7,12.8-3.4,25.8-4.7,35.7c-0.6,5-1.2,9.2-1.5,12.3c-0.2,1.5-0.3,2.8-0.4,3.7c-0.1,0.5-0.1,0.9-0.1,1.2c0,0.2,0,0.3,0,0.5
		c0,0.2,0,0.3,0,0.5c0,0.7,0.2,1.6,0.6,2.4c0.3,0.6,0.8,1.1,1.3,1.5c0.7,0.5,1.4,0.8,1.9,0.9c0.5,0.1,0.9,0.1,1.2,0.1
		c0.8,0,1.2-0.1,1.5-0.2c0.7-0.2,1.2-0.4,1.8-0.6c1.1-0.5,2.5-1.1,4.3-2c6.5-3.2,17.6-9.2,30.7-16.5c33-18.2,78.7-44.4,92.6-52.3
		l40.1,71.7l58.4-82.4l96.9,85l-13.7-107.4l78.3,11.3l9.7-70.2l106.2-26.9L673.3,377l95.7-49.8l-65.8-12.5l76.8-81.3L700.6,222.2z
		 M740.1,331.4L657,374.6l98.5,94.5l-95.7,24.2l-9.2,67.1l-81.2-11.7l12.1,94.7l-85.8-75.2l-55.8,78.7l-37.4-66.9l-4.2,2.4
		c0,0-2,1.1-5.5,3.1c-12.2,7-43,24.6-71.1,40.4c-14.1,7.9-27.5,15.3-37.7,20.8c-4.1,2.2-7.6,4.1-10.5,5.5c0.5-4.2,1.3-9.9,2.1-16.3
		c2-15.4,4.7-35.3,6.8-51.4c1.1-8,2-15.1,2.7-20.2c0.7-5.1,1.1-8.1,1.1-8.1l1.1-8.1l-135.7,53.6l45.5-110.8l-76.6,4l37.8-72.1
		L39.6,354.4l122.6-67.7l-90.4-97.6l119.3,7L111.8,58.5L325.3,122l1-5.3l14.4-78.2c6.7,7.8,17.8,20.5,29.1,33.2
		c9,10.2,18,20.4,25,28.1c3.5,3.8,6.5,7,8.7,9.3c1.1,1.2,2.1,2.1,2.8,2.8c0.4,0.4,0.7,0.7,1.2,1c0.2,0.2,0.4,0.3,0.8,0.5
		c0.2,0.1,0.4,0.2,0.8,0.4c0.4,0.1,0.8,0.3,1.7,0.3c0.5,0,1.2-0.1,1.8-0.4c1-0.4,2-1.2,2.4-2.2c0.3-0.5,0.4-0.9,0.5-1.3
		c0.1-0.2,0.3-0.7,0.6-1.2c0.8-1.4,2-3.7,3.6-6.4c5.6-9.6,15.4-25.3,23.7-38.5c4.2-6.6,8-12.7,10.8-17c0.3-0.4,0.5-0.8,0.7-1.2
		l39.3,53.1l83.1-61.6l-1.1,89l167.6-35.9L687.1,230l73.2,10.2l-76,80.5L740.1,331.4z"></path>
</g>
</svg>
