<!--?xml version="1.0" encoding="utf-8"?-->
<!-- Generator: Adobe Illustrator 25.2.3, SVG Export Plug-In . SVG Version: 6.00 Build 0)  -->
<svg version="1.1" id="_x34_" xmlns="http://www.w3.org/2000/svg" xmlns:xlink="http://www.w3.org/1999/xlink" x="0px" y="0px" viewBox="0 0 800 194.555" style="enable-background:new 0 0 800 194.555;" xml:space="preserve">
<style type="text/css">
	.st0{fill:#FFFFFF;}
	.st1{fill:#AAA5A5;}
	.st2{fill:#000001;}
</style>
<g>
	<polygon class="st0" points="796.524,18.407 781.281,142.129 403.591,165.64 387.658,191.078 378.652,178.391 371.044,167.667 
		17.397,189.681 3.478,174.758 18.722,51.031 782.61,3.477 	"></polygon>
	<polygon class="st1" points="768.619,127.424 768.505,128.356 395.576,151.571 380.799,178.812 362.962,153.602 4.617,175.909 
		18.536,190.833 372.182,168.818 379.791,179.543 388.796,192.23 404.73,166.792 782.419,143.28 782.434,143.159 	"></polygon>
	<polygon class="st1" points="797.407,21.628 783.749,4.629 768.619,127.424 782.434,143.159 	"></polygon>
	<path class="st2" d="M796.524,18.407l-3.451-0.425l-14.89,120.856L403.374,162.17c-1.114,0.07-2.138,0.679-2.73,1.624
		l-13.168,21.022l-5.989-8.438l-7.608-10.724c-0.7-0.985-1.845-1.534-3.052-1.458L18.819,186.108L7.125,173.571l14.693-119.25
		L781.186,7.049l12.794,13.728L796.524,18.407l-3.451-0.425L796.524,18.407l2.543-2.371l-13.914-14.93
		c-0.712-0.763-1.718-1.165-2.759-1.1L18.505,47.56c-1.667,0.104-3.031,1.389-3.234,3.045L0.027,174.332
		c-0.127,1.023,0.204,2.042,0.908,2.797l13.919,14.924c0.711,0.763,1.717,1.163,2.76,1.099l351.715-21.895l6.488,9.146l9.005,12.688
		c0.672,0.948,1.774,1.496,2.937,1.463c1.162-0.033,2.229-0.645,2.846-1.63l14.986-23.925l375.908-23.4
		c1.675-0.105,3.028-1.379,3.234-3.045l15.243-123.722c0.125-1.023-0.205-2.042-0.907-2.796L796.524,18.407z"></path>
	<polygon class="st2" points="780.021,3.157 765.041,124.734 392.834,147.905 379.365,172.732 363.112,149.755 3.317,172.153 
		3.643,177.359 360.534,155.141 379.949,182.59 396.04,152.931 769.688,129.67 785.198,3.796 780.022,3.158 	"></polygon>
	<polyline class="st2" points="765.811,128.652 779.727,143.579 782.835,140.681 768.919,125.753 	"></polyline>
	<polyline class="st2" points="392.615,151.512 401.768,166.737 405.411,164.548 396.259,149.323 	"></polyline>
</g>
</svg>
