<svg version="1.1" id="Layer_1" xmlns="http://www.w3.org/2000/svg" xmlns:xlink="http://www.w3.org/1999/xlink" x="0px" y="0px"
	 width="100%" viewBox="0 0 2520 3540" enable-background="new 0 0 2520 3540" xml:space="preserve">
<path fill="none" opacity="1.000000" stroke="#000000" stroke-linecap="round" stroke-linejoin="round" stroke-width="7.000000"
	d="
M15.000000,8.000000 
	C10.656363,8.908939 8.359838,11.298824 8.966318,16.004341 
	C9.177620,17.643774 9.000000,19.333334 9.000000,21.000000 
	C9.000000,389.000000 9.000014,757.000000 8.999998,1125.000000 
	C8.999998,1137.982422 9.000004,1137.997681 22.000000,1137.997803 
	C850.666687,1138.000122 1679.333374,1137.999756 2508.000000,1138.007446 
	C2512.445068,1138.007568 2516.938721,1138.435059 2521.000000,1135.246948 
	C2521.000000,760.666687 2521.000000,385.333344 2521.000000,8.000000 
	C1686.001099,8.000000 851.000549,8.000000 16.000000,8.000000 
"/>
<path fill="none" opacity="1.000000" stroke="#000000" stroke-linecap="round" stroke-linejoin="round" stroke-width="8.000000"
	d="
M15.000000,1201.000000 
	C11.328263,1201.328247 9.239883,1203.323242 9.029622,1207.001709 
	C8.877694,1209.659668 9.000000,1212.333374 9.000000,1215.000000 
	C9.000000,1985.000000 9.001538,2755.000000 8.970546,3525.000000 
	C8.970322,3530.565430 8.807059,3536.077881 12.309062,3541.000000 
	C848.333313,3541.000000 1684.666626,3541.000000 2521.000000,3541.000000 
	C2521.000000,2761.666748 2521.000000,1982.333374 2521.000000,1201.000000 
	C1686.001099,1201.000000 851.000549,1201.000000 16.000000,1201.000000 
"/>
</svg>