<svg version="1.1" id="Layer_1" xmlns="http://www.w3.org/2000/svg" xmlns:xlink="http://www.w3.org/1999/xlink" x="0px" y="0px"
	 width="100%" viewBox="0 0 2520 3540" enable-background="new 0 0 2520 3540" xml:space="preserve">
<path fill="none" opacity="1.000000" stroke="#000000" stroke-linecap="round" stroke-linejoin="round" stroke-width="8.000000"
	d="
M15.000000,8.000000 
	C10.656363,8.908939 8.359838,11.298824 8.966318,16.004341 
	C9.177620,17.643774 9.000000,19.333334 9.000000,21.000000 
	C9.000000,350.333344 8.999187,679.666687 9.009146,1009.000000 
	C9.009272,1013.187439 8.627756,1017.416443 10.126348,1022.000000 
	C847.000305,1022.000000 1684.000366,1022.000000 2521.000000,1022.000000 
	C2521.000000,684.000000 2521.000000,347.000000 2521.000000,8.000000 
	C1686.001099,8.000000 851.000549,8.000000 16.000000,8.000000 
"/>
<path fill="none" opacity="1.000000" stroke="#000000" stroke-linecap="round" stroke-linejoin="round" stroke-width="8.000000"
	d="
M15.000000,1089.000000 
	C11.328263,1089.328247 9.239887,1091.323242 9.029622,1095.001709 
	C8.877694,1097.659668 9.000000,1100.333374 9.000000,1103.000000 
	C9.000000,1415.666626 8.999138,1728.333374 9.009151,2041.000000 
	C9.009285,2045.187500 8.627756,2049.416504 9.964374,2053.504639 
	C14.154171,2055.552734 18.622519,2054.985107 23.000000,2054.985352 
	C331.666656,2055.001465 640.333313,2055.000000 949.000000,2055.000000 
	C961.982422,2055.000000 961.997681,2055.000000 961.997803,2042.000000 
	C962.000671,1728.666626 962.000671,1415.333374 961.997803,1102.000000 
	C961.997681,1089.000000 961.982422,1089.000000 949.000000,1089.000000 
	C638.000000,1089.000000 327.000000,1089.000000 16.000000,1089.000000 
"/>
<path fill="none" opacity="1.000000" stroke="#000000" stroke-linecap="round" stroke-linejoin="round" stroke-width="8.000000"
	d="
M1001.000000,1089.000000 
	C997.108337,1090.276001 995.852478,1093.179443 995.987488,1097.000488 
	C996.058105,1098.997925 996.000000,1101.000000 996.000000,1103.000000 
	C996.000000,1415.666626 996.000000,1728.333374 996.000000,2041.000000 
	C996.000000,2055.000000 996.000000,2055.000000 1010.000000,2055.000000 
	C1509.000000,2055.000000 2008.000000,2055.000488 2507.000000,2054.991211 
	C2511.751953,2054.990967 2516.613281,2055.625977 2521.000000,2052.785645 
	C2521.000000,1732.333374 2521.000000,1411.666626 2521.000000,1089.000000 
	C2014.668457,1089.000000 1508.334229,1089.000000 1002.000000,1089.000000 
"/>
<path fill="none" opacity="1.000000" stroke="#000000" stroke-linecap="round" stroke-linejoin="round" stroke-width="8.000000"
	d="
M15.000000,2118.000000 
	C10.656363,2118.908936 8.359821,2121.298828 8.966282,2126.004395 
	C9.177578,2127.643799 9.000000,2129.333252 9.000000,2131.000000 
	C9.000000,2595.666748 9.002500,3060.333252 8.970448,3525.000000 
	C8.970063,3530.565430 8.807059,3536.077881 12.309062,3541.000000 
	C848.333313,3541.000000 1684.666626,3541.000000 2521.000000,3541.000000 
	C2521.000000,3067.333252 2521.000000,2593.666748 2521.000000,2118.000000 
	C1686.001099,2118.000000 851.000549,2118.000000 16.000000,2118.000000 
"/>
</svg>