<svg version="1.1" id="Layer_1" xmlns="http://www.w3.org/2000/svg" xmlns:xlink="http://www.w3.org/1999/xlink" x="0px" y="0px"
	 width="100%" viewBox="0 0 2520 3540" enable-background="new 0 0 2520 3540" xml:space="preserve">
<path fill="none" opacity="1.000000" stroke="#000000" stroke-linecap="round" stroke-linejoin="round" stroke-width="5.000000"
	d="
M2481.000000,2320.000000 
	C2460.737305,2320.081055 2440.977539,2324.546387 2421.016357,2327.126953 
	C2364.306641,2334.458252 2307.729492,2342.774658 2251.021973,2350.167969 
	C2190.258057,2358.090088 2129.715332,2367.691895 2068.987061,2375.904297 
	C2001.294556,2385.058350 1933.645508,2394.515625 1865.975586,2403.822510 
	C1793.308105,2413.816895 1720.647217,2423.858887 1647.979858,2433.853516 
	C1570.642090,2444.490234 1493.304199,2455.120117 1415.975220,2465.820557 
	C1343.316528,2475.874268 1270.645630,2485.848389 1197.976685,2495.830566 
	C1125.307373,2505.812500 1052.647217,2515.858887 979.979858,2525.853760 
	C902.642212,2536.490723 825.302979,2547.110596 747.975464,2557.822998 
	C675.318604,2567.888672 602.647278,2577.860840 529.977173,2587.833740 
	C452.636078,2598.447754 375.313141,2609.189453 297.974579,2619.814941 
	C225.305542,2629.799072 152.588959,2639.426758 79.973282,2649.813232 
	C65.651253,2651.861816 51.312935,2653.853760 36.500000,2655.641113 
	C36.500000,2935.666748 36.500000,3215.333252 36.500000,3495.500000 
	C852.333313,3495.500000 1667.666626,3495.500000 2482.796387,3495.500000 
	C2484.619141,3491.795166 2483.974609,3488.346191 2483.974854,3485.000000 
	C2484.001709,3100.333252 2483.990479,2715.666748 2484.110107,2331.000000 
	C2484.111572,2326.246094 2482.577881,2321.720703 2483.000000,2317.000000 
"/>
<path fill="none" opacity="1.000000" stroke="#000000" stroke-linecap="round" stroke-linejoin="round" stroke-width="5.000000"
	d="
M40.000000,40.000000 
	C37.227295,40.515171 35.842102,42.107506 35.985104,45.000736 
	C36.067280,46.663342 36.000000,48.333332 36.000000,50.000000 
	C36.000000,337.666656 36.000000,625.333313 36.000000,913.000000 
	C36.000000,914.669861 36.000000,916.339722 36.000000,918.248413 
	C56.750637,923.513000 77.437492,926.961548 97.999542,931.002319 
	C157.334137,942.662537 216.696350,954.184814 275.993988,966.030029 
	C410.679718,992.934570 545.310913,1020.112305 680.007568,1046.962036 
	C776.302002,1066.156982 872.686279,1084.901245 968.994446,1104.028076 
	C1064.019897,1122.900024 1158.980103,1142.099976 1254.005615,1160.971924 
	C1350.313721,1180.098633 1446.687012,1198.897583 1542.994385,1218.028320 
	C1641.353271,1237.566528 1739.582886,1257.764893 1838.024292,1276.874878 
	C1930.758667,1294.877075 2023.313843,1313.765015 2116.003662,1331.981567 
	C2214.402832,1351.320190 2312.763184,1370.846680 2411.047607,1390.765259 
	C2432.616699,1395.136475 2454.230957,1399.525635 2475.960205,1403.233154 
	C2482.338379,1404.321655 2484.337158,1403.033691 2484.013428,1396.999268 
	C2483.924316,1395.337402 2484.000000,1393.666626 2484.000000,1392.000000 
	C2484.000000,945.333313 2484.001953,498.666656 2483.972168,52.000000 
	C2483.971924,48.323566 2484.670166,44.545147 2482.581787,40.000000 
	C1669.000244,40.000000 855.000122,40.000000 41.000000,40.000000 
"/>
<path fill="none" opacity="1.000000" stroke="#000000" stroke-linecap="round" stroke-linejoin="round" stroke-width="5.000000"
	d="
M40.000000,960.000000 
	C37.689865,960.356506 36.198830,961.679199 36.041592,964.002808 
	C35.861958,966.657349 36.000000,969.333313 36.000000,972.000000 
	C36.000000,1515.333374 35.998688,2058.666748 36.028008,2602.000000 
	C36.028206,2605.676514 35.329941,2609.454834 36.974495,2613.034180 
	C46.127728,2616.115234 55.244846,2612.991455 63.952515,2611.683838 
	C121.209114,2603.087158 178.690567,2596.147705 235.973007,2587.814453 
	C277.304810,2581.801758 318.727905,2576.456299 360.034180,2570.226807 
	C410.557220,2562.607666 461.362335,2556.878174 511.990936,2549.934082 
	C553.368896,2544.259033 594.631226,2537.741943 636.009033,2532.066162 
	C686.637634,2525.121826 737.362305,2518.877930 787.990967,2511.934082 
	C829.368774,2506.258545 870.631165,2499.741211 912.009033,2494.065918 
	C962.637695,2487.121826 1013.421875,2481.267334 1063.972290,2473.812256 
	C1105.294067,2467.717773 1146.718018,2462.377930 1188.032837,2456.220703 
	C1243.233154,2447.993896 1298.744019,2441.865234 1353.974487,2433.825439 
	C1395.305786,2427.808350 1436.671509,2421.930420 1478.048462,2416.360352 
	C1528.690796,2409.542969 1579.330688,2402.616943 1629.963013,2395.728271 
	C1671.338013,2390.099121 1712.672363,2383.940674 1754.048340,2378.358643 
	C1804.688354,2371.527100 1855.271484,2364.218994 1905.979858,2357.839600 
	C1947.412231,2352.627197 1988.576538,2345.264893 2030.022949,2340.187744 
	C2080.756592,2333.973633 2131.279785,2326.276611 2181.980713,2319.848145 
	C2223.408691,2314.594971 2264.631348,2307.741455 2306.009033,2302.065918 
	C2356.637695,2295.121582 2407.310059,2288.482422 2458.009766,2282.076660 
	C2483.954590,2278.798340 2484.000000,2279.158203 2484.000000,2253.000000 
	C2484.000000,1987.333374 2483.968506,1721.666626 2484.155029,1456.000122 
	C2484.160400,1448.195801 2482.550293,1445.348022 2474.060303,1443.691528 
	C2372.300293,1423.835571 2270.686523,1403.233398 2168.994385,1383.028809 
	C2072.687744,1363.894409 1976.308838,1345.123291 1880.006958,1325.965088 
	C1785.308472,1307.125488 1690.691528,1287.874512 1595.993042,1269.034912 
	C1499.691162,1249.876709 1403.313721,1231.098755 1307.005615,1211.971924 
	C1211.980103,1193.099976 1117.019897,1173.900024 1021.994446,1155.028076 
	C925.686279,1135.901367 829.312988,1117.102417 733.005615,1097.971680 
	C634.646790,1078.433472 536.398621,1058.332642 437.981171,1039.096313 
	C344.244019,1020.774780 250.558929,1002.212036 156.981552,983.090271 
	C118.426270,975.211853 79.666664,968.333374 40.999996,961.000000 
"/>
</svg>