<svg version="1.1" id="Layer_1" xmlns="http://www.w3.org/2000/svg" xmlns:xlink="http://www.w3.org/1999/xlink" x="0px" y="0px"
	 width="100%" viewBox="0 0 2520 3540" enable-background="new 0 0 2520 3540" xml:space="preserve">
<path fill="none" opacity="1.000000" stroke="#000000" stroke-linecap="round" stroke-linejoin="round" stroke-width="7.000000"
	d="
M11.000000,2165.000000 
	C23.621853,2167.558350 35.838238,2163.416992 47.947273,2161.640625 
	C103.593002,2153.478027 159.338501,2146.015137 214.966293,2137.772461 
	C254.647491,2131.892578 294.352661,2126.057373 334.056488,2120.396240 
	C364.651703,2116.033447 395.270844,2111.563477 425.975006,2107.796143 
	C456.422546,2104.060547 486.566071,2097.826660 517.021484,2094.179443 
	C575.828979,2087.136963 634.270020,2077.556396 692.974731,2069.808594 
	C746.760315,2062.709717 800.239685,2053.289795 854.026489,2046.200684 
	C907.405945,2039.165039 960.595032,2030.826538 1013.988708,2023.912964 
	C1049.048340,2019.373169 1083.997559,2013.982666 1119.000854,2009.005981 
	C1144.996704,2005.309814 1171.077881,2002.137451 1196.975464,1997.851929 
	C1217.958374,1994.379761 1239.038330,1991.426025 1260.060181,1988.420532 
	C1280.988159,1985.428589 1301.972534,1982.461182 1322.979370,1979.834595 
	C1352.394653,1976.156738 1381.646484,1971.191284 1411.004883,1967.034302 
	C1451.985596,1961.231445 1493.008667,1955.728027 1533.997314,1949.981201 
	C1569.010132,1945.072021 1604.000000,1940.000122 1639.000000,1935.000122 
	C1683.333374,1928.666748 1727.728271,1922.730957 1771.980469,1915.873901 
	C1807.295288,1910.401611 1842.718506,1905.701538 1878.034058,1900.219727 
	C1922.559326,1893.308472 1967.363281,1888.212524 2011.989624,1881.926147 
	C2042.377319,1877.645508 2072.620850,1872.339844 2103.009766,1868.069580 
	C2161.643066,1859.830566 2220.367676,1852.242554 2278.989990,1843.928589 
	C2333.037354,1836.263306 2386.959961,1827.715332 2441.018555,1820.132080 
	C2464.687500,1816.811768 2488.368408,1813.583862 2512.032227,1810.226440 
	C2515.212402,1809.775269 2517.791748,1807.729614 2521.000000,1807.964355 
	C2521.000000,1208.666626 2521.000000,609.333313 2521.000000,10.753098 
	C2516.938721,7.564970 2512.445068,7.992483 2508.000000,7.992524 
	C1679.333374,8.000284 850.666687,7.999758 22.000000,8.002192 
	C8.999993,8.002230 9.000003,8.017581 9.000002,21.000000 
	C8.999971,725.000000 8.997659,1429.000000 9.020791,2133.000000 
	C9.021163,2144.333252 9.333334,2155.666748 9.500001,2167.000000 
"/>
<path fill="none" opacity="1.000000" stroke="#000000" stroke-linecap="round" stroke-linejoin="round" stroke-width="7.000000"
	d="
M2520.000000,1877.000000 
	C2506.671875,1875.133545 2493.956787,1879.300903 2481.004395,1881.033813 
	C2439.325684,1886.609741 2397.594971,1891.860718 2356.025879,1898.171265 
	C2329.692383,1902.169067 2303.340576,1906.319336 2276.955078,1909.644287 
	C2231.902588,1915.321533 2187.110352,1922.766724 2142.022217,1928.185669 
	C2102.249023,1932.965576 2062.669434,1939.351562 2022.999268,1944.994873 
	C1983.002563,1950.684692 1942.955078,1956.037354 1903.015869,1962.104736 
	C1876.682739,1966.105225 1850.322998,1970.088501 1823.951172,1973.637207 
	C1793.957886,1977.673218 1764.017822,1982.131958 1734.002808,1986.021851 
	C1714.321167,1988.572632 1694.665283,1991.323242 1675.001221,1994.009033 
	C1671.567749,1994.478149 1669.852905,1996.448730 1669.983887,2000.000610 
	C1670.069824,2002.330811 1670.000000,2004.666626 1670.000000,2007.000000 
	C1670.000000,2512.333252 1670.000366,3017.666748 1669.995728,3523.000000 
	C1669.995605,3529.172363 1669.319336,3535.446777 1673.758057,3541.000000 
	C1955.666626,3541.000000 2238.333252,3541.000000 2521.000000,3541.000000 
	C2521.000000,2989.000000 2521.000977,2437.000000 2520.979248,1885.000000 
	C2520.979248,1881.333374 2520.666748,1877.666626 2520.500000,1874.000000 
"/>
<path fill="none" opacity="1.000000" stroke="#000000" stroke-linecap="round" stroke-linejoin="round" stroke-width="8.000000"
	d="
M1625.000000,2002.000000 
	C1603.000000,2005.333252 1581.011475,2008.744263 1558.997192,2011.981079 
	C1529.008423,2016.390381 1499.013184,2020.760254 1468.996826,2024.977173 
	C1428.009644,2030.735229 1386.991333,2036.271851 1346.002686,2042.018921 
	C1310.989868,2046.928223 1276.000000,2052.000000 1241.000000,2057.000000 
	C1196.666626,2063.333252 1152.333374,2069.666748 1108.000000,2076.000244 
	C1073.000000,2081.000000 1038.000000,2085.999756 1003.000061,2091.000000 
	C958.666748,2097.333740 914.333374,2103.666748 870.000000,2110.000244 
	C839.666687,2114.333496 809.335938,2118.684814 778.999207,2122.994385 
	C753.002991,2126.687500 726.922058,2129.862305 701.024475,2134.147949 
	C680.041626,2137.620117 658.961792,2140.573975 637.939880,2143.579834 
	C617.011902,2146.571777 595.978760,2149.281250 575.037720,2152.264893 
	C554.003906,2155.261719 532.972778,2158.706055 511.946075,2161.609375 
	C482.297119,2165.703613 452.640015,2169.805420 423.002197,2174.015381 
	C392.992096,2178.277832 363.013123,2182.760010 332.996765,2186.977051 
	C292.009613,2192.735107 250.991348,2198.271484 210.002609,2204.018555 
	C174.989868,2208.927734 139.989517,2213.927979 105.003235,2219.022217 
	C75.987381,2223.246826 47.039204,2227.964844 17.971788,2231.785400 
	C10.891300,2232.715820 8.201517,2235.233398 8.984176,2242.001709 
	C9.098283,2242.988525 9.000000,2244.000000 9.000000,2245.000000 
	C9.000000,2671.666748 9.002706,3098.333252 8.970427,3525.000000 
	C8.970005,3530.565430 8.807059,3536.077881 12.309062,3541.000000 
	C553.333313,3541.000000 1094.666626,3541.000000 1635.788818,3541.000000 
	C1638.727783,3536.345459 1639.047607,3531.273193 1639.046021,3526.000000 
	C1638.991333,3333.000000 1639.867188,3139.995117 1638.785278,2947.001221 
	C1637.363281,2693.332275 1639.010620,2439.664307 1637.719849,2186.001465 
	C1637.424683,2128.002441 1637.572021,2069.998535 1636.995117,2012.000000 
	C1636.963257,2008.805298 1637.458984,2005.548218 1635.106323,2002.000000 
	C1632.672607,2002.000000 1629.336304,2002.000000 1626.000000,2002.000000 
"/>
</svg>