<svg version="1.1" id="Layer_1" xmlns="http://www.w3.org/2000/svg" xmlns:xlink="http://www.w3.org/1999/xlink" x="0px" y="0px"
	 width="100%" viewBox="0 0 2504 3638" enable-background="new 0 0 2504 3638" xml:space="preserve">
<path fill="none" opacity="1.000000" stroke="#000000" stroke-linecap="round" stroke-linejoin="round" stroke-width="7.000000"
	d="
M739.000000,74.000000 
	C732.365967,75.139023 732.967224,80.123367 732.971497,85.000023 
	C733.017212,137.333313 733.000000,189.666672 733.000000,242.000000 
	C733.000000,264.666656 733.281860,287.338776 732.845398,309.997009 
	C732.694946,317.805298 735.694397,320.620575 743.001282,320.015594 
	C744.325500,319.906006 745.666687,320.000000 747.000000,320.000000 
	C1110.333374,320.000000 1473.666626,320.000000 1837.000000,320.000000 
	C1850.000000,320.000000 1850.000000,320.000000 1850.000000,307.000000 
	C1850.000000,233.333328 1850.002197,159.666672 1849.997925,86.000000 
	C1849.997192,74.016182 1849.983765,74.002129 1838.000000,74.002045 
	C1472.000000,73.999542 1106.000000,74.000000 740.000000,74.000000 
"/>
<path fill="none" opacity="1.000000" stroke="#000000" stroke-linecap="round" stroke-linejoin="round" stroke-width="8.000000"
	d="
M739.000000,387.000000 
	C735.328247,387.328278 733.239868,389.323212 733.029602,393.001678 
	C732.877686,395.659668 733.000000,398.333344 733.000000,401.000000 
	C733.000000,639.666687 732.998840,878.333313 733.009155,1117.000000 
	C733.009338,1121.187500 732.627747,1125.416504 733.964355,1129.504639 
	C738.154175,1131.552734 742.622498,1130.985229 747.000000,1130.985474 
	C1110.333374,1131.001343 1473.666626,1131.000000 1837.000000,1131.000000 
	C1849.982422,1131.000000 1849.997559,1131.000000 1849.997681,1118.000000 
	C1850.000854,878.666687 1850.000732,639.333313 1849.997681,400.000000 
	C1849.997559,387.000000 1849.982422,387.000000 1837.000000,387.000000 
	C1471.333374,387.000000 1105.666626,387.000000 740.000000,387.000000 
"/>
<path fill="none" opacity="1.000000" stroke="#000000" stroke-linecap="round" stroke-linejoin="round" stroke-width="7.000000"
	d="
M739.000000,1198.000000 
	C734.656372,1198.908936 732.359802,1201.298828 732.966248,1206.004395 
	C733.177551,1207.643799 733.000000,1209.333374 733.000000,1211.000000 
	C733.000000,1450.333374 733.000000,1689.666626 733.000000,1929.000000 
	C733.000000,1941.982422 733.000000,1941.997681 746.000000,1941.997681 
	C1110.000000,1942.000488 1474.000000,1942.000610 1838.000000,1941.998047 
	C1849.983765,1941.997925 1849.997925,1941.983765 1849.998047,1930.000000 
	C1850.000854,1690.000000 1850.000732,1450.000000 1849.997925,1210.000000 
	C1849.997803,1198.016235 1849.983765,1198.002197 1838.000000,1198.002075 
	C1472.000000,1197.999634 1106.000000,1198.000000 740.000000,1198.000000 
"/>
<path fill="none" opacity="1.000000" stroke="#000000" stroke-linecap="round" stroke-linejoin="round" stroke-width="8.000000"
	d="
M739.000000,2009.000000 
	C735.328247,2009.328247 733.239868,2011.323242 733.029602,2015.001709 
	C732.877686,2017.659668 733.000000,2020.333374 733.000000,2023.000000 
	C733.000000,2263.666748 733.000000,2504.333252 733.000000,2745.000000 
	C733.000000,2757.982422 733.000000,2757.997803 746.000000,2757.997803 
	C1110.000000,2758.000732 1474.000000,2758.000732 1838.000000,2757.998047 
	C1849.983765,2757.998047 1849.997925,2757.983887 1849.998047,2746.000000 
	C1850.000854,2504.666748 1850.000854,2263.333252 1849.997803,2022.000000 
	C1849.997559,2009.000000 1849.982422,2009.000000 1837.000000,2009.000000 
	C1471.333374,2009.000000 1105.666626,2009.000000 740.000000,2009.000000 
"/>
<path fill="none" opacity="1.000000" stroke="#000000" stroke-linecap="round" stroke-linejoin="round" stroke-width="8.000000"
	d="
M739.000000,2826.000000 
	C734.656372,2826.908936 732.359802,2829.298828 732.966309,2834.004395 
	C733.177612,2835.643799 733.000000,2837.333252 733.000000,2839.000000 
	C733.000000,3077.666748 732.998840,3316.333252 733.009155,3555.000000 
	C733.009338,3559.187500 732.627747,3563.416504 733.964355,3567.504639 
	C738.154175,3569.552734 742.622498,3568.985352 747.000000,3568.985352 
	C1110.333374,3569.001221 1473.666626,3569.000000 1837.000000,3569.000000 
	C1849.982422,3569.000000 1849.997559,3569.000000 1849.997681,3556.000000 
	C1850.000732,3316.666748 1850.000732,3077.333252 1849.998047,2838.000000 
	C1849.997803,2826.016113 1849.983765,2826.002197 1838.000000,2826.001953 
	C1472.000000,2825.999512 1106.000000,2826.000000 740.000000,2826.000000 
"/>
</svg>