<svg version="1.1" id="Layer_1" xmlns="http://www.w3.org/2000/svg" xmlns:xlink="http://www.w3.org/1999/xlink" x="0px" y="0px"
	 width="100%" viewBox="0 0 2500 3536" enable-background="new 0 0 2500 3536" xml:space="preserve">
<path fill="none" opacity="1.000000" stroke="#000000" stroke-linecap="round" stroke-linejoin="round" stroke-width="7.000000"
	d="
M15.000000,8.000000 
	C10.656363,8.908939 8.359838,11.298824 8.966318,16.004341 
	C9.177620,17.643774 9.000000,19.333334 9.000000,21.000000 
	C9.000000,233.000000 9.000009,445.000000 8.999999,657.000000 
	C8.999998,669.982422 9.000004,669.997803 22.000000,669.997864 
	C844.000000,670.000305 1666.000000,669.999695 2488.000000,670.007446 
	C2492.445068,670.007507 2496.938721,670.435059 2501.000000,667.246887 
	C2501.000000,448.666656 2501.000000,229.333328 2501.000000,8.000000 
	C1672.667725,8.000000 844.333862,8.000000 16.000000,8.000000 
"/>
<path fill="none" opacity="1.000000" stroke="#000000" stroke-linecap="round" stroke-linejoin="round" stroke-width="8.000000"
	d="
M15.000000,691.000000 
	C11.328263,691.328247 9.239887,693.323181 9.029626,697.001709 
	C8.877694,699.659668 9.000000,702.333313 9.000000,705.000000 
	C9.000000,1195.666626 8.999433,1686.333374 9.009121,2177.000000 
	C9.009204,2181.187500 8.627756,2185.416504 9.964374,2189.504639 
	C14.154171,2191.552734 18.622517,2190.985107 23.000002,2190.985352 
	C274.333344,2191.001953 525.666687,2191.000000 777.000000,2191.000000 
	C789.982422,2191.000000 789.997742,2191.000000 789.997803,2178.000000 
	C790.000427,1686.666626 790.000427,1195.333374 789.997803,704.000000 
	C789.997742,691.000000 789.982422,691.000000 777.000000,691.000000 
	C523.333313,691.000000 269.666656,691.000000 16.000000,691.000000 
"/>
<path fill="none" opacity="1.000000" stroke="#000000" stroke-linecap="round" stroke-linejoin="round" stroke-width="8.000000"
	d="
M815.000000,691.000000 
	C811.108337,692.276062 809.852478,695.179443 809.987488,699.000427 
	C810.058105,700.997925 810.000000,703.000000 810.000000,705.000000 
	C810.000000,1195.666626 810.000000,1686.333374 810.000000,2177.000000 
	C810.000000,2191.000000 810.000000,2191.000000 824.000000,2191.000000 
	C1378.333374,2191.000000 1932.666626,2191.000244 2487.000000,2190.990967 
	C2491.751953,2190.990967 2496.613281,2191.625977 2501.000000,2188.785645 
	C2501.000000,1690.333374 2501.000000,1191.666626 2501.000000,691.000000 
	C1939.334961,691.000000 1377.667480,691.000000 816.000000,691.000000 
"/>
<path fill="none" opacity="1.000000" stroke="#000000" stroke-linecap="round" stroke-linejoin="round" stroke-width="8.000000"
	d="
M15.000000,2211.000000 
	C11.328263,2211.328369 9.239876,2213.323242 9.029622,2217.001709 
	C8.877687,2219.659668 9.000000,2222.333252 9.000000,2225.000000 
	C9.000000,2657.000000 9.002697,3089.000000 8.970427,3521.000000 
	C8.970011,3526.565430 8.807059,3532.077881 12.309062,3537.000000 
	C841.666687,3537.000000 1671.333374,3537.000000 2501.000000,3537.000000 
	C2501.000000,3095.666748 2501.000000,2654.333252 2501.000000,2211.000000 
	C1672.667725,2211.000000 844.333862,2211.000000 16.000000,2211.000000 
"/>
</svg>