<svg version="1.1" id="Layer_1" xmlns="http://www.w3.org/2000/svg" xmlns:xlink="http://www.w3.org/1999/xlink" x="0px" y="0px"
	 width="100%" viewBox="0 0 2500 3536" enable-background="new 0 0 2500 3536" xml:space="preserve">
<path fill="none" opacity="1.000000" stroke="#000000" stroke-linecap="round" stroke-linejoin="round" stroke-width="7.000000"
	d="
M1431.000000,1371.000000 
	C1421.869263,1367.802856 1412.875366,1371.259277 1404.027466,1372.246216 
	C1357.968506,1377.384521 1312.008667,1383.405273 1265.997437,1388.978882 
	C1224.007935,1394.065186 1182.010010,1399.117432 1140.036865,1404.298828 
	C1110.012939,1408.005371 1079.967896,1411.865601 1049.948364,1415.583008 
	C1019.686951,1419.330444 989.361816,1422.910034 959.010864,1426.103149 
	C928.628113,1429.299805 898.334656,1433.344238 867.999695,1436.997559 
	C815.334167,1443.339966 762.604858,1449.200928 710.023926,1456.180176 
	C680.022156,1460.162476 649.983032,1464.054077 619.950439,1467.577637 
	C589.655640,1471.131836 559.391724,1475.145630 529.014404,1478.145752 
	C498.615448,1481.148193 468.324707,1485.263428 438.002106,1489.016968 
	C396.025116,1494.212891 354.009796,1499.099243 312.025146,1504.206787 
	C265.688751,1509.843628 219.377533,1515.687378 173.004868,1521.042236 
	C137.313721,1525.163574 101.667587,1529.674316 65.999603,1533.996704 
	C49.335289,1536.016113 32.670422,1538.032104 15.997622,1539.979614 
	C11.131502,1540.547974 8.311770,1542.637695 8.968800,1548.003784 
	C9.169844,1549.645874 9.000000,1551.333374 9.000000,1553.000000 
	C9.000000,2209.000000 9.001773,2865.000000 8.970521,3521.000000 
	C8.970256,3526.565430 8.807059,3532.077881 12.309062,3537.000000 
	C390.000000,3537.000000 768.000000,3537.000000 1146.000000,3537.000000 
	C1156.024414,3537.000000 1158.926758,3533.896484 1160.078003,3524.009033 
	C1162.837036,3500.314209 1166.032593,3476.670898 1168.991211,3452.998779 
	C1172.031616,3428.670654 1174.936890,3404.325195 1178.018311,3380.002197 
	C1180.933228,3356.991455 1184.054810,3334.007080 1186.983032,3310.997803 
	C1189.399658,3292.008545 1191.584717,3272.989502 1194.021240,3254.002686 
	C1196.931396,3231.324463 1200.096436,3208.678955 1202.975952,3185.996826 
	C1206.740356,3156.342529 1210.238647,3126.654541 1214.027588,3097.003418 
	C1217.565308,3069.320312 1221.435059,3041.679688 1224.972534,3013.996582 
	C1228.761353,2984.345459 1231.859619,2954.597900 1236.149780,2925.021729 
	C1239.581299,2901.365723 1242.192505,2877.604004 1245.596558,2853.941895 
	C1248.793701,2831.718018 1251.225342,2809.320801 1253.965820,2786.995850 
	C1256.786865,2764.014648 1258.783569,2740.919678 1262.134033,2718.019531 
	C1266.709106,2686.749756 1269.927979,2655.319336 1274.166748,2624.022705 
	C1278.678711,2590.708496 1282.919434,2557.367432 1287.061401,2524.007568 
	C1290.703735,2494.671387 1294.108521,2465.283447 1298.307373,2436.044189 
	C1303.139893,2402.393799 1307.226074,2368.635986 1311.558960,2334.943359 
	C1315.965210,2300.681396 1320.569214,2266.406738 1324.197876,2232.020996 
	C1327.233643,2203.252441 1332.790771,2174.750244 1335.829956,2145.981934 
	C1341.583130,2091.526611 1349.638794,2037.371826 1356.196899,1983.023804 
	C1359.702148,1953.974731 1363.961060,1924.976440 1367.611938,1895.951172 
	C1371.923950,1861.669556 1375.996582,1827.328003 1380.224854,1793.027710 
	C1383.760010,1764.349243 1387.521973,1735.691528 1391.033936,1707.004150 
	C1394.545776,1678.318604 1398.279663,1649.659668 1402.017334,1621.002197 
	C1404.931396,1598.657715 1408.117920,1576.348389 1410.970825,1553.996338 
	C1414.755493,1524.344727 1417.859619,1494.597900 1422.149902,1465.021729 
	C1425.581421,1441.365723 1427.392822,1417.510742 1431.647583,1393.936401 
	C1432.957397,1386.679321 1434.731079,1378.666626 1432.000000,1371.000000 
"/>
<path fill="none" opacity="1.000000" stroke="#000000" stroke-linecap="round" stroke-linejoin="round" stroke-width="7.000000"
	d="
M11.000000,1518.000000 
	C24.201103,1521.254883 37.148182,1517.248901 49.962784,1515.693359 
	C93.962036,1510.352661 138.010666,1505.368286 181.964157,1499.721069 
	C217.309128,1495.179932 252.702606,1490.883179 288.051727,1486.408691 
	C318.297699,1482.580322 348.638214,1479.090088 378.989136,1475.896729 
	C409.371918,1472.700195 439.682098,1468.789307 469.996582,1464.972656 
	C522.628540,1458.346069 575.312683,1452.161133 627.978577,1445.822144 
	C663.319519,1441.568359 698.651245,1437.210815 733.993713,1432.947632 
	C770.650513,1428.526001 807.311951,1424.147705 843.974854,1419.788330 
	C879.650085,1415.546387 915.269470,1410.821777 950.992554,1406.931519 
	C964.675232,1405.441528 978.247009,1403.007446 991.996826,1401.958374 
	C1002.870911,1401.128662 1006.649475,1398.072876 1007.967102,1388.995239 
	C1015.368469,1338.005127 1022.452332,1286.967896 1030.070801,1236.010620 
	C1035.710327,1198.290039 1042.263794,1160.706177 1047.921265,1122.988159 
	C1052.962524,1089.377808 1056.653076,1055.553467 1062.229004,1022.038147 
	C1066.221924,998.037292 1069.979004,973.969116 1073.578369,949.936829 
	C1077.814331,921.652283 1081.891968,893.316223 1086.078613,865.011597 
	C1090.472656,835.305359 1095.122925,805.627930 1099.644775,775.945862 
	C1103.340088,751.688965 1107.044067,727.389832 1110.134155,703.017029 
	C1113.186890,678.939148 1117.373535,655.006042 1120.987793,630.998169 
	C1124.047363,610.673828 1126.933960,590.323303 1130.017212,570.002625 
	C1133.609863,546.324707 1137.412354,522.678528 1140.979980,498.997009 
	C1145.397095,469.676270 1149.489502,440.305695 1154.054199,411.008453 
	C1157.951904,385.993164 1161.866089,360.965271 1165.630615,335.944427 
	C1169.885864,307.661987 1173.787964,279.301331 1178.057983,251.008759 
	C1182.539429,221.314606 1187.232544,191.637268 1191.608154,161.942261 
	C1195.778076,133.644150 1199.968750,105.328613 1204.041138,77.005920 
	C1206.825562,57.641582 1210.060913,38.342491 1212.970947,18.995630 
	C1214.187134,10.910119 1211.643555,8.245722 1202.999878,8.005180 
	C1201.667480,7.968105 1200.333374,8.000000 1199.000000,8.000000 
	C807.000000,8.000000 415.000000,8.000000 23.000000,8.000002 
	C8.999993,8.000002 9.000002,8.000011 9.000001,22.000000 
	C8.999979,516.333313 9.011456,1010.666687 8.871993,1505.000000 
	C8.870214,1511.307861 12.246773,1518.313232 6.500000,1524.000000 
"/>
<path fill="none" opacity="1.000000" stroke="#000000" stroke-linecap="round" stroke-linejoin="round" stroke-width="7.000000"
	d="
M1239.000000,8.000000 
	C1235.575562,8.535175 1234.400879,10.535089 1233.908569,13.986950 
	C1228.722900,50.341351 1223.804199,86.744247 1217.835083,122.972832 
	C1213.825928,147.304977 1210.164795,171.707642 1206.401855,196.062088 
	C1202.755737,219.659378 1199.370850,243.339188 1195.952637,266.993164 
	C1192.911865,288.036377 1189.207764,309.014526 1186.374146,330.050385 
	C1183.051025,354.719116 1179.394897,379.359772 1175.692993,403.953766 
	C1171.371826,432.660583 1167.139282,461.406067 1162.373169,490.062073 
	C1158.511963,513.276855 1155.510376,536.692139 1151.992798,559.998901 
	C1148.165405,585.359314 1144.099609,610.697205 1140.368286,636.054199 
	C1136.204102,664.354797 1132.090576,692.681274 1127.918823,720.988037 
	C1123.540527,750.696472 1118.897827,780.375000 1114.356445,810.054504 
	C1110.080688,837.998291 1106.079346,866.011292 1102.007080,894.001038 
	C1097.880005,922.366150 1093.710815,950.720520 1089.124878,979.020264 
	C1084.872925,1005.258728 1082.371704,1031.790039 1077.792603,1057.963745 
	C1073.598022,1081.939331 1070.249390,1106.050171 1066.395386,1130.063477 
	C1062.612793,1153.631226 1059.492920,1177.356323 1055.982178,1200.997314 
	C1051.723511,1229.675049 1047.192017,1258.312866 1043.037354,1287.005371 
	C1038.301147,1319.713745 1033.778442,1352.451294 1028.084351,1385.014771 
	C1027.460815,1388.579956 1028.000000,1392.348511 1028.000000,1397.210693 
	C1519.469727,1337.795410 2010.302490,1278.457031 2501.000000,1219.135010 
	C2501.000000,815.333313 2501.000000,412.666656 2501.000000,8.000000 
	C2080.668701,8.000000 1660.334351,8.000000 1240.000000,8.000000 
"/>
<path fill="none" opacity="1.000000" stroke="#000000" stroke-linecap="round" stroke-linejoin="round" stroke-width="8.000000"
	d="
M2490.000000,1241.000000 
	C2464.003906,1244.033447 2438.010742,1247.121582 2412.026855,1250.225220 
	C2382.678711,1253.730713 2353.356445,1257.517456 2324.001221,1261.011230 
	C2287.995605,1265.296875 2251.929199,1269.157593 2216.019775,1274.143188 
	C2180.056152,1279.135986 2143.968262,1283.152588 2107.949707,1287.592773 
	C2077.686768,1291.323364 2047.409790,1295.296387 2017.013062,1298.139526 
	C1992.282227,1300.452881 1967.660034,1303.946777 1943.001709,1307.013672 
	C1913.994385,1310.621582 1885.013794,1314.446533 1855.996338,1317.969482 
	C1824.679321,1321.771484 1793.330200,1325.306763 1762.000732,1329.006470 
	C1719.996094,1333.966553 1678.040283,1339.322632 1636.024292,1344.208618 
	C1600.340454,1348.358398 1564.721436,1353.108765 1529.004028,1357.036377 
	C1509.648071,1359.164917 1490.361694,1361.945801 1470.990845,1363.909790 
	C1456.121338,1365.417358 1453.887207,1368.151733 1451.924683,1386.992188 
	C1448.686035,1418.083496 1444.382324,1449.044678 1440.163574,1480.022339 
	C1434.819458,1519.263428 1431.094360,1558.723389 1425.886719,1597.984985 
	C1420.009521,1642.293823 1414.438477,1686.636719 1408.830078,1730.978516 
	C1403.222046,1775.318359 1397.124634,1819.594238 1391.885620,1863.986450 
	C1388.494019,1892.724976 1383.207397,1921.251831 1380.246826,1950.025391 
	C1377.807861,1973.729614 1374.762573,1997.357300 1371.764771,2020.970093 
	C1368.125000,2049.639404 1364.556641,2078.318848 1360.953491,2106.994141 
	C1355.464111,2150.683105 1349.632080,2194.328857 1344.012085,2238.001465 
	C1340.281494,2266.993408 1336.669678,2296.000244 1332.999146,2324.999756 
	C1330.003418,2348.667236 1327.032593,2372.337402 1323.990845,2395.998779 
	C1321.033447,2419.004395 1317.945190,2441.992920 1315.016968,2465.002197 
	C1312.600342,2483.991455 1310.415405,2503.010498 1307.978882,2521.997314 
	C1305.068604,2544.675537 1301.903320,2567.321045 1299.023926,2590.002930 
	C1295.259521,2619.657471 1291.740601,2649.342529 1287.976074,2678.997070 
	C1285.096680,2701.678955 1281.931519,2724.324463 1279.021240,2747.002686 
	C1276.584839,2765.989502 1274.431030,2785.012695 1271.974609,2803.996826 
	C1269.083130,2826.343994 1265.504883,2848.614746 1263.147583,2871.015625 
	C1261.039429,2891.049805 1257.768555,2910.920654 1255.812988,2930.981689 
	C1253.628174,2953.394531 1249.881958,2975.651611 1247.029053,2998.003662 
	C1243.244385,3027.655273 1239.770508,3057.346680 1235.965820,3086.995605 
	C1233.139771,3109.017822 1229.860352,3130.982178 1227.034302,3153.004395 
	C1223.229492,3182.653320 1219.698242,3212.337158 1215.990967,3241.998779 
	C1212.365723,3271.004150 1208.669434,3300.000244 1204.999023,3328.999756 
	C1202.003540,3352.667236 1199.016235,3376.335449 1195.995361,3399.999512 
	C1193.016357,3423.335449 1189.958618,3446.661621 1187.012939,3470.001709 
	C1184.615845,3488.993652 1182.333496,3508.000000 1179.999634,3527.000000 
	C1179.065918,3534.601318 1181.691406,3537.209229 1190.000122,3537.204834 
	C1627.000000,3536.972656 2064.000000,3537.000000 2501.000000,3537.000000 
	C2501.000000,2772.333252 2501.000000,2007.666626 2501.000000,1243.039429 
	C2497.752441,1241.903931 2494.562744,1240.519409 2491.000000,1241.000000 
"/>
</svg>