<svg version="1.1" id="Layer_1" xmlns="http://www.w3.org/2000/svg" xmlns:xlink="http://www.w3.org/1999/xlink" x="0px" y="0px"
	 width="100%" viewBox="0 0 2520 3540" enable-background="new 0 0 2520 3540" xml:space="preserve">
<path fill="none" opacity="1.000000" stroke="#000000" stroke-linecap="round" stroke-linejoin="round" stroke-width="8.000000"
	d="
M15.000000,8.000000 
	C10.656363,8.908939 8.359838,11.298824 8.966318,16.004341 
	C9.177620,17.643774 9.000000,19.333334 9.000000,21.000000 
	C9.000000,285.666656 8.998986,550.333313 9.009166,815.000000 
	C9.009327,819.187439 8.627756,823.416443 10.126348,828.000000 
	C847.000305,828.000000 1684.000366,828.000000 2521.000000,828.000000 
	C2521.000000,554.666687 2521.000000,282.333344 2521.000000,8.000000 
	C1686.001099,8.000000 851.000549,8.000000 16.000000,8.000000 
"/>
<path fill="none" opacity="1.000000" stroke="#000000" stroke-linecap="round" stroke-linejoin="round" stroke-width="8.000000"
	d="
M15.000000,895.000000 
	C11.328263,895.328247 9.239887,897.323181 9.029622,901.001709 
	C8.877694,903.659668 9.000000,906.333313 9.000000,909.000000 
	C9.000000,1177.666626 9.000010,1446.333374 8.999998,1715.000000 
	C8.999998,1727.982422 9.000004,1727.997681 22.000000,1727.997803 
	C850.666687,1728.000122 1679.333374,1727.999756 2508.000000,1728.007446 
	C2512.445068,1728.007568 2516.938721,1728.435059 2521.000000,1725.246948 
	C2521.000000,1449.666626 2521.000000,1173.333374 2521.000000,895.000000 
	C1686.001099,895.000000 851.000549,895.000000 16.000000,895.000000 
"/>
<path fill="none" opacity="1.000000" stroke="#000000" stroke-linecap="round" stroke-linejoin="round" stroke-width="8.000000"
	d="
M15.000000,1793.000000 
	C11.328263,1793.328247 9.239891,1795.323242 9.029622,1799.001709 
	C8.877694,1801.659668 9.000000,1804.333374 9.000000,1807.000000 
	C9.000000,2078.333252 9.000010,2349.666748 8.999999,2621.000000 
	C8.999998,2633.982422 9.000004,2633.997803 22.000000,2633.997803 
	C850.666687,2634.000244 1679.333374,2633.999512 2508.000000,2634.007324 
	C2512.445068,2634.007324 2516.938721,2634.435059 2521.000000,2631.246826 
	C2521.000000,2353.000000 2521.000000,2074.000000 2521.000000,1793.000000 
	C1686.001099,1793.000000 851.000549,1793.000000 16.000000,1793.000000 
"/>
<path fill="none" opacity="1.000000" stroke="#000000" stroke-linecap="round" stroke-linejoin="round" stroke-width="10.000000"
	d="
M15.000000,2700.000000 
	C10.656363,2700.908936 8.359821,2703.298828 8.966282,2708.004395 
	C9.177608,2709.643799 9.000000,2711.333252 9.000000,2713.000000 
	C9.000000,2983.666748 9.004265,3254.333252 8.970268,3525.000000 
	C8.969569,3530.565430 8.807059,3536.077881 12.309062,3541.000000 
	C848.333313,3541.000000 1684.666626,3541.000000 2521.000000,3541.000000 
	C2521.000000,3261.333252 2521.000000,2981.666748 2521.000000,2700.000000 
	C1686.001099,2700.000000 851.000549,2700.000000 16.000000,2700.000000 
"/>
</svg>