<svg version="1.1" id="Layer_1" xmlns="http://www.w3.org/2000/svg" xmlns:xlink="http://www.w3.org/1999/xlink" x="0px" y="0px"
	 width="100%" viewBox="0 0 2500 3536" enable-background="new 0 0 2500 3536" xml:space="preserve">
<path fill="none" opacity="1.000000" stroke="#000000" stroke-linecap="round" stroke-linejoin="round" stroke-width="8.000000"
	d="
M1262.000000,1584.000000 
	C1257.446777,1576.796753 1259.967773,1568.594727 1259.297974,1560.973755 
	C1255.669678,1519.695679 1253.138916,1478.322754 1249.960938,1437.003052 
	C1246.806396,1395.989258 1243.161987,1355.013062 1240.047363,1313.996338 
	C1236.833984,1271.679199 1234.156616,1229.321533 1230.959595,1187.003052 
	C1227.130737,1136.323486 1222.905151,1085.673828 1219.028198,1034.997803 
	C1215.560791,989.674805 1212.421387,944.326599 1208.972656,899.002075 
	C1206.105835,861.325256 1202.880859,823.675659 1200.033569,785.997437 
	C1197.213257,748.675781 1194.544922,711.341248 1192.109497,673.992859 
	C1191.657471,667.062378 1188.980957,663.700317 1181.999634,663.989807 
	C1180.335815,664.058777 1178.666626,664.000000 1177.000000,664.000000 
	C792.333313,664.000000 407.666656,664.000000 23.000000,664.000000 
	C8.999993,664.000000 9.000001,664.000000 9.000000,678.000000 
	C8.999987,975.000000 8.999080,1272.000000 9.009157,1569.000000 
	C9.009299,1573.187500 8.627756,1577.416504 9.964374,1581.504639 
	C14.154171,1583.552734 18.622520,1582.985352 23.000000,1582.985474 
	C431.000000,1583.001221 839.000000,1583.000732 1247.000000,1582.987549 
	C1251.019531,1582.987427 1255.091309,1583.428711 1259.000000,1582.000000 
"/>
<path fill="none" opacity="1.000000" stroke="#000000" stroke-linecap="round" stroke-linejoin="round" stroke-width="7.000000"
	d="
M15.000000,8.000000 
	C10.656363,8.908939 8.359838,11.298824 8.966318,16.004341 
	C9.177620,17.643774 9.000000,19.333334 9.000000,21.000000 
	C9.000000,224.333328 9.000008,427.666656 8.999999,631.000000 
	C8.999998,643.982422 9.000004,643.997742 22.000000,643.997864 
	C406.666656,644.000549 791.333313,644.000488 1176.000000,643.997864 
	C1188.578613,643.997803 1189.948730,642.659424 1188.972778,630.002075 
	C1185.374512,583.330139 1181.506836,536.678528 1178.044434,489.996704 
	C1174.510010,442.344940 1171.543823,394.650726 1167.938843,347.004639 
	C1164.557739,302.316376 1160.482544,257.680786 1157.053101,212.995926 
	C1153.805542,170.681595 1151.115601,128.324692 1147.954224,86.003426 
	C1146.209595,62.651005 1143.662354,39.354366 1142.206909,15.987113 
	C1141.772339,9.011600 1138.907471,7.422207 1132.998291,7.981639 
	C1131.676758,8.106744 1130.333374,8.000000 1129.000000,8.000000 
	C758.000000,8.000000 387.000000,8.000000 16.000000,8.000000 
"/>
<path fill="none" opacity="1.000000" stroke="#000000" stroke-linecap="round" stroke-linejoin="round" stroke-width="7.000000"
	d="
M1169.000000,8.000000 
	C1163.900269,8.933543 1162.550293,12.127562 1162.943115,17.004585 
	C1164.418579,35.326466 1165.635620,53.668991 1167.007446,71.999435 
	C1168.978394,98.334946 1170.967651,124.669167 1173.007690,150.999405 
	C1175.977783,189.335052 1179.150879,227.655609 1181.961670,266.002808 
	C1185.454834,313.657745 1188.462280,361.348755 1192.056152,408.995758 
	C1195.803955,458.681458 1200.157104,508.321320 1203.952271,558.003662 
	C1207.184570,600.319214 1209.843628,642.678528 1213.040649,684.996948 
	C1216.869263,735.676575 1221.094727,786.326050 1224.971802,837.002136 
	C1228.439209,882.325195 1231.584839,927.672913 1235.022583,972.998291 
	C1238.587891,1020.005981 1242.450195,1066.991211 1245.965454,1114.002563 
	C1249.129761,1156.323608 1251.851807,1198.677734 1255.039795,1240.996948 
	C1258.531250,1287.343628 1262.468750,1333.656372 1265.960327,1380.003052 
	C1269.148438,1422.322144 1271.843140,1464.678467 1275.044678,1506.996582 
	C1278.172729,1548.345581 1281.837646,1589.653809 1284.952637,1631.003540 
	C1288.165649,1673.654175 1290.825317,1716.346558 1294.050171,1758.996216 
	C1297.151611,1800.013672 1300.837891,1840.986938 1303.952515,1882.003662 
	C1307.165894,1924.320801 1309.851807,1966.677734 1313.039795,2008.996948 
	C1316.531250,2055.343506 1320.468750,2101.656494 1323.960205,2148.002930 
	C1327.148193,2190.322021 1329.983398,2232.667969 1333.007812,2274.999512 
	C1334.294189,2293.002686 1335.825562,2310.990479 1336.911987,2329.005371 
	C1337.282715,2335.155029 1339.500732,2338.471924 1346.001221,2338.017090 
	C1347.659668,2337.901123 1349.333374,2338.000000 1351.000000,2338.000000 
	C1729.666626,2338.000000 2108.333252,2338.000244 2487.000000,2337.997070 
	C2491.758545,2337.996826 2496.619873,2338.672363 2501.000000,2335.272705 
	C2501.000000,1560.666626 2501.000000,785.333313 2501.000000,8.000000 
	C2057.335449,8.000000 1613.667725,8.000000 1170.000000,8.000000 
"/>
<path fill="none" opacity="1.000000" stroke="#000000" stroke-linecap="round" stroke-linejoin="round" stroke-width="7.000000"
	d="
M15.000000,1604.000000 
	C10.656363,1604.908936 8.359852,1607.298828 8.966343,1612.004395 
	C9.177638,1613.643677 9.000000,1615.333374 9.000000,1617.000000 
	C9.000000,1853.000000 9.000009,2089.000000 8.999998,2325.000000 
	C8.999998,2337.982422 9.000004,2337.997559 22.000000,2337.997803 
	C449.333344,2338.000488 876.666687,2338.000244 1304.000000,2337.997803 
	C1316.254883,2337.997559 1317.910889,2336.255859 1317.014404,2324.998779 
	C1314.307617,2291.001953 1311.666504,2257.000000 1309.000000,2223.000000 
	C1305.993530,2184.667236 1303.410767,2146.304932 1300.144775,2107.987549 
	C1296.512695,2065.374756 1294.176636,2022.653320 1290.953979,1980.003418 
	C1287.149658,1929.655273 1282.860596,1879.343994 1279.042847,1828.996704 
	C1275.834106,1786.679199 1273.101440,1744.325806 1269.964844,1702.002563 
	C1267.814575,1672.989014 1264.946411,1644.022827 1263.230225,1614.986450 
	C1262.699585,1606.006470 1259.168823,1603.860718 1250.999634,1603.883911 
	C1180.333618,1604.085449 1109.666626,1604.000000 1039.000000,1604.000000 
	C698.000000,1604.000000 357.000000,1604.000000 16.000000,1604.000000 
"/>
<path fill="none" opacity="1.000000" stroke="#000000" stroke-linecap="round" stroke-linejoin="round" stroke-width="10.000000"
	d="
M15.000000,2358.000000 
	C10.656363,2358.908936 8.359821,2361.298828 8.966282,2366.004395 
	C9.177578,2367.643799 9.000000,2369.333252 9.000000,2371.000000 
	C9.000000,2754.333252 9.003006,3137.666748 8.970395,3521.000000 
	C8.969922,3526.565430 8.807059,3532.077881 12.309062,3537.000000 
	C841.666687,3537.000000 1671.333374,3537.000000 2501.000000,3537.000000 
	C2501.000000,3144.666748 2501.000000,2752.333252 2501.000000,2358.000000 
	C1672.667725,2358.000000 844.333862,2358.000000 16.000000,2358.000000 
"/>
</svg>