<svg version="1.1" id="Layer_1" xmlns="http://www.w3.org/2000/svg" xmlns:xlink="http://www.w3.org/1999/xlink" x="0px" y="0px"
	 width="100%" viewBox="0 0 2500 3536" enable-background="new 0 0 2500 3536" xml:space="preserve">
<path fill="none" opacity="1.000000" stroke="#000000" stroke-linecap="round" stroke-linejoin="round" stroke-width="7.000000"
	d="
M954.000000,11.000000 
	C952.034668,19.756666 956.897644,27.240938 959.246582,34.924622 
	C976.449707,91.198456 992.428467,147.835419 1009.586609,204.126007 
	C1021.820618,244.262100 1033.043701,284.753204 1045.075684,324.977356 
	C1057.949219,368.014557 1071.022705,411.015930 1083.532837,454.135529 
	C1099.581909,509.452789 1116.224976,564.600830 1132.084717,619.975708 
	C1145.675049,667.426453 1160.016968,714.661621 1173.995605,762.001343 
	C1189.348633,813.995483 1204.242920,866.129822 1220.120605,917.963074 
	C1235.625732,968.579773 1250.306763,1019.442566 1265.628418,1070.112305 
	C1279.912354,1117.350220 1293.732056,1164.746582 1307.702271,1212.087891 
	C1319.702759,1252.754272 1331.576538,1293.457153 1343.623413,1334.111572 
	C1350.000366,1355.632568 1356.722168,1377.120239 1362.182617,1398.954346 
	C1365.495605,1412.202026 1366.303345,1412.000000 1380.000000,1412.000000 
	C1533.333374,1412.000000 1686.666626,1412.000000 1840.000000,1412.000000 
	C2055.666748,1412.000000 2271.333252,1412.000488 2487.000000,1411.997070 
	C2491.758545,1411.997070 2496.619873,1412.672363 2501.000000,1409.272583 
	C2501.000000,943.333313 2501.000000,476.666656 2501.000000,10.753098 
	C2496.938721,7.564970 2492.445068,7.992435 2488.000000,7.992505 
	C1980.666626,8.000463 1473.333374,7.998021 966.000000,8.038100 
	C962.268005,8.038395 958.225037,6.904341 955.000000,10.000000 
"/>
<path fill="none" opacity="1.000000" stroke="#000000" stroke-linecap="round" stroke-linejoin="round" stroke-width="7.000000"
	d="
M1127.000000,681.000000 
	C1127.843262,669.326172 1123.027222,658.599976 1119.619629,648.123718 
	C1103.436157,598.368591 1089.781982,547.862549 1074.444702,497.863586 
	C1062.140747,457.753052 1050.909424,417.261230 1038.937134,377.018707 
	C1026.127808,333.962402 1012.913635,291.004120 1000.428528,247.875946 
	C984.411804,192.548035 967.508728,137.475327 952.003113,81.999123 
	C946.037781,60.656025 938.427002,39.786324 933.918945,18.016783 
	C932.433472,10.843399 928.254272,7.780835 919.999817,7.787803 
	C620.666748,8.040494 321.333344,7.999339 22.000000,8.002234 
	C8.999993,8.002359 9.000001,8.017581 9.000000,21.000000 
	C8.999990,237.666672 9.000010,454.333344 9.000000,671.000000 
	C9.000000,683.982422 9.000007,683.997681 22.000000,683.997803 
	C386.000000,684.000549 750.000000,683.983582 1113.999878,684.163940 
	C1119.182251,684.166504 1123.856323,681.563232 1129.000000,682.500000 
"/>
<path fill="none" opacity="1.000000" stroke="#000000" stroke-linecap="round" stroke-linejoin="round" stroke-width="7.000000"
	d="
M1342.000000,1408.000000 
	C1343.150146,1401.143799 1339.813354,1395.228882 1337.993042,1389.002075 
	C1326.006348,1347.998169 1314.358765,1306.890747 1301.912354,1266.026733 
	C1285.074219,1210.743896 1269.064453,1155.212402 1252.441772,1099.867310 
	C1240.370361,1059.676147 1228.758545,1019.304443 1216.885498,979.033752 
	C1204.182617,935.947693 1191.180054,892.933777 1178.463623,849.863098 
	C1165.502441,805.963318 1152.399292,762.077637 1139.922119,718.022034 
	C1135.917236,703.881287 1135.498047,704.000000 1121.000000,704.000000 
	C931.000000,704.000000 741.000000,704.000000 551.000000,704.000000 
	C537.000000,704.000000 537.000000,704.000000 537.000000,718.000000 
	C537.000000,945.000000 537.000000,1172.000000 537.000000,1399.000000 
	C537.000000,1411.982422 537.000000,1411.997559 550.000000,1411.997681 
	C809.333313,1412.000732 1068.666626,1411.994751 1328.000000,1412.039551 
	C1332.948730,1412.040405 1337.742188,1411.907715 1342.000000,1409.000000 
"/>
<path fill="none" opacity="1.000000" stroke="#000000" stroke-linecap="round" stroke-linejoin="round" stroke-width="8.000000"
	d="
M15.000000,704.000000 
	C10.656363,704.908936 8.359837,707.298828 8.966320,712.004333 
	C9.177623,713.643799 9.000000,715.333313 9.000000,717.000000 
	C9.000000,944.333313 9.000009,1171.666626 8.999999,1399.000000 
	C8.999998,1411.982422 9.000004,1411.997437 22.000000,1411.997681 
	C182.000000,1412.001221 342.000000,1411.994995 502.000000,1412.024658 
	C506.627869,1412.025513 511.224121,1412.179565 516.082031,1408.730347 
	C517.551941,1405.499634 516.990173,1400.712036 516.990417,1396.000000 
	C517.001404,1169.666626 517.000000,943.333313 517.000000,717.000000 
	C517.000000,704.017578 517.000000,704.002502 504.000000,704.002258 
	C341.333344,703.998779 178.666672,704.000000 16.000000,704.000000 
"/>
<path fill="none" opacity="1.000000" stroke="#000000" stroke-linecap="round" stroke-linejoin="round" stroke-width="8.000000"
	d="
M15.000000,1432.000000 
	C10.656363,1432.908936 8.359852,1435.298828 8.966343,1440.004395 
	C9.177638,1441.643677 9.000000,1443.333374 9.000000,1445.000000 
	C9.000000,2137.000000 9.001683,2829.000000 8.970531,3521.000000 
	C8.970281,3526.565430 8.807059,3532.077881 12.309062,3537.000000 
	C841.666687,3537.000000 1671.333374,3537.000000 2501.000000,3537.000000 
	C2501.000000,2836.000000 2501.000000,2135.000000 2501.000000,1432.000000 
	C1672.667725,1432.000000 844.333862,1432.000000 16.000000,1432.000000 
"/>
</svg>