<svg version="1.1" id="Layer_1" xmlns="http://www.w3.org/2000/svg" xmlns:xlink="http://www.w3.org/1999/xlink" x="0px" y="0px"
	 width="100%" viewBox="0 0 2500 3541" enable-background="new 0 0 2500 3541" xml:space="preserve">
<path fill="none" opacity="1.000000" stroke="#000000" stroke-linecap="round" stroke-linejoin="round" stroke-width="8.000000"
	d="
M15.000000,7.000000 
	C8.641836,7.718435 8.933953,12.185900 8.939807,17.000072 
	C9.026946,88.666634 9.000000,160.333328 9.000000,232.000000 
	C9.000000,433.666656 8.998675,635.333313 9.009196,837.000000 
	C9.009415,841.187439 8.627756,845.416443 10.208086,850.250000 
	C355.832703,850.250000 701.666077,850.250000 1048.250000,850.250000 
	C1048.250000,570.001770 1048.250000,290.000885 1048.250000,9.365872 
	C1044.551147,6.244501 1039.183838,7.010233 1034.000000,7.010063 
	C694.666687,6.998923 355.333344,7.000000 16.000000,7.000000 
"/>
<path fill="none" opacity="1.000000" stroke="#000000" stroke-linecap="round" stroke-linejoin="round" stroke-width="7.000000"
	d="
M1073.000000,7.000000 
	C1067.572998,8.167801 1065.153320,11.408509 1065.971802,17.004126 
	C1066.162720,18.309532 1066.000000,19.666666 1066.000000,21.000000 
	C1066.000000,293.000000 1066.000000,565.000000 1066.000000,837.000000 
	C1066.000000,851.000000 1066.000000,851.000000 1080.000000,851.000000 
	C1126.333374,851.000000 1172.666626,851.000000 1219.000000,851.000000 
	C1231.982422,851.000000 1231.997437,851.000000 1231.997681,838.000000 
	C1232.000854,623.666687 1232.000000,409.333344 1232.000000,195.000000 
	C1232.000000,136.666672 1231.841309,78.332542 1232.133057,20.000666 
	C1232.191895,8.221483 1230.247925,7.007138 1219.000000,7.004620 
	C1170.666626,6.993797 1122.333374,7.000000 1074.000000,7.000000 
"/>
<path fill="none" opacity="1.000000" stroke="#000000" stroke-linecap="round" stroke-linejoin="round" stroke-width="8.000000"
	d="
M1255.000000,7.000000 
	C1249.572998,8.167801 1247.153320,11.408509 1247.971924,17.004108 
	C1248.162842,18.309513 1248.000000,19.666666 1248.000000,21.000000 
	C1248.000000,293.000000 1248.000000,565.000000 1248.000000,837.000000 
	C1248.000000,851.000000 1248.000000,851.000000 1262.000000,851.000000 
	C1670.333374,851.000000 2078.666748,851.000793 2487.000000,850.991333 
	C2491.751953,850.991211 2496.613281,851.626038 2501.000000,848.785645 
	C2501.000000,569.333313 2501.000000,289.666656 2501.000000,9.999475 
	C2496.551025,6.244501 2491.183838,7.010182 2486.000000,7.010044 
	C2076.000000,6.999108 1666.000000,7.000000 1256.000000,7.000000 
"/>
<path fill="none" opacity="1.000000" stroke="#000000" stroke-linecap="round" stroke-linejoin="round" stroke-width="8.000000"
	d="
M15.000000,867.000000 
	C11.328263,867.328247 9.239887,869.323181 9.029626,873.001709 
	C8.877694,875.659668 9.000000,878.333313 9.000000,881.000000 
	C9.000000,1762.333374 9.000000,2643.666748 9.000000,3525.000000 
	C9.000000,3527.000000 8.876122,3529.009033 9.020910,3530.998535 
	C9.747924,3540.987549 11.954731,3543.000000 22.000000,3543.000000 
	C443.333344,3543.000000 864.666687,3543.000000 1286.000000,3543.000000 
	C1296.045288,3543.000000 1298.016846,3540.964111 1299.045410,3531.004639 
	C1300.969360,3512.372070 1300.067261,3493.659424 1300.773071,3474.991455 
	C1302.473022,3430.017822 1302.615723,3384.987061 1304.126099,3340.004150 
	C1305.256592,3306.338867 1306.399780,3272.682861 1307.174805,3239.003906 
	C1308.026245,3202.002930 1309.208740,3165.006592 1310.111206,3128.002686 
	C1311.029663,3090.334961 1312.249756,3052.674561 1313.158325,3015.003906 
	C1314.050781,2978.002930 1315.367432,2941.011719 1316.067993,2904.001221 
	C1316.755859,2867.662109 1317.601562,2831.316895 1319.099121,2795.004150 
	C1321.050659,2747.682861 1321.798340,2700.336670 1323.170532,2653.004883 
	C1324.204590,2617.338379 1325.045532,2581.667969 1326.051636,2546.001465 
	C1327.151611,2507.003418 1328.163696,2468.003662 1329.191895,2429.005127 
	C1330.149902,2392.671631 1330.976929,2356.331299 1332.098511,2320.002930 
	C1333.518677,2274.004883 1335.128296,2228.016357 1336.123291,2182.002686 
	C1336.937988,2144.333984 1338.249634,2106.674561 1339.158325,2069.003906 
	C1340.050537,2032.003052 1341.192505,1995.005981 1342.115845,1958.002930 
	C1343.055786,1920.335449 1344.196411,1882.672852 1345.125122,1845.003052 
	C1346.259277,1798.999634 1348.161133,1753.018311 1349.215454,1707.004883 
	C1350.032837,1671.338745 1351.045532,1635.667969 1352.051636,1600.001465 
	C1353.151733,1561.003540 1354.163696,1522.003784 1355.192017,1483.005005 
	C1356.149902,1446.671509 1357.165405,1410.338501 1358.051025,1374.001221 
	C1359.172485,1327.996094 1360.511475,1281.994873 1362.048340,1236.001587 
	C1363.306763,1198.340210 1364.246704,1160.674561 1365.157715,1123.003784 
	C1366.052612,1086.003052 1367.179565,1049.005493 1368.119385,1012.003052 
	C1369.076172,974.335815 1370.601807,936.684998 1371.167480,899.002502 
	C1371.282104,891.359314 1371.860229,883.677246 1372.031982,876.000732 
	C1372.172852,869.699341 1369.862305,866.166382 1362.997314,866.977783 
	C1361.682373,867.133179 1360.333374,867.000000 1359.000000,867.000000 
	C911.333313,867.000000 463.666656,867.000000 16.000000,867.000000 
"/>
<path fill="none" opacity="1.000000" stroke="#000000" stroke-linecap="round" stroke-linejoin="round" stroke-width="8.000000"
	d="
M1395.000000,867.000000 
	C1388.668823,868.122559 1388.041748,872.905457 1388.009399,878.000061 
	C1387.924927,891.340149 1387.586426,904.667053 1387.146606,918.004822 
	C1386.036987,951.656921 1386.124146,985.350281 1384.874878,1018.995361 
	C1383.550659,1054.657959 1382.869751,1090.329224 1381.922241,1125.997925 
	C1380.886230,1164.997314 1379.731812,1203.991943 1378.805054,1242.995361 
	C1377.957520,1278.662354 1377.148682,1314.342651 1375.849121,1349.994507 
	C1374.172607,1395.989136 1373.047729,1441.990356 1371.894409,1487.997314 
	C1370.950073,1525.664795 1369.825195,1563.328247 1368.854980,1600.996216 
	C1367.901855,1637.996704 1366.807495,1674.994019 1365.884155,1711.997070 
	C1364.944336,1749.664551 1363.803589,1787.327148 1362.875000,1824.996948 
	C1361.740723,1871.000366 1359.825439,1916.981079 1358.790894,1962.995239 
	C1357.973999,1999.328491 1356.897705,2035.663574 1355.926880,2071.998047 
	C1354.902832,2110.331055 1353.817871,2148.662354 1352.797729,2186.994629 
	C1351.848633,2222.661377 1350.889771,2258.329834 1349.968628,2293.999268 
	C1348.763550,2340.669189 1347.493774,2387.338623 1345.949341,2433.998291 
	C1344.702759,2471.660156 1343.753296,2509.325439 1342.842285,2546.996094 
	C1341.947388,2583.997070 1340.820435,2620.994385 1339.880615,2657.997070 
	C1338.923950,2695.664307 1337.753296,2733.325439 1336.842163,2770.996094 
	C1335.947266,2807.997070 1334.942749,2845.000000 1333.836792,2881.995117 
	C1332.840332,2915.328613 1331.385742,2948.642334 1330.885742,2981.998291 
	C1330.421021,3013.006348 1328.884277,3043.996826 1328.059814,3075.001709 
	C1327.751709,3086.589355 1329.402222,3087.992188 1341.000000,3087.992432 
	C1723.666626,3088.001709 2106.333252,3087.998047 2489.000000,3088.029053 
	C2493.149658,3088.029297 2497.240479,3088.108887 2501.000000,3085.299805 
	C2501.000000,2347.000000 2501.000000,1608.000000 2501.000000,867.000000 
	C2132.669189,867.000000 1764.334595,867.000000 1396.000000,867.000000 
"/>
<path fill="none" opacity="1.000000" stroke="#000000" stroke-linecap="round" stroke-linejoin="round" stroke-width="7.000000"
	d="
M1333.000000,3104.000000 
	C1328.656372,3104.908936 1326.967529,3107.318115 1326.888550,3111.998047 
	C1326.455444,3137.668701 1325.626221,3163.332275 1325.009277,3189.000244 
	C1323.975830,3231.999512 1323.076904,3275.001953 1321.975708,3317.999268 
	C1321.096436,3352.335693 1320.326660,3386.680176 1318.910278,3420.996338 
	C1317.424805,3456.988281 1316.489868,3492.986816 1316.032227,3529.000488 
	C1315.854370,3542.997803 1316.018921,3543.000000 1330.000000,3543.000000 
	C1720.333374,3543.000000 2110.666748,3543.000000 2501.000000,3543.000000 
	C2501.000000,3397.333252 2501.000000,3251.666748 2501.000000,3104.000000 
	C2112.002197,3104.000000 1723.001099,3104.000000 1334.000000,3104.000000 
"/>
</svg>