<svg version="1.1" id="Layer_1" xmlns="http://www.w3.org/2000/svg" xmlns:xlink="http://www.w3.org/1999/xlink" x="0px" y="0px"
	 width="100%" viewBox="0 0 2504 3638" enable-background="new 0 0 2504 3638" xml:space="preserve">
<path fill="none" opacity="1.000000" stroke="#000000" stroke-linecap="round" stroke-linejoin="round" stroke-width="7.000000"
	d="
M81.000000,74.000000 
	C76.656364,74.908936 74.359840,77.298828 74.966316,82.004341 
	C75.177620,83.643768 75.000000,85.333336 75.000000,87.000000 
	C75.000000,647.000000 75.000023,1207.000000 75.000000,1767.000000 
	C75.000000,1779.982422 75.000008,1779.997803 88.000000,1779.997803 
	C867.333313,1780.000244 1646.666626,1780.000244 2426.000000,1779.998047 
	C2437.983887,1779.998047 2437.998047,1779.983765 2437.998047,1768.000000 
	C2438.000488,1207.333374 2438.000488,646.666687 2437.998047,86.000000 
	C2437.998047,73.999992 2437.983887,74.000000 2425.000000,74.000000 
	C1644.000000,74.000000 863.000000,74.000000 82.000000,74.000000 
"/>
<path fill="none" opacity="1.000000" stroke="#000000" stroke-linecap="round" stroke-linejoin="round" stroke-width="7.000000"
	d="
M81.000000,1858.000000 
	C76.656364,1858.908936 74.359825,1861.298828 74.966331,1866.004395 
	C75.177620,1867.643677 75.000000,1869.333374 75.000000,1871.000000 
	C75.000000,2134.333252 75.000008,2397.666748 75.000000,2661.000000 
	C75.000000,2673.982422 75.000008,2673.997559 88.000000,2673.997803 
	C452.000000,2674.000488 816.000000,2674.000488 1180.000000,2673.998047 
	C1191.983765,2673.998047 1191.997681,2673.983887 1191.997803,2662.000000 
	C1192.000488,2398.000000 1192.000488,2134.000000 1191.997803,1870.000000 
	C1191.997681,1858.016235 1191.983765,1858.002075 1180.000000,1858.001953 
	C814.000000,1857.999512 448.000000,1858.000000 82.000000,1858.000000 
"/>
<path fill="none" opacity="1.000000" stroke="#000000" stroke-linecap="round" stroke-linejoin="round" stroke-width="7.000000"
	d="
M1329.000000,1858.000000 
	C1325.575562,1858.535156 1323.852905,1860.448730 1323.983765,1864.000610 
	C1324.069702,1866.330811 1324.000000,1868.666626 1324.000000,1871.000000 
	C1324.000000,2134.333252 1324.000000,2397.666748 1324.000000,2661.000000 
	C1324.000000,2674.000000 1324.000000,2674.000000 1337.000000,2674.000000 
	C1699.666626,2674.000000 2062.333252,2674.000000 2425.000000,2674.000000 
	C2438.000000,2674.000000 2438.000000,2674.000000 2438.000000,2661.000000 
	C2438.000000,2397.666748 2438.000000,2134.333252 2438.000000,1871.000000 
	C2438.000000,1858.000000 2438.000000,1858.000000 2425.000000,1858.000000 
	C2060.000000,1858.000000 1695.000000,1858.000000 1330.000000,1858.000000 
"/>
<path fill="none" opacity="1.000000" stroke="#000000" stroke-linecap="round" stroke-linejoin="round" stroke-width="8.000000"
	d="
M81.000000,2753.000000 
	C77.328262,2753.328369 75.239876,2755.323242 75.029633,2759.001709 
	C74.877686,2761.659668 75.000000,2764.333252 75.000000,2767.000000 
	C75.000000,3029.666748 74.998970,3292.333252 75.009171,3555.000000 
	C75.009331,3559.187500 74.627754,3563.416504 75.964371,3567.504639 
	C80.154167,3569.552734 84.622520,3568.985107 89.000000,3568.985352 
	C452.333344,3569.001221 815.666687,3569.000000 1179.000000,3569.000000 
	C1191.982422,3569.000000 1191.997681,3569.000000 1191.997803,3556.000000 
	C1192.000732,3292.666748 1192.000732,3029.333252 1191.997681,2766.000000 
	C1191.997559,2753.000000 1191.982422,2753.000000 1179.000000,2753.000000 
	C813.333313,2753.000000 447.666656,2753.000000 82.000000,2753.000000 
"/>
<path fill="none" opacity="1.000000" stroke="#000000" stroke-linecap="round" stroke-linejoin="round" stroke-width="8.000000"
	d="
M1329.000000,2753.000000 
	C1325.108276,2754.276123 1323.852539,2757.179443 1323.987549,2761.000488 
	C1324.058105,2762.998047 1324.000000,2765.000000 1324.000000,2767.000000 
	C1324.000000,3029.666748 1324.000000,3292.333252 1324.000000,3555.000000 
	C1324.000000,3569.000000 1324.000000,3569.000000 1338.000000,3569.000000 
	C1700.333374,3569.000000 2062.666748,3569.000000 2425.000000,3569.000000 
	C2437.982422,3569.000000 2437.997559,3569.000000 2437.997803,3556.000000 
	C2438.000732,3292.666748 2438.000732,3029.333252 2437.997803,2766.000000 
	C2437.997803,2753.000000 2437.982422,2753.000000 2425.000000,2753.000000 
	C2060.000000,2753.000000 1695.000000,2753.000000 1330.000000,2753.000000 
"/>
</svg>