<svg version="1.1" id="Layer_1" xmlns="http://www.w3.org/2000/svg" xmlns:xlink="http://www.w3.org/1999/xlink" x="0px" y="0px"
	 width="100%" viewBox="0 0 2500 3536" enable-background="new 0 0 2500 3536" xml:space="preserve">
<path fill="none" opacity="1.000000" stroke="#000000" stroke-linecap="round" stroke-linejoin="round" stroke-width="8.000000"
	d="
M1754.000000,1722.000000 
	C1755.405762,1711.628662 1750.551758,1702.369629 1747.691162,1693.095215 
	C1734.665039,1650.862915 1722.842163,1608.271973 1710.399170,1565.882812 
	C1695.544434,1515.277466 1680.928711,1464.588379 1666.353760,1413.898315 
	C1652.359985,1365.229614 1638.167847,1316.616821 1624.242920,1267.930542 
	C1608.402954,1212.547607 1592.327393,1157.238403 1576.339233,1101.901978 
	C1560.350952,1046.564941 1544.350464,991.232056 1528.345703,935.900024 
	C1514.275269,887.256226 1500.256348,838.593079 1486.247559,789.928711 
	C1470.313110,734.575073 1454.391235,679.221191 1438.350708,623.898315 
	C1422.310669,568.577820 1406.360229,513.229553 1390.342896,457.900757 
	C1376.261719,409.260406 1362.287720,360.584137 1348.278198,311.919891 
	C1333.685547,261.229828 1318.882080,210.599335 1304.391479,159.888123 
	C1290.969604,112.917038 1277.345581,65.995392 1264.224121,18.937525 
	C1261.924072,10.688684 1258.714478,7.809646 1249.999878,7.814188 
	C840.666687,8.027544 431.333344,7.999514 22.000000,8.002216 
	C8.999993,8.002302 9.000003,8.017581 9.000002,21.000000 
	C8.999977,584.333313 8.999531,1147.666626 9.009109,1711.000000 
	C9.009180,1715.187500 8.627756,1719.416504 9.964374,1723.504639 
	C14.154171,1725.552734 18.622522,1724.985229 23.000000,1724.985352 
	C595.666687,1725.000732 1168.333374,1725.001343 1741.000000,1724.974609 
	C1745.404419,1724.974365 1750.010010,1725.898438 1754.000000,1723.000000 
"/>
<path fill="none" opacity="1.000000" stroke="#000000" stroke-linecap="round" stroke-linejoin="round" stroke-width="7.000000"
	d="
M1499.000000,755.000000 
	C1499.753296,767.244385 1504.844971,778.370789 1507.884888,790.030029 
	C1522.132202,844.675415 1539.595093,898.397461 1554.210205,952.943665 
	C1561.659058,980.744263 1570.204346,1008.274048 1578.198730,1035.942627 
	C1591.582153,1082.262329 1605.081787,1128.544678 1618.264648,1174.924805 
	C1625.959595,1201.997681 1634.126953,1228.963379 1641.962524,1256.010864 
	C1653.441650,1295.635254 1664.411377,1335.408569 1676.062500,1374.981567 
	C1691.736572,1428.218750 1707.298218,1481.481323 1722.165771,1534.953857 
	C1729.878418,1562.693237 1738.317749,1590.238281 1746.221680,1617.936768 
	C1755.366943,1649.985596 1765.091553,1681.877686 1773.929932,1714.019287 
	C1775.982910,1721.485352 1779.112183,1725.225952 1788.000244,1725.215576 
	C2021.333252,1724.943604 2254.666748,1724.999634 2488.000000,1725.003662 
	C2492.440430,1725.003784 2496.931641,1725.389771 2501.000000,1722.788086 
	C2501.000000,1400.000000 2501.000000,1077.000000 2501.000000,754.753113 
	C2496.938721,751.564941 2492.445068,751.992432 2488.000000,751.992554 
	C2162.666748,752.000793 1837.333374,752.027893 1512.000122,751.769775 
	C1506.381470,751.765320 1500.527100,756.411438 1495.000000,751.500000 
"/>
<path fill="none" opacity="1.000000" stroke="#000000" stroke-linecap="round" stroke-linejoin="round" stroke-width="7.000000"
	d="
M1289.000000,8.000000 
	C1283.643188,8.949930 1282.609863,12.270744 1283.994141,17.001724 
	C1292.672485,46.664967 1301.428711,76.305885 1309.977295,106.006508 
	C1322.730591,150.314926 1335.049927,194.750107 1348.070312,238.979324 
	C1365.113159,296.873199 1381.840454,354.851990 1398.149902,412.957916 
	C1405.931274,440.680420 1414.229980,468.266052 1422.209717,495.939545 
	C1435.568115,542.266113 1449.045288,588.555786 1462.270020,634.922974 
	C1470.833496,664.947571 1480.087769,694.779724 1488.106567,724.971680 
	C1489.301147,729.469543 1492.441284,732.780579 1498.004517,732.033813 
	C1499.641724,731.814087 1501.333374,732.000000 1503.000000,732.000000 
	C1831.000000,732.000000 2159.000000,732.000305 2487.000000,731.997070 
	C2491.758545,731.997009 2496.619873,732.672363 2501.000000,729.272583 
	C2501.000000,490.000000 2501.000000,250.000000 2501.000000,8.000000 
	C2097.335449,8.000000 1693.667725,8.000000 1290.000000,8.000000 
"/>
<path fill="none" opacity="1.000000" stroke="#000000" stroke-linecap="round" stroke-linejoin="round" stroke-width="8.000000"
	d="
M15.000000,1745.000000 
	C11.328263,1745.328247 9.239883,1747.323242 9.029614,1751.001709 
	C8.877687,1753.659668 9.000000,1756.333374 9.000000,1759.000000 
	C9.000000,2346.333252 9.001982,2933.666748 8.970500,3521.000000 
	C8.970201,3526.565430 8.807059,3532.077881 12.309062,3537.000000 
	C345.333344,3537.000000 678.666687,3537.000000 1011.788818,3537.000000 
	C1014.727783,3532.345459 1015.045898,3527.273193 1015.045471,3522.000000 
	C1014.997131,2934.000000 1015.000305,2346.000000 1014.994202,1758.000000 
	C1014.994202,1754.141724 1015.362244,1750.243896 1013.178528,1745.000000 
	C681.334839,1745.000000 348.667419,1745.000000 16.000000,1745.000000 
"/>
<path fill="none" opacity="1.000000" stroke="#000000" stroke-linecap="round" stroke-linejoin="round" stroke-width="8.000000"
	d="
M1041.000000,1745.000000 
	C1037.108276,1746.276001 1035.852539,1749.179443 1035.987549,1753.000488 
	C1036.058105,1754.997925 1036.000000,1757.000000 1036.000000,1759.000000 
	C1036.000000,1995.000000 1036.000000,2231.000000 1036.000000,2467.000000 
	C1036.000000,2481.000000 1036.000000,2481.000000 1050.000000,2481.000000 
	C1529.000000,2481.000000 2008.000000,2481.000488 2487.000000,2480.991211 
	C2491.751953,2480.990967 2496.613281,2481.625977 2501.000000,2478.785645 
	C2501.000000,2235.000000 2501.000000,1991.000000 2501.000000,1745.000000 
	C2014.668457,1745.000000 1528.334229,1745.000000 1042.000000,1745.000000 
"/>
<path fill="none" opacity="1.000000" stroke="#000000" stroke-linecap="round" stroke-linejoin="round" stroke-width="8.000000"
	d="
M1041.000000,2501.000000 
	C1037.108276,2502.276123 1035.852539,2505.179443 1035.987549,2509.000488 
	C1036.058105,2510.998047 1036.000000,2513.000000 1036.000000,2515.000000 
	C1036.000000,2849.666748 1036.000610,3184.333252 1035.995728,3519.000000 
	C1035.995605,3525.172363 1035.319336,3531.446777 1039.758057,3537.000000 
	C1526.333374,3537.000000 2013.666626,3537.000000 2501.000000,3537.000000 
	C2501.000000,3192.333252 2501.000000,2847.666748 2501.000000,2501.000000 
	C2014.668457,2501.000000 1528.334229,2501.000000 1042.000000,2501.000000 
"/>
</svg>