<svg version="1.1" id="Layer_1" xmlns="http://www.w3.org/2000/svg" xmlns:xlink="http://www.w3.org/1999/xlink" x="0px" y="0px"
	 width="100%" viewBox="0 0 2500 3536" enable-background="new 0 0 2500 3536" xml:space="preserve">
<path fill="none" opacity="1.000000" stroke="#000000" stroke-linecap="round" stroke-linejoin="round" stroke-width="8.000000"
	d="
M15.000000,8.000000 
	C10.656363,8.908939 8.359838,11.298824 8.966318,16.004341 
	C9.177620,17.643774 9.000000,19.333334 9.000000,21.000000 
	C9.000000,232.333328 8.998721,443.666656 9.009192,655.000000 
	C9.009400,659.187439 8.627756,663.416443 10.208086,668.250000 
	C332.499298,668.250000 654.999390,668.250000 977.390625,668.250000 
	C979.551941,663.499634 978.990234,658.712036 978.990479,654.000000 
	C979.001587,443.000000 979.000000,232.000000 979.000000,21.000000 
	C979.000000,8.017557 979.000000,8.002344 966.000000,8.002228 
	C649.333313,7.999376 332.666656,8.000000 16.000000,8.000000 
"/>
<path fill="none" opacity="1.000000" stroke="#000000" stroke-linecap="round" stroke-linejoin="round" stroke-width="8.000000"
	d="
M1005.000000,8.000000 
	C1000.656372,8.908939 998.359863,11.298827 998.966248,16.004347 
	C999.177551,17.643780 999.000000,19.333334 999.000000,21.000000 
	C999.000000,686.333313 998.999695,1351.666626 999.009155,2017.000000 
	C999.009216,2021.187500 998.627747,2025.416504 1000.126343,2030.000000 
	C1500.333862,2030.000000 2000.667236,2030.000000 2501.000000,2030.000000 
	C2501.000000,1356.000000 2501.000000,683.000000 2501.000000,8.000000 
	C2002.668457,8.000000 1504.334229,8.000000 1006.000000,8.000000 
"/>
<path fill="none" opacity="1.000000" stroke="#000000" stroke-linecap="round" stroke-linejoin="round" stroke-width="8.000000"
	d="
M15.000000,689.000000 
	C11.328263,689.328247 9.239887,691.323181 9.029622,695.001709 
	C8.877694,697.659668 9.000000,700.333313 9.000000,703.000000 
	C9.000000,1141.000000 8.999381,1579.000000 9.009126,2017.000000 
	C9.009219,2021.187500 8.627756,2025.416504 10.208086,2030.250000 
	C332.499298,2030.250000 654.999390,2030.250000 978.250000,2030.250000 
	C978.250000,1583.500488 978.250000,1137.000488 978.250000,689.000000 
	C657.334900,689.000000 336.667450,689.000000 16.000000,689.000000 
"/>
<path fill="none" opacity="1.000000" stroke="#000000" stroke-linecap="round" stroke-linejoin="round" stroke-width="8.000000"
	d="
M15.000000,2051.000000 
	C11.328263,2051.328369 9.239876,2053.323242 9.029622,2057.001709 
	C8.877687,2059.659668 9.000000,2062.333252 9.000000,2065.000000 
	C9.000000,2550.333252 9.002376,3035.666748 8.970460,3521.000000 
	C8.970095,3526.565430 8.807059,3532.077881 12.309062,3537.000000 
	C314.000000,3537.000000 616.000000,3537.000000 917.536255,3537.000000 
	C922.143677,3530.895508 922.038452,3523.993896 922.037842,3517.000000 
	C921.996216,3033.000000 922.000000,2549.000000 922.000000,2065.000000 
	C922.000000,2051.000000 922.000000,2051.000000 908.000000,2051.000000 
	C610.666687,2051.000000 313.333344,2051.000000 16.000000,2051.000000 
"/>
<path fill="none" opacity="1.000000" stroke="#000000" stroke-linecap="round" stroke-linejoin="round" stroke-width="7.000000"
	d="
M947.000000,2051.000000 
	C943.108337,2052.276123 941.852478,2055.179443 941.987549,2059.000488 
	C942.058105,2060.998047 942.000000,2063.000000 942.000000,2065.000000 
	C942.000000,2456.333252 942.000000,2847.666748 942.000000,3239.000000 
	C942.000000,3253.000000 942.000000,3253.000000 956.000000,3253.000000 
	C1191.666626,3253.000000 1427.333374,3253.000000 1663.000000,3253.000000 
	C1675.982422,3253.000000 1675.997681,3253.000000 1675.997681,3240.000000 
	C1676.000488,2848.000000 1676.000488,2456.000000 1675.997681,2064.000000 
	C1675.997559,2051.000000 1675.982422,2051.000000 1663.000000,2051.000000 
	C1424.666626,2051.000000 1186.333374,2051.000000 948.000000,2051.000000 
"/>
<path fill="none" opacity="1.000000" stroke="#000000" stroke-linecap="round" stroke-linejoin="round" stroke-width="8.000000"
	d="
M1701.000000,2051.000000 
	C1697.108276,2052.276123 1695.852783,2055.179443 1695.987793,2059.000488 
	C1696.058350,2060.998047 1696.000000,2063.000000 1696.000000,2065.000000 
	C1696.000000,2549.666748 1696.000366,3034.333252 1695.995605,3519.000000 
	C1695.995605,3525.172363 1695.319336,3531.446777 1699.758057,3537.000000 
	C1966.333374,3537.000000 2233.666748,3537.000000 2501.000000,3537.000000 
	C2501.000000,3042.333252 2501.000000,2547.666748 2501.000000,2051.000000 
	C2234.669922,2051.000000 1968.334961,2051.000000 1702.000000,2051.000000 
"/>
<path fill="none" opacity="1.000000" stroke="#000000" stroke-linecap="round" stroke-linejoin="round" stroke-width="8.000000"
	d="
M947.000000,3273.000000 
	C941.833374,3274.583252 941.996033,3278.819092 941.996338,3283.000000 
	C942.001221,3363.666748 942.061096,3444.333496 941.839478,3524.999512 
	C941.826904,3529.566162 944.612671,3532.846924 945.179321,3537.000000 
	C1187.666626,3537.000000 1430.333374,3537.000000 1672.241943,3537.000000 
	C1676.680664,3531.446777 1676.005127,3525.172363 1676.004517,3519.000000 
	C1675.997681,3441.333252 1676.002441,3363.666748 1675.997681,3286.000000 
	C1675.996826,3273.000000 1675.982422,3273.000000 1663.000000,3273.000000 
	C1424.666626,3273.000000 1186.333374,3273.000000 948.000000,3273.000000 
"/>
</svg>