<svg version="1.1" id="Layer_1" xmlns="http://www.w3.org/2000/svg" xmlns:xlink="http://www.w3.org/1999/xlink" x="0px" y="0px"
	 width="100%" viewBox="0 0 2500 3541" enable-background="new 0 0 2500 3541" xml:space="preserve">
<path fill="none" opacity="1.000000" stroke="#000000" stroke-linecap="round" stroke-linejoin="round" stroke-width="7.000000"
	d="
M1793.000000,1408.000000 
	C1794.227783,1423.897217 1801.186035,1438.235596 1806.270874,1452.906128 
	C1840.413086,1551.413330 1873.499390,1650.276611 1907.019531,1748.993408 
	C1931.253052,1820.360596 1955.720337,1891.648438 1979.973267,1963.009033 
	C1989.470337,1990.953369 1998.575439,2019.031128 2008.112793,2046.961426 
	C2009.337280,2050.547363 2010.568848,2054.525391 2014.440063,2057.313965 
	C2176.419434,2031.198242 2338.778320,2005.021362 2501.000000,1978.866699 
	C2501.000000,1755.000000 2501.000000,1532.000000 2501.000000,1308.830811 
	C2489.866455,1304.929443 2478.764648,1308.834839 2468.051758,1310.363525 
	C2440.051514,1314.358765 2412.043945,1318.294922 2384.007812,1322.058350 
	C2353.640137,1326.134766 2323.340820,1330.721313 2292.997803,1334.984863 
	C2261.674072,1339.386230 2230.323242,1343.596069 2199.002930,1348.020020 
	C2168.989502,1352.259644 2139.010742,1356.743042 2108.997314,1360.981445 
	C2068.341309,1366.722900 2027.661133,1372.293945 1987.001831,1378.012817 
	C1956.659180,1382.280640 1926.338501,1386.703125 1895.998535,1390.989868 
	C1865.005005,1395.369019 1834.042114,1400.034058 1802.954346,1403.601929 
	C1798.312988,1404.134644 1794.171997,1409.716919 1789.000000,1405.500000 
"/>
<path fill="none" opacity="1.000000" stroke="#000000" stroke-linecap="round" stroke-linejoin="round" stroke-width="7.000000"
	d="
M11.000000,2378.000000 
	C20.921171,2381.023682 30.569576,2377.198242 39.936890,2375.624512 
	C68.585075,2370.810791 97.387093,2366.905029 125.959076,2361.772217 
	C160.593582,2355.550049 195.377838,2350.193115 230.075653,2344.457764 
	C256.970398,2340.012451 283.923004,2335.524902 310.979279,2331.847656 
	C337.740570,2328.210449 364.335602,2323.347168 390.999298,2318.995605 
	C413.336060,2315.350098 435.659973,2311.625244 458.001862,2308.011475 
	C480.993439,2304.292725 504.003265,2300.686768 526.999084,2296.994141 
	C549.669983,2293.353760 572.261658,2289.114502 595.020874,2286.160645 
	C616.290283,2283.399902 616.331665,2283.381348 611.114380,2262.970703 
	C599.642212,2218.090332 588.577271,2173.106201 577.879028,2128.028809 
	C568.116272,2086.893311 557.298767,2046.008667 547.009094,2004.997681 
	C535.302917,1958.341064 523.666687,1911.666626 512.000000,1865.000000 
	C502.333344,1826.333374 492.576508,1787.688843 483.022949,1748.994385 
	C471.260101,1701.351440 459.663635,1653.667358 448.002319,1605.999390 
	C445.323395,1595.048706 441.749115,1593.248047 428.000153,1596.000854 
	C392.595917,1603.089722 356.605591,1606.236328 320.982819,1611.891724 
	C290.399048,1616.747314 259.677887,1620.748047 228.997284,1624.980347 
	C187.341583,1630.726440 145.661652,1636.296753 104.001709,1642.012451 
	C75.326042,1645.946777 46.664581,1649.985107 18.001755,1654.012451 
	C12.276119,1654.816895 8.413766,1657.409302 8.978777,1664.001831 
	C9.120575,1665.656250 9.000000,1667.333374 9.000000,1669.000000 
	C9.000000,1901.000000 9.024348,2133.000000 8.870699,2365.000000 
	C8.866522,2371.308105 12.246773,2378.313232 6.500000,2384.000000 
"/>
<path fill="none" opacity="1.000000" stroke="#000000" stroke-linecap="round" stroke-linejoin="round" stroke-width="7.000000"
	d="
M1292.000000,2171.000000 
	C1290.757812,2158.101562 1285.344360,2146.325684 1282.101196,2133.973389 
	C1267.761108,2079.355225 1250.599121,2025.546143 1235.758423,1971.065796 
	C1228.363770,1943.919556 1219.792603,1917.061401 1212.000610,1889.999756 
	C1199.331787,1846.000488 1186.695679,1801.991699 1173.992432,1758.002197 
	C1159.358276,1707.326172 1144.660889,1656.668213 1130.002075,1605.999390 
	C1121.323853,1576.002808 1112.707031,1545.988159 1103.957275,1516.012451 
	C1102.618530,1511.425903 1101.547852,1506.618896 1098.066895,1503.067383 
	C1056.006836,1508.716675 1013.947388,1513.975952 972.017334,1520.118286 
	C937.033020,1525.242920 902.039062,1530.270386 867.002014,1535.014893 
	C825.986572,1540.568848 785.097473,1547.002686 744.015259,1552.122314 
	C714.270508,1555.829102 684.685425,1560.799927 654.995239,1564.965942 
	C618.348450,1570.108032 581.648865,1574.873657 545.007263,1580.051514 
	C525.681763,1582.782104 506.465485,1586.237671 487.007812,1588.082275 
	C478.923828,1588.848755 478.474091,1595.019775 480.095520,1600.973999 
	C485.961853,1622.515869 490.554352,1644.386230 496.275940,1665.926758 
	C507.403839,1707.820557 517.367310,1749.995605 527.807251,1792.047852 
	C540.039856,1841.320435 551.864502,1890.716675 564.374084,1939.904907 
	C581.830322,2008.543213 598.549072,2077.362793 615.960571,2146.010010 
	C626.176697,2186.288330 636.143921,2226.632080 645.864746,2267.032471 
	C647.572693,2274.130859 650.944214,2277.121094 657.998901,2275.993164 
	C685.001648,2271.676758 712.004944,2267.363770 738.998474,2262.990479 
	C761.339417,2259.370605 783.660583,2255.629150 806.001526,2252.009277 
	C832.994934,2247.635742 860.003296,2243.353760 886.999084,2238.994141 
	C913.670044,2234.687500 940.326721,2230.291992 967.001831,2226.011230 
	C994.326904,2221.626465 1021.674194,2217.380371 1048.997681,2212.985352 
	C1071.342651,2209.391113 1093.660034,2205.625488 1116.001831,2202.011719 
	C1138.993530,2198.293213 1162.001709,2194.677246 1184.999512,2190.996826 
	C1212.001465,2186.675781 1239.015381,2182.425781 1265.991211,2177.947266 
	C1274.761719,2176.491455 1283.872925,2176.338135 1292.000000,2172.000000 
"/>
<path fill="none" opacity="1.000000" stroke="#000000" stroke-linecap="round" stroke-linejoin="round" stroke-width="7.000000"
	d="
M1977.000000,2062.000000 
	C1975.151733,2045.493774 1967.961426,2030.559570 1962.872681,2015.041748 
	C1950.260132,1976.581299 1937.059814,1938.312988 1923.988525,1900.003906 
	C1887.021118,1791.659424 1849.973999,1683.342285 1813.011353,1574.996094 
	C1795.278931,1523.018555 1777.534302,1471.044067 1760.171509,1418.942749 
	C1758.059937,1412.606445 1756.120850,1410.884033 1748.967285,1411.719971 
	C1711.539795,1416.093384 1674.378296,1422.320679 1637.011108,1427.086914 
	C1600.959839,1431.685303 1564.991089,1436.937256 1529.002808,1442.019409 
	C1498.989380,1446.258057 1469.015503,1450.777588 1438.996216,1454.972900 
	C1397.677856,1460.747314 1356.319702,1466.236084 1315.004639,1472.032715 
	C1285.314453,1476.198242 1255.676392,1480.735107 1225.997070,1484.979858 
	C1199.677612,1488.743896 1173.359985,1492.549683 1146.974609,1495.793823 
	C1142.410889,1496.354980 1138.748047,1497.910767 1134.641602,1500.503174 
	C1137.390259,1517.171875 1143.413208,1533.408569 1148.083252,1549.976562 
	C1160.505005,1594.045532 1172.905396,1638.129272 1186.139526,1681.957886 
	C1196.199585,1715.274658 1206.019409,1748.694214 1215.508423,1782.139526 
	C1228.929443,1829.444214 1242.823242,1876.622070 1256.104004,1923.970825 
	C1271.659302,1979.428955 1288.021362,2034.660400 1303.989868,2090.002930 
	C1310.717407,2113.318604 1317.400757,2136.647949 1323.949219,2160.014160 
	C1325.448364,2165.364014 1328.416260,2167.895264 1333.999634,2166.997559 
	C1363.000366,2162.335449 1392.002563,2157.682861 1420.999268,2152.995361 
	C1447.669556,2148.684326 1474.326782,2144.292480 1501.001831,2140.011475 
	C1528.326782,2135.626465 1555.674194,2131.380127 1582.997681,2126.985107 
	C1605.342651,2123.390869 1627.659790,2119.624756 1650.001831,2116.011475 
	C1672.993408,2112.292725 1696.005005,2108.697510 1718.998657,2104.991699 
	C1745.670898,2100.693359 1772.326660,2096.291992 1799.001831,2092.011230 
	C1826.326904,2087.626465 1853.674194,2083.380371 1880.997681,2078.985352 
	C1903.342651,2075.390869 1925.681396,2071.752686 1947.992432,2067.955811 
	C1956.365845,2066.530518 1964.974487,2066.108154 1972.978271,2062.945068 
	C1975.699829,2061.869629 1977.871704,2062.231201 1980.000000,2064.000000 
"/>
<path fill="none" opacity="1.000000" stroke="#000000" stroke-linecap="round" stroke-linejoin="round" stroke-width="8.000000"
	d="
M2496.000000,2013.000000 
	C2464.666748,2018.000000 2433.252930,2022.549805 2402.021240,2028.119263 
	C2366.733154,2034.411865 2331.280762,2039.716919 2295.933594,2045.600830 
	C2265.035645,2050.744141 2234.066406,2055.749268 2203.016602,2060.118408 
	C2176.269775,2063.881836 2149.664551,2068.652832 2123.000732,2073.004395 
	C2100.664062,2076.649902 2078.339355,2080.370605 2055.998535,2083.990723 
	C2029.005005,2088.364014 2002.004639,2092.695557 1974.998535,2096.990967 
	C1951.671997,2100.700684 1928.317139,2104.233643 1905.004761,2108.028809 
	C1883.315918,2111.559570 1861.695435,2115.515137 1839.993530,2118.958984 
	C1803.350464,2124.774170 1766.536377,2129.612793 1730.037598,2136.208252 
	C1695.408203,2142.466064 1660.600342,2147.635010 1625.924194,2153.555908 
	C1599.061401,2158.142822 1572.071289,2162.442627 1545.020020,2166.146240 
	C1518.261719,2169.809814 1491.664307,2174.652588 1465.000732,2179.004395 
	C1442.663818,2182.649902 1420.340088,2186.375000 1397.998169,2189.988525 
	C1375.006592,2193.707031 1351.994995,2197.302246 1329.001343,2201.008057 
	C1302.329102,2205.306641 1275.673218,2209.707764 1248.998169,2213.988770 
	C1221.673218,2218.373779 1194.325806,2222.619385 1167.002319,2227.014648 
	C1144.657349,2230.609131 1122.339355,2234.370605 1099.998413,2237.990479 
	C1073.005005,2242.364014 1045.991699,2246.615967 1019.002563,2251.015625 
	C996.989807,2254.604248 975.013550,2258.417480 952.996277,2261.976807 
	C929.679504,2265.746094 906.333557,2269.334961 882.999939,2272.999512 
	C842.666809,2279.334229 802.210693,2284.984375 762.037292,2292.207275 
	C727.403137,2298.434326 692.602356,2303.652832 657.923462,2309.549805 
	C631.057068,2314.118896 604.050842,2318.321289 577.017578,2322.124756 
	C550.270630,2325.887939 523.664368,2330.652588 497.000702,2335.004395 
	C474.663910,2338.649902 452.345764,2342.411133 429.996857,2345.980225 
	C402.343384,2350.396240 374.656616,2354.603760 347.003143,2359.019775 
	C324.654236,2362.588623 302.339355,2366.370605 279.998444,2369.990479 
	C253.005005,2374.364258 225.995010,2378.635986 199.001572,2383.009521 
	C176.660675,2386.629639 154.340042,2390.375000 131.998138,2393.988525 
	C109.006516,2397.707031 85.994362,2401.298584 63.002071,2405.012695 
	C48.990807,2407.276367 35.033859,2409.902832 20.988110,2411.916992 
	C11.541289,2413.272217 8.819246,2414.855957 8.843150,2426.000244 
	C9.096246,2543.999756 9.000000,2662.000000 9.000000,2780.000000 
	C9.000000,3028.333252 9.000000,3276.666748 9.000000,3525.000000 
	C9.000000,3527.000000 8.876122,3529.009033 9.020910,3530.998535 
	C9.747924,3540.987549 11.954731,3543.000000 22.000000,3543.000000 
	C848.333313,3543.000000 1674.666626,3543.000000 2501.000000,3543.000000 
	C2501.000000,3036.666748 2501.008789,2530.333252 2500.809814,2024.000122 
	C2500.808594,2020.746948 2504.621826,2014.817993 2497.000000,2014.000000 
"/>
<path fill="none" opacity="1.000000" stroke="#000000" stroke-linecap="round" stroke-linejoin="round" stroke-width="8.000000"
	d="
M15.000000,7.000000 
	C10.781504,8.002794 7.779428,9.858582 8.956820,15.009870 
	C9.246440,16.277006 9.000000,17.666666 9.000000,19.000000 
	C9.000000,548.333313 8.999483,1077.666626 9.009114,1607.000000 
	C9.009191,1611.187500 8.627756,1615.416504 10.047166,1619.757812 
	C21.507019,1622.936890 32.904984,1619.124878 43.942005,1617.584473 
	C76.619957,1613.023560 109.272087,1608.262573 141.985245,1603.889648 
	C173.053879,1599.736328 203.902512,1593.824463 235.025650,1590.221558 
	C270.775787,1586.082886 306.275604,1580.253296 341.966064,1575.732056 
	C372.347595,1571.883301 402.641602,1567.160522 432.997650,1562.982910 
	C473.673767,1557.385132 514.340027,1551.714111 554.997559,1545.982544 
	C580.344055,1542.409424 605.651184,1538.555664 631.003662,1535.026123 
	C667.656006,1529.923340 704.346008,1525.091064 740.995972,1519.971313 
	C771.015564,1515.777954 800.984436,1511.222168 831.003784,1507.026978 
	C872.322021,1501.252563 913.677979,1495.747437 954.996216,1489.973022 
	C985.015564,1485.777832 1014.984436,1481.222046 1045.003784,1477.026855 
	C1086.322144,1471.252563 1127.677856,1465.747437 1168.996216,1459.973022 
	C1199.015503,1455.777832 1228.984497,1451.222168 1259.003784,1447.026855 
	C1300.322144,1441.252563 1341.677856,1435.747559 1382.996216,1429.973022 
	C1413.015503,1425.777710 1442.984497,1421.222290 1473.003784,1417.026855 
	C1514.322144,1411.252563 1555.682617,1405.780029 1596.994629,1399.961426 
	C1626.355835,1395.826294 1655.637329,1391.121704 1685.006958,1387.050537 
	C1727.312988,1381.186523 1769.684814,1375.798340 1811.993774,1369.955322 
	C1841.692505,1365.853882 1871.314697,1361.200073 1901.004761,1357.034058 
	C1937.651489,1351.892090 1974.346069,1347.091187 2010.995972,1341.971558 
	C2041.015503,1337.777954 2070.984375,1333.221924 2101.003906,1329.028564 
	C2137.654053,1323.908936 2174.345947,1319.091431 2210.996094,1313.971558 
	C2241.015625,1309.778076 2270.984375,1305.222412 2301.003662,1301.027100 
	C2342.322021,1295.252563 2383.732422,1290.099487 2424.975830,1283.840332 
	C2450.327881,1279.992798 2475.947510,1277.779053 2501.000000,1272.238892 
	C2501.000000,851.333313 2501.000000,430.666656 2501.000000,9.999475 
	C2496.551025,6.244501 2491.183838,7.010064 2486.000000,7.009998 
	C1662.666626,6.999555 839.333313,7.000000 16.000000,7.000000 
"/>
</svg>