<svg version="1.1" id="Layer_1" xmlns="http://www.w3.org/2000/svg" xmlns:xlink="http://www.w3.org/1999/xlink" x="0px" y="0px"
	 width="100%" viewBox="0 0 2520 3540" enable-background="new 0 0 2520 3540" xml:space="preserve">
<path fill="none" opacity="1.000000" stroke="#000000" stroke-linecap="round" stroke-linejoin="round" stroke-width="7.000000"
	d="
M15.000000,8.000000 
	C10.656363,8.908939 8.359838,11.298824 8.966318,16.004341 
	C9.177620,17.643774 9.000000,19.333334 9.000000,21.000000 
	C9.000000,287.000000 9.000010,553.000000 8.999998,819.000000 
	C8.999998,831.982422 9.000004,831.997742 22.000000,831.997864 
	C409.333344,832.000549 796.666687,832.000427 1184.000000,831.997925 
	C1195.983765,831.997864 1195.997681,831.983826 1195.997803,820.000000 
	C1196.000488,553.666687 1196.000000,287.333344 1196.000000,21.000000 
	C1196.000000,7.999990 1196.000000,7.999999 1183.000000,7.999999 
	C794.000000,8.000001 405.000000,8.000000 16.000000,8.000000 
"/>
<path fill="none" opacity="1.000000" stroke="#000000" stroke-linecap="round" stroke-linejoin="round" stroke-width="7.000000"
	d="
M1341.000000,8.000000 
	C1337.575562,8.535175 1335.852905,10.448714 1335.983765,14.000598 
	C1336.069702,16.330765 1336.000000,18.666666 1336.000000,21.000000 
	C1336.000000,287.000000 1336.000000,553.000000 1336.000000,819.000000 
	C1336.000000,832.000000 1336.000000,832.000000 1349.000000,832.000000 
	C1735.000000,832.000000 2121.000000,832.000244 2507.000000,831.997070 
	C2511.758545,831.997009 2516.619873,832.672363 2521.000000,829.272583 
	C2521.000000,556.666687 2521.000000,283.333344 2521.000000,8.000000 
	C2128.002197,8.000000 1735.001099,8.000000 1342.000000,8.000000 
"/>
<path fill="none" opacity="1.000000" stroke="#000000" stroke-linecap="round" stroke-linejoin="round" stroke-width="8.000000"
	d="
M15.000000,911.000000 
	C11.328263,911.328247 9.239883,913.323181 9.029622,917.001709 
	C8.877690,919.659668 9.000000,922.333313 9.000000,925.000000 
	C9.000000,1189.000000 9.000010,1453.000000 8.999998,1717.000000 
	C8.999998,1729.982422 9.000004,1729.997681 22.000000,1729.997681 
	C409.333344,1730.000488 796.666687,1730.000488 1184.000000,1729.998047 
	C1195.983765,1729.997925 1195.997681,1729.983765 1195.997803,1718.000000 
	C1196.000488,1453.333374 1196.000732,1188.666626 1195.997681,924.000000 
	C1195.997559,911.000000 1195.982422,911.000000 1183.000000,911.000000 
	C794.000000,911.000000 405.000000,911.000000 16.000000,911.000000 
"/>
<path fill="none" opacity="1.000000" stroke="#000000" stroke-linecap="round" stroke-linejoin="round" stroke-width="8.000000"
	d="
M1341.000000,911.000000 
	C1337.108276,912.276062 1335.852539,915.179443 1335.987549,919.000427 
	C1336.058105,920.997925 1336.000000,923.000000 1336.000000,925.000000 
	C1336.000000,1189.000000 1336.000000,1453.000000 1336.000000,1717.000000 
	C1336.000000,1730.000000 1336.000000,1730.000000 1349.000000,1730.000000 
	C1735.000000,1730.000000 2121.000000,1730.000244 2507.000000,1729.997070 
	C2511.758545,1729.996948 2516.619873,1730.672363 2521.000000,1727.272583 
	C2521.000000,1456.333374 2521.000000,1184.666626 2521.000000,911.000000 
	C2128.002197,911.000000 1735.001099,911.000000 1342.000000,911.000000 
"/>
<path fill="none" opacity="1.000000" stroke="#000000" stroke-linecap="round" stroke-linejoin="round" stroke-width="8.000000"
	d="
M15.000000,1809.000000 
	C11.328263,1809.328247 9.239883,1811.323242 9.029622,1815.001709 
	C8.877694,1817.659668 9.000000,1820.333374 9.000000,1823.000000 
	C9.000000,2089.000000 9.000010,2355.000000 8.999999,2621.000000 
	C8.999998,2633.982422 9.000004,2633.997559 22.000000,2633.997803 
	C409.333344,2634.000488 796.666687,2634.000488 1184.000000,2633.998047 
	C1195.983765,2633.998047 1195.997681,2633.983887 1195.997803,2622.000000 
	C1196.000488,2355.333252 1196.000732,2088.666748 1195.997803,1822.000000 
	C1195.997559,1809.000000 1195.982422,1809.000000 1183.000000,1809.000000 
	C794.000000,1809.000000 405.000000,1809.000000 16.000000,1809.000000 
"/>
<path fill="none" opacity="1.000000" stroke="#000000" stroke-linecap="round" stroke-linejoin="round" stroke-width="8.000000"
	d="
M1341.000000,1809.000000 
	C1337.108276,1810.276001 1335.852539,1813.179443 1335.987549,1817.000488 
	C1336.058228,1818.997925 1336.000000,1821.000000 1336.000000,1823.000000 
	C1336.000000,2089.000000 1336.000000,2355.000000 1336.000000,2621.000000 
	C1336.000000,2634.000000 1336.000000,2634.000000 1349.000000,2634.000000 
	C1735.000000,2634.000000 2121.000000,2634.000244 2507.000000,2633.997070 
	C2511.758545,2633.997070 2516.619873,2634.672363 2521.000000,2631.272705 
	C2521.000000,2358.333252 2521.000000,2084.666748 2521.000000,1809.000000 
	C2128.002197,1809.000000 1735.001099,1809.000000 1342.000000,1809.000000 
"/>
<path fill="none" opacity="1.000000" stroke="#000000" stroke-linecap="round" stroke-linejoin="round" stroke-width="8.000000"
	d="
M15.000000,2713.000000 
	C11.328263,2713.328369 9.239876,2715.323242 9.029630,2719.001709 
	C8.877687,2721.659668 9.000000,2724.333252 9.000000,2727.000000 
	C9.000000,2993.000000 9.004337,3259.000000 8.970262,3525.000000 
	C8.969548,3530.565430 8.807059,3536.077881 12.309062,3541.000000 
	C405.666656,3541.000000 799.333313,3541.000000 1192.241943,3541.000000 
	C1196.680664,3535.446777 1196.004517,3529.172363 1196.004395,3523.000000 
	C1195.999268,3257.666748 1196.000000,2992.333252 1196.000000,2727.000000 
	C1196.000000,2713.000000 1196.000000,2713.000000 1182.000000,2713.000000 
	C793.333313,2713.000000 404.666656,2713.000000 16.000000,2713.000000 
"/>
<path fill="none" opacity="1.000000" stroke="#000000" stroke-linecap="round" stroke-linejoin="round" stroke-width="8.000000"
	d="
M1341.000000,2713.000000 
	C1337.108276,2714.276123 1335.852539,2717.179443 1335.987549,2721.000488 
	C1336.058105,2722.998047 1336.000000,2725.000000 1336.000000,2727.000000 
	C1336.000000,2992.333252 1336.000732,3257.666748 1335.995605,3523.000000 
	C1335.995483,3529.172363 1335.319336,3535.446777 1339.758057,3541.000000 
	C1733.000000,3541.000000 2127.000000,3541.000000 2521.000000,3541.000000 
	C2521.000000,3265.666748 2521.000000,2990.333252 2521.000000,2713.000000 
	C2128.002197,2713.000000 1735.001099,2713.000000 1342.000000,2713.000000 
"/>
</svg>