<svg version="1.1" id="Layer_1" xmlns="http://www.w3.org/2000/svg" xmlns:xlink="http://www.w3.org/1999/xlink" x="0px" y="0px"
	 width="100%" viewBox="0 0 2504 3638" enable-background="new 0 0 2504 3638" xml:space="preserve">
<path fill="none" opacity="1.000000" stroke="#000000" stroke-linecap="round" stroke-linejoin="round" stroke-width="7.000000"
	d="
M81.000000,74.000000 
	C74.365982,75.139023 74.967216,80.123367 74.971519,85.000023 
	C75.017365,136.999985 75.000000,189.000000 75.000000,241.000000 
	C75.000000,264.000000 75.278816,287.005249 74.845337,309.997070 
	C74.698128,317.805023 77.694366,320.620575 85.001297,320.015625 
	C86.325554,319.906006 87.666664,320.000000 89.000000,320.000000 
	C452.333344,320.000000 815.666687,320.000000 1179.000000,320.000000 
	C1192.000000,320.000000 1192.000000,320.000000 1192.000000,307.000000 
	C1192.000000,233.333328 1192.002075,159.666672 1191.997803,86.000000 
	C1191.997070,74.016182 1191.983765,74.002129 1180.000000,74.002045 
	C814.000000,73.999542 448.000000,74.000000 82.000000,74.000000 
"/>
<path fill="none" opacity="1.000000" stroke="#000000" stroke-linecap="round" stroke-linejoin="round" stroke-width="7.000000"
	d="
M1329.000000,74.000000 
	C1322.230957,75.347389 1324.051758,80.741951 1324.047119,85.000053 
	C1323.978882,148.333313 1324.000000,211.666672 1324.000000,275.000000 
	C1324.000000,287.333344 1324.204102,299.671478 1323.912354,311.997925 
	C1323.770508,317.992401 1325.998413,320.625824 1332.002563,320.025085 
	C1333.652588,319.859985 1335.333374,320.000000 1337.000000,320.000000 
	C1699.666626,320.000000 2062.333252,320.000000 2425.000000,320.000000 
	C2438.000000,320.000000 2438.000000,320.000000 2438.000000,307.000000 
	C2438.000000,233.333328 2438.002197,159.666672 2437.998047,86.000000 
	C2437.997314,74.016182 2437.983887,74.002121 2426.000000,74.002037 
	C2060.666748,73.999535 1695.333374,74.000000 1330.000000,74.000000 
"/>
<path fill="none" opacity="1.000000" stroke="#000000" stroke-linecap="round" stroke-linejoin="round" stroke-width="8.000000"
	d="
M81.000000,387.000000 
	C77.328262,387.328278 75.239876,389.323212 75.029617,393.001678 
	C74.877686,395.659668 75.000000,398.333344 75.000000,401.000000 
	C75.000000,639.666687 74.998894,878.333313 75.009186,1117.000000 
	C75.009361,1121.187500 74.627754,1125.416504 75.964371,1129.504639 
	C80.154167,1131.552734 84.622520,1130.985229 89.000000,1130.985474 
	C452.333344,1131.001343 815.666687,1131.000000 1179.000000,1131.000000 
	C1191.982422,1131.000000 1191.997559,1131.000000 1191.997681,1118.000000 
	C1192.000854,878.666687 1192.000732,639.333313 1191.997681,400.000000 
	C1191.997559,387.000000 1191.982422,387.000000 1179.000000,387.000000 
	C813.333313,387.000000 447.666656,387.000000 82.000000,387.000000 
"/>
<path fill="none" opacity="1.000000" stroke="#000000" stroke-linecap="round" stroke-linejoin="round" stroke-width="8.000000"
	d="
M1329.000000,387.000000 
	C1325.108276,388.276031 1323.852539,391.179443 1323.987549,395.000427 
	C1324.058105,396.997955 1324.000000,399.000000 1324.000000,401.000000 
	C1324.000000,639.666687 1324.000000,878.333313 1324.000000,1117.000000 
	C1324.000000,1131.000000 1324.000000,1131.000000 1338.000000,1131.000000 
	C1700.333374,1131.000000 2062.666748,1131.000000 2425.000000,1131.000000 
	C2437.982422,1131.000000 2437.997559,1131.000000 2437.997559,1118.000000 
	C2438.000732,878.666687 2438.000977,639.333313 2437.997803,400.000000 
	C2437.997559,387.000000 2437.982422,387.000000 2425.000000,387.000000 
	C2060.000000,387.000000 1695.000000,387.000000 1330.000000,387.000000 
"/>
<path fill="none" opacity="1.000000" stroke="#000000" stroke-linecap="round" stroke-linejoin="round" stroke-width="7.000000"
	d="
M81.000000,1198.000000 
	C76.656364,1198.908936 74.359840,1201.298828 74.966316,1206.004395 
	C75.177605,1207.643677 75.000000,1209.333374 75.000000,1211.000000 
	C75.000000,1450.333374 75.000008,1689.666626 75.000000,1929.000000 
	C75.000000,1941.982422 75.000008,1941.997681 88.000000,1941.997681 
	C452.000000,1942.000488 816.000000,1942.000610 1180.000000,1941.998047 
	C1191.983765,1941.998047 1191.997803,1941.983765 1191.997925,1930.000000 
	C1192.000732,1690.000000 1192.000610,1450.000000 1191.997803,1210.000000 
	C1191.997681,1198.016235 1191.983765,1198.002197 1180.000000,1198.002075 
	C814.000000,1197.999634 448.000000,1198.000000 82.000000,1198.000000 
"/>
<path fill="none" opacity="1.000000" stroke="#000000" stroke-linecap="round" stroke-linejoin="round" stroke-width="7.000000"
	d="
M1329.000000,1198.000000 
	C1325.575562,1198.535156 1323.852783,1200.448730 1323.983765,1204.000610 
	C1324.069702,1206.330811 1324.000000,1208.666626 1324.000000,1211.000000 
	C1324.000000,1450.333374 1324.000000,1689.666626 1324.000000,1929.000000 
	C1324.000000,1942.000000 1324.000000,1942.000000 1337.000000,1942.000000 
	C1699.666626,1942.000000 2062.333252,1942.000000 2425.000000,1942.000000 
	C2438.000000,1942.000000 2438.000000,1942.000000 2438.000000,1929.000000 
	C2438.000000,1689.666626 2438.000000,1450.333374 2438.000000,1211.000000 
	C2438.000000,1198.000000 2438.000000,1198.000000 2425.000000,1198.000000 
	C2060.000000,1198.000000 1695.000000,1198.000000 1330.000000,1198.000000 
"/>
<path fill="none" opacity="1.000000" stroke="#000000" stroke-linecap="round" stroke-linejoin="round" stroke-width="8.000000"
	d="
M81.000000,2009.000000 
	C77.328262,2009.328247 75.239883,2011.323242 75.029625,2015.001709 
	C74.877686,2017.659668 75.000000,2020.333374 75.000000,2023.000000 
	C75.000000,2263.666748 75.000015,2504.333252 75.000000,2745.000000 
	C75.000000,2757.982422 75.000008,2757.997559 88.000000,2757.997803 
	C452.000000,2758.000488 816.000000,2758.000488 1180.000000,2757.998047 
	C1191.983765,2757.998047 1191.997803,2757.983887 1191.997925,2746.000000 
	C1192.000732,2504.666748 1192.000854,2263.333252 1191.997803,2022.000000 
	C1191.997559,2009.000000 1191.982422,2009.000000 1179.000000,2009.000000 
	C813.333313,2009.000000 447.666656,2009.000000 82.000000,2009.000000 
"/>
<path fill="none" opacity="1.000000" stroke="#000000" stroke-linecap="round" stroke-linejoin="round" stroke-width="7.000000"
	d="
M1329.000000,2009.000000 
	C1325.108276,2010.276001 1323.852539,2013.179443 1323.987549,2017.000488 
	C1324.058105,2018.997925 1324.000000,2021.000000 1324.000000,2023.000000 
	C1324.000000,2263.666748 1324.000000,2504.333252 1324.000000,2745.000000 
	C1324.000000,2758.000000 1324.000000,2758.000000 1337.000000,2758.000000 
	C1699.666626,2758.000000 2062.333252,2758.000000 2425.000000,2758.000000 
	C2438.000000,2758.000000 2438.000000,2758.000000 2438.000000,2745.000000 
	C2438.000000,2504.333252 2438.000000,2263.666748 2438.000000,2023.000000 
	C2438.000000,2009.000000 2438.000000,2009.000000 2424.000000,2009.000000 
	C2059.333252,2009.000000 1694.666626,2009.000000 1330.000000,2009.000000 
"/>
<path fill="none" opacity="1.000000" stroke="#000000" stroke-linecap="round" stroke-linejoin="round" stroke-width="8.000000"
	d="
M81.000000,2826.000000 
	C76.656364,2826.908936 74.359825,2829.298828 74.966316,2834.004395 
	C75.177605,2835.643799 75.000000,2837.333252 75.000000,2839.000000 
	C75.000000,3077.666748 74.998894,3316.333252 75.009186,3555.000000 
	C75.009361,3559.187500 74.627754,3563.416504 75.964371,3567.504639 
	C80.154167,3569.552734 84.622520,3568.985107 89.000000,3568.985352 
	C452.333344,3569.001221 815.666687,3569.000000 1179.000000,3569.000000 
	C1191.982422,3569.000000 1191.997559,3569.000000 1191.997681,3556.000000 
	C1192.000732,3316.666748 1192.000610,3077.333252 1191.997925,2838.000000 
	C1191.997681,2826.016113 1191.983765,2826.001953 1180.000000,2826.001953 
	C814.000000,2825.999512 448.000000,2826.000000 82.000000,2826.000000 
"/>
<path fill="none" opacity="1.000000" stroke="#000000" stroke-linecap="round" stroke-linejoin="round" stroke-width="7.000000"
	d="
M1329.000000,2826.000000 
	C1325.575562,2826.535156 1323.852783,2828.448730 1323.983765,2832.000488 
	C1324.069702,2834.330566 1324.000000,2836.666748 1324.000000,2839.000000 
	C1324.000000,3077.666748 1324.000000,3316.333252 1324.000000,3555.000000 
	C1324.000000,3569.000000 1324.000000,3569.000000 1338.000000,3569.000000 
	C1700.333374,3569.000000 2062.666748,3569.000000 2425.000000,3569.000000 
	C2437.982422,3569.000000 2437.997559,3569.000000 2437.997803,3556.000000 
	C2438.000977,3316.666748 2438.000732,3077.333252 2437.998047,2838.000000 
	C2437.997803,2826.016113 2437.983887,2826.001953 2426.000000,2826.001953 
	C2060.666748,2825.999512 1695.333374,2826.000000 1330.000000,2826.000000 
"/>
</svg>