<svg version="1.1" id="Layer_1" xmlns="http://www.w3.org/2000/svg" xmlns:xlink="http://www.w3.org/1999/xlink" x="0px" y="0px"
	 width="100%" viewBox="0 0 2500 3536" enable-background="new 0 0 2500 3536" xml:space="preserve">
<path fill="none" opacity="1.000000" stroke="#000000" stroke-linecap="round" stroke-linejoin="round" stroke-width="7.000000"
	d="
M15.000000,8.000000 
	C10.656363,8.908939 8.359838,11.298824 8.966318,16.004341 
	C9.177620,17.643774 9.000000,19.333334 9.000000,21.000000 
	C9.000000,359.000000 9.000013,697.000000 8.999999,1035.000000 
	C8.999998,1047.982422 9.000004,1047.997437 22.000000,1047.997681 
	C211.333328,1048.000977 400.666656,1048.000977 590.000000,1047.997803 
	C602.893799,1047.997559 603.997742,1046.893799 603.997803,1034.000000 
	C604.000610,696.000000 604.000488,358.000000 603.997925,20.000000 
	C603.997864,8.016185 603.983765,8.002263 592.000000,8.002079 
	C400.000000,7.999130 208.000000,8.000000 16.000000,8.000000 
"/>
<path fill="none" opacity="1.000000" stroke="#000000" stroke-linecap="round" stroke-linejoin="round" stroke-width="7.000000"
	d="
M629.000000,8.000000 
	C622.230957,9.347391 624.052246,14.741927 624.047363,19.000055 
	C623.977844,79.333313 624.000000,139.666672 624.000000,200.000000 
	C624.000000,217.333328 623.950562,234.666870 624.018555,251.999924 
	C624.059143,262.341644 625.658691,263.859100 636.000000,263.998230 
	C636.999817,264.011658 638.000000,264.000000 639.000000,264.000000 
	C1255.000000,264.000000 1871.000000,264.000183 2487.000000,263.997101 
	C2491.758545,263.997101 2496.619873,264.672363 2501.000000,261.272583 
	C2501.000000,178.000000 2501.000000,94.000000 2501.000000,8.000000 
	C1877.334717,8.000000 1253.667358,8.000000 630.000000,8.000000 
"/>
<path fill="none" opacity="1.000000" stroke="#000000" stroke-linecap="round" stroke-linejoin="round" stroke-width="7.000000"
	d="
M629.000000,284.000000 
	C625.575562,284.535187 623.852783,286.448730 623.983765,290.000610 
	C624.069702,292.330780 624.000000,294.666656 624.000000,297.000000 
	C624.000000,543.000000 624.000000,789.000000 624.000000,1035.000000 
	C624.000000,1048.000000 624.000000,1048.000000 637.000000,1048.000000 
	C823.000000,1048.000000 1009.000000,1048.000000 1195.000000,1048.000000 
	C1208.000000,1048.000000 1208.000000,1048.000000 1208.000000,1035.000000 
	C1208.000000,789.000000 1208.000000,543.000000 1208.000000,297.000000 
	C1208.000000,284.000000 1208.000000,284.000000 1195.000000,284.000000 
	C1006.666687,284.000000 818.333313,284.000000 630.000000,284.000000 
"/>
<path fill="none" opacity="1.000000" stroke="#000000" stroke-linecap="round" stroke-linejoin="round" stroke-width="7.000000"
	d="
M1235.000000,284.000000 
	C1230.656372,284.908936 1228.359863,287.298828 1228.966309,292.004333 
	C1229.177612,293.643768 1229.000000,295.333344 1229.000000,297.000000 
	C1229.000000,543.000000 1229.000000,789.000000 1229.000000,1035.000000 
	C1229.000000,1047.982422 1229.000000,1047.997681 1242.000000,1047.997803 
	C1657.333374,1048.000488 2072.666748,1047.999512 2488.000000,1048.007568 
	C2492.445068,1048.007690 2496.938721,1048.435059 2501.000000,1045.246948 
	C2501.000000,792.666687 2501.000000,539.333313 2501.000000,284.000000 
	C2079.335449,284.000000 1657.667725,284.000000 1236.000000,284.000000 
"/>
<path fill="none" opacity="1.000000" stroke="#000000" stroke-linecap="round" stroke-linejoin="round" stroke-width="7.000000"
	d="
M15.000000,1068.000000 
	C10.656363,1068.908936 8.359852,1071.298828 8.966343,1076.004395 
	C9.177638,1077.643677 9.000000,1079.333374 9.000000,1081.000000 
	C9.000000,1395.000000 9.000012,1709.000000 8.999998,2023.000000 
	C8.999998,2035.982422 9.000004,2035.997559 22.000000,2035.997803 
	C232.666672,2036.000977 443.333344,2036.000977 654.000000,2035.997803 
	C666.893799,2035.997559 667.997681,2034.893799 667.997803,2022.000000 
	C668.000671,1708.666626 668.000610,1395.333374 667.997803,1082.000000 
	C667.997681,1069.106201 666.893799,1068.002441 654.000000,1068.002197 
	C441.333344,1067.999146 228.666672,1068.000000 16.000000,1068.000000 
"/>
<path fill="none" opacity="1.000000" stroke="#000000" stroke-linecap="round" stroke-linejoin="round" stroke-width="7.000000"
	d="
M695.000000,1068.000000 
	C689.741272,1069.285522 687.603943,1072.731689 687.981506,1078.001343 
	C688.100281,1079.659424 688.000000,1081.333374 688.000000,1083.000000 
	C688.000000,1396.333374 688.000000,1709.666626 688.000000,2023.000000 
	C688.000000,2036.000000 688.000000,2036.000000 701.000000,2036.000000 
	C823.666687,2036.000000 946.333313,2036.000000 1069.000000,2036.000000 
	C1082.000000,2036.000000 1082.000000,2036.000000 1082.000000,2023.000000 
	C1082.000000,1709.666626 1082.000000,1396.333374 1082.000000,1083.000000 
	C1082.000000,1068.783081 1081.216919,1068.000000 1067.000000,1068.000000 
	C943.333313,1068.000000 819.666687,1068.000000 696.000000,1068.000000 
"/>
<path fill="none" opacity="1.000000" stroke="#000000" stroke-linecap="round" stroke-linejoin="round" stroke-width="7.000000"
	d="
M1109.000000,1068.000000 
	C1103.741333,1069.285522 1101.603882,1072.731812 1101.981445,1078.001343 
	C1102.100220,1079.659424 1102.000000,1081.333374 1102.000000,1083.000000 
	C1102.000000,1895.000000 1102.000244,2707.000000 1101.995728,3519.000000 
	C1101.995605,3525.172363 1101.319336,3531.446777 1105.758057,3537.000000 
	C1570.333374,3537.000000 2035.666626,3537.000000 2501.000000,3537.000000 
	C2501.000000,2715.000000 2501.000000,1893.000000 2501.000000,1070.895020 
	C2493.204834,1068.360474 2485.128662,1067.996216 2477.000000,1067.996338 
	C2021.333374,1068.000488 1565.666626,1068.000000 1110.000000,1068.000000 
"/>
<path fill="none" opacity="1.000000" stroke="#000000" stroke-linecap="round" stroke-linejoin="round" stroke-width="7.000000"
	d="
M15.000000,2056.000000 
	C10.656363,2056.908936 8.359821,2059.298828 8.966312,2064.004395 
	C9.177608,2065.643799 9.000000,2067.333252 9.000000,2069.000000 
	C9.000000,2553.000000 9.002400,3037.000000 8.970457,3521.000000 
	C8.970090,3526.565430 8.807059,3532.077881 12.309062,3537.000000 
	C367.666656,3537.000000 723.333313,3537.000000 1078.241943,3537.000000 
	C1082.680664,3531.446777 1082.004395,3525.172363 1082.004395,3519.000000 
	C1081.999634,3036.333252 1082.000000,2553.666748 1082.000000,2071.000000 
	C1082.000000,2056.783203 1081.216919,2056.000000 1067.000000,2056.000000 
	C716.666687,2056.000000 366.333344,2056.000000 16.000000,2056.000000 
"/>
</svg>