<svg version="1.1" id="Layer_1" xmlns="http://www.w3.org/2000/svg" xmlns:xlink="http://www.w3.org/1999/xlink" x="0px" y="0px"
	 width="100%" viewBox="0 0 2500 3536" enable-background="new 0 0 2500 3536" xml:space="preserve">
<path fill="none" opacity="1.000000" stroke="#000000" stroke-linecap="round" stroke-linejoin="round" stroke-width="8.000000"
	d="
M15.000000,8.000000 
	C10.656363,8.908939 8.359838,11.298824 8.966318,16.004341 
	C9.177620,17.643774 9.000000,19.333334 9.000000,21.000000 
	C9.000000,303.666656 8.999062,586.333313 9.009158,869.000000 
	C9.009308,873.187439 8.627756,877.416443 9.964374,881.504578 
	C14.154171,883.552734 18.622509,882.984558 23.000002,882.985168 
	C146.333328,883.003662 269.666656,883.000000 393.000000,883.000000 
	C405.982452,883.000000 405.997650,883.000000 405.997803,870.000000 
	C406.000702,586.666687 406.000610,303.333344 405.997955,20.000000 
	C405.997833,8.016185 405.983765,8.002441 394.000000,8.002116 
	C268.000000,7.998693 142.000000,8.000000 16.000000,8.000000 
"/>
<path fill="none" opacity="1.000000" stroke="#000000" stroke-linecap="round" stroke-linejoin="round" stroke-width="8.000000"
	d="
M431.000000,8.000000 
	C427.575531,8.535175 425.852875,10.448714 425.983826,14.000596 
	C426.069702,16.330765 426.000000,18.666666 426.000000,21.000000 
	C426.000000,302.666656 426.004791,584.333313 425.964478,866.000000 
	C425.963715,871.507935 426.030884,876.922241 428.751007,882.500000 
	C650.166687,882.500000 871.833313,882.500000 1093.276855,882.500000 
	C1095.551880,877.499634 1094.990234,872.712036 1094.990479,868.000000 
	C1095.001099,585.666687 1095.000000,303.333344 1095.000000,21.000000 
	C1095.000000,8.017557 1095.000000,8.002443 1082.000000,8.002254 
	C865.333313,7.999094 648.666687,8.000000 432.000000,8.000000 
"/>
<path fill="none" opacity="1.000000" stroke="#000000" stroke-linecap="round" stroke-linejoin="round" stroke-width="8.000000"
	d="
M1121.000000,8.000000 
	C1117.575562,8.535175 1115.852905,10.448714 1115.983887,14.000593 
	C1116.069824,16.330761 1116.000000,18.666666 1116.000000,21.000000 
	C1116.000000,303.666656 1116.000000,586.333313 1116.000000,869.000000 
	C1116.000000,883.000000 1116.000000,883.000000 1130.000000,883.000000 
	C1582.333374,883.000000 2034.666626,883.000671 2487.000000,882.991272 
	C2491.751953,882.991211 2496.613281,883.626038 2501.000000,880.785645 
	C2501.000000,590.666687 2501.000000,300.333344 2501.000000,8.000000 
	C2041.335327,8.000000 1581.667603,8.000000 1122.000000,8.000000 
"/>
<path fill="none" opacity="1.000000" stroke="#000000" stroke-linecap="round" stroke-linejoin="round" stroke-width="8.000000"
	d="
M15.000000,903.000000 
	C11.328263,903.328247 9.239887,905.323181 9.029626,909.001709 
	C8.877694,911.659668 9.000000,914.333313 9.000000,917.000000 
	C9.000000,1159.000000 9.000010,1401.000000 8.999999,1643.000000 
	C8.999998,1655.982422 9.000003,1655.997314 22.000000,1655.997681 
	C138.000000,1656.001709 254.000000,1656.001709 370.000000,1655.997681 
	C383.000000,1655.997192 383.000000,1655.982422 383.000000,1643.000000 
	C383.000000,1401.000000 383.001404,1159.000000 382.988373,917.000000 
	C382.988129,912.814087 383.460419,908.576477 381.200287,903.000000 
	C260.004089,903.000000 138.002045,903.000000 16.000000,903.000000 
"/>
<path fill="none" opacity="1.000000" stroke="#000000" stroke-linecap="round" stroke-linejoin="round" stroke-width="8.000000"
	d="
M409.000000,903.000000 
	C405.328278,903.328247 403.239838,905.323181 403.029602,909.001709 
	C402.877655,911.659668 403.000000,914.333313 403.000000,917.000000 
	C403.000000,1159.000000 403.000000,1401.000000 403.000000,1643.000000 
	C403.000000,1655.982422 403.000000,1655.997681 416.000000,1655.997803 
	C673.333313,1656.000854 930.666687,1656.000732 1188.000000,1655.998047 
	C1199.983765,1655.997925 1199.997681,1655.983765 1199.997803,1644.000000 
	C1200.000610,1401.333374 1200.000854,1158.666626 1199.997681,916.000000 
	C1199.997559,903.000000 1199.982422,903.000000 1187.000000,903.000000 
	C928.000000,903.000000 669.000000,903.000000 410.000000,903.000000 
"/>
<path fill="none" opacity="1.000000" stroke="#000000" stroke-linecap="round" stroke-linejoin="round" stroke-width="8.000000"
	d="
M1227.000000,903.000000 
	C1223.328247,903.328247 1221.239868,905.323181 1221.029663,909.001709 
	C1220.877686,911.659668 1221.000000,914.333313 1221.000000,917.000000 
	C1221.000000,1785.000000 1221.001343,2653.000000 1220.970581,3521.000000 
	C1220.970337,3526.565430 1220.807007,3532.077881 1224.309082,3537.000000 
	C1649.666626,3537.000000 2075.333252,3537.000000 2501.000000,3537.000000 
	C2501.000000,2659.666748 2501.000000,1782.333374 2501.000000,903.000000 
	C2076.668701,903.000000 1652.334351,903.000000 1228.000000,903.000000 
"/>
<path fill="none" opacity="1.000000" stroke="#000000" stroke-linecap="round" stroke-linejoin="round" stroke-width="7.000000"
	d="
M15.000000,1676.000000 
	C10.656363,1676.908936 8.359867,1679.298828 8.966343,1684.004395 
	C9.177638,1685.643677 9.000000,1687.333374 9.000000,1689.000000 
	C9.000000,1932.333374 9.000010,2175.666748 8.999999,2419.000000 
	C8.999999,2431.982422 9.000004,2431.997559 22.000000,2431.997803 
	C410.000000,2432.000488 798.000000,2432.000244 1186.000000,2431.997559 
	C1198.893799,2431.997559 1199.997681,2430.893799 1199.997803,2418.000000 
	C1200.000854,2175.666748 1200.000000,1933.333374 1200.000000,1691.000000 
	C1200.000000,1676.783081 1199.216919,1676.000000 1185.000000,1676.000000 
	C795.333313,1676.000000 405.666656,1676.000000 16.000000,1676.000000 
"/>
<path fill="none" opacity="1.000000" stroke="#000000" stroke-linecap="round" stroke-linejoin="round" stroke-width="8.000000"
	d="
M15.000000,2452.000000 
	C10.656363,2452.908936 8.359792,2455.298828 8.966252,2460.004395 
	C9.177578,2461.643799 9.000000,2463.333252 9.000000,2465.000000 
	C9.000000,2817.000000 9.003290,3169.000000 8.970366,3521.000000 
	C8.969845,3526.565430 8.807059,3532.077881 12.309062,3537.000000 
	C176.666672,3537.000000 341.333344,3537.000000 505.788788,3537.000000 
	C508.727783,3532.345459 509.046417,3527.273193 509.045654,3522.000000 
	C508.995178,3169.333252 509.000458,2816.666748 508.997955,2464.000000 
	C508.997864,2452.017578 508.983795,2452.002686 496.000000,2452.002197 
	C336.000000,2451.998779 176.000000,2452.000000 16.000000,2452.000000 
"/>
<path fill="none" opacity="1.000000" stroke="#000000" stroke-linecap="round" stroke-linejoin="round" stroke-width="7.000000"
	d="
M535.000000,2452.000000 
	C530.656372,2452.908936 528.359802,2455.298828 528.966248,2460.004395 
	C529.177551,2461.643799 529.000000,2463.333252 529.000000,2465.000000 
	C529.000000,2817.000000 529.003296,3169.000000 528.970337,3521.000000 
	C528.969849,3526.565430 528.807068,3532.077881 532.309082,3537.000000 
	C753.666687,3537.000000 975.333313,3537.000000 1196.241943,3537.000000 
	C1200.680664,3531.446777 1200.004517,3525.172363 1200.004395,3519.000000 
	C1199.999512,3167.666748 1200.000000,2816.333252 1200.000000,2465.000000 
	C1200.000000,2452.000000 1200.000000,2452.000000 1187.000000,2452.000000 
	C970.000000,2452.000000 753.000000,2452.000000 536.000000,2452.000000 
"/>
</svg>