<?xml version="1.0" encoding="UTF-8" standalone="no" ?>
<!DOCTYPE svg PUBLIC "-//W3C//DTD SVG 1.1//EN" "http://www.w3.org/Graphics/SVG/1.1/DTD/svg11.dtd">
<svg xmlns="http://www.w3.org/2000/svg" xmlns:xlink="http://www.w3.org/1999/xlink" version="1.1" width="623.6363636363636" height="882" viewBox="0 0 623.6363636363636 882" xml:space="preserve">
<desc>Created with Fabric.js 5.3.0</desc>
<g transform="matrix(1 0 0 1 147.27937633700225 126.15076920970837)"  >
<polygon style="stroke: rgb(0,0,0); stroke-width: 2; stroke-dasharray: none; stroke-linecap: butt; stroke-dashoffset: 0; stroke-linejoin: miter; stroke-miterlimit: 4; fill: rgb(255,255,255); fill-opacity: 0.25; fill-rule: nonzero; opacity: 1;"  points="146.27937633700225,-125.15076920970837 -146.27937633700225,-125.15076920970837 -146.27937633700225,125.15076920970837 146.27937633700225,125.15076920970837 " />
</g>
<g transform="matrix(1 0 0 1 463.206649064275 126.15076920970837)"  >
<polygon style="stroke: rgb(0,0,0); stroke-width: 2; stroke-dasharray: none; stroke-linecap: butt; stroke-dashoffset: 0; stroke-linejoin: miter; stroke-miterlimit: 4; fill: rgb(255,255,255); fill-opacity: 0.25; fill-rule: nonzero; opacity: 1;"  points="159.6478963902705,125.15076920970837 159.6478963902705,-125.15076920970837 -159.6478963902705,-125.15076920970837 -159.6478963902705,125.15076920970837 " />
</g>
<g transform="matrix(1 0 0 1 311.92727272727274 444.782456757743)"  >
<polygon style="stroke: rgb(0,0,0); stroke-width: 2; stroke-dasharray: none; stroke-linecap: butt; stroke-dashoffset: 0; stroke-linejoin: miter; stroke-miterlimit: 4; fill: rgb(255,255,255); fill-opacity: 0.25; fill-rule: nonzero; opacity: 1;"  points="-310.92727272727274,-183.48091833832626 -310.92727272727274,183.48091833832626 310.92727272727274,183.48091833832626 310.92727272727274,-183.48091833832626 " />
</g>
<g transform="matrix(1 0 0 1 134.28227129501357 759.7407784571255)"  >
<polygon style="stroke: rgb(0,0,0); stroke-width: 2; stroke-dasharray: none; stroke-linecap: butt; stroke-dashoffset: 0; stroke-linejoin: miter; stroke-miterlimit: 4; fill: rgb(255,255,255); fill-opacity: 0.25; fill-rule: nonzero; opacity: 1;"  points="-133.28227129501357,-121.4774033610563 -133.28227129501357,121.4774033610563 133.28227129501357,121.4774033610563 133.28227129501357,-121.4774033610563 " />
</g>
<g transform="matrix(1 0 0 1 450.2095440222863 759.7407784571255)"  >
<polygon style="stroke: rgb(0,0,0); stroke-width: 2; stroke-dasharray: none; stroke-linecap: butt; stroke-dashoffset: 0; stroke-linejoin: miter; stroke-miterlimit: 4; fill: rgb(255,255,255); fill-opacity: 0.25; fill-rule: nonzero; opacity: 1;"  points="-172.64500143225916,121.4774033610563 172.64500143225916,121.4774033610563 172.64500143225916,-121.4774033610563 -172.64500143225916,-121.4774033610563 " />
</g>
</svg>