<?xml version="1.0" encoding="UTF-8" standalone="no" ?>
<!DOCTYPE svg PUBLIC "-//W3C//DTD SVG 1.1//EN" "http://www.w3.org/Graphics/SVG/1.1/DTD/svg11.dtd">
<svg xmlns="http://www.w3.org/2000/svg" xmlns:xlink="http://www.w3.org/1999/xlink" version="1.1" width="672" height="950.4" viewBox="0 0 672 950.4" xml:space="preserve">
<desc>Created with Fabric.js 5.3.0</desc>
<g transform="matrix(1 0 0 1 336.04 789.2045924634724)"  >
<polygon style="stroke: rgb(0,0,0); stroke-width: 2; stroke-dasharray: none; stroke-linecap: butt; stroke-dashoffset: 0; stroke-linejoin: miter; stroke-miterlimit: 4; fill: rgb(255,255,255); fill-opacity: 0.25; fill-rule: nonzero; opacity: 1;"  points="-335.04,-160.2754075365276 -335.04,160.2754075365276 335.04,160.2754075365276 335.04,-160.2754075365276 " />
</g>
<g transform="matrix(1 0 0 1 487.4477850056586 309.9645924634724)"  >
<polygon style="stroke: rgb(0,0,0); stroke-width: 2; stroke-dasharray: none; stroke-linecap: butt; stroke-dashoffset: 0; stroke-linejoin: miter; stroke-miterlimit: 4; fill: rgb(255,255,255); fill-opacity: 0.25; fill-rule: nonzero; opacity: 1;"  points="183.63221499434144,308.9645924634724 183.63221499434144,-308.9645924634724 -183.63221499434144,-308.9645924634724 -71.00625229561768,308.9645924634724 " />
</g>
<g transform="matrix(1 0 0 1 167.7278784636025 107.48742694164706)"  >
<polygon style="stroke: rgb(0,0,0); stroke-width: 2; stroke-dasharray: none; stroke-linecap: butt; stroke-dashoffset: 0; stroke-linejoin: miter; stroke-miterlimit: 4; fill: rgb(255,255,255); fill-opacity: 0.25; fill-rule: nonzero; opacity: 1;"  points="126.08769154771466,-106.48742694164706 -166.7278784636025,-106.48742694164706 -166.7278784636025,106.48742694164706 166.7278784636025,106.48742694164706 " />
</g>
<g transform="matrix(1 0 0 1 187.4101214542567 326.9626754949343)"  >
<polygon style="stroke: rgb(0,0,0); stroke-width: 2; stroke-dasharray: none; stroke-linecap: butt; stroke-dashoffset: 0; stroke-linejoin: miter; stroke-miterlimit: 4; fill: rgb(255,255,255); fill-opacity: 0.25; fill-rule: nonzero; opacity: 1;"  points="-186.4101214542567,-102.98782161164017 -186.4101214542567,102.98782161164017 186.4101214542567,102.98782161164017 147.0456354729483,-102.98782161164017 " />
</g>
<g transform="matrix(1 0 0 1 203.72076635502046 529.4398410167596)"  >
<polygon style="stroke: rgb(0,0,0); stroke-width: 2; stroke-dasharray: none; stroke-linecap: butt; stroke-dashoffset: 0; stroke-linejoin: miter; stroke-miterlimit: 4; fill: rgb(255,255,255); fill-opacity: 0.25; fill-rule: nonzero; opacity: 1;"  points="-202.72076635502046,-89.48934391018516 -202.72076635502046,89.48934391018516 202.72076635502046,89.48934391018516 170.09947655349296,-89.48934391018516 " />
</g>
</svg>