<?xml version="1.0" encoding="UTF-8" standalone="no" ?>
<!DOCTYPE svg PUBLIC "-//W3C//DTD SVG 1.1//EN" "http://www.w3.org/Graphics/SVG/1.1/DTD/svg11.dtd">
<svg xmlns="http://www.w3.org/2000/svg" xmlns:xlink="http://www.w3.org/1999/xlink" version="1.1" width="704.2424242424242" height="996" viewBox="0 0 704.2424242424242 996" xml:space="preserve">
<desc>Created with Fabric.js 5.3.0</desc>
<defs>
</defs>
<g transform="matrix(1 0 0 1 352.1151515151515 780.953742000986)"  >
<polygon style="stroke: rgb(0,0,0); stroke-width: 2; stroke-dasharray: none; stroke-linecap: butt; stroke-dashoffset: 0; stroke-linejoin: miter; stroke-miterlimit: 4; fill: rgb(255,255,255); fill-opacity: 0.25; fill-rule: nonzero; opacity: 1;"  points="-351.1151515151515,-214.03413678689267 -351.1151515151515,214.03413678689267 351.1151515151515,214.03413678689267 351.1151515151515,-214.03413678689267 " />
</g>
<g transform="matrix(1 0 0 1 120.60550022586683 445.9196123226051)"  >
<polygon style="stroke: rgb(0,0,0); stroke-width: 2; stroke-dasharray: none; stroke-linecap: butt; stroke-dashoffset: 0; stroke-linejoin: miter; stroke-miterlimit: 4; fill: rgb(255,255,255); fill-opacity: 0.25; fill-rule: nonzero; opacity: 1;"  points="-119.60550022586683,-110.99999289148829 -119.60550022586683,110.99999289148829 91.86500019696608,110.99999289148829 119.60550022586683,-110.99999289148829 " />
</g>
<g transform="matrix(1 0 0 1 462.85040172656795 445.9196123226051)"  >
<polygon style="stroke: rgb(0,0,0); stroke-width: 2; stroke-dasharray: none; stroke-linecap: butt; stroke-dashoffset: 0; stroke-linejoin: miter; stroke-miterlimit: 4; fill: rgb(255,255,255); fill-opacity: 0.25; fill-rule: nonzero; opacity: 1;"  points="-240.37990130373507,110.99999289148829 240.37990130373507,110.99999289148829 240.37990130373507,-110.99999289148829 -212.6394012748343,-110.99999289148829 " />
</g>
<g transform="matrix(1 0 0 1 130.7517348786031 162.9598097155584)"  >
<polygon style="stroke: rgb(0,0,0); stroke-width: 2; stroke-dasharray: none; stroke-linecap: butt; stroke-dashoffset: 0; stroke-linejoin: miter; stroke-miterlimit: 4; fill: rgb(255,255,255); fill-opacity: 0.25; fill-rule: nonzero; opacity: 1;"  points="61.977810647502935,-161.9598097155584 -129.7517348786031,-161.9598097155584 -129.7517348786031,161.9598097155584 129.7517348786031,161.9598097155584 " />
</g>
<g transform="matrix(1 0 0 1 354.73713500125723 162.9598097155584)"  >
<polygon style="stroke: rgb(0,0,0); stroke-width: 2; stroke-dasharray: none; stroke-linecap: butt; stroke-dashoffset: 0; stroke-linejoin: miter; stroke-miterlimit: 4; fill: rgb(255,255,255); fill-opacity: 0.25; fill-rule: nonzero; opacity: 1;"  points="152.00758947515112,-161.9598097155584 -152.00758947515124,-161.9598097155584 -84.23366524405108,161.9598097155584 152.00758947515124,161.9598097155584 " />
</g>
<g transform="matrix(1 0 0 1 609.9875137533556 162.9598097155584)"  >
<polygon style="stroke: rgb(0,0,0); stroke-width: 2; stroke-dasharray: none; stroke-linecap: butt; stroke-dashoffset: 0; stroke-linejoin: miter; stroke-miterlimit: 4; fill: rgb(255,255,255); fill-opacity: 0.25; fill-rule: nonzero; opacity: 1;"  points="93.24278927694735,161.9598097155584 93.24278927694735,-161.9598097155584 -93.24278927694735,-161.9598097155584 -93.24278927694724,161.9598097155584 " />
</g>
</svg>