<?xml version="1.0" encoding="UTF-8" standalone="no" ?>
<!DOCTYPE svg PUBLIC "-//W3C//DTD SVG 1.1//EN" "http://www.w3.org/Graphics/SVG/1.1/DTD/svg11.dtd">
<svg xmlns="http://www.w3.org/2000/svg" xmlns:xlink="http://www.w3.org/1999/xlink" version="1.1" width="672" height="950.4" viewBox="0 0 672 950.4" xml:space="preserve">
<desc>Created with Fabric.js 5.3.0</desc>
<defs>
</defs>
<g transform="matrix(1 0 0 1 161.97320556640625 475.24)"  >
<polygon style="stroke: rgb(0,0,0); stroke-width: 2; stroke-dasharray: none; stroke-linecap: butt; stroke-dashoffset: 0; stroke-linejoin: miter; stroke-miterlimit: 4; fill: rgb(255,255,255); fill-opacity: 0.25; fill-rule: nonzero; opacity: 1;"  points="160.97320556640625,-474.24 -160.97320556640625,-474.24 -160.97320556640625,474.24 160.97320556640625,474.24 " />
</g>
<g transform="matrix(1 0 0 1 502.01320556640627 110.9870322716539)"  >
<polygon style="stroke: rgb(0,0,0); stroke-width: 2; stroke-dasharray: none; stroke-linecap: butt; stroke-dashoffset: 0; stroke-linejoin: miter; stroke-miterlimit: 4; fill: rgb(255,255,255); fill-opacity: 0.25; fill-rule: nonzero; opacity: 1;"  points="169.06679443359377,109.9870322716539 169.06679443359377,-109.9870322716539 -169.06679443359377,-109.9870322716539 -169.06679443359377,109.9870322716539 " />
</g>
<g transform="matrix(1 0 0 1 502.01320556640627 347.460363856403)"  >
<polygon style="stroke: rgb(0,0,0); stroke-width: 2; stroke-dasharray: none; stroke-linecap: butt; stroke-dashoffset: 0; stroke-linejoin: miter; stroke-miterlimit: 4; fill: rgb(255,255,255); fill-opacity: 0.25; fill-rule: nonzero; opacity: 1;"  points="169.06679443359377,116.4862993130952 169.06679443359377,-116.4862993130952 -169.06679443359377,-116.4862993130952 -169.06679443359377,116.4862993130952 " />
</g>
<g transform="matrix(1 0 0 1 502.01320556640627 582.9338082040074)"  >
<polygon style="stroke: rgb(0,0,0); stroke-width: 2; stroke-dasharray: none; stroke-linecap: butt; stroke-dashoffset: 0; stroke-linejoin: miter; stroke-miterlimit: 4; fill: rgb(255,255,255); fill-opacity: 0.25; fill-rule: nonzero; opacity: 1;"  points="169.06679443359377,108.98714503450915 169.06679443359377,-108.98714503450915 -169.06679443359377,-108.98714503450915 -169.06679443359377,108.98714503450915 " />
</g>
<g transform="matrix(1 0 0 1 502.01320556640627 825.7004766192583)"  >
<polygon style="stroke: rgb(0,0,0); stroke-width: 2; stroke-dasharray: none; stroke-linecap: butt; stroke-dashoffset: 0; stroke-linejoin: miter; stroke-miterlimit: 4; fill: rgb(255,255,255); fill-opacity: 0.25; fill-rule: nonzero; opacity: 1;"  points="-169.06679443359377,123.77952338074175 169.06679443359377,123.77952338074175 169.06679443359377,-123.77952338074175 -169.06679443359377,-123.77952338074175 " />
</g>
</svg>