<?xml version="1.0" encoding="UTF-8" standalone="no" ?>
<!DOCTYPE svg PUBLIC "-//W3C//DTD SVG 1.1//EN" "http://www.w3.org/Graphics/SVG/1.1/DTD/svg11.dtd">
<svg xmlns="http://www.w3.org/2000/svg" xmlns:xlink="http://www.w3.org/1999/xlink" version="1.1" width="672" height="950.4" viewBox="0 0 672 950.4" xml:space="preserve">
<desc>Created with Fabric.js 5.3.0</desc>
<g transform="matrix(1 0 0 1 336.04 207.35540808854427)"  >
<polygon style="stroke: rgb(0,0,0); stroke-width: 2; stroke-dasharray: none; stroke-linecap: butt; stroke-dashoffset: 0; stroke-linejoin: miter; stroke-miterlimit: 4; fill: rgb(255,255,255); fill-opacity: 0.25; fill-rule: nonzero; opacity: 1;"  points="335.04,101.53876258803535 335.04,-206.35540808854427 -335.04,-206.35540808854427 -335.04,206.35540808854427 " />
</g>
<g transform="matrix(1 0 0 1 336.04 736.1249022549091)"  >
<polygon style="stroke: rgb(0,0,0); stroke-width: 2; stroke-dasharray: none; stroke-linecap: butt; stroke-dashoffset: 0; stroke-linejoin: miter; stroke-miterlimit: 4; fill: rgb(255,255,255); fill-opacity: 0.25; fill-rule: nonzero; opacity: 1;"  points="-335.04,-90.75119251188022 -335.04,213.3550977450912 335.04,213.3550977450912 335.04,-213.3550977450912 " />
</g>
<g transform="matrix(1 0 0 1 428.80264884612143 456.93331653307314)"  >
<polygon style="stroke: rgb(0,0,0); stroke-width: 2; stroke-dasharray: none; stroke-linecap: butt; stroke-dashoffset: 0; stroke-linejoin: miter; stroke-miterlimit: 4; fill: rgb(255,255,255); fill-opacity: 0.25; fill-rule: nonzero; opacity: 1;"  points="-61.86626462310517,111.48535832954929 117.89614498758328,76.76470932534892 62.52223390994453,-111.48535832954929 -117.89614498758328,-81.69933917111484 " />
</g>
<g transform="matrix(1 0 0 1 586.202441378033 426.29609826750084)"  >
<polygon style="stroke: rgb(0,0,0); stroke-width: 2; stroke-dasharray: none; stroke-linecap: butt; stroke-dashoffset: 0; stroke-linejoin: miter; stroke-miterlimit: 4; fill: rgb(255,255,255); fill-opacity: 0.25; fill-rule: nonzero; opacity: 1;"  points="-29.503647544328345,107.40192759092122 84.8775586219671,86.47370624231678 84.8775586219671,-107.40192759092122 -84.8775586219671,-80.84814006397698 " />
</g>
<g transform="matrix(1 0 0 1 90.51686135785741 521.5899896888171)"  >
<polygon style="stroke: rgb(0,0,0); stroke-width: 2; stroke-dasharray: none; stroke-linecap: butt; stroke-dashoffset: 0; stroke-linejoin: miter; stroke-miterlimit: 4; fill: rgb(255,255,255); fill-opacity: 0.25; fill-rule: nonzero; opacity: 1;"  points="-89.62797237926371,-94.8666872823174 -89.57045022504491,115.33818037243111 89.62797237926371,81.19535471490002 37.53418090212247,-115.33818037243113 " />
</g>
<g transform="matrix(1 0 0 1 248.8403052188004 489.4049181547104)"  >
<polygon style="stroke: rgb(0,0,0); stroke-width: 2; stroke-dasharray: none; stroke-linecap: butt; stroke-dashoffset: 0; stroke-linejoin: miter; stroke-miterlimit: 4; fill: rgb(255,255,255); fill-opacity: 0.25; fill-rule: nonzero; opacity: 1;"  points="-57.47324943886662,112.26944040617383 109.20719002562211,80.9152570944903 53.177309661143994,-112.26944040617383 -109.20719002562211,-86.02163612012873 " />
</g>
</svg>