<?xml version="1.0" encoding="UTF-8" standalone="no" ?>
<!DOCTYPE svg PUBLIC "-//W3C//DTD SVG 1.1//EN" "http://www.w3.org/Graphics/SVG/1.1/DTD/svg11.dtd">
<svg xmlns="http://www.w3.org/2000/svg" xmlns:xlink="http://www.w3.org/1999/xlink" version="1.1" width="672" height="950.4" viewBox="0 0 672 950.4" xml:space="preserve">
<desc>Created with Fabric.js 5.3.0</desc>
<g transform="matrix(1 0 0 1 214.8115066165537 197.47727828468058)"  >
<polygon style="stroke: rgb(0,0,0); stroke-width: 2; stroke-dasharray: none; stroke-linecap: butt; stroke-dashoffset: 0; stroke-linejoin: miter; stroke-miterlimit: 4; fill: rgb(255,255,255); fill-opacity: 0.25; fill-rule: nonzero; opacity: 1;"  points="101.95798143933575,-196.47727828468058 -213.8115066165537,-196.47727828468058 -213.8115066165537,196.47727828468058 213.8115066165537,196.47727828468058 " />
</g>
<g transform="matrix(1 0 0 1 498.9247440279447 76.99086620873014)"  >
<polygon style="stroke: rgb(0,0,0); stroke-width: 2; stroke-dasharray: none; stroke-linecap: butt; stroke-dashoffset: 0; stroke-linejoin: miter; stroke-miterlimit: 4; fill: rgb(255,255,255); fill-opacity: 0.25; fill-rule: nonzero; opacity: 1;"  points="172.1552559720553,75.99086620873014 172.1552559720553,-75.99086620873014 -172.1552559720553,-75.99086620873014 -126.04756366436297,75.99086620873014 " />
</g>
<g transform="matrix(1 0 0 1 521.9785901817909 278.4681444934107)"  >
<polygon style="stroke: rgb(0,0,0); stroke-width: 2; stroke-dasharray: none; stroke-linecap: butt; stroke-dashoffset: 0; stroke-linejoin: miter; stroke-miterlimit: 4; fill: rgb(255,255,255); fill-opacity: 0.25; fill-rule: nonzero; opacity: 1;"  points="149.10140981820913,115.48641207595044 149.10140981820913,-115.48641207595044 -149.10140981820913,-115.48641207595044 -83.35557694868348,115.48641207595044 " />
</g>
<g transform="matrix(1 0 0 1 109.47320556640625 676.7172782846806)"  >
<polygon style="stroke: rgb(0,0,0); stroke-width: 2; stroke-dasharray: none; stroke-linecap: butt; stroke-dashoffset: 0; stroke-linejoin: miter; stroke-miterlimit: 4; fill: rgb(255,255,255); fill-opacity: 0.25; fill-rule: nonzero; opacity: 1;"  points="-108.47320556640625,-272.76272171531946 -108.47320556640625,272.76272171531946 108.47320556640625,272.76272171531946 108.47320556640625,-272.76272171531946 " />
</g>
<g transform="matrix(1 0 0 1 449.51320556640627 490.44423876811186)"  >
<polygon style="stroke: rgb(0,0,0); stroke-width: 2; stroke-dasharray: none; stroke-linecap: butt; stroke-dashoffset: 0; stroke-linejoin: miter; stroke-miterlimit: 4; fill: rgb(255,255,255); fill-opacity: 0.25; fill-rule: nonzero; opacity: 1;"  points="221.56679443359377,86.48968219875067 221.56679443359377,-86.48968219875067 -221.56679443359377,-86.48968219875067 -221.56679443359377,86.48968219875067 " />
</g>
<g transform="matrix(1 0 0 1 449.51320556640627 768.2069604834313)"  >
<polygon style="stroke: rgb(0,0,0); stroke-width: 2; stroke-dasharray: none; stroke-linecap: butt; stroke-dashoffset: 0; stroke-linejoin: miter; stroke-miterlimit: 4; fill: rgb(255,255,255); fill-opacity: 0.25; fill-rule: nonzero; opacity: 1;"  points="-221.56679443359377,181.2730395165688 221.56679443359377,181.2730395165688 221.56679443359377,-181.2730395165688 -221.56679443359377,-181.2730395165688 " />
</g>
</svg>