<?xml version="1.0" encoding="UTF-8" standalone="no" ?>
<!DOCTYPE svg PUBLIC "-//W3C//DTD SVG 1.1//EN" "http://www.w3.org/Graphics/SVG/1.1/DTD/svg11.dtd">
<svg xmlns="http://www.w3.org/2000/svg" xmlns:xlink="http://www.w3.org/1999/xlink" version="1.1" width="672" height="950.4" viewBox="0 0 672 950.4" xml:space="preserve">
<desc>Created with Fabric.js 5.3.0</desc>
<g transform="matrix(1 0 0 1 506.5132055664062 111.91351599582916)"  >
<polygon style="stroke: rgb(0,0,0); stroke-width: 2; stroke-dasharray: none; stroke-linecap: butt; stroke-dashoffset: 0; stroke-linejoin: miter; stroke-miterlimit: 4; fill: rgb(255,255,255); fill-opacity: 0.25; fill-rule: nonzero; opacity: 1;"  points="164.5667944335937,110.91351599582916 164.5667944335937,-110.91351599582916 -164.5667944335937,-110.91351599582916 -164.5667944335937,110.91351599582916 " />
</g>
<g transform="matrix(1 0 0 1 506.5132055664062 351.24079153262454)"  >
<polygon style="stroke: rgb(0,0,0); stroke-width: 2; stroke-dasharray: none; stroke-linecap: butt; stroke-dashoffset: 0; stroke-linejoin: miter; stroke-miterlimit: 4; fill: rgb(255,255,255); fill-opacity: 0.25; fill-rule: nonzero; opacity: 1;"  points="164.5667944335937,118.41375954096623 164.5667944335937,-118.41375954096623 -164.5667944335937,-118.41375954096623 -164.5667944335937,118.41375954096623 " />
</g>
<g transform="matrix(1 0 0 1 166.47320556640625 111.91351599582914)"  >
<polygon style="stroke: rgb(0,0,0); stroke-width: 2; stroke-dasharray: none; stroke-linecap: butt; stroke-dashoffset: 0; stroke-linejoin: miter; stroke-miterlimit: 4; fill: rgb(255,255,255); fill-opacity: 0.25; fill-rule: nonzero; opacity: 1;"  points="165.47320556640625,-110.91351599582914 -165.47320556640625,-110.91351599582914 -165.47320556640625,110.91351599582914 165.47320556640625,110.91351599582914 " />
</g>
<g transform="matrix(1 0 0 1 166.47320556640625 351.38650929201276)"  >
<polygon style="stroke: rgb(0,0,0); stroke-width: 2; stroke-dasharray: none; stroke-linecap: butt; stroke-dashoffset: 0; stroke-linejoin: miter; stroke-miterlimit: 4; fill: rgb(255,255,255); fill-opacity: 0.25; fill-rule: nonzero; opacity: 1;"  points="-165.47320556640625,-118.55947730035442 -165.47320556640625,118.55947730035442 165.47320556640625,118.55947730035442 165.47320556640625,-118.55947730035442 " />
</g>
<g transform="matrix(1 0 0 1 506.5132055664062 592.4002481282182)"  >
<polygon style="stroke: rgb(0,0,0); stroke-width: 2; stroke-dasharray: none; stroke-linecap: butt; stroke-dashoffset: 0; stroke-linejoin: miter; stroke-miterlimit: 4; fill: rgb(255,255,255); fill-opacity: 0.25; fill-rule: nonzero; opacity: 1;"  points="164.5667944335937,112.59463965281469 164.5667944335937,-112.59463965281469 -164.5667944335937,-112.59463965281469 -164.5667944335937,112.59463965281469 " />
</g>
<g transform="matrix(1 0 0 1 506.5132055664062 832.2374438905165)"  >
<polygon style="stroke: rgb(0,0,0); stroke-width: 2; stroke-dasharray: none; stroke-linecap: butt; stroke-dashoffset: 0; stroke-linejoin: miter; stroke-miterlimit: 4; fill: rgb(255,255,255); fill-opacity: 0.25; fill-rule: nonzero; opacity: 1;"  points="-164.5667944335937,117.24255610948359 164.5667944335937,117.24255610948359 164.5667944335937,-117.24255610948359 -164.5667944335937,-117.24255610948359 " />
</g>
<g transform="matrix(1 0 0 1 166.47320556640625 593.0259301081163)"  >
<polygon style="stroke: rgb(0,0,0); stroke-width: 2; stroke-dasharray: none; stroke-linecap: butt; stroke-dashoffset: 0; stroke-linejoin: miter; stroke-miterlimit: 4; fill: rgb(255,255,255); fill-opacity: 0.25; fill-rule: nonzero; opacity: 1;"  points="-165.47320556640625,-113.07994351574916 -165.47320556640625,113.07994351574916 165.47320556640625,113.07994351574916 165.47320556640625,-113.07994351574916 " />
</g>
<g transform="matrix(1 0 0 1 166.47320556640625 832.7929368119328)"  >
<polygon style="stroke: rgb(0,0,0); stroke-width: 2; stroke-dasharray: none; stroke-linecap: butt; stroke-dashoffset: 0; stroke-linejoin: miter; stroke-miterlimit: 4; fill: rgb(255,255,255); fill-opacity: 0.25; fill-rule: nonzero; opacity: 1;"  points="-165.47320556640625,-116.68706318806727 -165.47320556640625,116.68706318806727 165.47320556640625,116.68706318806727 165.47320556640625,-116.68706318806727 " />
</g>
</svg>